<?xml version="1.0" encoding="UTF-8" standalone="no"?>
<!DOCTYPE svg PUBLIC "-//W3C//DTD SVG 1.1//EN"
 "http://www.w3.org/Graphics/SVG/1.1/DTD/svg11.dtd">
<!-- Generated by graphviz version 13.1.2 (0)
 -->
<!-- Pages: 1 -->
<svg width="2203pt" height="443pt"
 viewBox="0.00 0.00 2203.00 443.00" xmlns="http://www.w3.org/2000/svg" xmlns:xlink="http://www.w3.org/1999/xlink">
<g id="graph0" class="graph" transform="scale(1 1) rotate(0) translate(4 439)">
<polygon fill="white" stroke="none" points="-4,4 -4,-439 2198.5,-439 2198.5,4 -4,4"/>
<!-- MATH0003 -->
<g id="node1" class="node">
<title>MATH0003</title>
<g id="a_node1"><a xlink:href="https://www.ucl.ac.uk/mathematical-physical-sciences/sites/mathematical_physical_sciences/files/math0003.pdf" xlink:title="Year 1, term 1">
<polygon fill="white" stroke="#ffb90f" stroke-width="5" points="240,-435 143,-435 143,-392.5 240,-392.5 240,-435"/>
<text xml:space="preserve" text-anchor="middle" x="191.5" y="-417.7" font-family="Times,serif" font-size="14.00">MATH0003</text>
<text xml:space="preserve" text-anchor="middle" x="191.5" y="-400.45" font-family="Times,serif" font-size="14.00">Analysis 1</text>
</a>
</g>
</g>
<!-- MATH0004 -->
<g id="node6" class="node">
<title>MATH0004</title>
<g id="a_node6"><a xlink:href="https://www.ucl.ac.uk/mathematical-physical-sciences/sites/mathematical_physical_sciences/files/math0004.pdf" xlink:title="Year 1, term 2">
<polygon fill="white" stroke="#cd950c" stroke-width="5" points="201,-356.5 104,-356.5 104,-314 201,-314 201,-356.5"/>
<text xml:space="preserve" text-anchor="middle" x="152.5" y="-339.2" font-family="Times,serif" font-size="14.00">MATH0004</text>
<text xml:space="preserve" text-anchor="middle" x="152.5" y="-321.95" font-family="Times,serif" font-size="14.00">Analysis 2</text>
</a>
</g>
</g>
<!-- MATH0003&#45;&gt;MATH0004 -->
<g id="edge3" class="edge">
<title>MATH0003&#45;&gt;MATH0004</title>
<g id="a_edge3"><a xlink:title="required prerequisite">
<path fill="none" stroke="black" d="M180.01,-390.21C176.63,-383.58 172.86,-376.18 169.22,-369.04"/>
<polygon fill="black" stroke="black" points="172.39,-367.56 164.73,-360.24 166.15,-370.74 172.39,-367.56"/>
</a>
</g>
</g>
<!-- MATH0013 -->
<g id="node7" class="node">
<title>MATH0013</title>
<g id="a_node7"><a xlink:href="https://www.ucl.ac.uk/mathematical-physical-sciences/sites/mathematical_physical_sciences/files/math0013.pdf" xlink:title="Year 2, term 1">
<polygon fill="white" stroke="#00ff00" stroke-width="5" points="343.62,-278 115.37,-278 115.37,-235.5 343.62,-235.5 343.62,-278"/>
<text xml:space="preserve" text-anchor="middle" x="229.5" y="-260.7" font-family="Times,serif" font-size="14.00">MATH0013</text>
<text xml:space="preserve" text-anchor="middle" x="229.5" y="-243.45" font-family="Times,serif" font-size="14.00">Analysis 3 &#45; Complex Analysis</text>
</a>
</g>
</g>
<!-- MATH0003&#45;&gt;MATH0013 -->
<g id="edge4" class="edge">
<title>MATH0003&#45;&gt;MATH0013</title>
<g id="a_edge4"><a xlink:title="required prerequisite">
<path fill="none" stroke="black" d="M199.34,-390.2C202.73,-379.99 206.58,-367.71 209.5,-356.5 215.09,-335.05 220.04,-310.65 223.62,-291.46"/>
<polygon fill="black" stroke="black" points="227.04,-292.22 225.4,-281.75 220.16,-290.96 227.04,-292.22"/>
</a>
</g>
</g>
<!-- MATH0010 -->
<g id="node2" class="node">
<title>MATH0010</title>
<g id="a_node2"><a xlink:href="https://www.ucl.ac.uk/mathematical-physical-sciences/sites/mathematical_physical_sciences/files/math0010.pdf" xlink:title="Year 1, term 1">
<polygon fill="white" stroke="#ffb90f" stroke-width="5" points="1950.75,-435 1756.25,-435 1756.25,-392.5 1950.75,-392.5 1950.75,-435"/>
<text xml:space="preserve" text-anchor="middle" x="1853.5" y="-417.7" font-family="Times,serif" font-size="14.00">MATH0010</text>
<text xml:space="preserve" text-anchor="middle" x="1853.5" y="-400.45" font-family="Times,serif" font-size="14.00">Mathematical Methods 1</text>
</a>
</g>
</g>
<!-- MATH0011 -->
<g id="node4" class="node">
<title>MATH0011</title>
<g id="a_node4"><a xlink:href="https://www.ucl.ac.uk/mathematical-physical-sciences/sites/mathematical_physical_sciences/files/math0011_2.pdf" xlink:title="Year 1, term 2">
<polygon fill="white" stroke="#cd950c" stroke-width="5" points="1950.75,-356.5 1756.25,-356.5 1756.25,-314 1950.75,-314 1950.75,-356.5"/>
<text xml:space="preserve" text-anchor="middle" x="1853.5" y="-339.2" font-family="Times,serif" font-size="14.00">MATH0011</text>
<text xml:space="preserve" text-anchor="middle" x="1853.5" y="-321.95" font-family="Times,serif" font-size="14.00">Mathematical Methods 2</text>
</a>
</g>
</g>
<!-- MATH0010&#45;&gt;MATH0011 -->
<g id="edge1" class="edge">
<title>MATH0010&#45;&gt;MATH0011</title>
<g id="a_edge1"><a xlink:title="required prerequisite">
<path fill="none" stroke="black" d="M1853.5,-390.21C1853.5,-383.89 1853.5,-376.87 1853.5,-370.04"/>
<polygon fill="black" stroke="black" points="1857,-370.41 1853.5,-360.41 1850,-370.41 1857,-370.41"/>
</a>
</g>
</g>
<!-- MATH0005 -->
<g id="node3" class="node">
<title>MATH0005</title>
<g id="a_node3"><a xlink:href="https://www.ucl.ac.uk/mathematical-physical-sciences/sites/mathematical_physical_sciences/files/math0005.pdf" xlink:title="Year 1, term 1">
<polygon fill="white" stroke="#ffb90f" stroke-width="5" points="867,-435 770,-435 770,-392.5 867,-392.5 867,-435"/>
<text xml:space="preserve" text-anchor="middle" x="818.5" y="-417.7" font-family="Times,serif" font-size="14.00">MATH0005</text>
<text xml:space="preserve" text-anchor="middle" x="818.5" y="-400.45" font-family="Times,serif" font-size="14.00">Algebra 1</text>
</a>
</g>
</g>
<!-- MATH0006 -->
<g id="node5" class="node">
<title>MATH0006</title>
<g id="a_node5"><a xlink:href="https://www.ucl.ac.uk/mathematical-physical-sciences/sites/mathematical_physical_sciences/files/math0006.pdf" xlink:title="Year 1, term 2">
<polygon fill="white" stroke="#cd950c" stroke-width="5" points="867,-356.5 770,-356.5 770,-314 867,-314 867,-356.5"/>
<text xml:space="preserve" text-anchor="middle" x="818.5" y="-339.2" font-family="Times,serif" font-size="14.00">MATH0006</text>
<text xml:space="preserve" text-anchor="middle" x="818.5" y="-321.95" font-family="Times,serif" font-size="14.00">Algebra 2</text>
</a>
</g>
</g>
<!-- MATH0005&#45;&gt;MATH0006 -->
<g id="edge2" class="edge">
<title>MATH0005&#45;&gt;MATH0006</title>
<g id="a_edge2"><a xlink:title="required prerequisite">
<path fill="none" stroke="black" d="M818.5,-390.21C818.5,-383.89 818.5,-376.87 818.5,-370.04"/>
<polygon fill="black" stroke="black" points="822,-370.41 818.5,-360.41 815,-370.41 822,-370.41"/>
</a>
</g>
</g>
<!-- MATH0057 -->
<g id="node12" class="node">
<title>MATH0057</title>
<g id="a_node12"><a xlink:href="https://www.ucl.ac.uk/mathematical-physical-sciences/sites/mathematical_physical_sciences/files/math0057.pdf" xlink:title="Year 2 or 3, term 2">
<polygon fill="white" stroke="#8ee5ee" stroke-width="5" points="1952.25,-278 1754.75,-278 1754.75,-235.5 1952.25,-235.5 1952.25,-278"/>
<text xml:space="preserve" text-anchor="middle" x="1853.5" y="-260.7" font-family="Times,serif" font-size="14.00">MATH0057</text>
<text xml:space="preserve" text-anchor="middle" x="1853.5" y="-243.45" font-family="Times,serif" font-size="14.00">Probability and Statistics</text>
</a>
</g>
</g>
<!-- MATH0011&#45;&gt;MATH0057 -->
<g id="edge10" class="edge">
<title>MATH0011&#45;&gt;MATH0057</title>
<g id="a_edge10"><a xlink:title="required prerequisite">
<path fill="none" stroke="black" d="M1853.5,-311.71C1853.5,-305.39 1853.5,-298.37 1853.5,-291.54"/>
<polygon fill="black" stroke="black" points="1857,-291.91 1853.5,-281.91 1850,-291.91 1857,-291.91"/>
</a>
</g>
</g>
<!-- MATH0014 -->
<g id="node8" class="node">
<title>MATH0014</title>
<g id="a_node8"><a xlink:href="https://www.ucl.ac.uk/mathematical-physical-sciences/sites/mathematical_physical_sciences/files/math0014.pdf" xlink:title="Year 2, term 1">
<polygon fill="white" stroke="#00ff00" stroke-width="5" points="842.38,-278 582.62,-278 582.62,-235.5 842.38,-235.5 842.38,-278"/>
<text xml:space="preserve" text-anchor="middle" x="712.5" y="-260.7" font-family="Times,serif" font-size="14.00">MATH0014</text>
<text xml:space="preserve" text-anchor="middle" x="712.5" y="-243.45" font-family="Times,serif" font-size="14.00">Algebra 3: Further Linear Algebra</text>
</a>
</g>
</g>
<!-- MATH0006&#45;&gt;MATH0014 -->
<g id="edge6" class="edge">
<title>MATH0006&#45;&gt;MATH0014</title>
<g id="a_edge6"><a xlink:title="required prerequisite">
<path fill="none" stroke="black" d="M786.98,-311.5C776.3,-303.8 764.22,-295.08 752.95,-286.94"/>
<polygon fill="black" stroke="black" points="755.1,-284.18 744.94,-281.16 751,-289.85 755.1,-284.18"/>
</a>
</g>
</g>
<!-- MATH0053 -->
<g id="node10" class="node">
<title>MATH0053</title>
<g id="a_node10"><a xlink:href="https://www.ucl.ac.uk/mathematical-physical-sciences/sites/mathematical_physical_sciences/files/math0053.pdf" xlink:title="Year 2 or 3, term 2">
<polygon fill="white" stroke="#8ee5ee" stroke-width="5" points="1337,-278 1240,-278 1240,-235.5 1337,-235.5 1337,-278"/>
<text xml:space="preserve" text-anchor="middle" x="1288.5" y="-260.7" font-family="Times,serif" font-size="14.00">MATH0053</text>
<text xml:space="preserve" text-anchor="middle" x="1288.5" y="-243.45" font-family="Times,serif" font-size="14.00">Algebra 4</text>
</a>
</g>
</g>
<!-- MATH0006&#45;&gt;MATH0053 -->
<g id="edge8" class="edge">
<title>MATH0006&#45;&gt;MATH0053</title>
<g id="a_edge8"><a xlink:title="required prerequisite">
<path fill="none" stroke="black" d="M869.24,-325.99C955.95,-311.88 1132.32,-283.17 1226.3,-267.87"/>
<polygon fill="black" stroke="black" points="1226.81,-271.34 1236.12,-266.28 1225.69,-264.43 1226.81,-271.34"/>
</a>
</g>
</g>
<!-- MATH0034 -->
<g id="node11" class="node">
<title>MATH0034</title>
<g id="a_node11"><a xlink:href="https://www.ucl.ac.uk/mathematical-physical-sciences/sites/mathematical_physical_sciences/files/math0034.pdf" xlink:title="Year 2 or 3, term 2">
<polygon fill="white" stroke="#8ee5ee" stroke-width="5" points="988.75,-278 860.25,-278 860.25,-235.5 988.75,-235.5 988.75,-278"/>
<text xml:space="preserve" text-anchor="middle" x="924.5" y="-260.7" font-family="Times,serif" font-size="14.00">MATH0034</text>
<text xml:space="preserve" text-anchor="middle" x="924.5" y="-243.45" font-family="Times,serif" font-size="14.00">Number Theory</text>
</a>
</g>
</g>
<!-- MATH0006&#45;&gt;MATH0034 -->
<g id="edge9" class="edge">
<title>MATH0006&#45;&gt;MATH0034</title>
<g id="a_edge9"><a xlink:title="required prerequisite">
<path fill="none" stroke="black" d="M850.02,-311.5C860.7,-303.8 872.78,-295.08 884.05,-286.94"/>
<polygon fill="black" stroke="black" points="886,-289.85 892.06,-281.16 881.9,-284.18 886,-289.85"/>
</a>
</g>
</g>
<!-- MATH0037 -->
<g id="node17" class="node">
<title>MATH0037</title>
<g id="a_node17"><a xlink:href="https://www.ucl.ac.uk/mathematical-physical-sciences/sites/mathematical_physical_sciences/files/math0037.pdf" xlink:title="Year 3, term 2">
<polygon fill="white" stroke="#cd3333" stroke-width="5" points="420,-121 323,-121 323,-78.5 420,-78.5 420,-121"/>
<text xml:space="preserve" text-anchor="middle" x="371.5" y="-103.7" font-family="Times,serif" font-size="14.00">MATH0037</text>
<text xml:space="preserve" text-anchor="middle" x="371.5" y="-86.45" font-family="Times,serif" font-size="14.00">Logic</text>
</a>
</g>
</g>
<!-- MATH0006&#45;&gt;MATH0037 -->
<g id="edge14" class="edge">
<title>MATH0006&#45;&gt;MATH0037</title>
<g id="a_edge14"><a xlink:title="required prerequisite">
<path fill="none" stroke="black" d="M767.78,-335.02C676.13,-333.36 483.81,-315.4 390.5,-199.5 375.88,-181.34 371.34,-155.26 370.35,-134.46"/>
<polygon fill="black" stroke="black" points="373.85,-134.67 370.15,-124.74 366.85,-134.81 373.85,-134.67"/>
</a>
</g>
</g>
<!-- MATH0004&#45;&gt;MATH0013 -->
<g id="edge5" class="edge">
<title>MATH0004&#45;&gt;MATH0013</title>
<g id="a_edge5"><a xlink:title="recommended prerequisite">
<path fill="none" stroke="black" stroke-dasharray="5,2" d="M175.19,-311.71C182.64,-304.31 191.05,-295.95 198.98,-288.07"/>
<polygon fill="black" stroke="black" points="201.01,-290.99 205.64,-281.46 196.08,-286.02 201.01,-290.99"/>
</a>
</g>
</g>
<!-- MATH0051 -->
<g id="node9" class="node">
<title>MATH0051</title>
<g id="a_node9"><a xlink:href="https://www.ucl.ac.uk/mathematical-physical-sciences/sites/mathematical_physical_sciences/files/math0051.pdf" xlink:title="Year 2 or 3, term 2">
<polygon fill="white" stroke="#8ee5ee" stroke-width="5" points="97,-278 0,-278 0,-235.5 97,-235.5 97,-278"/>
<text xml:space="preserve" text-anchor="middle" x="48.5" y="-260.7" font-family="Times,serif" font-size="14.00">MATH0051</text>
<text xml:space="preserve" text-anchor="middle" x="48.5" y="-243.45" font-family="Times,serif" font-size="14.00">Analysis 4</text>
</a>
</g>
</g>
<!-- MATH0004&#45;&gt;MATH0051 -->
<g id="edge7" class="edge">
<title>MATH0004&#45;&gt;MATH0051</title>
<g id="a_edge7"><a xlink:title="required prerequisite">
<path fill="none" stroke="black" d="M121.58,-311.5C111.1,-303.8 99.25,-295.08 88.18,-286.94"/>
<polygon fill="black" stroke="black" points="90.47,-284.28 80.34,-281.17 86.32,-289.92 90.47,-284.28"/>
</a>
</g>
</g>
<!-- MATH0104 -->
<g id="node24" class="node">
<title>MATH0104</title>
<g id="a_node24"><a xlink:href="https://www.ucl.ac.uk/mathematical-physical-sciences/sites/mathematical_physical_sciences/files/math0104_2.pdf" xlink:title="Year 3 or 4, term 1">
<polygon fill="white" stroke="#ff1493" stroke-width="5" points="917.25,-42.5 791.75,-42.5 791.75,0 917.25,0 917.25,-42.5"/>
<text xml:space="preserve" text-anchor="middle" x="854.5" y="-25.2" font-family="Times,serif" font-size="14.00">MATH0104</text>
<text xml:space="preserve" text-anchor="middle" x="854.5" y="-7.95" font-family="Times,serif" font-size="14.00">Modular Forms</text>
</a>
</g>
</g>
<!-- MATH0013&#45;&gt;MATH0104 -->
<g id="edge24" class="edge">
<title>MATH0013&#45;&gt;MATH0104</title>
<g id="a_edge24"><a xlink:title="required prerequisite">
<path fill="none" stroke="black" d="M237.03,-233.29C252.02,-190.01 286.47,-97.63 313.5,-78.5 350.59,-52.25 637.7,-33.68 777.92,-26.07"/>
<polygon fill="black" stroke="black" points="778.08,-29.57 787.88,-25.54 777.71,-22.58 778.08,-29.57"/>
</a>
</g>
</g>
<!-- MATH0083 -->
<g id="node25" class="node">
<title>MATH0083</title>
<g id="a_node25"><a xlink:href="https://www.ucl.ac.uk/mathematical-physical-sciences/sites/mathematical_physical_sciences/files/math0083.pdf" xlink:title="Year 3 or 4, term 1">
<polygon fill="white" stroke="#ff1493" stroke-width="5" points="374.38,-42.5 84.62,-42.5 84.62,0 374.38,0 374.38,-42.5"/>
<text xml:space="preserve" text-anchor="middle" x="229.5" y="-25.2" font-family="Times,serif" font-size="14.00">MATH0083</text>
<text xml:space="preserve" text-anchor="middle" x="229.5" y="-7.95" font-family="Times,serif" font-size="14.00">Prime Numbers and their Distribution</text>
</a>
</g>
</g>
<!-- MATH0013&#45;&gt;MATH0083 -->
<g id="edge27" class="edge">
<title>MATH0013&#45;&gt;MATH0083</title>
<g id="a_edge27"><a xlink:title="required prerequisite">
<path fill="none" stroke="black" d="M229.5,-233.36C229.5,-192.32 229.5,-104.82 229.5,-56.35"/>
<polygon fill="black" stroke="black" points="233,-56.43 229.5,-46.43 226,-56.43 233,-56.43"/>
</a>
</g>
</g>
<!-- MATH0023 -->
<g id="node14" class="node">
<title>MATH0023</title>
<g id="a_node14"><a xlink:href="https://www.ucl.ac.uk/mathematical-physical-sciences/sites/mathematical_physical_sciences/files/math0023_1.pdf" xlink:title="Year 3, term 1">
<polygon fill="white" stroke="#ff4040" stroke-width="5" points="788.75,-199.5 636.25,-199.5 636.25,-157 788.75,-157 788.75,-199.5"/>
<text xml:space="preserve" text-anchor="middle" x="712.5" y="-182.2" font-family="Times,serif" font-size="14.00">MATH0023</text>
<text xml:space="preserve" text-anchor="middle" x="712.5" y="-164.95" font-family="Times,serif" font-size="14.00">Algebraic Topology</text>
</a>
</g>
</g>
<!-- MATH0014&#45;&gt;MATH0023 -->
<g id="edge12" class="edge">
<title>MATH0014&#45;&gt;MATH0023</title>
<g id="a_edge12"><a xlink:title="required prerequisite">
<path fill="none" stroke="black" d="M712.5,-233.21C712.5,-226.89 712.5,-219.87 712.5,-213.04"/>
<polygon fill="black" stroke="black" points="716,-213.41 712.5,-203.41 709,-213.41 716,-213.41"/>
</a>
</g>
</g>
<!-- MATH0014&#45;&gt;MATH0104 -->
<g id="edge25" class="edge">
<title>MATH0014&#45;&gt;MATH0104</title>
<g id="a_edge25"><a xlink:title="required prerequisite">
<path fill="none" stroke="black" d="M758.58,-233.16C772.72,-224.33 787.24,-213.04 797.5,-199.5 830.15,-156.43 844.47,-94.01 850.47,-55.89"/>
<polygon fill="black" stroke="black" points="853.88,-56.78 851.86,-46.38 846.95,-55.77 853.88,-56.78"/>
</a>
</g>
</g>
<!-- MATH0075 -->
<g id="node26" class="node">
<title>MATH0075</title>
<g id="a_node26"><a xlink:href="https://www.ucl.ac.uk/mathematical-physical-sciences/sites/mathematical_physical_sciences/files/math0075_3.pdf" xlink:title="Year 3 or 4, term 2">
<polygon fill="white" stroke="#cd1076" stroke-width="5" points="617.75,-199.5 399.25,-199.5 399.25,-157 617.75,-157 617.75,-199.5"/>
<text xml:space="preserve" text-anchor="middle" x="508.5" y="-182.2" font-family="Times,serif" font-size="14.00">MATH0075</text>
<text xml:space="preserve" text-anchor="middle" x="508.5" y="-164.95" font-family="Times,serif" font-size="14.00">Lie Groups and Lie Algebras</text>
</a>
</g>
</g>
<!-- MATH0014&#45;&gt;MATH0075 -->
<g id="edge30" class="edge">
<title>MATH0014&#45;&gt;MATH0075</title>
<g id="a_edge30"><a xlink:title="required prerequisite">
<path fill="none" stroke="black" d="M651.85,-233C629.13,-224.49 603.13,-214.74 579.56,-205.9"/>
<polygon fill="black" stroke="black" points="580.93,-202.67 570.34,-202.44 578.47,-209.23 580.93,-202.67"/>
</a>
</g>
</g>
<!-- MATH0051&#45;&gt;MATH0083 -->
<g id="edge28" class="edge">
<title>MATH0051&#45;&gt;MATH0083</title>
<g id="a_edge28"><a xlink:title="required prerequisite">
<path fill="none" stroke="black" d="M65.86,-233.36C98.21,-191.63 167.8,-101.84 204.95,-53.91"/>
<polygon fill="black" stroke="black" points="207.64,-56.16 211,-46.11 202.11,-51.87 207.64,-56.16"/>
</a>
</g>
</g>
<!-- MATH0022 -->
<g id="node13" class="node">
<title>MATH0022</title>
<g id="a_node13"><a xlink:href="https://www.ucl.ac.uk/mathematical-physical-sciences/sites/mathematical_physical_sciences/files/math0022.pdf" xlink:title="Year 3, term 1">
<polygon fill="white" stroke="#ff4040" stroke-width="5" points="1345.62,-199.5 1231.38,-199.5 1231.38,-157 1345.62,-157 1345.62,-199.5"/>
<text xml:space="preserve" text-anchor="middle" x="1288.5" y="-182.2" font-family="Times,serif" font-size="14.00">MATH0022</text>
<text xml:space="preserve" text-anchor="middle" x="1288.5" y="-164.95" font-family="Times,serif" font-size="14.00">Galois Theory</text>
</a>
</g>
</g>
<!-- MATH0053&#45;&gt;MATH0022 -->
<g id="edge11" class="edge">
<title>MATH0053&#45;&gt;MATH0022</title>
<g id="a_edge11"><a xlink:title="required prerequisite">
<path fill="none" stroke="black" d="M1288.5,-233.21C1288.5,-226.89 1288.5,-219.87 1288.5,-213.04"/>
<polygon fill="black" stroke="black" points="1292,-213.41 1288.5,-203.41 1285,-213.41 1292,-213.41"/>
</a>
</g>
</g>
<!-- MATH0108 -->
<g id="node18" class="node">
<title>MATH0108</title>
<g id="a_node18"><a xlink:href="https://www.ucl.ac.uk/mathematical-physical-sciences/sites/mathematical_physical_sciences/files/0108_0.pdf" xlink:title="Year 3, term 2">
<polygon fill="white" stroke="#cd3333" stroke-width="5" points="1822.38,-121 1574.62,-121 1574.62,-78.5 1822.38,-78.5 1822.38,-121"/>
<text xml:space="preserve" text-anchor="middle" x="1698.5" y="-103.7" font-family="Times,serif" font-size="14.00">MATH0108</text>
<text xml:space="preserve" text-anchor="middle" x="1698.5" y="-86.45" font-family="Times,serif" font-size="14.00">Commutative Rings and Algebra</text>
</a>
</g>
</g>
<!-- MATH0053&#45;&gt;MATH0108 -->
<g id="edge15" class="edge">
<title>MATH0053&#45;&gt;MATH0108</title>
<g id="a_edge15"><a xlink:title="required prerequisite">
<path fill="none" stroke="black" d="M1339.29,-251.6C1395.41,-245.59 1487.5,-231.45 1560.5,-199.5 1599.78,-182.31 1639,-152.75 1665.54,-130.44"/>
<polygon fill="black" stroke="black" points="1667.55,-133.32 1672.88,-124.16 1663,-128 1667.55,-133.32"/>
</a>
</g>
</g>
<!-- MATH0035 -->
<g id="node19" class="node">
<title>MATH0035</title>
<g id="a_node19"><a xlink:href="https://www.ucl.ac.uk/mathematical-physical-sciences/sites/mathematical_physical_sciences/files/math0035.pdf" xlink:title="Year 3, term 2">
<polygon fill="white" stroke="#cd3333" stroke-width="5" points="1260.75,-121 1060.25,-121 1060.25,-78.5 1260.75,-78.5 1260.75,-121"/>
<text xml:space="preserve" text-anchor="middle" x="1160.5" y="-103.7" font-family="Times,serif" font-size="14.00">MATH0035</text>
<text xml:space="preserve" text-anchor="middle" x="1160.5" y="-86.45" font-family="Times,serif" font-size="14.00">Algebraic Number Theory</text>
</a>
</g>
</g>
<!-- MATH0053&#45;&gt;MATH0035 -->
<g id="edge17" class="edge">
<title>MATH0053&#45;&gt;MATH0035</title>
<g id="a_edge17"><a xlink:title="required prerequisite">
<path fill="none" stroke="black" d="M1258.16,-233.15C1246.29,-223.51 1233.03,-211.69 1222.5,-199.5 1204.91,-179.16 1188.88,-153.33 1177.53,-133.2"/>
<polygon fill="black" stroke="black" points="1180.67,-131.63 1172.77,-124.57 1174.54,-135.02 1180.67,-131.63"/>
</a>
</g>
</g>
<!-- MATH0036 -->
<g id="node20" class="node">
<title>MATH0036</title>
<g id="a_node20"><a xlink:href="https://www.ucl.ac.uk/mathematical-physical-sciences/sites/mathematical_physical_sciences/files/math0036.pdf" xlink:title="Year 3, term 2">
<polygon fill="white" stroke="#cd3333" stroke-width="5" points="1042.38,-121 920.62,-121 920.62,-78.5 1042.38,-78.5 1042.38,-121"/>
<text xml:space="preserve" text-anchor="middle" x="981.5" y="-103.7" font-family="Times,serif" font-size="14.00">MATH0036</text>
<text xml:space="preserve" text-anchor="middle" x="981.5" y="-86.45" font-family="Times,serif" font-size="14.00">Elliptic Curves</text>
</a>
</g>
</g>
<!-- MATH0053&#45;&gt;MATH0036 -->
<g id="edge20" class="edge">
<title>MATH0053&#45;&gt;MATH0036</title>
<g id="a_edge20"><a xlink:title="required prerequisite">
<path fill="none" stroke="black" d="M1243.53,-233.05C1188.54,-205.28 1095.51,-158.31 1036.36,-128.45"/>
<polygon fill="black" stroke="black" points="1037.95,-125.33 1027.44,-123.95 1034.79,-131.58 1037.95,-125.33"/>
</a>
</g>
</g>
<!-- MATH0021 -->
<g id="node21" class="node">
<title>MATH0021</title>
<g id="a_node21"><a xlink:href="https://www.ucl.ac.uk/mathematical-physical-sciences/sites/mathematical_physical_sciences/files/math0021.pdf" xlink:title="Year 3, term 2">
<polygon fill="white" stroke="#cd3333" stroke-width="5" points="1518.75,-121 1354.25,-121 1354.25,-78.5 1518.75,-78.5 1518.75,-121"/>
<text xml:space="preserve" text-anchor="middle" x="1436.5" y="-103.7" font-family="Times,serif" font-size="14.00">MATH0021</text>
<text xml:space="preserve" text-anchor="middle" x="1436.5" y="-86.45" font-family="Times,serif" font-size="14.00">Homological Algebra</text>
</a>
</g>
</g>
<!-- MATH0053&#45;&gt;MATH0021 -->
<g id="edge21" class="edge">
<title>MATH0053&#45;&gt;MATH0021</title>
<g id="a_edge21"><a xlink:title="required prerequisite">
<path fill="none" stroke="black" d="M1317.06,-233.23C1329.04,-223.33 1342.87,-211.29 1354.5,-199.5 1375.45,-178.28 1396.9,-152.26 1412.61,-132.26"/>
<polygon fill="black" stroke="black" points="1415.31,-134.49 1418.68,-124.45 1409.78,-130.2 1415.31,-134.49"/>
</a>
</g>
</g>
<!-- MATH0073 -->
<g id="node23" class="node">
<title>MATH0073</title>
<g id="a_node23"><a xlink:href="https://www.ucl.ac.uk/mathematical-physical-sciences/sites/mathematical_physical_sciences/files/math0073.pdf" xlink:title="Year 3 or 4, term 1">
<polygon fill="white" stroke="#ff1493" stroke-width="5" points="1668.25,-42.5 1488.75,-42.5 1488.75,0 1668.25,0 1668.25,-42.5"/>
<text xml:space="preserve" text-anchor="middle" x="1578.5" y="-25.2" font-family="Times,serif" font-size="14.00">MATH0073</text>
<text xml:space="preserve" text-anchor="middle" x="1578.5" y="-7.95" font-family="Times,serif" font-size="14.00">Representation Theory</text>
</a>
</g>
</g>
<!-- MATH0053&#45;&gt;MATH0073 -->
<g id="edge22" class="edge">
<title>MATH0053&#45;&gt;MATH0073</title>
<g id="a_edge22"><a xlink:title="required prerequisite">
<path fill="none" stroke="black" d="M1339.36,-237.26C1391.96,-216 1473.78,-176.73 1527.5,-121 1545.44,-102.39 1558.56,-76.23 1567,-55.51"/>
<polygon fill="black" stroke="black" points="1570.2,-56.94 1570.56,-46.35 1563.68,-54.4 1570.2,-56.94"/>
</a>
</g>
</g>
<!-- MATH0034&#45;&gt;MATH0035 -->
<g id="edge16" class="edge">
<title>MATH0034&#45;&gt;MATH0035</title>
<g id="a_edge16"><a xlink:title="required prerequisite">
<path fill="none" stroke="black" d="M959.07,-233.05C1000.82,-205.63 1071.09,-159.47 1116.62,-129.57"/>
<polygon fill="black" stroke="black" points="1118.52,-132.51 1124.96,-124.09 1114.68,-126.66 1118.52,-132.51"/>
</a>
</g>
</g>
<!-- MATH0034&#45;&gt;MATH0036 -->
<g id="edge19" class="edge">
<title>MATH0034&#45;&gt;MATH0036</title>
<g id="a_edge19"><a xlink:title="required prerequisite">
<path fill="none" stroke="black" d="M932.79,-233.21C942.37,-207.15 958.23,-164.02 969.24,-134.08"/>
<polygon fill="black" stroke="black" points="972.51,-135.33 972.68,-124.74 965.94,-132.91 972.51,-135.33"/>
</a>
</g>
</g>
<!-- MATH0034&#45;&gt;MATH0104 -->
<g id="edge26" class="edge">
<title>MATH0034&#45;&gt;MATH0104</title>
<g id="a_edge26"><a xlink:title="recommended prerequisite">
<path fill="none" stroke="black" stroke-dasharray="5,2" d="M917.79,-233.36C905.43,-192.15 879.03,-104.08 864.54,-55.73"/>
<polygon fill="black" stroke="black" points="867.95,-54.94 861.73,-46.36 861.25,-56.95 867.95,-54.94"/>
</a>
</g>
</g>
<!-- MATH0034&#45;&gt;MATH0083 -->
<g id="edge29" class="edge">
<title>MATH0034&#45;&gt;MATH0083</title>
<g id="a_edge29"><a xlink:title="required prerequisite">
<path fill="none" stroke="black" d="M901.77,-233.08C877.83,-210.48 838.05,-176.43 797.5,-157 667.02,-94.46 505.41,-59.77 387.98,-41.31"/>
<polygon fill="black" stroke="black" points="388.67,-37.88 378.25,-39.81 387.6,-44.8 388.67,-37.88"/>
</a>
</g>
</g>
<!-- MATH0029 -->
<g id="node15" class="node">
<title>MATH0029</title>
<g id="a_node15"><a xlink:href="https://www.ucl.ac.uk/mathematical-physical-sciences/sites/mathematical_physical_sciences/files/math0029.pdf" xlink:title="Year 3, term 1">
<polygon fill="white" stroke="#ff4040" stroke-width="5" points="1980,-199.5 1727,-199.5 1727,-157 1980,-157 1980,-199.5"/>
<text xml:space="preserve" text-anchor="middle" x="1853.5" y="-182.2" font-family="Times,serif" font-size="14.00">MATH0029</text>
<text xml:space="preserve" text-anchor="middle" x="1853.5" y="-164.95" font-family="Times,serif" font-size="14.00">Graph Theory and Combinatorics</text>
</a>
</g>
</g>
<!-- MATH0057&#45;&gt;MATH0029 -->
<g id="edge13" class="edge">
<title>MATH0057&#45;&gt;MATH0029</title>
<g id="a_edge13"><a xlink:title="recommended prerequisite">
<path fill="none" stroke="black" stroke-dasharray="5,2" d="M1853.5,-233.21C1853.5,-226.89 1853.5,-219.87 1853.5,-213.04"/>
<polygon fill="black" stroke="black" points="1857,-213.41 1853.5,-203.41 1850,-213.41 1857,-213.41"/>
</a>
</g>
</g>
<!-- MATH0022&#45;&gt;MATH0035 -->
<g id="edge18" class="edge">
<title>MATH0022&#45;&gt;MATH0035</title>
<g id="a_edge18"><a xlink:title="recommended prerequisite">
<path fill="none" stroke="black" stroke-dasharray="5,2" d="M1250.44,-154.5C1237.03,-146.49 1221.79,-137.38 1207.71,-128.97"/>
<polygon fill="black" stroke="black" points="1209.87,-126.18 1199.49,-124.05 1206.28,-132.19 1209.87,-126.18"/>
</a>
</g>
</g>
<!-- MATH0076 -->
<g id="node27" class="node">
<title>MATH0076</title>
<g id="a_node27"><a xlink:href="https://www.ucl.ac.uk/mathematical-physical-sciences/sites/mathematical_physical_sciences/files/math0076_2.pdf" xlink:title="Year 4, term 1">
<polygon fill="white" stroke="#1c86ee" stroke-width="5" points="1470.75,-42.5 1312.25,-42.5 1312.25,0 1470.75,0 1470.75,-42.5"/>
<text xml:space="preserve" text-anchor="middle" x="1391.5" y="-25.2" font-family="Times,serif" font-size="14.00">MATH0076</text>
<text xml:space="preserve" text-anchor="middle" x="1391.5" y="-7.95" font-family="Times,serif" font-size="14.00">Algebraic Geometry</text>
</a>
</g>
</g>
<!-- MATH0022&#45;&gt;MATH0076 -->
<g id="edge32" class="edge">
<title>MATH0022&#45;&gt;MATH0076</title>
<g id="a_edge32"><a xlink:title="required prerequisite">
<path fill="none" stroke="black" d="M1300.18,-154.66C1311.07,-134.22 1328.17,-103.58 1345.5,-78.5 1351.28,-70.13 1357.99,-61.45 1364.46,-53.49"/>
<polygon fill="black" stroke="black" points="1366.96,-55.96 1370.64,-46.02 1361.57,-51.49 1366.96,-55.96"/>
</a>
</g>
</g>
<!-- MATH0061 -->
<g id="node28" class="node">
<title>MATH0061</title>
<g id="a_node28"><a xlink:href="https://www.ucl.ac.uk/mathematical-physical-sciences/sites/mathematical_physical_sciences/files/math0061_0.pdf" xlink:title="Year 4, term 2">
<polygon fill="white" stroke="#1874cd" stroke-width="5" points="1293.88,-42.5 965.12,-42.5 965.12,0 1293.88,0 1293.88,-42.5"/>
<text xml:space="preserve" text-anchor="middle" x="1129.5" y="-25.2" font-family="Times,serif" font-size="14.00">MATH0061</text>
<text xml:space="preserve" text-anchor="middle" x="1129.5" y="-7.95" font-family="Times,serif" font-size="14.00">Further Topics in Algebraic Number Theory</text>
</a>
</g>
</g>
<!-- MATH0022&#45;&gt;MATH0061 -->
<g id="edge34" class="edge">
<title>MATH0022&#45;&gt;MATH0061</title>
<g id="a_edge34"><a xlink:title="required prerequisite">
<path fill="none" stroke="black" d="M1289.99,-154.69C1290.21,-132.83 1287.16,-99.92 1269.5,-78.5 1259.78,-66.71 1247.22,-57.37 1233.62,-49.98"/>
<polygon fill="black" stroke="black" points="1235.42,-46.97 1224.91,-45.61 1232.28,-53.22 1235.42,-46.97"/>
</a>
</g>
</g>
<!-- MATH0109 -->
<g id="node16" class="node">
<title>MATH0109</title>
<g id="a_node16"><a xlink:href="https://www.ucl.ac.uk/mathematical-physical-sciences/sites/mathematical_physical_sciences/files/math0109.pdf" xlink:title="Year 3, term 1">
<polygon fill="white" stroke="#ff4040" stroke-width="5" points="2194.5,-199.5 1998.5,-199.5 1998.5,-157 2194.5,-157 2194.5,-199.5"/>
<text xml:space="preserve" text-anchor="middle" x="2096.5" y="-182.2" font-family="Times,serif" font-size="14.00">MATH0109</text>
<text xml:space="preserve" text-anchor="middle" x="2096.5" y="-164.95" font-family="Times,serif" font-size="14.00">Theorem Proving in Lean</text>
</a>
</g>
</g>
<!-- MATH0035&#45;&gt;MATH0061 -->
<g id="edge33" class="edge">
<title>MATH0035&#45;&gt;MATH0061</title>
<g id="a_edge33"><a xlink:title="required prerequisite">
<path fill="none" stroke="black" d="M1151.37,-76.21C1148.74,-69.73 1145.82,-62.53 1142.99,-55.54"/>
<polygon fill="black" stroke="black" points="1146.24,-54.25 1139.24,-46.29 1139.76,-56.88 1146.24,-54.25"/>
</a>
</g>
</g>
<!-- MATH0021&#45;&gt;MATH0073 -->
<g id="edge23" class="edge">
<title>MATH0021&#45;&gt;MATH0073</title>
<g id="a_edge23"><a xlink:title="recommended prerequisite">
<path fill="none" stroke="black" stroke-dasharray="5,2" d="M1478.72,-76C1493.74,-67.91 1510.83,-58.7 1526.57,-50.22"/>
<polygon fill="black" stroke="black" points="1528.21,-53.32 1535.35,-45.49 1524.89,-47.16 1528.21,-53.32"/>
</a>
</g>
</g>
<!-- MATH0021&#45;&gt;MATH0076 -->
<g id="edge31" class="edge">
<title>MATH0021&#45;&gt;MATH0076</title>
<g id="a_edge31"><a xlink:title="required prerequisite">
<path fill="none" stroke="black" d="M1423.24,-76.21C1419.25,-69.42 1414.79,-61.84 1410.5,-54.55"/>
<polygon fill="black" stroke="black" points="1413.67,-53.04 1405.59,-46.2 1407.64,-56.59 1413.67,-53.04"/>
</a>
</g>
</g>
<!-- MATH0038 -->
<g id="node22" class="node">
<title>MATH0038</title>
<g id="a_node22"><a xlink:href="https://www.ucl.ac.uk/mathematical-physical-sciences/sites/mathematical_physical_sciences/files/math0038.pdf" xlink:title="Year 3, term 2">
<polygon fill="white" stroke="#cd3333" stroke-width="5" points="2024.88,-121 1840.12,-121 1840.12,-78.5 2024.88,-78.5 2024.88,-121"/>
<text xml:space="preserve" text-anchor="middle" x="1932.5" y="-103.7" font-family="Times,serif" font-size="14.00">MATH0038</text>
<text xml:space="preserve" text-anchor="middle" x="1932.5" y="-86.45" font-family="Times,serif" font-size="14.00">History of Mathematics</text>
</a>
</g>
</g>
</g>
</svg>
