<?xml version="1.0" encoding="UTF-8" standalone="no"?>
<!DOCTYPE svg PUBLIC "-//W3C//DTD SVG 1.1//EN"
 "http://www.w3.org/Graphics/SVG/1.1/DTD/svg11.dtd">
<!-- Generated by graphviz version 2.43.0 (0)
 -->
<!-- Title: %3 Pages: 1 -->
<svg width="2138pt" height="416pt"
 viewBox="0.00 0.00 2137.50 416.00" xmlns="http://www.w3.org/2000/svg" xmlns:xlink="http://www.w3.org/1999/xlink">
<g id="graph0" class="graph" transform="scale(1 1) rotate(0) translate(4 412)">
<title>%3</title>
<polygon fill="white" stroke="transparent" points="-4,4 -4,-412 2133.5,-412 2133.5,4 -4,4"/>
<!-- MATH0010 -->
<g id="node1" class="node">
<title>MATH0010</title>
<g id="a_node1"><a xlink:href="https://www.ucl.ac.uk/maths/sites/maths/files/math0010.pdf" xlink:title="Year 1, term 1">
<polygon fill="white" stroke="#ffb90f" stroke-width="5" points="224.5,-408 29.5,-408 29.5,-370 224.5,-370 224.5,-408"/>
<text text-anchor="middle" x="127" y="-392.8" font-family="Times,serif" font-size="14.00">MATH0010</text>
<text text-anchor="middle" x="127" y="-377.8" font-family="Times,serif" font-size="14.00">Mathematical Methods 1</text>
</a>
</g>
</g>
<!-- MATH0011 -->
<g id="node6" class="node">
<title>MATH0011</title>
<g id="a_node6"><a xlink:href="https://www.ucl.ac.uk/maths/sites/maths/files/math0011_syllabus.pdf" xlink:title="Year 1, term 2">
<polygon fill="white" stroke="#cd950c" stroke-width="5" points="224.5,-334 29.5,-334 29.5,-296 224.5,-296 224.5,-334"/>
<text text-anchor="middle" x="127" y="-318.8" font-family="Times,serif" font-size="14.00">MATH0011</text>
<text text-anchor="middle" x="127" y="-303.8" font-family="Times,serif" font-size="14.00">Mathematical Methods 2</text>
</a>
</g>
</g>
<!-- MATH0010&#45;&gt;MATH0011 -->
<g id="edge3" class="edge">
<title>MATH0010&#45;&gt;MATH0011</title>
<path fill="none" stroke="black" d="M127,-369.83C127,-362.13 127,-352.97 127,-344.42"/>
<polygon fill="black" stroke="black" points="130.5,-344.41 127,-334.41 123.5,-344.41 130.5,-344.41"/>
</g>
<!-- MATH0003 -->
<g id="node2" class="node">
<title>MATH0003</title>
<g id="a_node2"><a xlink:href="https://www.ucl.ac.uk/maths/sites/maths/files/math0003.pdf" xlink:title="Year 1, term 1">
<polygon fill="white" stroke="#ffb90f" stroke-width="5" points="486,-408 388,-408 388,-370 486,-370 486,-408"/>
<text text-anchor="middle" x="437" y="-392.8" font-family="Times,serif" font-size="14.00">MATH0003</text>
<text text-anchor="middle" x="437" y="-377.8" font-family="Times,serif" font-size="14.00">Analysis 1</text>
</a>
</g>
</g>
<!-- MATH0004 -->
<g id="node4" class="node">
<title>MATH0004</title>
<g id="a_node4"><a xlink:href="https://www.ucl.ac.uk/maths/sites/maths/files/math0004.pdf" xlink:title="Year 1, term 2">
<polygon fill="white" stroke="#cd950c" stroke-width="5" points="447,-334 349,-334 349,-296 447,-296 447,-334"/>
<text text-anchor="middle" x="398" y="-318.8" font-family="Times,serif" font-size="14.00">MATH0004</text>
<text text-anchor="middle" x="398" y="-303.8" font-family="Times,serif" font-size="14.00">Analysis 2</text>
</a>
</g>
</g>
<!-- MATH0003&#45;&gt;MATH0004 -->
<g id="edge1" class="edge">
<title>MATH0003&#45;&gt;MATH0004</title>
<path fill="none" stroke="black" d="M427.16,-369.83C422.8,-361.79 417.59,-352.17 412.78,-343.29"/>
<polygon fill="black" stroke="black" points="415.81,-341.54 407.97,-334.41 409.66,-344.87 415.81,-341.54"/>
</g>
<!-- MATH0013 -->
<g id="node8" class="node">
<title>MATH0013</title>
<g id="a_node8"><a xlink:href="https://www.ucl.ac.uk/maths/sites/maths/files/math0013.pdf" xlink:title="Year 2, term 1">
<polygon fill="white" stroke="#00ff00" stroke-width="5" points="589.5,-260 360.5,-260 360.5,-222 589.5,-222 589.5,-260"/>
<text text-anchor="middle" x="475" y="-244.8" font-family="Times,serif" font-size="14.00">MATH0013</text>
<text text-anchor="middle" x="475" y="-229.8" font-family="Times,serif" font-size="14.00">Analysis 3 &#45; Complex Analysis</text>
</a>
</g>
</g>
<!-- MATH0003&#45;&gt;MATH0013 -->
<g id="edge5" class="edge">
<title>MATH0003&#45;&gt;MATH0013</title>
<path fill="none" stroke="black" d="M444.13,-369.7C447.99,-359.34 452.65,-346.07 456,-334 461.88,-312.85 466.82,-288.51 470.2,-270.18"/>
<polygon fill="black" stroke="black" points="473.68,-270.61 472,-260.15 466.79,-269.38 473.68,-270.61"/>
</g>
<!-- MATH0005 -->
<g id="node3" class="node">
<title>MATH0005</title>
<g id="a_node3"><a xlink:href="https://www.ucl.ac.uk/maths/sites/maths/files/math0005.pdf" xlink:title="Year 1, term 1">
<polygon fill="white" stroke="#ffb90f" stroke-width="5" points="918,-408 820,-408 820,-370 918,-370 918,-408"/>
<text text-anchor="middle" x="869" y="-392.8" font-family="Times,serif" font-size="14.00">MATH0005</text>
<text text-anchor="middle" x="869" y="-377.8" font-family="Times,serif" font-size="14.00">Algebra 1</text>
</a>
</g>
</g>
<!-- MATH0006 -->
<g id="node5" class="node">
<title>MATH0006</title>
<g id="a_node5"><a xlink:href="https://www.ucl.ac.uk/maths/sites/maths/files/math0006.pdf" xlink:title="Year 1, term 2">
<polygon fill="white" stroke="#cd950c" stroke-width="5" points="918,-334 820,-334 820,-296 918,-296 918,-334"/>
<text text-anchor="middle" x="869" y="-318.8" font-family="Times,serif" font-size="14.00">MATH0006</text>
<text text-anchor="middle" x="869" y="-303.8" font-family="Times,serif" font-size="14.00">Algebra 2</text>
</a>
</g>
</g>
<!-- MATH0005&#45;&gt;MATH0006 -->
<g id="edge2" class="edge">
<title>MATH0005&#45;&gt;MATH0006</title>
<path fill="none" stroke="black" d="M869,-369.83C869,-362.13 869,-352.97 869,-344.42"/>
<polygon fill="black" stroke="black" points="872.5,-344.41 869,-334.41 865.5,-344.41 872.5,-344.41"/>
</g>
<!-- MATH0004&#45;&gt;MATH0013 -->
<g id="edge6" class="edge">
<title>MATH0004&#45;&gt;MATH0013</title>
<path fill="none" stroke="black" stroke-dasharray="5,2" d="M417.43,-295.83C426.73,-287.13 438.02,-276.58 448.13,-267.13"/>
<polygon fill="black" stroke="black" points="450.66,-269.55 455.58,-260.16 445.88,-264.44 450.66,-269.55"/>
</g>
<!-- MATH0051 -->
<g id="node11" class="node">
<title>MATH0051</title>
<g id="a_node11"><a xlink:href="https://www.ucl.ac.uk/maths/sites/maths/files/math0051.pdf" xlink:title="Year 2 or 3, term 2">
<polygon fill="white" stroke="cadetblue" stroke-width="5" points="342,-260 244,-260 244,-222 342,-222 342,-260"/>
<text text-anchor="middle" x="293" y="-244.8" font-family="Times,serif" font-size="14.00">MATH0051</text>
<text text-anchor="middle" x="293" y="-229.8" font-family="Times,serif" font-size="14.00">Analysis 4</text>
</a>
</g>
</g>
<!-- MATH0004&#45;&gt;MATH0051 -->
<g id="edge9" class="edge">
<title>MATH0004&#45;&gt;MATH0051</title>
<path fill="none" stroke="black" d="M371.5,-295.83C358.32,-286.79 342.22,-275.75 328.03,-266.02"/>
<polygon fill="black" stroke="black" points="329.71,-262.93 319.49,-260.16 325.76,-268.7 329.71,-262.93"/>
</g>
<!-- MATH0014 -->
<g id="node7" class="node">
<title>MATH0014</title>
<g id="a_node7"><a xlink:href="https://www.ucl.ac.uk/maths/sites/maths/files/math0014.pdf" xlink:title="Year 2, term 1">
<polygon fill="white" stroke="#00ff00" stroke-width="5" points="1106,-260 846,-260 846,-222 1106,-222 1106,-260"/>
<text text-anchor="middle" x="976" y="-244.8" font-family="Times,serif" font-size="14.00">MATH0014</text>
<text text-anchor="middle" x="976" y="-229.8" font-family="Times,serif" font-size="14.00">Algebra 3: Further Linear Algebra</text>
</a>
</g>
</g>
<!-- MATH0006&#45;&gt;MATH0014 -->
<g id="edge4" class="edge">
<title>MATH0006&#45;&gt;MATH0014</title>
<path fill="none" stroke="black" d="M896,-295.83C909.43,-286.79 925.85,-275.75 940.3,-266.02"/>
<polygon fill="black" stroke="black" points="942.67,-268.65 949.01,-260.16 938.76,-262.84 942.67,-268.65"/>
</g>
<!-- MATH0053 -->
<g id="node9" class="node">
<title>MATH0053</title>
<g id="a_node9"><a xlink:href="https://www.ucl.ac.uk/maths/sites/maths/files/math0053.pdf" xlink:title="Year 2 or 3, term 2">
<polygon fill="white" stroke="cadetblue" stroke-width="5" points="1410,-260 1312,-260 1312,-222 1410,-222 1410,-260"/>
<text text-anchor="middle" x="1361" y="-244.8" font-family="Times,serif" font-size="14.00">MATH0053</text>
<text text-anchor="middle" x="1361" y="-229.8" font-family="Times,serif" font-size="14.00">Algebra 4</text>
</a>
</g>
</g>
<!-- MATH0006&#45;&gt;MATH0053 -->
<g id="edge7" class="edge">
<title>MATH0006&#45;&gt;MATH0053</title>
<path fill="none" stroke="black" d="M918.43,-306.77C1009.63,-293.42 1203.97,-264.98 1301.94,-250.64"/>
<polygon fill="black" stroke="black" points="1302.58,-254.09 1311.97,-249.18 1301.57,-247.16 1302.58,-254.09"/>
</g>
<!-- MATH0034 -->
<g id="node12" class="node">
<title>MATH0034</title>
<g id="a_node12"><a xlink:href="https://www.ucl.ac.uk/maths/sites/maths/files/math0034.pdf" xlink:title="Year 2 or 3, term 2">
<polygon fill="white" stroke="cadetblue" stroke-width="5" points="827.5,-260 698.5,-260 698.5,-222 827.5,-222 827.5,-260"/>
<text text-anchor="middle" x="763" y="-244.8" font-family="Times,serif" font-size="14.00">MATH0034</text>
<text text-anchor="middle" x="763" y="-229.8" font-family="Times,serif" font-size="14.00">Number Theory</text>
</a>
</g>
</g>
<!-- MATH0006&#45;&gt;MATH0034 -->
<g id="edge10" class="edge">
<title>MATH0006&#45;&gt;MATH0034</title>
<path fill="none" stroke="black" d="M842.25,-295.83C828.94,-286.79 812.68,-275.75 798.36,-266.02"/>
<polygon fill="black" stroke="black" points="799.98,-262.89 789.74,-260.16 796.05,-268.68 799.98,-262.89"/>
</g>
<!-- MATH0037 -->
<g id="node16" class="node">
<title>MATH0037</title>
<g id="a_node16"><a xlink:href="https://www.ucl.ac.uk/maths/sites/maths/files/math0037.pdf" xlink:title="Year 3, term 2">
<polygon fill="white" stroke="#cd3333" stroke-width="5" points="667,-112 569,-112 569,-74 667,-74 667,-112"/>
<text text-anchor="middle" x="618" y="-96.8" font-family="Times,serif" font-size="14.00">MATH0037</text>
<text text-anchor="middle" x="618" y="-81.8" font-family="Times,serif" font-size="14.00">Logic</text>
</a>
</g>
</g>
<!-- MATH0006&#45;&gt;MATH0037 -->
<g id="edge14" class="edge">
<title>MATH0006&#45;&gt;MATH0037</title>
<path fill="none" stroke="black" d="M819.99,-308C781.7,-301.36 728.67,-287.67 690,-260 657.1,-236.46 653.22,-223.06 637,-186 628.1,-165.67 623.3,-140.97 620.74,-122.28"/>
<polygon fill="black" stroke="black" points="624.21,-121.81 619.52,-112.31 617.27,-122.67 624.21,-121.81"/>
</g>
<!-- MATH0057 -->
<g id="node10" class="node">
<title>MATH0057</title>
<g id="a_node10"><a xlink:href="https://www.ucl.ac.uk/maths/sites/maths/files/math0057.pdf" xlink:title="Year 2 or 3, term 2">
<polygon fill="white" stroke="cadetblue" stroke-width="5" points="226,-260 28,-260 28,-222 226,-222 226,-260"/>
<text text-anchor="middle" x="127" y="-244.8" font-family="Times,serif" font-size="14.00">MATH0057</text>
<text text-anchor="middle" x="127" y="-229.8" font-family="Times,serif" font-size="14.00">Probability and Statistics</text>
</a>
</g>
</g>
<!-- MATH0011&#45;&gt;MATH0057 -->
<g id="edge8" class="edge">
<title>MATH0011&#45;&gt;MATH0057</title>
<path fill="none" stroke="black" d="M127,-295.83C127,-288.13 127,-278.97 127,-270.42"/>
<polygon fill="black" stroke="black" points="130.5,-270.41 127,-260.41 123.5,-270.41 130.5,-270.41"/>
</g>
<!-- MATH0023 -->
<g id="node13" class="node">
<title>MATH0023</title>
<g id="a_node13"><a xlink:href="https://www.ucl.ac.uk/maths/sites/maths/files/math0023_2.pdf" xlink:title="Year 3, term 1">
<polygon fill="white" stroke="#ff4040" stroke-width="5" points="1256.5,-186 1103.5,-186 1103.5,-148 1256.5,-148 1256.5,-186"/>
<text text-anchor="middle" x="1180" y="-170.8" font-family="Times,serif" font-size="14.00">MATH0023</text>
<text text-anchor="middle" x="1180" y="-155.8" font-family="Times,serif" font-size="14.00">Algebraic Topology</text>
</a>
</g>
</g>
<!-- MATH0014&#45;&gt;MATH0023 -->
<g id="edge11" class="edge">
<title>MATH0014&#45;&gt;MATH0023</title>
<path fill="none" stroke="black" d="M1027.21,-221.92C1055.1,-212.08 1089.79,-199.84 1119.06,-189.51"/>
<polygon fill="black" stroke="black" points="1120.5,-192.71 1128.76,-186.08 1118.17,-186.11 1120.5,-192.71"/>
</g>
<!-- MATH0104 -->
<g id="node23" class="node">
<title>MATH0104</title>
<g id="a_node23"><a xlink:href="https://www.ucl.ac.uk/maths/sites/maths/files/math0104_2.pdf" xlink:title="Year 3 or 4, term 1">
<polygon fill="white" stroke="#ff1493" stroke-width="5" points="772,-186 646,-186 646,-148 772,-148 772,-186"/>
<text text-anchor="middle" x="709" y="-170.8" font-family="Times,serif" font-size="14.00">MATH0104</text>
<text text-anchor="middle" x="709" y="-155.8" font-family="Times,serif" font-size="14.00">Modular Forms</text>
</a>
</g>
</g>
<!-- MATH0014&#45;&gt;MATH0104 -->
<g id="edge23" class="edge">
<title>MATH0014&#45;&gt;MATH0104</title>
<path fill="none" stroke="black" d="M908.97,-221.92C870.38,-211.52 821.84,-198.43 782.24,-187.75"/>
<polygon fill="black" stroke="black" points="782.95,-184.32 772.38,-185.09 781.13,-191.07 782.95,-184.32"/>
</g>
<!-- MATH0075 -->
<g id="node25" class="node">
<title>MATH0075</title>
<g id="a_node25"><a xlink:href="https://www.ucl.ac.uk/maths/sites/maths/files/math0075_2.pdf" xlink:title="Year 3 or 4, term 1">
<polygon fill="white" stroke="#ff1493" stroke-width="5" points="1085.5,-186 866.5,-186 866.5,-148 1085.5,-148 1085.5,-186"/>
<text text-anchor="middle" x="976" y="-170.8" font-family="Times,serif" font-size="14.00">MATH0075</text>
<text text-anchor="middle" x="976" y="-155.8" font-family="Times,serif" font-size="14.00">Lie Groups and Lie Algebras</text>
</a>
</g>
</g>
<!-- MATH0014&#45;&gt;MATH0075 -->
<g id="edge28" class="edge">
<title>MATH0014&#45;&gt;MATH0075</title>
<path fill="none" stroke="black" d="M976,-221.83C976,-214.13 976,-204.97 976,-196.42"/>
<polygon fill="black" stroke="black" points="979.5,-196.41 976,-186.41 972.5,-196.41 979.5,-196.41"/>
</g>
<!-- MATH0013&#45;&gt;MATH0104 -->
<g id="edge22" class="edge">
<title>MATH0013&#45;&gt;MATH0104</title>
<path fill="none" stroke="black" d="M533.75,-221.92C566.15,-211.95 606.56,-199.52 640.41,-189.1"/>
<polygon fill="black" stroke="black" points="641.7,-192.37 650.23,-186.08 639.64,-185.68 641.7,-192.37"/>
</g>
<!-- MATH0083 -->
<g id="node24" class="node">
<title>MATH0083</title>
<g id="a_node24"><a xlink:href="https://www.ucl.ac.uk/maths/sites/maths/files/math0083.pdf" xlink:title="Year 3 or 4, term 1">
<polygon fill="white" stroke="#ff1493" stroke-width="5" points="590,-186 300,-186 300,-148 590,-148 590,-186"/>
<text text-anchor="middle" x="445" y="-170.8" font-family="Times,serif" font-size="14.00">MATH0083</text>
<text text-anchor="middle" x="445" y="-155.8" font-family="Times,serif" font-size="14.00">Prime Numbers and their Distribution</text>
</a>
</g>
</g>
<!-- MATH0013&#45;&gt;MATH0083 -->
<g id="edge25" class="edge">
<title>MATH0013&#45;&gt;MATH0083</title>
<path fill="none" stroke="black" d="M467.43,-221.83C464.15,-213.96 460.24,-204.57 456.61,-195.85"/>
<polygon fill="black" stroke="black" points="459.75,-194.3 452.67,-186.41 453.29,-196.99 459.75,-194.3"/>
</g>
<!-- MATH0022 -->
<g id="node15" class="node">
<title>MATH0022</title>
<g id="a_node15"><a xlink:href="https://www.ucl.ac.uk/maths/sites/maths/files/math0022.pdf" xlink:title="Year 3, term 1">
<polygon fill="white" stroke="#ff4040" stroke-width="5" points="1504.5,-186 1389.5,-186 1389.5,-148 1504.5,-148 1504.5,-186"/>
<text text-anchor="middle" x="1447" y="-170.8" font-family="Times,serif" font-size="14.00">MATH0022</text>
<text text-anchor="middle" x="1447" y="-155.8" font-family="Times,serif" font-size="14.00">Galois Theory</text>
</a>
</g>
</g>
<!-- MATH0053&#45;&gt;MATH0022 -->
<g id="edge13" class="edge">
<title>MATH0053&#45;&gt;MATH0022</title>
<path fill="none" stroke="black" d="M1382.7,-221.83C1393.19,-213.05 1405.95,-202.37 1417.32,-192.85"/>
<polygon fill="black" stroke="black" points="1419.88,-195.27 1425.31,-186.16 1415.39,-189.9 1419.88,-195.27"/>
</g>
<!-- MATH0036 -->
<g id="node17" class="node">
<title>MATH0036</title>
<g id="a_node17"><a xlink:href="https://www.ucl.ac.uk/maths/sites/maths/files/math0036.pdf" xlink:title="Year 3, term 2">
<polygon fill="white" stroke="#cd3333" stroke-width="5" points="897,-112 775,-112 775,-74 897,-74 897,-112"/>
<text text-anchor="middle" x="836" y="-96.8" font-family="Times,serif" font-size="14.00">MATH0036</text>
<text text-anchor="middle" x="836" y="-81.8" font-family="Times,serif" font-size="14.00">Elliptic Curves</text>
</a>
</g>
</g>
<!-- MATH0053&#45;&gt;MATH0036 -->
<g id="edge16" class="edge">
<title>MATH0053&#45;&gt;MATH0036</title>
<path fill="none" stroke="black" d="M1338.81,-221.97C1326.68,-211.8 1311.61,-198.63 1299,-186 1283.19,-170.17 1285.81,-158.4 1266,-148 1202.05,-114.43 1014.53,-121.99 943,-112 931.34,-110.37 919,-108.46 907,-106.51"/>
<polygon fill="black" stroke="black" points="907.46,-103.04 897.02,-104.87 906.32,-109.95 907.46,-103.04"/>
</g>
<!-- MATH0035 -->
<g id="node18" class="node">
<title>MATH0035</title>
<g id="a_node18"><a xlink:href="https://www.ucl.ac.uk/maths/sites/maths/files/math0035.pdf" xlink:title="Year 3, term 2">
<polygon fill="white" stroke="#cd3333" stroke-width="5" points="1152.5,-112 951.5,-112 951.5,-74 1152.5,-74 1152.5,-112"/>
<text text-anchor="middle" x="1052" y="-96.8" font-family="Times,serif" font-size="14.00">MATH0035</text>
<text text-anchor="middle" x="1052" y="-81.8" font-family="Times,serif" font-size="14.00">Algebraic Number Theory</text>
</a>
</g>
</g>
<!-- MATH0053&#45;&gt;MATH0035 -->
<g id="edge18" class="edge">
<title>MATH0053&#45;&gt;MATH0035</title>
<path fill="none" stroke="black" d="M1353.72,-221.68C1344.32,-200.52 1325.93,-166.29 1299,-148 1287,-139.85 1221.58,-125.73 1161.08,-113.97"/>
<polygon fill="black" stroke="black" points="1161.52,-110.49 1151.03,-112.03 1160.19,-117.36 1161.52,-110.49"/>
</g>
<!-- MATH0108 -->
<g id="node19" class="node">
<title>MATH0108</title>
<g id="a_node19"><a xlink:href="https://www.ucl.ac.uk/maths/sites/maths/files/0108_0.pdf" xlink:title="Year 3, term 2">
<polygon fill="white" stroke="#cd3333" stroke-width="5" points="1419,-112 1171,-112 1171,-74 1419,-74 1419,-112"/>
<text text-anchor="middle" x="1295" y="-96.8" font-family="Times,serif" font-size="14.00">MATH0108</text>
<text text-anchor="middle" x="1295" y="-81.8" font-family="Times,serif" font-size="14.00">Commutative Rings and Algebra</text>
</a>
</g>
</g>
<!-- MATH0053&#45;&gt;MATH0108 -->
<g id="edge20" class="edge">
<title>MATH0053&#45;&gt;MATH0108</title>
<path fill="none" stroke="black" d="M1358.51,-221.95C1355.38,-202.83 1348.9,-172.13 1337,-148 1332.19,-138.25 1325.46,-128.58 1318.79,-120.16"/>
<polygon fill="black" stroke="black" points="1321.28,-117.69 1312.21,-112.22 1315.89,-122.15 1321.28,-117.69"/>
</g>
<!-- MATH0021 -->
<g id="node20" class="node">
<title>MATH0021</title>
<g id="a_node20"><a xlink:href="https://www.ucl.ac.uk/maths/sites/maths/files/math0021.pdf" xlink:title="Year 3, term 2">
<polygon fill="white" stroke="#cd3333" stroke-width="5" points="1678.5,-112 1513.5,-112 1513.5,-74 1678.5,-74 1678.5,-112"/>
<text text-anchor="middle" x="1596" y="-96.8" font-family="Times,serif" font-size="14.00">MATH0021</text>
<text text-anchor="middle" x="1596" y="-81.8" font-family="Times,serif" font-size="14.00">Homological Algebra</text>
</a>
</g>
</g>
<!-- MATH0053&#45;&gt;MATH0021 -->
<g id="edge21" class="edge">
<title>MATH0053&#45;&gt;MATH0021</title>
<path fill="none" stroke="black" d="M1410.07,-229.41C1441.6,-221.05 1482.42,-207.19 1514,-186 1540.12,-168.47 1563.28,-140.74 1578.27,-120.3"/>
<polygon fill="black" stroke="black" points="1581.2,-122.21 1584.17,-112.04 1575.51,-118.14 1581.2,-122.21"/>
</g>
<!-- MATH0073 -->
<g id="node26" class="node">
<title>MATH0073</title>
<g id="a_node26"><a xlink:href="https://www.ucl.ac.uk/maths/sites/maths/files/math0073.pdf" xlink:title="Year 3 or 4, term 2">
<polygon fill="white" stroke="#cd1076" stroke-width="5" points="1788,-38 1608,-38 1608,0 1788,0 1788,-38"/>
<text text-anchor="middle" x="1698" y="-22.8" font-family="Times,serif" font-size="14.00">MATH0073</text>
<text text-anchor="middle" x="1698" y="-7.8" font-family="Times,serif" font-size="14.00">Representation Theory</text>
</a>
</g>
</g>
<!-- MATH0053&#45;&gt;MATH0073 -->
<g id="edge29" class="edge">
<title>MATH0053&#45;&gt;MATH0073</title>
<path fill="none" stroke="black" d="M1410.01,-237.26C1484.78,-230.12 1625.25,-204.43 1688,-112 1700.56,-93.49 1702.42,-67.91 1701.5,-48.41"/>
<polygon fill="black" stroke="black" points="1704.98,-48.01 1700.75,-38.3 1698,-48.53 1704.98,-48.01"/>
</g>
<!-- MATH0029 -->
<g id="node14" class="node">
<title>MATH0029</title>
<g id="a_node14"><a xlink:href="https://www.ucl.ac.uk/maths/sites/maths/files/math0029.pdf" xlink:title="Year 3, term 1">
<polygon fill="white" stroke="#ff4040" stroke-width="5" points="254,-186 0,-186 0,-148 254,-148 254,-186"/>
<text text-anchor="middle" x="127" y="-170.8" font-family="Times,serif" font-size="14.00">MATH0029</text>
<text text-anchor="middle" x="127" y="-155.8" font-family="Times,serif" font-size="14.00">Graph Theory and Combinatorics</text>
</a>
</g>
</g>
<!-- MATH0057&#45;&gt;MATH0029 -->
<g id="edge12" class="edge">
<title>MATH0057&#45;&gt;MATH0029</title>
<path fill="none" stroke="black" stroke-dasharray="5,2" d="M127,-221.83C127,-214.13 127,-204.97 127,-196.42"/>
<polygon fill="black" stroke="black" points="130.5,-196.41 127,-186.41 123.5,-196.41 130.5,-196.41"/>
</g>
<!-- MATH0051&#45;&gt;MATH0083 -->
<g id="edge26" class="edge">
<title>MATH0051&#45;&gt;MATH0083</title>
<path fill="none" stroke="black" d="M331.36,-221.83C351.5,-212.29 376.38,-200.51 397.71,-190.4"/>
<polygon fill="black" stroke="black" points="399.38,-193.48 406.92,-186.04 396.38,-187.16 399.38,-193.48"/>
</g>
<!-- MATH0034&#45;&gt;MATH0036 -->
<g id="edge15" class="edge">
<title>MATH0034&#45;&gt;MATH0036</title>
<path fill="none" stroke="black" d="M772.1,-221.8C784.67,-196.67 807.45,-151.1 822.14,-121.72"/>
<polygon fill="black" stroke="black" points="825.45,-122.93 826.79,-112.43 819.18,-119.8 825.45,-122.93"/>
</g>
<!-- MATH0034&#45;&gt;MATH0035 -->
<g id="edge17" class="edge">
<title>MATH0034&#45;&gt;MATH0035</title>
<path fill="none" stroke="black" d="M779.9,-221.61C802.14,-197.76 840.47,-158.05 858,-148 883.37,-133.46 912.87,-122.66 941.09,-114.7"/>
<polygon fill="black" stroke="black" points="942.28,-118 951.02,-112 940.45,-111.25 942.28,-118"/>
</g>
<!-- MATH0034&#45;&gt;MATH0104 -->
<g id="edge24" class="edge">
<title>MATH0034&#45;&gt;MATH0104</title>
<path fill="none" stroke="black" stroke-dasharray="5,2" d="M749.37,-221.83C743.15,-213.54 735.67,-203.56 728.84,-194.45"/>
<polygon fill="black" stroke="black" points="731.61,-192.31 722.81,-186.41 726.01,-196.51 731.61,-192.31"/>
</g>
<!-- MATH0034&#45;&gt;MATH0083 -->
<g id="edge27" class="edge">
<title>MATH0034&#45;&gt;MATH0083</title>
<path fill="none" stroke="black" d="M698.26,-225.34C651.09,-214.66 586.6,-200.06 534.5,-188.26"/>
<polygon fill="black" stroke="black" points="535.11,-184.81 524.58,-186.02 533.57,-191.64 535.11,-184.81"/>
</g>
<!-- MATH0022&#45;&gt;MATH0035 -->
<g id="edge19" class="edge">
<title>MATH0022&#45;&gt;MATH0035</title>
<path fill="none" stroke="black" stroke-dasharray="5,2" d="M1389.14,-155.45C1329.48,-144.58 1235.02,-127.36 1161.24,-113.91"/>
<polygon fill="black" stroke="black" points="1161.44,-110.39 1150.97,-112.04 1160.19,-117.28 1161.44,-110.39"/>
</g>
<!-- MATH0076 -->
<g id="node27" class="node">
<title>MATH0076</title>
<g id="a_node27"><a xlink:href="https://www.ucl.ac.uk/maths/sites/maths/files/math0076_3.pdf" xlink:title="Year 4, term 1">
<polygon fill="white" stroke="#1c86ee" stroke-width="5" points="1572.5,-38 1413.5,-38 1413.5,0 1572.5,0 1572.5,-38"/>
<text text-anchor="middle" x="1493" y="-22.8" font-family="Times,serif" font-size="14.00">MATH0076</text>
<text text-anchor="middle" x="1493" y="-7.8" font-family="Times,serif" font-size="14.00">Algebraic Geometry</text>
</a>
</g>
</g>
<!-- MATH0022&#45;&gt;MATH0076 -->
<g id="edge32" class="edge">
<title>MATH0022&#45;&gt;MATH0076</title>
<path fill="none" stroke="black" d="M1452.73,-147.8C1460.62,-122.78 1474.88,-77.5 1484.15,-48.1"/>
<polygon fill="black" stroke="black" points="1487.53,-49.01 1487.19,-38.43 1480.85,-46.91 1487.53,-49.01"/>
</g>
<!-- MATH0061 -->
<g id="node28" class="node">
<title>MATH0061</title>
<g id="a_node28"><a xlink:href="https://www.ucl.ac.uk/maths/sites/maths/files/math0061_syllabus_0.pdf" xlink:title="Year 4, term 2">
<polygon fill="white" stroke="#104e8b" stroke-width="5" points="1310.5,-38 981.5,-38 981.5,0 1310.5,0 1310.5,-38"/>
<text text-anchor="middle" x="1146" y="-22.8" font-family="Times,serif" font-size="14.00">MATH0061</text>
<text text-anchor="middle" x="1146" y="-7.8" font-family="Times,serif" font-size="14.00">Further Topics in Algebraic Number Theory</text>
</a>
</g>
</g>
<!-- MATH0022&#45;&gt;MATH0061 -->
<g id="edge34" class="edge">
<title>MATH0022&#45;&gt;MATH0061</title>
<path fill="none" stroke="black" d="M1448.73,-147.68C1449.6,-126.84 1447.51,-93.23 1428,-74 1411.19,-57.43 1368.21,-45.73 1320.72,-37.56"/>
<polygon fill="black" stroke="black" points="1321.29,-34.11 1310.85,-35.92 1320.15,-41.01 1321.29,-34.11"/>
</g>
<!-- MATH0035&#45;&gt;MATH0061 -->
<g id="edge33" class="edge">
<title>MATH0035&#45;&gt;MATH0061</title>
<path fill="none" stroke="black" d="M1075.72,-73.83C1087.41,-64.88 1101.67,-53.96 1114.28,-44.3"/>
<polygon fill="black" stroke="black" points="1116.48,-47.02 1122.29,-38.16 1112.22,-41.47 1116.48,-47.02"/>
</g>
<!-- MATH0021&#45;&gt;MATH0073 -->
<g id="edge30" class="edge">
<title>MATH0021&#45;&gt;MATH0073</title>
<path fill="none" stroke="black" stroke-dasharray="5,2" d="M1621.74,-73.83C1634.54,-64.79 1650.19,-53.75 1663.97,-44.02"/>
<polygon fill="black" stroke="black" points="1666.12,-46.79 1672.27,-38.16 1662.08,-41.07 1666.12,-46.79"/>
</g>
<!-- MATH0021&#45;&gt;MATH0076 -->
<g id="edge31" class="edge">
<title>MATH0021&#45;&gt;MATH0076</title>
<path fill="none" stroke="black" d="M1570.01,-73.83C1557.08,-64.79 1541.28,-53.75 1527.36,-44.02"/>
<polygon fill="black" stroke="black" points="1529.18,-41.02 1518.98,-38.16 1525.17,-46.76 1529.18,-41.02"/>
</g>
<!-- MATH0109 -->
<g id="node21" class="node">
<title>MATH0109</title>
<g id="a_node21"><a xlink:href="https://www.ucl.ac.uk/maths/sites/maths/files/math0019_2_0.pdf" xlink:title="Year 3, term 2">
<polygon fill="white" stroke="#cd3333" stroke-width="5" points="1926.5,-112 1735.5,-112 1735.5,-74 1926.5,-74 1926.5,-112"/>
<text text-anchor="middle" x="1831" y="-96.8" font-family="Times,serif" font-size="14.00">MATH0109</text>
<text text-anchor="middle" x="1831" y="-81.8" font-family="Times,serif" font-size="14.00">Problem Solving in Lean</text>
</a>
</g>
</g>
<!-- MATH0038 -->
<g id="node22" class="node">
<title>MATH0038</title>
<g id="a_node22"><a xlink:href="https://www.ucl.ac.uk/maths/sites/maths/files/math0038.pdf" xlink:title="Year 3, term 2">
<polygon fill="white" stroke="#cd3333" stroke-width="5" points="2129.5,-112 1944.5,-112 1944.5,-74 2129.5,-74 2129.5,-112"/>
<text text-anchor="middle" x="2037" y="-96.8" font-family="Times,serif" font-size="14.00">MATH0038</text>
<text text-anchor="middle" x="2037" y="-81.8" font-family="Times,serif" font-size="14.00">History of Mathematics</text>
</a>
</g>
</g>
</g>
</svg>
