<?xml version="1.0" encoding="UTF-8" standalone="no"?>
<!DOCTYPE svg PUBLIC "-//W3C//DTD SVG 1.1//EN"
 "http://www.w3.org/Graphics/SVG/1.1/DTD/svg11.dtd">
<!-- Generated by graphviz version 2.43.0 (0)
 -->
<!-- Title: %3 Pages: 1 -->
<svg width="2230pt" height="416pt"
 viewBox="0.00 0.00 2229.50 416.00" xmlns="http://www.w3.org/2000/svg" xmlns:xlink="http://www.w3.org/1999/xlink">
<g id="graph0" class="graph" transform="scale(1 1) rotate(0) translate(4 412)">
<title>%3</title>
<polygon fill="white" stroke="transparent" points="-4,4 -4,-412 2225.5,-412 2225.5,4 -4,4"/>
<!-- MATH0005 -->
<g id="node1" class="node">
<title>MATH0005</title>
<g id="a_node1"><a xlink:href="https://www.ucl.ac.uk/maths/sites/maths/files/math0005.pdf" xlink:title="Year 1, term 1">
<polygon fill="white" stroke="#ffb90f" stroke-width="5" points="871,-408 773,-408 773,-370 871,-370 871,-408"/>
<text text-anchor="middle" x="822" y="-392.8" font-family="Times,serif" font-size="14.00">MATH0005</text>
<text text-anchor="middle" x="822" y="-377.8" font-family="Times,serif" font-size="14.00">Algebra 1</text>
</a>
</g>
</g>
<!-- MATH0006 -->
<g id="node5" class="node">
<title>MATH0006</title>
<g id="a_node5"><a xlink:href="https://www.ucl.ac.uk/maths/sites/maths/files/math0006.pdf" xlink:title="Year 1, term 2">
<polygon fill="white" stroke="#cd950c" stroke-width="5" points="871,-334 773,-334 773,-296 871,-296 871,-334"/>
<text text-anchor="middle" x="822" y="-318.8" font-family="Times,serif" font-size="14.00">MATH0006</text>
<text text-anchor="middle" x="822" y="-303.8" font-family="Times,serif" font-size="14.00">Algebra 2</text>
</a>
</g>
</g>
<!-- MATH0005&#45;&gt;MATH0006 -->
<g id="edge2" class="edge">
<title>MATH0005&#45;&gt;MATH0006</title>
<g id="a_edge2"><a xlink:title="required prerequisite">
<path fill="none" stroke="black" d="M822,-369.83C822,-362.13 822,-352.97 822,-344.42"/>
<polygon fill="black" stroke="black" points="825.5,-344.41 822,-334.41 818.5,-344.41 825.5,-344.41"/>
</a>
</g>
</g>
<!-- MATH0003 -->
<g id="node2" class="node">
<title>MATH0003</title>
<g id="a_node2"><a xlink:href="https://www.ucl.ac.uk/maths/sites/maths/files/math0003.pdf" xlink:title="Year 1, term 1">
<polygon fill="white" stroke="#ffb90f" stroke-width="5" points="242,-408 144,-408 144,-370 242,-370 242,-408"/>
<text text-anchor="middle" x="193" y="-392.8" font-family="Times,serif" font-size="14.00">MATH0003</text>
<text text-anchor="middle" x="193" y="-377.8" font-family="Times,serif" font-size="14.00">Analysis 1</text>
</a>
</g>
</g>
<!-- MATH0004 -->
<g id="node6" class="node">
<title>MATH0004</title>
<g id="a_node6"><a xlink:href="https://www.ucl.ac.uk/maths/sites/maths/files/math0004.pdf" xlink:title="Year 1, term 2">
<polygon fill="white" stroke="#cd950c" stroke-width="5" points="203,-334 105,-334 105,-296 203,-296 203,-334"/>
<text text-anchor="middle" x="154" y="-318.8" font-family="Times,serif" font-size="14.00">MATH0004</text>
<text text-anchor="middle" x="154" y="-303.8" font-family="Times,serif" font-size="14.00">Analysis 2</text>
</a>
</g>
</g>
<!-- MATH0003&#45;&gt;MATH0004 -->
<g id="edge3" class="edge">
<title>MATH0003&#45;&gt;MATH0004</title>
<g id="a_edge3"><a xlink:title="required prerequisite">
<path fill="none" stroke="black" d="M183.16,-369.83C178.8,-361.79 173.59,-352.17 168.78,-343.29"/>
<polygon fill="black" stroke="black" points="171.81,-341.54 163.97,-334.41 165.66,-344.87 171.81,-341.54"/>
</a>
</g>
</g>
<!-- MATH0013 -->
<g id="node7" class="node">
<title>MATH0013</title>
<g id="a_node7"><a xlink:href="https://www.ucl.ac.uk/maths/sites/maths/files/math0013.pdf" xlink:title="Year 2, term 1">
<polygon fill="white" stroke="#00ff00" stroke-width="5" points="345.5,-260 116.5,-260 116.5,-222 345.5,-222 345.5,-260"/>
<text text-anchor="middle" x="231" y="-244.8" font-family="Times,serif" font-size="14.00">MATH0013</text>
<text text-anchor="middle" x="231" y="-229.8" font-family="Times,serif" font-size="14.00">Analysis 3 &#45; Complex Analysis</text>
</a>
</g>
</g>
<!-- MATH0003&#45;&gt;MATH0013 -->
<g id="edge4" class="edge">
<title>MATH0003&#45;&gt;MATH0013</title>
<g id="a_edge4"><a xlink:title="required prerequisite">
<path fill="none" stroke="black" d="M200.13,-369.7C203.99,-359.34 208.65,-346.07 212,-334 217.88,-312.85 222.82,-288.51 226.2,-270.18"/>
<polygon fill="black" stroke="black" points="229.68,-270.61 228,-260.15 222.79,-269.38 229.68,-270.61"/>
</a>
</g>
</g>
<!-- MATH0010 -->
<g id="node3" class="node">
<title>MATH0010</title>
<g id="a_node3"><a xlink:href="https://www.ucl.ac.uk/maths/sites/maths/files/math0010.pdf" xlink:title="Year 1, term 1">
<polygon fill="white" stroke="#ffb90f" stroke-width="5" points="1976.5,-408 1781.5,-408 1781.5,-370 1976.5,-370 1976.5,-408"/>
<text text-anchor="middle" x="1879" y="-392.8" font-family="Times,serif" font-size="14.00">MATH0010</text>
<text text-anchor="middle" x="1879" y="-377.8" font-family="Times,serif" font-size="14.00">Mathematical Methods 1</text>
</a>
</g>
</g>
<!-- MATH0011 -->
<g id="node4" class="node">
<title>MATH0011</title>
<g id="a_node4"><a xlink:href="https://www.ucl.ac.uk/maths/sites/maths/files/math0011_2.pdf" xlink:title="Year 1, term 2">
<polygon fill="white" stroke="#cd950c" stroke-width="5" points="1976.5,-334 1781.5,-334 1781.5,-296 1976.5,-296 1976.5,-334"/>
<text text-anchor="middle" x="1879" y="-318.8" font-family="Times,serif" font-size="14.00">MATH0011</text>
<text text-anchor="middle" x="1879" y="-303.8" font-family="Times,serif" font-size="14.00">Mathematical Methods 2</text>
</a>
</g>
</g>
<!-- MATH0010&#45;&gt;MATH0011 -->
<g id="edge1" class="edge">
<title>MATH0010&#45;&gt;MATH0011</title>
<g id="a_edge1"><a xlink:title="required prerequisite">
<path fill="none" stroke="black" d="M1879,-369.83C1879,-362.13 1879,-352.97 1879,-344.42"/>
<polygon fill="black" stroke="black" points="1882.5,-344.41 1879,-334.41 1875.5,-344.41 1882.5,-344.41"/>
</a>
</g>
</g>
<!-- MATH0057 -->
<g id="node11" class="node">
<title>MATH0057</title>
<g id="a_node11"><a xlink:href="https://www.ucl.ac.uk/maths/sites/maths/files/math0057.pdf" xlink:title="Year 2 or 3, term 2">
<polygon fill="white" stroke="#8ee5ee" stroke-width="5" points="1978,-260 1780,-260 1780,-222 1978,-222 1978,-260"/>
<text text-anchor="middle" x="1879" y="-244.8" font-family="Times,serif" font-size="14.00">MATH0057</text>
<text text-anchor="middle" x="1879" y="-229.8" font-family="Times,serif" font-size="14.00">Probability and Statistics</text>
</a>
</g>
</g>
<!-- MATH0011&#45;&gt;MATH0057 -->
<g id="edge9" class="edge">
<title>MATH0011&#45;&gt;MATH0057</title>
<g id="a_edge9"><a xlink:title="required prerequisite">
<path fill="none" stroke="black" d="M1879,-295.83C1879,-288.13 1879,-278.97 1879,-270.42"/>
<polygon fill="black" stroke="black" points="1882.5,-270.41 1879,-260.41 1875.5,-270.41 1882.5,-270.41"/>
</a>
</g>
</g>
<!-- MATH0014 -->
<g id="node8" class="node">
<title>MATH0014</title>
<g id="a_node8"><a xlink:href="https://www.ucl.ac.uk/maths/sites/maths/files/math0014.pdf" xlink:title="Year 2, term 1">
<polygon fill="white" stroke="#00ff00" stroke-width="5" points="846,-260 586,-260 586,-222 846,-222 846,-260"/>
<text text-anchor="middle" x="716" y="-244.8" font-family="Times,serif" font-size="14.00">MATH0014</text>
<text text-anchor="middle" x="716" y="-229.8" font-family="Times,serif" font-size="14.00">Algebra 3: Further Linear Algebra</text>
</a>
</g>
</g>
<!-- MATH0006&#45;&gt;MATH0014 -->
<g id="edge6" class="edge">
<title>MATH0006&#45;&gt;MATH0014</title>
<g id="a_edge6"><a xlink:title="required prerequisite">
<path fill="none" stroke="black" d="M795.25,-295.83C781.94,-286.79 765.68,-275.75 751.36,-266.02"/>
<polygon fill="black" stroke="black" points="752.98,-262.89 742.74,-260.16 749.05,-268.68 752.98,-262.89"/>
</a>
</g>
</g>
<!-- MATH0053 -->
<g id="node9" class="node">
<title>MATH0053</title>
<g id="a_node9"><a xlink:href="https://www.ucl.ac.uk/maths/sites/maths/files/math0053.pdf" xlink:title="Year 2 or 3, term 2">
<polygon fill="white" stroke="#8ee5ee" stroke-width="5" points="1390,-260 1292,-260 1292,-222 1390,-222 1390,-260"/>
<text text-anchor="middle" x="1341" y="-244.8" font-family="Times,serif" font-size="14.00">MATH0053</text>
<text text-anchor="middle" x="1341" y="-229.8" font-family="Times,serif" font-size="14.00">Algebra 4</text>
</a>
</g>
</g>
<!-- MATH0006&#45;&gt;MATH0053 -->
<g id="edge7" class="edge">
<title>MATH0006&#45;&gt;MATH0053</title>
<g id="a_edge7"><a xlink:title="required prerequisite">
<path fill="none" stroke="black" d="M871.29,-307.16C967.16,-293.86 1178.36,-264.56 1281.7,-250.23"/>
<polygon fill="black" stroke="black" points="1282.23,-253.69 1291.66,-248.85 1281.27,-246.75 1282.23,-253.69"/>
</a>
</g>
</g>
<!-- MATH0034 -->
<g id="node10" class="node">
<title>MATH0034</title>
<g id="a_node10"><a xlink:href="https://www.ucl.ac.uk/maths/sites/maths/files/math0034.pdf" xlink:title="Year 2 or 3, term 2">
<polygon fill="white" stroke="#8ee5ee" stroke-width="5" points="993.5,-260 864.5,-260 864.5,-222 993.5,-222 993.5,-260"/>
<text text-anchor="middle" x="929" y="-244.8" font-family="Times,serif" font-size="14.00">MATH0034</text>
<text text-anchor="middle" x="929" y="-229.8" font-family="Times,serif" font-size="14.00">Number Theory</text>
</a>
</g>
</g>
<!-- MATH0006&#45;&gt;MATH0034 -->
<g id="edge8" class="edge">
<title>MATH0006&#45;&gt;MATH0034</title>
<g id="a_edge8"><a xlink:title="required prerequisite">
<path fill="none" stroke="black" d="M849,-295.83C862.43,-286.79 878.85,-275.75 893.3,-266.02"/>
<polygon fill="black" stroke="black" points="895.67,-268.65 902.01,-260.16 891.76,-262.84 895.67,-268.65"/>
</a>
</g>
</g>
<!-- MATH0037 -->
<g id="node17" class="node">
<title>MATH0037</title>
<g id="a_node17"><a xlink:href="https://www.ucl.ac.uk/maths/sites/maths/files/math0037.pdf" xlink:title="Year 3, term 2">
<polygon fill="white" stroke="#cd3333" stroke-width="5" points="423,-112 325,-112 325,-74 423,-74 423,-112"/>
<text text-anchor="middle" x="374" y="-96.8" font-family="Times,serif" font-size="14.00">MATH0037</text>
<text text-anchor="middle" x="374" y="-81.8" font-family="Times,serif" font-size="14.00">Logic</text>
</a>
</g>
</g>
<!-- MATH0006&#45;&gt;MATH0037 -->
<g id="edge14" class="edge">
<title>MATH0006&#45;&gt;MATH0037</title>
<g id="a_edge14"><a xlink:title="required prerequisite">
<path fill="none" stroke="black" d="M772.74,-306.23C670.83,-289.1 442.21,-244.9 393,-186 378.2,-168.28 373.96,-142.03 373.12,-122.1"/>
<polygon fill="black" stroke="black" points="376.62,-121.99 372.96,-112.05 369.62,-122.1 376.62,-121.99"/>
</a>
</g>
</g>
<!-- MATH0004&#45;&gt;MATH0013 -->
<g id="edge5" class="edge">
<title>MATH0004&#45;&gt;MATH0013</title>
<g id="a_edge5"><a xlink:title="recommended prerequisite">
<path fill="none" stroke="black" stroke-dasharray="5,2" d="M173.43,-295.83C182.73,-287.13 194.02,-276.58 204.13,-267.13"/>
<polygon fill="black" stroke="black" points="206.66,-269.55 211.58,-260.16 201.88,-264.44 206.66,-269.55"/>
</a>
</g>
</g>
<!-- MATH0051 -->
<g id="node12" class="node">
<title>MATH0051</title>
<g id="a_node12"><a xlink:href="https://www.ucl.ac.uk/maths/sites/maths/files/math0051.pdf" xlink:title="Year 2 or 3, term 2">
<polygon fill="white" stroke="#8ee5ee" stroke-width="5" points="98,-260 0,-260 0,-222 98,-222 98,-260"/>
<text text-anchor="middle" x="49" y="-244.8" font-family="Times,serif" font-size="14.00">MATH0051</text>
<text text-anchor="middle" x="49" y="-229.8" font-family="Times,serif" font-size="14.00">Analysis 4</text>
</a>
</g>
</g>
<!-- MATH0004&#45;&gt;MATH0051 -->
<g id="edge10" class="edge">
<title>MATH0004&#45;&gt;MATH0051</title>
<g id="a_edge10"><a xlink:title="required prerequisite">
<path fill="none" stroke="black" d="M127.5,-295.83C114.32,-286.79 98.22,-275.75 84.03,-266.02"/>
<polygon fill="black" stroke="black" points="85.71,-262.93 75.49,-260.16 81.76,-268.7 85.71,-262.93"/>
</a>
</g>
</g>
<!-- MATH0104 -->
<g id="node23" class="node">
<title>MATH0104</title>
<g id="a_node23"><a xlink:href="https://www.ucl.ac.uk/maths/sites/maths/files/math0104_2.pdf" xlink:title="Year 3 or 4, term 1">
<polygon fill="white" stroke="#ff1493" stroke-width="5" points="922,-38 796,-38 796,0 922,0 922,-38"/>
<text text-anchor="middle" x="859" y="-22.8" font-family="Times,serif" font-size="14.00">MATH0104</text>
<text text-anchor="middle" x="859" y="-7.8" font-family="Times,serif" font-size="14.00">Modular Forms</text>
</a>
</g>
</g>
<!-- MATH0013&#45;&gt;MATH0104 -->
<g id="edge22" class="edge">
<title>MATH0013&#45;&gt;MATH0104</title>
<g id="a_edge22"><a xlink:title="required prerequisite">
<path fill="none" stroke="black" d="M237.69,-221.97C252.6,-182.84 289.31,-92.19 316,-74 353.97,-48.12 646.28,-30.45 785.6,-23.41"/>
<polygon fill="black" stroke="black" points="785.95,-26.9 795.77,-22.9 785.6,-19.91 785.95,-26.9"/>
</a>
</g>
</g>
<!-- MATH0083 -->
<g id="node25" class="node">
<title>MATH0083</title>
<g id="a_node25"><a xlink:href="https://www.ucl.ac.uk/maths/sites/maths/files/math0083.pdf" xlink:title="Year 3 or 4, term 1">
<polygon fill="white" stroke="#ff1493" stroke-width="5" points="376,-38 86,-38 86,0 376,0 376,-38"/>
<text text-anchor="middle" x="231" y="-22.8" font-family="Times,serif" font-size="14.00">MATH0083</text>
<text text-anchor="middle" x="231" y="-7.8" font-family="Times,serif" font-size="14.00">Prime Numbers and their Distribution</text>
</a>
</g>
</g>
<!-- MATH0013&#45;&gt;MATH0083 -->
<g id="edge27" class="edge">
<title>MATH0013&#45;&gt;MATH0083</title>
<g id="a_edge27"><a xlink:title="required prerequisite">
<path fill="none" stroke="black" d="M231,-222C231,-183.8 231,-94.41 231,-48.43"/>
<polygon fill="black" stroke="black" points="234.5,-48.25 231,-38.25 227.5,-48.25 234.5,-48.25"/>
</a>
</g>
</g>
<!-- MATH0023 -->
<g id="node14" class="node">
<title>MATH0023</title>
<g id="a_node14"><a xlink:href="https://www.ucl.ac.uk/maths/sites/maths/files/math0023_1.pdf" xlink:title="Year 3, term 1">
<polygon fill="white" stroke="#ff4040" stroke-width="5" points="792.5,-186 639.5,-186 639.5,-148 792.5,-148 792.5,-186"/>
<text text-anchor="middle" x="716" y="-170.8" font-family="Times,serif" font-size="14.00">MATH0023</text>
<text text-anchor="middle" x="716" y="-155.8" font-family="Times,serif" font-size="14.00">Algebraic Topology</text>
</a>
</g>
</g>
<!-- MATH0014&#45;&gt;MATH0023 -->
<g id="edge12" class="edge">
<title>MATH0014&#45;&gt;MATH0023</title>
<g id="a_edge12"><a xlink:title="required prerequisite">
<path fill="none" stroke="black" d="M716,-221.83C716,-214.13 716,-204.97 716,-196.42"/>
<polygon fill="black" stroke="black" points="719.5,-196.41 716,-186.41 712.5,-196.41 719.5,-196.41"/>
</a>
</g>
</g>
<!-- MATH0014&#45;&gt;MATH0104 -->
<g id="edge23" class="edge">
<title>MATH0014&#45;&gt;MATH0104</title>
<g id="a_edge23"><a xlink:title="required prerequisite">
<path fill="none" stroke="black" d="M756.18,-221.8C771.99,-212.94 789.16,-200.93 801,-186 833.75,-144.71 848.7,-83.61 854.97,-48.21"/>
<polygon fill="black" stroke="black" points="858.47,-48.53 856.65,-38.09 851.56,-47.38 858.47,-48.53"/>
</a>
</g>
</g>
<!-- MATH0075 -->
<g id="node26" class="node">
<title>MATH0075</title>
<g id="a_node26"><a xlink:href="https://www.ucl.ac.uk/maths/sites/maths/files/math0075_3.pdf" xlink:title="Year 3 or 4, term 2">
<polygon fill="white" stroke="#cd1076" stroke-width="5" points="621.5,-186 402.5,-186 402.5,-148 621.5,-148 621.5,-186"/>
<text text-anchor="middle" x="512" y="-170.8" font-family="Times,serif" font-size="14.00">MATH0075</text>
<text text-anchor="middle" x="512" y="-155.8" font-family="Times,serif" font-size="14.00">Lie Groups and Lie Algebras</text>
</a>
</g>
</g>
<!-- MATH0014&#45;&gt;MATH0075 -->
<g id="edge30" class="edge">
<title>MATH0014&#45;&gt;MATH0075</title>
<g id="a_edge30"><a xlink:title="required prerequisite">
<path fill="none" stroke="black" d="M664.79,-221.92C636.9,-212.08 602.21,-199.84 572.94,-189.51"/>
<polygon fill="black" stroke="black" points="573.83,-186.11 563.24,-186.08 571.5,-192.71 573.83,-186.11"/>
</a>
</g>
</g>
<!-- MATH0022 -->
<g id="node13" class="node">
<title>MATH0022</title>
<g id="a_node13"><a xlink:href="https://www.ucl.ac.uk/maths/sites/maths/files/math0022.pdf" xlink:title="Year 3, term 1">
<polygon fill="white" stroke="#ff4040" stroke-width="5" points="1625.5,-186 1510.5,-186 1510.5,-148 1625.5,-148 1625.5,-186"/>
<text text-anchor="middle" x="1568" y="-170.8" font-family="Times,serif" font-size="14.00">MATH0022</text>
<text text-anchor="middle" x="1568" y="-155.8" font-family="Times,serif" font-size="14.00">Galois Theory</text>
</a>
</g>
</g>
<!-- MATH0053&#45;&gt;MATH0022 -->
<g id="edge11" class="edge">
<title>MATH0053&#45;&gt;MATH0022</title>
<g id="a_edge11"><a xlink:title="required prerequisite">
<path fill="none" stroke="black" d="M1390.26,-224.38C1422.79,-214.06 1465.84,-200.4 1501.42,-189.12"/>
<polygon fill="black" stroke="black" points="1502.76,-192.36 1511.24,-186 1500.65,-185.69 1502.76,-192.36"/>
</a>
</g>
</g>
<!-- MATH0108 -->
<g id="node18" class="node">
<title>MATH0108</title>
<g id="a_node18"><a xlink:href="https://www.ucl.ac.uk/maths/sites/maths/files/0108_0.pdf" xlink:title="Year 3, term 2">
<polygon fill="white" stroke="#cd3333" stroke-width="5" points="1313,-112 1065,-112 1065,-74 1313,-74 1313,-112"/>
<text text-anchor="middle" x="1189" y="-96.8" font-family="Times,serif" font-size="14.00">MATH0108</text>
<text text-anchor="middle" x="1189" y="-81.8" font-family="Times,serif" font-size="14.00">Commutative Rings and Algebra</text>
</a>
</g>
</g>
<!-- MATH0053&#45;&gt;MATH0108 -->
<g id="edge15" class="edge">
<title>MATH0053&#45;&gt;MATH0108</title>
<g id="a_edge15"><a xlink:title="required prerequisite">
<path fill="none" stroke="black" d="M1322.06,-221.8C1295.2,-196.01 1245.96,-148.71 1215.5,-119.45"/>
<polygon fill="black" stroke="black" points="1217.82,-116.83 1208.18,-112.43 1212.97,-121.88 1217.82,-116.83"/>
</a>
</g>
</g>
<!-- MATH0036 -->
<g id="node19" class="node">
<title>MATH0036</title>
<g id="a_node19"><a xlink:href="https://www.ucl.ac.uk/maths/sites/maths/files/math0036.pdf" xlink:title="Year 3, term 2">
<polygon fill="white" stroke="#cd3333" stroke-width="5" points="1047,-112 925,-112 925,-74 1047,-74 1047,-112"/>
<text text-anchor="middle" x="986" y="-96.8" font-family="Times,serif" font-size="14.00">MATH0036</text>
<text text-anchor="middle" x="986" y="-81.8" font-family="Times,serif" font-size="14.00">Elliptic Curves</text>
</a>
</g>
</g>
<!-- MATH0053&#45;&gt;MATH0036 -->
<g id="edge17" class="edge">
<title>MATH0053&#45;&gt;MATH0036</title>
<g id="a_edge17"><a xlink:title="required prerequisite">
<path fill="none" stroke="black" d="M1297.11,-221.95C1231.91,-195.14 1109.62,-144.84 1039.35,-115.94"/>
<polygon fill="black" stroke="black" points="1040.37,-112.57 1029.79,-112.01 1037.7,-119.05 1040.37,-112.57"/>
</a>
</g>
</g>
<!-- MATH0021 -->
<g id="node20" class="node">
<title>MATH0021</title>
<g id="a_node20"><a xlink:href="https://www.ucl.ac.uk/maths/sites/maths/files/math0021.pdf" xlink:title="Year 3, term 2">
<polygon fill="white" stroke="#cd3333" stroke-width="5" points="1534.5,-112 1369.5,-112 1369.5,-74 1534.5,-74 1534.5,-112"/>
<text text-anchor="middle" x="1452" y="-96.8" font-family="Times,serif" font-size="14.00">MATH0021</text>
<text text-anchor="middle" x="1452" y="-81.8" font-family="Times,serif" font-size="14.00">Homological Algebra</text>
</a>
</g>
</g>
<!-- MATH0053&#45;&gt;MATH0021 -->
<g id="edge18" class="edge">
<title>MATH0053&#45;&gt;MATH0021</title>
<g id="a_edge18"><a xlink:title="required prerequisite">
<path fill="none" stroke="black" d="M1354.83,-221.8C1374.19,-196.34 1409.49,-149.91 1431.8,-120.58"/>
<polygon fill="black" stroke="black" points="1434.73,-122.5 1437.99,-112.43 1429.15,-118.27 1434.73,-122.5"/>
</a>
</g>
</g>
<!-- MATH0035 -->
<g id="node21" class="node">
<title>MATH0035</title>
<g id="a_node21"><a xlink:href="https://www.ucl.ac.uk/maths/sites/maths/files/math0035.pdf" xlink:title="Year 3, term 2">
<polygon fill="white" stroke="#cd3333" stroke-width="5" points="1830.5,-112 1629.5,-112 1629.5,-74 1830.5,-74 1830.5,-112"/>
<text text-anchor="middle" x="1730" y="-96.8" font-family="Times,serif" font-size="14.00">MATH0035</text>
<text text-anchor="middle" x="1730" y="-81.8" font-family="Times,serif" font-size="14.00">Algebraic Number Theory</text>
</a>
</g>
</g>
<!-- MATH0053&#45;&gt;MATH0035 -->
<g id="edge20" class="edge">
<title>MATH0053&#45;&gt;MATH0035</title>
<g id="a_edge20"><a xlink:title="required prerequisite">
<path fill="none" stroke="black" d="M1390.27,-238.07C1474.85,-233.84 1643.04,-221.14 1689,-186 1709.2,-170.55 1719.68,-142.97 1724.97,-122.02"/>
<polygon fill="black" stroke="black" points="1728.43,-122.59 1727.22,-112.06 1721.6,-121.04 1728.43,-122.59"/>
</a>
</g>
</g>
<!-- MATH0073 -->
<g id="node24" class="node">
<title>MATH0073</title>
<g id="a_node24"><a xlink:href="https://www.ucl.ac.uk/maths/sites/maths/files/math0073.pdf" xlink:title="Year 3 or 4, term 1">
<polygon fill="white" stroke="#ff1493" stroke-width="5" points="1400,-38 1220,-38 1220,0 1400,0 1400,-38"/>
<text text-anchor="middle" x="1310" y="-22.8" font-family="Times,serif" font-size="14.00">MATH0073</text>
<text text-anchor="middle" x="1310" y="-7.8" font-family="Times,serif" font-size="14.00">Representation Theory</text>
</a>
</g>
</g>
<!-- MATH0053&#45;&gt;MATH0073 -->
<g id="edge25" class="edge">
<title>MATH0053&#45;&gt;MATH0073</title>
<g id="a_edge25"><a xlink:title="required prerequisite">
<path fill="none" stroke="black" d="M1339.56,-221.98C1336.98,-191.41 1330.98,-127.5 1322,-74 1320.59,-65.61 1318.72,-56.56 1316.88,-48.31"/>
<polygon fill="black" stroke="black" points="1320.25,-47.36 1314.59,-38.4 1313.43,-48.93 1320.25,-47.36"/>
</a>
</g>
</g>
<!-- MATH0034&#45;&gt;MATH0036 -->
<g id="edge16" class="edge">
<title>MATH0034&#45;&gt;MATH0036</title>
<g id="a_edge16"><a xlink:title="required prerequisite">
<path fill="none" stroke="black" d="M936.1,-221.8C945.87,-196.78 963.55,-151.5 975.03,-122.1"/>
<polygon fill="black" stroke="black" points="978.43,-123.01 978.81,-112.43 971.91,-120.47 978.43,-123.01"/>
</a>
</g>
</g>
<!-- MATH0034&#45;&gt;MATH0035 -->
<g id="edge19" class="edge">
<title>MATH0034&#45;&gt;MATH0035</title>
<g id="a_edge19"><a xlink:title="required prerequisite">
<path fill="none" stroke="black" d="M993.51,-236.26C1162.3,-226.3 1605.99,-199.05 1635,-186 1666.61,-171.78 1693.97,-142.34 1711.11,-120.57"/>
<polygon fill="black" stroke="black" points="1714.09,-122.44 1717.38,-112.36 1708.52,-118.19 1714.09,-122.44"/>
</a>
</g>
</g>
<!-- MATH0034&#45;&gt;MATH0104 -->
<g id="edge24" class="edge">
<title>MATH0034&#45;&gt;MATH0104</title>
<g id="a_edge24"><a xlink:title="recommended prerequisite">
<path fill="none" stroke="black" stroke-dasharray="5,2" d="M923.27,-222C911.07,-183.64 882.43,-93.65 867.86,-47.85"/>
<polygon fill="black" stroke="black" points="871.17,-46.72 864.81,-38.25 864.5,-48.84 871.17,-46.72"/>
</a>
</g>
</g>
<!-- MATH0034&#45;&gt;MATH0083 -->
<g id="edge29" class="edge">
<title>MATH0034&#45;&gt;MATH0083</title>
<g id="a_edge29"><a xlink:title="required prerequisite">
<path fill="none" stroke="black" d="M909.32,-221.91C885.46,-200.97 843.19,-166.95 801,-148 667.72,-88.15 503.95,-55.13 386.21,-37.69"/>
<polygon fill="black" stroke="black" points="386.43,-34.19 376.03,-36.21 385.42,-41.11 386.43,-34.19"/>
</a>
</g>
</g>
<!-- MATH0029 -->
<g id="node15" class="node">
<title>MATH0029</title>
<g id="a_node15"><a xlink:href="https://www.ucl.ac.uk/maths/sites/maths/files/math0029.pdf" xlink:title="Year 3, term 1">
<polygon fill="white" stroke="#ff4040" stroke-width="5" points="2006,-186 1752,-186 1752,-148 2006,-148 2006,-186"/>
<text text-anchor="middle" x="1879" y="-170.8" font-family="Times,serif" font-size="14.00">MATH0029</text>
<text text-anchor="middle" x="1879" y="-155.8" font-family="Times,serif" font-size="14.00">Graph Theory and Combinatorics</text>
</a>
</g>
</g>
<!-- MATH0057&#45;&gt;MATH0029 -->
<g id="edge13" class="edge">
<title>MATH0057&#45;&gt;MATH0029</title>
<g id="a_edge13"><a xlink:title="recommended prerequisite">
<path fill="none" stroke="black" stroke-dasharray="5,2" d="M1879,-221.83C1879,-214.13 1879,-204.97 1879,-196.42"/>
<polygon fill="black" stroke="black" points="1882.5,-196.41 1879,-186.41 1875.5,-196.41 1882.5,-196.41"/>
</a>
</g>
</g>
<!-- MATH0051&#45;&gt;MATH0083 -->
<g id="edge28" class="edge">
<title>MATH0051&#45;&gt;MATH0083</title>
<g id="a_edge28"><a xlink:title="required prerequisite">
<path fill="none" stroke="black" d="M63.89,-222C96.02,-183.16 171.95,-91.38 209.38,-46.13"/>
<polygon fill="black" stroke="black" points="212.22,-48.19 215.9,-38.25 206.83,-43.73 212.22,-48.19"/>
</a>
</g>
</g>
<!-- MATH0022&#45;&gt;MATH0035 -->
<g id="edge21" class="edge">
<title>MATH0022&#45;&gt;MATH0035</title>
<g id="a_edge21"><a xlink:title="recommended prerequisite">
<path fill="none" stroke="black" stroke-dasharray="5,2" d="M1608.88,-147.83C1630.55,-138.2 1657.34,-126.29 1680.21,-116.13"/>
<polygon fill="black" stroke="black" points="1681.7,-119.3 1689.41,-112.04 1678.85,-112.9 1681.7,-119.3"/>
</a>
</g>
</g>
<!-- MATH0076 -->
<g id="node27" class="node">
<title>MATH0076</title>
<g id="a_node27"><a xlink:href="https://www.ucl.ac.uk/maths/sites/maths/files/math0076_3.pdf" xlink:title="Year 4, term 1">
<polygon fill="white" stroke="#1c86ee" stroke-width="5" points="1577.5,-38 1418.5,-38 1418.5,0 1577.5,0 1577.5,-38"/>
<text text-anchor="middle" x="1498" y="-22.8" font-family="Times,serif" font-size="14.00">MATH0076</text>
<text text-anchor="middle" x="1498" y="-7.8" font-family="Times,serif" font-size="14.00">Algebraic Geometry</text>
</a>
</g>
</g>
<!-- MATH0022&#45;&gt;MATH0076 -->
<g id="edge32" class="edge">
<title>MATH0022&#45;&gt;MATH0076</title>
<g id="a_edge32"><a xlink:title="required prerequisite">
<path fill="none" stroke="black" d="M1565.72,-147.84C1562.76,-128.63 1556.43,-97.86 1544,-74 1538.82,-64.07 1531.52,-54.38 1524.26,-46.01"/>
<polygon fill="black" stroke="black" points="1526.69,-43.48 1517.37,-38.43 1521.5,-48.19 1526.69,-43.48"/>
</a>
</g>
</g>
<!-- MATH0061 -->
<g id="node28" class="node">
<title>MATH0061</title>
<g id="a_node28"><a xlink:href="https://www.ucl.ac.uk/maths/sites/maths/files/math0061_0.pdf" xlink:title="Year 4, term 2">
<polygon fill="white" stroke="#1874cd" stroke-width="5" points="1924.5,-38 1595.5,-38 1595.5,0 1924.5,0 1924.5,-38"/>
<text text-anchor="middle" x="1760" y="-22.8" font-family="Times,serif" font-size="14.00">MATH0061</text>
<text text-anchor="middle" x="1760" y="-7.8" font-family="Times,serif" font-size="14.00">Further Topics in Algebraic Number Theory</text>
</a>
</g>
</g>
<!-- MATH0022&#45;&gt;MATH0061 -->
<g id="edge34" class="edge">
<title>MATH0022&#45;&gt;MATH0061</title>
<g id="a_edge34"><a xlink:title="required prerequisite">
<path fill="none" stroke="black" d="M1574.29,-147.64C1582.2,-127.09 1597.64,-94.05 1621,-74 1637.2,-60.1 1657.38,-49.55 1677.29,-41.64"/>
<polygon fill="black" stroke="black" points="1678.61,-44.88 1686.72,-38.07 1676.13,-38.34 1678.61,-44.88"/>
</a>
</g>
</g>
<!-- MATH0109 -->
<g id="node16" class="node">
<title>MATH0109</title>
<g id="a_node16"><a xlink:href="https://www.ucl.ac.uk/maths/sites/maths/files/math0109.pdf" xlink:title="Year 3, term 1">
<polygon fill="white" stroke="#ff4040" stroke-width="5" points="2221.5,-186 2024.5,-186 2024.5,-148 2221.5,-148 2221.5,-186"/>
<text text-anchor="middle" x="2123" y="-170.8" font-family="Times,serif" font-size="14.00">MATH0109</text>
<text text-anchor="middle" x="2123" y="-155.8" font-family="Times,serif" font-size="14.00">Theorem Proving in Lean</text>
</a>
</g>
</g>
<!-- MATH0021&#45;&gt;MATH0073 -->
<g id="edge26" class="edge">
<title>MATH0021&#45;&gt;MATH0073</title>
<g id="a_edge26"><a xlink:title="recommended prerequisite">
<path fill="none" stroke="black" stroke-dasharray="5,2" d="M1416.17,-73.83C1397.58,-64.41 1374.7,-52.81 1354.94,-42.79"/>
<polygon fill="black" stroke="black" points="1356.32,-39.56 1345.82,-38.16 1353.16,-45.81 1356.32,-39.56"/>
</a>
</g>
</g>
<!-- MATH0021&#45;&gt;MATH0076 -->
<g id="edge31" class="edge">
<title>MATH0021&#45;&gt;MATH0076</title>
<g id="a_edge31"><a xlink:title="required prerequisite">
<path fill="none" stroke="black" d="M1463.61,-73.83C1468.8,-65.71 1475.02,-55.96 1480.74,-47.01"/>
<polygon fill="black" stroke="black" points="1483.8,-48.72 1486.24,-38.41 1477.9,-44.96 1483.8,-48.72"/>
</a>
</g>
</g>
<!-- MATH0035&#45;&gt;MATH0061 -->
<g id="edge33" class="edge">
<title>MATH0035&#45;&gt;MATH0061</title>
<g id="a_edge33"><a xlink:title="required prerequisite">
<path fill="none" stroke="black" d="M1737.57,-73.83C1740.85,-65.96 1744.76,-56.57 1748.39,-47.85"/>
<polygon fill="black" stroke="black" points="1751.71,-48.99 1752.33,-38.41 1745.25,-46.3 1751.71,-48.99"/>
</a>
</g>
</g>
<!-- MATH0038 -->
<g id="node22" class="node">
<title>MATH0038</title>
<g id="a_node22"><a xlink:href="https://www.ucl.ac.uk/maths/sites/maths/files/math0038.pdf" xlink:title="Year 3, term 2">
<polygon fill="white" stroke="#cd3333" stroke-width="5" points="2033.5,-112 1848.5,-112 1848.5,-74 2033.5,-74 2033.5,-112"/>
<text text-anchor="middle" x="1941" y="-96.8" font-family="Times,serif" font-size="14.00">MATH0038</text>
<text text-anchor="middle" x="1941" y="-81.8" font-family="Times,serif" font-size="14.00">History of Mathematics</text>
</a>
</g>
</g>
</g>
</svg>
