<?xml version="1.0" encoding="UTF-8" standalone="no"?>
<!DOCTYPE svg PUBLIC "-//W3C//DTD SVG 1.1//EN"
 "http://www.w3.org/Graphics/SVG/1.1/DTD/svg11.dtd">
<!-- Generated by graphviz version 14.1.1 (0)
 -->
<!-- Pages: 1 -->
<svg width="2071pt" height="443pt"
 viewBox="0.00 0.00 2071.00 443.00" xmlns="http://www.w3.org/2000/svg" xmlns:xlink="http://www.w3.org/1999/xlink">
<g id="graph0" class="graph" transform="scale(1 1) rotate(0) translate(4 439)">
<polygon fill="white" stroke="none" points="-4,4 -4,-439 2066.75,-439 2066.75,4 -4,4"/>
<!-- MATH0005 -->
<g id="node1" class="node">
<title>MATH0005</title>
<g id="a_node1"><a xlink:href="https://www.ucl.ac.uk/mathematical-physical-sciences/sites/mathematical_physical_sciences/files/2025-09/math0005 syllabus.pdf" xlink:title="Year 1, term 1">
<polygon fill="white" stroke="#ffb90f" stroke-width="5" points="832.25,-435 735.25,-435 735.25,-392.5 832.25,-392.5 832.25,-435"/>
<text xml:space="preserve" text-anchor="middle" x="783.75" y="-417.7" font-family="Times,serif" font-size="14.00">MATH0005</text>
<text xml:space="preserve" text-anchor="middle" x="783.75" y="-400.45" font-family="Times,serif" font-size="14.00">Algebra 1</text>
</a>
</g>
</g>
<!-- MATH0006 -->
<g id="node4" class="node">
<title>MATH0006</title>
<g id="a_node4"><a xlink:href="https://www.ucl.ac.uk/mathematical-physical-sciences/sites/mathematical_physical_sciences/files/math0006.pdf" xlink:title="Year 1, term 2">
<polygon fill="white" stroke="#cd950c" stroke-width="5" points="832.25,-356.5 735.25,-356.5 735.25,-314 832.25,-314 832.25,-356.5"/>
<text xml:space="preserve" text-anchor="middle" x="783.75" y="-339.2" font-family="Times,serif" font-size="14.00">MATH0006</text>
<text xml:space="preserve" text-anchor="middle" x="783.75" y="-321.95" font-family="Times,serif" font-size="14.00">Algebra 2</text>
</a>
</g>
</g>
<!-- MATH0005&#45;&gt;MATH0006 -->
<g id="edge1" class="edge">
<title>MATH0005&#45;&gt;MATH0006</title>
<g id="a_edge1"><a xlink:title="required prerequisite">
<path fill="none" stroke="black" d="M783.75,-390.21C783.75,-383.89 783.75,-376.87 783.75,-370.04"/>
<polygon fill="black" stroke="black" points="787.25,-370.41 783.75,-360.41 780.25,-370.41 787.25,-370.41"/>
</a>
</g>
</g>
<!-- MATH0010 -->
<g id="node2" class="node">
<title>MATH0010</title>
<g id="a_node2"><a xlink:href="https://www.ucl.ac.uk/mathematical-physical-sciences/sites/mathematical_physical_sciences/files/math0010.pdf" xlink:title="Year 1, term 1">
<polygon fill="white" stroke="#ffb90f" stroke-width="5" points="1819,-435 1624.5,-435 1624.5,-392.5 1819,-392.5 1819,-435"/>
<text xml:space="preserve" text-anchor="middle" x="1721.75" y="-417.7" font-family="Times,serif" font-size="14.00">MATH0010</text>
<text xml:space="preserve" text-anchor="middle" x="1721.75" y="-400.45" font-family="Times,serif" font-size="14.00">Mathematical Methods 1</text>
</a>
</g>
</g>
<!-- MATH0011 -->
<g id="node5" class="node">
<title>MATH0011</title>
<g id="a_node5"><a xlink:href="https://www.ucl.ac.uk/mathematical-physical-sciences/sites/mathematical_physical_sciences/files/math0011.pdf" xlink:title="Year 1, term 2">
<polygon fill="white" stroke="#cd950c" stroke-width="5" points="1819,-356.5 1624.5,-356.5 1624.5,-314 1819,-314 1819,-356.5"/>
<text xml:space="preserve" text-anchor="middle" x="1721.75" y="-339.2" font-family="Times,serif" font-size="14.00">MATH0011</text>
<text xml:space="preserve" text-anchor="middle" x="1721.75" y="-321.95" font-family="Times,serif" font-size="14.00">Mathematical Methods 2</text>
</a>
</g>
</g>
<!-- MATH0010&#45;&gt;MATH0011 -->
<g id="edge2" class="edge">
<title>MATH0010&#45;&gt;MATH0011</title>
<g id="a_edge2"><a xlink:title="required prerequisite">
<path fill="none" stroke="black" d="M1721.75,-390.21C1721.75,-383.89 1721.75,-376.87 1721.75,-370.04"/>
<polygon fill="black" stroke="black" points="1725.25,-370.41 1721.75,-360.41 1718.25,-370.41 1725.25,-370.41"/>
</a>
</g>
</g>
<!-- MATH0003 -->
<g id="node3" class="node">
<title>MATH0003</title>
<g id="a_node3"><a xlink:href="https://www.ucl.ac.uk/mathematical-physical-sciences/sites/mathematical_physical_sciences/files/2025-09/math0003.pdf" xlink:title="Year 1, term 1">
<polygon fill="white" stroke="#ffb90f" stroke-width="5" points="1462.25,-435 1365.25,-435 1365.25,-392.5 1462.25,-392.5 1462.25,-435"/>
<text xml:space="preserve" text-anchor="middle" x="1413.75" y="-417.7" font-family="Times,serif" font-size="14.00">MATH0003</text>
<text xml:space="preserve" text-anchor="middle" x="1413.75" y="-400.45" font-family="Times,serif" font-size="14.00">Analysis 1</text>
</a>
</g>
</g>
<!-- MATH0004 -->
<g id="node6" class="node">
<title>MATH0004</title>
<g id="a_node6"><a xlink:href="https://www.ucl.ac.uk/mathematical-physical-sciences/sites/mathematical_physical_sciences/files/math0004.pdf" xlink:title="Year 1, term 2">
<polygon fill="white" stroke="#cd950c" stroke-width="5" points="1501.25,-356.5 1404.25,-356.5 1404.25,-314 1501.25,-314 1501.25,-356.5"/>
<text xml:space="preserve" text-anchor="middle" x="1452.75" y="-339.2" font-family="Times,serif" font-size="14.00">MATH0004</text>
<text xml:space="preserve" text-anchor="middle" x="1452.75" y="-321.95" font-family="Times,serif" font-size="14.00">Analysis 2</text>
</a>
</g>
</g>
<!-- MATH0003&#45;&gt;MATH0004 -->
<g id="edge3" class="edge">
<title>MATH0003&#45;&gt;MATH0004</title>
<g id="a_edge3"><a xlink:title="required prerequisite">
<path fill="none" stroke="black" d="M1425.24,-390.21C1428.62,-383.58 1432.39,-376.18 1436.03,-369.04"/>
<polygon fill="black" stroke="black" points="1439.1,-370.74 1440.52,-360.24 1432.86,-367.56 1439.1,-370.74"/>
</a>
</g>
</g>
<!-- MATH0013 -->
<g id="node8" class="node">
<title>MATH0013</title>
<g id="a_node8"><a xlink:href="https://www.ucl.ac.uk/mathematical-physical-sciences/sites/mathematical_physical_sciences/files/2025-09/math0013_0.pdf" xlink:title="Year 2, term 1">
<polygon fill="white" stroke="#00ff00" stroke-width="5" points="1489.88,-278 1261.62,-278 1261.62,-235.5 1489.88,-235.5 1489.88,-278"/>
<text xml:space="preserve" text-anchor="middle" x="1375.75" y="-260.7" font-family="Times,serif" font-size="14.00">MATH0013</text>
<text xml:space="preserve" text-anchor="middle" x="1375.75" y="-243.45" font-family="Times,serif" font-size="14.00">Analysis 3 &#45; Complex Analysis</text>
</a>
</g>
</g>
<!-- MATH0003&#45;&gt;MATH0013 -->
<g id="edge5" class="edge">
<title>MATH0003&#45;&gt;MATH0013</title>
<g id="a_edge5"><a xlink:title="required prerequisite">
<path fill="none" stroke="black" d="M1405.91,-390.2C1402.52,-379.99 1398.67,-367.71 1395.75,-356.5 1390.16,-335.05 1385.21,-310.65 1381.63,-291.46"/>
<polygon fill="black" stroke="black" points="1385.09,-290.96 1379.85,-281.75 1378.21,-292.22 1385.09,-290.96"/>
</a>
</g>
</g>
<!-- MATH0014 -->
<g id="node7" class="node">
<title>MATH0014</title>
<g id="a_node7"><a xlink:href="https://www.ucl.ac.uk/mathematical-physical-sciences/sites/mathematical_physical_sciences/files/2025-09/math0014_0.pdf" xlink:title="Year 2, term 1">
<polygon fill="white" stroke="#00ff00" stroke-width="5" points="1049.62,-278 789.88,-278 789.88,-235.5 1049.62,-235.5 1049.62,-278"/>
<text xml:space="preserve" text-anchor="middle" x="919.75" y="-260.7" font-family="Times,serif" font-size="14.00">MATH0014</text>
<text xml:space="preserve" text-anchor="middle" x="919.75" y="-243.45" font-family="Times,serif" font-size="14.00">Algebra 3: Further Linear Algebra</text>
</a>
</g>
</g>
<!-- MATH0006&#45;&gt;MATH0014 -->
<g id="edge4" class="edge">
<title>MATH0006&#45;&gt;MATH0014</title>
<g id="a_edge4"><a xlink:title="required prerequisite">
<path fill="none" stroke="black" d="M824.19,-311.5C838.57,-303.41 854.94,-294.2 870.02,-285.72"/>
<polygon fill="black" stroke="black" points="871.39,-288.97 878.38,-281.02 867.95,-282.87 871.39,-288.97"/>
</a>
</g>
</g>
<!-- MATH0034 -->
<g id="node10" class="node">
<title>MATH0034</title>
<g id="a_node10"><a xlink:href="https://www.ucl.ac.uk/mathematical-physical-sciences/sites/mathematical_physical_sciences/files/math0034.pdf" xlink:title="Year 2 or 3, term 2">
<polygon fill="white" stroke="#8ee5ee" stroke-width="5" points="1244,-278 1115.5,-278 1115.5,-235.5 1244,-235.5 1244,-278"/>
<text xml:space="preserve" text-anchor="middle" x="1179.75" y="-260.7" font-family="Times,serif" font-size="14.00">MATH0034</text>
<text xml:space="preserve" text-anchor="middle" x="1179.75" y="-243.45" font-family="Times,serif" font-size="14.00">Number Theory</text>
</a>
</g>
</g>
<!-- MATH0006&#45;&gt;MATH0034 -->
<g id="edge8" class="edge">
<title>MATH0006&#45;&gt;MATH0034</title>
<g id="a_edge8"><a xlink:title="required prerequisite">
<path fill="none" stroke="black" d="M834.71,-324.41C902.54,-311.3 1023.12,-288.01 1102.26,-272.72"/>
<polygon fill="black" stroke="black" points="1102.5,-276.24 1111.65,-270.9 1101.17,-269.37 1102.5,-276.24"/>
</a>
</g>
</g>
<!-- MATH0053 -->
<g id="node12" class="node">
<title>MATH0053</title>
<g id="a_node12"><a xlink:href="https://www.ucl.ac.uk/mathematical-physical-sciences/sites/mathematical_physical_sciences/files/math0053.pdf" xlink:title="Year 2 or 3, term 2">
<polygon fill="white" stroke="#8ee5ee" stroke-width="5" points="526.25,-278 429.25,-278 429.25,-235.5 526.25,-235.5 526.25,-278"/>
<text xml:space="preserve" text-anchor="middle" x="477.75" y="-260.7" font-family="Times,serif" font-size="14.00">MATH0053</text>
<text xml:space="preserve" text-anchor="middle" x="477.75" y="-243.45" font-family="Times,serif" font-size="14.00">Algebra 4</text>
</a>
</g>
</g>
<!-- MATH0006&#45;&gt;MATH0053 -->
<g id="edge10" class="edge">
<title>MATH0006&#45;&gt;MATH0053</title>
<g id="a_edge10"><a xlink:title="required prerequisite">
<path fill="none" stroke="black" d="M732.88,-321.53C679.82,-308.27 596.61,-287.47 539.75,-273.25"/>
<polygon fill="black" stroke="black" points="540.76,-269.9 530.21,-270.87 539.07,-276.69 540.76,-269.9"/>
</a>
</g>
</g>
<!-- MATH0037 -->
<g id="node13" class="node">
<title>MATH0037</title>
<g id="a_node13"><a xlink:href="https://www.ucl.ac.uk/mathematical-physical-sciences/sites/mathematical_physical_sciences/files/math0037.pdf" xlink:title="Year 3, term 1">
<polygon fill="white" stroke="#ff4040" stroke-width="5" points="726.25,-199.5 629.25,-199.5 629.25,-157 726.25,-157 726.25,-199.5"/>
<text xml:space="preserve" text-anchor="middle" x="677.75" y="-182.2" font-family="Times,serif" font-size="14.00">MATH0037</text>
<text xml:space="preserve" text-anchor="middle" x="677.75" y="-164.95" font-family="Times,serif" font-size="14.00">Logic</text>
</a>
</g>
</g>
<!-- MATH0006&#45;&gt;MATH0037 -->
<g id="edge11" class="edge">
<title>MATH0006&#45;&gt;MATH0037</title>
<g id="a_edge11"><a xlink:title="required prerequisite">
<path fill="none" stroke="black" d="M768.34,-311.71C750.2,-285.19 719.97,-240.99 699.47,-211.01"/>
<polygon fill="black" stroke="black" points="702.57,-209.34 694.04,-203.06 696.79,-213.3 702.57,-209.34"/>
</a>
</g>
</g>
<!-- MATH0057 -->
<g id="node11" class="node">
<title>MATH0057</title>
<g id="a_node11"><a xlink:href="https://www.ucl.ac.uk/mathematical-physical-sciences/sites/mathematical_physical_sciences/files/math0057.pdf" xlink:title="Year 2 or 3, term 2">
<polygon fill="white" stroke="#8ee5ee" stroke-width="5" points="1820.5,-278 1623,-278 1623,-235.5 1820.5,-235.5 1820.5,-278"/>
<text xml:space="preserve" text-anchor="middle" x="1721.75" y="-260.7" font-family="Times,serif" font-size="14.00">MATH0057</text>
<text xml:space="preserve" text-anchor="middle" x="1721.75" y="-243.45" font-family="Times,serif" font-size="14.00">Probability and Statistics</text>
</a>
</g>
</g>
<!-- MATH0011&#45;&gt;MATH0057 -->
<g id="edge9" class="edge">
<title>MATH0011&#45;&gt;MATH0057</title>
<g id="a_edge9"><a xlink:title="required prerequisite">
<path fill="none" stroke="black" d="M1721.75,-311.71C1721.75,-305.39 1721.75,-298.37 1721.75,-291.54"/>
<polygon fill="black" stroke="black" points="1725.25,-291.91 1721.75,-281.91 1718.25,-291.91 1725.25,-291.91"/>
</a>
</g>
</g>
<!-- MATH0004&#45;&gt;MATH0013 -->
<g id="edge6" class="edge">
<title>MATH0004&#45;&gt;MATH0013</title>
<g id="a_edge6"><a xlink:title="recommended prerequisite">
<path fill="none" stroke="black" stroke-dasharray="5,2" d="M1430.06,-311.71C1422.61,-304.31 1414.2,-295.95 1406.27,-288.07"/>
<polygon fill="black" stroke="black" points="1409.17,-286.02 1399.61,-281.46 1404.24,-290.99 1409.17,-286.02"/>
</a>
</g>
</g>
<!-- MATH0051 -->
<g id="node9" class="node">
<title>MATH0051</title>
<g id="a_node9"><a xlink:href="https://www.ucl.ac.uk/mathematical-physical-sciences/sites/mathematical_physical_sciences/files/math0051.pdf" xlink:title="Year 2 or 3, term 2">
<polygon fill="white" stroke="#8ee5ee" stroke-width="5" points="1605.25,-278 1508.25,-278 1508.25,-235.5 1605.25,-235.5 1605.25,-278"/>
<text xml:space="preserve" text-anchor="middle" x="1556.75" y="-260.7" font-family="Times,serif" font-size="14.00">MATH0051</text>
<text xml:space="preserve" text-anchor="middle" x="1556.75" y="-243.45" font-family="Times,serif" font-size="14.00">Analysis 4</text>
</a>
</g>
</g>
<!-- MATH0004&#45;&gt;MATH0051 -->
<g id="edge7" class="edge">
<title>MATH0004&#45;&gt;MATH0051</title>
<g id="a_edge7"><a xlink:title="required prerequisite">
<path fill="none" stroke="black" d="M1483.67,-311.5C1494.15,-303.8 1506,-295.08 1517.07,-286.94"/>
<polygon fill="black" stroke="black" points="1518.93,-289.92 1524.91,-281.17 1514.78,-284.28 1518.93,-289.92"/>
</a>
</g>
</g>
<!-- MATH0023 -->
<g id="node15" class="node">
<title>MATH0023</title>
<g id="a_node15"><a xlink:href="https://www.ucl.ac.uk/mathematical-physical-sciences/sites/mathematical_physical_sciences/files/math0023_2.pdf" xlink:title="Year 3, term 1">
<polygon fill="white" stroke="#ff4040" stroke-width="5" points="1134,-199.5 981.5,-199.5 981.5,-157 1134,-157 1134,-199.5"/>
<text xml:space="preserve" text-anchor="middle" x="1057.75" y="-182.2" font-family="Times,serif" font-size="14.00">MATH0023</text>
<text xml:space="preserve" text-anchor="middle" x="1057.75" y="-164.95" font-family="Times,serif" font-size="14.00">Algebraic Topology</text>
</a>
</g>
</g>
<!-- MATH0014&#45;&gt;MATH0023 -->
<g id="edge13" class="edge">
<title>MATH0014&#45;&gt;MATH0023</title>
<g id="a_edge13"><a xlink:title="required prerequisite">
<path fill="none" stroke="black" d="M960.78,-233C975.38,-224.91 991.99,-215.7 1007.29,-207.22"/>
<polygon fill="black" stroke="black" points="1008.74,-210.42 1015.79,-202.51 1005.35,-204.3 1008.74,-210.42"/>
</a>
</g>
</g>
<!-- MATH0104 -->
<g id="node23" class="node">
<title>MATH0104</title>
<g id="a_node23"><a xlink:href="https://www.ucl.ac.uk/mathematical-physical-sciences/sites/mathematical_physical_sciences/files/math0104_2.pdf" xlink:title="Year 3 or 4, term 1">
<polygon fill="white" stroke="#ff1493" stroke-width="5" points="1309.5,-42.5 1184,-42.5 1184,0 1309.5,0 1309.5,-42.5"/>
<text xml:space="preserve" text-anchor="middle" x="1246.75" y="-25.2" font-family="Times,serif" font-size="14.00">MATH0104</text>
<text xml:space="preserve" text-anchor="middle" x="1246.75" y="-7.95" font-family="Times,serif" font-size="14.00">Modular Forms</text>
</a>
</g>
</g>
<!-- MATH0014&#45;&gt;MATH0104 -->
<g id="edge23" class="edge">
<title>MATH0014&#45;&gt;MATH0104</title>
<g id="a_edge23"><a xlink:title="required prerequisite">
<path fill="none" stroke="black" d="M1051.89,-240.5C1083.87,-232.14 1116.4,-219.27 1142.75,-199.5 1191.56,-162.88 1221.57,-96.09 1236.11,-55.77"/>
<polygon fill="black" stroke="black" points="1239.42,-56.93 1239.39,-46.34 1232.8,-54.63 1239.42,-56.93"/>
</a>
</g>
</g>
<!-- MATH0075 -->
<g id="node26" class="node">
<title>MATH0075</title>
<g id="a_node26"><a xlink:href="https://www.ucl.ac.uk/mathematical-physical-sciences/sites/mathematical_physical_sciences/files/math0075.pdf" xlink:title="Year 3 or 4, term 2">
<polygon fill="white" stroke="#cd1076" stroke-width="5" points="963,-199.5 744.5,-199.5 744.5,-157 963,-157 963,-199.5"/>
<text xml:space="preserve" text-anchor="middle" x="853.75" y="-182.2" font-family="Times,serif" font-size="14.00">MATH0075</text>
<text xml:space="preserve" text-anchor="middle" x="853.75" y="-164.95" font-family="Times,serif" font-size="14.00">Lie Groups and Lie Algebras</text>
</a>
</g>
</g>
<!-- MATH0014&#45;&gt;MATH0075 -->
<g id="edge30" class="edge">
<title>MATH0014&#45;&gt;MATH0075</title>
<g id="a_edge30"><a xlink:title="required prerequisite">
<path fill="none" stroke="black" d="M900.3,-233.21C894.18,-226.12 887.31,-218.15 880.76,-210.56"/>
<polygon fill="black" stroke="black" points="883.46,-208.32 874.27,-203.04 878.16,-212.9 883.46,-208.32"/>
</a>
</g>
</g>
<!-- MATH0013&#45;&gt;MATH0104 -->
<g id="edge22" class="edge">
<title>MATH0013&#45;&gt;MATH0104</title>
<g id="a_edge22"><a xlink:title="required prerequisite">
<path fill="none" stroke="black" d="M1363.38,-233.36C1340.47,-191.89 1291.34,-102.96 1264.74,-54.82"/>
<polygon fill="black" stroke="black" points="1267.9,-53.3 1260,-46.24 1261.78,-56.68 1267.9,-53.3"/>
</a>
</g>
</g>
<!-- MATH0083 -->
<g id="node25" class="node">
<title>MATH0083</title>
<g id="a_node25"><a xlink:href="https://www.ucl.ac.uk/mathematical-physical-sciences/sites/mathematical_physical_sciences/files/math0083.pdf" xlink:title="Year 3 or 4, term 1">
<polygon fill="white" stroke="#ff1493" stroke-width="5" points="1617.62,-42.5 1327.88,-42.5 1327.88,0 1617.62,0 1617.62,-42.5"/>
<text xml:space="preserve" text-anchor="middle" x="1472.75" y="-25.2" font-family="Times,serif" font-size="14.00">MATH0083</text>
<text xml:space="preserve" text-anchor="middle" x="1472.75" y="-7.95" font-family="Times,serif" font-size="14.00">Prime Numbers and their Distribution</text>
</a>
</g>
</g>
<!-- MATH0013&#45;&gt;MATH0083 -->
<g id="edge27" class="edge">
<title>MATH0013&#45;&gt;MATH0083</title>
<g id="a_edge27"><a xlink:title="required prerequisite">
<path fill="none" stroke="black" d="M1385.05,-233.36C1402.21,-192.06 1438.91,-103.71 1458.97,-55.43"/>
<polygon fill="black" stroke="black" points="1462.15,-56.89 1462.75,-46.31 1455.69,-54.2 1462.15,-56.89"/>
</a>
</g>
</g>
<!-- MATH0051&#45;&gt;MATH0083 -->
<g id="edge28" class="edge">
<title>MATH0051&#45;&gt;MATH0083</title>
<g id="a_edge28"><a xlink:title="required prerequisite">
<path fill="none" stroke="black" d="M1548.7,-233.36C1533.87,-192.15 1502.19,-104.08 1484.79,-55.73"/>
<polygon fill="black" stroke="black" points="1488.09,-54.56 1481.42,-46.34 1481.51,-56.93 1488.09,-54.56"/>
</a>
</g>
</g>
<!-- MATH0035 -->
<g id="node20" class="node">
<title>MATH0035</title>
<g id="a_node20"><a xlink:href="https://www.ucl.ac.uk/mathematical-physical-sciences/sites/mathematical_physical_sciences/files/math0035.pdf" xlink:title="Year 3, term 2">
<polygon fill="white" stroke="#cd3333" stroke-width="5" points="778,-121 577.5,-121 577.5,-78.5 778,-78.5 778,-121"/>
<text xml:space="preserve" text-anchor="middle" x="677.75" y="-103.7" font-family="Times,serif" font-size="14.00">MATH0035</text>
<text xml:space="preserve" text-anchor="middle" x="677.75" y="-86.45" font-family="Times,serif" font-size="14.00">Algebraic Number Theory</text>
</a>
</g>
</g>
<!-- MATH0034&#45;&gt;MATH0035 -->
<g id="edge17" class="edge">
<title>MATH0034&#45;&gt;MATH0035</title>
<g id="a_edge17"><a xlink:title="required prerequisite">
<path fill="none" stroke="black" d="M1177.88,-233C1174.69,-210.01 1166.06,-175.33 1142.75,-157 1115.66,-135.7 920.57,-117.95 791.84,-108.38"/>
<polygon fill="black" stroke="black" points="792.11,-104.89 781.88,-107.65 791.6,-111.87 792.11,-104.89"/>
</a>
</g>
</g>
<!-- MATH0036 -->
<g id="node21" class="node">
<title>MATH0036</title>
<g id="a_node21"><a xlink:href="https://www.ucl.ac.uk/mathematical-physical-sciences/sites/mathematical_physical_sciences/files/math0036.pdf" xlink:title="Year 3, term 2">
<polygon fill="white" stroke="#cd3333" stroke-width="5" points="1080.62,-121 958.88,-121 958.88,-78.5 1080.62,-78.5 1080.62,-121"/>
<text xml:space="preserve" text-anchor="middle" x="1019.75" y="-103.7" font-family="Times,serif" font-size="14.00">MATH0036</text>
<text xml:space="preserve" text-anchor="middle" x="1019.75" y="-86.45" font-family="Times,serif" font-size="14.00">Elliptic Curves</text>
</a>
</g>
</g>
<!-- MATH0034&#45;&gt;MATH0036 -->
<g id="edge20" class="edge">
<title>MATH0034&#45;&gt;MATH0036</title>
<g id="a_edge20"><a xlink:title="required prerequisite">
<path fill="none" stroke="black" d="M1185.49,-233.03C1189.55,-211.36 1191.78,-178.86 1175.75,-157 1156.65,-130.94 1124.32,-116.92 1094.02,-109.39"/>
<polygon fill="black" stroke="black" points="1094.99,-106.02 1084.46,-107.23 1093.45,-112.85 1094.99,-106.02"/>
</a>
</g>
</g>
<!-- MATH0034&#45;&gt;MATH0104 -->
<g id="edge24" class="edge">
<title>MATH0034&#45;&gt;MATH0104</title>
<g id="a_edge24"><a xlink:title="recommended prerequisite">
<path fill="none" stroke="black" stroke-dasharray="5,2" d="M1221.52,-233.06C1233.53,-224.28 1245.14,-213.04 1251.75,-199.5 1274.13,-153.61 1265.42,-92.79 1256.5,-55.64"/>
<polygon fill="black" stroke="black" points="1260,-55.21 1254.14,-46.38 1253.22,-56.94 1260,-55.21"/>
</a>
</g>
</g>
<!-- MATH0034&#45;&gt;MATH0083 -->
<g id="edge29" class="edge">
<title>MATH0034&#45;&gt;MATH0083</title>
<g id="a_edge29"><a xlink:title="required prerequisite">
<path fill="none" stroke="black" d="M1220.13,-233.12C1236.57,-223.39 1255.48,-211.51 1271.75,-199.5 1335.44,-152.5 1403.25,-89.68 1441.58,-52.83"/>
<polygon fill="black" stroke="black" points="1443.9,-55.45 1448.66,-45.99 1439.04,-50.42 1443.9,-55.45"/>
</a>
</g>
</g>
<!-- MATH0029 -->
<g id="node16" class="node">
<title>MATH0029</title>
<g id="a_node16"><a xlink:href="https://www.ucl.ac.uk/mathematical-physical-sciences/sites/mathematical_physical_sciences/files/math0029.pdf" xlink:title="Year 3, term 1">
<polygon fill="white" stroke="#ff4040" stroke-width="5" points="1848.25,-199.5 1595.25,-199.5 1595.25,-157 1848.25,-157 1848.25,-199.5"/>
<text xml:space="preserve" text-anchor="middle" x="1721.75" y="-182.2" font-family="Times,serif" font-size="14.00">MATH0029</text>
<text xml:space="preserve" text-anchor="middle" x="1721.75" y="-164.95" font-family="Times,serif" font-size="14.00">Graph Theory and Combinatorics</text>
</a>
</g>
</g>
<!-- MATH0057&#45;&gt;MATH0029 -->
<g id="edge14" class="edge">
<title>MATH0057&#45;&gt;MATH0029</title>
<g id="a_edge14"><a xlink:title="recommended prerequisite">
<path fill="none" stroke="black" stroke-dasharray="5,2" d="M1721.75,-233.21C1721.75,-226.89 1721.75,-219.87 1721.75,-213.04"/>
<polygon fill="black" stroke="black" points="1725.25,-213.41 1721.75,-203.41 1718.25,-213.41 1725.25,-213.41"/>
</a>
</g>
</g>
<!-- MATH0022 -->
<g id="node14" class="node">
<title>MATH0022</title>
<g id="a_node14"><a xlink:href="https://www.ucl.ac.uk/mathematical-physical-sciences/sites/mathematical_physical_sciences/files/math0022.pdf" xlink:title="Year 3, term 1">
<polygon fill="white" stroke="#ff4040" stroke-width="5" points="534.88,-199.5 420.62,-199.5 420.62,-157 534.88,-157 534.88,-199.5"/>
<text xml:space="preserve" text-anchor="middle" x="477.75" y="-182.2" font-family="Times,serif" font-size="14.00">MATH0022</text>
<text xml:space="preserve" text-anchor="middle" x="477.75" y="-164.95" font-family="Times,serif" font-size="14.00">Galois Theory</text>
</a>
</g>
</g>
<!-- MATH0053&#45;&gt;MATH0022 -->
<g id="edge12" class="edge">
<title>MATH0053&#45;&gt;MATH0022</title>
<g id="a_edge12"><a xlink:title="required prerequisite">
<path fill="none" stroke="black" d="M477.75,-233.21C477.75,-226.89 477.75,-219.87 477.75,-213.04"/>
<polygon fill="black" stroke="black" points="481.25,-213.41 477.75,-203.41 474.25,-213.41 481.25,-213.41"/>
</a>
</g>
</g>
<!-- MATH0021 -->
<g id="node18" class="node">
<title>MATH0021</title>
<g id="a_node18"><a xlink:href="https://www.ucl.ac.uk/mathematical-physical-sciences/sites/mathematical_physical_sciences/files/math0021.pdf" xlink:title="Year 3, term 2">
<polygon fill="white" stroke="#cd3333" stroke-width="5" points="218,-121 53.5,-121 53.5,-78.5 218,-78.5 218,-121"/>
<text xml:space="preserve" text-anchor="middle" x="135.75" y="-103.7" font-family="Times,serif" font-size="14.00">MATH0021</text>
<text xml:space="preserve" text-anchor="middle" x="135.75" y="-86.45" font-family="Times,serif" font-size="14.00">Homological Algebra</text>
</a>
</g>
</g>
<!-- MATH0053&#45;&gt;MATH0021 -->
<g id="edge15" class="edge">
<title>MATH0053&#45;&gt;MATH0021</title>
<g id="a_edge15"><a xlink:title="required prerequisite">
<path fill="none" stroke="black" d="M427.65,-233.05C366.1,-205.15 261.76,-157.86 195.93,-128.02"/>
<polygon fill="black" stroke="black" points="197.63,-124.95 187.08,-124.01 194.74,-131.33 197.63,-124.95"/>
</a>
</g>
</g>
<!-- MATH0108 -->
<g id="node19" class="node">
<title>MATH0108</title>
<g id="a_node19"><a xlink:href="https://www.ucl.ac.uk/mathematical-physical-sciences/sites/mathematical_physical_sciences/files/0108_0.pdf" xlink:title="Year 3, term 2">
<polygon fill="white" stroke="#cd3333" stroke-width="5" points="483.62,-121 235.88,-121 235.88,-78.5 483.62,-78.5 483.62,-121"/>
<text xml:space="preserve" text-anchor="middle" x="359.75" y="-103.7" font-family="Times,serif" font-size="14.00">MATH0108</text>
<text xml:space="preserve" text-anchor="middle" x="359.75" y="-86.45" font-family="Times,serif" font-size="14.00">Commutative Rings and Algebra</text>
</a>
</g>
</g>
<!-- MATH0053&#45;&gt;MATH0108 -->
<g id="edge16" class="edge">
<title>MATH0053&#45;&gt;MATH0108</title>
<g id="a_edge16"><a xlink:title="required prerequisite">
<path fill="none" stroke="black" d="M446.26,-233.01C434.5,-223.52 421.63,-211.84 411.75,-199.5 395.74,-179.49 382.4,-153.81 373.24,-133.65"/>
<polygon fill="black" stroke="black" points="376.56,-132.5 369.32,-124.76 370.15,-135.33 376.56,-132.5"/>
</a>
</g>
</g>
<!-- MATH0053&#45;&gt;MATH0035 -->
<g id="edge18" class="edge">
<title>MATH0053&#45;&gt;MATH0035</title>
<g id="a_edge18"><a xlink:title="required prerequisite">
<path fill="none" stroke="black" d="M505.11,-233.2C517.14,-223.1 531.33,-210.9 543.75,-199.5 563.54,-181.33 565.63,-173.61 586.75,-157 599.32,-147.11 613.73,-137.51 627.31,-129.13"/>
<polygon fill="black" stroke="black" points="628.99,-132.2 635.73,-124.03 625.36,-126.21 628.99,-132.2"/>
</a>
</g>
</g>
<!-- MATH0053&#45;&gt;MATH0036 -->
<g id="edge21" class="edge">
<title>MATH0053&#45;&gt;MATH0036</title>
<g id="a_edge21"><a xlink:title="required prerequisite">
<path fill="none" stroke="black" d="M525.04,-233.13C542.62,-223.79 562.29,-212.17 578.75,-199.5 599.55,-183.5 596.37,-168.92 619.75,-157 648.12,-142.53 837.59,-120.28 945.28,-108.57"/>
<polygon fill="black" stroke="black" points="945.64,-112.05 955.21,-107.5 944.89,-105.09 945.64,-112.05"/>
</a>
</g>
</g>
<!-- MATH0073 -->
<g id="node24" class="node">
<title>MATH0073</title>
<g id="a_node24"><a xlink:href="https://www.ucl.ac.uk/mathematical-physical-sciences/sites/mathematical_physical_sciences/files/math0073.pdf" xlink:title="Year 3 or 4, term 1">
<polygon fill="white" stroke="#ff1493" stroke-width="5" points="179.5,-42.5 0,-42.5 0,0 179.5,0 179.5,-42.5"/>
<text xml:space="preserve" text-anchor="middle" x="89.75" y="-25.2" font-family="Times,serif" font-size="14.00">MATH0073</text>
<text xml:space="preserve" text-anchor="middle" x="89.75" y="-7.95" font-family="Times,serif" font-size="14.00">Representation Theory</text>
</a>
</g>
</g>
<!-- MATH0053&#45;&gt;MATH0073 -->
<g id="edge25" class="edge">
<title>MATH0053&#45;&gt;MATH0073</title>
<g id="a_edge25"><a xlink:title="required prerequisite">
<path fill="none" stroke="black" d="M426.85,-247.76C322.28,-230.17 89.35,-184.56 44.75,-121 30.11,-100.14 43.51,-73.75 59.4,-53.5"/>
<polygon fill="black" stroke="black" points="62.08,-55.75 65.82,-45.83 56.72,-51.25 62.08,-55.75"/>
</a>
</g>
</g>
<!-- MATH0022&#45;&gt;MATH0035 -->
<g id="edge19" class="edge">
<title>MATH0022&#45;&gt;MATH0035</title>
<g id="a_edge19"><a xlink:title="recommended prerequisite">
<path fill="none" stroke="black" stroke-dasharray="5,2" d="M537.22,-154.5C559.38,-146.03 584.75,-136.32 607.77,-127.52"/>
<polygon fill="black" stroke="black" points="609.01,-130.79 617.1,-123.95 606.51,-124.25 609.01,-130.79"/>
</a>
</g>
</g>
<!-- MATH0076 -->
<g id="node27" class="node">
<title>MATH0076</title>
<g id="a_node27"><a xlink:href="https://www.ucl.ac.uk/mathematical-physical-sciences/sites/mathematical_physical_sciences/files/2025-09/math0076.pdf" xlink:title="Year 4, term 1">
<polygon fill="white" stroke="#1c86ee" stroke-width="5" points="393,-42.5 234.5,-42.5 234.5,0 393,0 393,-42.5"/>
<text xml:space="preserve" text-anchor="middle" x="313.75" y="-25.2" font-family="Times,serif" font-size="14.00">MATH0076</text>
<text xml:space="preserve" text-anchor="middle" x="313.75" y="-7.95" font-family="Times,serif" font-size="14.00">Algebraic Geometry</text>
</a>
</g>
</g>
<!-- MATH0022&#45;&gt;MATH0076 -->
<g id="edge32" class="edge">
<title>MATH0022&#45;&gt;MATH0076</title>
<g id="a_edge32"><a xlink:title="required prerequisite">
<path fill="none" stroke="black" d="M489.79,-154.63C499.45,-133.03 508.96,-100.59 492.75,-78.5 481.65,-63.38 444.33,-50.49 406.62,-40.87"/>
<polygon fill="black" stroke="black" points="407.48,-37.48 396.93,-38.48 405.81,-44.27 407.48,-37.48"/>
</a>
</g>
</g>
<!-- MATH0061 -->
<g id="node28" class="node">
<title>MATH0061</title>
<g id="a_node28"><a xlink:href="https://www.ucl.ac.uk/mathematical-physical-sciences/sites/mathematical_physical_sciences/files/math0061_1.pdf" xlink:title="Year 4, term 2">
<polygon fill="white" stroke="#1874cd" stroke-width="5" points="759.12,-42.5 430.38,-42.5 430.38,0 759.12,0 759.12,-42.5"/>
<text xml:space="preserve" text-anchor="middle" x="594.75" y="-25.2" font-family="Times,serif" font-size="14.00">MATH0061</text>
<text xml:space="preserve" text-anchor="middle" x="594.75" y="-7.95" font-family="Times,serif" font-size="14.00">Further Topics in Algebraic Number Theory</text>
</a>
</g>
</g>
<!-- MATH0022&#45;&gt;MATH0061 -->
<g id="edge34" class="edge">
<title>MATH0022&#45;&gt;MATH0061</title>
<g id="a_edge34"><a xlink:title="required prerequisite">
<path fill="none" stroke="black" d="M497.88,-154.68C506.67,-144.56 516.96,-132.38 525.75,-121 542.6,-99.2 560.38,-73.69 573.67,-54.05"/>
<polygon fill="black" stroke="black" points="576.48,-56.16 579.15,-45.91 570.67,-52.25 576.48,-56.16"/>
</a>
</g>
</g>
<!-- MATH0109 -->
<g id="node17" class="node">
<title>MATH0109</title>
<g id="a_node17"><a xlink:href="https://www.ucl.ac.uk/mathematical-physical-sciences/sites/mathematical_physical_sciences/files/math0109.pdf" xlink:title="Year 3, term 1">
<polygon fill="white" stroke="#ff4040" stroke-width="5" points="2062.75,-199.5 1866.75,-199.5 1866.75,-157 2062.75,-157 2062.75,-199.5"/>
<text xml:space="preserve" text-anchor="middle" x="1964.75" y="-182.2" font-family="Times,serif" font-size="14.00">MATH0109</text>
<text xml:space="preserve" text-anchor="middle" x="1964.75" y="-164.95" font-family="Times,serif" font-size="14.00">Theorem Proving in Lean</text>
</a>
</g>
</g>
<!-- MATH0021&#45;&gt;MATH0073 -->
<g id="edge26" class="edge">
<title>MATH0021&#45;&gt;MATH0073</title>
<g id="a_edge26"><a xlink:title="recommended prerequisite">
<path fill="none" stroke="black" stroke-dasharray="5,2" d="M122.2,-76.21C118.12,-69.42 113.55,-61.84 109.17,-54.55"/>
<polygon fill="black" stroke="black" points="112.3,-52.96 104.14,-46.19 106.3,-56.56 112.3,-52.96"/>
</a>
</g>
</g>
<!-- MATH0021&#45;&gt;MATH0076 -->
<g id="edge31" class="edge">
<title>MATH0021&#45;&gt;MATH0076</title>
<g id="a_edge31"><a xlink:title="required prerequisite">
<path fill="none" stroke="black" d="M188.67,-76C208.13,-67.64 230.37,-58.09 250.63,-49.38"/>
<polygon fill="black" stroke="black" points="251.83,-52.67 259.64,-45.51 249.07,-46.24 251.83,-52.67"/>
</a>
</g>
</g>
<!-- MATH0035&#45;&gt;MATH0061 -->
<g id="edge33" class="edge">
<title>MATH0035&#45;&gt;MATH0061</title>
<g id="a_edge33"><a xlink:title="required prerequisite">
<path fill="none" stroke="black" d="M653.3,-76.21C645.26,-68.81 636.2,-60.45 627.64,-52.57"/>
<polygon fill="black" stroke="black" points="630.15,-50.12 620.43,-45.92 625.41,-55.27 630.15,-50.12"/>
</a>
</g>
</g>
<!-- MATH0038 -->
<g id="node22" class="node">
<title>MATH0038</title>
<g id="a_node22"><a xlink:href="https://www.ucl.ac.uk/mathematical-physical-sciences/sites/mathematical_physical_sciences/files/math0038.pdf" xlink:title="Year 3, term 2">
<polygon fill="white" stroke="#cd3333" stroke-width="5" points="1713.12,-121 1528.38,-121 1528.38,-78.5 1713.12,-78.5 1713.12,-121"/>
<text xml:space="preserve" text-anchor="middle" x="1620.75" y="-103.7" font-family="Times,serif" font-size="14.00">MATH0038</text>
<text xml:space="preserve" text-anchor="middle" x="1620.75" y="-86.45" font-family="Times,serif" font-size="14.00">History of Mathematics</text>
</a>
</g>
</g>
</g>
</svg>
