<?xml version="1.0" encoding="UTF-8" standalone="no"?>
<!DOCTYPE svg PUBLIC "-//W3C//DTD SVG 1.1//EN"
 "http://www.w3.org/Graphics/SVG/1.1/DTD/svg11.dtd">
<!-- Generated by graphviz version 12.1.1 (0)
 -->
<!-- Pages: 1 -->
<svg width="2109pt" height="443pt"
 viewBox="0.00 0.00 2108.62 443.00" xmlns="http://www.w3.org/2000/svg" xmlns:xlink="http://www.w3.org/1999/xlink">
<g id="graph0" class="graph" transform="scale(1 1) rotate(0) translate(4 439)">
<polygon fill="white" stroke="none" points="-4,4 -4,-439 2104.62,-439 2104.62,4 -4,4"/>
<!-- MATH0005 -->
<g id="node1" class="node">
<title>MATH0005</title>
<g id="a_node1"><a xlink:href="https://www.ucl.ac.uk/maths/sites/maths/files/math0005.pdf" xlink:title="MATH0005&#10;Algebra 1">
<polygon fill="white" stroke="orange" stroke-width="5" points="1040.75,-435 943.75,-435 943.75,-392.5 1040.75,-392.5 1040.75,-435"/>
<text text-anchor="middle" x="992.25" y="-417.7" font-family="Times,serif" font-size="14.00">MATH0005</text>
<text text-anchor="middle" x="992.25" y="-400.45" font-family="Times,serif" font-size="14.00">Algebra 1</text>
</a>
</g>
</g>
<!-- MATH0006 -->
<g id="node4" class="node">
<title>MATH0006</title>
<g id="a_node4"><a xlink:href="https://www.ucl.ac.uk/maths/sites/maths/files/math0006.pdf" xlink:title="MATH0006&#10;Algebra 2">
<polygon fill="white" stroke="orange" stroke-width="5" points="1040.75,-356.5 943.75,-356.5 943.75,-314 1040.75,-314 1040.75,-356.5"/>
<text text-anchor="middle" x="992.25" y="-339.2" font-family="Times,serif" font-size="14.00">MATH0006</text>
<text text-anchor="middle" x="992.25" y="-321.95" font-family="Times,serif" font-size="14.00">Algebra 2</text>
</a>
</g>
</g>
<!-- MATH0005&#45;&gt;MATH0006 -->
<g id="edge1" class="edge">
<title>MATH0005&#45;&gt;MATH0006</title>
<path fill="none" stroke="black" d="M992.25,-390.21C992.25,-383.89 992.25,-376.87 992.25,-370.04"/>
<polygon fill="black" stroke="black" points="995.75,-370.41 992.25,-360.41 988.75,-370.41 995.75,-370.41"/>
</g>
<!-- MATH0003 -->
<g id="node2" class="node">
<title>MATH0003</title>
<g id="a_node2"><a xlink:href="https://www.ucl.ac.uk/maths/sites/maths/files/math0003.pdf" xlink:title="MATH0003&#10;Analysis 1">
<polygon fill="white" stroke="orange" stroke-width="5" points="629.75,-435 532.75,-435 532.75,-392.5 629.75,-392.5 629.75,-435"/>
<text text-anchor="middle" x="581.25" y="-417.7" font-family="Times,serif" font-size="14.00">MATH0003</text>
<text text-anchor="middle" x="581.25" y="-400.45" font-family="Times,serif" font-size="14.00">Analysis 1</text>
</a>
</g>
</g>
<!-- MATH0004 -->
<g id="node6" class="node">
<title>MATH0004</title>
<g id="a_node6"><a xlink:href="https://www.ucl.ac.uk/maths/sites/maths/files/math0004.pdf" xlink:title="MATH0004&#10;Analysis 2">
<polygon fill="white" stroke="orange" stroke-width="5" points="667.75,-356.5 570.75,-356.5 570.75,-314 667.75,-314 667.75,-356.5"/>
<text text-anchor="middle" x="619.25" y="-339.2" font-family="Times,serif" font-size="14.00">MATH0004</text>
<text text-anchor="middle" x="619.25" y="-321.95" font-family="Times,serif" font-size="14.00">Analysis 2</text>
</a>
</g>
</g>
<!-- MATH0003&#45;&gt;MATH0004 -->
<g id="edge3" class="edge">
<title>MATH0003&#45;&gt;MATH0004</title>
<path fill="none" stroke="black" d="M592.45,-390.21C595.74,-383.58 599.41,-376.18 602.96,-369.04"/>
<polygon fill="black" stroke="black" points="606.02,-370.76 607.33,-360.25 599.75,-367.65 606.02,-370.76"/>
</g>
<!-- MATH0013 -->
<g id="node7" class="node">
<title>MATH0013</title>
<g id="a_node7"><a xlink:href="https://www.ucl.ac.uk/maths/sites/maths/files/math0013.pdf" xlink:title="MATH0013&#10;Analysis 3 &#45; Complex Analysis">
<polygon fill="white" stroke="#00cd00" stroke-width="5" points="656.38,-278 428.12,-278 428.12,-235.5 656.38,-235.5 656.38,-278"/>
<text text-anchor="middle" x="542.25" y="-260.7" font-family="Times,serif" font-size="14.00">MATH0013</text>
<text text-anchor="middle" x="542.25" y="-243.45" font-family="Times,serif" font-size="14.00">Analysis 3 &#45; Complex Analysis</text>
</a>
</g>
</g>
<!-- MATH0003&#45;&gt;MATH0013 -->
<g id="edge4" class="edge">
<title>MATH0003&#45;&gt;MATH0013</title>
<path fill="none" stroke="black" d="M572.28,-390.01C568.51,-379.87 564.3,-367.7 561.25,-356.5 555.44,-335.16 550.73,-310.75 547.45,-291.54"/>
<polygon fill="black" stroke="black" points="550.92,-291.12 545.84,-281.82 544.02,-292.26 550.92,-291.12"/>
</g>
<!-- MATH0010 -->
<g id="node3" class="node">
<title>MATH0010</title>
<g id="a_node3"><a xlink:href="https://www.ucl.ac.uk/maths/sites/maths/files/math0010.pdf" xlink:title="MATH0010&#10;Mathematical Methods 1">
<polygon fill="white" stroke="orange" stroke-width="5" points="1887.5,-435 1693,-435 1693,-392.5 1887.5,-392.5 1887.5,-435"/>
<text text-anchor="middle" x="1790.25" y="-417.7" font-family="Times,serif" font-size="14.00">MATH0010</text>
<text text-anchor="middle" x="1790.25" y="-400.45" font-family="Times,serif" font-size="14.00">Mathematical Methods 1</text>
</a>
</g>
</g>
<!-- MATH0011 -->
<g id="node5" class="node">
<title>MATH0011</title>
<g id="a_node5"><a xlink:href="https://www.ucl.ac.uk/maths/sites/maths/files/math0011_syllabus.pdf" xlink:title="MATH0011&#10;Mathematical Methods 2">
<polygon fill="white" stroke="orange" stroke-width="5" points="1887.5,-356.5 1693,-356.5 1693,-314 1887.5,-314 1887.5,-356.5"/>
<text text-anchor="middle" x="1790.25" y="-339.2" font-family="Times,serif" font-size="14.00">MATH0011</text>
<text text-anchor="middle" x="1790.25" y="-321.95" font-family="Times,serif" font-size="14.00">Mathematical Methods 2</text>
</a>
</g>
</g>
<!-- MATH0010&#45;&gt;MATH0011 -->
<g id="edge2" class="edge">
<title>MATH0010&#45;&gt;MATH0011</title>
<path fill="none" stroke="black" d="M1790.25,-390.21C1790.25,-383.89 1790.25,-376.87 1790.25,-370.04"/>
<polygon fill="black" stroke="black" points="1793.75,-370.41 1790.25,-360.41 1786.75,-370.41 1793.75,-370.41"/>
</g>
<!-- MATH0014 -->
<g id="node8" class="node">
<title>MATH0014</title>
<g id="a_node8"><a xlink:href="https://www.ucl.ac.uk/maths/sites/maths/files/math0014.pdf" xlink:title="MATH0014&#10;Algebra 3: Further Linear Algebra">
<polygon fill="white" stroke="#00cd00" stroke-width="5" points="410.12,-278 150.38,-278 150.38,-235.5 410.12,-235.5 410.12,-278"/>
<text text-anchor="middle" x="280.25" y="-260.7" font-family="Times,serif" font-size="14.00">MATH0014</text>
<text text-anchor="middle" x="280.25" y="-243.45" font-family="Times,serif" font-size="14.00">Algebra 3: Further Linear Algebra</text>
</a>
</g>
</g>
<!-- MATH0006&#45;&gt;MATH0014 -->
<g id="edge6" class="edge">
<title>MATH0006&#45;&gt;MATH0014</title>
<path fill="none" stroke="black" d="M941.57,-330.08C843.46,-321.83 620.45,-302.22 423.72,-278.52"/>
<polygon fill="black" stroke="black" points="424.14,-275.05 413.8,-277.32 423.3,-282 424.14,-275.05"/>
</g>
<!-- MATH0034 -->
<g id="node9" class="node">
<title>MATH0034</title>
<g id="a_node9"><a xlink:href="https://www.ucl.ac.uk/maths/sites/maths/files/math0034.pdf" xlink:title="MATH0034&#10;Number Theory">
<polygon fill="white" stroke="cadetblue" stroke-width="5" points="933.5,-278 805,-278 805,-235.5 933.5,-235.5 933.5,-278"/>
<text text-anchor="middle" x="869.25" y="-260.7" font-family="Times,serif" font-size="14.00">MATH0034</text>
<text text-anchor="middle" x="869.25" y="-243.45" font-family="Times,serif" font-size="14.00">Number Theory</text>
</a>
</g>
</g>
<!-- MATH0006&#45;&gt;MATH0034 -->
<g id="edge7" class="edge">
<title>MATH0006&#45;&gt;MATH0034</title>
<path fill="none" stroke="black" d="M955.68,-311.5C942.91,-303.57 928.43,-294.55 915.01,-286.21"/>
<polygon fill="black" stroke="black" points="917.09,-283.38 906.75,-281.08 913.4,-289.33 917.09,-283.38"/>
</g>
<!-- MATH0053 -->
<g id="node11" class="node">
<title>MATH0053</title>
<g id="a_node11"><a xlink:href="https://www.ucl.ac.uk/maths/sites/maths/files/math0053.pdf" xlink:title="MATH0053&#10;Algebra 4">
<polygon fill="white" stroke="cadetblue" stroke-width="5" points="1163.75,-278 1066.75,-278 1066.75,-235.5 1163.75,-235.5 1163.75,-278"/>
<text text-anchor="middle" x="1115.25" y="-260.7" font-family="Times,serif" font-size="14.00">MATH0053</text>
<text text-anchor="middle" x="1115.25" y="-243.45" font-family="Times,serif" font-size="14.00">Algebra 4</text>
</a>
</g>
</g>
<!-- MATH0006&#45;&gt;MATH0053 -->
<g id="edge9" class="edge">
<title>MATH0006&#45;&gt;MATH0053</title>
<path fill="none" stroke="black" d="M1028.82,-311.5C1041.59,-303.57 1056.07,-294.55 1069.49,-286.21"/>
<polygon fill="black" stroke="black" points="1071.1,-289.33 1077.75,-281.08 1067.41,-283.38 1071.1,-289.33"/>
</g>
<!-- MATH0037 -->
<g id="node20" class="node">
<title>MATH0037</title>
<g id="a_node20"><a xlink:href="https://www.ucl.ac.uk/maths/sites/maths/files/math0037.pdf" xlink:title="MATH0037&#10;Logic">
<polygon fill="white" stroke="#ff4040" stroke-width="5" points="1683.75,-121 1586.75,-121 1586.75,-78.5 1683.75,-78.5 1683.75,-121"/>
<text text-anchor="middle" x="1635.25" y="-103.7" font-family="Times,serif" font-size="14.00">MATH0037</text>
<text text-anchor="middle" x="1635.25" y="-86.45" font-family="Times,serif" font-size="14.00">Logic</text>
</a>
</g>
</g>
<!-- MATH0006&#45;&gt;MATH0037 -->
<g id="edge21" class="edge">
<title>MATH0006&#45;&gt;MATH0037</title>
<path fill="none" stroke="black" d="M1042.86,-319.48C1079.32,-308.61 1129.57,-293.15 1173.25,-278 1318.17,-227.74 1485.69,-161.36 1573.77,-125.8"/>
<polygon fill="black" stroke="black" points="1575.01,-129.08 1582.97,-122.08 1572.39,-122.59 1575.01,-129.08"/>
</g>
<!-- MATH0057 -->
<g id="node12" class="node">
<title>MATH0057</title>
<g id="a_node12"><a xlink:href="https://www.ucl.ac.uk/maths/sites/maths/files/math0057.pdf" xlink:title="MATH0057&#10;Probability and Statistics">
<polygon fill="white" stroke="cadetblue" stroke-width="5" points="1889,-278 1691.5,-278 1691.5,-235.5 1889,-235.5 1889,-278"/>
<text text-anchor="middle" x="1790.25" y="-260.7" font-family="Times,serif" font-size="14.00">MATH0057</text>
<text text-anchor="middle" x="1790.25" y="-243.45" font-family="Times,serif" font-size="14.00">Probability and Statistics</text>
</a>
</g>
</g>
<!-- MATH0011&#45;&gt;MATH0057 -->
<g id="edge10" class="edge">
<title>MATH0011&#45;&gt;MATH0057</title>
<path fill="none" stroke="black" d="M1790.25,-311.71C1790.25,-305.39 1790.25,-298.37 1790.25,-291.54"/>
<polygon fill="black" stroke="black" points="1793.75,-291.91 1790.25,-281.91 1786.75,-291.91 1793.75,-291.91"/>
</g>
<!-- MATH0004&#45;&gt;MATH0013 -->
<g id="edge5" class="edge">
<title>MATH0004&#45;&gt;MATH0013</title>
<path fill="none" stroke="black" stroke-dasharray="5,2" d="M596.56,-311.71C589.11,-304.31 580.7,-295.95 572.77,-288.07"/>
<polygon fill="black" stroke="black" points="575.67,-286.02 566.11,-281.46 570.74,-290.99 575.67,-286.02"/>
</g>
<!-- MATH0051 -->
<g id="node10" class="node">
<title>MATH0051</title>
<g id="a_node10"><a xlink:href="https://www.ucl.ac.uk/maths/sites/maths/files/math0051.pdf" xlink:title="MATH0051&#10;Analysis 4">
<polygon fill="white" stroke="cadetblue" stroke-width="5" points="771.75,-278 674.75,-278 674.75,-235.5 771.75,-235.5 771.75,-278"/>
<text text-anchor="middle" x="723.25" y="-260.7" font-family="Times,serif" font-size="14.00">MATH0051</text>
<text text-anchor="middle" x="723.25" y="-243.45" font-family="Times,serif" font-size="14.00">Analysis 4</text>
</a>
</g>
</g>
<!-- MATH0004&#45;&gt;MATH0051 -->
<g id="edge8" class="edge">
<title>MATH0004&#45;&gt;MATH0051</title>
<path fill="none" stroke="black" d="M650.17,-311.5C660.65,-303.8 672.5,-295.08 683.57,-286.94"/>
<polygon fill="black" stroke="black" points="685.43,-289.92 691.41,-281.17 681.28,-284.28 685.43,-289.92"/>
</g>
<!-- MATH0104 -->
<g id="node23" class="node">
<title>MATH0104</title>
<g id="a_node23"><a xlink:href="https://www.ucl.ac.uk/maths/sites/maths/files/math0104_2.pdf" xlink:title="MATH0104&#10;Modular Forms">
<polygon fill="white" stroke="deeppink" stroke-width="5" points="533,-199.5 407.5,-199.5 407.5,-157 533,-157 533,-199.5"/>
<text text-anchor="middle" x="470.25" y="-182.2" font-family="Times,serif" font-size="14.00">MATH0104</text>
<text text-anchor="middle" x="470.25" y="-164.95" font-family="Times,serif" font-size="14.00">Modular Forms</text>
</a>
</g>
</g>
<!-- MATH0013&#45;&gt;MATH0104 -->
<g id="edge22" class="edge">
<title>MATH0013&#45;&gt;MATH0104</title>
<path fill="none" stroke="black" d="M521.04,-233.21C514.21,-225.96 506.53,-217.8 499.25,-210.06"/>
<polygon fill="black" stroke="black" points="502,-207.88 492.6,-202.99 496.9,-212.67 502,-207.88"/>
</g>
<!-- MATH0083 -->
<g id="node24" class="node">
<title>MATH0083</title>
<g id="a_node24"><a xlink:href="https://www.ucl.ac.uk/maths/sites/maths/files/math0083.pdf" xlink:title="MATH0083&#10;Prime Numbers and their Distribution">
<polygon fill="white" stroke="deeppink" stroke-width="5" points="841.12,-199.5 551.38,-199.5 551.38,-157 841.12,-157 841.12,-199.5"/>
<text text-anchor="middle" x="696.25" y="-182.2" font-family="Times,serif" font-size="14.00">MATH0083</text>
<text text-anchor="middle" x="696.25" y="-164.95" font-family="Times,serif" font-size="14.00">Prime Numbers and their Distribution</text>
</a>
</g>
</g>
<!-- MATH0013&#45;&gt;MATH0083 -->
<g id="edge25" class="edge">
<title>MATH0013&#45;&gt;MATH0083</title>
<path fill="none" stroke="black" d="M588.04,-233C604.57,-224.79 623.4,-215.44 640.68,-206.86"/>
<polygon fill="black" stroke="black" points="641.88,-210.16 649.28,-202.58 638.77,-203.9 641.88,-210.16"/>
</g>
<!-- MATH0023 -->
<g id="node15" class="node">
<title>MATH0023</title>
<g id="a_node15"><a xlink:href="https://www.ucl.ac.uk/maths/sites/maths/files/math0023_2.pdf" xlink:title="MATH0023&#10;Algebraic Topology">
<polygon fill="white" stroke="#ff4040" stroke-width="5" points="152.5,-199.5 0,-199.5 0,-157 152.5,-157 152.5,-199.5"/>
<text text-anchor="middle" x="76.25" y="-182.2" font-family="Times,serif" font-size="14.00">MATH0023</text>
<text text-anchor="middle" x="76.25" y="-164.95" font-family="Times,serif" font-size="14.00">Algebraic Topology</text>
</a>
</g>
</g>
<!-- MATH0014&#45;&gt;MATH0023 -->
<g id="edge13" class="edge">
<title>MATH0014&#45;&gt;MATH0023</title>
<path fill="none" stroke="black" d="M219.6,-233C196.88,-224.49 170.88,-214.74 147.31,-205.9"/>
<polygon fill="black" stroke="black" points="148.68,-202.67 138.09,-202.44 146.22,-209.23 148.68,-202.67"/>
</g>
<!-- MATH0014&#45;&gt;MATH0104 -->
<g id="edge23" class="edge">
<title>MATH0014&#45;&gt;MATH0104</title>
<path fill="none" stroke="black" d="M336.74,-233C357.71,-224.56 381.68,-214.91 403.47,-206.14"/>
<polygon fill="black" stroke="black" points="404.6,-209.45 412.57,-202.47 401.99,-202.96 404.6,-209.45"/>
</g>
<!-- MATH0075 -->
<g id="node25" class="node">
<title>MATH0075</title>
<g id="a_node25"><a xlink:href="https://www.ucl.ac.uk/maths/sites/maths/files/math0075_2.pdf" xlink:title="MATH0075&#10;Lie Groups and Lie Algebras">
<polygon fill="white" stroke="deeppink" stroke-width="5" points="389.5,-199.5 171,-199.5 171,-157 389.5,-157 389.5,-199.5"/>
<text text-anchor="middle" x="280.25" y="-182.2" font-family="Times,serif" font-size="14.00">MATH0075</text>
<text text-anchor="middle" x="280.25" y="-164.95" font-family="Times,serif" font-size="14.00">Lie Groups and Lie Algebras</text>
</a>
</g>
</g>
<!-- MATH0014&#45;&gt;MATH0075 -->
<g id="edge28" class="edge">
<title>MATH0014&#45;&gt;MATH0075</title>
<path fill="none" stroke="black" d="M280.25,-233.21C280.25,-226.89 280.25,-219.87 280.25,-213.04"/>
<polygon fill="black" stroke="black" points="283.75,-213.41 280.25,-203.41 276.75,-213.41 283.75,-213.41"/>
</g>
<!-- MATH0036 -->
<g id="node16" class="node">
<title>MATH0036</title>
<g id="a_node16"><a xlink:href="https://www.ucl.ac.uk/maths/sites/maths/files/math0036.pdf" xlink:title="MATH0036&#10;Elliptic Curves">
<polygon fill="white" stroke="#ff4040" stroke-width="5" points="789.12,-121 667.38,-121 667.38,-78.5 789.12,-78.5 789.12,-121"/>
<text text-anchor="middle" x="728.25" y="-103.7" font-family="Times,serif" font-size="14.00">MATH0036</text>
<text text-anchor="middle" x="728.25" y="-86.45" font-family="Times,serif" font-size="14.00">Elliptic Curves</text>
</a>
</g>
</g>
<!-- MATH0034&#45;&gt;MATH0036 -->
<g id="edge14" class="edge">
<title>MATH0034&#45;&gt;MATH0036</title>
<path fill="none" stroke="black" d="M870.51,-233.37C870.55,-211.65 867.37,-178.85 850.25,-157 837.87,-141.19 820.02,-129.66 801.78,-121.31"/>
<polygon fill="black" stroke="black" points="803.3,-118.15 792.73,-117.46 800.57,-124.59 803.3,-118.15"/>
</g>
<!-- MATH0035 -->
<g id="node18" class="node">
<title>MATH0035</title>
<g id="a_node18"><a xlink:href="https://www.ucl.ac.uk/maths/sites/maths/files/math0035.pdf" xlink:title="MATH0035&#10;Algebraic Number Theory">
<polygon fill="white" stroke="#ff4040" stroke-width="5" points="1045.5,-121 845,-121 845,-78.5 1045.5,-78.5 1045.5,-121"/>
<text text-anchor="middle" x="945.25" y="-103.7" font-family="Times,serif" font-size="14.00">MATH0035</text>
<text text-anchor="middle" x="945.25" y="-86.45" font-family="Times,serif" font-size="14.00">Algebraic Number Theory</text>
</a>
</g>
</g>
<!-- MATH0034&#45;&gt;MATH0035 -->
<g id="edge17" class="edge">
<title>MATH0034&#45;&gt;MATH0035</title>
<path fill="none" stroke="black" d="M880.3,-233.21C893.19,-206.92 914.6,-163.26 929.29,-133.29"/>
<polygon fill="black" stroke="black" points="932.26,-135.19 933.52,-124.67 925.97,-132.11 932.26,-135.19"/>
</g>
<!-- MATH0034&#45;&gt;MATH0104 -->
<g id="edge24" class="edge">
<title>MATH0034&#45;&gt;MATH0104</title>
<path fill="none" stroke="black" stroke-dasharray="5,2" d="M802.78,-240.06C795.2,-238.44 787.57,-236.88 780.25,-235.5 678.73,-216.3 648.86,-221.62 546.46,-200.3"/>
<polygon fill="black" stroke="black" points="547.3,-196.9 536.79,-198.25 545.84,-203.75 547.3,-196.9"/>
</g>
<!-- MATH0034&#45;&gt;MATH0083 -->
<g id="edge27" class="edge">
<title>MATH0034&#45;&gt;MATH0083</title>
<path fill="none" stroke="black" d="M817.81,-233C798.99,-224.68 777.49,-215.17 757.86,-206.5"/>
<polygon fill="black" stroke="black" points="759.43,-203.36 748.87,-202.52 756.6,-209.77 759.43,-203.36"/>
</g>
<!-- MATH0051&#45;&gt;MATH0083 -->
<g id="edge26" class="edge">
<title>MATH0051&#45;&gt;MATH0083</title>
<path fill="none" stroke="black" d="M715.3,-233.21C713.01,-226.73 710.46,-219.53 708,-212.54"/>
<polygon fill="black" stroke="black" points="711.37,-211.58 704.75,-203.32 704.77,-213.91 711.37,-211.58"/>
</g>
<!-- MATH0022 -->
<g id="node13" class="node">
<title>MATH0022</title>
<g id="a_node13"><a xlink:href="https://www.ucl.ac.uk/maths/sites/maths/files/math0022.pdf" xlink:title="MATH0022&#10;Galois Theory">
<polygon fill="white" stroke="#ff4040" stroke-width="5" points="1087.38,-199.5 973.12,-199.5 973.12,-157 1087.38,-157 1087.38,-199.5"/>
<text text-anchor="middle" x="1030.25" y="-182.2" font-family="Times,serif" font-size="14.00">MATH0022</text>
<text text-anchor="middle" x="1030.25" y="-164.95" font-family="Times,serif" font-size="14.00">Galois Theory</text>
</a>
</g>
</g>
<!-- MATH0053&#45;&gt;MATH0022 -->
<g id="edge11" class="edge">
<title>MATH0053&#45;&gt;MATH0022</title>
<path fill="none" stroke="black" d="M1090.21,-233.21C1081.98,-225.81 1072.7,-217.45 1063.94,-209.57"/>
<polygon fill="black" stroke="black" points="1066.31,-206.99 1056.53,-202.9 1061.62,-212.2 1066.31,-206.99"/>
</g>
<!-- MATH0053&#45;&gt;MATH0036 -->
<g id="edge15" class="edge">
<title>MATH0053&#45;&gt;MATH0036</title>
<path fill="none" stroke="black" d="M1064.52,-238C1035.03,-227.4 997.28,-213.34 964.25,-199.5 923.08,-182.25 914.3,-174.53 873.25,-157 849.56,-146.89 823.39,-136.5 799.88,-127.45"/>
<polygon fill="black" stroke="black" points="801.29,-124.24 790.7,-123.93 798.79,-130.78 801.29,-124.24"/>
</g>
<!-- MATH0021 -->
<g id="node17" class="node">
<title>MATH0021</title>
<g id="a_node17"><a xlink:href="https://www.ucl.ac.uk/maths/sites/maths/files/math0021.pdf" xlink:title="MATH0021&#10;Homological Algebra">
<polygon fill="white" stroke="#ff4040" stroke-width="5" points="1265.5,-121 1101,-121 1101,-78.5 1265.5,-78.5 1265.5,-121"/>
<text text-anchor="middle" x="1183.25" y="-103.7" font-family="Times,serif" font-size="14.00">MATH0021</text>
<text text-anchor="middle" x="1183.25" y="-86.45" font-family="Times,serif" font-size="14.00">Homological Algebra</text>
</a>
</g>
</g>
<!-- MATH0053&#45;&gt;MATH0021 -->
<g id="edge16" class="edge">
<title>MATH0053&#45;&gt;MATH0021</title>
<path fill="none" stroke="black" d="M1125.14,-233.21C1136.62,-207.04 1155.66,-163.64 1168.8,-133.68"/>
<polygon fill="black" stroke="black" points="1171.93,-135.27 1172.74,-124.7 1165.52,-132.45 1171.93,-135.27"/>
</g>
<!-- MATH0053&#45;&gt;MATH0035 -->
<g id="edge18" class="edge">
<title>MATH0053&#45;&gt;MATH0035</title>
<path fill="none" stroke="black" d="M1116.86,-233.09C1117.17,-211.15 1114.18,-178.19 1096.25,-157 1085.83,-144.68 1072.43,-135.05 1057.94,-127.54"/>
<polygon fill="black" stroke="black" points="1059.65,-124.47 1049.12,-123.32 1056.63,-130.79 1059.65,-124.47"/>
</g>
<!-- MATH0108 -->
<g id="node19" class="node">
<title>MATH0108</title>
<g id="a_node19"><a xlink:href="https://www.ucl.ac.uk/maths/sites/maths/files/0108_0.pdf" xlink:title="MATH0108&#10;Commutative Rings and Algebra">
<polygon fill="white" stroke="#ff4040" stroke-width="5" points="1569.12,-121 1321.38,-121 1321.38,-78.5 1569.12,-78.5 1569.12,-121"/>
<text text-anchor="middle" x="1445.25" y="-103.7" font-family="Times,serif" font-size="14.00">MATH0108</text>
<text text-anchor="middle" x="1445.25" y="-86.45" font-family="Times,serif" font-size="14.00">Commutative Rings and Algebra</text>
</a>
</g>
</g>
<!-- MATH0053&#45;&gt;MATH0108 -->
<g id="edge20" class="edge">
<title>MATH0053&#45;&gt;MATH0108</title>
<path fill="none" stroke="black" d="M1165.88,-245.81C1205.62,-236.87 1261.65,-221.7 1307.25,-199.5 1345.21,-181.02 1383.91,-152.29 1410.63,-130.57"/>
<polygon fill="black" stroke="black" points="1412.56,-133.52 1418.05,-124.46 1408.1,-128.12 1412.56,-133.52"/>
</g>
<!-- MATH0073 -->
<g id="node26" class="node">
<title>MATH0073</title>
<g id="a_node26"><a xlink:href="https://www.ucl.ac.uk/maths/sites/maths/files/math0073.pdf" xlink:title="MATH0073&#10;Representation Theory">
<polygon fill="white" stroke="deeppink" stroke-width="5" points="1379,-42.5 1199.5,-42.5 1199.5,0 1379,0 1379,-42.5"/>
<text text-anchor="middle" x="1289.25" y="-25.2" font-family="Times,serif" font-size="14.00">MATH0073</text>
<text text-anchor="middle" x="1289.25" y="-7.95" font-family="Times,serif" font-size="14.00">Representation Theory</text>
</a>
</g>
</g>
<!-- MATH0053&#45;&gt;MATH0073 -->
<g id="edge29" class="edge">
<title>MATH0053&#45;&gt;MATH0073</title>
<path fill="none" stroke="black" d="M1155.77,-233.13C1193.03,-210.04 1246.55,-170.6 1274.25,-121 1285.22,-101.35 1288.93,-76.24 1289.91,-56.26"/>
<polygon fill="black" stroke="black" points="1293.4,-56.47 1290.17,-46.38 1286.41,-56.29 1293.4,-56.47"/>
</g>
<!-- MATH0029 -->
<g id="node14" class="node">
<title>MATH0029</title>
<g id="a_node14"><a xlink:href="https://www.ucl.ac.uk/maths/sites/maths/files/math0029.pdf" xlink:title="MATH0029&#10;Graph Theory and Combinatorics">
<polygon fill="white" stroke="#ff4040" stroke-width="5" points="1916.75,-199.5 1663.75,-199.5 1663.75,-157 1916.75,-157 1916.75,-199.5"/>
<text text-anchor="middle" x="1790.25" y="-182.2" font-family="Times,serif" font-size="14.00">MATH0029</text>
<text text-anchor="middle" x="1790.25" y="-164.95" font-family="Times,serif" font-size="14.00">Graph Theory and Combinatorics</text>
</a>
</g>
</g>
<!-- MATH0057&#45;&gt;MATH0029 -->
<g id="edge12" class="edge">
<title>MATH0057&#45;&gt;MATH0029</title>
<path fill="none" stroke="black" stroke-dasharray="5,2" d="M1790.25,-233.21C1790.25,-226.89 1790.25,-219.87 1790.25,-213.04"/>
<polygon fill="black" stroke="black" points="1793.75,-213.41 1790.25,-203.41 1786.75,-213.41 1793.75,-213.41"/>
</g>
<!-- MATH0022&#45;&gt;MATH0035 -->
<g id="edge19" class="edge">
<title>MATH0022&#45;&gt;MATH0035</title>
<path fill="none" stroke="black" stroke-dasharray="5,2" d="M1005.21,-154.71C996.98,-147.31 987.7,-138.95 978.94,-131.07"/>
<polygon fill="black" stroke="black" points="981.31,-128.49 971.53,-124.4 976.62,-133.7 981.31,-128.49"/>
</g>
<!-- MATH0076 -->
<g id="node27" class="node">
<title>MATH0076</title>
<g id="a_node27"><a xlink:href="https://www.ucl.ac.uk/maths/sites/maths/files/math0076_3.pdf" xlink:title="MATH0076&#10;Algebraic Geometry">
<polygon fill="white" stroke="midnightblue" stroke-width="5" points="1178.5,-42.5 1020,-42.5 1020,0 1178.5,0 1178.5,-42.5"/>
<text text-anchor="middle" x="1099.25" y="-25.2" font-family="Times,serif" font-size="14.00">MATH0076</text>
<text text-anchor="middle" x="1099.25" y="-7.95" font-family="Times,serif" font-size="14.00">Algebraic Geometry</text>
</a>
</g>
</g>
<!-- MATH0022&#45;&gt;MATH0076 -->
<g id="edge32" class="edge">
<title>MATH0022&#45;&gt;MATH0076</title>
<path fill="none" stroke="black" d="M1040.28,-154.71C1051.93,-128.54 1071.26,-85.14 1084.59,-55.18"/>
<polygon fill="black" stroke="black" points="1087.72,-56.76 1088.59,-46.2 1081.32,-53.91 1087.72,-56.76"/>
</g>
<!-- MATH0061 -->
<g id="node28" class="node">
<title>MATH0061</title>
<g id="a_node28"><a xlink:href="https://www.ucl.ac.uk/maths/sites/maths/files/math0061_syllabus_0.pdf" xlink:title="MATH0061&#10;Further Topics in Algebraic Number Theory">
<polygon fill="white" stroke="midnightblue" stroke-width="5" points="994.62,-42.5 665.88,-42.5 665.88,0 994.62,0 994.62,-42.5"/>
<text text-anchor="middle" x="830.25" y="-25.2" font-family="Times,serif" font-size="14.00">MATH0061</text>
<text text-anchor="middle" x="830.25" y="-7.95" font-family="Times,serif" font-size="14.00">Further Topics in Algebraic Number Theory</text>
</a>
</g>
</g>
<!-- MATH0022&#45;&gt;MATH0061 -->
<g id="edge34" class="edge">
<title>MATH0022&#45;&gt;MATH0061</title>
<path fill="none" stroke="black" d="M970.79,-163.65C917,-150.77 844.92,-131.83 836.25,-121 821.92,-103.09 820.91,-76.99 823.22,-56.13"/>
<polygon fill="black" stroke="black" points="826.67,-56.75 824.62,-46.35 819.74,-55.75 826.67,-56.75"/>
</g>
<!-- MATH0021&#45;&gt;MATH0073 -->
<g id="edge30" class="edge">
<title>MATH0021&#45;&gt;MATH0073</title>
<path fill="none" stroke="black" stroke-dasharray="5,2" d="M1214.77,-76C1225.45,-68.3 1237.53,-59.58 1248.8,-51.44"/>
<polygon fill="black" stroke="black" points="1250.75,-54.35 1256.81,-45.66 1246.65,-48.68 1250.75,-54.35"/>
</g>
<!-- MATH0021&#45;&gt;MATH0076 -->
<g id="edge31" class="edge">
<title>MATH0021&#45;&gt;MATH0076</title>
<path fill="none" stroke="black" d="M1158.5,-76.21C1150.37,-68.81 1141.2,-60.45 1132.54,-52.57"/>
<polygon fill="black" stroke="black" points="1134.98,-50.06 1125.23,-45.91 1130.27,-55.23 1134.98,-50.06"/>
</g>
<!-- MATH0035&#45;&gt;MATH0061 -->
<g id="edge33" class="edge">
<title>MATH0035&#45;&gt;MATH0061</title>
<path fill="none" stroke="black" d="M911.06,-76C899.24,-68.14 885.84,-59.23 873.4,-50.95"/>
<polygon fill="black" stroke="black" points="875.64,-48.24 865.37,-45.61 871.76,-54.07 875.64,-48.24"/>
</g>
<!-- MATH0109 -->
<g id="node21" class="node">
<title>MATH0109</title>
<g id="a_node21"><a xlink:href="https://www.ucl.ac.uk/maths/sites/maths/files/math0019_2_0.pdf" xlink:title="MATH0109&#10;Theorem Proving in Lean">
<polygon fill="white" stroke="#ff4040" stroke-width="5" points="1898.25,-121 1702.25,-121 1702.25,-78.5 1898.25,-78.5 1898.25,-121"/>
<text text-anchor="middle" x="1800.25" y="-103.7" font-family="Times,serif" font-size="14.00">MATH0109</text>
<text text-anchor="middle" x="1800.25" y="-86.45" font-family="Times,serif" font-size="14.00">Theorem Proving in Lean</text>
</a>
</g>
</g>
<!-- MATH0038 -->
<g id="node22" class="node">
<title>MATH0038</title>
<g id="a_node22"><a xlink:href="https://www.ucl.ac.uk/maths/sites/maths/files/math0038.pdf" xlink:title="MATH0038&#10;History of Mathematics">
<polygon fill="white" stroke="#ff4040" stroke-width="5" points="2100.62,-121 1915.88,-121 1915.88,-78.5 2100.62,-78.5 2100.62,-121"/>
<text text-anchor="middle" x="2008.25" y="-103.7" font-family="Times,serif" font-size="14.00">MATH0038</text>
<text text-anchor="middle" x="2008.25" y="-86.45" font-family="Times,serif" font-size="14.00">History of Mathematics</text>
</a>
</g>
</g>
</g>
</svg>
