<?xml version="1.0" encoding="UTF-8" standalone="no"?>
<!DOCTYPE svg PUBLIC "-//W3C//DTD SVG 1.1//EN"
 "http://www.w3.org/Graphics/SVG/1.1/DTD/svg11.dtd">
<!-- Generated by graphviz version 12.2.1 (0)
 -->
<!-- Pages: 1 -->
<svg width="2221pt" height="443pt"
 viewBox="0.00 0.00 2220.50 443.00" xmlns="http://www.w3.org/2000/svg" xmlns:xlink="http://www.w3.org/1999/xlink">
<g id="graph0" class="graph" transform="scale(1 1) rotate(0) translate(4 439)">
<polygon fill="white" stroke="none" points="-4,4 -4,-439 2216.5,-439 2216.5,4 -4,4"/>
<!-- MATH0003 -->
<g id="node1" class="node">
<title>MATH0003</title>
<g id="a_node1"><a xlink:href="https://www.ucl.ac.uk/maths/sites/maths/files/math0003.pdf" xlink:title="Year 1, term 1">
<polygon fill="white" stroke="#ffb90f" stroke-width="5" points="240,-435 143,-435 143,-392.5 240,-392.5 240,-435"/>
<text text-anchor="middle" x="191.5" y="-417.7" font-family="Times,serif" font-size="14.00">MATH0003</text>
<text text-anchor="middle" x="191.5" y="-400.45" font-family="Times,serif" font-size="14.00">Analysis 1</text>
</a>
</g>
</g>
<!-- MATH0004 -->
<g id="node5" class="node">
<title>MATH0004</title>
<g id="a_node5"><a xlink:href="https://www.ucl.ac.uk/maths/sites/maths/files/math0004.pdf" xlink:title="Year 1, term 2">
<polygon fill="white" stroke="#cd950c" stroke-width="5" points="201,-356.5 104,-356.5 104,-314 201,-314 201,-356.5"/>
<text text-anchor="middle" x="152.5" y="-339.2" font-family="Times,serif" font-size="14.00">MATH0004</text>
<text text-anchor="middle" x="152.5" y="-321.95" font-family="Times,serif" font-size="14.00">Analysis 2</text>
</a>
</g>
</g>
<!-- MATH0003&#45;&gt;MATH0004 -->
<g id="edge2" class="edge">
<title>MATH0003&#45;&gt;MATH0004</title>
<path fill="none" stroke="black" d="M180.01,-390.21C176.63,-383.58 172.86,-376.18 169.22,-369.04"/>
<polygon fill="black" stroke="black" points="172.39,-367.56 164.73,-360.24 166.15,-370.74 172.39,-367.56"/>
</g>
<!-- MATH0013 -->
<g id="node8" class="node">
<title>MATH0013</title>
<g id="a_node8"><a xlink:href="https://www.ucl.ac.uk/maths/sites/maths/files/math0013.pdf" xlink:title="Year 2, term 1">
<polygon fill="white" stroke="#00ff00" stroke-width="5" points="343.62,-278 115.37,-278 115.37,-235.5 343.62,-235.5 343.62,-278"/>
<text text-anchor="middle" x="229.5" y="-260.7" font-family="Times,serif" font-size="14.00">MATH0013</text>
<text text-anchor="middle" x="229.5" y="-243.45" font-family="Times,serif" font-size="14.00">Analysis 3 &#45; Complex Analysis</text>
</a>
</g>
</g>
<!-- MATH0003&#45;&gt;MATH0013 -->
<g id="edge5" class="edge">
<title>MATH0003&#45;&gt;MATH0013</title>
<path fill="none" stroke="black" d="M199.34,-390.2C202.73,-379.99 206.58,-367.71 209.5,-356.5 215.09,-335.05 220.04,-310.65 223.62,-291.46"/>
<polygon fill="black" stroke="black" points="227.04,-292.22 225.4,-281.75 220.16,-290.96 227.04,-292.22"/>
</g>
<!-- MATH0010 -->
<g id="node2" class="node">
<title>MATH0010</title>
<g id="a_node2"><a xlink:href="https://www.ucl.ac.uk/maths/sites/maths/files/math0010.pdf" xlink:title="Year 1, term 1">
<polygon fill="white" stroke="#ffb90f" stroke-width="5" points="1924.75,-435 1730.25,-435 1730.25,-392.5 1924.75,-392.5 1924.75,-435"/>
<text text-anchor="middle" x="1827.5" y="-417.7" font-family="Times,serif" font-size="14.00">MATH0010</text>
<text text-anchor="middle" x="1827.5" y="-400.45" font-family="Times,serif" font-size="14.00">Mathematical Methods 1</text>
</a>
</g>
</g>
<!-- MATH0011 -->
<g id="node4" class="node">
<title>MATH0011</title>
<g id="a_node4"><a xlink:href="https://www.ucl.ac.uk/maths/sites/maths/files/math0011_2.pdf" xlink:title="Year 1, term 2">
<polygon fill="white" stroke="#cd950c" stroke-width="5" points="1924.75,-356.5 1730.25,-356.5 1730.25,-314 1924.75,-314 1924.75,-356.5"/>
<text text-anchor="middle" x="1827.5" y="-339.2" font-family="Times,serif" font-size="14.00">MATH0011</text>
<text text-anchor="middle" x="1827.5" y="-321.95" font-family="Times,serif" font-size="14.00">Mathematical Methods 2</text>
</a>
</g>
</g>
<!-- MATH0010&#45;&gt;MATH0011 -->
<g id="edge1" class="edge">
<title>MATH0010&#45;&gt;MATH0011</title>
<path fill="none" stroke="black" d="M1827.5,-390.21C1827.5,-383.89 1827.5,-376.87 1827.5,-370.04"/>
<polygon fill="black" stroke="black" points="1831,-370.41 1827.5,-360.41 1824,-370.41 1831,-370.41"/>
</g>
<!-- MATH0005 -->
<g id="node3" class="node">
<title>MATH0005</title>
<g id="a_node3"><a xlink:href="https://www.ucl.ac.uk/maths/sites/maths/files/math0005.pdf" xlink:title="Year 1, term 1">
<polygon fill="white" stroke="#ffb90f" stroke-width="5" points="857,-435 760,-435 760,-392.5 857,-392.5 857,-435"/>
<text text-anchor="middle" x="808.5" y="-417.7" font-family="Times,serif" font-size="14.00">MATH0005</text>
<text text-anchor="middle" x="808.5" y="-400.45" font-family="Times,serif" font-size="14.00">Algebra 1</text>
</a>
</g>
</g>
<!-- MATH0006 -->
<g id="node6" class="node">
<title>MATH0006</title>
<g id="a_node6"><a xlink:href="https://www.ucl.ac.uk/maths/sites/maths/files/math0006.pdf" xlink:title="Year 1, term 2">
<polygon fill="white" stroke="#cd950c" stroke-width="5" points="857,-356.5 760,-356.5 760,-314 857,-314 857,-356.5"/>
<text text-anchor="middle" x="808.5" y="-339.2" font-family="Times,serif" font-size="14.00">MATH0006</text>
<text text-anchor="middle" x="808.5" y="-321.95" font-family="Times,serif" font-size="14.00">Algebra 2</text>
</a>
</g>
</g>
<!-- MATH0005&#45;&gt;MATH0006 -->
<g id="edge3" class="edge">
<title>MATH0005&#45;&gt;MATH0006</title>
<path fill="none" stroke="black" d="M808.5,-390.21C808.5,-383.89 808.5,-376.87 808.5,-370.04"/>
<polygon fill="black" stroke="black" points="812,-370.41 808.5,-360.41 805,-370.41 812,-370.41"/>
</g>
<!-- MATH0057 -->
<g id="node12" class="node">
<title>MATH0057</title>
<g id="a_node12"><a xlink:href="https://www.ucl.ac.uk/maths/sites/maths/files/math0057.pdf" xlink:title="Year 2 or 3, term 2">
<polygon fill="white" stroke="#8ee5ee" stroke-width="5" points="1926.25,-278 1728.75,-278 1728.75,-235.5 1926.25,-235.5 1926.25,-278"/>
<text text-anchor="middle" x="1827.5" y="-260.7" font-family="Times,serif" font-size="14.00">MATH0057</text>
<text text-anchor="middle" x="1827.5" y="-243.45" font-family="Times,serif" font-size="14.00">Probability and Statistics</text>
</a>
</g>
</g>
<!-- MATH0011&#45;&gt;MATH0057 -->
<g id="edge10" class="edge">
<title>MATH0011&#45;&gt;MATH0057</title>
<path fill="none" stroke="black" d="M1827.5,-311.71C1827.5,-305.39 1827.5,-298.37 1827.5,-291.54"/>
<polygon fill="black" stroke="black" points="1831,-291.91 1827.5,-281.91 1824,-291.91 1831,-291.91"/>
</g>
<!-- MATH0004&#45;&gt;MATH0013 -->
<g id="edge6" class="edge">
<title>MATH0004&#45;&gt;MATH0013</title>
<path fill="none" stroke="black" stroke-dasharray="5,2" d="M175.19,-311.71C182.64,-304.31 191.05,-295.95 198.98,-288.07"/>
<polygon fill="black" stroke="black" points="201.01,-290.99 205.64,-281.46 196.08,-286.02 201.01,-290.99"/>
</g>
<!-- MATH0051 -->
<g id="node10" class="node">
<title>MATH0051</title>
<g id="a_node10"><a xlink:href="https://www.ucl.ac.uk/maths/sites/maths/files/math0051.pdf" xlink:title="Year 2 or 3, term 2">
<polygon fill="white" stroke="#8ee5ee" stroke-width="5" points="97,-278 0,-278 0,-235.5 97,-235.5 97,-278"/>
<text text-anchor="middle" x="48.5" y="-260.7" font-family="Times,serif" font-size="14.00">MATH0051</text>
<text text-anchor="middle" x="48.5" y="-243.45" font-family="Times,serif" font-size="14.00">Analysis 4</text>
</a>
</g>
</g>
<!-- MATH0004&#45;&gt;MATH0051 -->
<g id="edge8" class="edge">
<title>MATH0004&#45;&gt;MATH0051</title>
<path fill="none" stroke="black" d="M121.58,-311.5C111.1,-303.8 99.25,-295.08 88.18,-286.94"/>
<polygon fill="black" stroke="black" points="90.47,-284.28 80.34,-281.17 86.32,-289.92 90.47,-284.28"/>
</g>
<!-- MATH0014 -->
<g id="node7" class="node">
<title>MATH0014</title>
<g id="a_node7"><a xlink:href="https://www.ucl.ac.uk/maths/sites/maths/files/math0014.pdf" xlink:title="Year 2, term 1">
<polygon fill="white" stroke="#00ff00" stroke-width="5" points="695.38,-278 435.62,-278 435.62,-235.5 695.38,-235.5 695.38,-278"/>
<text text-anchor="middle" x="565.5" y="-260.7" font-family="Times,serif" font-size="14.00">MATH0014</text>
<text text-anchor="middle" x="565.5" y="-243.45" font-family="Times,serif" font-size="14.00">Algebra 3: Further Linear Algebra</text>
</a>
</g>
</g>
<!-- MATH0006&#45;&gt;MATH0014 -->
<g id="edge4" class="edge">
<title>MATH0006&#45;&gt;MATH0014</title>
<path fill="none" stroke="black" d="M757.56,-318.21C725.89,-308.24 684.44,-295.19 648.15,-283.77"/>
<polygon fill="black" stroke="black" points="649.61,-280.56 639.02,-280.89 647.5,-287.24 649.61,-280.56"/>
</g>
<!-- MATH0034 -->
<g id="node9" class="node">
<title>MATH0034</title>
<g id="a_node9"><a xlink:href="https://www.ucl.ac.uk/maths/sites/maths/files/math0034.pdf" xlink:title="Year 2 or 3, term 2">
<polygon fill="white" stroke="#8ee5ee" stroke-width="5" points="930.75,-278 802.25,-278 802.25,-235.5 930.75,-235.5 930.75,-278"/>
<text text-anchor="middle" x="866.5" y="-260.7" font-family="Times,serif" font-size="14.00">MATH0034</text>
<text text-anchor="middle" x="866.5" y="-243.45" font-family="Times,serif" font-size="14.00">Number Theory</text>
</a>
</g>
</g>
<!-- MATH0006&#45;&gt;MATH0034 -->
<g id="edge7" class="edge">
<title>MATH0006&#45;&gt;MATH0034</title>
<path fill="none" stroke="black" d="M825.59,-311.71C830.85,-304.77 836.75,-296.99 842.39,-289.55"/>
<polygon fill="black" stroke="black" points="845.17,-291.68 848.42,-281.6 839.59,-287.45 845.17,-291.68"/>
</g>
<!-- MATH0053 -->
<g id="node11" class="node">
<title>MATH0053</title>
<g id="a_node11"><a xlink:href="https://www.ucl.ac.uk/maths/sites/maths/files/math0053.pdf" xlink:title="Year 2 or 3, term 2">
<polygon fill="white" stroke="#8ee5ee" stroke-width="5" points="1203,-278 1106,-278 1106,-235.5 1203,-235.5 1203,-278"/>
<text text-anchor="middle" x="1154.5" y="-260.7" font-family="Times,serif" font-size="14.00">MATH0053</text>
<text text-anchor="middle" x="1154.5" y="-243.45" font-family="Times,serif" font-size="14.00">Algebra 4</text>
</a>
</g>
</g>
<!-- MATH0006&#45;&gt;MATH0053 -->
<g id="edge9" class="edge">
<title>MATH0006&#45;&gt;MATH0053</title>
<path fill="none" stroke="black" d="M859.18,-323.04C921.11,-309.35 1025.85,-286.2 1092.51,-271.46"/>
<polygon fill="black" stroke="black" points="1093.2,-274.89 1102.2,-269.31 1091.68,-268.05 1093.2,-274.89"/>
</g>
<!-- MATH0037 -->
<g id="node18" class="node">
<title>MATH0037</title>
<g id="a_node18"><a xlink:href="https://www.ucl.ac.uk/maths/sites/maths/files/math0037.pdf" xlink:title="Year 3, term 2">
<polygon fill="white" stroke="#cd3333" stroke-width="5" points="800,-121 703,-121 703,-78.5 800,-78.5 800,-121"/>
<text text-anchor="middle" x="751.5" y="-103.7" font-family="Times,serif" font-size="14.00">MATH0037</text>
<text text-anchor="middle" x="751.5" y="-86.45" font-family="Times,serif" font-size="14.00">Logic</text>
</a>
</g>
</g>
<!-- MATH0006&#45;&gt;MATH0037 -->
<g id="edge16" class="edge">
<title>MATH0006&#45;&gt;MATH0037</title>
<path fill="none" stroke="black" d="M802.3,-311.57C799.54,-301.33 796.29,-289.08 793.5,-278 780.92,-228.05 767.35,-169.91 759.14,-134.22"/>
<polygon fill="black" stroke="black" points="762.66,-133.9 757.01,-124.94 755.83,-135.47 762.66,-133.9"/>
</g>
<!-- MATH0023 -->
<g id="node14" class="node">
<title>MATH0023</title>
<g id="a_node14"><a xlink:href="https://www.ucl.ac.uk/maths/sites/maths/files/math0023_1.pdf" xlink:title="Year 3, term 1">
<polygon fill="white" stroke="#ff4040" stroke-width="5" points="409.75,-199.5 257.25,-199.5 257.25,-157 409.75,-157 409.75,-199.5"/>
<text text-anchor="middle" x="333.5" y="-182.2" font-family="Times,serif" font-size="14.00">MATH0023</text>
<text text-anchor="middle" x="333.5" y="-164.95" font-family="Times,serif" font-size="14.00">Algebraic Topology</text>
</a>
</g>
</g>
<!-- MATH0014&#45;&gt;MATH0023 -->
<g id="edge12" class="edge">
<title>MATH0014&#45;&gt;MATH0023</title>
<path fill="none" stroke="black" d="M496.52,-233C470.23,-224.33 440.05,-214.38 412.87,-205.42"/>
<polygon fill="black" stroke="black" points="414.24,-202.19 403.65,-202.38 412.05,-208.84 414.24,-202.19"/>
</g>
<!-- MATH0104 -->
<g id="node24" class="node">
<title>MATH0104</title>
<g id="a_node24"><a xlink:href="https://www.ucl.ac.uk/maths/sites/maths/files/math0104_2.pdf" xlink:title="Year 3 or 4, term 1">
<polygon fill="white" stroke="#ff1493" stroke-width="5" points="737.25,-42.5 611.75,-42.5 611.75,0 737.25,0 737.25,-42.5"/>
<text text-anchor="middle" x="674.5" y="-25.2" font-family="Times,serif" font-size="14.00">MATH0104</text>
<text text-anchor="middle" x="674.5" y="-7.95" font-family="Times,serif" font-size="14.00">Modular Forms</text>
</a>
</g>
</g>
<!-- MATH0014&#45;&gt;MATH0104 -->
<g id="edge26" class="edge">
<title>MATH0014&#45;&gt;MATH0104</title>
<path fill="none" stroke="black" d="M618.85,-233.2C632.96,-224.68 646.7,-213.55 655.5,-199.5 682.77,-155.95 682.66,-94.33 679.21,-56.4"/>
<polygon fill="black" stroke="black" points="682.7,-56.06 678.17,-46.48 675.74,-56.79 682.7,-56.06"/>
</g>
<!-- MATH0075 -->
<g id="node26" class="node">
<title>MATH0075</title>
<g id="a_node26"><a xlink:href="https://www.ucl.ac.uk/maths/sites/maths/files/math0075_3.pdf" xlink:title="Year 3 or 4, term 2">
<polygon fill="white" stroke="#cd1076" stroke-width="5" points="646.75,-199.5 428.25,-199.5 428.25,-157 646.75,-157 646.75,-199.5"/>
<text text-anchor="middle" x="537.5" y="-182.2" font-family="Times,serif" font-size="14.00">MATH0075</text>
<text text-anchor="middle" x="537.5" y="-164.95" font-family="Times,serif" font-size="14.00">Lie Groups and Lie Algebras</text>
</a>
</g>
</g>
<!-- MATH0014&#45;&gt;MATH0075 -->
<g id="edge30" class="edge">
<title>MATH0014&#45;&gt;MATH0075</title>
<path fill="none" stroke="black" d="M557.25,-233.21C554.88,-226.73 552.24,-219.53 549.69,-212.54"/>
<polygon fill="black" stroke="black" points="553.03,-211.5 546.31,-203.31 546.46,-213.91 553.03,-211.5"/>
</g>
<!-- MATH0083 -->
<g id="node23" class="node">
<title>MATH0083</title>
<g id="a_node23"><a xlink:href="https://www.ucl.ac.uk/maths/sites/maths/files/math0083.pdf" xlink:title="Year 3 or 4, term 1">
<polygon fill="white" stroke="#ff1493" stroke-width="5" points="336.38,-42.5 46.62,-42.5 46.62,0 336.38,0 336.38,-42.5"/>
<text text-anchor="middle" x="191.5" y="-25.2" font-family="Times,serif" font-size="14.00">MATH0083</text>
<text text-anchor="middle" x="191.5" y="-7.95" font-family="Times,serif" font-size="14.00">Prime Numbers and their Distribution</text>
</a>
</g>
</g>
<!-- MATH0013&#45;&gt;MATH0083 -->
<g id="edge22" class="edge">
<title>MATH0013&#45;&gt;MATH0083</title>
<path fill="none" stroke="black" d="M223.28,-233.16C220.62,-222.94 217.64,-210.67 215.5,-199.5 206,-149.9 198.88,-91.79 194.96,-56"/>
<polygon fill="black" stroke="black" points="198.46,-55.84 193.91,-46.27 191.5,-56.58 198.46,-55.84"/>
</g>
<!-- MATH0013&#45;&gt;MATH0104 -->
<g id="edge25" class="edge">
<title>MATH0013&#45;&gt;MATH0104</title>
<path fill="none" stroke="black" d="M227.68,-233.31C227.15,-211.22 229.93,-177.87 248.5,-157 337.95,-56.5 501.75,-30.32 598.08,-23.9"/>
<polygon fill="black" stroke="black" points="598.2,-27.4 607.97,-23.3 597.78,-20.41 598.2,-27.4"/>
</g>
<!-- MATH0035 -->
<g id="node19" class="node">
<title>MATH0035</title>
<g id="a_node19"><a xlink:href="https://www.ucl.ac.uk/maths/sites/maths/files/math0035.pdf" xlink:title="Year 3, term 2">
<polygon fill="white" stroke="#cd3333" stroke-width="5" points="1530.75,-121 1330.25,-121 1330.25,-78.5 1530.75,-78.5 1530.75,-121"/>
<text text-anchor="middle" x="1430.5" y="-103.7" font-family="Times,serif" font-size="14.00">MATH0035</text>
<text text-anchor="middle" x="1430.5" y="-86.45" font-family="Times,serif" font-size="14.00">Algebraic Number Theory</text>
</a>
</g>
</g>
<!-- MATH0034&#45;&gt;MATH0035 -->
<g id="edge17" class="edge">
<title>MATH0034&#45;&gt;MATH0035</title>
<path fill="none" stroke="black" d="M933.12,-249.32C1061.34,-236.77 1331.46,-209.35 1349.5,-199.5 1364.32,-191.41 1390.17,-157.99 1408.69,-132.25"/>
<polygon fill="black" stroke="black" points="1411.32,-134.59 1414.27,-124.41 1405.62,-130.53 1411.32,-134.59"/>
</g>
<!-- MATH0036 -->
<g id="node20" class="node">
<title>MATH0036</title>
<g id="a_node20"><a xlink:href="https://www.ucl.ac.uk/maths/sites/maths/files/math0036.pdf" xlink:title="Year 3, term 2">
<polygon fill="white" stroke="#cd3333" stroke-width="5" points="1016.38,-121 894.62,-121 894.62,-78.5 1016.38,-78.5 1016.38,-121"/>
<text text-anchor="middle" x="955.5" y="-103.7" font-family="Times,serif" font-size="14.00">MATH0036</text>
<text text-anchor="middle" x="955.5" y="-86.45" font-family="Times,serif" font-size="14.00">Elliptic Curves</text>
</a>
</g>
</g>
<!-- MATH0034&#45;&gt;MATH0036 -->
<g id="edge20" class="edge">
<title>MATH0034&#45;&gt;MATH0036</title>
<path fill="none" stroke="black" d="M879.44,-233.21C894.54,-206.92 919.61,-163.26 936.81,-133.29"/>
<polygon fill="black" stroke="black" points="939.85,-135.04 941.79,-124.63 933.77,-131.56 939.85,-135.04"/>
</g>
<!-- MATH0034&#45;&gt;MATH0083 -->
<g id="edge24" class="edge">
<title>MATH0034&#45;&gt;MATH0083</title>
<path fill="none" stroke="black" d="M866.49,-233.21C865.12,-194.66 856.23,-116.53 808.5,-78.5 773.35,-50.5 521.15,-35.08 350.26,-27.76"/>
<polygon fill="black" stroke="black" points="350.52,-24.26 340.39,-27.34 350.23,-31.26 350.52,-24.26"/>
</g>
<!-- MATH0034&#45;&gt;MATH0104 -->
<g id="edge27" class="edge">
<title>MATH0034&#45;&gt;MATH0104</title>
<path fill="none" stroke="black" stroke-dasharray="5,2" d="M870.36,-233.22C875.3,-196.41 879.32,-123 842.5,-78.5 819.95,-51.25 783.76,-37.13 750.73,-29.84"/>
<polygon fill="black" stroke="black" points="751.66,-26.46 741.16,-27.92 750.28,-33.32 751.66,-26.46"/>
</g>
<!-- MATH0051&#45;&gt;MATH0083 -->
<g id="edge23" class="edge">
<title>MATH0051&#45;&gt;MATH0083</title>
<path fill="none" stroke="black" d="M62.21,-233.36C87.66,-191.8 142.3,-102.59 171.74,-54.52"/>
<polygon fill="black" stroke="black" points="174.59,-56.56 176.83,-46.2 168.62,-52.9 174.59,-56.56"/>
</g>
<!-- MATH0022 -->
<g id="node15" class="node">
<title>MATH0022</title>
<g id="a_node15"><a xlink:href="https://www.ucl.ac.uk/maths/sites/maths/files/math0022.pdf" xlink:title="Year 3, term 1">
<polygon fill="white" stroke="#ff4040" stroke-width="5" points="1340.62,-199.5 1226.38,-199.5 1226.38,-157 1340.62,-157 1340.62,-199.5"/>
<text text-anchor="middle" x="1283.5" y="-182.2" font-family="Times,serif" font-size="14.00">MATH0022</text>
<text text-anchor="middle" x="1283.5" y="-164.95" font-family="Times,serif" font-size="14.00">Galois Theory</text>
</a>
</g>
</g>
<!-- MATH0053&#45;&gt;MATH0022 -->
<g id="edge13" class="edge">
<title>MATH0053&#45;&gt;MATH0022</title>
<path fill="none" stroke="black" d="M1192.85,-233C1206.37,-224.99 1221.73,-215.88 1235.92,-207.47"/>
<polygon fill="black" stroke="black" points="1237.4,-210.66 1244.21,-202.55 1233.83,-204.64 1237.4,-210.66"/>
</g>
<!-- MATH0021 -->
<g id="node16" class="node">
<title>MATH0021</title>
<g id="a_node16"><a xlink:href="https://www.ucl.ac.uk/maths/sites/maths/files/math0021.pdf" xlink:title="Year 3, term 2">
<polygon fill="white" stroke="#cd3333" stroke-width="5" points="1236.75,-121 1072.25,-121 1072.25,-78.5 1236.75,-78.5 1236.75,-121"/>
<text text-anchor="middle" x="1154.5" y="-103.7" font-family="Times,serif" font-size="14.00">MATH0021</text>
<text text-anchor="middle" x="1154.5" y="-86.45" font-family="Times,serif" font-size="14.00">Homological Algebra</text>
</a>
</g>
</g>
<!-- MATH0053&#45;&gt;MATH0021 -->
<g id="edge14" class="edge">
<title>MATH0053&#45;&gt;MATH0021</title>
<path fill="none" stroke="black" d="M1154.5,-233.21C1154.5,-207.27 1154.5,-164.4 1154.5,-134.48"/>
<polygon fill="black" stroke="black" points="1158,-134.83 1154.5,-124.83 1151,-134.83 1158,-134.83"/>
</g>
<!-- MATH0108 -->
<g id="node17" class="node">
<title>MATH0108</title>
<g id="a_node17"><a xlink:href="https://www.ucl.ac.uk/maths/sites/maths/files/0108_0.pdf" xlink:title="Year 3, term 2">
<polygon fill="white" stroke="#cd3333" stroke-width="5" points="1796.38,-121 1548.62,-121 1548.62,-78.5 1796.38,-78.5 1796.38,-121"/>
<text text-anchor="middle" x="1672.5" y="-103.7" font-family="Times,serif" font-size="14.00">MATH0108</text>
<text text-anchor="middle" x="1672.5" y="-86.45" font-family="Times,serif" font-size="14.00">Commutative Rings and Algebra</text>
</a>
</g>
</g>
<!-- MATH0053&#45;&gt;MATH0108 -->
<g id="edge15" class="edge">
<title>MATH0053&#45;&gt;MATH0108</title>
<path fill="none" stroke="black" d="M1205.13,-247.61C1259.11,-238.34 1346.79,-221.57 1420.5,-199.5 1487.32,-179.49 1561.38,-149.48 1611.81,-127.8"/>
<polygon fill="black" stroke="black" points="1613.03,-131.09 1620.82,-123.91 1610.25,-124.67 1613.03,-131.09"/>
</g>
<!-- MATH0053&#45;&gt;MATH0035 -->
<g id="edge18" class="edge">
<title>MATH0053&#45;&gt;MATH0035</title>
<path fill="none" stroke="black" d="M1205.38,-249.45C1266.98,-240.89 1365.9,-223.79 1393.5,-199.5 1412.26,-182.99 1421.53,-156.02 1426.1,-134.43"/>
<polygon fill="black" stroke="black" points="1429.49,-135.37 1427.86,-124.9 1422.6,-134.09 1429.49,-135.37"/>
</g>
<!-- MATH0053&#45;&gt;MATH0036 -->
<g id="edge21" class="edge">
<title>MATH0053&#45;&gt;MATH0036</title>
<path fill="none" stroke="black" d="M1103.65,-239.27C1079.88,-229.98 1052.12,-216.75 1030.5,-199.5 1007.4,-181.07 987.51,-154.01 974.03,-132.88"/>
<polygon fill="black" stroke="black" points="977.16,-131.28 968.92,-124.63 971.21,-134.97 977.16,-131.28"/>
</g>
<!-- MATH0073 -->
<g id="node25" class="node">
<title>MATH0073</title>
<g id="a_node25"><a xlink:href="https://www.ucl.ac.uk/maths/sites/maths/files/math0073.pdf" xlink:title="Year 3 or 4, term 1">
<polygon fill="white" stroke="#ff1493" stroke-width="5" points="1102.25,-42.5 922.75,-42.5 922.75,0 1102.25,0 1102.25,-42.5"/>
<text text-anchor="middle" x="1012.5" y="-25.2" font-family="Times,serif" font-size="14.00">MATH0073</text>
<text text-anchor="middle" x="1012.5" y="-7.95" font-family="Times,serif" font-size="14.00">Representation Theory</text>
</a>
</g>
</g>
<!-- MATH0053&#45;&gt;MATH0073 -->
<g id="edge28" class="edge">
<title>MATH0053&#45;&gt;MATH0073</title>
<path fill="none" stroke="black" d="M1138.21,-233.39C1119.32,-207.07 1087.69,-161.79 1063.5,-121 1050.71,-99.44 1037.76,-74.32 1028.12,-54.82"/>
<polygon fill="black" stroke="black" points="1031.33,-53.41 1023.78,-45.98 1025.04,-56.5 1031.33,-53.41"/>
</g>
<!-- MATH0029 -->
<g id="node13" class="node">
<title>MATH0029</title>
<g id="a_node13"><a xlink:href="https://www.ucl.ac.uk/maths/sites/maths/files/math0029.pdf" xlink:title="Year 3, term 1">
<polygon fill="white" stroke="#ff4040" stroke-width="5" points="1954,-199.5 1701,-199.5 1701,-157 1954,-157 1954,-199.5"/>
<text text-anchor="middle" x="1827.5" y="-182.2" font-family="Times,serif" font-size="14.00">MATH0029</text>
<text text-anchor="middle" x="1827.5" y="-164.95" font-family="Times,serif" font-size="14.00">Graph Theory and Combinatorics</text>
</a>
</g>
</g>
<!-- MATH0057&#45;&gt;MATH0029 -->
<g id="edge11" class="edge">
<title>MATH0057&#45;&gt;MATH0029</title>
<path fill="none" stroke="black" stroke-dasharray="5,2" d="M1827.5,-233.21C1827.5,-226.89 1827.5,-219.87 1827.5,-213.04"/>
<polygon fill="black" stroke="black" points="1831,-213.41 1827.5,-203.41 1824,-213.41 1831,-213.41"/>
</g>
<!-- MATH0022&#45;&gt;MATH0035 -->
<g id="edge19" class="edge">
<title>MATH0022&#45;&gt;MATH0035</title>
<path fill="none" stroke="black" stroke-dasharray="5,2" d="M1327.21,-154.5C1342.84,-146.37 1360.63,-137.11 1376.99,-128.6"/>
<polygon fill="black" stroke="black" points="1378.36,-131.83 1385.62,-124.11 1375.13,-125.62 1378.36,-131.83"/>
</g>
<!-- MATH0076 -->
<g id="node27" class="node">
<title>MATH0076</title>
<g id="a_node27"><a xlink:href="https://www.ucl.ac.uk/maths/sites/maths/files/math0076_3.pdf" xlink:title="Year 4, term 1">
<polygon fill="white" stroke="#1c86ee" stroke-width="5" points="1278.75,-42.5 1120.25,-42.5 1120.25,0 1278.75,0 1278.75,-42.5"/>
<text text-anchor="middle" x="1199.5" y="-25.2" font-family="Times,serif" font-size="14.00">MATH0076</text>
<text text-anchor="middle" x="1199.5" y="-7.95" font-family="Times,serif" font-size="14.00">Algebraic Geometry</text>
</a>
</g>
</g>
<!-- MATH0022&#45;&gt;MATH0076 -->
<g id="edge32" class="edge">
<title>MATH0022&#45;&gt;MATH0076</title>
<path fill="none" stroke="black" d="M1277.1,-154.76C1270.72,-134.13 1259.81,-103.12 1245.5,-78.5 1240.53,-69.95 1234.3,-61.37 1228.04,-53.57"/>
<polygon fill="black" stroke="black" points="1230.81,-51.43 1221.72,-45.99 1225.43,-55.92 1230.81,-51.43"/>
</g>
<!-- MATH0061 -->
<g id="node28" class="node">
<title>MATH0061</title>
<g id="a_node28"><a xlink:href="https://www.ucl.ac.uk/maths/sites/maths/files/math0061_0.pdf" xlink:title="Year 4, term 2">
<polygon fill="white" stroke="#1874cd" stroke-width="5" points="1625.88,-42.5 1297.12,-42.5 1297.12,0 1625.88,0 1625.88,-42.5"/>
<text text-anchor="middle" x="1461.5" y="-25.2" font-family="Times,serif" font-size="14.00">MATH0061</text>
<text text-anchor="middle" x="1461.5" y="-7.95" font-family="Times,serif" font-size="14.00">Further Topics in Algebraic Number Theory</text>
</a>
</g>
</g>
<!-- MATH0022&#45;&gt;MATH0061 -->
<g id="edge34" class="edge">
<title>MATH0022&#45;&gt;MATH0061</title>
<path fill="none" stroke="black" d="M1286.82,-154.84C1291.18,-132.78 1300.87,-99.44 1321.5,-78.5 1333.26,-66.56 1347.89,-57.08 1363.22,-49.57"/>
<polygon fill="black" stroke="black" points="1364.36,-52.89 1371.99,-45.54 1361.45,-46.53 1364.36,-52.89"/>
</g>
<!-- MATH0021&#45;&gt;MATH0073 -->
<g id="edge29" class="edge">
<title>MATH0021&#45;&gt;MATH0073</title>
<path fill="none" stroke="black" stroke-dasharray="5,2" d="M1112.28,-76C1097.26,-67.91 1080.17,-58.7 1064.43,-50.22"/>
<polygon fill="black" stroke="black" points="1066.11,-47.16 1055.65,-45.49 1062.79,-53.32 1066.11,-47.16"/>
</g>
<!-- MATH0021&#45;&gt;MATH0076 -->
<g id="edge31" class="edge">
<title>MATH0021&#45;&gt;MATH0076</title>
<path fill="none" stroke="black" d="M1167.76,-76.21C1171.75,-69.42 1176.21,-61.84 1180.5,-54.55"/>
<polygon fill="black" stroke="black" points="1183.36,-56.59 1185.41,-46.2 1177.33,-53.04 1183.36,-56.59"/>
</g>
<!-- MATH0035&#45;&gt;MATH0061 -->
<g id="edge33" class="edge">
<title>MATH0035&#45;&gt;MATH0061</title>
<path fill="none" stroke="black" d="M1439.63,-76.21C1442.26,-69.73 1445.18,-62.53 1448.01,-55.54"/>
<polygon fill="black" stroke="black" points="1451.24,-56.88 1451.76,-46.29 1444.76,-54.25 1451.24,-56.88"/>
</g>
<!-- MATH0038 -->
<g id="node21" class="node">
<title>MATH0038</title>
<g id="a_node21"><a xlink:href="https://www.ucl.ac.uk/maths/sites/maths/files/math0038.pdf" xlink:title="Year 3, term 2">
<polygon fill="white" stroke="#cd3333" stroke-width="5" points="1998.88,-121 1814.12,-121 1814.12,-78.5 1998.88,-78.5 1998.88,-121"/>
<text text-anchor="middle" x="1906.5" y="-103.7" font-family="Times,serif" font-size="14.00">MATH0038</text>
<text text-anchor="middle" x="1906.5" y="-86.45" font-family="Times,serif" font-size="14.00">History of Mathematics</text>
</a>
</g>
</g>
<!-- MATH0109 -->
<g id="node22" class="node">
<title>MATH0109</title>
<g id="a_node22"><a xlink:href="https://www.ucl.ac.uk/maths/sites/maths/files/math0019_2.pdf" xlink:title="Year 3, term 2">
<polygon fill="white" stroke="#cd3333" stroke-width="5" points="2212.5,-121 2016.5,-121 2016.5,-78.5 2212.5,-78.5 2212.5,-121"/>
<text text-anchor="middle" x="2114.5" y="-103.7" font-family="Times,serif" font-size="14.00">MATH0109</text>
<text text-anchor="middle" x="2114.5" y="-86.45" font-family="Times,serif" font-size="14.00">Theorem Proving in Lean</text>
</a>
</g>
</g>
</g>
</svg>
