<?xml version="1.0" encoding="UTF-8" standalone="no"?>
<!DOCTYPE svg PUBLIC "-//W3C//DTD SVG 1.1//EN"
 "http://www.w3.org/Graphics/SVG/1.1/DTD/svg11.dtd">
<!-- Generated by graphviz version 12.2.1 (0)
 -->
<!-- Pages: 1 -->
<svg width="2277pt" height="443pt"
 viewBox="0.00 0.00 2276.88 443.00" xmlns="http://www.w3.org/2000/svg" xmlns:xlink="http://www.w3.org/1999/xlink">
<g id="graph0" class="graph" transform="scale(1 1) rotate(0) translate(4 439)">
<polygon fill="white" stroke="none" points="-4,4 -4,-439 2272.88,-439 2272.88,4 -4,4"/>
<!-- MATH0010 -->
<g id="node1" class="node">
<title>MATH0010</title>
<g id="a_node1"><a xlink:href="https://www.ucl.ac.uk/maths/sites/maths/files/math0010.pdf" xlink:title="Year 1, term 1">
<polygon fill="white" stroke="#ffb90f" stroke-width="5" points="223.75,-435 29.25,-435 29.25,-392.5 223.75,-392.5 223.75,-435"/>
<text text-anchor="middle" x="126.5" y="-417.7" font-family="Times,serif" font-size="14.00">MATH0010</text>
<text text-anchor="middle" x="126.5" y="-400.45" font-family="Times,serif" font-size="14.00">Mathematical Methods 1</text>
</a>
</g>
</g>
<!-- MATH0011 -->
<g id="node5" class="node">
<title>MATH0011</title>
<g id="a_node5"><a xlink:href="https://www.ucl.ac.uk/maths/sites/maths/files/math0011_2.pdf" xlink:title="Year 1, term 2">
<polygon fill="white" stroke="#cd950c" stroke-width="5" points="223.75,-356.5 29.25,-356.5 29.25,-314 223.75,-314 223.75,-356.5"/>
<text text-anchor="middle" x="126.5" y="-339.2" font-family="Times,serif" font-size="14.00">MATH0011</text>
<text text-anchor="middle" x="126.5" y="-321.95" font-family="Times,serif" font-size="14.00">Mathematical Methods 2</text>
</a>
</g>
</g>
<!-- MATH0010&#45;&gt;MATH0011 -->
<g id="edge2" class="edge">
<title>MATH0010&#45;&gt;MATH0011</title>
<path fill="none" stroke="black" d="M126.5,-390.21C126.5,-383.89 126.5,-376.87 126.5,-370.04"/>
<polygon fill="black" stroke="black" points="130,-370.41 126.5,-360.41 123,-370.41 130,-370.41"/>
</g>
<!-- MATH0005 -->
<g id="node2" class="node">
<title>MATH0005</title>
<g id="a_node2"><a xlink:href="https://www.ucl.ac.uk/maths/sites/maths/files/math0005.pdf" xlink:title="Year 1, term 1">
<polygon fill="white" stroke="#ffb90f" stroke-width="5" points="1077,-435 980,-435 980,-392.5 1077,-392.5 1077,-435"/>
<text text-anchor="middle" x="1028.5" y="-417.7" font-family="Times,serif" font-size="14.00">MATH0005</text>
<text text-anchor="middle" x="1028.5" y="-400.45" font-family="Times,serif" font-size="14.00">Algebra 1</text>
</a>
</g>
</g>
<!-- MATH0006 -->
<g id="node4" class="node">
<title>MATH0006</title>
<g id="a_node4"><a xlink:href="https://www.ucl.ac.uk/maths/sites/maths/files/math0006.pdf" xlink:title="Year 1, term 2">
<polygon fill="white" stroke="#cd950c" stroke-width="5" points="1077,-356.5 980,-356.5 980,-314 1077,-314 1077,-356.5"/>
<text text-anchor="middle" x="1028.5" y="-339.2" font-family="Times,serif" font-size="14.00">MATH0006</text>
<text text-anchor="middle" x="1028.5" y="-321.95" font-family="Times,serif" font-size="14.00">Algebra 2</text>
</a>
</g>
</g>
<!-- MATH0005&#45;&gt;MATH0006 -->
<g id="edge1" class="edge">
<title>MATH0005&#45;&gt;MATH0006</title>
<path fill="none" stroke="black" d="M1028.5,-390.21C1028.5,-383.89 1028.5,-376.87 1028.5,-370.04"/>
<polygon fill="black" stroke="black" points="1032,-370.41 1028.5,-360.41 1025,-370.41 1032,-370.41"/>
</g>
<!-- MATH0003 -->
<g id="node3" class="node">
<title>MATH0003</title>
<g id="a_node3"><a xlink:href="https://www.ucl.ac.uk/maths/sites/maths/files/math0003.pdf" xlink:title="Year 1, term 1">
<polygon fill="white" stroke="#ffb90f" stroke-width="5" points="483,-435 386,-435 386,-392.5 483,-392.5 483,-435"/>
<text text-anchor="middle" x="434.5" y="-417.7" font-family="Times,serif" font-size="14.00">MATH0003</text>
<text text-anchor="middle" x="434.5" y="-400.45" font-family="Times,serif" font-size="14.00">Analysis 1</text>
</a>
</g>
</g>
<!-- MATH0004 -->
<g id="node6" class="node">
<title>MATH0004</title>
<g id="a_node6"><a xlink:href="https://www.ucl.ac.uk/maths/sites/maths/files/math0004.pdf" xlink:title="Year 1, term 2">
<polygon fill="white" stroke="#cd950c" stroke-width="5" points="444,-356.5 347,-356.5 347,-314 444,-314 444,-356.5"/>
<text text-anchor="middle" x="395.5" y="-339.2" font-family="Times,serif" font-size="14.00">MATH0004</text>
<text text-anchor="middle" x="395.5" y="-321.95" font-family="Times,serif" font-size="14.00">Analysis 2</text>
</a>
</g>
</g>
<!-- MATH0003&#45;&gt;MATH0004 -->
<g id="edge3" class="edge">
<title>MATH0003&#45;&gt;MATH0004</title>
<path fill="none" stroke="black" d="M423.01,-390.21C419.63,-383.58 415.86,-376.18 412.22,-369.04"/>
<polygon fill="black" stroke="black" points="415.39,-367.56 407.73,-360.24 409.15,-370.74 415.39,-367.56"/>
</g>
<!-- MATH0013 -->
<g id="node8" class="node">
<title>MATH0013</title>
<g id="a_node8"><a xlink:href="https://www.ucl.ac.uk/maths/sites/maths/files/math0013.pdf" xlink:title="Year 2, term 1">
<polygon fill="white" stroke="#00ff00" stroke-width="5" points="586.62,-278 358.38,-278 358.38,-235.5 586.62,-235.5 586.62,-278"/>
<text text-anchor="middle" x="472.5" y="-260.7" font-family="Times,serif" font-size="14.00">MATH0013</text>
<text text-anchor="middle" x="472.5" y="-243.45" font-family="Times,serif" font-size="14.00">Analysis 3 &#45; Complex Analysis</text>
</a>
</g>
</g>
<!-- MATH0003&#45;&gt;MATH0013 -->
<g id="edge5" class="edge">
<title>MATH0003&#45;&gt;MATH0013</title>
<path fill="none" stroke="black" d="M442.88,-390.25C446.48,-380.04 450.53,-367.76 453.5,-356.5 459.14,-335.11 463.85,-310.7 467.17,-291.51"/>
<polygon fill="black" stroke="black" points="470.6,-292.23 468.81,-281.79 463.7,-291.07 470.6,-292.23"/>
</g>
<!-- MATH0014 -->
<g id="node7" class="node">
<title>MATH0014</title>
<g id="a_node7"><a xlink:href="https://www.ucl.ac.uk/maths/sites/maths/files/math0014.pdf" xlink:title="Year 2, term 1">
<polygon fill="white" stroke="#00ff00" stroke-width="5" points="1052.38,-278 792.62,-278 792.62,-235.5 1052.38,-235.5 1052.38,-278"/>
<text text-anchor="middle" x="922.5" y="-260.7" font-family="Times,serif" font-size="14.00">MATH0014</text>
<text text-anchor="middle" x="922.5" y="-243.45" font-family="Times,serif" font-size="14.00">Algebra 3: Further Linear Algebra</text>
</a>
</g>
</g>
<!-- MATH0006&#45;&gt;MATH0014 -->
<g id="edge4" class="edge">
<title>MATH0006&#45;&gt;MATH0014</title>
<path fill="none" stroke="black" d="M996.98,-311.5C986.3,-303.8 974.22,-295.08 962.95,-286.94"/>
<polygon fill="black" stroke="black" points="965.1,-284.18 954.94,-281.16 961,-289.85 965.1,-284.18"/>
</g>
<!-- MATH0053 -->
<g id="node9" class="node">
<title>MATH0053</title>
<g id="a_node9"><a xlink:href="https://www.ucl.ac.uk/maths/sites/maths/files/math0053.pdf" xlink:title="Year 2 or 3, term 2">
<polygon fill="white" stroke="#8ee5ee" stroke-width="5" points="1628,-278 1531,-278 1531,-235.5 1628,-235.5 1628,-278"/>
<text text-anchor="middle" x="1579.5" y="-260.7" font-family="Times,serif" font-size="14.00">MATH0053</text>
<text text-anchor="middle" x="1579.5" y="-243.45" font-family="Times,serif" font-size="14.00">Algebra 4</text>
</a>
</g>
</g>
<!-- MATH0006&#45;&gt;MATH0053 -->
<g id="edge7" class="edge">
<title>MATH0006&#45;&gt;MATH0053</title>
<path fill="none" stroke="black" d="M1079.35,-327.19C1180.73,-313.11 1407.69,-281.6 1517.56,-266.35"/>
<polygon fill="black" stroke="black" points="1517.85,-269.84 1527.27,-265 1516.89,-262.91 1517.85,-269.84"/>
</g>
<!-- MATH0034 -->
<g id="node12" class="node">
<title>MATH0034</title>
<g id="a_node12"><a xlink:href="https://www.ucl.ac.uk/maths/sites/maths/files/math0034.pdf" xlink:title="Year 2 or 3, term 2">
<polygon fill="white" stroke="#8ee5ee" stroke-width="5" points="1199.75,-278 1071.25,-278 1071.25,-235.5 1199.75,-235.5 1199.75,-278"/>
<text text-anchor="middle" x="1135.5" y="-260.7" font-family="Times,serif" font-size="14.00">MATH0034</text>
<text text-anchor="middle" x="1135.5" y="-243.45" font-family="Times,serif" font-size="14.00">Number Theory</text>
</a>
</g>
</g>
<!-- MATH0006&#45;&gt;MATH0034 -->
<g id="edge10" class="edge">
<title>MATH0006&#45;&gt;MATH0034</title>
<path fill="none" stroke="black" d="M1060.31,-311.5C1071.09,-303.8 1083.29,-295.08 1094.67,-286.94"/>
<polygon fill="black" stroke="black" points="1096.66,-289.82 1102.76,-281.16 1092.59,-284.12 1096.66,-289.82"/>
</g>
<!-- MATH0037 -->
<g id="node17" class="node">
<title>MATH0037</title>
<g id="a_node17"><a xlink:href="https://www.ucl.ac.uk/maths/sites/maths/files/math0037.pdf" xlink:title="Year 3, term 2">
<polygon fill="white" stroke="#cd3333" stroke-width="5" points="663,-121 566,-121 566,-78.5 663,-78.5 663,-121"/>
<text text-anchor="middle" x="614.5" y="-103.7" font-family="Times,serif" font-size="14.00">MATH0037</text>
<text text-anchor="middle" x="614.5" y="-86.45" font-family="Times,serif" font-size="14.00">Logic</text>
</a>
</g>
</g>
<!-- MATH0006&#45;&gt;MATH0037 -->
<g id="edge14" class="edge">
<title>MATH0006&#45;&gt;MATH0037</title>
<path fill="none" stroke="black" d="M977.59,-333.95C890.64,-330.36 715,-309.1 633.5,-199.5 619.74,-181 615.12,-155.3 613.87,-134.76"/>
<polygon fill="black" stroke="black" points="617.38,-134.74 613.54,-124.87 610.38,-134.98 617.38,-134.74"/>
</g>
<!-- MATH0057 -->
<g id="node11" class="node">
<title>MATH0057</title>
<g id="a_node11"><a xlink:href="https://www.ucl.ac.uk/maths/sites/maths/files/math0057.pdf" xlink:title="Year 2 or 3, term 2">
<polygon fill="white" stroke="#8ee5ee" stroke-width="5" points="225.25,-278 27.75,-278 27.75,-235.5 225.25,-235.5 225.25,-278"/>
<text text-anchor="middle" x="126.5" y="-260.7" font-family="Times,serif" font-size="14.00">MATH0057</text>
<text text-anchor="middle" x="126.5" y="-243.45" font-family="Times,serif" font-size="14.00">Probability and Statistics</text>
</a>
</g>
</g>
<!-- MATH0011&#45;&gt;MATH0057 -->
<g id="edge9" class="edge">
<title>MATH0011&#45;&gt;MATH0057</title>
<path fill="none" stroke="black" d="M126.5,-311.71C126.5,-305.39 126.5,-298.37 126.5,-291.54"/>
<polygon fill="black" stroke="black" points="130,-291.91 126.5,-281.91 123,-291.91 130,-291.91"/>
</g>
<!-- MATH0004&#45;&gt;MATH0013 -->
<g id="edge6" class="edge">
<title>MATH0004&#45;&gt;MATH0013</title>
<path fill="none" stroke="black" stroke-dasharray="5,2" d="M418.19,-311.71C425.64,-304.31 434.05,-295.95 441.98,-288.07"/>
<polygon fill="black" stroke="black" points="444.01,-290.99 448.64,-281.46 439.08,-286.02 444.01,-290.99"/>
</g>
<!-- MATH0051 -->
<g id="node10" class="node">
<title>MATH0051</title>
<g id="a_node10"><a xlink:href="https://www.ucl.ac.uk/maths/sites/maths/files/math0051.pdf" xlink:title="Year 2 or 3, term 2">
<polygon fill="white" stroke="#8ee5ee" stroke-width="5" points="340,-278 243,-278 243,-235.5 340,-235.5 340,-278"/>
<text text-anchor="middle" x="291.5" y="-260.7" font-family="Times,serif" font-size="14.00">MATH0051</text>
<text text-anchor="middle" x="291.5" y="-243.45" font-family="Times,serif" font-size="14.00">Analysis 4</text>
</a>
</g>
</g>
<!-- MATH0004&#45;&gt;MATH0051 -->
<g id="edge8" class="edge">
<title>MATH0004&#45;&gt;MATH0051</title>
<path fill="none" stroke="black" d="M364.58,-311.5C354.1,-303.8 342.25,-295.08 331.18,-286.94"/>
<polygon fill="black" stroke="black" points="333.47,-284.28 323.34,-281.17 329.32,-289.92 333.47,-284.28"/>
</g>
<!-- MATH0023 -->
<g id="node13" class="node">
<title>MATH0023</title>
<g id="a_node13"><a xlink:href="https://www.ucl.ac.uk/maths/sites/maths/files/math0023_1.pdf" xlink:title="Year 3, term 1">
<polygon fill="white" stroke="#ff4040" stroke-width="5" points="794.75,-199.5 642.25,-199.5 642.25,-157 794.75,-157 794.75,-199.5"/>
<text text-anchor="middle" x="718.5" y="-182.2" font-family="Times,serif" font-size="14.00">MATH0023</text>
<text text-anchor="middle" x="718.5" y="-164.95" font-family="Times,serif" font-size="14.00">Algebraic Topology</text>
</a>
</g>
</g>
<!-- MATH0014&#45;&gt;MATH0023 -->
<g id="edge11" class="edge">
<title>MATH0014&#45;&gt;MATH0023</title>
<path fill="none" stroke="black" d="M861.85,-233C839.13,-224.49 813.13,-214.74 789.56,-205.9"/>
<polygon fill="black" stroke="black" points="790.93,-202.67 780.34,-202.44 788.47,-209.23 790.93,-202.67"/>
</g>
<!-- MATH0104 -->
<g id="node24" class="node">
<title>MATH0104</title>
<g id="a_node24"><a xlink:href="https://www.ucl.ac.uk/maths/sites/maths/files/math0104_2.pdf" xlink:title="Year 3 or 4, term 1">
<polygon fill="white" stroke="#ff1493" stroke-width="5" points="1160.25,-42.5 1034.75,-42.5 1034.75,0 1160.25,0 1160.25,-42.5"/>
<text text-anchor="middle" x="1097.5" y="-25.2" font-family="Times,serif" font-size="14.00">MATH0104</text>
<text text-anchor="middle" x="1097.5" y="-7.95" font-family="Times,serif" font-size="14.00">Modular Forms</text>
</a>
</g>
</g>
<!-- MATH0014&#45;&gt;MATH0104 -->
<g id="edge25" class="edge">
<title>MATH0014&#45;&gt;MATH0104</title>
<path fill="none" stroke="black" d="M993.73,-233.13C1010.93,-224.84 1027.95,-213.85 1040.5,-199.5 1076.27,-158.59 1089.64,-94.98 1094.61,-56.12"/>
<polygon fill="black" stroke="black" points="1098.06,-56.74 1095.72,-46.41 1091.1,-55.94 1098.06,-56.74"/>
</g>
<!-- MATH0075 -->
<g id="node26" class="node">
<title>MATH0075</title>
<g id="a_node26"><a xlink:href="https://www.ucl.ac.uk/maths/sites/maths/files/math0075_3.pdf" xlink:title="Year 3 or 4, term 2">
<polygon fill="white" stroke="#cd1076" stroke-width="5" points="1031.75,-199.5 813.25,-199.5 813.25,-157 1031.75,-157 1031.75,-199.5"/>
<text text-anchor="middle" x="922.5" y="-182.2" font-family="Times,serif" font-size="14.00">MATH0075</text>
<text text-anchor="middle" x="922.5" y="-164.95" font-family="Times,serif" font-size="14.00">Lie Groups and Lie Algebras</text>
</a>
</g>
</g>
<!-- MATH0014&#45;&gt;MATH0075 -->
<g id="edge30" class="edge">
<title>MATH0014&#45;&gt;MATH0075</title>
<path fill="none" stroke="black" d="M922.5,-233.21C922.5,-226.89 922.5,-219.87 922.5,-213.04"/>
<polygon fill="black" stroke="black" points="926,-213.41 922.5,-203.41 919,-213.41 926,-213.41"/>
</g>
<!-- MATH0013&#45;&gt;MATH0104 -->
<g id="edge24" class="edge">
<title>MATH0013&#45;&gt;MATH0104</title>
<path fill="none" stroke="black" d="M480.16,-233.29C495.4,-190 530.37,-97.61 557.5,-78.5 594.55,-52.4 880.76,-33.76 1020.81,-26.11"/>
<polygon fill="black" stroke="black" points="1020.96,-29.61 1030.75,-25.57 1020.58,-22.62 1020.96,-29.61"/>
</g>
<!-- MATH0083 -->
<g id="node25" class="node">
<title>MATH0083</title>
<g id="a_node25"><a xlink:href="https://www.ucl.ac.uk/maths/sites/maths/files/math0083.pdf" xlink:title="Year 3 or 4, term 1">
<polygon fill="white" stroke="#ff1493" stroke-width="5" points="617.38,-42.5 327.62,-42.5 327.62,0 617.38,0 617.38,-42.5"/>
<text text-anchor="middle" x="472.5" y="-25.2" font-family="Times,serif" font-size="14.00">MATH0083</text>
<text text-anchor="middle" x="472.5" y="-7.95" font-family="Times,serif" font-size="14.00">Prime Numbers and their Distribution</text>
</a>
</g>
</g>
<!-- MATH0013&#45;&gt;MATH0083 -->
<g id="edge27" class="edge">
<title>MATH0013&#45;&gt;MATH0083</title>
<path fill="none" stroke="black" d="M472.5,-233.36C472.5,-192.32 472.5,-104.82 472.5,-56.35"/>
<polygon fill="black" stroke="black" points="476,-56.43 472.5,-46.43 469,-56.43 476,-56.43"/>
</g>
<!-- MATH0022 -->
<g id="node15" class="node">
<title>MATH0022</title>
<g id="a_node15"><a xlink:href="https://www.ucl.ac.uk/maths/sites/maths/files/math0022.pdf" xlink:title="Year 3, term 1">
<polygon fill="white" stroke="#ff4040" stroke-width="5" points="1867.62,-199.5 1753.38,-199.5 1753.38,-157 1867.62,-157 1867.62,-199.5"/>
<text text-anchor="middle" x="1810.5" y="-182.2" font-family="Times,serif" font-size="14.00">MATH0022</text>
<text text-anchor="middle" x="1810.5" y="-164.95" font-family="Times,serif" font-size="14.00">Galois Theory</text>
</a>
</g>
</g>
<!-- MATH0053&#45;&gt;MATH0022 -->
<g id="edge13" class="edge">
<title>MATH0053&#45;&gt;MATH0022</title>
<path fill="none" stroke="black" d="M1630.48,-238.87C1662.75,-228.18 1704.91,-214.22 1740.32,-202.49"/>
<polygon fill="black" stroke="black" points="1741.25,-205.87 1749.64,-199.41 1739.04,-199.23 1741.25,-205.87"/>
</g>
<!-- MATH0036 -->
<g id="node18" class="node">
<title>MATH0036</title>
<g id="a_node18"><a xlink:href="https://www.ucl.ac.uk/maths/sites/maths/files/math0036.pdf" xlink:title="Year 3, term 2">
<polygon fill="white" stroke="#cd3333" stroke-width="5" points="1285.38,-121 1163.62,-121 1163.62,-78.5 1285.38,-78.5 1285.38,-121"/>
<text text-anchor="middle" x="1224.5" y="-103.7" font-family="Times,serif" font-size="14.00">MATH0036</text>
<text text-anchor="middle" x="1224.5" y="-86.45" font-family="Times,serif" font-size="14.00">Elliptic Curves</text>
</a>
</g>
</g>
<!-- MATH0053&#45;&gt;MATH0036 -->
<g id="edge16" class="edge">
<title>MATH0053&#45;&gt;MATH0036</title>
<path fill="none" stroke="black" d="M1528.64,-233.54C1464.81,-205.67 1355.4,-157.91 1286.67,-127.9"/>
<polygon fill="black" stroke="black" points="1288.38,-124.82 1277.81,-124.03 1285.57,-131.24 1288.38,-124.82"/>
</g>
<!-- MATH0108 -->
<g id="node19" class="node">
<title>MATH0108</title>
<g id="a_node19"><a xlink:href="https://www.ucl.ac.uk/maths/sites/maths/files/0108_0.pdf" xlink:title="Year 3, term 2">
<polygon fill="white" stroke="#cd3333" stroke-width="5" points="1551.38,-121 1303.62,-121 1303.62,-78.5 1551.38,-78.5 1551.38,-121"/>
<text text-anchor="middle" x="1427.5" y="-103.7" font-family="Times,serif" font-size="14.00">MATH0108</text>
<text text-anchor="middle" x="1427.5" y="-86.45" font-family="Times,serif" font-size="14.00">Commutative Rings and Algebra</text>
</a>
</g>
</g>
<!-- MATH0053&#45;&gt;MATH0108 -->
<g id="edge17" class="edge">
<title>MATH0053&#45;&gt;MATH0108</title>
<path fill="none" stroke="black" d="M1557.4,-233.21C1531.06,-206.35 1486.92,-161.34 1457.51,-131.35"/>
<polygon fill="black" stroke="black" points="1460.19,-129.09 1450.69,-124.4 1455.19,-133.99 1460.19,-129.09"/>
</g>
<!-- MATH0035 -->
<g id="node20" class="node">
<title>MATH0035</title>
<g id="a_node20"><a xlink:href="https://www.ucl.ac.uk/maths/sites/maths/files/math0035.pdf" xlink:title="Year 3, term 2">
<polygon fill="white" stroke="#cd3333" stroke-width="5" points="2065.75,-121 1865.25,-121 1865.25,-78.5 2065.75,-78.5 2065.75,-121"/>
<text text-anchor="middle" x="1965.5" y="-103.7" font-family="Times,serif" font-size="14.00">MATH0035</text>
<text text-anchor="middle" x="1965.5" y="-86.45" font-family="Times,serif" font-size="14.00">Algebraic Number Theory</text>
</a>
</g>
</g>
<!-- MATH0053&#45;&gt;MATH0035 -->
<g id="edge19" class="edge">
<title>MATH0053&#45;&gt;MATH0035</title>
<path fill="none" stroke="black" d="M1630.19,-252.81C1712.62,-247.13 1871.01,-232.21 1915.5,-199.5 1936.86,-183.8 1949.72,-156.34 1957.03,-134.36"/>
<polygon fill="black" stroke="black" points="1960.35,-135.49 1959.93,-124.9 1953.66,-133.44 1960.35,-135.49"/>
</g>
<!-- MATH0021 -->
<g id="node21" class="node">
<title>MATH0021</title>
<g id="a_node21"><a xlink:href="https://www.ucl.ac.uk/maths/sites/maths/files/math0021.pdf" xlink:title="Year 3, term 2">
<polygon fill="white" stroke="#cd3333" stroke-width="5" points="1771.75,-121 1607.25,-121 1607.25,-78.5 1771.75,-78.5 1771.75,-121"/>
<text text-anchor="middle" x="1689.5" y="-103.7" font-family="Times,serif" font-size="14.00">MATH0021</text>
<text text-anchor="middle" x="1689.5" y="-86.45" font-family="Times,serif" font-size="14.00">Homological Algebra</text>
</a>
</g>
</g>
<!-- MATH0053&#45;&gt;MATH0021 -->
<g id="edge21" class="edge">
<title>MATH0053&#45;&gt;MATH0021</title>
<path fill="none" stroke="black" d="M1595.49,-233.21C1614.31,-206.69 1645.68,-162.49 1666.96,-132.51"/>
<polygon fill="black" stroke="black" points="1669.68,-134.73 1672.61,-124.55 1663.97,-130.68 1669.68,-134.73"/>
</g>
<!-- MATH0073 -->
<g id="node23" class="node">
<title>MATH0073</title>
<g id="a_node23"><a xlink:href="https://www.ucl.ac.uk/maths/sites/maths/files/math0073.pdf" xlink:title="Year 3 or 4, term 1">
<polygon fill="white" stroke="#ff1493" stroke-width="5" points="1637.25,-42.5 1457.75,-42.5 1457.75,0 1637.25,0 1637.25,-42.5"/>
<text text-anchor="middle" x="1547.5" y="-25.2" font-family="Times,serif" font-size="14.00">MATH0073</text>
<text text-anchor="middle" x="1547.5" y="-7.95" font-family="Times,serif" font-size="14.00">Representation Theory</text>
</a>
</g>
</g>
<!-- MATH0053&#45;&gt;MATH0073 -->
<g id="edge22" class="edge">
<title>MATH0053&#45;&gt;MATH0073</title>
<path fill="none" stroke="black" d="M1577.96,-233.25C1575.45,-199.47 1569.81,-133.74 1560.5,-78.5 1559.26,-71.17 1557.65,-63.37 1555.99,-55.98"/>
<polygon fill="black" stroke="black" points="1559.41,-55.25 1553.72,-46.32 1552.6,-56.85 1559.41,-55.25"/>
</g>
<!-- MATH0051&#45;&gt;MATH0083 -->
<g id="edge28" class="edge">
<title>MATH0051&#45;&gt;MATH0083</title>
<path fill="none" stroke="black" d="M308.86,-233.36C341.21,-191.63 410.8,-101.84 447.95,-53.91"/>
<polygon fill="black" stroke="black" points="450.64,-56.16 454,-46.11 445.11,-51.87 450.64,-56.16"/>
</g>
<!-- MATH0029 -->
<g id="node14" class="node">
<title>MATH0029</title>
<g id="a_node14"><a xlink:href="https://www.ucl.ac.uk/maths/sites/maths/files/math0029.pdf" xlink:title="Year 3, term 1">
<polygon fill="white" stroke="#ff4040" stroke-width="5" points="253,-199.5 0,-199.5 0,-157 253,-157 253,-199.5"/>
<text text-anchor="middle" x="126.5" y="-182.2" font-family="Times,serif" font-size="14.00">MATH0029</text>
<text text-anchor="middle" x="126.5" y="-164.95" font-family="Times,serif" font-size="14.00">Graph Theory and Combinatorics</text>
</a>
</g>
</g>
<!-- MATH0057&#45;&gt;MATH0029 -->
<g id="edge12" class="edge">
<title>MATH0057&#45;&gt;MATH0029</title>
<path fill="none" stroke="black" stroke-dasharray="5,2" d="M126.5,-233.21C126.5,-226.89 126.5,-219.87 126.5,-213.04"/>
<polygon fill="black" stroke="black" points="130,-213.41 126.5,-203.41 123,-213.41 130,-213.41"/>
</g>
<!-- MATH0034&#45;&gt;MATH0036 -->
<g id="edge15" class="edge">
<title>MATH0034&#45;&gt;MATH0036</title>
<path fill="none" stroke="black" d="M1148.44,-233.21C1163.54,-206.92 1188.61,-163.26 1205.81,-133.29"/>
<polygon fill="black" stroke="black" points="1208.85,-135.04 1210.79,-124.63 1202.77,-131.56 1208.85,-135.04"/>
</g>
<!-- MATH0034&#45;&gt;MATH0035 -->
<g id="edge18" class="edge">
<title>MATH0034&#45;&gt;MATH0035</title>
<path fill="none" stroke="black" d="M1201.98,-252.05C1378.29,-242.05 1846.46,-214.25 1876.5,-199.5 1877.53,-198.99 1911.83,-160.78 1937.54,-132.05"/>
<polygon fill="black" stroke="black" points="1940.13,-134.4 1944.18,-124.62 1934.91,-129.74 1940.13,-134.4"/>
</g>
<!-- MATH0034&#45;&gt;MATH0104 -->
<g id="edge26" class="edge">
<title>MATH0034&#45;&gt;MATH0104</title>
<path fill="none" stroke="black" stroke-dasharray="5,2" d="M1133.25,-233.24C1129.69,-199.45 1122.07,-133.7 1111.5,-78.5 1110.1,-71.17 1108.33,-63.37 1106.53,-55.98"/>
<polygon fill="black" stroke="black" points="1109.93,-55.15 1104.09,-46.31 1103.14,-56.86 1109.93,-55.15"/>
</g>
<!-- MATH0034&#45;&gt;MATH0083 -->
<g id="edge29" class="edge">
<title>MATH0034&#45;&gt;MATH0083</title>
<path fill="none" stroke="black" d="M1120.02,-233.31C1103.12,-210.58 1073.97,-176.11 1040.5,-157 913.89,-84.7 750.21,-51.11 631.1,-35.55"/>
<polygon fill="black" stroke="black" points="631.58,-32.08 621.22,-34.29 630.7,-39.03 631.58,-32.08"/>
</g>
<!-- MATH0022&#45;&gt;MATH0035 -->
<g id="edge20" class="edge">
<title>MATH0022&#45;&gt;MATH0035</title>
<path fill="none" stroke="black" stroke-dasharray="5,2" d="M1856.59,-154.5C1873.22,-146.29 1892.18,-136.94 1909.57,-128.36"/>
<polygon fill="black" stroke="black" points="1910.82,-131.64 1918.23,-124.08 1907.72,-125.36 1910.82,-131.64"/>
</g>
<!-- MATH0076 -->
<g id="node27" class="node">
<title>MATH0076</title>
<g id="a_node27"><a xlink:href="https://www.ucl.ac.uk/maths/sites/maths/files/math0076_3.pdf" xlink:title="Year 4, term 1">
<polygon fill="white" stroke="#1c86ee" stroke-width="5" points="1813.75,-42.5 1655.25,-42.5 1655.25,0 1813.75,0 1813.75,-42.5"/>
<text text-anchor="middle" x="1734.5" y="-25.2" font-family="Times,serif" font-size="14.00">MATH0076</text>
<text text-anchor="middle" x="1734.5" y="-7.95" font-family="Times,serif" font-size="14.00">Algebraic Geometry</text>
</a>
</g>
</g>
<!-- MATH0022&#45;&gt;MATH0076 -->
<g id="edge32" class="edge">
<title>MATH0022&#45;&gt;MATH0076</title>
<path fill="none" stroke="black" d="M1806.28,-154.71C1801.82,-134.03 1793.58,-103 1780.5,-78.5 1775.89,-69.86 1769.85,-61.29 1763.66,-53.54"/>
<polygon fill="black" stroke="black" points="1766.48,-51.45 1757.39,-46.02 1761.11,-55.94 1766.48,-51.45"/>
</g>
<!-- MATH0061 -->
<g id="node28" class="node">
<title>MATH0061</title>
<g id="a_node28"><a xlink:href="https://www.ucl.ac.uk/maths/sites/maths/files/math0061_0.pdf" xlink:title="Year 4, term 2">
<polygon fill="white" stroke="#1874cd" stroke-width="5" points="2160.88,-42.5 1832.12,-42.5 1832.12,0 2160.88,0 2160.88,-42.5"/>
<text text-anchor="middle" x="1996.5" y="-25.2" font-family="Times,serif" font-size="14.00">MATH0061</text>
<text text-anchor="middle" x="1996.5" y="-7.95" font-family="Times,serif" font-size="14.00">Further Topics in Algebraic Number Theory</text>
</a>
</g>
</g>
<!-- MATH0022&#45;&gt;MATH0061 -->
<g id="edge34" class="edge">
<title>MATH0022&#45;&gt;MATH0061</title>
<path fill="none" stroke="black" d="M1815.79,-154.79C1822.06,-132.68 1834.53,-99.31 1856.5,-78.5 1869.18,-66.49 1884.74,-56.92 1900.84,-49.33"/>
<polygon fill="black" stroke="black" points="1901.8,-52.74 1909.52,-45.48 1898.96,-46.34 1901.8,-52.74"/>
</g>
<!-- MATH0109 -->
<g id="node16" class="node">
<title>MATH0109</title>
<g id="a_node16"><a xlink:href="https://www.ucl.ac.uk/maths/sites/maths/files/math0109.pdf" xlink:title="Year 3, term 1">
<polygon fill="white" stroke="#ff4040" stroke-width="5" points="2184.5,-199.5 1988.5,-199.5 1988.5,-157 2184.5,-157 2184.5,-199.5"/>
<text text-anchor="middle" x="2086.5" y="-182.2" font-family="Times,serif" font-size="14.00">MATH0109</text>
<text text-anchor="middle" x="2086.5" y="-164.95" font-family="Times,serif" font-size="14.00">Theorem Proving in Lean</text>
</a>
</g>
</g>
<!-- MATH0035&#45;&gt;MATH0061 -->
<g id="edge33" class="edge">
<title>MATH0035&#45;&gt;MATH0061</title>
<path fill="none" stroke="black" d="M1974.63,-76.21C1977.26,-69.73 1980.18,-62.53 1983.01,-55.54"/>
<polygon fill="black" stroke="black" points="1986.24,-56.88 1986.76,-46.29 1979.76,-54.25 1986.24,-56.88"/>
</g>
<!-- MATH0021&#45;&gt;MATH0073 -->
<g id="edge23" class="edge">
<title>MATH0021&#45;&gt;MATH0073</title>
<path fill="none" stroke="black" stroke-dasharray="5,2" d="M1647.28,-76C1632.26,-67.91 1615.17,-58.7 1599.43,-50.22"/>
<polygon fill="black" stroke="black" points="1601.11,-47.16 1590.65,-45.49 1597.79,-53.32 1601.11,-47.16"/>
</g>
<!-- MATH0021&#45;&gt;MATH0076 -->
<g id="edge31" class="edge">
<title>MATH0021&#45;&gt;MATH0076</title>
<path fill="none" stroke="black" d="M1702.76,-76.21C1706.75,-69.42 1711.21,-61.84 1715.5,-54.55"/>
<polygon fill="black" stroke="black" points="1718.36,-56.59 1720.41,-46.2 1712.33,-53.04 1718.36,-56.59"/>
</g>
<!-- MATH0038 -->
<g id="node22" class="node">
<title>MATH0038</title>
<g id="a_node22"><a xlink:href="https://www.ucl.ac.uk/maths/sites/maths/files/math0038.pdf" xlink:title="Year 3, term 2">
<polygon fill="white" stroke="#cd3333" stroke-width="5" points="2268.88,-121 2084.12,-121 2084.12,-78.5 2268.88,-78.5 2268.88,-121"/>
<text text-anchor="middle" x="2176.5" y="-103.7" font-family="Times,serif" font-size="14.00">MATH0038</text>
<text text-anchor="middle" x="2176.5" y="-86.45" font-family="Times,serif" font-size="14.00">History of Mathematics</text>
</a>
</g>
</g>
</g>
</svg>
