<?xml version="1.0" encoding="UTF-8" standalone="no"?>
<!DOCTYPE svg PUBLIC "-//W3C//DTD SVG 1.1//EN"
 "http://www.w3.org/Graphics/SVG/1.1/DTD/svg11.dtd">
<!-- Generated by graphviz version 13.1.2 (0)
 -->
<!-- Pages: 1 -->
<svg width="2276pt" height="443pt"
 viewBox="0.00 0.00 2276.00 443.00" xmlns="http://www.w3.org/2000/svg" xmlns:xlink="http://www.w3.org/1999/xlink">
<g id="graph0" class="graph" transform="scale(1 1) rotate(0) translate(4 439)">
<polygon fill="white" stroke="none" points="-4,4 -4,-439 2271.88,-439 2271.88,4 -4,4"/>
<!-- MATH0010 -->
<g id="node1" class="node">
<title>MATH0010</title>
<g id="a_node1"><a xlink:href="https://www.ucl.ac.uk/mathematical-physical-sciences/sites/mathematical_physical_sciences/files/math0010.pdf" xlink:title="Year 1, term 1">
<polygon fill="white" stroke="#ffb90f" stroke-width="5" points="223.75,-435 29.25,-435 29.25,-392.5 223.75,-392.5 223.75,-435"/>
<text xml:space="preserve" text-anchor="middle" x="126.5" y="-417.7" font-family="Times,serif" font-size="14.00">MATH0010</text>
<text xml:space="preserve" text-anchor="middle" x="126.5" y="-400.45" font-family="Times,serif" font-size="14.00">Mathematical Methods 1</text>
</a>
</g>
</g>
<!-- MATH0011 -->
<g id="node4" class="node">
<title>MATH0011</title>
<g id="a_node4"><a xlink:href="https://www.ucl.ac.uk/mathematical-physical-sciences/sites/mathematical_physical_sciences/files/math0011_2.pdf" xlink:title="Year 1, term 2">
<polygon fill="white" stroke="#cd950c" stroke-width="5" points="223.75,-356.5 29.25,-356.5 29.25,-314 223.75,-314 223.75,-356.5"/>
<text xml:space="preserve" text-anchor="middle" x="126.5" y="-339.2" font-family="Times,serif" font-size="14.00">MATH0011</text>
<text xml:space="preserve" text-anchor="middle" x="126.5" y="-321.95" font-family="Times,serif" font-size="14.00">Mathematical Methods 2</text>
</a>
</g>
</g>
<!-- MATH0010&#45;&gt;MATH0011 -->
<g id="edge1" class="edge">
<title>MATH0010&#45;&gt;MATH0011</title>
<g id="a_edge1"><a xlink:title="required prerequisite">
<path fill="none" stroke="black" d="M126.5,-390.21C126.5,-383.89 126.5,-376.87 126.5,-370.04"/>
<polygon fill="black" stroke="black" points="130,-370.41 126.5,-360.41 123,-370.41 130,-370.41"/>
</a>
</g>
</g>
<!-- MATH0003 -->
<g id="node2" class="node">
<title>MATH0003</title>
<g id="a_node2"><a xlink:href="https://www.ucl.ac.uk/mathematical-physical-sciences/sites/mathematical_physical_sciences/files/math0003.pdf" xlink:title="Year 1, term 1">
<polygon fill="white" stroke="#ffb90f" stroke-width="5" points="483,-435 386,-435 386,-392.5 483,-392.5 483,-435"/>
<text xml:space="preserve" text-anchor="middle" x="434.5" y="-417.7" font-family="Times,serif" font-size="14.00">MATH0003</text>
<text xml:space="preserve" text-anchor="middle" x="434.5" y="-400.45" font-family="Times,serif" font-size="14.00">Analysis 1</text>
</a>
</g>
</g>
<!-- MATH0004 -->
<g id="node5" class="node">
<title>MATH0004</title>
<g id="a_node5"><a xlink:href="https://www.ucl.ac.uk/mathematical-physical-sciences/sites/mathematical_physical_sciences/files/math0004.pdf" xlink:title="Year 1, term 2">
<polygon fill="white" stroke="#cd950c" stroke-width="5" points="444,-356.5 347,-356.5 347,-314 444,-314 444,-356.5"/>
<text xml:space="preserve" text-anchor="middle" x="395.5" y="-339.2" font-family="Times,serif" font-size="14.00">MATH0004</text>
<text xml:space="preserve" text-anchor="middle" x="395.5" y="-321.95" font-family="Times,serif" font-size="14.00">Analysis 2</text>
</a>
</g>
</g>
<!-- MATH0003&#45;&gt;MATH0004 -->
<g id="edge2" class="edge">
<title>MATH0003&#45;&gt;MATH0004</title>
<g id="a_edge2"><a xlink:title="required prerequisite">
<path fill="none" stroke="black" d="M423.01,-390.21C419.63,-383.58 415.86,-376.18 412.22,-369.04"/>
<polygon fill="black" stroke="black" points="415.39,-367.56 407.73,-360.24 409.15,-370.74 415.39,-367.56"/>
</a>
</g>
</g>
<!-- MATH0013 -->
<g id="node7" class="node">
<title>MATH0013</title>
<g id="a_node7"><a xlink:href="https://www.ucl.ac.uk/mathematical-physical-sciences/sites/mathematical_physical_sciences/files/math0013.pdf" xlink:title="Year 2, term 1">
<polygon fill="white" stroke="#00ff00" stroke-width="5" points="586.62,-278 358.38,-278 358.38,-235.5 586.62,-235.5 586.62,-278"/>
<text xml:space="preserve" text-anchor="middle" x="472.5" y="-260.7" font-family="Times,serif" font-size="14.00">MATH0013</text>
<text xml:space="preserve" text-anchor="middle" x="472.5" y="-243.45" font-family="Times,serif" font-size="14.00">Analysis 3 &#45; Complex Analysis</text>
</a>
</g>
</g>
<!-- MATH0003&#45;&gt;MATH0013 -->
<g id="edge4" class="edge">
<title>MATH0003&#45;&gt;MATH0013</title>
<g id="a_edge4"><a xlink:title="required prerequisite">
<path fill="none" stroke="black" d="M442.88,-390.25C446.48,-380.04 450.53,-367.76 453.5,-356.5 459.14,-335.11 463.85,-310.7 467.17,-291.51"/>
<polygon fill="black" stroke="black" points="470.6,-292.23 468.81,-281.79 463.7,-291.07 470.6,-292.23"/>
</a>
</g>
</g>
<!-- MATH0005 -->
<g id="node3" class="node">
<title>MATH0005</title>
<g id="a_node3"><a xlink:href="https://www.ucl.ac.uk/mathematical-physical-sciences/sites/mathematical_physical_sciences/files/math0005.pdf" xlink:title="Year 1, term 1">
<polygon fill="white" stroke="#ffb90f" stroke-width="5" points="1110,-435 1013,-435 1013,-392.5 1110,-392.5 1110,-435"/>
<text xml:space="preserve" text-anchor="middle" x="1061.5" y="-417.7" font-family="Times,serif" font-size="14.00">MATH0005</text>
<text xml:space="preserve" text-anchor="middle" x="1061.5" y="-400.45" font-family="Times,serif" font-size="14.00">Algebra 1</text>
</a>
</g>
</g>
<!-- MATH0006 -->
<g id="node6" class="node">
<title>MATH0006</title>
<g id="a_node6"><a xlink:href="https://www.ucl.ac.uk/mathematical-physical-sciences/sites/mathematical_physical_sciences/files/math0006.pdf" xlink:title="Year 1, term 2">
<polygon fill="white" stroke="#cd950c" stroke-width="5" points="1110,-356.5 1013,-356.5 1013,-314 1110,-314 1110,-356.5"/>
<text xml:space="preserve" text-anchor="middle" x="1061.5" y="-339.2" font-family="Times,serif" font-size="14.00">MATH0006</text>
<text xml:space="preserve" text-anchor="middle" x="1061.5" y="-321.95" font-family="Times,serif" font-size="14.00">Algebra 2</text>
</a>
</g>
</g>
<!-- MATH0005&#45;&gt;MATH0006 -->
<g id="edge3" class="edge">
<title>MATH0005&#45;&gt;MATH0006</title>
<g id="a_edge3"><a xlink:title="required prerequisite">
<path fill="none" stroke="black" d="M1061.5,-390.21C1061.5,-383.89 1061.5,-376.87 1061.5,-370.04"/>
<polygon fill="black" stroke="black" points="1065,-370.41 1061.5,-360.41 1058,-370.41 1065,-370.41"/>
</a>
</g>
</g>
<!-- MATH0057 -->
<g id="node10" class="node">
<title>MATH0057</title>
<g id="a_node10"><a xlink:href="https://www.ucl.ac.uk/mathematical-physical-sciences/sites/mathematical_physical_sciences/files/math0057.pdf" xlink:title="Year 2 or 3, term 2">
<polygon fill="white" stroke="#8ee5ee" stroke-width="5" points="225.25,-278 27.75,-278 27.75,-235.5 225.25,-235.5 225.25,-278"/>
<text xml:space="preserve" text-anchor="middle" x="126.5" y="-260.7" font-family="Times,serif" font-size="14.00">MATH0057</text>
<text xml:space="preserve" text-anchor="middle" x="126.5" y="-243.45" font-family="Times,serif" font-size="14.00">Probability and Statistics</text>
</a>
</g>
</g>
<!-- MATH0011&#45;&gt;MATH0057 -->
<g id="edge8" class="edge">
<title>MATH0011&#45;&gt;MATH0057</title>
<g id="a_edge8"><a xlink:title="required prerequisite">
<path fill="none" stroke="black" d="M126.5,-311.71C126.5,-305.39 126.5,-298.37 126.5,-291.54"/>
<polygon fill="black" stroke="black" points="130,-291.91 126.5,-281.91 123,-291.91 130,-291.91"/>
</a>
</g>
</g>
<!-- MATH0004&#45;&gt;MATH0013 -->
<g id="edge5" class="edge">
<title>MATH0004&#45;&gt;MATH0013</title>
<g id="a_edge5"><a xlink:title="recommended prerequisite">
<path fill="none" stroke="black" stroke-dasharray="5,2" d="M418.19,-311.71C425.64,-304.31 434.05,-295.95 441.98,-288.07"/>
<polygon fill="black" stroke="black" points="444.01,-290.99 448.64,-281.46 439.08,-286.02 444.01,-290.99"/>
</a>
</g>
</g>
<!-- MATH0051 -->
<g id="node12" class="node">
<title>MATH0051</title>
<g id="a_node12"><a xlink:href="https://www.ucl.ac.uk/mathematical-physical-sciences/sites/mathematical_physical_sciences/files/math0051.pdf" xlink:title="Year 2 or 3, term 2">
<polygon fill="white" stroke="#8ee5ee" stroke-width="5" points="340,-278 243,-278 243,-235.5 340,-235.5 340,-278"/>
<text xml:space="preserve" text-anchor="middle" x="291.5" y="-260.7" font-family="Times,serif" font-size="14.00">MATH0051</text>
<text xml:space="preserve" text-anchor="middle" x="291.5" y="-243.45" font-family="Times,serif" font-size="14.00">Analysis 4</text>
</a>
</g>
</g>
<!-- MATH0004&#45;&gt;MATH0051 -->
<g id="edge10" class="edge">
<title>MATH0004&#45;&gt;MATH0051</title>
<g id="a_edge10"><a xlink:title="required prerequisite">
<path fill="none" stroke="black" d="M364.58,-311.5C354.1,-303.8 342.25,-295.08 331.18,-286.94"/>
<polygon fill="black" stroke="black" points="333.47,-284.28 323.34,-281.17 329.32,-289.92 333.47,-284.28"/>
</a>
</g>
</g>
<!-- MATH0014 -->
<g id="node8" class="node">
<title>MATH0014</title>
<g id="a_node8"><a xlink:href="https://www.ucl.ac.uk/mathematical-physical-sciences/sites/mathematical_physical_sciences/files/math0014.pdf" xlink:title="Year 2, term 1">
<polygon fill="white" stroke="#00ff00" stroke-width="5" points="1085.38,-278 825.62,-278 825.62,-235.5 1085.38,-235.5 1085.38,-278"/>
<text xml:space="preserve" text-anchor="middle" x="955.5" y="-260.7" font-family="Times,serif" font-size="14.00">MATH0014</text>
<text xml:space="preserve" text-anchor="middle" x="955.5" y="-243.45" font-family="Times,serif" font-size="14.00">Algebra 3: Further Linear Algebra</text>
</a>
</g>
</g>
<!-- MATH0006&#45;&gt;MATH0014 -->
<g id="edge6" class="edge">
<title>MATH0006&#45;&gt;MATH0014</title>
<g id="a_edge6"><a xlink:title="required prerequisite">
<path fill="none" stroke="black" d="M1029.98,-311.5C1019.3,-303.8 1007.22,-295.08 995.95,-286.94"/>
<polygon fill="black" stroke="black" points="998.1,-284.18 987.94,-281.16 994,-289.85 998.1,-284.18"/>
</a>
</g>
</g>
<!-- MATH0053 -->
<g id="node9" class="node">
<title>MATH0053</title>
<g id="a_node9"><a xlink:href="https://www.ucl.ac.uk/mathematical-physical-sciences/sites/mathematical_physical_sciences/files/math0053.pdf" xlink:title="Year 2 or 3, term 2">
<polygon fill="white" stroke="#8ee5ee" stroke-width="5" points="1580,-278 1483,-278 1483,-235.5 1580,-235.5 1580,-278"/>
<text xml:space="preserve" text-anchor="middle" x="1531.5" y="-260.7" font-family="Times,serif" font-size="14.00">MATH0053</text>
<text xml:space="preserve" text-anchor="middle" x="1531.5" y="-243.45" font-family="Times,serif" font-size="14.00">Algebra 4</text>
</a>
</g>
</g>
<!-- MATH0006&#45;&gt;MATH0053 -->
<g id="edge7" class="edge">
<title>MATH0006&#45;&gt;MATH0053</title>
<g id="a_edge7"><a xlink:title="required prerequisite">
<path fill="none" stroke="black" d="M1112.24,-325.99C1198.95,-311.88 1375.32,-283.17 1469.3,-267.87"/>
<polygon fill="black" stroke="black" points="1469.81,-271.34 1479.12,-266.28 1468.69,-264.43 1469.81,-271.34"/>
</a>
</g>
</g>
<!-- MATH0034 -->
<g id="node11" class="node">
<title>MATH0034</title>
<g id="a_node11"><a xlink:href="https://www.ucl.ac.uk/mathematical-physical-sciences/sites/mathematical_physical_sciences/files/math0034.pdf" xlink:title="Year 2 or 3, term 2">
<polygon fill="white" stroke="#8ee5ee" stroke-width="5" points="1231.75,-278 1103.25,-278 1103.25,-235.5 1231.75,-235.5 1231.75,-278"/>
<text xml:space="preserve" text-anchor="middle" x="1167.5" y="-260.7" font-family="Times,serif" font-size="14.00">MATH0034</text>
<text xml:space="preserve" text-anchor="middle" x="1167.5" y="-243.45" font-family="Times,serif" font-size="14.00">Number Theory</text>
</a>
</g>
</g>
<!-- MATH0006&#45;&gt;MATH0034 -->
<g id="edge9" class="edge">
<title>MATH0006&#45;&gt;MATH0034</title>
<g id="a_edge9"><a xlink:title="required prerequisite">
<path fill="none" stroke="black" d="M1093.02,-311.5C1103.7,-303.8 1115.78,-295.08 1127.05,-286.94"/>
<polygon fill="black" stroke="black" points="1129,-289.85 1135.06,-281.16 1124.9,-284.18 1129,-289.85"/>
</a>
</g>
</g>
<!-- MATH0037 -->
<g id="node17" class="node">
<title>MATH0037</title>
<g id="a_node17"><a xlink:href="https://www.ucl.ac.uk/mathematical-physical-sciences/sites/mathematical_physical_sciences/files/math0037.pdf" xlink:title="Year 3, term 2">
<polygon fill="white" stroke="#cd3333" stroke-width="5" points="663,-121 566,-121 566,-78.5 663,-78.5 663,-121"/>
<text xml:space="preserve" text-anchor="middle" x="614.5" y="-103.7" font-family="Times,serif" font-size="14.00">MATH0037</text>
<text xml:space="preserve" text-anchor="middle" x="614.5" y="-86.45" font-family="Times,serif" font-size="14.00">Logic</text>
</a>
</g>
</g>
<!-- MATH0006&#45;&gt;MATH0037 -->
<g id="edge14" class="edge">
<title>MATH0006&#45;&gt;MATH0037</title>
<g id="a_edge14"><a xlink:title="required prerequisite">
<path fill="none" stroke="black" d="M1010.78,-335.02C919.13,-333.36 726.81,-315.4 633.5,-199.5 618.88,-181.34 614.34,-155.26 613.35,-134.46"/>
<polygon fill="black" stroke="black" points="616.85,-134.67 613.15,-124.74 609.85,-134.81 616.85,-134.67"/>
</a>
</g>
</g>
<!-- MATH0104 -->
<g id="node24" class="node">
<title>MATH0104</title>
<g id="a_node24"><a xlink:href="https://www.ucl.ac.uk/mathematical-physical-sciences/sites/mathematical_physical_sciences/files/math0104_2.pdf" xlink:title="Year 3 or 4, term 1">
<polygon fill="white" stroke="#ff1493" stroke-width="5" points="1160.25,-42.5 1034.75,-42.5 1034.75,0 1160.25,0 1160.25,-42.5"/>
<text xml:space="preserve" text-anchor="middle" x="1097.5" y="-25.2" font-family="Times,serif" font-size="14.00">MATH0104</text>
<text xml:space="preserve" text-anchor="middle" x="1097.5" y="-7.95" font-family="Times,serif" font-size="14.00">Modular Forms</text>
</a>
</g>
</g>
<!-- MATH0013&#45;&gt;MATH0104 -->
<g id="edge24" class="edge">
<title>MATH0013&#45;&gt;MATH0104</title>
<g id="a_edge24"><a xlink:title="required prerequisite">
<path fill="none" stroke="black" d="M480.16,-233.29C495.4,-190 530.37,-97.61 557.5,-78.5 594.55,-52.4 880.76,-33.76 1020.81,-26.11"/>
<polygon fill="black" stroke="black" points="1020.96,-29.61 1030.75,-25.57 1020.58,-22.62 1020.96,-29.61"/>
</a>
</g>
</g>
<!-- MATH0083 -->
<g id="node25" class="node">
<title>MATH0083</title>
<g id="a_node25"><a xlink:href="https://www.ucl.ac.uk/mathematical-physical-sciences/sites/mathematical_physical_sciences/files/math0083.pdf" xlink:title="Year 3 or 4, term 1">
<polygon fill="white" stroke="#ff1493" stroke-width="5" points="617.38,-42.5 327.62,-42.5 327.62,0 617.38,0 617.38,-42.5"/>
<text xml:space="preserve" text-anchor="middle" x="472.5" y="-25.2" font-family="Times,serif" font-size="14.00">MATH0083</text>
<text xml:space="preserve" text-anchor="middle" x="472.5" y="-7.95" font-family="Times,serif" font-size="14.00">Prime Numbers and their Distribution</text>
</a>
</g>
</g>
<!-- MATH0013&#45;&gt;MATH0083 -->
<g id="edge27" class="edge">
<title>MATH0013&#45;&gt;MATH0083</title>
<g id="a_edge27"><a xlink:title="required prerequisite">
<path fill="none" stroke="black" d="M472.5,-233.36C472.5,-192.32 472.5,-104.82 472.5,-56.35"/>
<polygon fill="black" stroke="black" points="476,-56.43 472.5,-46.43 469,-56.43 476,-56.43"/>
</a>
</g>
</g>
<!-- MATH0023 -->
<g id="node15" class="node">
<title>MATH0023</title>
<g id="a_node15"><a xlink:href="https://www.ucl.ac.uk/mathematical-physical-sciences/sites/mathematical_physical_sciences/files/math0023_1.pdf" xlink:title="Year 3, term 1">
<polygon fill="white" stroke="#ff4040" stroke-width="5" points="1031.75,-199.5 879.25,-199.5 879.25,-157 1031.75,-157 1031.75,-199.5"/>
<text xml:space="preserve" text-anchor="middle" x="955.5" y="-182.2" font-family="Times,serif" font-size="14.00">MATH0023</text>
<text xml:space="preserve" text-anchor="middle" x="955.5" y="-164.95" font-family="Times,serif" font-size="14.00">Algebraic Topology</text>
</a>
</g>
</g>
<!-- MATH0014&#45;&gt;MATH0023 -->
<g id="edge13" class="edge">
<title>MATH0014&#45;&gt;MATH0023</title>
<g id="a_edge13"><a xlink:title="required prerequisite">
<path fill="none" stroke="black" d="M955.5,-233.21C955.5,-226.89 955.5,-219.87 955.5,-213.04"/>
<polygon fill="black" stroke="black" points="959,-213.41 955.5,-203.41 952,-213.41 959,-213.41"/>
</a>
</g>
</g>
<!-- MATH0014&#45;&gt;MATH0104 -->
<g id="edge25" class="edge">
<title>MATH0014&#45;&gt;MATH0104</title>
<g id="a_edge25"><a xlink:title="required prerequisite">
<path fill="none" stroke="black" d="M1001.58,-233.16C1015.72,-224.33 1030.24,-213.04 1040.5,-199.5 1073.15,-156.43 1087.47,-94.01 1093.47,-55.89"/>
<polygon fill="black" stroke="black" points="1096.88,-56.78 1094.86,-46.38 1089.95,-55.77 1096.88,-56.78"/>
</a>
</g>
</g>
<!-- MATH0075 -->
<g id="node26" class="node">
<title>MATH0075</title>
<g id="a_node26"><a xlink:href="https://www.ucl.ac.uk/mathematical-physical-sciences/sites/mathematical_physical_sciences/files/math0075_3.pdf" xlink:title="Year 3 or 4, term 2">
<polygon fill="white" stroke="#cd1076" stroke-width="5" points="860.75,-199.5 642.25,-199.5 642.25,-157 860.75,-157 860.75,-199.5"/>
<text xml:space="preserve" text-anchor="middle" x="751.5" y="-182.2" font-family="Times,serif" font-size="14.00">MATH0075</text>
<text xml:space="preserve" text-anchor="middle" x="751.5" y="-164.95" font-family="Times,serif" font-size="14.00">Lie Groups and Lie Algebras</text>
</a>
</g>
</g>
<!-- MATH0014&#45;&gt;MATH0075 -->
<g id="edge30" class="edge">
<title>MATH0014&#45;&gt;MATH0075</title>
<g id="a_edge30"><a xlink:title="required prerequisite">
<path fill="none" stroke="black" d="M894.85,-233C872.13,-224.49 846.13,-214.74 822.56,-205.9"/>
<polygon fill="black" stroke="black" points="823.93,-202.67 813.34,-202.44 821.47,-209.23 823.93,-202.67"/>
</a>
</g>
</g>
<!-- MATH0022 -->
<g id="node13" class="node">
<title>MATH0022</title>
<g id="a_node13"><a xlink:href="https://www.ucl.ac.uk/mathematical-physical-sciences/sites/mathematical_physical_sciences/files/math0022.pdf" xlink:title="Year 3, term 1">
<polygon fill="white" stroke="#ff4040" stroke-width="5" points="1588.62,-199.5 1474.38,-199.5 1474.38,-157 1588.62,-157 1588.62,-199.5"/>
<text xml:space="preserve" text-anchor="middle" x="1531.5" y="-182.2" font-family="Times,serif" font-size="14.00">MATH0022</text>
<text xml:space="preserve" text-anchor="middle" x="1531.5" y="-164.95" font-family="Times,serif" font-size="14.00">Galois Theory</text>
</a>
</g>
</g>
<!-- MATH0053&#45;&gt;MATH0022 -->
<g id="edge11" class="edge">
<title>MATH0053&#45;&gt;MATH0022</title>
<g id="a_edge11"><a xlink:title="required prerequisite">
<path fill="none" stroke="black" d="M1531.5,-233.21C1531.5,-226.89 1531.5,-219.87 1531.5,-213.04"/>
<polygon fill="black" stroke="black" points="1535,-213.41 1531.5,-203.41 1528,-213.41 1535,-213.41"/>
</a>
</g>
</g>
<!-- MATH0035 -->
<g id="node18" class="node">
<title>MATH0035</title>
<g id="a_node18"><a xlink:href="https://www.ucl.ac.uk/mathematical-physical-sciences/sites/mathematical_physical_sciences/files/math0035.pdf" xlink:title="Year 3, term 2">
<polygon fill="white" stroke="#cd3333" stroke-width="5" points="1503.75,-121 1303.25,-121 1303.25,-78.5 1503.75,-78.5 1503.75,-121"/>
<text xml:space="preserve" text-anchor="middle" x="1403.5" y="-103.7" font-family="Times,serif" font-size="14.00">MATH0035</text>
<text xml:space="preserve" text-anchor="middle" x="1403.5" y="-86.45" font-family="Times,serif" font-size="14.00">Algebraic Number Theory</text>
</a>
</g>
</g>
<!-- MATH0053&#45;&gt;MATH0035 -->
<g id="edge16" class="edge">
<title>MATH0053&#45;&gt;MATH0035</title>
<g id="a_edge16"><a xlink:title="required prerequisite">
<path fill="none" stroke="black" d="M1501.16,-233.15C1489.29,-223.51 1476.03,-211.69 1465.5,-199.5 1447.91,-179.16 1431.88,-153.33 1420.53,-133.2"/>
<polygon fill="black" stroke="black" points="1423.67,-131.63 1415.77,-124.57 1417.54,-135.02 1423.67,-131.63"/>
</a>
</g>
</g>
<!-- MATH0108 -->
<g id="node19" class="node">
<title>MATH0108</title>
<g id="a_node19"><a xlink:href="https://www.ucl.ac.uk/mathematical-physical-sciences/sites/mathematical_physical_sciences/files/0108_0.pdf" xlink:title="Year 3, term 2">
<polygon fill="white" stroke="#cd3333" stroke-width="5" points="2065.38,-121 1817.62,-121 1817.62,-78.5 2065.38,-78.5 2065.38,-121"/>
<text xml:space="preserve" text-anchor="middle" x="1941.5" y="-103.7" font-family="Times,serif" font-size="14.00">MATH0108</text>
<text xml:space="preserve" text-anchor="middle" x="1941.5" y="-86.45" font-family="Times,serif" font-size="14.00">Commutative Rings and Algebra</text>
</a>
</g>
</g>
<!-- MATH0053&#45;&gt;MATH0108 -->
<g id="edge18" class="edge">
<title>MATH0053&#45;&gt;MATH0108</title>
<g id="a_edge18"><a xlink:title="required prerequisite">
<path fill="none" stroke="black" d="M1582.29,-251.6C1638.41,-245.59 1730.5,-231.45 1803.5,-199.5 1842.78,-182.31 1882,-152.75 1908.54,-130.44"/>
<polygon fill="black" stroke="black" points="1910.55,-133.32 1915.88,-124.16 1906,-128 1910.55,-133.32"/>
</a>
</g>
</g>
<!-- MATH0036 -->
<g id="node20" class="node">
<title>MATH0036</title>
<g id="a_node20"><a xlink:href="https://www.ucl.ac.uk/mathematical-physical-sciences/sites/mathematical_physical_sciences/files/math0036.pdf" xlink:title="Year 3, term 2">
<polygon fill="white" stroke="#cd3333" stroke-width="5" points="1285.38,-121 1163.62,-121 1163.62,-78.5 1285.38,-78.5 1285.38,-121"/>
<text xml:space="preserve" text-anchor="middle" x="1224.5" y="-103.7" font-family="Times,serif" font-size="14.00">MATH0036</text>
<text xml:space="preserve" text-anchor="middle" x="1224.5" y="-86.45" font-family="Times,serif" font-size="14.00">Elliptic Curves</text>
</a>
</g>
</g>
<!-- MATH0053&#45;&gt;MATH0036 -->
<g id="edge20" class="edge">
<title>MATH0053&#45;&gt;MATH0036</title>
<g id="a_edge20"><a xlink:title="required prerequisite">
<path fill="none" stroke="black" d="M1486.53,-233.05C1431.54,-205.28 1338.51,-158.31 1279.36,-128.45"/>
<polygon fill="black" stroke="black" points="1280.95,-125.33 1270.44,-123.95 1277.79,-131.58 1280.95,-125.33"/>
</a>
</g>
</g>
<!-- MATH0021 -->
<g id="node21" class="node">
<title>MATH0021</title>
<g id="a_node21"><a xlink:href="https://www.ucl.ac.uk/mathematical-physical-sciences/sites/mathematical_physical_sciences/files/math0021.pdf" xlink:title="Year 3, term 2">
<polygon fill="white" stroke="#cd3333" stroke-width="5" points="1761.75,-121 1597.25,-121 1597.25,-78.5 1761.75,-78.5 1761.75,-121"/>
<text xml:space="preserve" text-anchor="middle" x="1679.5" y="-103.7" font-family="Times,serif" font-size="14.00">MATH0021</text>
<text xml:space="preserve" text-anchor="middle" x="1679.5" y="-86.45" font-family="Times,serif" font-size="14.00">Homological Algebra</text>
</a>
</g>
</g>
<!-- MATH0053&#45;&gt;MATH0021 -->
<g id="edge21" class="edge">
<title>MATH0053&#45;&gt;MATH0021</title>
<g id="a_edge21"><a xlink:title="required prerequisite">
<path fill="none" stroke="black" d="M1560.06,-233.23C1572.04,-223.33 1585.87,-211.29 1597.5,-199.5 1618.45,-178.28 1639.9,-152.26 1655.61,-132.26"/>
<polygon fill="black" stroke="black" points="1658.31,-134.49 1661.68,-124.45 1652.78,-130.2 1658.31,-134.49"/>
</a>
</g>
</g>
<!-- MATH0073 -->
<g id="node23" class="node">
<title>MATH0073</title>
<g id="a_node23"><a xlink:href="https://www.ucl.ac.uk/mathematical-physical-sciences/sites/mathematical_physical_sciences/files/math0073.pdf" xlink:title="Year 3 or 4, term 1">
<polygon fill="white" stroke="#ff1493" stroke-width="5" points="1911.25,-42.5 1731.75,-42.5 1731.75,0 1911.25,0 1911.25,-42.5"/>
<text xml:space="preserve" text-anchor="middle" x="1821.5" y="-25.2" font-family="Times,serif" font-size="14.00">MATH0073</text>
<text xml:space="preserve" text-anchor="middle" x="1821.5" y="-7.95" font-family="Times,serif" font-size="14.00">Representation Theory</text>
</a>
</g>
</g>
<!-- MATH0053&#45;&gt;MATH0073 -->
<g id="edge22" class="edge">
<title>MATH0053&#45;&gt;MATH0073</title>
<g id="a_edge22"><a xlink:title="required prerequisite">
<path fill="none" stroke="black" d="M1582.36,-237.26C1634.96,-216 1716.78,-176.73 1770.5,-121 1788.44,-102.39 1801.56,-76.23 1810,-55.51"/>
<polygon fill="black" stroke="black" points="1813.2,-56.94 1813.56,-46.35 1806.68,-54.4 1813.2,-56.94"/>
</a>
</g>
</g>
<!-- MATH0029 -->
<g id="node14" class="node">
<title>MATH0029</title>
<g id="a_node14"><a xlink:href="https://www.ucl.ac.uk/mathematical-physical-sciences/sites/mathematical_physical_sciences/files/math0029.pdf" xlink:title="Year 3, term 1">
<polygon fill="white" stroke="#ff4040" stroke-width="5" points="253,-199.5 0,-199.5 0,-157 253,-157 253,-199.5"/>
<text xml:space="preserve" text-anchor="middle" x="126.5" y="-182.2" font-family="Times,serif" font-size="14.00">MATH0029</text>
<text xml:space="preserve" text-anchor="middle" x="126.5" y="-164.95" font-family="Times,serif" font-size="14.00">Graph Theory and Combinatorics</text>
</a>
</g>
</g>
<!-- MATH0057&#45;&gt;MATH0029 -->
<g id="edge12" class="edge">
<title>MATH0057&#45;&gt;MATH0029</title>
<g id="a_edge12"><a xlink:title="recommended prerequisite">
<path fill="none" stroke="black" stroke-dasharray="5,2" d="M126.5,-233.21C126.5,-226.89 126.5,-219.87 126.5,-213.04"/>
<polygon fill="black" stroke="black" points="130,-213.41 126.5,-203.41 123,-213.41 130,-213.41"/>
</a>
</g>
</g>
<!-- MATH0034&#45;&gt;MATH0035 -->
<g id="edge15" class="edge">
<title>MATH0034&#45;&gt;MATH0035</title>
<g id="a_edge15"><a xlink:title="required prerequisite">
<path fill="none" stroke="black" d="M1202.07,-233.05C1243.82,-205.63 1314.09,-159.47 1359.62,-129.57"/>
<polygon fill="black" stroke="black" points="1361.52,-132.51 1367.96,-124.09 1357.68,-126.66 1361.52,-132.51"/>
</a>
</g>
</g>
<!-- MATH0034&#45;&gt;MATH0036 -->
<g id="edge19" class="edge">
<title>MATH0034&#45;&gt;MATH0036</title>
<g id="a_edge19"><a xlink:title="required prerequisite">
<path fill="none" stroke="black" d="M1175.79,-233.21C1185.37,-207.15 1201.23,-164.02 1212.24,-134.08"/>
<polygon fill="black" stroke="black" points="1215.51,-135.33 1215.68,-124.74 1208.94,-132.91 1215.51,-135.33"/>
</a>
</g>
</g>
<!-- MATH0034&#45;&gt;MATH0104 -->
<g id="edge26" class="edge">
<title>MATH0034&#45;&gt;MATH0104</title>
<g id="a_edge26"><a xlink:title="recommended prerequisite">
<path fill="none" stroke="black" stroke-dasharray="5,2" d="M1160.79,-233.36C1148.43,-192.15 1122.03,-104.08 1107.54,-55.73"/>
<polygon fill="black" stroke="black" points="1110.95,-54.94 1104.73,-46.36 1104.25,-56.95 1110.95,-54.94"/>
</a>
</g>
</g>
<!-- MATH0034&#45;&gt;MATH0083 -->
<g id="edge29" class="edge">
<title>MATH0034&#45;&gt;MATH0083</title>
<g id="a_edge29"><a xlink:title="required prerequisite">
<path fill="none" stroke="black" d="M1144.77,-233.08C1120.83,-210.48 1081.05,-176.43 1040.5,-157 910.02,-94.46 748.41,-59.77 630.98,-41.31"/>
<polygon fill="black" stroke="black" points="631.67,-37.88 621.25,-39.81 630.6,-44.8 631.67,-37.88"/>
</a>
</g>
</g>
<!-- MATH0051&#45;&gt;MATH0083 -->
<g id="edge28" class="edge">
<title>MATH0051&#45;&gt;MATH0083</title>
<g id="a_edge28"><a xlink:title="required prerequisite">
<path fill="none" stroke="black" d="M308.86,-233.36C341.21,-191.63 410.8,-101.84 447.95,-53.91"/>
<polygon fill="black" stroke="black" points="450.64,-56.16 454,-46.11 445.11,-51.87 450.64,-56.16"/>
</a>
</g>
</g>
<!-- MATH0022&#45;&gt;MATH0035 -->
<g id="edge17" class="edge">
<title>MATH0022&#45;&gt;MATH0035</title>
<g id="a_edge17"><a xlink:title="recommended prerequisite">
<path fill="none" stroke="black" stroke-dasharray="5,2" d="M1493.44,-154.5C1480.03,-146.49 1464.79,-137.38 1450.71,-128.97"/>
<polygon fill="black" stroke="black" points="1452.87,-126.18 1442.49,-124.05 1449.28,-132.19 1452.87,-126.18"/>
</a>
</g>
</g>
<!-- MATH0076 -->
<g id="node27" class="node">
<title>MATH0076</title>
<g id="a_node27"><a xlink:href="https://www.ucl.ac.uk/mathematical-physical-sciences/sites/mathematical_physical_sciences/files/math0076_2.pdf" xlink:title="Year 4, term 1">
<polygon fill="white" stroke="#1c86ee" stroke-width="5" points="1713.75,-42.5 1555.25,-42.5 1555.25,0 1713.75,0 1713.75,-42.5"/>
<text xml:space="preserve" text-anchor="middle" x="1634.5" y="-25.2" font-family="Times,serif" font-size="14.00">MATH0076</text>
<text xml:space="preserve" text-anchor="middle" x="1634.5" y="-7.95" font-family="Times,serif" font-size="14.00">Algebraic Geometry</text>
</a>
</g>
</g>
<!-- MATH0022&#45;&gt;MATH0076 -->
<g id="edge32" class="edge">
<title>MATH0022&#45;&gt;MATH0076</title>
<g id="a_edge32"><a xlink:title="required prerequisite">
<path fill="none" stroke="black" d="M1543.18,-154.66C1554.07,-134.22 1571.17,-103.58 1588.5,-78.5 1594.28,-70.13 1600.99,-61.45 1607.46,-53.49"/>
<polygon fill="black" stroke="black" points="1609.96,-55.96 1613.64,-46.02 1604.57,-51.49 1609.96,-55.96"/>
</a>
</g>
</g>
<!-- MATH0061 -->
<g id="node28" class="node">
<title>MATH0061</title>
<g id="a_node28"><a xlink:href="https://www.ucl.ac.uk/mathematical-physical-sciences/sites/mathematical_physical_sciences/files/math0061_0.pdf" xlink:title="Year 4, term 2">
<polygon fill="white" stroke="#1874cd" stroke-width="5" points="1536.88,-42.5 1208.12,-42.5 1208.12,0 1536.88,0 1536.88,-42.5"/>
<text xml:space="preserve" text-anchor="middle" x="1372.5" y="-25.2" font-family="Times,serif" font-size="14.00">MATH0061</text>
<text xml:space="preserve" text-anchor="middle" x="1372.5" y="-7.95" font-family="Times,serif" font-size="14.00">Further Topics in Algebraic Number Theory</text>
</a>
</g>
</g>
<!-- MATH0022&#45;&gt;MATH0061 -->
<g id="edge34" class="edge">
<title>MATH0022&#45;&gt;MATH0061</title>
<g id="a_edge34"><a xlink:title="required prerequisite">
<path fill="none" stroke="black" d="M1532.99,-154.69C1533.21,-132.83 1530.16,-99.92 1512.5,-78.5 1502.78,-66.71 1490.22,-57.37 1476.62,-49.98"/>
<polygon fill="black" stroke="black" points="1478.42,-46.97 1467.91,-45.61 1475.28,-53.22 1478.42,-46.97"/>
</a>
</g>
</g>
<!-- MATH0109 -->
<g id="node16" class="node">
<title>MATH0109</title>
<g id="a_node16"><a xlink:href="https://www.ucl.ac.uk/mathematical-physical-sciences/sites/mathematical_physical_sciences/files/math0109.pdf" xlink:title="Year 3, term 1">
<polygon fill="white" stroke="#ff4040" stroke-width="5" points="2165.5,-199.5 1969.5,-199.5 1969.5,-157 2165.5,-157 2165.5,-199.5"/>
<text xml:space="preserve" text-anchor="middle" x="2067.5" y="-182.2" font-family="Times,serif" font-size="14.00">MATH0109</text>
<text xml:space="preserve" text-anchor="middle" x="2067.5" y="-164.95" font-family="Times,serif" font-size="14.00">Theorem Proving in Lean</text>
</a>
</g>
</g>
<!-- MATH0035&#45;&gt;MATH0061 -->
<g id="edge33" class="edge">
<title>MATH0035&#45;&gt;MATH0061</title>
<g id="a_edge33"><a xlink:title="required prerequisite">
<path fill="none" stroke="black" d="M1394.37,-76.21C1391.74,-69.73 1388.82,-62.53 1385.99,-55.54"/>
<polygon fill="black" stroke="black" points="1389.24,-54.25 1382.24,-46.29 1382.76,-56.88 1389.24,-54.25"/>
</a>
</g>
</g>
<!-- MATH0021&#45;&gt;MATH0073 -->
<g id="edge23" class="edge">
<title>MATH0021&#45;&gt;MATH0073</title>
<g id="a_edge23"><a xlink:title="recommended prerequisite">
<path fill="none" stroke="black" stroke-dasharray="5,2" d="M1721.72,-76C1736.74,-67.91 1753.83,-58.7 1769.57,-50.22"/>
<polygon fill="black" stroke="black" points="1771.21,-53.32 1778.35,-45.49 1767.89,-47.16 1771.21,-53.32"/>
</a>
</g>
</g>
<!-- MATH0021&#45;&gt;MATH0076 -->
<g id="edge31" class="edge">
<title>MATH0021&#45;&gt;MATH0076</title>
<g id="a_edge31"><a xlink:title="required prerequisite">
<path fill="none" stroke="black" d="M1666.24,-76.21C1662.25,-69.42 1657.79,-61.84 1653.5,-54.55"/>
<polygon fill="black" stroke="black" points="1656.67,-53.04 1648.59,-46.2 1650.64,-56.59 1656.67,-53.04"/>
</a>
</g>
</g>
<!-- MATH0038 -->
<g id="node22" class="node">
<title>MATH0038</title>
<g id="a_node22"><a xlink:href="https://www.ucl.ac.uk/mathematical-physical-sciences/sites/mathematical_physical_sciences/files/math0038.pdf" xlink:title="Year 3, term 2">
<polygon fill="white" stroke="#cd3333" stroke-width="5" points="2267.88,-121 2083.12,-121 2083.12,-78.5 2267.88,-78.5 2267.88,-121"/>
<text xml:space="preserve" text-anchor="middle" x="2175.5" y="-103.7" font-family="Times,serif" font-size="14.00">MATH0038</text>
<text xml:space="preserve" text-anchor="middle" x="2175.5" y="-86.45" font-family="Times,serif" font-size="14.00">History of Mathematics</text>
</a>
</g>
</g>
</g>
</svg>
