<?xml version="1.0" encoding="UTF-8" standalone="no"?>
<!DOCTYPE svg PUBLIC "-//W3C//DTD SVG 1.1//EN"
 "http://www.w3.org/Graphics/SVG/1.1/DTD/svg11.dtd">
<!-- Generated by graphviz version 14.0.5 (0)
 -->
<!-- Pages: 1 -->
<svg width="1891pt" height="434pt"
 viewBox="0.00 0.00 1891.00 434.00" xmlns="http://www.w3.org/2000/svg" xmlns:xlink="http://www.w3.org/1999/xlink">
<g id="graph0" class="graph" transform="scale(1 1) rotate(0) translate(4 430)">
<polygon fill="white" stroke="none" points="-4,4 -4,-430 1886.75,-430 1886.75,4 -4,4"/>
<!-- MATH0010 -->
<g id="node1" class="node">
<title>MATH0010</title>
<g id="a_node1"><a xlink:href="https://www.ucl.ac.uk/mathematical-physical-sciences/sites/mathematical_physical_sciences/files/math0010.pdf" xlink:title="Year 1, term 1">
<polygon fill="white" stroke="#ffb90f" stroke-width="5" points="176.5,-426 22.5,-426 22.5,-385 176.5,-385 176.5,-426"/>
<text xml:space="preserve" text-anchor="middle" x="99.5" y="-408.7" font-family="Times,serif" font-size="14.00">MATH0010</text>
<text xml:space="preserve" text-anchor="middle" x="99.5" y="-392.2" font-family="Times,serif" font-size="14.00">Mathematical Methods 1</text>
</a>
</g>
</g>
<!-- MATH0011 -->
<g id="node5" class="node">
<title>MATH0011</title>
<g id="a_node5"><a xlink:href="https://www.ucl.ac.uk/mathematical-physical-sciences/sites/mathematical_physical_sciences/files/math0011_3.pdf" xlink:title="Year 1, term 2">
<polygon fill="white" stroke="#cd950c" stroke-width="5" points="176.5,-349 22.5,-349 22.5,-308 176.5,-308 176.5,-349"/>
<text xml:space="preserve" text-anchor="middle" x="99.5" y="-331.7" font-family="Times,serif" font-size="14.00">MATH0011</text>
<text xml:space="preserve" text-anchor="middle" x="99.5" y="-315.2" font-family="Times,serif" font-size="14.00">Mathematical Methods 2</text>
</a>
</g>
</g>
<!-- MATH0010&#45;&gt;MATH0011 -->
<g id="edge2" class="edge">
<title>MATH0010&#45;&gt;MATH0011</title>
<g id="a_edge2"><a xlink:title="required prerequisite">
<path fill="none" stroke="black" d="M99.5,-382.81C99.5,-376.56 99.5,-369.61 99.5,-362.83"/>
<polygon fill="black" stroke="black" points="103,-362.92 99.5,-352.92 96,-362.92 103,-362.92"/>
</a>
</g>
</g>
<!-- MATH0003 -->
<g id="node2" class="node">
<title>MATH0003</title>
<g id="a_node2"><a xlink:href="https://www.ucl.ac.uk/mathematical-physical-sciences/sites/mathematical_physical_sciences/files/2025-09/math0003.pdf" xlink:title="Year 1, term 1">
<polygon fill="white" stroke="#ffb90f" stroke-width="5" points="392.5,-426 310.5,-426 310.5,-385 392.5,-385 392.5,-426"/>
<text xml:space="preserve" text-anchor="middle" x="351.5" y="-408.7" font-family="Times,serif" font-size="14.00">MATH0003</text>
<text xml:space="preserve" text-anchor="middle" x="351.5" y="-392.2" font-family="Times,serif" font-size="14.00">Analysis 1</text>
</a>
</g>
</g>
<!-- MATH0004 -->
<g id="node6" class="node">
<title>MATH0004</title>
<g id="a_node6"><a xlink:href="https://www.ucl.ac.uk/mathematical-physical-sciences/sites/mathematical_physical_sciences/files/math0004.pdf" xlink:title="Year 1, term 2">
<polygon fill="white" stroke="#cd950c" stroke-width="5" points="358.5,-349 276.5,-349 276.5,-308 358.5,-308 358.5,-349"/>
<text xml:space="preserve" text-anchor="middle" x="317.5" y="-331.7" font-family="Times,serif" font-size="14.00">MATH0004</text>
<text xml:space="preserve" text-anchor="middle" x="317.5" y="-315.2" font-family="Times,serif" font-size="14.00">Analysis 2</text>
</a>
</g>
</g>
<!-- MATH0003&#45;&gt;MATH0004 -->
<g id="edge3" class="edge">
<title>MATH0003&#45;&gt;MATH0004</title>
<g id="a_edge3"><a xlink:title="required prerequisite">
<path fill="none" stroke="black" d="M341.67,-382.81C338.7,-376.26 335.37,-368.92 332.16,-361.83"/>
<polygon fill="black" stroke="black" points="335.37,-360.45 328.05,-352.78 329,-363.34 335.37,-360.45"/>
</a>
</g>
</g>
<!-- MATH0013 -->
<g id="node8" class="node">
<title>MATH0013</title>
<g id="a_node8"><a xlink:href="https://www.ucl.ac.uk/mathematical-physical-sciences/sites/mathematical_physical_sciences/files/2025-09/math0013_0.pdf" xlink:title="Year 2, term 1">
<polygon fill="white" stroke="#00ff00" stroke-width="5" points="479.62,-272 293.38,-272 293.38,-231 479.62,-231 479.62,-272"/>
<text xml:space="preserve" text-anchor="middle" x="386.5" y="-254.7" font-family="Times,serif" font-size="14.00">MATH0013</text>
<text xml:space="preserve" text-anchor="middle" x="386.5" y="-238.2" font-family="Times,serif" font-size="14.00">Analysis 3 &#45; Complex Analysis</text>
</a>
</g>
</g>
<!-- MATH0003&#45;&gt;MATH0013 -->
<g id="edge5" class="edge">
<title>MATH0003&#45;&gt;MATH0013</title>
<g id="a_edge5"><a xlink:title="required prerequisite">
<path fill="none" stroke="black" d="M358.24,-382.74C361.28,-372.55 364.79,-360.21 367.5,-349 372.57,-328.07 377.25,-304.35 380.7,-285.66"/>
<polygon fill="black" stroke="black" points="384.12,-286.42 382.46,-275.95 377.23,-285.17 384.12,-286.42"/>
</a>
</g>
</g>
<!-- MATH0005 -->
<g id="node3" class="node">
<title>MATH0005</title>
<g id="a_node3"><a xlink:href="https://www.ucl.ac.uk/mathematical-physical-sciences/sites/mathematical_physical_sciences/files/2025-09/math0005 syllabus.pdf" xlink:title="Year 1, term 1">
<polygon fill="white" stroke="#ffb90f" stroke-width="5" points="921.5,-426 839.5,-426 839.5,-385 921.5,-385 921.5,-426"/>
<text xml:space="preserve" text-anchor="middle" x="880.5" y="-408.7" font-family="Times,serif" font-size="14.00">MATH0005</text>
<text xml:space="preserve" text-anchor="middle" x="880.5" y="-392.2" font-family="Times,serif" font-size="14.00">Algebra 1</text>
</a>
</g>
</g>
<!-- MATH0006 -->
<g id="node4" class="node">
<title>MATH0006</title>
<g id="a_node4"><a xlink:href="https://www.ucl.ac.uk/mathematical-physical-sciences/sites/mathematical_physical_sciences/files/math0006.pdf" xlink:title="Year 1, term 2">
<polygon fill="white" stroke="#cd950c" stroke-width="5" points="921.5,-349 839.5,-349 839.5,-308 921.5,-308 921.5,-349"/>
<text xml:space="preserve" text-anchor="middle" x="880.5" y="-331.7" font-family="Times,serif" font-size="14.00">MATH0006</text>
<text xml:space="preserve" text-anchor="middle" x="880.5" y="-315.2" font-family="Times,serif" font-size="14.00">Algebra 2</text>
</a>
</g>
</g>
<!-- MATH0005&#45;&gt;MATH0006 -->
<g id="edge1" class="edge">
<title>MATH0005&#45;&gt;MATH0006</title>
<g id="a_edge1"><a xlink:title="required prerequisite">
<path fill="none" stroke="black" d="M880.5,-382.81C880.5,-376.56 880.5,-369.61 880.5,-362.83"/>
<polygon fill="black" stroke="black" points="884,-362.92 880.5,-352.92 877,-362.92 884,-362.92"/>
</a>
</g>
</g>
<!-- MATH0014 -->
<g id="node7" class="node">
<title>MATH0014</title>
<g id="a_node7"><a xlink:href="https://www.ucl.ac.uk/mathematical-physical-sciences/sites/mathematical_physical_sciences/files/2025-09/math0014_0.pdf" xlink:title="Year 2, term 1">
<polygon fill="white" stroke="#00ff00" stroke-width="5" points="772.88,-272 570.12,-272 570.12,-231 772.88,-231 772.88,-272"/>
<text xml:space="preserve" text-anchor="middle" x="671.5" y="-254.7" font-family="Times,serif" font-size="14.00">MATH0014</text>
<text xml:space="preserve" text-anchor="middle" x="671.5" y="-238.2" font-family="Times,serif" font-size="14.00">Algebra 3: Further Linear Algebra</text>
</a>
</g>
</g>
<!-- MATH0006&#45;&gt;MATH0014 -->
<g id="edge4" class="edge">
<title>MATH0006&#45;&gt;MATH0014</title>
<g id="a_edge4"><a xlink:title="required prerequisite">
<path fill="none" stroke="black" d="M837.2,-311.96C810.02,-302.21 774.31,-289.39 743.01,-278.16"/>
<polygon fill="black" stroke="black" points="744.6,-275.01 734.01,-274.93 742.24,-281.6 744.6,-275.01"/>
</a>
</g>
</g>
<!-- MATH0034 -->
<g id="node10" class="node">
<title>MATH0034</title>
<g id="a_node10"><a xlink:href="https://www.ucl.ac.uk/mathematical-physical-sciences/sites/mathematical_physical_sciences/files/math0034.pdf" xlink:title="Year 2 or 3, term 2">
<polygon fill="white" stroke="#8ee5ee" stroke-width="5" points="986,-272 883,-272 883,-231 986,-231 986,-272"/>
<text xml:space="preserve" text-anchor="middle" x="934.5" y="-254.7" font-family="Times,serif" font-size="14.00">MATH0034</text>
<text xml:space="preserve" text-anchor="middle" x="934.5" y="-238.2" font-family="Times,serif" font-size="14.00">Number Theory</text>
</a>
</g>
</g>
<!-- MATH0006&#45;&gt;MATH0034 -->
<g id="edge8" class="edge">
<title>MATH0006&#45;&gt;MATH0034</title>
<g id="a_edge8"><a xlink:title="required prerequisite">
<path fill="none" stroke="black" d="M896.12,-305.81C901.11,-298.87 906.74,-291.05 912.12,-283.58"/>
<polygon fill="black" stroke="black" points="914.84,-285.79 917.84,-275.63 909.16,-281.7 914.84,-285.79"/>
</a>
</g>
</g>
<!-- MATH0053 -->
<g id="node11" class="node">
<title>MATH0053</title>
<g id="a_node11"><a xlink:href="https://www.ucl.ac.uk/mathematical-physical-sciences/sites/mathematical_physical_sciences/files/math0053.pdf" xlink:title="Year 2 or 3, term 2">
<polygon fill="white" stroke="#8ee5ee" stroke-width="5" points="1307.5,-272 1225.5,-272 1225.5,-231 1307.5,-231 1307.5,-272"/>
<text xml:space="preserve" text-anchor="middle" x="1266.5" y="-254.7" font-family="Times,serif" font-size="14.00">MATH0053</text>
<text xml:space="preserve" text-anchor="middle" x="1266.5" y="-238.2" font-family="Times,serif" font-size="14.00">Algebra 4</text>
</a>
</g>
</g>
<!-- MATH0006&#45;&gt;MATH0053 -->
<g id="edge9" class="edge">
<title>MATH0006&#45;&gt;MATH0053</title>
<g id="a_edge9"><a xlink:title="required prerequisite">
<path fill="none" stroke="black" d="M923.66,-319.11C994.35,-305.38 1134.68,-278.11 1212.08,-263.07"/>
<polygon fill="black" stroke="black" points="1212.4,-266.58 1221.55,-261.23 1211.06,-259.71 1212.4,-266.58"/>
</a>
</g>
</g>
<!-- MATH0037 -->
<g id="node13" class="node">
<title>MATH0037</title>
<g id="a_node13"><a xlink:href="https://www.ucl.ac.uk/mathematical-physical-sciences/sites/mathematical_physical_sciences/files/math0037.pdf" xlink:title="Year 3, term 1">
<polygon fill="white" stroke="#ff4040" stroke-width="5" points="868.5,-195 786.5,-195 786.5,-154 868.5,-154 868.5,-195"/>
<text xml:space="preserve" text-anchor="middle" x="827.5" y="-177.7" font-family="Times,serif" font-size="14.00">MATH0037</text>
<text xml:space="preserve" text-anchor="middle" x="827.5" y="-161.2" font-family="Times,serif" font-size="14.00">Logic</text>
</a>
</g>
</g>
<!-- MATH0006&#45;&gt;MATH0037 -->
<g id="edge11" class="edge">
<title>MATH0006&#45;&gt;MATH0037</title>
<g id="a_edge11"><a xlink:title="required prerequisite">
<path fill="none" stroke="black" d="M872.91,-305.72C863.97,-280.1 849.06,-237.32 838.77,-207.83"/>
<polygon fill="black" stroke="black" points="842.18,-206.96 835.58,-198.67 835.57,-209.26 842.18,-206.96"/>
</a>
</g>
</g>
<!-- MATH0057 -->
<g id="node12" class="node">
<title>MATH0057</title>
<g id="a_node12"><a xlink:href="https://www.ucl.ac.uk/mathematical-physical-sciences/sites/mathematical_physical_sciences/files/math0057.pdf" xlink:title="Year 2 or 3, term 2">
<polygon fill="white" stroke="#8ee5ee" stroke-width="5" points="175.38,-272 23.62,-272 23.62,-231 175.38,-231 175.38,-272"/>
<text xml:space="preserve" text-anchor="middle" x="99.5" y="-254.7" font-family="Times,serif" font-size="14.00">MATH0057</text>
<text xml:space="preserve" text-anchor="middle" x="99.5" y="-238.2" font-family="Times,serif" font-size="14.00">Probability and Statistics</text>
</a>
</g>
</g>
<!-- MATH0011&#45;&gt;MATH0057 -->
<g id="edge10" class="edge">
<title>MATH0011&#45;&gt;MATH0057</title>
<g id="a_edge10"><a xlink:title="required prerequisite">
<path fill="none" stroke="black" d="M99.5,-305.81C99.5,-299.56 99.5,-292.61 99.5,-285.83"/>
<polygon fill="black" stroke="black" points="103,-285.92 99.5,-275.92 96,-285.92 103,-285.92"/>
</a>
</g>
</g>
<!-- MATH0004&#45;&gt;MATH0013 -->
<g id="edge6" class="edge">
<title>MATH0004&#45;&gt;MATH0013</title>
<g id="a_edge6"><a xlink:title="recommended prerequisite">
<path fill="none" stroke="black" stroke-dasharray="5,2" d="M337.46,-305.81C344.12,-298.56 351.67,-290.36 358.82,-282.59"/>
<polygon fill="black" stroke="black" points="361.13,-285.25 365.32,-275.52 355.98,-280.51 361.13,-285.25"/>
</a>
</g>
</g>
<!-- MATH0051 -->
<g id="node9" class="node">
<title>MATH0051</title>
<g id="a_node9"><a xlink:href="https://www.ucl.ac.uk/mathematical-physical-sciences/sites/mathematical_physical_sciences/files/math0051.pdf" xlink:title="Year 2 or 3, term 2">
<polygon fill="white" stroke="#8ee5ee" stroke-width="5" points="275.5,-272 193.5,-272 193.5,-231 275.5,-231 275.5,-272"/>
<text xml:space="preserve" text-anchor="middle" x="234.5" y="-254.7" font-family="Times,serif" font-size="14.00">MATH0051</text>
<text xml:space="preserve" text-anchor="middle" x="234.5" y="-238.2" font-family="Times,serif" font-size="14.00">Analysis 4</text>
</a>
</g>
</g>
<!-- MATH0004&#45;&gt;MATH0051 -->
<g id="edge7" class="edge">
<title>MATH0004&#45;&gt;MATH0051</title>
<g id="a_edge7"><a xlink:title="required prerequisite">
<path fill="none" stroke="black" d="M293.49,-305.81C285.31,-298.41 276.01,-290.01 267.25,-282.1"/>
<polygon fill="black" stroke="black" points="269.63,-279.53 259.86,-275.42 264.94,-284.72 269.63,-279.53"/>
</a>
</g>
</g>
<!-- MATH0023 -->
<g id="node15" class="node">
<title>MATH0023</title>
<g id="a_node15"><a xlink:href="https://www.ucl.ac.uk/mathematical-physical-sciences/sites/mathematical_physical_sciences/files/math0023_2.pdf" xlink:title="Year 3, term 1">
<polygon fill="white" stroke="#ff4040" stroke-width="5" points="538.5,-195 414.5,-195 414.5,-154 538.5,-154 538.5,-195"/>
<text xml:space="preserve" text-anchor="middle" x="476.5" y="-177.7" font-family="Times,serif" font-size="14.00">MATH0023</text>
<text xml:space="preserve" text-anchor="middle" x="476.5" y="-161.2" font-family="Times,serif" font-size="14.00">Algebraic Topology</text>
</a>
</g>
</g>
<!-- MATH0014&#45;&gt;MATH0023 -->
<g id="edge13" class="edge">
<title>MATH0014&#45;&gt;MATH0023</title>
<g id="a_edge13"><a xlink:title="required prerequisite">
<path fill="none" stroke="black" d="M614.31,-228.5C592.39,-220.07 567.16,-210.37 544.33,-201.59"/>
<polygon fill="black" stroke="black" points="545.69,-198.36 535.1,-198.04 543.18,-204.9 545.69,-198.36"/>
</a>
</g>
</g>
<!-- MATH0104 -->
<g id="node25" class="node">
<title>MATH0104</title>
<g id="a_node25"><a xlink:href="https://www.ucl.ac.uk/mathematical-physical-sciences/sites/mathematical_physical_sciences/files/math0104_2.pdf" xlink:title="Year 3 or 4, term 1">
<polygon fill="white" stroke="#ff1493" stroke-width="5" points="809.62,-41 707.38,-41 707.38,0 809.62,0 809.62,-41"/>
<text xml:space="preserve" text-anchor="middle" x="758.5" y="-23.7" font-family="Times,serif" font-size="14.00">MATH0104</text>
<text xml:space="preserve" text-anchor="middle" x="758.5" y="-7.2" font-family="Times,serif" font-size="14.00">Modular Forms</text>
</a>
</g>
</g>
<!-- MATH0014&#45;&gt;MATH0104 -->
<g id="edge28" class="edge">
<title>MATH0014&#45;&gt;MATH0104</title>
<g id="a_edge28"><a xlink:title="required prerequisite">
<path fill="none" stroke="black" d="M708.37,-228.71C720.26,-219.79 732.23,-208.39 739.5,-195 763.52,-150.79 764.37,-90.95 762.01,-54.34"/>
<polygon fill="black" stroke="black" points="765.53,-54.53 761.27,-44.84 758.55,-55.08 765.53,-54.53"/>
</a>
</g>
</g>
<!-- MATH0075 -->
<g id="node26" class="node">
<title>MATH0075</title>
<g id="a_node26"><a xlink:href="https://www.ucl.ac.uk/mathematical-physical-sciences/sites/mathematical_physical_sciences/files/math0075_2.pdf" xlink:title="Year 3 or 4, term 2">
<polygon fill="white" stroke="#cd1076" stroke-width="5" points="730.62,-195 556.38,-195 556.38,-154 730.62,-154 730.62,-195"/>
<text xml:space="preserve" text-anchor="middle" x="643.5" y="-177.7" font-family="Times,serif" font-size="14.00">MATH0075</text>
<text xml:space="preserve" text-anchor="middle" x="643.5" y="-161.2" font-family="Times,serif" font-size="14.00">Lie Groups and Lie Algebras</text>
</a>
</g>
</g>
<!-- MATH0014&#45;&gt;MATH0075 -->
<g id="edge30" class="edge">
<title>MATH0014&#45;&gt;MATH0075</title>
<g id="a_edge30"><a xlink:title="required prerequisite">
<path fill="none" stroke="black" d="M663.4,-228.81C660.98,-222.33 658.28,-215.09 655.66,-208.08"/>
<polygon fill="black" stroke="black" points="658.98,-206.97 652.21,-198.82 652.43,-209.41 658.98,-206.97"/>
</a>
</g>
</g>
<!-- MATH0083 -->
<g id="node23" class="node">
<title>MATH0083</title>
<g id="a_node23"><a xlink:href="https://www.ucl.ac.uk/mathematical-physical-sciences/sites/mathematical_physical_sciences/files/math0083.pdf" xlink:title="Year 3 or 4, term 1">
<polygon fill="white" stroke="#ff1493" stroke-width="5" points="460.38,-41 236.62,-41 236.62,0 460.38,0 460.38,-41"/>
<text xml:space="preserve" text-anchor="middle" x="348.5" y="-23.7" font-family="Times,serif" font-size="14.00">MATH0083</text>
<text xml:space="preserve" text-anchor="middle" x="348.5" y="-7.2" font-family="Times,serif" font-size="14.00">Prime Numbers and their Distribution</text>
</a>
</g>
</g>
<!-- MATH0013&#45;&gt;MATH0083 -->
<g id="edge22" class="edge">
<title>MATH0013&#45;&gt;MATH0083</title>
<g id="a_edge22"><a xlink:title="required prerequisite">
<path fill="none" stroke="black" d="M380.42,-228.75C377.73,-218.56 374.68,-206.22 372.5,-195 363.07,-146.54 355.94,-89.76 352,-54.71"/>
<polygon fill="black" stroke="black" points="355.48,-54.33 350.9,-44.77 348.52,-55.09 355.48,-54.33"/>
</a>
</g>
</g>
<!-- MATH0013&#45;&gt;MATH0104 -->
<g id="edge27" class="edge">
<title>MATH0013&#45;&gt;MATH0104</title>
<g id="a_edge27"><a xlink:title="required prerequisite">
<path fill="none" stroke="black" d="M385.06,-228.76C384.83,-207.33 387.84,-174.84 405.5,-154 478.66,-67.67 613.98,-37.52 694.15,-27.03"/>
<polygon fill="black" stroke="black" points="694.09,-30.57 703.58,-25.87 693.23,-23.62 694.09,-30.57"/>
</a>
</g>
</g>
<!-- MATH0051&#45;&gt;MATH0083 -->
<g id="edge23" class="edge">
<title>MATH0051&#45;&gt;MATH0083</title>
<g id="a_edge23"><a xlink:title="required prerequisite">
<path fill="none" stroke="black" d="M245.43,-228.54C265.65,-187.93 308.95,-100.94 332.48,-53.67"/>
<polygon fill="black" stroke="black" points="335.6,-55.26 336.93,-44.75 329.34,-52.14 335.6,-55.26"/>
</a>
</g>
</g>
<!-- MATH0035 -->
<g id="node19" class="node">
<title>MATH0035</title>
<g id="a_node19"><a xlink:href="https://www.ucl.ac.uk/mathematical-physical-sciences/sites/mathematical_physical_sciences/files/math0035.pdf" xlink:title="Year 3, term 2">
<polygon fill="white" stroke="#cd3333" stroke-width="5" points="1238.5,-118 1078.5,-118 1078.5,-77 1238.5,-77 1238.5,-118"/>
<text xml:space="preserve" text-anchor="middle" x="1158.5" y="-100.7" font-family="Times,serif" font-size="14.00">MATH0035</text>
<text xml:space="preserve" text-anchor="middle" x="1158.5" y="-84.2" font-family="Times,serif" font-size="14.00">Algebraic Number Theory</text>
</a>
</g>
</g>
<!-- MATH0034&#45;&gt;MATH0035 -->
<g id="edge16" class="edge">
<title>MATH0034&#45;&gt;MATH0035</title>
<g id="a_edge16"><a xlink:title="required prerequisite">
<path fill="none" stroke="black" d="M966.59,-228.72C1006.07,-201.93 1073.18,-156.4 1116.66,-126.89"/>
<polygon fill="black" stroke="black" points="1118.54,-129.85 1124.85,-121.33 1114.61,-124.05 1118.54,-129.85"/>
</a>
</g>
</g>
<!-- MATH0036 -->
<g id="node21" class="node">
<title>MATH0036</title>
<g id="a_node21"><a xlink:href="https://www.ucl.ac.uk/mathematical-physical-sciences/sites/mathematical_physical_sciences/files/math0036.pdf" xlink:title="Year 3, term 2">
<polygon fill="white" stroke="#cd3333" stroke-width="5" points="1060.38,-118 962.62,-118 962.62,-77 1060.38,-77 1060.38,-118"/>
<text xml:space="preserve" text-anchor="middle" x="1011.5" y="-100.7" font-family="Times,serif" font-size="14.00">MATH0036</text>
<text xml:space="preserve" text-anchor="middle" x="1011.5" y="-84.2" font-family="Times,serif" font-size="14.00">Elliptic Curves</text>
</a>
</g>
</g>
<!-- MATH0034&#45;&gt;MATH0036 -->
<g id="edge20" class="edge">
<title>MATH0034&#45;&gt;MATH0036</title>
<g id="a_edge20"><a xlink:title="required prerequisite">
<path fill="none" stroke="black" d="M945.53,-228.72C958.57,-202.99 980.37,-159.95 995.32,-130.44"/>
<polygon fill="black" stroke="black" points="998.41,-132.09 999.8,-121.59 992.16,-128.93 998.41,-132.09"/>
</a>
</g>
</g>
<!-- MATH0034&#45;&gt;MATH0083 -->
<g id="edge24" class="edge">
<title>MATH0034&#45;&gt;MATH0083</title>
<g id="a_edge24"><a xlink:title="required prerequisite">
<path fill="none" stroke="black" d="M927.3,-228.65C918.87,-206.49 902.76,-172.86 877.5,-154 759.39,-65.81 589.28,-35.88 474.11,-25.97"/>
<polygon fill="black" stroke="black" points="474.55,-22.49 464.3,-25.17 473.98,-29.47 474.55,-22.49"/>
</a>
</g>
</g>
<!-- MATH0034&#45;&gt;MATH0104 -->
<g id="edge29" class="edge">
<title>MATH0034&#45;&gt;MATH0104</title>
<g id="a_edge29"><a xlink:title="recommended prerequisite">
<path fill="none" stroke="black" stroke-dasharray="5,2" d="M938.07,-228.55C942.6,-192.66 946.02,-121.01 910.5,-77 889.21,-50.62 854.21,-36.78 823.16,-29.51"/>
<polygon fill="black" stroke="black" points="823.93,-26.1 813.42,-27.44 822.47,-32.94 823.93,-26.1"/>
</a>
</g>
</g>
<!-- MATH0022 -->
<g id="node14" class="node">
<title>MATH0022</title>
<g id="a_node14"><a xlink:href="https://www.ucl.ac.uk/mathematical-physical-sciences/sites/mathematical_physical_sciences/files/math0022.pdf" xlink:title="Year 3, term 1">
<polygon fill="white" stroke="#ff4040" stroke-width="5" points="1313.12,-195 1219.88,-195 1219.88,-154 1313.12,-154 1313.12,-195"/>
<text xml:space="preserve" text-anchor="middle" x="1266.5" y="-177.7" font-family="Times,serif" font-size="14.00">MATH0022</text>
<text xml:space="preserve" text-anchor="middle" x="1266.5" y="-161.2" font-family="Times,serif" font-size="14.00">Galois Theory</text>
</a>
</g>
</g>
<!-- MATH0053&#45;&gt;MATH0022 -->
<g id="edge12" class="edge">
<title>MATH0053&#45;&gt;MATH0022</title>
<g id="a_edge12"><a xlink:title="required prerequisite">
<path fill="none" stroke="black" d="M1266.5,-228.81C1266.5,-222.56 1266.5,-215.61 1266.5,-208.83"/>
<polygon fill="black" stroke="black" points="1270,-208.92 1266.5,-198.92 1263,-208.92 1270,-208.92"/>
</a>
</g>
</g>
<!-- MATH0021 -->
<g id="node18" class="node">
<title>MATH0021</title>
<g id="a_node18"><a xlink:href="https://www.ucl.ac.uk/mathematical-physical-sciences/sites/mathematical_physical_sciences/files/math0021.pdf" xlink:title="Year 3, term 2">
<polygon fill="white" stroke="#cd3333" stroke-width="5" points="1466.38,-118 1332.62,-118 1332.62,-77 1466.38,-77 1466.38,-118"/>
<text xml:space="preserve" text-anchor="middle" x="1399.5" y="-100.7" font-family="Times,serif" font-size="14.00">MATH0021</text>
<text xml:space="preserve" text-anchor="middle" x="1399.5" y="-84.2" font-family="Times,serif" font-size="14.00">Homological Algebra</text>
</a>
</g>
</g>
<!-- MATH0053&#45;&gt;MATH0021 -->
<g id="edge15" class="edge">
<title>MATH0053&#45;&gt;MATH0021</title>
<g id="a_edge15"><a xlink:title="required prerequisite">
<path fill="none" stroke="black" d="M1289.73,-228.67C1300.04,-218.67 1312.17,-206.51 1322.5,-195 1341.57,-173.76 1361.65,-148.49 1376.51,-129.15"/>
<polygon fill="black" stroke="black" points="1379.16,-131.44 1382.45,-121.37 1373.6,-127.2 1379.16,-131.44"/>
</a>
</g>
</g>
<!-- MATH0053&#45;&gt;MATH0035 -->
<g id="edge17" class="edge">
<title>MATH0053&#45;&gt;MATH0035</title>
<g id="a_edge17"><a xlink:title="required prerequisite">
<path fill="none" stroke="black" d="M1241.43,-228.7C1231.12,-219 1219.52,-207.06 1210.5,-195 1195.5,-174.94 1182.18,-150 1172.77,-130.5"/>
<polygon fill="black" stroke="black" points="1176.04,-129.21 1168.61,-121.66 1169.7,-132.19 1176.04,-129.21"/>
</a>
</g>
</g>
<!-- MATH0108 -->
<g id="node20" class="node">
<title>MATH0108</title>
<g id="a_node20"><a xlink:href="https://www.ucl.ac.uk/mathematical-physical-sciences/sites/mathematical_physical_sciences/files/0108_0.pdf" xlink:title="Year 3, term 2">
<polygon fill="white" stroke="#cd3333" stroke-width="5" points="1718.5,-118 1522.5,-118 1522.5,-77 1718.5,-77 1718.5,-118"/>
<text xml:space="preserve" text-anchor="middle" x="1620.5" y="-100.7" font-family="Times,serif" font-size="14.00">MATH0108</text>
<text xml:space="preserve" text-anchor="middle" x="1620.5" y="-84.2" font-family="Times,serif" font-size="14.00">Commutative Rings and Algebra</text>
</a>
</g>
</g>
<!-- MATH0053&#45;&gt;MATH0108 -->
<g id="edge19" class="edge">
<title>MATH0053&#45;&gt;MATH0108</title>
<g id="a_edge19"><a xlink:title="required prerequisite">
<path fill="none" stroke="black" d="M1309.72,-246.92C1359.85,-241.37 1443.88,-227.69 1508.5,-195 1541.25,-178.43 1572.37,-150.26 1593.45,-128.62"/>
<polygon fill="black" stroke="black" points="1595.88,-131.13 1600.25,-121.48 1590.82,-126.3 1595.88,-131.13"/>
</a>
</g>
</g>
<!-- MATH0053&#45;&gt;MATH0036 -->
<g id="edge21" class="edge">
<title>MATH0053&#45;&gt;MATH0036</title>
<g id="a_edge21"><a xlink:title="required prerequisite">
<path fill="none" stroke="black" d="M1229.69,-228.56C1184.4,-201.56 1107.45,-155.7 1058.09,-126.27"/>
<polygon fill="black" stroke="black" points="1059.98,-123.32 1049.6,-121.21 1056.39,-129.33 1059.98,-123.32"/>
</a>
</g>
</g>
<!-- MATH0073 -->
<g id="node24" class="node">
<title>MATH0073</title>
<g id="a_node24"><a xlink:href="https://www.ucl.ac.uk/mathematical-physical-sciences/sites/mathematical_physical_sciences/files/math0073.pdf" xlink:title="Year 3 or 4, term 1">
<polygon fill="white" stroke="#ff1493" stroke-width="5" points="1576,-41 1437,-41 1437,0 1576,0 1576,-41"/>
<text xml:space="preserve" text-anchor="middle" x="1506.5" y="-23.7" font-family="Times,serif" font-size="14.00">MATH0073</text>
<text xml:space="preserve" text-anchor="middle" x="1506.5" y="-7.2" font-family="Times,serif" font-size="14.00">Representation Theory</text>
</a>
</g>
</g>
<!-- MATH0053&#45;&gt;MATH0073 -->
<g id="edge25" class="edge">
<title>MATH0053&#45;&gt;MATH0073</title>
<g id="a_edge25"><a xlink:title="required prerequisite">
<path fill="none" stroke="black" d="M1309.65,-233.8C1356.94,-213.38 1431.87,-174.41 1475.5,-118 1489.72,-99.62 1497.52,-74.51 1501.74,-54.52"/>
<polygon fill="black" stroke="black" points="1505.13,-55.39 1503.55,-44.92 1498.25,-54.09 1505.13,-55.39"/>
</a>
</g>
</g>
<!-- MATH0029 -->
<g id="node16" class="node">
<title>MATH0029</title>
<g id="a_node16"><a xlink:href="https://www.ucl.ac.uk/mathematical-physical-sciences/sites/mathematical_physical_sciences/files/math0029.pdf" xlink:title="Year 3, term 1">
<polygon fill="white" stroke="#ff4040" stroke-width="5" points="199,-195 0,-195 0,-154 199,-154 199,-195"/>
<text xml:space="preserve" text-anchor="middle" x="99.5" y="-177.7" font-family="Times,serif" font-size="14.00">MATH0029</text>
<text xml:space="preserve" text-anchor="middle" x="99.5" y="-161.2" font-family="Times,serif" font-size="14.00">Graph Theory and Combinatorics</text>
</a>
</g>
</g>
<!-- MATH0057&#45;&gt;MATH0029 -->
<g id="edge14" class="edge">
<title>MATH0057&#45;&gt;MATH0029</title>
<g id="a_edge14"><a xlink:title="recommended prerequisite">
<path fill="none" stroke="black" stroke-dasharray="5,2" d="M99.5,-228.81C99.5,-222.56 99.5,-215.61 99.5,-208.83"/>
<polygon fill="black" stroke="black" points="103,-208.92 99.5,-198.92 96,-208.92 103,-208.92"/>
</a>
</g>
</g>
<!-- MATH0022&#45;&gt;MATH0035 -->
<g id="edge18" class="edge">
<title>MATH0022&#45;&gt;MATH0035</title>
<g id="a_edge18"><a xlink:title="recommended prerequisite">
<path fill="none" stroke="black" stroke-dasharray="5,2" d="M1234.97,-151.61C1223.77,-143.83 1211,-134.96 1199.14,-126.73"/>
<polygon fill="black" stroke="black" points="1201.33,-123.98 1191.12,-121.16 1197.34,-129.73 1201.33,-123.98"/>
</a>
</g>
</g>
<!-- MATH0076 -->
<g id="node27" class="node">
<title>MATH0076</title>
<g id="a_node27"><a xlink:href="https://www.ucl.ac.uk/mathematical-physical-sciences/sites/mathematical_physical_sciences/files/2025-09/math0076.pdf" xlink:title="Year 4, term 1">
<polygon fill="white" stroke="#1c86ee" stroke-width="5" points="1419.38,-41 1291.62,-41 1291.62,0 1419.38,0 1419.38,-41"/>
<text xml:space="preserve" text-anchor="middle" x="1355.5" y="-23.7" font-family="Times,serif" font-size="14.00">MATH0076</text>
<text xml:space="preserve" text-anchor="middle" x="1355.5" y="-7.2" font-family="Times,serif" font-size="14.00">Algebraic Geometry</text>
</a>
</g>
</g>
<!-- MATH0022&#45;&gt;MATH0076 -->
<g id="edge32" class="edge">
<title>MATH0022&#45;&gt;MATH0076</title>
<g id="a_edge32"><a xlink:title="required prerequisite">
<path fill="none" stroke="black" d="M1279.25,-151.72C1294.39,-125.87 1319.74,-82.57 1337.03,-53.05"/>
<polygon fill="black" stroke="black" points="1339.97,-54.94 1342.01,-44.54 1333.93,-51.4 1339.97,-54.94"/>
</a>
</g>
</g>
<!-- MATH0061 -->
<g id="node28" class="node">
<title>MATH0061</title>
<g id="a_node28"><a xlink:href="https://www.ucl.ac.uk/mathematical-physical-sciences/sites/mathematical_physical_sciences/files/math0061_1.pdf" xlink:title="Year 4, term 2">
<polygon fill="white" stroke="#1874cd" stroke-width="5" points="1273.5,-41 1017.5,-41 1017.5,0 1273.5,0 1273.5,-41"/>
<text xml:space="preserve" text-anchor="middle" x="1145.5" y="-23.7" font-family="Times,serif" font-size="14.00">MATH0061</text>
<text xml:space="preserve" text-anchor="middle" x="1145.5" y="-7.2" font-family="Times,serif" font-size="14.00">Further Topics in Algebraic Number Theory</text>
</a>
</g>
</g>
<!-- MATH0022&#45;&gt;MATH0061 -->
<g id="edge34" class="edge">
<title>MATH0022&#45;&gt;MATH0061</title>
<g id="a_edge34"><a xlink:title="required prerequisite">
<path fill="none" stroke="black" d="M1267.31,-151.86C1267.01,-130.81 1263.57,-98.88 1247.5,-77 1239.21,-65.72 1227.92,-56.47 1215.86,-48.99"/>
<polygon fill="black" stroke="black" points="1217.79,-46.06 1207.37,-44.11 1214.3,-52.13 1217.79,-46.06"/>
</a>
</g>
</g>
<!-- MATH0109 -->
<g id="node17" class="node">
<title>MATH0109</title>
<g id="a_node17"><a xlink:href="https://www.ucl.ac.uk/mathematical-physical-sciences/sites/mathematical_physical_sciences/files/math0109.pdf" xlink:title="Year 3, term 1">
<polygon fill="white" stroke="#ff4040" stroke-width="5" points="1806,-195 1649,-195 1649,-154 1806,-154 1806,-195"/>
<text xml:space="preserve" text-anchor="middle" x="1727.5" y="-177.7" font-family="Times,serif" font-size="14.00">MATH0109</text>
<text xml:space="preserve" text-anchor="middle" x="1727.5" y="-161.2" font-family="Times,serif" font-size="14.00">Theorem Proving in Lean</text>
</a>
</g>
</g>
<!-- MATH0021&#45;&gt;MATH0073 -->
<g id="edge26" class="edge">
<title>MATH0021&#45;&gt;MATH0073</title>
<g id="a_edge26"><a xlink:title="recommended prerequisite">
<path fill="none" stroke="black" stroke-dasharray="5,2" d="M1430.74,-74.61C1441.83,-66.83 1454.49,-57.96 1466.23,-49.73"/>
<polygon fill="black" stroke="black" points="1467.99,-52.77 1474.17,-44.16 1463.97,-47.03 1467.99,-52.77"/>
</a>
</g>
</g>
<!-- MATH0021&#45;&gt;MATH0076 -->
<g id="edge31" class="edge">
<title>MATH0021&#45;&gt;MATH0076</title>
<g id="a_edge31"><a xlink:title="required prerequisite">
<path fill="none" stroke="black" d="M1386.77,-74.81C1382.84,-68.1 1378.42,-60.57 1374.17,-53.33"/>
<polygon fill="black" stroke="black" points="1377.2,-51.56 1369.12,-44.71 1371.16,-55.11 1377.2,-51.56"/>
</a>
</g>
</g>
<!-- MATH0035&#45;&gt;MATH0061 -->
<g id="edge33" class="edge">
<title>MATH0035&#45;&gt;MATH0061</title>
<g id="a_edge33"><a xlink:title="required prerequisite">
<path fill="none" stroke="black" d="M1154.74,-74.81C1153.64,-68.49 1152.42,-61.44 1151.23,-54.58"/>
<polygon fill="black" stroke="black" points="1154.71,-54.15 1149.56,-44.9 1147.81,-55.35 1154.71,-54.15"/>
</a>
</g>
</g>
<!-- MATH0038 -->
<g id="node22" class="node">
<title>MATH0038</title>
<g id="a_node22"><a xlink:href="https://www.ucl.ac.uk/mathematical-physical-sciences/sites/mathematical_physical_sciences/files/math0038.pdf" xlink:title="Year 3, term 2">
<polygon fill="white" stroke="#cd3333" stroke-width="5" points="1882.75,-118 1736.25,-118 1736.25,-77 1882.75,-77 1882.75,-118"/>
<text xml:space="preserve" text-anchor="middle" x="1809.5" y="-100.7" font-family="Times,serif" font-size="14.00">MATH0038</text>
<text xml:space="preserve" text-anchor="middle" x="1809.5" y="-84.2" font-family="Times,serif" font-size="14.00">History of Mathematics</text>
</a>
</g>
</g>
</g>
</svg>
