<?xml version="1.0" encoding="UTF-8" standalone="no"?>
<!DOCTYPE svg PUBLIC "-//W3C//DTD SVG 1.1//EN"
 "http://www.w3.org/Graphics/SVG/1.1/DTD/svg11.dtd">
<!-- Generated by graphviz version 14.0.5 (0)
 -->
<!-- Pages: 1 -->
<svg width="1748pt" height="357pt"
 viewBox="0.00 0.00 1748.00 357.00" xmlns="http://www.w3.org/2000/svg" xmlns:xlink="http://www.w3.org/1999/xlink">
<g id="graph0" class="graph" transform="scale(1 1) rotate(0) translate(4 353)">
<polygon fill="white" stroke="none" points="-4,4 -4,-353 1744.38,-353 1744.38,4 -4,4"/>
<!-- MATH0010 -->
<g id="node1" class="node">
<title>MATH0010</title>
<g id="a_node1"><a xlink:href="https://www.ucl.ac.uk/mathematical-physical-sciences/sites/mathematical_physical_sciences/files/math0010.pdf" xlink:title="Year 1, term 1">
<polygon fill="white" stroke="#ffb90f" stroke-width="5" points="606.38,-349 452.38,-349 452.38,-308 606.38,-308 606.38,-349"/>
<text xml:space="preserve" text-anchor="middle" x="529.38" y="-331.7" font-family="Times,serif" font-size="14.00">MATH0010</text>
<text xml:space="preserve" text-anchor="middle" x="529.38" y="-315.2" font-family="Times,serif" font-size="14.00">Mathematical Methods 1</text>
</a>
</g>
</g>
<!-- MATH0011 -->
<g id="node5" class="node">
<title>MATH0011</title>
<g id="a_node5"><a xlink:href="https://www.ucl.ac.uk/mathematical-physical-sciences/sites/mathematical_physical_sciences/files/math0011_3.pdf" xlink:title="Year 1, term 2">
<polygon fill="white" stroke="#cd950c" stroke-width="5" points="606.38,-272 452.38,-272 452.38,-231 606.38,-231 606.38,-272"/>
<text xml:space="preserve" text-anchor="middle" x="529.38" y="-254.7" font-family="Times,serif" font-size="14.00">MATH0011</text>
<text xml:space="preserve" text-anchor="middle" x="529.38" y="-238.2" font-family="Times,serif" font-size="14.00">Mathematical Methods 2</text>
</a>
</g>
</g>
<!-- MATH0010&#45;&gt;MATH0011 -->
<g id="edge2" class="edge">
<title>MATH0010&#45;&gt;MATH0011</title>
<g id="a_edge2"><a xlink:title="required prerequisite">
<path fill="none" stroke="black" d="M529.38,-305.81C529.38,-299.56 529.38,-292.61 529.38,-285.83"/>
<polygon fill="black" stroke="black" points="532.88,-285.92 529.38,-275.92 525.88,-285.92 532.88,-285.92"/>
</a>
</g>
</g>
<!-- MATH0003 -->
<g id="node2" class="node">
<title>MATH0003</title>
<g id="a_node2"><a xlink:href="https://www.ucl.ac.uk/mathematical-physical-sciences/sites/mathematical_physical_sciences/files/2025-09/math0003.pdf" xlink:title="Year 1, term 1">
<polygon fill="white" stroke="#ffb90f" stroke-width="5" points="986.38,-349 904.38,-349 904.38,-308 986.38,-308 986.38,-349"/>
<text xml:space="preserve" text-anchor="middle" x="945.38" y="-331.7" font-family="Times,serif" font-size="14.00">MATH0003</text>
<text xml:space="preserve" text-anchor="middle" x="945.38" y="-315.2" font-family="Times,serif" font-size="14.00">Analysis 1</text>
</a>
</g>
</g>
<!-- MATH0004 -->
<g id="node6" class="node">
<title>MATH0004</title>
<g id="a_node6"><a xlink:href="https://www.ucl.ac.uk/mathematical-physical-sciences/sites/mathematical_physical_sciences/files/math0004.pdf" xlink:title="Year 1, term 2">
<polygon fill="white" stroke="#cd950c" stroke-width="5" points="1021.38,-272 939.38,-272 939.38,-231 1021.38,-231 1021.38,-272"/>
<text xml:space="preserve" text-anchor="middle" x="980.38" y="-254.7" font-family="Times,serif" font-size="14.00">MATH0004</text>
<text xml:space="preserve" text-anchor="middle" x="980.38" y="-238.2" font-family="Times,serif" font-size="14.00">Analysis 2</text>
</a>
</g>
</g>
<!-- MATH0003&#45;&gt;MATH0004 -->
<g id="edge3" class="edge">
<title>MATH0003&#45;&gt;MATH0004</title>
<g id="a_edge3"><a xlink:title="required prerequisite">
<path fill="none" stroke="black" d="M955.5,-305.81C958.56,-299.26 961.98,-291.92 965.29,-284.83"/>
<polygon fill="black" stroke="black" points="968.46,-286.32 969.51,-275.78 962.11,-283.36 968.46,-286.32"/>
</a>
</g>
</g>
<!-- MATH0013 -->
<g id="node9" class="node">
<title>MATH0013</title>
<g id="a_node9"><a xlink:href="https://www.ucl.ac.uk/mathematical-physical-sciences/sites/mathematical_physical_sciences/files/2025-09/math0013_0.pdf" xlink:title="Year 2, term 1">
<polygon fill="white" stroke="#00ff00" stroke-width="5" points="1004.5,-195 818.25,-195 818.25,-154 1004.5,-154 1004.5,-195"/>
<text xml:space="preserve" text-anchor="middle" x="911.38" y="-177.7" font-family="Times,serif" font-size="14.00">MATH0013</text>
<text xml:space="preserve" text-anchor="middle" x="911.38" y="-161.2" font-family="Times,serif" font-size="14.00">Analysis 3 &#45; Complex Analysis</text>
</a>
</g>
</g>
<!-- MATH0003&#45;&gt;MATH0013 -->
<g id="edge6" class="edge">
<title>MATH0003&#45;&gt;MATH0013</title>
<g id="a_edge6"><a xlink:title="required prerequisite">
<path fill="none" stroke="black" d="M939.11,-305.71C936.27,-295.51 932.98,-283.18 930.38,-272 925.48,-251.03 920.8,-227.3 917.31,-208.62"/>
<polygon fill="black" stroke="black" points="920.77,-208.13 915.52,-198.93 913.89,-209.4 920.77,-208.13"/>
</a>
</g>
</g>
<!-- MATH0005 -->
<g id="node3" class="node">
<title>MATH0005</title>
<g id="a_node3"><a xlink:href="https://www.ucl.ac.uk/mathematical-physical-sciences/sites/mathematical_physical_sciences/files/2025-09/math0005 syllabus.pdf" xlink:title="Year 1, term 1">
<polygon fill="white" stroke="#ffb90f" stroke-width="5" points="142.38,-349 60.38,-349 60.38,-308 142.38,-308 142.38,-349"/>
<text xml:space="preserve" text-anchor="middle" x="101.38" y="-331.7" font-family="Times,serif" font-size="14.00">MATH0005</text>
<text xml:space="preserve" text-anchor="middle" x="101.38" y="-315.2" font-family="Times,serif" font-size="14.00">Algebra 1</text>
</a>
</g>
</g>
<!-- MATH0006 -->
<g id="node4" class="node">
<title>MATH0006</title>
<g id="a_node4"><a xlink:href="https://www.ucl.ac.uk/mathematical-physical-sciences/sites/mathematical_physical_sciences/files/math0006.pdf" xlink:title="Year 1, term 2">
<polygon fill="white" stroke="#cd950c" stroke-width="5" points="142.38,-272 60.38,-272 60.38,-231 142.38,-231 142.38,-272"/>
<text xml:space="preserve" text-anchor="middle" x="101.38" y="-254.7" font-family="Times,serif" font-size="14.00">MATH0006</text>
<text xml:space="preserve" text-anchor="middle" x="101.38" y="-238.2" font-family="Times,serif" font-size="14.00">Algebra 2</text>
</a>
</g>
</g>
<!-- MATH0005&#45;&gt;MATH0006 -->
<g id="edge1" class="edge">
<title>MATH0005&#45;&gt;MATH0006</title>
<g id="a_edge1"><a xlink:title="required prerequisite">
<path fill="none" stroke="black" d="M101.38,-305.81C101.38,-299.56 101.38,-292.61 101.38,-285.83"/>
<polygon fill="black" stroke="black" points="104.88,-285.92 101.38,-275.92 97.88,-285.92 104.88,-285.92"/>
</a>
</g>
</g>
<!-- MATH0014 -->
<g id="node7" class="node">
<title>MATH0014</title>
<g id="a_node7"><a xlink:href="https://www.ucl.ac.uk/mathematical-physical-sciences/sites/mathematical_physical_sciences/files/2025-09/math0014_0.pdf" xlink:title="Year 2, term 1">
<polygon fill="white" stroke="#00ff00" stroke-width="5" points="202.75,-195 0,-195 0,-154 202.75,-154 202.75,-195"/>
<text xml:space="preserve" text-anchor="middle" x="101.38" y="-177.7" font-family="Times,serif" font-size="14.00">MATH0014</text>
<text xml:space="preserve" text-anchor="middle" x="101.38" y="-161.2" font-family="Times,serif" font-size="14.00">Algebra 3: Further Linear Algebra</text>
</a>
</g>
</g>
<!-- MATH0006&#45;&gt;MATH0014 -->
<g id="edge4" class="edge">
<title>MATH0006&#45;&gt;MATH0014</title>
<g id="a_edge4"><a xlink:title="required prerequisite">
<path fill="none" stroke="black" d="M101.38,-228.81C101.38,-222.56 101.38,-215.61 101.38,-208.83"/>
<polygon fill="black" stroke="black" points="104.88,-208.92 101.38,-198.92 97.88,-208.92 104.88,-208.92"/>
</a>
</g>
</g>
<!-- MATH0016 -->
<g id="node8" class="node">
<title>MATH0016</title>
<g id="a_node8"><a xlink:href="https://www.ucl.ac.uk/mathematical-physical-sciences/sites/mathematical_physical_sciences/files/2025-09/math0016_0.pdf" xlink:title="Year 2, term 1">
<polygon fill="white" stroke="#00ff00" stroke-width="5" points="753.38,-195 599.38,-195 599.38,-154 753.38,-154 753.38,-195"/>
<text xml:space="preserve" text-anchor="middle" x="676.38" y="-177.7" font-family="Times,serif" font-size="14.00">MATH0016</text>
<text xml:space="preserve" text-anchor="middle" x="676.38" y="-161.2" font-family="Times,serif" font-size="14.00">Mathematical Methods 3</text>
</a>
</g>
</g>
<!-- MATH0011&#45;&gt;MATH0016 -->
<g id="edge5" class="edge">
<title>MATH0011&#45;&gt;MATH0016</title>
<g id="a_edge5"><a xlink:title="required prerequisite">
<path fill="none" stroke="black" d="M572.29,-228.61C588.22,-220.48 606.48,-211.16 623.22,-202.62"/>
<polygon fill="black" stroke="black" points="624.74,-205.77 632.06,-198.11 621.56,-199.54 624.74,-205.77"/>
</a>
</g>
</g>
<!-- MATH0057 -->
<g id="node11" class="node">
<title>MATH0057</title>
<g id="a_node11"><a xlink:href="https://www.ucl.ac.uk/mathematical-physical-sciences/sites/mathematical_physical_sciences/files/math0057.pdf" xlink:title="Year 2 or 3, term 2">
<polygon fill="white" stroke="#8ee5ee" stroke-width="5" points="501.25,-195 349.5,-195 349.5,-154 501.25,-154 501.25,-195"/>
<text xml:space="preserve" text-anchor="middle" x="425.38" y="-177.7" font-family="Times,serif" font-size="14.00">MATH0057</text>
<text xml:space="preserve" text-anchor="middle" x="425.38" y="-161.2" font-family="Times,serif" font-size="14.00">Probability and Statistics</text>
</a>
</g>
</g>
<!-- MATH0011&#45;&gt;MATH0057 -->
<g id="edge9" class="edge">
<title>MATH0011&#45;&gt;MATH0057</title>
<g id="a_edge9"><a xlink:title="required prerequisite">
<path fill="none" stroke="black" d="M499.01,-228.61C488.33,-220.9 476.17,-212.13 464.85,-203.97"/>
<polygon fill="black" stroke="black" points="466.98,-201.19 456.82,-198.18 462.88,-206.87 466.98,-201.19"/>
</a>
</g>
</g>
<!-- MATH0020 -->
<g id="node17" class="node">
<title>MATH0020</title>
<g id="a_node17"><a xlink:href="https://www.ucl.ac.uk/mathematical-physical-sciences/sites/mathematical_physical_sciences/files/math0020.pdf" xlink:title="Year 3, term 2">
<polygon fill="white" stroke="#cd3333" stroke-width="5" points="593.25,-118 465.5,-118 465.5,-77 593.25,-77 593.25,-118"/>
<text xml:space="preserve" text-anchor="middle" x="529.38" y="-100.7" font-family="Times,serif" font-size="14.00">MATH0020</text>
<text xml:space="preserve" text-anchor="middle" x="529.38" y="-84.2" font-family="Times,serif" font-size="14.00">Curves and Surfaces</text>
</a>
</g>
</g>
<!-- MATH0011&#45;&gt;MATH0020 -->
<g id="edge15" class="edge">
<title>MATH0011&#45;&gt;MATH0020</title>
<g id="a_edge15"><a xlink:title="required prerequisite">
<path fill="none" stroke="black" d="M529.38,-228.72C529.38,-203.33 529.38,-161.07 529.38,-131.61"/>
<polygon fill="black" stroke="black" points="532.88,-131.75 529.38,-121.75 525.88,-131.75 532.88,-131.75"/>
</a>
</g>
</g>
<!-- MATH0004&#45;&gt;MATH0013 -->
<g id="edge7" class="edge">
<title>MATH0004&#45;&gt;MATH0013</title>
<g id="a_edge7"><a xlink:title="recommended prerequisite">
<path fill="none" stroke="black" stroke-dasharray="5,2" d="M960.42,-228.81C953.75,-221.56 946.2,-213.36 939.06,-205.59"/>
<polygon fill="black" stroke="black" points="941.9,-203.51 932.55,-198.52 936.75,-208.25 941.9,-203.51"/>
</a>
</g>
</g>
<!-- MATH0051 -->
<g id="node10" class="node">
<title>MATH0051</title>
<g id="a_node10"><a xlink:href="https://www.ucl.ac.uk/mathematical-physical-sciences/sites/mathematical_physical_sciences/files/math0051.pdf" xlink:title="Year 2 or 3, term 2">
<polygon fill="white" stroke="#8ee5ee" stroke-width="5" points="1120.38,-195 1038.38,-195 1038.38,-154 1120.38,-154 1120.38,-195"/>
<text xml:space="preserve" text-anchor="middle" x="1079.38" y="-177.7" font-family="Times,serif" font-size="14.00">MATH0051</text>
<text xml:space="preserve" text-anchor="middle" x="1079.38" y="-161.2" font-family="Times,serif" font-size="14.00">Analysis 4</text>
</a>
</g>
</g>
<!-- MATH0004&#45;&gt;MATH0051 -->
<g id="edge8" class="edge">
<title>MATH0004&#45;&gt;MATH0051</title>
<g id="a_edge8"><a xlink:title="required prerequisite">
<path fill="none" stroke="black" d="M1009.28,-228.61C1019.34,-220.98 1030.79,-212.31 1041.47,-204.22"/>
<polygon fill="black" stroke="black" points="1043.55,-207.03 1049.4,-198.21 1039.32,-201.46 1043.55,-207.03"/>
</a>
</g>
</g>
<!-- MATH0028 -->
<g id="node16" class="node">
<title>MATH0028</title>
<g id="a_node16"><a xlink:href="https://www.ucl.ac.uk/mathematical-physical-sciences/sites/mathematical_physical_sciences/files/math0028.pdf" xlink:title="Year 3, term 2">
<polygon fill="white" stroke="#cd3333" stroke-width="5" points="186.25,-118 16.5,-118 16.5,-77 186.25,-77 186.25,-118"/>
<text xml:space="preserve" text-anchor="middle" x="101.38" y="-100.7" font-family="Times,serif" font-size="14.00">MATH0028</text>
<text xml:space="preserve" text-anchor="middle" x="101.38" y="-84.2" font-family="Times,serif" font-size="14.00">Combinatorial Optimisation</text>
</a>
</g>
</g>
<!-- MATH0014&#45;&gt;MATH0028 -->
<g id="edge14" class="edge">
<title>MATH0014&#45;&gt;MATH0028</title>
<g id="a_edge14"><a xlink:title="required prerequisite">
<path fill="none" stroke="black" d="M101.38,-151.81C101.38,-145.56 101.38,-138.61 101.38,-131.83"/>
<polygon fill="black" stroke="black" points="104.88,-131.92 101.38,-121.92 97.88,-131.92 104.88,-131.92"/>
</a>
</g>
</g>
<!-- MATH0070 -->
<g id="node18" class="node">
<title>MATH0070</title>
<g id="a_node18"><a xlink:href="https://www.ucl.ac.uk/mathematical-physical-sciences/sites/mathematical_physical_sciences/files/math0070.pdf" xlink:title="Year 3 or 4, term 1">
<polygon fill="white" stroke="#ff1493" stroke-width="5" points="825.75,-118 611,-118 611,-77 825.75,-77 825.75,-118"/>
<text xml:space="preserve" text-anchor="middle" x="718.38" y="-100.7" font-family="Times,serif" font-size="14.00">MATH0070</text>
<text xml:space="preserve" text-anchor="middle" x="718.38" y="-84.2" font-family="Times,serif" font-size="14.00">Linear Partial Differential Equations</text>
</a>
</g>
</g>
<!-- MATH0016&#45;&gt;MATH0070 -->
<g id="edge17" class="edge">
<title>MATH0016&#45;&gt;MATH0070</title>
<g id="a_edge17"><a xlink:title="required prerequisite">
<path fill="none" stroke="black" d="M688.52,-151.81C692.28,-145.1 696.49,-137.57 700.55,-130.33"/>
<polygon fill="black" stroke="black" points="703.54,-132.16 705.37,-121.72 697.43,-128.74 703.54,-132.16"/>
</a>
</g>
</g>
<!-- MATH0013&#45;&gt;MATH0070 -->
<g id="edge16" class="edge">
<title>MATH0013&#45;&gt;MATH0070</title>
<g id="a_edge16"><a xlink:title="required prerequisite">
<path fill="none" stroke="black" d="M854.77,-151.5C833.07,-143.07 808.1,-133.37 785.51,-124.59"/>
<polygon fill="black" stroke="black" points="786.98,-121.4 776.39,-121.04 784.44,-127.93 786.98,-121.4"/>
</a>
</g>
</g>
<!-- MATH0074 -->
<g id="node19" class="node">
<title>MATH0074</title>
<g id="a_node19"><a xlink:href="https://www.ucl.ac.uk/mathematical-physical-sciences/sites/mathematical_physical_sciences/files/math0074.pdf" xlink:title="Year 3 or 4, term 1">
<polygon fill="white" stroke="#ff1493" stroke-width="5" points="978.62,-118 844.12,-118 844.12,-77 978.62,-77 978.62,-118"/>
<text xml:space="preserve" text-anchor="middle" x="911.38" y="-100.7" font-family="Times,serif" font-size="14.00">MATH0074</text>
<text xml:space="preserve" text-anchor="middle" x="911.38" y="-84.2" font-family="Times,serif" font-size="14.00">Topology and Groups</text>
</a>
</g>
</g>
<!-- MATH0013&#45;&gt;MATH0074 -->
<g id="edge19" class="edge">
<title>MATH0013&#45;&gt;MATH0074</title>
<g id="a_edge19"><a xlink:title="required prerequisite">
<path fill="none" stroke="black" d="M911.38,-151.81C911.38,-145.56 911.38,-138.61 911.38,-131.83"/>
<polygon fill="black" stroke="black" points="914.88,-131.92 911.38,-121.92 907.88,-131.92 914.88,-131.92"/>
</a>
</g>
</g>
<!-- MATH0017 -->
<g id="node12" class="node">
<title>MATH0017</title>
<g id="a_node12"><a xlink:href="https://www.ucl.ac.uk/mathematical-physical-sciences/sites/mathematical_physical_sciences/files/math0017.pdf" xlink:title="Year 3, term 1">
<polygon fill="white" stroke="#ff4040" stroke-width="5" points="1440,-118 1334.75,-118 1334.75,-77 1440,-77 1440,-118"/>
<text xml:space="preserve" text-anchor="middle" x="1387.38" y="-100.7" font-family="Times,serif" font-size="14.00">MATH0017</text>
<text xml:space="preserve" text-anchor="middle" x="1387.38" y="-84.2" font-family="Times,serif" font-size="14.00">Measure Theory</text>
</a>
</g>
</g>
<!-- MATH0051&#45;&gt;MATH0017 -->
<g id="edge10" class="edge">
<title>MATH0051&#45;&gt;MATH0017</title>
<g id="a_edge10"><a xlink:title="required prerequisite">
<path fill="none" stroke="black" d="M1122.75,-164.85C1169.79,-155.22 1247.29,-138.62 1321.43,-118.99"/>
<polygon fill="black" stroke="black" points="1322.12,-122.43 1330.88,-116.46 1320.32,-115.66 1322.12,-122.43"/>
</a>
</g>
</g>
<!-- MATH0019 -->
<g id="node13" class="node">
<title>MATH0019</title>
<g id="a_node13"><a xlink:href="https://www.ucl.ac.uk/mathematical-physical-sciences/sites/mathematical_physical_sciences/files/math0019.pdf" xlink:title="Year 3, term 1">
<polygon fill="white" stroke="#ff4040" stroke-width="5" points="1316.62,-118 1176.12,-118 1176.12,-77 1316.62,-77 1316.62,-118"/>
<text xml:space="preserve" text-anchor="middle" x="1246.38" y="-100.7" font-family="Times,serif" font-size="14.00">MATH0019</text>
<text xml:space="preserve" text-anchor="middle" x="1246.38" y="-84.2" font-family="Times,serif" font-size="14.00">Multivariable Analysis</text>
</a>
</g>
</g>
<!-- MATH0051&#45;&gt;MATH0019 -->
<g id="edge11" class="edge">
<title>MATH0051&#45;&gt;MATH0019</title>
<g id="a_edge11"><a xlink:title="required prerequisite">
<path fill="none" stroke="black" d="M1122.82,-153.99C1142.5,-145.15 1166.08,-134.56 1187.33,-125.02"/>
<polygon fill="black" stroke="black" points="1188.48,-128.34 1196.17,-121.05 1185.62,-121.95 1188.48,-128.34"/>
</a>
</g>
</g>
<!-- MATH0018 -->
<g id="node15" class="node">
<title>MATH0018</title>
<g id="a_node15"><a xlink:href="https://www.ucl.ac.uk/mathematical-physical-sciences/sites/mathematical_physical_sciences/files/math0018.pdf" xlink:title="Year 3, term 2">
<polygon fill="white" stroke="#cd3333" stroke-width="5" points="1158.38,-118 1034.38,-118 1034.38,-77 1158.38,-77 1158.38,-118"/>
<text xml:space="preserve" text-anchor="middle" x="1096.38" y="-100.7" font-family="Times,serif" font-size="14.00">MATH0018</text>
<text xml:space="preserve" text-anchor="middle" x="1096.38" y="-84.2" font-family="Times,serif" font-size="14.00">Functional Analysis</text>
</a>
</g>
</g>
<!-- MATH0051&#45;&gt;MATH0018 -->
<g id="edge13" class="edge">
<title>MATH0051&#45;&gt;MATH0018</title>
<g id="a_edge13"><a xlink:title="required prerequisite">
<path fill="none" stroke="black" d="M1084.29,-151.81C1085.72,-145.49 1087.32,-138.44 1088.88,-131.58"/>
<polygon fill="black" stroke="black" points="1092.28,-132.41 1091.08,-121.88 1085.45,-130.86 1092.28,-132.41"/>
</a>
</g>
</g>
<!-- MATH0051&#45;&gt;MATH0070 -->
<g id="edge18" class="edge">
<title>MATH0051&#45;&gt;MATH0070</title>
<g id="a_edge18"><a xlink:title="required prerequisite">
<path fill="none" stroke="black" d="M1035.88,-159.97C1028.41,-157.84 1020.69,-155.76 1013.38,-154 980.56,-146.09 905.42,-131.97 839.19,-119.96"/>
<polygon fill="black" stroke="black" points="840.18,-116.58 829.71,-118.24 838.93,-123.47 840.18,-116.58"/>
</a>
</g>
</g>
<!-- MATH0051&#45;&gt;MATH0074 -->
<g id="edge20" class="edge">
<title>MATH0051&#45;&gt;MATH0074</title>
<g id="a_edge20"><a xlink:title="required prerequisite">
<path fill="none" stroke="black" d="M1036.11,-154.19C1016.23,-145.31 992.32,-134.64 970.78,-125.02"/>
<polygon fill="black" stroke="black" points="972.37,-121.9 961.81,-121.02 969.52,-128.29 972.37,-121.9"/>
</a>
</g>
</g>
<!-- MATH0090 -->
<g id="node20" class="node">
<title>MATH0090</title>
<g id="a_node20"><a xlink:href="https://www.ucl.ac.uk/mathematical-physical-sciences/sites/mathematical_physical_sciences/files/math0090.pdf" xlink:title="Year 3 or 4, term 2">
<polygon fill="white" stroke="#cd1076" stroke-width="5" points="1146,-41 926.75,-41 926.75,0 1146,0 1146,-41"/>
<text xml:space="preserve" text-anchor="middle" x="1036.38" y="-23.7" font-family="Times,serif" font-size="14.00">MATH0090</text>
<text xml:space="preserve" text-anchor="middle" x="1036.38" y="-7.2" font-family="Times,serif" font-size="14.00">Elliptic Partial Differential Equations</text>
</a>
</g>
</g>
<!-- MATH0051&#45;&gt;MATH0090 -->
<g id="edge22" class="edge">
<title>MATH0051&#45;&gt;MATH0090</title>
<g id="a_edge22"><a xlink:title="required prerequisite">
<path fill="none" stroke="black" d="M1050.44,-151.74C1040.54,-142.54 1030.64,-130.95 1025.38,-118 1017.19,-97.85 1020.04,-73.51 1024.89,-54.32"/>
<polygon fill="black" stroke="black" points="1028.21,-55.43 1027.58,-44.86 1021.48,-53.52 1028.21,-55.43"/>
</a>
</g>
</g>
<!-- MATH0092 -->
<g id="node23" class="node">
<title>MATH0092</title>
<g id="a_node23"><a xlink:href="https://www.ucl.ac.uk/mathematical-physical-sciences/sites/mathematical_physical_sciences/files/math0092.pdf" xlink:title="Year 3 or 4, term 2">
<polygon fill="white" stroke="#cd1076" stroke-width="5" points="1740.38,-41 1430.38,-41 1430.38,0 1740.38,0 1740.38,-41"/>
<text xml:space="preserve" text-anchor="middle" x="1585.38" y="-23.7" font-family="Times,serif" font-size="14.00">MATH0092</text>
<text xml:space="preserve" text-anchor="middle" x="1585.38" y="-7.2" font-family="Times,serif" font-size="14.00">Variational Methods for Partial Differential Equations</text>
</a>
</g>
</g>
<!-- MATH0051&#45;&gt;MATH0092 -->
<g id="edge29" class="edge">
<title>MATH0051&#45;&gt;MATH0092</title>
<g id="a_edge29"><a xlink:title="required prerequisite">
<path fill="none" stroke="black" d="M1122.67,-173.44C1193.55,-171.94 1337.61,-163.03 1449.38,-118 1488.53,-102.22 1527.2,-73.11 1553.24,-50.98"/>
<polygon fill="black" stroke="black" points="1555.49,-53.66 1560.76,-44.46 1550.91,-48.37 1555.49,-53.66"/>
</a>
</g>
</g>
<!-- MATH0029 -->
<g id="node14" class="node">
<title>MATH0029</title>
<g id="a_node14"><a xlink:href="https://www.ucl.ac.uk/mathematical-physical-sciences/sites/mathematical_physical_sciences/files/math0029.pdf" xlink:title="Year 3, term 1">
<polygon fill="white" stroke="#ff4040" stroke-width="5" points="402.88,-118 203.88,-118 203.88,-77 402.88,-77 402.88,-118"/>
<text xml:space="preserve" text-anchor="middle" x="303.38" y="-100.7" font-family="Times,serif" font-size="14.00">MATH0029</text>
<text xml:space="preserve" text-anchor="middle" x="303.38" y="-84.2" font-family="Times,serif" font-size="14.00">Graph Theory and Combinatorics</text>
</a>
</g>
</g>
<!-- MATH0057&#45;&gt;MATH0029 -->
<g id="edge12" class="edge">
<title>MATH0057&#45;&gt;MATH0029</title>
<g id="a_edge12"><a xlink:title="recommended prerequisite">
<path fill="none" stroke="black" stroke-dasharray="5,2" d="M389.76,-151.61C376.86,-143.67 362.11,-134.61 348.49,-126.24"/>
<polygon fill="black" stroke="black" points="350.47,-123.34 340.11,-121.08 346.8,-129.3 350.47,-123.34"/>
</a>
</g>
</g>
<!-- MATH0107 -->
<g id="node21" class="node">
<title>MATH0107</title>
<g id="a_node21"><a xlink:href="https://www.ucl.ac.uk/mathematical-physical-sciences/sites/mathematical_physical_sciences/files/math0107_1.pdf" xlink:title="Year 3 or 4, term 2">
<polygon fill="white" stroke="#cd1076" stroke-width="5" points="417.88,-41 188.88,-41 188.88,0 417.88,0 417.88,-41"/>
<text xml:space="preserve" text-anchor="middle" x="303.38" y="-23.7" font-family="Times,serif" font-size="14.00">MATH0107</text>
<text xml:space="preserve" text-anchor="middle" x="303.38" y="-7.2" font-family="Times,serif" font-size="14.00">Probabilistic Method in Combinatorics</text>
</a>
</g>
</g>
<!-- MATH0057&#45;&gt;MATH0107 -->
<g id="edge27" class="edge">
<title>MATH0057&#45;&gt;MATH0107</title>
<g id="a_edge27"><a xlink:title="recommended prerequisite">
<path fill="none" stroke="black" stroke-dasharray="5,2" d="M427.89,-151.88C429.17,-130.84 427.92,-98.92 412.38,-77 404.28,-65.59 393.13,-56.37 381.04,-48.98"/>
<polygon fill="black" stroke="black" points="382.93,-46.03 372.5,-44.18 379.5,-52.13 382.93,-46.03"/>
</a>
</g>
</g>
<!-- MATH0069 -->
<g id="node22" class="node">
<title>MATH0069</title>
<g id="a_node22"><a xlink:href="https://www.ucl.ac.uk/mathematical-physical-sciences/sites/mathematical_physical_sciences/files/math0069.pdf" xlink:title="Year 3 or 4, term 2">
<polygon fill="white" stroke="#cd1076" stroke-width="5" points="1412.38,-41 1330.38,-41 1330.38,0 1412.38,0 1412.38,-41"/>
<text xml:space="preserve" text-anchor="middle" x="1371.38" y="-23.7" font-family="Times,serif" font-size="14.00">MATH0069</text>
<text xml:space="preserve" text-anchor="middle" x="1371.38" y="-7.2" font-family="Times,serif" font-size="14.00">Probability</text>
</a>
</g>
</g>
<!-- MATH0017&#45;&gt;MATH0069 -->
<g id="edge28" class="edge">
<title>MATH0017&#45;&gt;MATH0069</title>
<g id="a_edge28"><a xlink:title="required prerequisite">
<path fill="none" stroke="black" d="M1382.75,-74.81C1381.4,-68.49 1379.89,-61.44 1378.43,-54.58"/>
<polygon fill="black" stroke="black" points="1381.87,-53.93 1376.36,-44.88 1375.03,-55.39 1381.87,-53.93"/>
</a>
</g>
</g>
<!-- MATH0071 -->
<g id="node24" class="node">
<title>MATH0071</title>
<g id="a_node24"><a xlink:href="https://www.ucl.ac.uk/mathematical-physical-sciences/sites/mathematical_physical_sciences/files/math0071.pdf" xlink:title="Year 4, term 1">
<polygon fill="white" stroke="#1c86ee" stroke-width="5" points="1297.5,-41 1195.25,-41 1195.25,0 1297.5,0 1297.5,-41"/>
<text xml:space="preserve" text-anchor="middle" x="1246.38" y="-23.7" font-family="Times,serif" font-size="14.00">MATH0071</text>
<text xml:space="preserve" text-anchor="middle" x="1246.38" y="-7.2" font-family="Times,serif" font-size="14.00">Spectral Theory</text>
</a>
</g>
</g>
<!-- MATH0017&#45;&gt;MATH0071 -->
<g id="edge32" class="edge">
<title>MATH0017&#45;&gt;MATH0071</title>
<g id="a_edge32"><a xlink:title="recommended prerequisite">
<path fill="none" stroke="black" stroke-dasharray="5,2" d="M1346.21,-74.61C1330.87,-66.44 1313.26,-57.08 1297.15,-48.51"/>
<polygon fill="black" stroke="black" points="1299.15,-45.61 1288.68,-44 1295.87,-51.79 1299.15,-45.61"/>
</a>
</g>
</g>
<!-- MATH0019&#45;&gt;MATH0090 -->
<g id="edge24" class="edge">
<title>MATH0019&#45;&gt;MATH0090</title>
<g id="a_edge24"><a xlink:title="required prerequisite">
<path fill="none" stroke="black" d="M1184.79,-74.5C1160.96,-66 1133.52,-56.19 1108.76,-47.35"/>
<polygon fill="black" stroke="black" points="1109.98,-44.07 1099.39,-44 1107.63,-50.66 1109.98,-44.07"/>
</a>
</g>
</g>
<!-- MATH0019&#45;&gt;MATH0071 -->
<g id="edge31" class="edge">
<title>MATH0019&#45;&gt;MATH0071</title>
<g id="a_edge31"><a xlink:title="required prerequisite">
<path fill="none" stroke="black" d="M1246.38,-74.81C1246.38,-68.56 1246.38,-61.61 1246.38,-54.83"/>
<polygon fill="black" stroke="black" points="1249.88,-54.92 1246.38,-44.92 1242.88,-54.92 1249.88,-54.92"/>
</a>
</g>
</g>
<!-- MATH0029&#45;&gt;MATH0107 -->
<g id="edge25" class="edge">
<title>MATH0029&#45;&gt;MATH0107</title>
<g id="a_edge25"><a xlink:title="recommended prerequisite">
<path fill="none" stroke="black" stroke-dasharray="5,2" d="M303.38,-74.81C303.38,-68.56 303.38,-61.61 303.38,-54.83"/>
<polygon fill="black" stroke="black" points="306.88,-54.92 303.38,-44.92 299.88,-54.92 306.88,-54.92"/>
</a>
</g>
</g>
<!-- MATH0018&#45;&gt;MATH0090 -->
<g id="edge23" class="edge">
<title>MATH0018&#45;&gt;MATH0090</title>
<g id="a_edge23"><a xlink:title="required prerequisite">
<path fill="none" stroke="black" d="M1079.02,-74.81C1073.35,-67.72 1066.94,-59.71 1060.84,-52.09"/>
<polygon fill="black" stroke="black" points="1063.82,-50.21 1054.84,-44.59 1058.36,-54.58 1063.82,-50.21"/>
</a>
</g>
</g>
<!-- MATH0018&#45;&gt;MATH0071 -->
<g id="edge30" class="edge">
<title>MATH0018&#45;&gt;MATH0071</title>
<g id="a_edge30"><a xlink:title="required prerequisite">
<path fill="none" stroke="black" d="M1140.16,-74.61C1156.57,-66.4 1175.41,-56.98 1192.62,-48.38"/>
<polygon fill="black" stroke="black" points="1193.8,-51.7 1201.18,-44.1 1190.67,-45.44 1193.8,-51.7"/>
</a>
</g>
</g>
<!-- MATH0028&#45;&gt;MATH0107 -->
<g id="edge26" class="edge">
<title>MATH0028&#45;&gt;MATH0107</title>
<g id="a_edge26"><a xlink:title="recommended prerequisite">
<path fill="none" stroke="black" stroke-dasharray="5,2" d="M160.62,-74.5C183.43,-66.03 209.7,-56.28 233.43,-47.47"/>
<polygon fill="black" stroke="black" points="234.56,-50.78 242.72,-44.02 232.12,-44.22 234.56,-50.78"/>
</a>
</g>
</g>
<!-- MATH0070&#45;&gt;MATH0090 -->
<g id="edge21" class="edge">
<title>MATH0070&#45;&gt;MATH0090</title>
<g id="a_edge21"><a xlink:title="recommended prerequisite">
<path fill="none" stroke="black" stroke-dasharray="5,2" d="M811.64,-74.5C849.5,-65.58 893.39,-55.22 932.29,-46.05"/>
<polygon fill="black" stroke="black" points="932.71,-49.54 941.64,-43.84 931.11,-42.73 932.71,-49.54"/>
</a>
</g>
</g>
</g>
</svg>
