<?xml version="1.0" encoding="UTF-8" standalone="no"?>
<!DOCTYPE svg PUBLIC "-//W3C//DTD SVG 1.1//EN"
 "http://www.w3.org/Graphics/SVG/1.1/DTD/svg11.dtd">
<!-- Generated by graphviz version 13.1.2 (0)
 -->
<!-- Pages: 1 -->
<svg width="2161pt" height="365pt"
 viewBox="0.00 0.00 2161.00 365.00" xmlns="http://www.w3.org/2000/svg" xmlns:xlink="http://www.w3.org/1999/xlink">
<g id="graph0" class="graph" transform="scale(1 1) rotate(0) translate(4 360.5)">
<polygon fill="white" stroke="none" points="-4,4 -4,-360.5 2156.5,-360.5 2156.5,4 -4,4"/>
<!-- MATH0010 -->
<g id="node1" class="node">
<title>MATH0010</title>
<g id="a_node1"><a xlink:href="https://www.ucl.ac.uk/mathematical-physical-sciences/sites/mathematical_physical_sciences/files/math0010.pdf" xlink:title="Year 1, term 1">
<polygon fill="white" stroke="#ffb90f" stroke-width="5" points="752.12,-356.5 557.62,-356.5 557.62,-314 752.12,-314 752.12,-356.5"/>
<text xml:space="preserve" text-anchor="middle" x="654.88" y="-339.2" font-family="Times,serif" font-size="14.00">MATH0010</text>
<text xml:space="preserve" text-anchor="middle" x="654.88" y="-321.95" font-family="Times,serif" font-size="14.00">Mathematical Methods 1</text>
</a>
</g>
</g>
<!-- MATH0011 -->
<g id="node4" class="node">
<title>MATH0011</title>
<g id="a_node4"><a xlink:href="https://www.ucl.ac.uk/mathematical-physical-sciences/sites/mathematical_physical_sciences/files/math0011_2.pdf" xlink:title="Year 1, term 2">
<polygon fill="white" stroke="#cd950c" stroke-width="5" points="752.12,-278 557.62,-278 557.62,-235.5 752.12,-235.5 752.12,-278"/>
<text xml:space="preserve" text-anchor="middle" x="654.88" y="-260.7" font-family="Times,serif" font-size="14.00">MATH0011</text>
<text xml:space="preserve" text-anchor="middle" x="654.88" y="-243.45" font-family="Times,serif" font-size="14.00">Mathematical Methods 2</text>
</a>
</g>
</g>
<!-- MATH0010&#45;&gt;MATH0011 -->
<g id="edge1" class="edge">
<title>MATH0010&#45;&gt;MATH0011</title>
<g id="a_edge1"><a xlink:title="required prerequisite">
<path fill="none" stroke="black" d="M654.88,-311.71C654.88,-305.39 654.88,-298.37 654.88,-291.54"/>
<polygon fill="black" stroke="black" points="658.38,-291.91 654.88,-281.91 651.38,-291.91 658.38,-291.91"/>
</a>
</g>
</g>
<!-- MATH0003 -->
<g id="node2" class="node">
<title>MATH0003</title>
<g id="a_node2"><a xlink:href="https://www.ucl.ac.uk/mathematical-physical-sciences/sites/mathematical_physical_sciences/files/math0003.pdf" xlink:title="Year 1, term 1">
<polygon fill="white" stroke="#ffb90f" stroke-width="5" points="1219.38,-356.5 1122.38,-356.5 1122.38,-314 1219.38,-314 1219.38,-356.5"/>
<text xml:space="preserve" text-anchor="middle" x="1170.88" y="-339.2" font-family="Times,serif" font-size="14.00">MATH0003</text>
<text xml:space="preserve" text-anchor="middle" x="1170.88" y="-321.95" font-family="Times,serif" font-size="14.00">Analysis 1</text>
</a>
</g>
</g>
<!-- MATH0004 -->
<g id="node5" class="node">
<title>MATH0004</title>
<g id="a_node5"><a xlink:href="https://www.ucl.ac.uk/mathematical-physical-sciences/sites/mathematical_physical_sciences/files/math0004.pdf" xlink:title="Year 1, term 2">
<polygon fill="white" stroke="#cd950c" stroke-width="5" points="1258.38,-278 1161.38,-278 1161.38,-235.5 1258.38,-235.5 1258.38,-278"/>
<text xml:space="preserve" text-anchor="middle" x="1209.88" y="-260.7" font-family="Times,serif" font-size="14.00">MATH0004</text>
<text xml:space="preserve" text-anchor="middle" x="1209.88" y="-243.45" font-family="Times,serif" font-size="14.00">Analysis 2</text>
</a>
</g>
</g>
<!-- MATH0003&#45;&gt;MATH0004 -->
<g id="edge2" class="edge">
<title>MATH0003&#45;&gt;MATH0004</title>
<g id="a_edge2"><a xlink:title="required prerequisite">
<path fill="none" stroke="black" d="M1182.37,-311.71C1185.75,-305.08 1189.52,-297.68 1193.16,-290.54"/>
<polygon fill="black" stroke="black" points="1196.22,-292.24 1197.64,-281.74 1189.98,-289.06 1196.22,-292.24"/>
</a>
</g>
</g>
<!-- MATH0013 -->
<g id="node7" class="node">
<title>MATH0013</title>
<g id="a_node7"><a xlink:href="https://www.ucl.ac.uk/mathematical-physical-sciences/sites/mathematical_physical_sciences/files/math0013.pdf" xlink:title="Year 2, term 1">
<polygon fill="white" stroke="#00ff00" stroke-width="5" points="1247,-199.5 1018.75,-199.5 1018.75,-157 1247,-157 1247,-199.5"/>
<text xml:space="preserve" text-anchor="middle" x="1132.88" y="-182.2" font-family="Times,serif" font-size="14.00">MATH0013</text>
<text xml:space="preserve" text-anchor="middle" x="1132.88" y="-164.95" font-family="Times,serif" font-size="14.00">Analysis 3 &#45; Complex Analysis</text>
</a>
</g>
</g>
<!-- MATH0003&#45;&gt;MATH0013 -->
<g id="edge4" class="edge">
<title>MATH0003&#45;&gt;MATH0013</title>
<g id="a_edge4"><a xlink:title="required prerequisite">
<path fill="none" stroke="black" d="M1163.03,-311.7C1159.64,-301.49 1155.79,-289.21 1152.88,-278 1147.29,-256.55 1142.33,-232.15 1138.75,-212.96"/>
<polygon fill="black" stroke="black" points="1142.22,-212.46 1136.98,-203.25 1135.33,-213.72 1142.22,-212.46"/>
</a>
</g>
</g>
<!-- MATH0005 -->
<g id="node3" class="node">
<title>MATH0005</title>
<g id="a_node3"><a xlink:href="https://www.ucl.ac.uk/mathematical-physical-sciences/sites/mathematical_physical_sciences/files/math0005.pdf" xlink:title="Year 1, term 1">
<polygon fill="white" stroke="#ffb90f" stroke-width="5" points="178.38,-356.5 81.38,-356.5 81.38,-314 178.38,-314 178.38,-356.5"/>
<text xml:space="preserve" text-anchor="middle" x="129.88" y="-339.2" font-family="Times,serif" font-size="14.00">MATH0005</text>
<text xml:space="preserve" text-anchor="middle" x="129.88" y="-321.95" font-family="Times,serif" font-size="14.00">Algebra 1</text>
</a>
</g>
</g>
<!-- MATH0006 -->
<g id="node6" class="node">
<title>MATH0006</title>
<g id="a_node6"><a xlink:href="https://www.ucl.ac.uk/mathematical-physical-sciences/sites/mathematical_physical_sciences/files/math0006.pdf" xlink:title="Year 1, term 2">
<polygon fill="white" stroke="#cd950c" stroke-width="5" points="178.38,-278 81.38,-278 81.38,-235.5 178.38,-235.5 178.38,-278"/>
<text xml:space="preserve" text-anchor="middle" x="129.88" y="-260.7" font-family="Times,serif" font-size="14.00">MATH0006</text>
<text xml:space="preserve" text-anchor="middle" x="129.88" y="-243.45" font-family="Times,serif" font-size="14.00">Algebra 2</text>
</a>
</g>
</g>
<!-- MATH0005&#45;&gt;MATH0006 -->
<g id="edge3" class="edge">
<title>MATH0005&#45;&gt;MATH0006</title>
<g id="a_edge3"><a xlink:title="required prerequisite">
<path fill="none" stroke="black" d="M129.88,-311.71C129.88,-305.39 129.88,-298.37 129.88,-291.54"/>
<polygon fill="black" stroke="black" points="133.38,-291.91 129.88,-281.91 126.38,-291.91 133.38,-291.91"/>
</a>
</g>
</g>
<!-- MATH0016 -->
<g id="node8" class="node">
<title>MATH0016</title>
<g id="a_node8"><a xlink:href="https://www.ucl.ac.uk/mathematical-physical-sciences/sites/mathematical_physical_sciences/files/math0016.pdf" xlink:title="Year 2, term 1">
<polygon fill="white" stroke="#00ff00" stroke-width="5" points="934.12,-199.5 739.62,-199.5 739.62,-157 934.12,-157 934.12,-199.5"/>
<text xml:space="preserve" text-anchor="middle" x="836.88" y="-182.2" font-family="Times,serif" font-size="14.00">MATH0016</text>
<text xml:space="preserve" text-anchor="middle" x="836.88" y="-164.95" font-family="Times,serif" font-size="14.00">Mathematical Methods 3</text>
</a>
</g>
</g>
<!-- MATH0011&#45;&gt;MATH0016 -->
<g id="edge6" class="edge">
<title>MATH0011&#45;&gt;MATH0016</title>
<g id="a_edge6"><a xlink:title="required prerequisite">
<path fill="none" stroke="black" d="M708.99,-233C728.98,-224.6 751.83,-215 772.63,-206.26"/>
<polygon fill="black" stroke="black" points="773.71,-209.6 781.57,-202.49 771,-203.14 773.71,-209.6"/>
</a>
</g>
</g>
<!-- MATH0057 -->
<g id="node10" class="node">
<title>MATH0057</title>
<g id="a_node10"><a xlink:href="https://www.ucl.ac.uk/mathematical-physical-sciences/sites/mathematical_physical_sciences/files/math0057.pdf" xlink:title="Year 2 or 3, term 2">
<polygon fill="white" stroke="#8ee5ee" stroke-width="5" points="626.62,-199.5 429.12,-199.5 429.12,-157 626.62,-157 626.62,-199.5"/>
<text xml:space="preserve" text-anchor="middle" x="527.88" y="-182.2" font-family="Times,serif" font-size="14.00">MATH0057</text>
<text xml:space="preserve" text-anchor="middle" x="527.88" y="-164.95" font-family="Times,serif" font-size="14.00">Probability and Statistics</text>
</a>
</g>
</g>
<!-- MATH0011&#45;&gt;MATH0057 -->
<g id="edge8" class="edge">
<title>MATH0011&#45;&gt;MATH0057</title>
<g id="a_edge8"><a xlink:title="required prerequisite">
<path fill="none" stroke="black" d="M617.11,-233C603.94,-225.07 588.98,-216.05 575.12,-207.71"/>
<polygon fill="black" stroke="black" points="576.94,-204.72 566.57,-202.56 573.33,-210.71 576.94,-204.72"/>
</a>
</g>
</g>
<!-- MATH0020 -->
<g id="node15" class="node">
<title>MATH0020</title>
<g id="a_node15"><a xlink:href="https://www.ucl.ac.uk/mathematical-physical-sciences/sites/mathematical_physical_sciences/files/math0020.pdf" xlink:title="Year 3, term 2">
<polygon fill="white" stroke="#cd3333" stroke-width="5" points="736.75,-121 573,-121 573,-78.5 736.75,-78.5 736.75,-121"/>
<text xml:space="preserve" text-anchor="middle" x="654.88" y="-103.7" font-family="Times,serif" font-size="14.00">MATH0020</text>
<text xml:space="preserve" text-anchor="middle" x="654.88" y="-86.45" font-family="Times,serif" font-size="14.00">Curves and Surfaces</text>
</a>
</g>
</g>
<!-- MATH0011&#45;&gt;MATH0020 -->
<g id="edge13" class="edge">
<title>MATH0011&#45;&gt;MATH0020</title>
<g id="a_edge13"><a xlink:title="required prerequisite">
<path fill="none" stroke="black" d="M654.88,-233.21C654.88,-207.27 654.88,-164.4 654.88,-134.48"/>
<polygon fill="black" stroke="black" points="658.38,-134.83 654.88,-124.83 651.38,-134.83 658.38,-134.83"/>
</a>
</g>
</g>
<!-- MATH0004&#45;&gt;MATH0013 -->
<g id="edge5" class="edge">
<title>MATH0004&#45;&gt;MATH0013</title>
<g id="a_edge5"><a xlink:title="recommended prerequisite">
<path fill="none" stroke="black" stroke-dasharray="5,2" d="M1187.19,-233.21C1179.74,-225.81 1171.33,-217.45 1163.39,-209.57"/>
<polygon fill="black" stroke="black" points="1166.3,-207.52 1156.74,-202.96 1161.37,-212.49 1166.3,-207.52"/>
</a>
</g>
</g>
<!-- MATH0051 -->
<g id="node11" class="node">
<title>MATH0051</title>
<g id="a_node11"><a xlink:href="https://www.ucl.ac.uk/mathematical-physical-sciences/sites/mathematical_physical_sciences/files/math0051.pdf" xlink:title="Year 2 or 3, term 2">
<polygon fill="white" stroke="#8ee5ee" stroke-width="5" points="1380.38,-199.5 1283.38,-199.5 1283.38,-157 1380.38,-157 1380.38,-199.5"/>
<text xml:space="preserve" text-anchor="middle" x="1331.88" y="-182.2" font-family="Times,serif" font-size="14.00">MATH0051</text>
<text xml:space="preserve" text-anchor="middle" x="1331.88" y="-164.95" font-family="Times,serif" font-size="14.00">Analysis 4</text>
</a>
</g>
</g>
<!-- MATH0004&#45;&gt;MATH0051 -->
<g id="edge9" class="edge">
<title>MATH0004&#45;&gt;MATH0051</title>
<g id="a_edge9"><a xlink:title="required prerequisite">
<path fill="none" stroke="black" d="M1246.15,-233C1258.81,-225.07 1273.18,-216.05 1286.49,-207.71"/>
<polygon fill="black" stroke="black" points="1288.06,-210.86 1294.67,-202.58 1284.34,-204.93 1288.06,-210.86"/>
</a>
</g>
</g>
<!-- MATH0014 -->
<g id="node9" class="node">
<title>MATH0014</title>
<g id="a_node9"><a xlink:href="https://www.ucl.ac.uk/mathematical-physical-sciences/sites/mathematical_physical_sciences/files/math0014.pdf" xlink:title="Year 2, term 1">
<polygon fill="white" stroke="#00ff00" stroke-width="5" points="259.75,-199.5 0,-199.5 0,-157 259.75,-157 259.75,-199.5"/>
<text xml:space="preserve" text-anchor="middle" x="129.88" y="-182.2" font-family="Times,serif" font-size="14.00">MATH0014</text>
<text xml:space="preserve" text-anchor="middle" x="129.88" y="-164.95" font-family="Times,serif" font-size="14.00">Algebra 3: Further Linear Algebra</text>
</a>
</g>
</g>
<!-- MATH0006&#45;&gt;MATH0014 -->
<g id="edge7" class="edge">
<title>MATH0006&#45;&gt;MATH0014</title>
<g id="a_edge7"><a xlink:title="required prerequisite">
<path fill="none" stroke="black" d="M129.88,-233.21C129.88,-226.89 129.88,-219.87 129.88,-213.04"/>
<polygon fill="black" stroke="black" points="133.38,-213.41 129.88,-203.41 126.38,-213.41 133.38,-213.41"/>
</a>
</g>
</g>
<!-- MATH0070 -->
<g id="node18" class="node">
<title>MATH0070</title>
<g id="a_node18"><a xlink:href="https://www.ucl.ac.uk/mathematical-physical-sciences/sites/mathematical_physical_sciences/files/math0070.pdf" xlink:title="Year 3 or 4, term 1">
<polygon fill="white" stroke="#ff1493" stroke-width="5" points="1031,-121 754.75,-121 754.75,-78.5 1031,-78.5 1031,-121"/>
<text xml:space="preserve" text-anchor="middle" x="892.88" y="-103.7" font-family="Times,serif" font-size="14.00">MATH0070</text>
<text xml:space="preserve" text-anchor="middle" x="892.88" y="-86.45" font-family="Times,serif" font-size="14.00">Linear Partial Differential Equations</text>
</a>
</g>
</g>
<!-- MATH0013&#45;&gt;MATH0070 -->
<g id="edge16" class="edge">
<title>MATH0013&#45;&gt;MATH0070</title>
<g id="a_edge16"><a xlink:title="required prerequisite">
<path fill="none" stroke="black" d="M1061.52,-154.5C1034.19,-145.8 1002.82,-135.8 974.6,-126.8"/>
<polygon fill="black" stroke="black" points="975.99,-123.57 965.4,-123.87 973.86,-130.24 975.99,-123.57"/>
</a>
</g>
</g>
<!-- MATH0074 -->
<g id="node19" class="node">
<title>MATH0074</title>
<g id="a_node19"><a xlink:href="https://www.ucl.ac.uk/mathematical-physical-sciences/sites/mathematical_physical_sciences/files/math0074.pdf" xlink:title="Year 3 or 4, term 1">
<polygon fill="white" stroke="#ff1493" stroke-width="5" points="1216.62,-121 1049.12,-121 1049.12,-78.5 1216.62,-78.5 1216.62,-121"/>
<text xml:space="preserve" text-anchor="middle" x="1132.88" y="-103.7" font-family="Times,serif" font-size="14.00">MATH0074</text>
<text xml:space="preserve" text-anchor="middle" x="1132.88" y="-86.45" font-family="Times,serif" font-size="14.00">Topology and Groups</text>
</a>
</g>
</g>
<!-- MATH0013&#45;&gt;MATH0074 -->
<g id="edge19" class="edge">
<title>MATH0013&#45;&gt;MATH0074</title>
<g id="a_edge19"><a xlink:title="required prerequisite">
<path fill="none" stroke="black" d="M1132.88,-154.71C1132.88,-148.39 1132.88,-141.37 1132.88,-134.54"/>
<polygon fill="black" stroke="black" points="1136.38,-134.91 1132.88,-124.91 1129.38,-134.91 1136.38,-134.91"/>
</a>
</g>
</g>
<!-- MATH0016&#45;&gt;MATH0070 -->
<g id="edge17" class="edge">
<title>MATH0016&#45;&gt;MATH0070</title>
<g id="a_edge17"><a xlink:title="required prerequisite">
<path fill="none" stroke="black" d="M853.37,-154.71C858.46,-147.77 864.15,-139.99 869.6,-132.55"/>
<polygon fill="black" stroke="black" points="872.32,-134.75 875.41,-124.61 866.68,-130.62 872.32,-134.75"/>
</a>
</g>
</g>
<!-- MATH0028 -->
<g id="node16" class="node">
<title>MATH0028</title>
<g id="a_node16"><a xlink:href="https://www.ucl.ac.uk/mathematical-physical-sciences/sites/mathematical_physical_sciences/files/math0028.pdf" xlink:title="Year 3, term 2">
<polygon fill="white" stroke="#cd3333" stroke-width="5" points="236.88,-121 22.87,-121 22.87,-78.5 236.88,-78.5 236.88,-121"/>
<text xml:space="preserve" text-anchor="middle" x="129.88" y="-103.7" font-family="Times,serif" font-size="14.00">MATH0028</text>
<text xml:space="preserve" text-anchor="middle" x="129.88" y="-86.45" font-family="Times,serif" font-size="14.00">Combinatorial Optimisation</text>
</a>
</g>
</g>
<!-- MATH0014&#45;&gt;MATH0028 -->
<g id="edge14" class="edge">
<title>MATH0014&#45;&gt;MATH0028</title>
<g id="a_edge14"><a xlink:title="required prerequisite">
<path fill="none" stroke="black" d="M129.88,-154.71C129.88,-148.39 129.88,-141.37 129.88,-134.54"/>
<polygon fill="black" stroke="black" points="133.38,-134.91 129.88,-124.91 126.38,-134.91 133.38,-134.91"/>
</a>
</g>
</g>
<!-- MATH0029 -->
<g id="node13" class="node">
<title>MATH0029</title>
<g id="a_node13"><a xlink:href="https://www.ucl.ac.uk/mathematical-physical-sciences/sites/mathematical_physical_sciences/files/math0029.pdf" xlink:title="Year 3, term 1">
<polygon fill="white" stroke="#ff4040" stroke-width="5" points="508.38,-121 255.38,-121 255.38,-78.5 508.38,-78.5 508.38,-121"/>
<text xml:space="preserve" text-anchor="middle" x="381.88" y="-103.7" font-family="Times,serif" font-size="14.00">MATH0029</text>
<text xml:space="preserve" text-anchor="middle" x="381.88" y="-86.45" font-family="Times,serif" font-size="14.00">Graph Theory and Combinatorics</text>
</a>
</g>
</g>
<!-- MATH0057&#45;&gt;MATH0029 -->
<g id="edge11" class="edge">
<title>MATH0057&#45;&gt;MATH0029</title>
<g id="a_edge11"><a xlink:title="recommended prerequisite">
<path fill="none" stroke="black" stroke-dasharray="5,2" d="M484.47,-154.5C468.94,-146.37 451.27,-137.11 435.02,-128.6"/>
<polygon fill="black" stroke="black" points="436.94,-125.65 426.46,-124.11 433.69,-131.85 436.94,-125.65"/>
</a>
</g>
</g>
<!-- MATH0107 -->
<g id="node23" class="node">
<title>MATH0107</title>
<g id="a_node23"><a xlink:href="https://www.ucl.ac.uk/mathematical-physical-sciences/sites/mathematical_physical_sciences/files/math0107_1.pdf" xlink:title="Year 3 or 4, term 2">
<polygon fill="white" stroke="#cd1076" stroke-width="5" points="527.5,-42.5 236.25,-42.5 236.25,0 527.5,0 527.5,-42.5"/>
<text xml:space="preserve" text-anchor="middle" x="381.88" y="-25.2" font-family="Times,serif" font-size="14.00">MATH0107</text>
<text xml:space="preserve" text-anchor="middle" x="381.88" y="-7.95" font-family="Times,serif" font-size="14.00">Probabilistic Method in Combinatorics</text>
</a>
</g>
</g>
<!-- MATH0057&#45;&gt;MATH0107 -->
<g id="edge29" class="edge">
<title>MATH0057&#45;&gt;MATH0107</title>
<g id="a_edge29"><a xlink:title="recommended prerequisite">
<path fill="none" stroke="black" stroke-dasharray="5,2" d="M531.75,-154.52C534.13,-132.84 534.13,-100.34 517.88,-78.5 509.18,-66.82 497.62,-57.55 484.9,-50.2"/>
<polygon fill="black" stroke="black" points="486.79,-47.24 476.32,-45.66 483.52,-53.43 486.79,-47.24"/>
</a>
</g>
</g>
<!-- MATH0019 -->
<g id="node12" class="node">
<title>MATH0019</title>
<g id="a_node12"><a xlink:href="https://www.ucl.ac.uk/mathematical-physical-sciences/sites/mathematical_physical_sciences/files/math0019.pdf" xlink:title="Year 3, term 1">
<polygon fill="white" stroke="#ff4040" stroke-width="5" points="1622.75,-121 1447,-121 1447,-78.5 1622.75,-78.5 1622.75,-121"/>
<text xml:space="preserve" text-anchor="middle" x="1534.88" y="-103.7" font-family="Times,serif" font-size="14.00">MATH0019</text>
<text xml:space="preserve" text-anchor="middle" x="1534.88" y="-86.45" font-family="Times,serif" font-size="14.00">Multivariable Analysis</text>
</a>
</g>
</g>
<!-- MATH0051&#45;&gt;MATH0019 -->
<g id="edge10" class="edge">
<title>MATH0051&#45;&gt;MATH0019</title>
<g id="a_edge10"><a xlink:title="required prerequisite">
<path fill="none" stroke="black" d="M1382.84,-158.04C1407.52,-148.75 1437.54,-137.43 1464.37,-127.32"/>
<polygon fill="black" stroke="black" points="1465.33,-130.7 1473.45,-123.9 1462.86,-124.15 1465.33,-130.7"/>
</a>
</g>
</g>
<!-- MATH0017 -->
<g id="node14" class="node">
<title>MATH0017</title>
<g id="a_node14"><a xlink:href="https://www.ucl.ac.uk/mathematical-physical-sciences/sites/mathematical_physical_sciences/files/math0017.pdf" xlink:title="Year 3, term 1">
<polygon fill="white" stroke="#ff4040" stroke-width="5" points="1773,-121 1640.75,-121 1640.75,-78.5 1773,-78.5 1773,-121"/>
<text xml:space="preserve" text-anchor="middle" x="1706.88" y="-103.7" font-family="Times,serif" font-size="14.00">MATH0017</text>
<text xml:space="preserve" text-anchor="middle" x="1706.88" y="-86.45" font-family="Times,serif" font-size="14.00">Measure Theory</text>
</a>
</g>
</g>
<!-- MATH0051&#45;&gt;MATH0017 -->
<g id="edge12" class="edge">
<title>MATH0051&#45;&gt;MATH0017</title>
<g id="a_edge12"><a xlink:title="required prerequisite">
<path fill="none" stroke="black" d="M1382.82,-168.95C1440.36,-159.3 1537.03,-142.25 1627.29,-121.99"/>
<polygon fill="black" stroke="black" points="1627.81,-125.46 1636.79,-119.84 1626.26,-118.64 1627.81,-125.46"/>
</a>
</g>
</g>
<!-- MATH0018 -->
<g id="node17" class="node">
<title>MATH0018</title>
<g id="a_node17"><a xlink:href="https://www.ucl.ac.uk/mathematical-physical-sciences/sites/mathematical_physical_sciences/files/math0018.pdf" xlink:title="Year 3, term 2">
<polygon fill="white" stroke="#cd3333" stroke-width="5" points="1428.62,-121 1273.12,-121 1273.12,-78.5 1428.62,-78.5 1428.62,-121"/>
<text xml:space="preserve" text-anchor="middle" x="1350.88" y="-103.7" font-family="Times,serif" font-size="14.00">MATH0018</text>
<text xml:space="preserve" text-anchor="middle" x="1350.88" y="-86.45" font-family="Times,serif" font-size="14.00">Functional Analysis</text>
</a>
</g>
</g>
<!-- MATH0051&#45;&gt;MATH0018 -->
<g id="edge15" class="edge">
<title>MATH0051&#45;&gt;MATH0018</title>
<g id="a_edge15"><a xlink:title="required prerequisite">
<path fill="none" stroke="black" d="M1337.47,-154.71C1339.04,-148.39 1340.79,-141.37 1342.48,-134.54"/>
<polygon fill="black" stroke="black" points="1345.87,-135.41 1344.89,-124.86 1339.08,-133.72 1345.87,-135.41"/>
</a>
</g>
</g>
<!-- MATH0051&#45;&gt;MATH0070 -->
<g id="edge18" class="edge">
<title>MATH0051&#45;&gt;MATH0070</title>
<g id="a_edge18"><a xlink:title="required prerequisite">
<path fill="none" stroke="black" d="M1280.95,-162.88C1272.61,-160.76 1264.03,-158.71 1255.88,-157 1215.94,-148.61 1125.21,-134.55 1044.45,-122.59"/>
<polygon fill="black" stroke="black" points="1045.03,-119.13 1034.63,-121.14 1044.01,-126.06 1045.03,-119.13"/>
</a>
</g>
</g>
<!-- MATH0051&#45;&gt;MATH0074 -->
<g id="edge20" class="edge">
<title>MATH0051&#45;&gt;MATH0074</title>
<g id="a_edge20"><a xlink:title="required prerequisite">
<path fill="none" stroke="black" d="M1280.89,-157.65C1257,-148.47 1228.18,-137.39 1202.33,-127.45"/>
<polygon fill="black" stroke="black" points="1203.85,-124.28 1193.26,-123.96 1201.33,-130.82 1203.85,-124.28"/>
</a>
</g>
</g>
<!-- MATH0090 -->
<g id="node21" class="node">
<title>MATH0090</title>
<g id="a_node21"><a xlink:href="https://www.ucl.ac.uk/mathematical-physical-sciences/sites/mathematical_physical_sciences/files/math0090.pdf" xlink:title="Year 3 or 4, term 2">
<polygon fill="white" stroke="#cd1076" stroke-width="5" points="1418.62,-42.5 1137.12,-42.5 1137.12,0 1418.62,0 1418.62,-42.5"/>
<text xml:space="preserve" text-anchor="middle" x="1277.88" y="-25.2" font-family="Times,serif" font-size="14.00">MATH0090</text>
<text xml:space="preserve" text-anchor="middle" x="1277.88" y="-7.95" font-family="Times,serif" font-size="14.00">Elliptic Partial Differential Equations</text>
</a>
</g>
</g>
<!-- MATH0051&#45;&gt;MATH0090 -->
<g id="edge23" class="edge">
<title>MATH0051&#45;&gt;MATH0090</title>
<g id="a_edge23"><a xlink:title="required prerequisite">
<path fill="none" stroke="black" d="M1293.09,-154.67C1281.5,-145.78 1270.2,-134.45 1263.88,-121 1254.28,-100.6 1258.06,-75.42 1264.1,-55.59"/>
<polygon fill="black" stroke="black" points="1267.34,-56.92 1267.23,-46.33 1260.71,-54.68 1267.34,-56.92"/>
</a>
</g>
</g>
<!-- MATH0092 -->
<g id="node22" class="node">
<title>MATH0092</title>
<g id="a_node22"><a xlink:href="https://www.ucl.ac.uk/mathematical-physical-sciences/sites/mathematical_physical_sciences/files/math0092.pdf" xlink:title="Year 3 or 4, term 2">
<polygon fill="white" stroke="#cd1076" stroke-width="5" points="2152.5,-42.5 1753.25,-42.5 1753.25,0 2152.5,0 2152.5,-42.5"/>
<text xml:space="preserve" text-anchor="middle" x="1952.88" y="-25.2" font-family="Times,serif" font-size="14.00">MATH0092</text>
<text xml:space="preserve" text-anchor="middle" x="1952.88" y="-7.95" font-family="Times,serif" font-size="14.00">Variational Methods for Partial Differential Equations</text>
</a>
</g>
</g>
<!-- MATH0051&#45;&gt;MATH0092 -->
<g id="edge26" class="edge">
<title>MATH0051&#45;&gt;MATH0092</title>
<g id="a_edge26"><a xlink:title="required prerequisite">
<path fill="none" stroke="black" d="M1382.59,-177.4C1467.47,-176.24 1642.68,-167.75 1781.88,-121 1830.09,-104.81 1879.85,-74.22 1913.17,-51.36"/>
<polygon fill="black" stroke="black" points="1915.09,-54.28 1921.3,-45.7 1911.09,-48.54 1915.09,-54.28"/>
</a>
</g>
</g>
<!-- MATH0019&#45;&gt;MATH0090 -->
<g id="edge25" class="edge">
<title>MATH0019&#45;&gt;MATH0090</title>
<g id="a_edge25"><a xlink:title="required prerequisite">
<path fill="none" stroke="black" d="M1458.46,-76C1429.08,-67.26 1395.31,-57.21 1364.99,-48.18"/>
<polygon fill="black" stroke="black" points="1366.03,-44.84 1355.44,-45.34 1364.03,-51.55 1366.03,-44.84"/>
</a>
</g>
</g>
<!-- MATH0071 -->
<g id="node24" class="node">
<title>MATH0071</title>
<g id="a_node24"><a xlink:href="https://www.ucl.ac.uk/mathematical-physical-sciences/sites/mathematical_physical_sciences/files/math0071.pdf" xlink:title="Year 4, term 1">
<polygon fill="white" stroke="#1c86ee" stroke-width="5" points="1599.88,-42.5 1469.88,-42.5 1469.88,0 1599.88,0 1599.88,-42.5"/>
<text xml:space="preserve" text-anchor="middle" x="1534.88" y="-25.2" font-family="Times,serif" font-size="14.00">MATH0071</text>
<text xml:space="preserve" text-anchor="middle" x="1534.88" y="-7.95" font-family="Times,serif" font-size="14.00">Spectral Theory</text>
</a>
</g>
</g>
<!-- MATH0019&#45;&gt;MATH0071 -->
<g id="edge31" class="edge">
<title>MATH0019&#45;&gt;MATH0071</title>
<g id="a_edge31"><a xlink:title="required prerequisite">
<path fill="none" stroke="black" d="M1534.88,-76.21C1534.88,-69.89 1534.88,-62.87 1534.88,-56.04"/>
<polygon fill="black" stroke="black" points="1538.38,-56.41 1534.88,-46.41 1531.38,-56.41 1538.38,-56.41"/>
</a>
</g>
</g>
<!-- MATH0029&#45;&gt;MATH0107 -->
<g id="edge27" class="edge">
<title>MATH0029&#45;&gt;MATH0107</title>
<g id="a_edge27"><a xlink:title="recommended prerequisite">
<path fill="none" stroke="black" stroke-dasharray="5,2" d="M381.88,-76.21C381.88,-69.89 381.88,-62.87 381.88,-56.04"/>
<polygon fill="black" stroke="black" points="385.38,-56.41 381.88,-46.41 378.38,-56.41 385.38,-56.41"/>
</a>
</g>
</g>
<!-- MATH0069 -->
<g id="node20" class="node">
<title>MATH0069</title>
<g id="a_node20"><a xlink:href="https://www.ucl.ac.uk/mathematical-physical-sciences/sites/mathematical_physical_sciences/files/math0069.pdf" xlink:title="Year 3 or 4, term 2">
<polygon fill="white" stroke="#cd1076" stroke-width="5" points="1735.38,-42.5 1638.38,-42.5 1638.38,0 1735.38,0 1735.38,-42.5"/>
<text xml:space="preserve" text-anchor="middle" x="1686.88" y="-25.2" font-family="Times,serif" font-size="14.00">MATH0069</text>
<text xml:space="preserve" text-anchor="middle" x="1686.88" y="-7.95" font-family="Times,serif" font-size="14.00">Probability</text>
</a>
</g>
</g>
<!-- MATH0017&#45;&gt;MATH0069 -->
<g id="edge21" class="edge">
<title>MATH0017&#45;&gt;MATH0069</title>
<g id="a_edge21"><a xlink:title="required prerequisite">
<path fill="none" stroke="black" d="M1700.98,-76.21C1699.29,-69.73 1697.4,-62.53 1695.58,-55.54"/>
<polygon fill="black" stroke="black" points="1699.09,-55.15 1693.18,-46.36 1692.32,-56.92 1699.09,-55.15"/>
</a>
</g>
</g>
<!-- MATH0017&#45;&gt;MATH0071 -->
<g id="edge32" class="edge">
<title>MATH0017&#45;&gt;MATH0071</title>
<g id="a_edge32"><a xlink:title="recommended prerequisite">
<path fill="none" stroke="black" stroke-dasharray="5,2" d="M1655.74,-76C1637.02,-67.68 1615.65,-58.17 1596.13,-49.5"/>
<polygon fill="black" stroke="black" points="1597.76,-46.39 1587.2,-45.52 1594.92,-52.78 1597.76,-46.39"/>
</a>
</g>
</g>
<!-- MATH0028&#45;&gt;MATH0107 -->
<g id="edge28" class="edge">
<title>MATH0028&#45;&gt;MATH0107</title>
<g id="a_edge28"><a xlink:title="recommended prerequisite">
<path fill="none" stroke="black" stroke-dasharray="5,2" d="M204.8,-76C233.62,-67.26 266.72,-57.21 296.45,-48.18"/>
<polygon fill="black" stroke="black" points="297.24,-51.6 305.79,-45.35 295.2,-44.9 297.24,-51.6"/>
</a>
</g>
</g>
<!-- MATH0018&#45;&gt;MATH0090 -->
<g id="edge24" class="edge">
<title>MATH0018&#45;&gt;MATH0090</title>
<g id="a_edge24"><a xlink:title="required prerequisite">
<path fill="none" stroke="black" d="M1329.37,-76.21C1322.45,-68.96 1314.66,-60.8 1307.28,-53.06"/>
<polygon fill="black" stroke="black" points="1309.96,-50.81 1300.53,-45.99 1304.9,-55.64 1309.96,-50.81"/>
</a>
</g>
</g>
<!-- MATH0018&#45;&gt;MATH0071 -->
<g id="edge30" class="edge">
<title>MATH0018&#45;&gt;MATH0071</title>
<g id="a_edge30"><a xlink:title="required prerequisite">
<path fill="none" stroke="black" d="M1405.58,-76C1425.79,-67.6 1448.89,-58 1469.92,-49.26"/>
<polygon fill="black" stroke="black" points="1471.09,-52.56 1478.98,-45.49 1468.4,-46.1 1471.09,-52.56"/>
</a>
</g>
</g>
<!-- MATH0070&#45;&gt;MATH0090 -->
<g id="edge22" class="edge">
<title>MATH0070&#45;&gt;MATH0090</title>
<g id="a_edge22"><a xlink:title="recommended prerequisite">
<path fill="none" stroke="black" stroke-dasharray="5,2" d="M1007.35,-76C1053,-66.93 1105.71,-56.46 1152.41,-47.18"/>
<polygon fill="black" stroke="black" points="1152.9,-50.65 1162.03,-45.27 1151.54,-43.78 1152.9,-50.65"/>
</a>
</g>
</g>
</g>
</svg>
