<?xml version="1.0" encoding="UTF-8" standalone="no"?>
<!DOCTYPE svg PUBLIC "-//W3C//DTD SVG 1.1//EN"
 "http://www.w3.org/Graphics/SVG/1.1/DTD/svg11.dtd">
<!-- Generated by graphviz version 12.1.1 (0)
 -->
<!-- Pages: 1 -->
<svg width="2124pt" height="443pt"
 viewBox="0.00 0.00 2124.25 443.00" xmlns="http://www.w3.org/2000/svg" xmlns:xlink="http://www.w3.org/1999/xlink">
<g id="graph0" class="graph" transform="scale(1 1) rotate(0) translate(4 439)">
<polygon fill="white" stroke="none" points="-4,4 -4,-439 2120.25,-439 2120.25,4 -4,4"/>
<!-- MATH0005 -->
<g id="node1" class="node">
<title>MATH0005</title>
<g id="a_node1"><a xlink:href="https://www.ucl.ac.uk/maths/sites/maths/files/math0005.pdf" xlink:title="MATH0005&#10;Algebra 1">
<polygon fill="white" stroke="orange" stroke-width="5" points="919.12,-435 822.12,-435 822.12,-392.5 919.12,-392.5 919.12,-435"/>
<text text-anchor="middle" x="870.62" y="-417.7" font-family="Times,serif" font-size="14.00">MATH0005</text>
<text text-anchor="middle" x="870.62" y="-400.45" font-family="Times,serif" font-size="14.00">Algebra 1</text>
</a>
</g>
</g>
<!-- MATH0006 -->
<g id="node4" class="node">
<title>MATH0006</title>
<g id="a_node4"><a xlink:href="https://www.ucl.ac.uk/maths/sites/maths/files/math0006.pdf" xlink:title="MATH0006&#10;Algebra 2">
<polygon fill="white" stroke="orange" stroke-width="5" points="919.12,-356.5 822.12,-356.5 822.12,-314 919.12,-314 919.12,-356.5"/>
<text text-anchor="middle" x="870.62" y="-339.2" font-family="Times,serif" font-size="14.00">MATH0006</text>
<text text-anchor="middle" x="870.62" y="-321.95" font-family="Times,serif" font-size="14.00">Algebra 2</text>
</a>
</g>
</g>
<!-- MATH0005&#45;&gt;MATH0006 -->
<g id="edge1" class="edge">
<title>MATH0005&#45;&gt;MATH0006</title>
<path fill="none" stroke="black" d="M870.62,-390.21C870.62,-383.89 870.62,-376.87 870.62,-370.04"/>
<polygon fill="black" stroke="black" points="874.13,-370.41 870.63,-360.41 867.13,-370.41 874.13,-370.41"/>
</g>
<!-- MATH0003 -->
<g id="node2" class="node">
<title>MATH0003</title>
<g id="a_node2"><a xlink:href="https://www.ucl.ac.uk/maths/sites/maths/files/math0003.pdf" xlink:title="MATH0003&#10;Analysis 1">
<polygon fill="white" stroke="orange" stroke-width="5" points="1183.12,-435 1086.12,-435 1086.12,-392.5 1183.12,-392.5 1183.12,-435"/>
<text text-anchor="middle" x="1134.62" y="-417.7" font-family="Times,serif" font-size="14.00">MATH0003</text>
<text text-anchor="middle" x="1134.62" y="-400.45" font-family="Times,serif" font-size="14.00">Analysis 1</text>
</a>
</g>
</g>
<!-- MATH0004 -->
<g id="node6" class="node">
<title>MATH0004</title>
<g id="a_node6"><a xlink:href="https://www.ucl.ac.uk/maths/sites/maths/files/math0004.pdf" xlink:title="MATH0004&#10;Analysis 2">
<polygon fill="white" stroke="orange" stroke-width="5" points="1222.12,-356.5 1125.12,-356.5 1125.12,-314 1222.12,-314 1222.12,-356.5"/>
<text text-anchor="middle" x="1173.62" y="-339.2" font-family="Times,serif" font-size="14.00">MATH0004</text>
<text text-anchor="middle" x="1173.62" y="-321.95" font-family="Times,serif" font-size="14.00">Analysis 2</text>
</a>
</g>
</g>
<!-- MATH0003&#45;&gt;MATH0004 -->
<g id="edge3" class="edge">
<title>MATH0003&#45;&gt;MATH0004</title>
<path fill="none" stroke="black" d="M1146.12,-390.21C1149.5,-383.58 1153.27,-376.18 1156.91,-369.04"/>
<polygon fill="black" stroke="black" points="1159.97,-370.74 1161.39,-360.24 1153.73,-367.56 1159.97,-370.74"/>
</g>
<!-- MATH0013 -->
<g id="node7" class="node">
<title>MATH0013</title>
<g id="a_node7"><a xlink:href="https://www.ucl.ac.uk/maths/sites/maths/files/math0013.pdf" xlink:title="MATH0013&#10;Analysis 3 &#45; Complex Analysis">
<polygon fill="white" stroke="#00cd00" stroke-width="5" points="1210.75,-278 982.5,-278 982.5,-235.5 1210.75,-235.5 1210.75,-278"/>
<text text-anchor="middle" x="1096.62" y="-260.7" font-family="Times,serif" font-size="14.00">MATH0013</text>
<text text-anchor="middle" x="1096.62" y="-243.45" font-family="Times,serif" font-size="14.00">Analysis 3 &#45; Complex Analysis</text>
</a>
</g>
</g>
<!-- MATH0003&#45;&gt;MATH0013 -->
<g id="edge4" class="edge">
<title>MATH0003&#45;&gt;MATH0013</title>
<path fill="none" stroke="black" d="M1126.78,-390.2C1123.39,-379.99 1119.54,-367.71 1116.62,-356.5 1111.04,-335.05 1106.08,-310.65 1102.5,-291.46"/>
<polygon fill="black" stroke="black" points="1105.97,-290.96 1100.73,-281.75 1099.08,-292.22 1105.97,-290.96"/>
</g>
<!-- MATH0010 -->
<g id="node3" class="node">
<title>MATH0010</title>
<g id="a_node3"><a xlink:href="https://www.ucl.ac.uk/maths/sites/maths/files/math0010.pdf" xlink:title="MATH0010&#10;Mathematical Methods 1">
<polygon fill="white" stroke="orange" stroke-width="5" points="681.88,-435 487.38,-435 487.38,-392.5 681.88,-392.5 681.88,-435"/>
<text text-anchor="middle" x="584.62" y="-417.7" font-family="Times,serif" font-size="14.00">MATH0010</text>
<text text-anchor="middle" x="584.62" y="-400.45" font-family="Times,serif" font-size="14.00">Mathematical Methods 1</text>
</a>
</g>
</g>
<!-- MATH0011 -->
<g id="node5" class="node">
<title>MATH0011</title>
<g id="a_node5"><a xlink:href="https://www.ucl.ac.uk/maths/sites/maths/files/math0011_syllabus.pdf" xlink:title="MATH0011&#10;Mathematical Methods 2">
<polygon fill="white" stroke="orange" stroke-width="5" points="681.88,-356.5 487.38,-356.5 487.38,-314 681.88,-314 681.88,-356.5"/>
<text text-anchor="middle" x="584.62" y="-339.2" font-family="Times,serif" font-size="14.00">MATH0011</text>
<text text-anchor="middle" x="584.62" y="-321.95" font-family="Times,serif" font-size="14.00">Mathematical Methods 2</text>
</a>
</g>
</g>
<!-- MATH0010&#45;&gt;MATH0011 -->
<g id="edge2" class="edge">
<title>MATH0010&#45;&gt;MATH0011</title>
<path fill="none" stroke="black" d="M584.62,-390.21C584.62,-383.89 584.62,-376.87 584.62,-370.04"/>
<polygon fill="black" stroke="black" points="588.13,-370.41 584.63,-360.41 581.13,-370.41 588.13,-370.41"/>
</g>
<!-- MATH0014 -->
<g id="node8" class="node">
<title>MATH0014</title>
<g id="a_node8"><a xlink:href="https://www.ucl.ac.uk/maths/sites/maths/files/math0014.pdf" xlink:title="MATH0014&#10;Algebra 3: Further Linear Algebra">
<polygon fill="white" stroke="#00cd00" stroke-width="5" points="921.5,-278 661.75,-278 661.75,-235.5 921.5,-235.5 921.5,-278"/>
<text text-anchor="middle" x="791.62" y="-260.7" font-family="Times,serif" font-size="14.00">MATH0014</text>
<text text-anchor="middle" x="791.62" y="-243.45" font-family="Times,serif" font-size="14.00">Algebra 3: Further Linear Algebra</text>
</a>
</g>
</g>
<!-- MATH0006&#45;&gt;MATH0014 -->
<g id="edge6" class="edge">
<title>MATH0006&#45;&gt;MATH0014</title>
<path fill="none" stroke="black" d="M847.35,-311.71C839.78,-304.38 831.25,-296.13 823.19,-288.31"/>
<polygon fill="black" stroke="black" points="825.71,-285.89 816.09,-281.44 820.84,-290.92 825.71,-285.89"/>
</g>
<!-- MATH0052 -->
<g id="node10" class="node">
<title>MATH0052</title>
<g id="a_node10"><a xlink:href="https://www.ucl.ac.uk/maths/sites/maths/files/math0052.pdf" xlink:title="MATH0052&#10;Geometry and Groups">
<polygon fill="white" stroke="cadetblue" stroke-width="5" points="1036.38,-199.5 862.88,-199.5 862.88,-157 1036.38,-157 1036.38,-199.5"/>
<text text-anchor="middle" x="949.62" y="-182.2" font-family="Times,serif" font-size="14.00">MATH0052</text>
<text text-anchor="middle" x="949.62" y="-164.95" font-family="Times,serif" font-size="14.00">Geometry and Groups</text>
</a>
</g>
</g>
<!-- MATH0006&#45;&gt;MATH0052 -->
<g id="edge9" class="edge">
<title>MATH0006&#45;&gt;MATH0052</title>
<path fill="none" stroke="black" d="M902.01,-311.52C912.64,-302.27 923.59,-290.75 930.62,-278 941.57,-258.16 946.3,-233.05 948.3,-213.12"/>
<polygon fill="black" stroke="black" points="951.78,-213.52 949.09,-203.27 944.8,-212.96 951.78,-213.52"/>
</g>
<!-- MATH0016 -->
<g id="node9" class="node">
<title>MATH0016</title>
<g id="a_node9"><a xlink:href="https://www.ucl.ac.uk/maths/sites/maths/files/math0016.pdf" xlink:title="MATH0016&#10;Mathematical Methods 3">
<polygon fill="white" stroke="cadetblue" stroke-width="5" points="844.88,-199.5 650.38,-199.5 650.38,-157 844.88,-157 844.88,-199.5"/>
<text text-anchor="middle" x="747.62" y="-182.2" font-family="Times,serif" font-size="14.00">MATH0016</text>
<text text-anchor="middle" x="747.62" y="-164.95" font-family="Times,serif" font-size="14.00">Mathematical Methods 3</text>
</a>
</g>
</g>
<!-- MATH0011&#45;&gt;MATH0016 -->
<g id="edge7" class="edge">
<title>MATH0011&#45;&gt;MATH0016</title>
<path fill="none" stroke="black" d="M596.32,-311.78C608.32,-290.3 628.59,-257.95 652.62,-235.5 663.9,-224.97 677.47,-215.51 690.78,-207.47"/>
<polygon fill="black" stroke="black" points="692.2,-210.7 699.09,-202.64 688.68,-204.65 692.2,-210.7"/>
</g>
<!-- MATH0057 -->
<g id="node12" class="node">
<title>MATH0057</title>
<g id="a_node12"><a xlink:href="https://www.ucl.ac.uk/maths/sites/maths/files/math0057.pdf" xlink:title="MATH0057&#10;Probability and Statistics">
<polygon fill="white" stroke="cadetblue" stroke-width="5" points="244.38,-199.5 46.88,-199.5 46.88,-157 244.38,-157 244.38,-199.5"/>
<text text-anchor="middle" x="145.62" y="-182.2" font-family="Times,serif" font-size="14.00">MATH0057</text>
<text text-anchor="middle" x="145.62" y="-164.95" font-family="Times,serif" font-size="14.00">Probability and Statistics</text>
</a>
</g>
</g>
<!-- MATH0011&#45;&gt;MATH0057 -->
<g id="edge12" class="edge">
<title>MATH0011&#45;&gt;MATH0057</title>
<path fill="none" stroke="black" d="M520.32,-311.55C440.58,-283.39 304.89,-235.48 220.53,-205.7"/>
<polygon fill="black" stroke="black" points="221.77,-202.42 211.17,-202.39 219.44,-209.02 221.77,-202.42"/>
</g>
<!-- MATH0020 -->
<g id="node17" class="node">
<title>MATH0020</title>
<g id="a_node17"><a xlink:href="https://www.ucl.ac.uk/maths/sites/maths/files/math0020.pdf" xlink:title="MATH0020&#10;Differential Geometry">
<polygon fill="white" stroke="#ff4040" stroke-width="5" points="695,-121 522.25,-121 522.25,-78.5 695,-78.5 695,-121"/>
<text text-anchor="middle" x="608.62" y="-103.7" font-family="Times,serif" font-size="14.00">MATH0020</text>
<text text-anchor="middle" x="608.62" y="-86.45" font-family="Times,serif" font-size="14.00">Differential Geometry</text>
</a>
</g>
</g>
<!-- MATH0011&#45;&gt;MATH0020 -->
<g id="edge17" class="edge">
<title>MATH0011&#45;&gt;MATH0020</title>
<path fill="none" stroke="black" d="M586.93,-311.86C591.14,-270.82 600.14,-183.32 605.12,-134.85"/>
<polygon fill="black" stroke="black" points="608.6,-135.23 606.14,-124.92 601.64,-134.51 608.6,-135.23"/>
</g>
<!-- MATH0004&#45;&gt;MATH0013 -->
<g id="edge5" class="edge">
<title>MATH0004&#45;&gt;MATH0013</title>
<path fill="none" stroke="black" stroke-dasharray="5,2" d="M1150.94,-311.71C1143.49,-304.31 1135.08,-295.95 1127.14,-288.07"/>
<polygon fill="black" stroke="black" points="1130.05,-286.02 1120.49,-281.46 1125.12,-290.99 1130.05,-286.02"/>
</g>
<!-- MATH0051 -->
<g id="node11" class="node">
<title>MATH0051</title>
<g id="a_node11"><a xlink:href="https://www.ucl.ac.uk/maths/sites/maths/files/math0051.pdf" xlink:title="MATH0051&#10;Analysis 4">
<polygon fill="white" stroke="cadetblue" stroke-width="5" points="1357.12,-199.5 1260.12,-199.5 1260.12,-157 1357.12,-157 1357.12,-199.5"/>
<text text-anchor="middle" x="1308.62" y="-182.2" font-family="Times,serif" font-size="14.00">MATH0051</text>
<text text-anchor="middle" x="1308.62" y="-164.95" font-family="Times,serif" font-size="14.00">Analysis 4</text>
</a>
</g>
</g>
<!-- MATH0004&#45;&gt;MATH0051 -->
<g id="edge11" class="edge">
<title>MATH0004&#45;&gt;MATH0051</title>
<path fill="none" stroke="black" d="M1193.26,-311.71C1216.55,-284.96 1255.52,-240.22 1281.64,-210.23"/>
<polygon fill="black" stroke="black" points="1284.05,-212.8 1287.98,-202.96 1278.77,-208.2 1284.05,-212.8"/>
</g>
<!-- MATH0013&#45;&gt;MATH0052 -->
<g id="edge8" class="edge">
<title>MATH0013&#45;&gt;MATH0052</title>
<path fill="none" stroke="black" d="M1052.92,-233C1037.29,-224.87 1019.5,-215.61 1003.13,-207.1"/>
<polygon fill="black" stroke="black" points="1004.99,-204.12 994.51,-202.61 1001.76,-210.33 1004.99,-204.12"/>
</g>
<!-- MATH0070 -->
<g id="node19" class="node">
<title>MATH0070</title>
<g id="a_node19"><a xlink:href="https://www.ucl.ac.uk/maths/sites/maths/files/math0070.pdf" xlink:title="MATH0070&#10;Linear Partial Differential Equations">
<polygon fill="white" stroke="deeppink" stroke-width="5" points="989.75,-121 713.5,-121 713.5,-78.5 989.75,-78.5 989.75,-121"/>
<text text-anchor="middle" x="851.62" y="-103.7" font-family="Times,serif" font-size="14.00">MATH0070</text>
<text text-anchor="middle" x="851.62" y="-86.45" font-family="Times,serif" font-size="14.00">Linear Partial Differential Equations</text>
</a>
</g>
</g>
<!-- MATH0013&#45;&gt;MATH0070 -->
<g id="edge19" class="edge">
<title>MATH0013&#45;&gt;MATH0070</title>
<path fill="none" stroke="black" d="M1090.68,-233.2C1083.61,-210.7 1069.62,-176.73 1045.62,-157 1030.61,-144.65 1013,-135.02 994.63,-127.5"/>
<polygon fill="black" stroke="black" points="996.05,-124.29 985.46,-123.96 993.53,-130.83 996.05,-124.29"/>
</g>
<!-- MATH0074 -->
<g id="node20" class="node">
<title>MATH0074</title>
<g id="a_node20"><a xlink:href="https://www.ucl.ac.uk/maths/sites/maths/files/math0074.pdf" xlink:title="MATH0074&#10;Topology and Groups">
<polygon fill="white" stroke="deeppink" stroke-width="5" points="1175.38,-121 1007.88,-121 1007.88,-78.5 1175.38,-78.5 1175.38,-121"/>
<text text-anchor="middle" x="1091.62" y="-103.7" font-family="Times,serif" font-size="14.00">MATH0074</text>
<text text-anchor="middle" x="1091.62" y="-86.45" font-family="Times,serif" font-size="14.00">Topology and Groups</text>
</a>
</g>
</g>
<!-- MATH0013&#45;&gt;MATH0074 -->
<g id="edge22" class="edge">
<title>MATH0013&#45;&gt;MATH0074</title>
<path fill="none" stroke="black" d="M1095.9,-233.21C1095.06,-207.27 1093.68,-164.4 1092.71,-134.48"/>
<polygon fill="black" stroke="black" points="1096.22,-134.71 1092.4,-124.83 1089.23,-134.94 1096.22,-134.71"/>
</g>
<!-- MATH0014&#45;&gt;MATH0052 -->
<g id="edge10" class="edge">
<title>MATH0014&#45;&gt;MATH0052</title>
<path fill="none" stroke="black" d="M838.6,-233C855.56,-224.79 874.89,-215.44 892.61,-206.86"/>
<polygon fill="black" stroke="black" points="893.99,-210.08 901.47,-202.57 890.94,-203.78 893.99,-210.08"/>
</g>
<!-- MATH0028 -->
<g id="node16" class="node">
<title>MATH0028</title>
<g id="a_node16"><a xlink:href="https://www.ucl.ac.uk/maths/sites/maths/files/math0028.pdf" xlink:title="MATH0028&#10;Combinatorial Optimisation">
<polygon fill="white" stroke="#ff4040" stroke-width="5" points="504.62,-121 290.62,-121 290.62,-78.5 504.62,-78.5 504.62,-121"/>
<text text-anchor="middle" x="397.62" y="-103.7" font-family="Times,serif" font-size="14.00">MATH0028</text>
<text text-anchor="middle" x="397.62" y="-86.45" font-family="Times,serif" font-size="14.00">Combinatorial Optimisation</text>
</a>
</g>
</g>
<!-- MATH0014&#45;&gt;MATH0028 -->
<g id="edge16" class="edge">
<title>MATH0014&#45;&gt;MATH0028</title>
<path fill="none" stroke="black" d="M730.19,-233.12C702.99,-222.99 670.65,-210.81 641.62,-199.5 580.73,-175.77 511.73,-147.73 462.68,-127.61"/>
<polygon fill="black" stroke="black" points="464.2,-124.45 453.62,-123.89 461.54,-130.92 464.2,-124.45"/>
</g>
<!-- MATH0016&#45;&gt;MATH0070 -->
<g id="edge20" class="edge">
<title>MATH0016&#45;&gt;MATH0070</title>
<path fill="none" stroke="black" d="M778.55,-154.5C789.03,-146.8 800.88,-138.08 811.94,-129.94"/>
<polygon fill="black" stroke="black" points="813.8,-132.92 819.78,-124.17 809.65,-127.28 813.8,-132.92"/>
</g>
<!-- MATH0052&#45;&gt;MATH0074 -->
<g id="edge24" class="edge">
<title>MATH0052&#45;&gt;MATH0074</title>
<path fill="none" stroke="black" stroke-dasharray="5,2" d="M991.85,-154.5C1006.87,-146.41 1023.96,-137.2 1039.7,-128.72"/>
<polygon fill="black" stroke="black" points="1041.34,-131.82 1048.48,-123.99 1038.02,-125.66 1041.34,-131.82"/>
</g>
<!-- MATH0019 -->
<g id="node13" class="node">
<title>MATH0019</title>
<g id="a_node13"><a xlink:href="https://www.ucl.ac.uk/maths/sites/maths/files/math0019.pdf" xlink:title="MATH0019&#10;Multivariable Analysis">
<polygon fill="white" stroke="#ff4040" stroke-width="5" points="1407.5,-121 1231.75,-121 1231.75,-78.5 1407.5,-78.5 1407.5,-121"/>
<text text-anchor="middle" x="1319.62" y="-103.7" font-family="Times,serif" font-size="14.00">MATH0019</text>
<text text-anchor="middle" x="1319.62" y="-86.45" font-family="Times,serif" font-size="14.00">Multivariable Analysis</text>
</a>
</g>
</g>
<!-- MATH0051&#45;&gt;MATH0019 -->
<g id="edge13" class="edge">
<title>MATH0051&#45;&gt;MATH0019</title>
<path fill="none" stroke="black" d="M1311.87,-154.71C1312.78,-148.39 1313.78,-141.37 1314.77,-134.54"/>
<polygon fill="black" stroke="black" points="1318.19,-135.29 1316.15,-124.89 1311.27,-134.29 1318.19,-135.29"/>
</g>
<!-- MATH0017 -->
<g id="node15" class="node">
<title>MATH0017</title>
<g id="a_node15"><a xlink:href="https://www.ucl.ac.uk/maths/sites/maths/files/math0017.pdf" xlink:title="MATH0017&#10;Measure Theory">
<polygon fill="white" stroke="#ff4040" stroke-width="5" points="1731.75,-121 1599.5,-121 1599.5,-78.5 1731.75,-78.5 1731.75,-121"/>
<text text-anchor="middle" x="1665.62" y="-103.7" font-family="Times,serif" font-size="14.00">MATH0017</text>
<text text-anchor="middle" x="1665.62" y="-86.45" font-family="Times,serif" font-size="14.00">Measure Theory</text>
</a>
</g>
</g>
<!-- MATH0051&#45;&gt;MATH0017 -->
<g id="edge15" class="edge">
<title>MATH0051&#45;&gt;MATH0017</title>
<path fill="none" stroke="black" d="M1359.53,-168.15C1413.8,-158.22 1502.47,-141.33 1586.05,-122.03"/>
<polygon fill="black" stroke="black" points="1586.59,-125.49 1595.53,-119.82 1585,-118.68 1586.59,-125.49"/>
</g>
<!-- MATH0018 -->
<g id="node18" class="node">
<title>MATH0018</title>
<g id="a_node18"><a xlink:href="https://www.ucl.ac.uk/maths/sites/maths/files/math0018.pdf" xlink:title="MATH0018&#10;Functional Analysis">
<polygon fill="white" stroke="#ff4040" stroke-width="5" points="1581.38,-121 1425.88,-121 1425.88,-78.5 1581.38,-78.5 1581.38,-121"/>
<text text-anchor="middle" x="1503.62" y="-103.7" font-family="Times,serif" font-size="14.00">MATH0018</text>
<text text-anchor="middle" x="1503.62" y="-86.45" font-family="Times,serif" font-size="14.00">Functional Analysis</text>
</a>
</g>
</g>
<!-- MATH0051&#45;&gt;MATH0018 -->
<g id="edge18" class="edge">
<title>MATH0051&#45;&gt;MATH0018</title>
<path fill="none" stroke="black" d="M1359.6,-157.25C1382.71,-148.19 1410.37,-137.34 1435.24,-127.58"/>
<polygon fill="black" stroke="black" points="1436.27,-130.93 1444.3,-124.02 1433.71,-124.42 1436.27,-130.93"/>
</g>
<!-- MATH0051&#45;&gt;MATH0070 -->
<g id="edge21" class="edge">
<title>MATH0051&#45;&gt;MATH0070</title>
<path fill="none" stroke="black" d="M1257.97,-168.77C1195.79,-158.36 1087.63,-140.26 998.53,-125.34"/>
<polygon fill="black" stroke="black" points="999.14,-121.9 988.7,-123.7 997.99,-128.8 999.14,-121.9"/>
</g>
<!-- MATH0051&#45;&gt;MATH0074 -->
<g id="edge23" class="edge">
<title>MATH0051&#45;&gt;MATH0074</title>
<path fill="none" stroke="black" d="M1257.75,-159.31C1230.52,-149.71 1196.47,-137.71 1166.29,-127.07"/>
<polygon fill="black" stroke="black" points="1167.82,-123.9 1157.23,-123.88 1165.49,-130.5 1167.82,-123.9"/>
</g>
<!-- MATH0092 -->
<g id="node21" class="node">
<title>MATH0092</title>
<g id="a_node21"><a xlink:href="https://www.ucl.ac.uk/maths/sites/maths/files/math0092.pdf" xlink:title="MATH0092&#10;Variational Methods for Partial Differential Equations">
<polygon fill="white" stroke="deeppink" stroke-width="5" points="2116.25,-42.5 1717,-42.5 1717,0 2116.25,0 2116.25,-42.5"/>
<text text-anchor="middle" x="1916.62" y="-25.2" font-family="Times,serif" font-size="14.00">MATH0092</text>
<text text-anchor="middle" x="1916.62" y="-7.95" font-family="Times,serif" font-size="14.00">Variational Methods for Partial Differential Equations</text>
</a>
</g>
</g>
<!-- MATH0051&#45;&gt;MATH0092 -->
<g id="edge25" class="edge">
<title>MATH0051&#45;&gt;MATH0092</title>
<path fill="none" stroke="black" d="M1359.57,-176.83C1441.81,-174.79 1608,-165.01 1740.62,-121 1790.02,-104.61 1841.34,-74 1875.73,-51.18"/>
<polygon fill="black" stroke="black" points="1877.37,-54.3 1883.71,-45.82 1873.46,-48.49 1877.37,-54.3"/>
</g>
<!-- MATH0090 -->
<g id="node23" class="node">
<title>MATH0090</title>
<g id="a_node23"><a xlink:href="https://www.ucl.ac.uk/maths/sites/maths/files/math0090.pdf" xlink:title="MATH0090&#10;Elliptic Partial Differential Equations">
<polygon fill="white" stroke="deeppink" stroke-width="5" points="1382.38,-42.5 1100.88,-42.5 1100.88,0 1382.38,0 1382.38,-42.5"/>
<text text-anchor="middle" x="1241.62" y="-25.2" font-family="Times,serif" font-size="14.00">MATH0090</text>
<text text-anchor="middle" x="1241.62" y="-7.95" font-family="Times,serif" font-size="14.00">Elliptic Partial Differential Equations</text>
</a>
</g>
</g>
<!-- MATH0051&#45;&gt;MATH0090 -->
<g id="edge28" class="edge">
<title>MATH0051&#45;&gt;MATH0090</title>
<path fill="none" stroke="black" d="M1258.03,-155.63C1244.03,-147.01 1230.52,-135.59 1222.62,-121 1211.69,-100.79 1217.03,-75.25 1224.79,-55.21"/>
<polygon fill="black" stroke="black" points="1227.97,-56.68 1228.67,-46.11 1221.53,-53.94 1227.97,-56.68"/>
</g>
<!-- MATH0029 -->
<g id="node14" class="node">
<title>MATH0029</title>
<g id="a_node14"><a xlink:href="https://www.ucl.ac.uk/maths/sites/maths/files/math0029.pdf" xlink:title="MATH0029&#10;Graph Theory and Combinatorics">
<polygon fill="white" stroke="#ff4040" stroke-width="5" points="272.12,-121 19.12,-121 19.12,-78.5 272.12,-78.5 272.12,-121"/>
<text text-anchor="middle" x="145.62" y="-103.7" font-family="Times,serif" font-size="14.00">MATH0029</text>
<text text-anchor="middle" x="145.62" y="-86.45" font-family="Times,serif" font-size="14.00">Graph Theory and Combinatorics</text>
</a>
</g>
</g>
<!-- MATH0057&#45;&gt;MATH0029 -->
<g id="edge14" class="edge">
<title>MATH0057&#45;&gt;MATH0029</title>
<path fill="none" stroke="black" stroke-dasharray="5,2" d="M145.62,-154.71C145.62,-148.39 145.62,-141.37 145.62,-134.54"/>
<polygon fill="black" stroke="black" points="149.13,-134.91 145.63,-124.91 142.13,-134.91 149.13,-134.91"/>
</g>
<!-- MATH0107 -->
<g id="node24" class="node">
<title>MATH0107</title>
<g id="a_node24"><a xlink:href="https://www.ucl.ac.uk/maths/sites/maths/files/math0107_0.pdf" xlink:title="MATH0107&#10;Probabilistic Method in Combinatorics">
<polygon fill="white" stroke="deeppink" stroke-width="5" points="291.25,-42.5 0,-42.5 0,0 291.25,0 291.25,-42.5"/>
<text text-anchor="middle" x="145.62" y="-25.2" font-family="Times,serif" font-size="14.00">MATH0107</text>
<text text-anchor="middle" x="145.62" y="-7.95" font-family="Times,serif" font-size="14.00">Probabilistic Method in Combinatorics</text>
</a>
</g>
</g>
<!-- MATH0057&#45;&gt;MATH0107 -->
<g id="edge33" class="edge">
<title>MATH0057&#45;&gt;MATH0107</title>
<path fill="none" stroke="black" stroke-dasharray="5,2" d="M49.62,-154.52C33.82,-146.5 19.42,-135.66 9.62,-121 -0.87,-105.3 -0.87,-94.2 9.62,-78.5 17.36,-66.94 27.95,-57.75 39.84,-50.44"/>
<polygon fill="black" stroke="black" points="41.28,-53.65 48.3,-45.72 37.86,-47.54 41.28,-53.65"/>
</g>
<!-- MATH0019&#45;&gt;MATH0090 -->
<g id="edge30" class="edge">
<title>MATH0019&#45;&gt;MATH0090</title>
<path fill="none" stroke="black" d="M1296.64,-76.21C1289.17,-68.88 1280.75,-60.63 1272.79,-52.81"/>
<polygon fill="black" stroke="black" points="1275.38,-50.46 1265.79,-45.95 1270.48,-55.45 1275.38,-50.46"/>
</g>
<!-- MATH0071 -->
<g id="node25" class="node">
<title>MATH0071</title>
<g id="a_node25"><a xlink:href="https://www.ucl.ac.uk/maths/sites/maths/files/math0071.pdf" xlink:title="MATH0071&#10;Spectral Theory">
<polygon fill="white" stroke="midnightblue" stroke-width="5" points="1568.62,-42.5 1438.62,-42.5 1438.62,0 1568.62,0 1568.62,-42.5"/>
<text text-anchor="middle" x="1503.62" y="-25.2" font-family="Times,serif" font-size="14.00">MATH0071</text>
<text text-anchor="middle" x="1503.62" y="-7.95" font-family="Times,serif" font-size="14.00">Spectral Theory</text>
</a>
</g>
</g>
<!-- MATH0019&#45;&gt;MATH0071 -->
<g id="edge35" class="edge">
<title>MATH0019&#45;&gt;MATH0071</title>
<path fill="none" stroke="black" d="M1374.33,-76C1394.54,-67.6 1417.64,-58 1438.67,-49.26"/>
<polygon fill="black" stroke="black" points="1439.84,-52.56 1447.73,-45.49 1437.15,-46.1 1439.84,-52.56"/>
</g>
<!-- MATH0072 -->
<g id="node26" class="node">
<title>MATH0072</title>
<g id="a_node26"><a xlink:href="https://www.ucl.ac.uk/maths/sites/maths/files/math0072_2.pdf" xlink:title="MATH0072&#10;Riemannian Geometry">
<polygon fill="white" stroke="midnightblue" stroke-width="5" points="889.5,-42.5 713.75,-42.5 713.75,0 889.5,0 889.5,-42.5"/>
<text text-anchor="middle" x="801.62" y="-25.2" font-family="Times,serif" font-size="14.00">MATH0072</text>
<text text-anchor="middle" x="801.62" y="-7.95" font-family="Times,serif" font-size="14.00">Riemannian Geometry</text>
</a>
</g>
</g>
<!-- MATH0019&#45;&gt;MATH0072 -->
<g id="edge37" class="edge">
<title>MATH0019&#45;&gt;MATH0072</title>
<path fill="none" stroke="black" d="M1229.59,-85.2C1214.57,-82.96 1199.16,-80.66 1184.62,-78.5 1089.11,-64.32 980.16,-48.34 902.95,-37.04"/>
<polygon fill="black" stroke="black" points="903.69,-33.62 893.29,-35.63 902.68,-40.54 903.69,-33.62"/>
</g>
<!-- MATH0029&#45;&gt;MATH0107 -->
<g id="edge31" class="edge">
<title>MATH0029&#45;&gt;MATH0107</title>
<path fill="none" stroke="black" stroke-dasharray="5,2" d="M145.62,-76.21C145.62,-69.89 145.62,-62.87 145.62,-56.04"/>
<polygon fill="black" stroke="black" points="149.13,-56.41 145.63,-46.41 142.13,-56.41 149.13,-56.41"/>
</g>
<!-- MATH0069 -->
<g id="node22" class="node">
<title>MATH0069</title>
<g id="a_node22"><a xlink:href="https://www.ucl.ac.uk/maths/sites/maths/files/math0069.pdf" xlink:title="MATH0069&#10;Probability">
<polygon fill="white" stroke="deeppink" stroke-width="5" points="1699.12,-42.5 1602.12,-42.5 1602.12,0 1699.12,0 1699.12,-42.5"/>
<text text-anchor="middle" x="1650.62" y="-25.2" font-family="Times,serif" font-size="14.00">MATH0069</text>
<text text-anchor="middle" x="1650.62" y="-7.95" font-family="Times,serif" font-size="14.00">Probability</text>
</a>
</g>
</g>
<!-- MATH0017&#45;&gt;MATH0069 -->
<g id="edge26" class="edge">
<title>MATH0017&#45;&gt;MATH0069</title>
<path fill="none" stroke="black" d="M1661.21,-76.21C1659.97,-69.89 1658.59,-62.87 1657.25,-56.04"/>
<polygon fill="black" stroke="black" points="1660.71,-55.52 1655.36,-46.38 1653.85,-56.86 1660.71,-55.52"/>
</g>
<!-- MATH0017&#45;&gt;MATH0071 -->
<g id="edge36" class="edge">
<title>MATH0017&#45;&gt;MATH0071</title>
<path fill="none" stroke="black" stroke-dasharray="5,2" d="M1617.46,-76C1599.99,-67.76 1580.07,-58.35 1561.83,-49.74"/>
<polygon fill="black" stroke="black" points="1563.51,-46.66 1552.97,-45.55 1560.52,-52.99 1563.51,-46.66"/>
</g>
<!-- MATH0028&#45;&gt;MATH0107 -->
<g id="edge32" class="edge">
<title>MATH0028&#45;&gt;MATH0107</title>
<path fill="none" stroke="black" stroke-dasharray="5,2" d="M322.7,-76C293.88,-67.26 260.78,-57.21 231.05,-48.18"/>
<polygon fill="black" stroke="black" points="232.3,-44.9 221.71,-45.35 230.26,-51.6 232.3,-44.9"/>
</g>
<!-- MATH0020&#45;&gt;MATH0072 -->
<g id="edge38" class="edge">
<title>MATH0020&#45;&gt;MATH0072</title>
<path fill="none" stroke="black" d="M666.01,-76C687.3,-67.56 711.66,-57.91 733.8,-49.14"/>
<polygon fill="black" stroke="black" points="735.05,-52.4 743.06,-45.47 732.47,-45.9 735.05,-52.4"/>
</g>
<!-- MATH0018&#45;&gt;MATH0090 -->
<g id="edge29" class="edge">
<title>MATH0018&#45;&gt;MATH0090</title>
<path fill="none" stroke="black" d="M1425.73,-76C1395.64,-67.22 1361.05,-57.12 1330.03,-48.06"/>
<polygon fill="black" stroke="black" points="1331.26,-44.78 1320.68,-45.33 1329.3,-51.49 1331.26,-44.78"/>
</g>
<!-- MATH0018&#45;&gt;MATH0071 -->
<g id="edge34" class="edge">
<title>MATH0018&#45;&gt;MATH0071</title>
<path fill="none" stroke="black" d="M1503.62,-76.21C1503.62,-69.89 1503.62,-62.87 1503.62,-56.04"/>
<polygon fill="black" stroke="black" points="1507.13,-56.41 1503.63,-46.41 1500.13,-56.41 1507.13,-56.41"/>
</g>
<!-- MATH0070&#45;&gt;MATH0090 -->
<g id="edge27" class="edge">
<title>MATH0070&#45;&gt;MATH0090</title>
<path fill="none" stroke="black" stroke-dasharray="5,2" d="M967.58,-76C1013.83,-66.93 1067.23,-56.46 1114.53,-47.18"/>
<polygon fill="black" stroke="black" points="1115.15,-50.62 1124.29,-45.27 1113.81,-43.76 1115.15,-50.62"/>
</g>
</g>
</svg>
