<?xml version="1.0" encoding="UTF-8" standalone="no"?>
<!DOCTYPE svg PUBLIC "-//W3C//DTD SVG 1.1//EN"
 "http://www.w3.org/Graphics/SVG/1.1/DTD/svg11.dtd">
<!-- Generated by graphviz version 2.43.0 (0)
 -->
<!-- Title: %3 Pages: 1 -->
<svg width="2149pt" height="416pt"
 viewBox="0.00 0.00 2149.00 416.00" xmlns="http://www.w3.org/2000/svg" xmlns:xlink="http://www.w3.org/1999/xlink">
<g id="graph0" class="graph" transform="scale(1 1) rotate(0) translate(4 412)">
<title>%3</title>
<polygon fill="white" stroke="transparent" points="-4,4 -4,-412 2145,-412 2145,4 -4,4"/>
<!-- MATH0010 -->
<g id="node1" class="node">
<title>MATH0010</title>
<g id="a_node1"><a xlink:href="https://www.ucl.ac.uk/maths/sites/maths/files/math0010.pdf" xlink:title="Year 1, term 1">
<polygon fill="white" stroke="#ffb90f" stroke-width="5" points="553.5,-408 358.5,-408 358.5,-370 553.5,-370 553.5,-408"/>
<text text-anchor="middle" x="456" y="-392.8" font-family="Times,serif" font-size="14.00">MATH0010</text>
<text text-anchor="middle" x="456" y="-377.8" font-family="Times,serif" font-size="14.00">Mathematical Methods 1</text>
</a>
</g>
</g>
<!-- MATH0011 -->
<g id="node6" class="node">
<title>MATH0011</title>
<g id="a_node6"><a xlink:href="https://www.ucl.ac.uk/maths/sites/maths/files/math0011_syllabus.pdf" xlink:title="Year 1, term 2">
<polygon fill="white" stroke="#cd950c" stroke-width="5" points="553.5,-334 358.5,-334 358.5,-296 553.5,-296 553.5,-334"/>
<text text-anchor="middle" x="456" y="-318.8" font-family="Times,serif" font-size="14.00">MATH0011</text>
<text text-anchor="middle" x="456" y="-303.8" font-family="Times,serif" font-size="14.00">Mathematical Methods 2</text>
</a>
</g>
</g>
<!-- MATH0010&#45;&gt;MATH0011 -->
<g id="edge3" class="edge">
<title>MATH0010&#45;&gt;MATH0011</title>
<path fill="none" stroke="black" d="M456,-369.83C456,-362.13 456,-352.97 456,-344.42"/>
<polygon fill="black" stroke="black" points="459.5,-344.41 456,-334.41 452.5,-344.41 459.5,-344.41"/>
</g>
<!-- MATH0003 -->
<g id="node2" class="node">
<title>MATH0003</title>
<g id="a_node2"><a xlink:href="https://www.ucl.ac.uk/maths/sites/maths/files/math0003.pdf" xlink:title="Year 1, term 1">
<polygon fill="white" stroke="#ffb90f" stroke-width="5" points="1220,-408 1122,-408 1122,-370 1220,-370 1220,-408"/>
<text text-anchor="middle" x="1171" y="-392.8" font-family="Times,serif" font-size="14.00">MATH0003</text>
<text text-anchor="middle" x="1171" y="-377.8" font-family="Times,serif" font-size="14.00">Analysis 1</text>
</a>
</g>
</g>
<!-- MATH0004 -->
<g id="node4" class="node">
<title>MATH0004</title>
<g id="a_node4"><a xlink:href="https://www.ucl.ac.uk/maths/sites/maths/files/math0004.pdf" xlink:title="Year 1, term 2">
<polygon fill="white" stroke="#cd950c" stroke-width="5" points="1259,-334 1161,-334 1161,-296 1259,-296 1259,-334"/>
<text text-anchor="middle" x="1210" y="-318.8" font-family="Times,serif" font-size="14.00">MATH0004</text>
<text text-anchor="middle" x="1210" y="-303.8" font-family="Times,serif" font-size="14.00">Analysis 2</text>
</a>
</g>
</g>
<!-- MATH0003&#45;&gt;MATH0004 -->
<g id="edge1" class="edge">
<title>MATH0003&#45;&gt;MATH0004</title>
<path fill="none" stroke="black" d="M1180.84,-369.83C1185.2,-361.79 1190.41,-352.17 1195.22,-343.29"/>
<polygon fill="black" stroke="black" points="1198.34,-344.87 1200.03,-334.41 1192.19,-341.54 1198.34,-344.87"/>
</g>
<!-- MATH0013 -->
<g id="node9" class="node">
<title>MATH0013</title>
<g id="a_node9"><a xlink:href="https://www.ucl.ac.uk/maths/sites/maths/files/math0013.pdf" xlink:title="Year 2, term 1">
<polygon fill="white" stroke="#00ff00" stroke-width="5" points="1247.5,-260 1018.5,-260 1018.5,-222 1247.5,-222 1247.5,-260"/>
<text text-anchor="middle" x="1133" y="-244.8" font-family="Times,serif" font-size="14.00">MATH0013</text>
<text text-anchor="middle" x="1133" y="-229.8" font-family="Times,serif" font-size="14.00">Analysis 3 &#45; Complex Analysis</text>
</a>
</g>
</g>
<!-- MATH0003&#45;&gt;MATH0013 -->
<g id="edge6" class="edge">
<title>MATH0003&#45;&gt;MATH0013</title>
<path fill="none" stroke="black" d="M1163.87,-369.7C1160.01,-359.34 1155.35,-346.07 1152,-334 1146.12,-312.85 1141.18,-288.51 1137.8,-270.18"/>
<polygon fill="black" stroke="black" points="1141.21,-269.38 1136,-260.15 1134.32,-270.61 1141.21,-269.38"/>
</g>
<!-- MATH0005 -->
<g id="node3" class="node">
<title>MATH0005</title>
<g id="a_node3"><a xlink:href="https://www.ucl.ac.uk/maths/sites/maths/files/math0005.pdf" xlink:title="Year 1, term 1">
<polygon fill="white" stroke="#ffb90f" stroke-width="5" points="955,-408 857,-408 857,-370 955,-370 955,-408"/>
<text text-anchor="middle" x="906" y="-392.8" font-family="Times,serif" font-size="14.00">MATH0005</text>
<text text-anchor="middle" x="906" y="-377.8" font-family="Times,serif" font-size="14.00">Algebra 1</text>
</a>
</g>
</g>
<!-- MATH0006 -->
<g id="node5" class="node">
<title>MATH0006</title>
<g id="a_node5"><a xlink:href="https://www.ucl.ac.uk/maths/sites/maths/files/math0006.pdf" xlink:title="Year 1, term 2">
<polygon fill="white" stroke="#cd950c" stroke-width="5" points="955,-334 857,-334 857,-296 955,-296 955,-334"/>
<text text-anchor="middle" x="906" y="-318.8" font-family="Times,serif" font-size="14.00">MATH0006</text>
<text text-anchor="middle" x="906" y="-303.8" font-family="Times,serif" font-size="14.00">Algebra 2</text>
</a>
</g>
</g>
<!-- MATH0005&#45;&gt;MATH0006 -->
<g id="edge2" class="edge">
<title>MATH0005&#45;&gt;MATH0006</title>
<path fill="none" stroke="black" d="M906,-369.83C906,-362.13 906,-352.97 906,-344.42"/>
<polygon fill="black" stroke="black" points="909.5,-344.41 906,-334.41 902.5,-344.41 909.5,-344.41"/>
</g>
<!-- MATH0004&#45;&gt;MATH0013 -->
<g id="edge7" class="edge">
<title>MATH0004&#45;&gt;MATH0013</title>
<path fill="none" stroke="black" stroke-dasharray="5,2" d="M1190.57,-295.83C1181.27,-287.13 1169.98,-276.58 1159.87,-267.13"/>
<polygon fill="black" stroke="black" points="1162.12,-264.44 1152.42,-260.16 1157.34,-269.55 1162.12,-264.44"/>
</g>
<!-- MATH0051 -->
<g id="node12" class="node">
<title>MATH0051</title>
<g id="a_node12"><a xlink:href="https://www.ucl.ac.uk/maths/sites/maths/files/math0051.pdf" xlink:title="Year 2 or 3, term 2">
<polygon fill="white" stroke="cadetblue" stroke-width="5" points="1380,-186 1282,-186 1282,-148 1380,-148 1380,-186"/>
<text text-anchor="middle" x="1331" y="-170.8" font-family="Times,serif" font-size="14.00">MATH0051</text>
<text text-anchor="middle" x="1331" y="-155.8" font-family="Times,serif" font-size="14.00">Analysis 4</text>
</a>
</g>
</g>
<!-- MATH0004&#45;&gt;MATH0051 -->
<g id="edge12" class="edge">
<title>MATH0004&#45;&gt;MATH0051</title>
<path fill="none" stroke="black" d="M1225.85,-295.59C1234.77,-285.19 1246.07,-271.92 1256,-260 1274.42,-237.9 1295.06,-212.54 1310.01,-194.05"/>
<polygon fill="black" stroke="black" points="1312.89,-196.05 1316.46,-186.08 1307.45,-191.65 1312.89,-196.05"/>
</g>
<!-- MATH0014 -->
<g id="node8" class="node">
<title>MATH0014</title>
<g id="a_node8"><a xlink:href="https://www.ucl.ac.uk/maths/sites/maths/files/math0014.pdf" xlink:title="Year 2, term 1">
<polygon fill="white" stroke="#00ff00" stroke-width="5" points="957,-260 697,-260 697,-222 957,-222 957,-260"/>
<text text-anchor="middle" x="827" y="-244.8" font-family="Times,serif" font-size="14.00">MATH0014</text>
<text text-anchor="middle" x="827" y="-229.8" font-family="Times,serif" font-size="14.00">Algebra 3: Further Linear Algebra</text>
</a>
</g>
</g>
<!-- MATH0006&#45;&gt;MATH0014 -->
<g id="edge5" class="edge">
<title>MATH0006&#45;&gt;MATH0014</title>
<path fill="none" stroke="black" d="M886.06,-295.83C876.52,-287.13 864.94,-276.58 854.57,-267.13"/>
<polygon fill="black" stroke="black" points="856.68,-264.31 846.93,-260.16 851.96,-269.49 856.68,-264.31"/>
</g>
<!-- MATH0052 -->
<g id="node11" class="node">
<title>MATH0052</title>
<g id="a_node11"><a xlink:href="https://www.ucl.ac.uk/maths/sites/maths/files/math0052.pdf" xlink:title="Year 2 or 3, term 2">
<polygon fill="white" stroke="cadetblue" stroke-width="5" points="1070,-186 896,-186 896,-148 1070,-148 1070,-186"/>
<text text-anchor="middle" x="983" y="-170.8" font-family="Times,serif" font-size="14.00">MATH0052</text>
<text text-anchor="middle" x="983" y="-155.8" font-family="Times,serif" font-size="14.00">Geometry and Groups</text>
</a>
</g>
</g>
<!-- MATH0006&#45;&gt;MATH0052 -->
<g id="edge10" class="edge">
<title>MATH0006&#45;&gt;MATH0052</title>
<path fill="none" stroke="black" d="M933.08,-295.94C945,-286.6 958.06,-274.18 966,-260 976.93,-240.48 981.02,-215.33 982.46,-196.26"/>
<polygon fill="black" stroke="black" points="985.97,-196.28 983.03,-186.1 978.98,-195.89 985.97,-196.28"/>
</g>
<!-- MATH0016 -->
<g id="node7" class="node">
<title>MATH0016</title>
<g id="a_node7"><a xlink:href="https://www.ucl.ac.uk/maths/sites/maths/files/math0016.pdf" xlink:title="Year 2, term 1">
<polygon fill="white" stroke="#00ff00" stroke-width="5" points="678.5,-260 483.5,-260 483.5,-222 678.5,-222 678.5,-260"/>
<text text-anchor="middle" x="581" y="-244.8" font-family="Times,serif" font-size="14.00">MATH0016</text>
<text text-anchor="middle" x="581" y="-229.8" font-family="Times,serif" font-size="14.00">Mathematical Methods 3</text>
</a>
</g>
</g>
<!-- MATH0011&#45;&gt;MATH0016 -->
<g id="edge4" class="edge">
<title>MATH0011&#45;&gt;MATH0016</title>
<path fill="none" stroke="black" d="M487.54,-295.83C503.68,-286.54 523.5,-275.12 540.73,-265.2"/>
<polygon fill="black" stroke="black" points="542.55,-268.19 549.47,-260.16 539.06,-262.12 542.55,-268.19"/>
</g>
<!-- MATH0057 -->
<g id="node10" class="node">
<title>MATH0057</title>
<g id="a_node10"><a xlink:href="https://www.ucl.ac.uk/maths/sites/maths/files/math0057.pdf" xlink:title="Year 2 or 3, term 2">
<polygon fill="white" stroke="cadetblue" stroke-width="5" points="381,-186 183,-186 183,-148 381,-148 381,-186"/>
<text text-anchor="middle" x="282" y="-170.8" font-family="Times,serif" font-size="14.00">MATH0057</text>
<text text-anchor="middle" x="282" y="-155.8" font-family="Times,serif" font-size="14.00">Probability and Statistics</text>
</a>
</g>
</g>
<!-- MATH0011&#45;&gt;MATH0057 -->
<g id="edge8" class="edge">
<title>MATH0011&#45;&gt;MATH0057</title>
<path fill="none" stroke="black" d="M434.31,-295.8C403.36,-269.83 346.42,-222.05 311.61,-192.84"/>
<polygon fill="black" stroke="black" points="313.59,-189.94 303.68,-186.2 309.1,-195.3 313.59,-189.94"/>
</g>
<!-- MATH0020 -->
<g id="node17" class="node">
<title>MATH0020</title>
<g id="a_node17"><a xlink:href="https://www.ucl.ac.uk/maths/sites/maths/files/math0020.pdf" xlink:title="Year 3, term 2">
<polygon fill="white" stroke="#cd3333" stroke-width="5" points="716.5,-112 543.5,-112 543.5,-74 716.5,-74 716.5,-112"/>
<text text-anchor="middle" x="630" y="-96.8" font-family="Times,serif" font-size="14.00">MATH0020</text>
<text text-anchor="middle" x="630" y="-81.8" font-family="Times,serif" font-size="14.00">Differential Geometry</text>
</a>
</g>
</g>
<!-- MATH0011&#45;&gt;MATH0020 -->
<g id="edge17" class="edge">
<title>MATH0011&#45;&gt;MATH0020</title>
<path fill="none" stroke="black" d="M456,-295.77C456.78,-276.23 460.31,-244.91 474,-222 501.41,-176.11 551.56,-139.46 587.61,-117.33"/>
<polygon fill="black" stroke="black" points="589.67,-120.17 596.44,-112.02 586.07,-114.17 589.67,-120.17"/>
</g>
<!-- MATH0070 -->
<g id="node20" class="node">
<title>MATH0070</title>
<g id="a_node20"><a xlink:href="https://www.ucl.ac.uk/maths/sites/maths/files/math0070.pdf" xlink:title="Year 3 or 4, term 1">
<polygon fill="white" stroke="#ff1493" stroke-width="5" points="1011.5,-112 734.5,-112 734.5,-74 1011.5,-74 1011.5,-112"/>
<text text-anchor="middle" x="873" y="-96.8" font-family="Times,serif" font-size="14.00">MATH0070</text>
<text text-anchor="middle" x="873" y="-81.8" font-family="Times,serif" font-size="14.00">Linear Partial Differential Equations</text>
</a>
</g>
</g>
<!-- MATH0016&#45;&gt;MATH0070 -->
<g id="edge23" class="edge">
<title>MATH0016&#45;&gt;MATH0070</title>
<path fill="none" stroke="black" d="M617.1,-221.95C670.29,-195.36 769.67,-145.66 827.69,-116.65"/>
<polygon fill="black" stroke="black" points="829.61,-119.61 836.98,-112.01 826.48,-113.35 829.61,-119.61"/>
</g>
<!-- MATH0014&#45;&gt;MATH0052 -->
<g id="edge11" class="edge">
<title>MATH0014&#45;&gt;MATH0052</title>
<path fill="none" stroke="black" d="M866.37,-221.83C887.14,-212.24 912.8,-200.4 934.76,-190.27"/>
<polygon fill="black" stroke="black" points="936.3,-193.41 943.92,-186.04 933.37,-187.05 936.3,-193.41"/>
</g>
<!-- MATH0028 -->
<g id="node16" class="node">
<title>MATH0028</title>
<g id="a_node16"><a xlink:href="https://www.ucl.ac.uk/maths/sites/maths/files/math0028.pdf" xlink:title="Year 3, term 2">
<polygon fill="white" stroke="#cd3333" stroke-width="5" points="525.5,-112 310.5,-112 310.5,-74 525.5,-74 525.5,-112"/>
<text text-anchor="middle" x="418" y="-96.8" font-family="Times,serif" font-size="14.00">MATH0028</text>
<text text-anchor="middle" x="418" y="-81.8" font-family="Times,serif" font-size="14.00">Combinatorial Optimisation</text>
</a>
</g>
</g>
<!-- MATH0014&#45;&gt;MATH0028 -->
<g id="edge16" class="edge">
<title>MATH0014&#45;&gt;MATH0028</title>
<path fill="none" stroke="black" d="M776.44,-221.95C700.86,-194.97 558.7,-144.22 477.98,-115.41"/>
<polygon fill="black" stroke="black" points="479.04,-112.07 468.45,-112.01 476.69,-118.67 479.04,-112.07"/>
</g>
<!-- MATH0013&#45;&gt;MATH0052 -->
<g id="edge9" class="edge">
<title>MATH0013&#45;&gt;MATH0052</title>
<path fill="none" stroke="black" d="M1095.15,-221.83C1075.27,-212.29 1050.72,-200.51 1029.67,-190.4"/>
<polygon fill="black" stroke="black" points="1031.11,-187.21 1020.58,-186.04 1028.08,-193.52 1031.11,-187.21"/>
</g>
<!-- MATH0074 -->
<g id="node19" class="node">
<title>MATH0074</title>
<g id="a_node19"><a xlink:href="https://www.ucl.ac.uk/maths/sites/maths/files/math0074.pdf" xlink:title="Year 3 or 4, term 1">
<polygon fill="white" stroke="#ff1493" stroke-width="5" points="1198,-112 1030,-112 1030,-74 1198,-74 1198,-112"/>
<text text-anchor="middle" x="1114" y="-96.8" font-family="Times,serif" font-size="14.00">MATH0074</text>
<text text-anchor="middle" x="1114" y="-81.8" font-family="Times,serif" font-size="14.00">Topology and Groups</text>
</a>
</g>
</g>
<!-- MATH0013&#45;&gt;MATH0074 -->
<g id="edge19" class="edge">
<title>MATH0013&#45;&gt;MATH0074</title>
<path fill="none" stroke="black" d="M1130.63,-221.8C1127.39,-196.89 1121.53,-151.89 1117.71,-122.49"/>
<polygon fill="black" stroke="black" points="1121.16,-121.89 1116.4,-112.43 1114.22,-122.79 1121.16,-121.89"/>
</g>
<!-- MATH0013&#45;&gt;MATH0070 -->
<g id="edge22" class="edge">
<title>MATH0013&#45;&gt;MATH0070</title>
<path fill="none" stroke="black" d="M1127.17,-221.89C1119.49,-200.94 1103.95,-166.9 1079,-148 1059.83,-133.48 1037.11,-122.86 1013.87,-115.08"/>
<polygon fill="black" stroke="black" points="1014.83,-111.71 1004.24,-112.03 1012.72,-118.39 1014.83,-111.71"/>
</g>
<!-- MATH0029 -->
<g id="node15" class="node">
<title>MATH0029</title>
<g id="a_node15"><a xlink:href="https://www.ucl.ac.uk/maths/sites/maths/files/math0029.pdf" xlink:title="Year 3, term 1">
<polygon fill="white" stroke="#ff4040" stroke-width="5" points="254,-112 0,-112 0,-74 254,-74 254,-112"/>
<text text-anchor="middle" x="127" y="-96.8" font-family="Times,serif" font-size="14.00">MATH0029</text>
<text text-anchor="middle" x="127" y="-81.8" font-family="Times,serif" font-size="14.00">Graph Theory and Combinatorics</text>
</a>
</g>
</g>
<!-- MATH0057&#45;&gt;MATH0029 -->
<g id="edge15" class="edge">
<title>MATH0057&#45;&gt;MATH0029</title>
<path fill="none" stroke="black" stroke-dasharray="5,2" d="M242.89,-147.83C222.25,-138.24 196.75,-126.4 174.93,-116.27"/>
<polygon fill="black" stroke="black" points="176.38,-113.08 165.83,-112.04 173.43,-119.43 176.38,-113.08"/>
</g>
<!-- MATH0107 -->
<g id="node22" class="node">
<title>MATH0107</title>
<g id="a_node22"><a xlink:href="https://www.ucl.ac.uk/maths/sites/maths/files/math0107_0.pdf" xlink:title="Year 3 or 4, term 2">
<polygon fill="white" stroke="#cd1076" stroke-width="5" points="428,-38 136,-38 136,0 428,0 428,-38"/>
<text text-anchor="middle" x="282" y="-22.8" font-family="Times,serif" font-size="14.00">MATH0107</text>
<text text-anchor="middle" x="282" y="-7.8" font-family="Times,serif" font-size="14.00">Probabilistic Method in Combinatorics</text>
</a>
</g>
</g>
<!-- MATH0057&#45;&gt;MATH0107 -->
<g id="edge28" class="edge">
<title>MATH0057&#45;&gt;MATH0107</title>
<path fill="none" stroke="black" stroke-dasharray="5,2" d="M282,-147.8C282,-122.89 282,-77.89 282,-48.49"/>
<polygon fill="black" stroke="black" points="285.5,-48.43 282,-38.43 278.5,-48.43 285.5,-48.43"/>
</g>
<!-- MATH0052&#45;&gt;MATH0074 -->
<g id="edge21" class="edge">
<title>MATH0052&#45;&gt;MATH0074</title>
<path fill="none" stroke="black" stroke-dasharray="5,2" d="M1016.06,-147.83C1032.97,-138.54 1053.74,-127.12 1071.79,-117.2"/>
<polygon fill="black" stroke="black" points="1073.88,-120.05 1080.95,-112.16 1070.5,-113.91 1073.88,-120.05"/>
</g>
<!-- MATH0017 -->
<g id="node13" class="node">
<title>MATH0017</title>
<g id="a_node13"><a xlink:href="https://www.ucl.ac.uk/maths/sites/maths/files/math0017.pdf" xlink:title="Year 3, term 1">
<polygon fill="white" stroke="#ff4040" stroke-width="5" points="1755.5,-112 1622.5,-112 1622.5,-74 1755.5,-74 1755.5,-112"/>
<text text-anchor="middle" x="1689" y="-96.8" font-family="Times,serif" font-size="14.00">MATH0017</text>
<text text-anchor="middle" x="1689" y="-81.8" font-family="Times,serif" font-size="14.00">Measure Theory</text>
</a>
</g>
</g>
<!-- MATH0051&#45;&gt;MATH0017 -->
<g id="edge13" class="edge">
<title>MATH0051&#45;&gt;MATH0017</title>
<path fill="none" stroke="black" d="M1380.04,-157.28C1434.36,-147.46 1524.77,-130.69 1612.46,-112.07"/>
<polygon fill="black" stroke="black" points="1613.26,-115.48 1622.31,-109.97 1611.8,-108.63 1613.26,-115.48"/>
</g>
<!-- MATH0019 -->
<g id="node14" class="node">
<title>MATH0019</title>
<g id="a_node14"><a xlink:href="https://www.ucl.ac.uk/maths/sites/maths/files/math0019.pdf" xlink:title="Year 3, term 1">
<polygon fill="white" stroke="#ff4040" stroke-width="5" points="1430,-112 1254,-112 1254,-74 1430,-74 1430,-112"/>
<text text-anchor="middle" x="1342" y="-96.8" font-family="Times,serif" font-size="14.00">MATH0019</text>
<text text-anchor="middle" x="1342" y="-81.8" font-family="Times,serif" font-size="14.00">Multivariable Analysis</text>
</a>
</g>
</g>
<!-- MATH0051&#45;&gt;MATH0019 -->
<g id="edge14" class="edge">
<title>MATH0051&#45;&gt;MATH0019</title>
<path fill="none" stroke="black" d="M1333.78,-147.83C1334.95,-140.13 1336.35,-130.97 1337.66,-122.42"/>
<polygon fill="black" stroke="black" points="1341.14,-122.83 1339.19,-112.41 1334.22,-121.77 1341.14,-122.83"/>
</g>
<!-- MATH0018 -->
<g id="node18" class="node">
<title>MATH0018</title>
<g id="a_node18"><a xlink:href="https://www.ucl.ac.uk/maths/sites/maths/files/math0018.pdf" xlink:title="Year 3, term 2">
<polygon fill="white" stroke="#cd3333" stroke-width="5" points="1604,-112 1448,-112 1448,-74 1604,-74 1604,-112"/>
<text text-anchor="middle" x="1526" y="-96.8" font-family="Times,serif" font-size="14.00">MATH0018</text>
<text text-anchor="middle" x="1526" y="-81.8" font-family="Times,serif" font-size="14.00">Functional Analysis</text>
</a>
</g>
</g>
<!-- MATH0051&#45;&gt;MATH0018 -->
<g id="edge18" class="edge">
<title>MATH0051&#45;&gt;MATH0018</title>
<path fill="none" stroke="black" d="M1379.96,-147.92C1406.5,-138.12 1439.48,-125.95 1467.39,-115.64"/>
<polygon fill="black" stroke="black" points="1468.86,-118.83 1477.02,-112.08 1466.43,-112.26 1468.86,-118.83"/>
</g>
<!-- MATH0051&#45;&gt;MATH0074 -->
<g id="edge20" class="edge">
<title>MATH0051&#45;&gt;MATH0074</title>
<path fill="none" stroke="black" d="M1281.76,-149.66C1251.03,-139.47 1211.15,-126.23 1177.99,-115.23"/>
<polygon fill="black" stroke="black" points="1178.97,-111.87 1168.38,-112.04 1176.77,-118.51 1178.97,-111.87"/>
</g>
<!-- MATH0051&#45;&gt;MATH0070 -->
<g id="edge24" class="edge">
<title>MATH0051&#45;&gt;MATH0070</title>
<path fill="none" stroke="black" d="M1281.99,-158.29C1214.75,-147.72 1091.58,-128.36 997.91,-113.64"/>
<polygon fill="black" stroke="black" points="998.22,-110.14 987.8,-112.05 997.13,-117.06 998.22,-110.14"/>
</g>
<!-- MATH0092 -->
<g id="node23" class="node">
<title>MATH0092</title>
<g id="a_node23"><a xlink:href="https://www.ucl.ac.uk/maths/sites/maths/files/math0092.pdf" xlink:title="Year 3 or 4, term 2">
<polygon fill="white" stroke="#cd1076" stroke-width="5" points="2141,-38 1741,-38 1741,0 2141,0 2141,-38"/>
<text text-anchor="middle" x="1941" y="-22.8" font-family="Times,serif" font-size="14.00">MATH0092</text>
<text text-anchor="middle" x="1941" y="-7.8" font-family="Times,serif" font-size="14.00">Variational Methods for Partial Differential Equations</text>
</a>
</g>
</g>
<!-- MATH0051&#45;&gt;MATH0092 -->
<g id="edge29" class="edge">
<title>MATH0051&#45;&gt;MATH0092</title>
<path fill="none" stroke="black" d="M1380.04,-165.55C1461.72,-163.56 1630.01,-154.16 1765,-112 1816.51,-95.91 1870.82,-65.11 1905.26,-43.59"/>
<polygon fill="black" stroke="black" points="1907.41,-46.37 1913.99,-38.07 1903.67,-40.45 1907.41,-46.37"/>
</g>
<!-- MATH0090 -->
<g id="node24" class="node">
<title>MATH0090</title>
<g id="a_node24"><a xlink:href="https://www.ucl.ac.uk/maths/sites/maths/files/math0090.pdf" xlink:title="Year 3 or 4, term 2">
<polygon fill="white" stroke="#cd1076" stroke-width="5" points="1404,-38 1122,-38 1122,0 1404,0 1404,-38"/>
<text text-anchor="middle" x="1263" y="-22.8" font-family="Times,serif" font-size="14.00">MATH0090</text>
<text text-anchor="middle" x="1263" y="-7.8" font-family="Times,serif" font-size="14.00">Elliptic Partial Differential Equations</text>
</a>
</g>
</g>
<!-- MATH0051&#45;&gt;MATH0090 -->
<g id="edge31" class="edge">
<title>MATH0051&#45;&gt;MATH0090</title>
<path fill="none" stroke="black" d="M1284.52,-147.97C1269.12,-139.51 1253.7,-127.74 1245,-112 1233.95,-92.02 1240.42,-66.31 1248.52,-47.15"/>
<polygon fill="black" stroke="black" points="1251.7,-48.6 1252.69,-38.06 1245.34,-45.68 1251.7,-48.6"/>
</g>
<!-- MATH0069 -->
<g id="node21" class="node">
<title>MATH0069</title>
<g id="a_node21"><a xlink:href="https://www.ucl.ac.uk/maths/sites/maths/files/math0069.pdf" xlink:title="Year 3 or 4, term 2">
<polygon fill="white" stroke="#cd1076" stroke-width="5" points="1723,-38 1625,-38 1625,0 1723,0 1723,-38"/>
<text text-anchor="middle" x="1674" y="-22.8" font-family="Times,serif" font-size="14.00">MATH0069</text>
<text text-anchor="middle" x="1674" y="-7.8" font-family="Times,serif" font-size="14.00">Probability</text>
</a>
</g>
</g>
<!-- MATH0017&#45;&gt;MATH0069 -->
<g id="edge25" class="edge">
<title>MATH0017&#45;&gt;MATH0069</title>
<path fill="none" stroke="black" d="M1685.21,-73.83C1683.61,-66.13 1681.7,-56.97 1679.92,-48.42"/>
<polygon fill="black" stroke="black" points="1683.3,-47.49 1677.84,-38.41 1676.45,-48.92 1683.3,-47.49"/>
</g>
<!-- MATH0071 -->
<g id="node26" class="node">
<title>MATH0071</title>
<g id="a_node26"><a xlink:href="https://www.ucl.ac.uk/maths/sites/maths/files/math0071.pdf" xlink:title="Year 4, term 1">
<polygon fill="white" stroke="#1c86ee" stroke-width="5" points="1591.5,-38 1460.5,-38 1460.5,0 1591.5,0 1591.5,-38"/>
<text text-anchor="middle" x="1526" y="-22.8" font-family="Times,serif" font-size="14.00">MATH0071</text>
<text text-anchor="middle" x="1526" y="-7.8" font-family="Times,serif" font-size="14.00">Spectral Theory</text>
</a>
</g>
</g>
<!-- MATH0017&#45;&gt;MATH0071 -->
<g id="edge38" class="edge">
<title>MATH0017&#45;&gt;MATH0071</title>
<path fill="none" stroke="black" stroke-dasharray="5,2" d="M1647.87,-73.83C1626.07,-64.2 1599.11,-52.29 1576.1,-42.13"/>
<polygon fill="black" stroke="black" points="1577.4,-38.88 1566.84,-38.04 1574.57,-45.28 1577.4,-38.88"/>
</g>
<!-- MATH0019&#45;&gt;MATH0090 -->
<g id="edge33" class="edge">
<title>MATH0019&#45;&gt;MATH0090</title>
<path fill="none" stroke="black" d="M1322.06,-73.83C1312.52,-65.13 1300.94,-54.58 1290.57,-45.13"/>
<polygon fill="black" stroke="black" points="1292.68,-42.31 1282.93,-38.16 1287.96,-47.49 1292.68,-42.31"/>
</g>
<!-- MATH0072 -->
<g id="node25" class="node">
<title>MATH0072</title>
<g id="a_node25"><a xlink:href="https://www.ucl.ac.uk/maths/sites/maths/files/math0072_2.pdf" xlink:title="Year 4, term 1">
<polygon fill="white" stroke="#1c86ee" stroke-width="5" points="911,-38 735,-38 735,0 911,0 911,-38"/>
<text text-anchor="middle" x="823" y="-22.8" font-family="Times,serif" font-size="14.00">MATH0072</text>
<text text-anchor="middle" x="823" y="-7.8" font-family="Times,serif" font-size="14.00">Riemannian Geometry</text>
</a>
</g>
</g>
<!-- MATH0019&#45;&gt;MATH0072 -->
<g id="edge34" class="edge">
<title>MATH0019&#45;&gt;MATH0072</title>
<path fill="none" stroke="black" d="M1253.96,-79.79C1161.64,-66.98 1016.93,-46.9 921.03,-33.6"/>
<polygon fill="black" stroke="black" points="921.43,-30.12 911.04,-32.21 920.46,-37.05 921.43,-30.12"/>
</g>
<!-- MATH0019&#45;&gt;MATH0071 -->
<g id="edge37" class="edge">
<title>MATH0019&#45;&gt;MATH0071</title>
<path fill="none" stroke="black" d="M1388.43,-73.83C1413.37,-64.07 1444.28,-51.98 1470.48,-41.72"/>
<polygon fill="black" stroke="black" points="1471.87,-44.94 1479.9,-38.04 1469.32,-38.42 1471.87,-44.94"/>
</g>
<!-- MATH0029&#45;&gt;MATH0107 -->
<g id="edge26" class="edge">
<title>MATH0029&#45;&gt;MATH0107</title>
<path fill="none" stroke="black" stroke-dasharray="5,2" d="M166.11,-73.83C186.75,-64.24 212.25,-52.4 234.07,-42.27"/>
<polygon fill="black" stroke="black" points="235.57,-45.43 243.17,-38.04 232.62,-39.08 235.57,-45.43"/>
</g>
<!-- MATH0028&#45;&gt;MATH0107 -->
<g id="edge27" class="edge">
<title>MATH0028&#45;&gt;MATH0107</title>
<path fill="none" stroke="black" stroke-dasharray="5,2" d="M383.68,-73.83C365.96,-64.45 344.17,-52.91 325.3,-42.92"/>
<polygon fill="black" stroke="black" points="326.78,-39.75 316.31,-38.16 323.51,-45.94 326.78,-39.75"/>
</g>
<!-- MATH0020&#45;&gt;MATH0072 -->
<g id="edge35" class="edge">
<title>MATH0020&#45;&gt;MATH0072</title>
<path fill="none" stroke="black" d="M678.7,-73.83C704.97,-64.03 737.57,-51.87 765.13,-41.59"/>
<polygon fill="black" stroke="black" points="766.5,-44.81 774.65,-38.04 764.06,-38.25 766.5,-44.81"/>
</g>
<!-- MATH0018&#45;&gt;MATH0090 -->
<g id="edge32" class="edge">
<title>MATH0018&#45;&gt;MATH0090</title>
<path fill="none" stroke="black" d="M1459.97,-73.92C1423.24,-63.87 1377.35,-51.31 1339.11,-40.84"/>
<polygon fill="black" stroke="black" points="1339.62,-37.35 1329.05,-38.08 1337.77,-44.1 1339.62,-37.35"/>
</g>
<!-- MATH0018&#45;&gt;MATH0071 -->
<g id="edge36" class="edge">
<title>MATH0018&#45;&gt;MATH0071</title>
<path fill="none" stroke="black" d="M1526,-73.83C1526,-66.13 1526,-56.97 1526,-48.42"/>
<polygon fill="black" stroke="black" points="1529.5,-48.41 1526,-38.41 1522.5,-48.41 1529.5,-48.41"/>
</g>
<!-- MATH0070&#45;&gt;MATH0090 -->
<g id="edge30" class="edge">
<title>MATH0070&#45;&gt;MATH0090</title>
<path fill="none" stroke="black" stroke-dasharray="5,2" d="M970.66,-73.97C1026.86,-63.6 1097.57,-50.54 1155.37,-39.87"/>
<polygon fill="black" stroke="black" points="1156.07,-43.3 1165.27,-38.04 1154.8,-36.42 1156.07,-43.3"/>
</g>
</g>
</svg>
