<?xml version="1.0" encoding="UTF-8" standalone="no"?>
<!DOCTYPE svg PUBLIC "-//W3C//DTD SVG 1.1//EN"
 "http://www.w3.org/Graphics/SVG/1.1/DTD/svg11.dtd">
<!-- Generated by graphviz version 13.1.2 (0)
 -->
<!-- Pages: 1 -->
<svg width="1788pt" height="365pt"
 viewBox="0.00 0.00 1788.00 365.00" xmlns="http://www.w3.org/2000/svg" xmlns:xlink="http://www.w3.org/1999/xlink">
<g id="graph0" class="graph" transform="scale(1 1) rotate(0) translate(4 360.5)">
<polygon fill="white" stroke="none" points="-4,4 -4,-360.5 1784,-360.5 1784,4 -4,4"/>
<!-- MATH0003 -->
<g id="node1" class="node">
<title>MATH0003</title>
<g id="a_node1"><a xlink:href="https://www.ucl.ac.uk/mathematical-physical-sciences/sites/mathematical_physical_sciences/files/math0003.pdf" xlink:title="Year 1, term 1">
<polygon fill="white" stroke="#ffb90f" stroke-width="5" points="225.62,-356.5 128.62,-356.5 128.62,-314 225.62,-314 225.62,-356.5"/>
<text xml:space="preserve" text-anchor="middle" x="177.12" y="-339.2" font-family="Times,serif" font-size="14.00">MATH0003</text>
<text xml:space="preserve" text-anchor="middle" x="177.12" y="-321.95" font-family="Times,serif" font-size="14.00">Analysis 1</text>
</a>
</g>
</g>
<!-- MATH0004 -->
<g id="node6" class="node">
<title>MATH0004</title>
<g id="a_node6"><a xlink:href="https://www.ucl.ac.uk/mathematical-physical-sciences/sites/mathematical_physical_sciences/files/math0004.pdf" xlink:title="Year 1, term 2">
<polygon fill="white" stroke="#cd950c" stroke-width="5" points="263.62,-278 166.62,-278 166.62,-235.5 263.62,-235.5 263.62,-278"/>
<text xml:space="preserve" text-anchor="middle" x="215.12" y="-260.7" font-family="Times,serif" font-size="14.00">MATH0004</text>
<text xml:space="preserve" text-anchor="middle" x="215.12" y="-243.45" font-family="Times,serif" font-size="14.00">Analysis 2</text>
</a>
</g>
</g>
<!-- MATH0003&#45;&gt;MATH0004 -->
<g id="edge3" class="edge">
<title>MATH0003&#45;&gt;MATH0004</title>
<g id="a_edge3"><a xlink:title="required prerequisite">
<path fill="none" stroke="black" d="M188.32,-311.71C191.62,-305.08 195.29,-297.68 198.83,-290.54"/>
<polygon fill="black" stroke="black" points="201.89,-292.26 203.2,-281.75 195.62,-289.15 201.89,-292.26"/>
</a>
</g>
</g>
<!-- MATH0013 -->
<g id="node7" class="node">
<title>MATH0013</title>
<g id="a_node7"><a xlink:href="https://www.ucl.ac.uk/mathematical-physical-sciences/sites/mathematical_physical_sciences/files/math0013.pdf" xlink:title="Year 2, term 1">
<polygon fill="white" stroke="#00ff00" stroke-width="5" points="252.25,-199.5 24,-199.5 24,-157 252.25,-157 252.25,-199.5"/>
<text xml:space="preserve" text-anchor="middle" x="138.12" y="-182.2" font-family="Times,serif" font-size="14.00">MATH0013</text>
<text xml:space="preserve" text-anchor="middle" x="138.12" y="-164.95" font-family="Times,serif" font-size="14.00">Analysis 3 &#45; Complex Analysis</text>
</a>
</g>
</g>
<!-- MATH0003&#45;&gt;MATH0013 -->
<g id="edge4" class="edge">
<title>MATH0003&#45;&gt;MATH0013</title>
<g id="a_edge4"><a xlink:title="required prerequisite">
<path fill="none" stroke="black" d="M168.8,-311.73C165.21,-301.53 161.15,-289.25 158.12,-278 152.37,-256.6 147.41,-232.19 143.87,-213"/>
<polygon fill="black" stroke="black" points="147.34,-212.5 142.12,-203.28 140.45,-213.74 147.34,-212.5"/>
</a>
</g>
</g>
<!-- MATH0010 -->
<g id="node2" class="node">
<title>MATH0010</title>
<g id="a_node2"><a xlink:href="https://www.ucl.ac.uk/mathematical-physical-sciences/sites/mathematical_physical_sciences/files/math0010.pdf" xlink:title="Year 1, term 1">
<polygon fill="white" stroke="#ffb90f" stroke-width="5" points="1599.38,-356.5 1404.88,-356.5 1404.88,-314 1599.38,-314 1599.38,-356.5"/>
<text xml:space="preserve" text-anchor="middle" x="1502.12" y="-339.2" font-family="Times,serif" font-size="14.00">MATH0010</text>
<text xml:space="preserve" text-anchor="middle" x="1502.12" y="-321.95" font-family="Times,serif" font-size="14.00">Mathematical Methods 1</text>
</a>
</g>
</g>
<!-- MATH0011 -->
<g id="node4" class="node">
<title>MATH0011</title>
<g id="a_node4"><a xlink:href="https://www.ucl.ac.uk/mathematical-physical-sciences/sites/mathematical_physical_sciences/files/math0011_2.pdf" xlink:title="Year 1, term 2">
<polygon fill="white" stroke="#cd950c" stroke-width="5" points="1599.38,-278 1404.88,-278 1404.88,-235.5 1599.38,-235.5 1599.38,-278"/>
<text xml:space="preserve" text-anchor="middle" x="1502.12" y="-260.7" font-family="Times,serif" font-size="14.00">MATH0011</text>
<text xml:space="preserve" text-anchor="middle" x="1502.12" y="-243.45" font-family="Times,serif" font-size="14.00">Mathematical Methods 2</text>
</a>
</g>
</g>
<!-- MATH0010&#45;&gt;MATH0011 -->
<g id="edge1" class="edge">
<title>MATH0010&#45;&gt;MATH0011</title>
<g id="a_edge1"><a xlink:title="required prerequisite">
<path fill="none" stroke="black" d="M1502.12,-311.71C1502.12,-305.39 1502.12,-298.37 1502.12,-291.54"/>
<polygon fill="black" stroke="black" points="1505.63,-291.91 1502.13,-281.91 1498.63,-291.91 1505.63,-291.91"/>
</a>
</g>
</g>
<!-- MATH0005 -->
<g id="node3" class="node">
<title>MATH0005</title>
<g id="a_node3"><a xlink:href="https://www.ucl.ac.uk/mathematical-physical-sciences/sites/mathematical_physical_sciences/files/math0005.pdf" xlink:title="Year 1, term 1">
<polygon fill="white" stroke="#ffb90f" stroke-width="5" points="1229.62,-356.5 1132.62,-356.5 1132.62,-314 1229.62,-314 1229.62,-356.5"/>
<text xml:space="preserve" text-anchor="middle" x="1181.12" y="-339.2" font-family="Times,serif" font-size="14.00">MATH0005</text>
<text xml:space="preserve" text-anchor="middle" x="1181.12" y="-321.95" font-family="Times,serif" font-size="14.00">Algebra 1</text>
</a>
</g>
</g>
<!-- MATH0006 -->
<g id="node5" class="node">
<title>MATH0006</title>
<g id="a_node5"><a xlink:href="https://www.ucl.ac.uk/mathematical-physical-sciences/sites/mathematical_physical_sciences/files/math0006.pdf" xlink:title="Year 1, term 2">
<polygon fill="white" stroke="#cd950c" stroke-width="5" points="1229.62,-278 1132.62,-278 1132.62,-235.5 1229.62,-235.5 1229.62,-278"/>
<text xml:space="preserve" text-anchor="middle" x="1181.12" y="-260.7" font-family="Times,serif" font-size="14.00">MATH0006</text>
<text xml:space="preserve" text-anchor="middle" x="1181.12" y="-243.45" font-family="Times,serif" font-size="14.00">Algebra 2</text>
</a>
</g>
</g>
<!-- MATH0005&#45;&gt;MATH0006 -->
<g id="edge2" class="edge">
<title>MATH0005&#45;&gt;MATH0006</title>
<g id="a_edge2"><a xlink:title="required prerequisite">
<path fill="none" stroke="black" d="M1181.12,-311.71C1181.12,-305.39 1181.12,-298.37 1181.12,-291.54"/>
<polygon fill="black" stroke="black" points="1184.63,-291.91 1181.13,-281.91 1177.63,-291.91 1184.63,-291.91"/>
</a>
</g>
</g>
<!-- MATH0016 -->
<g id="node9" class="node">
<title>MATH0016</title>
<g id="a_node9"><a xlink:href="https://www.ucl.ac.uk/mathematical-physical-sciences/sites/mathematical_physical_sciences/files/math0016.pdf" xlink:title="Year 2, term 1">
<polygon fill="white" stroke="#00ff00" stroke-width="5" points="464.38,-199.5 269.88,-199.5 269.88,-157 464.38,-157 464.38,-199.5"/>
<text xml:space="preserve" text-anchor="middle" x="367.12" y="-182.2" font-family="Times,serif" font-size="14.00">MATH0016</text>
<text xml:space="preserve" text-anchor="middle" x="367.12" y="-164.95" font-family="Times,serif" font-size="14.00">Mathematical Methods 3</text>
</a>
</g>
</g>
<!-- MATH0011&#45;&gt;MATH0016 -->
<g id="edge7" class="edge">
<title>MATH0011&#45;&gt;MATH0016</title>
<g id="a_edge7"><a xlink:title="required prerequisite">
<path fill="none" stroke="black" d="M1402.58,-247.38C1353.41,-243.43 1293.17,-238.85 1239.12,-235.5 903.05,-214.66 814.08,-238.72 477.77,-199.86"/>
<polygon fill="black" stroke="black" points="478.57,-196.43 468.23,-198.75 477.76,-203.38 478.57,-196.43"/>
</a>
</g>
</g>
<!-- MATH0057 -->
<g id="node11" class="node">
<title>MATH0057</title>
<g id="a_node11"><a xlink:href="https://www.ucl.ac.uk/mathematical-physical-sciences/sites/mathematical_physical_sciences/files/math0057.pdf" xlink:title="Year 2 or 3, term 2">
<polygon fill="white" stroke="#8ee5ee" stroke-width="5" points="1600.88,-199.5 1403.38,-199.5 1403.38,-157 1600.88,-157 1600.88,-199.5"/>
<text xml:space="preserve" text-anchor="middle" x="1502.12" y="-182.2" font-family="Times,serif" font-size="14.00">MATH0057</text>
<text xml:space="preserve" text-anchor="middle" x="1502.12" y="-164.95" font-family="Times,serif" font-size="14.00">Probability and Statistics</text>
</a>
</g>
</g>
<!-- MATH0011&#45;&gt;MATH0057 -->
<g id="edge9" class="edge">
<title>MATH0011&#45;&gt;MATH0057</title>
<g id="a_edge9"><a xlink:title="required prerequisite">
<path fill="none" stroke="black" d="M1502.12,-233.21C1502.12,-226.89 1502.12,-219.87 1502.12,-213.04"/>
<polygon fill="black" stroke="black" points="1505.63,-213.41 1502.13,-203.41 1498.63,-213.41 1505.63,-213.41"/>
</a>
</g>
</g>
<!-- MATH0020 -->
<g id="node16" class="node">
<title>MATH0020</title>
<g id="a_node16"><a xlink:href="https://www.ucl.ac.uk/mathematical-physical-sciences/sites/mathematical_physical_sciences/files/math0020.pdf" xlink:title="Year 3, term 2">
<polygon fill="white" stroke="#cd3333" stroke-width="5" points="1780,-121 1616.25,-121 1616.25,-78.5 1780,-78.5 1780,-121"/>
<text xml:space="preserve" text-anchor="middle" x="1698.12" y="-103.7" font-family="Times,serif" font-size="14.00">MATH0020</text>
<text xml:space="preserve" text-anchor="middle" x="1698.12" y="-86.45" font-family="Times,serif" font-size="14.00">Curves and Surfaces</text>
</a>
</g>
</g>
<!-- MATH0011&#45;&gt;MATH0020 -->
<g id="edge14" class="edge">
<title>MATH0011&#45;&gt;MATH0020</title>
<g id="a_edge14"><a xlink:title="required prerequisite">
<path fill="none" stroke="black" d="M1554.98,-233.01C1573.32,-223.91 1593.44,-212.49 1610.12,-199.5 1634.95,-180.17 1658.41,-153.24 1674.86,-132.39"/>
<polygon fill="black" stroke="black" points="1677.62,-134.53 1680.97,-124.48 1672.08,-130.25 1677.62,-134.53"/>
</a>
</g>
</g>
<!-- MATH0014 -->
<g id="node8" class="node">
<title>MATH0014</title>
<g id="a_node8"><a xlink:href="https://www.ucl.ac.uk/mathematical-physical-sciences/sites/mathematical_physical_sciences/files/math0014.pdf" xlink:title="Year 2, term 1">
<polygon fill="white" stroke="#00ff00" stroke-width="5" points="1311,-199.5 1051.25,-199.5 1051.25,-157 1311,-157 1311,-199.5"/>
<text xml:space="preserve" text-anchor="middle" x="1181.12" y="-182.2" font-family="Times,serif" font-size="14.00">MATH0014</text>
<text xml:space="preserve" text-anchor="middle" x="1181.12" y="-164.95" font-family="Times,serif" font-size="14.00">Algebra 3: Further Linear Algebra</text>
</a>
</g>
</g>
<!-- MATH0006&#45;&gt;MATH0014 -->
<g id="edge6" class="edge">
<title>MATH0006&#45;&gt;MATH0014</title>
<g id="a_edge6"><a xlink:title="required prerequisite">
<path fill="none" stroke="black" d="M1181.12,-233.21C1181.12,-226.89 1181.12,-219.87 1181.12,-213.04"/>
<polygon fill="black" stroke="black" points="1184.63,-213.41 1181.13,-203.41 1177.63,-213.41 1184.63,-213.41"/>
</a>
</g>
</g>
<!-- MATH0004&#45;&gt;MATH0013 -->
<g id="edge5" class="edge">
<title>MATH0004&#45;&gt;MATH0013</title>
<g id="a_edge5"><a xlink:title="recommended prerequisite">
<path fill="none" stroke="black" stroke-dasharray="5,2" d="M192.44,-233.21C184.99,-225.81 176.58,-217.45 168.64,-209.57"/>
<polygon fill="black" stroke="black" points="171.55,-207.52 161.99,-202.96 166.62,-212.49 171.55,-207.52"/>
</a>
</g>
</g>
<!-- MATH0051 -->
<g id="node10" class="node">
<title>MATH0051</title>
<g id="a_node10"><a xlink:href="https://www.ucl.ac.uk/mathematical-physical-sciences/sites/mathematical_physical_sciences/files/math0051.pdf" xlink:title="Year 2 or 3, term 2">
<polygon fill="white" stroke="#8ee5ee" stroke-width="5" points="579.62,-199.5 482.62,-199.5 482.62,-157 579.62,-157 579.62,-199.5"/>
<text xml:space="preserve" text-anchor="middle" x="531.12" y="-182.2" font-family="Times,serif" font-size="14.00">MATH0051</text>
<text xml:space="preserve" text-anchor="middle" x="531.12" y="-164.95" font-family="Times,serif" font-size="14.00">Analysis 4</text>
</a>
</g>
</g>
<!-- MATH0004&#45;&gt;MATH0051 -->
<g id="edge8" class="edge">
<title>MATH0004&#45;&gt;MATH0051</title>
<g id="a_edge8"><a xlink:title="required prerequisite">
<path fill="none" stroke="black" d="M266,-246.55C315.91,-237.1 394.31,-221.15 469.28,-200.47"/>
<polygon fill="black" stroke="black" points="470.17,-203.85 478.85,-197.79 468.28,-197.11 470.17,-203.85"/>
</a>
</g>
</g>
<!-- MATH0074 -->
<g id="node18" class="node">
<title>MATH0074</title>
<g id="a_node18"><a xlink:href="https://www.ucl.ac.uk/mathematical-physical-sciences/sites/mathematical_physical_sciences/files/math0074.pdf" xlink:title="Year 3 or 4, term 1">
<polygon fill="white" stroke="#ff1493" stroke-width="5" points="461.88,-121 294.38,-121 294.38,-78.5 461.88,-78.5 461.88,-121"/>
<text xml:space="preserve" text-anchor="middle" x="378.12" y="-103.7" font-family="Times,serif" font-size="14.00">MATH0074</text>
<text xml:space="preserve" text-anchor="middle" x="378.12" y="-86.45" font-family="Times,serif" font-size="14.00">Topology and Groups</text>
</a>
</g>
</g>
<!-- MATH0013&#45;&gt;MATH0074 -->
<g id="edge16" class="edge">
<title>MATH0013&#45;&gt;MATH0074</title>
<g id="a_edge16"><a xlink:title="required prerequisite">
<path fill="none" stroke="black" d="M209.48,-154.5C236.81,-145.8 268.18,-135.8 296.4,-126.8"/>
<polygon fill="black" stroke="black" points="297.14,-130.24 305.6,-123.87 295.01,-123.57 297.14,-130.24"/>
</a>
</g>
</g>
<!-- MATH0070 -->
<g id="node19" class="node">
<title>MATH0070</title>
<g id="a_node19"><a xlink:href="https://www.ucl.ac.uk/mathematical-physical-sciences/sites/mathematical_physical_sciences/files/math0070.pdf" xlink:title="Year 3 or 4, term 1">
<polygon fill="white" stroke="#ff1493" stroke-width="5" points="276.25,-121 0,-121 0,-78.5 276.25,-78.5 276.25,-121"/>
<text xml:space="preserve" text-anchor="middle" x="138.12" y="-103.7" font-family="Times,serif" font-size="14.00">MATH0070</text>
<text xml:space="preserve" text-anchor="middle" x="138.12" y="-86.45" font-family="Times,serif" font-size="14.00">Linear Partial Differential Equations</text>
</a>
</g>
</g>
<!-- MATH0013&#45;&gt;MATH0070 -->
<g id="edge18" class="edge">
<title>MATH0013&#45;&gt;MATH0070</title>
<g id="a_edge18"><a xlink:title="required prerequisite">
<path fill="none" stroke="black" d="M138.12,-154.71C138.12,-148.39 138.12,-141.37 138.12,-134.54"/>
<polygon fill="black" stroke="black" points="141.63,-134.91 138.13,-124.91 134.63,-134.91 141.63,-134.91"/>
</a>
</g>
</g>
<!-- MATH0028 -->
<g id="node17" class="node">
<title>MATH0028</title>
<g id="a_node17"><a xlink:href="https://www.ucl.ac.uk/mathematical-physical-sciences/sites/mathematical_physical_sciences/files/math0028.pdf" xlink:title="Year 3, term 2">
<polygon fill="white" stroke="#cd3333" stroke-width="5" points="1288.12,-121 1074.12,-121 1074.12,-78.5 1288.12,-78.5 1288.12,-121"/>
<text xml:space="preserve" text-anchor="middle" x="1181.12" y="-103.7" font-family="Times,serif" font-size="14.00">MATH0028</text>
<text xml:space="preserve" text-anchor="middle" x="1181.12" y="-86.45" font-family="Times,serif" font-size="14.00">Combinatorial Optimisation</text>
</a>
</g>
</g>
<!-- MATH0014&#45;&gt;MATH0028 -->
<g id="edge15" class="edge">
<title>MATH0014&#45;&gt;MATH0028</title>
<g id="a_edge15"><a xlink:title="required prerequisite">
<path fill="none" stroke="black" d="M1181.12,-154.71C1181.12,-148.39 1181.12,-141.37 1181.12,-134.54"/>
<polygon fill="black" stroke="black" points="1184.63,-134.91 1181.13,-124.91 1177.63,-134.91 1184.63,-134.91"/>
</a>
</g>
</g>
<!-- MATH0016&#45;&gt;MATH0070 -->
<g id="edge19" class="edge">
<title>MATH0016&#45;&gt;MATH0070</title>
<g id="a_edge19"><a xlink:title="required prerequisite">
<path fill="none" stroke="black" d="M299.04,-154.5C273.2,-145.87 243.56,-135.97 216.82,-127.04"/>
<polygon fill="black" stroke="black" points="217.98,-123.74 207.39,-123.89 215.76,-130.38 217.98,-123.74"/>
</a>
</g>
</g>
<!-- MATH0017 -->
<g id="node12" class="node">
<title>MATH0017</title>
<g id="a_node12"><a xlink:href="https://www.ucl.ac.uk/mathematical-physical-sciences/sites/mathematical_physical_sciences/files/math0017.pdf" xlink:title="Year 3, term 1">
<polygon fill="white" stroke="#ff4040" stroke-width="5" points="1056.25,-121 924,-121 924,-78.5 1056.25,-78.5 1056.25,-121"/>
<text xml:space="preserve" text-anchor="middle" x="990.12" y="-103.7" font-family="Times,serif" font-size="14.00">MATH0017</text>
<text xml:space="preserve" text-anchor="middle" x="990.12" y="-86.45" font-family="Times,serif" font-size="14.00">Measure Theory</text>
</a>
</g>
</g>
<!-- MATH0051&#45;&gt;MATH0017 -->
<g id="edge10" class="edge">
<title>MATH0051&#45;&gt;MATH0017</title>
<g id="a_edge10"><a xlink:title="required prerequisite">
<path fill="none" stroke="black" d="M582.09,-171.73C653.79,-163.54 788.67,-146.57 910.54,-121.87"/>
<polygon fill="black" stroke="black" points="910.96,-125.36 920.06,-119.92 909.56,-118.5 910.96,-125.36"/>
</a>
</g>
</g>
<!-- MATH0019 -->
<g id="node13" class="node">
<title>MATH0019</title>
<g id="a_node13"><a xlink:href="https://www.ucl.ac.uk/mathematical-physical-sciences/sites/mathematical_physical_sciences/files/math0019.pdf" xlink:title="Year 3, term 1">
<polygon fill="white" stroke="#ff4040" stroke-width="5" points="732,-121 556.25,-121 556.25,-78.5 732,-78.5 732,-121"/>
<text xml:space="preserve" text-anchor="middle" x="644.12" y="-103.7" font-family="Times,serif" font-size="14.00">MATH0019</text>
<text xml:space="preserve" text-anchor="middle" x="644.12" y="-86.45" font-family="Times,serif" font-size="14.00">Multivariable Analysis</text>
</a>
</g>
</g>
<!-- MATH0051&#45;&gt;MATH0019 -->
<g id="edge11" class="edge">
<title>MATH0051&#45;&gt;MATH0019</title>
<g id="a_edge11"><a xlink:title="required prerequisite">
<path fill="none" stroke="black" d="M564.72,-154.5C576.22,-146.72 589.24,-137.9 601.37,-129.7"/>
<polygon fill="black" stroke="black" points="603.28,-132.63 609.6,-124.12 599.36,-126.83 603.28,-132.63"/>
</a>
</g>
</g>
<!-- MATH0018 -->
<g id="node15" class="node">
<title>MATH0018</title>
<g id="a_node15"><a xlink:href="https://www.ucl.ac.uk/mathematical-physical-sciences/sites/mathematical_physical_sciences/files/math0018.pdf" xlink:title="Year 3, term 2">
<polygon fill="white" stroke="#cd3333" stroke-width="5" points="905.88,-121 750.38,-121 750.38,-78.5 905.88,-78.5 905.88,-121"/>
<text xml:space="preserve" text-anchor="middle" x="828.12" y="-103.7" font-family="Times,serif" font-size="14.00">MATH0018</text>
<text xml:space="preserve" text-anchor="middle" x="828.12" y="-86.45" font-family="Times,serif" font-size="14.00">Functional Analysis</text>
</a>
</g>
</g>
<!-- MATH0051&#45;&gt;MATH0018 -->
<g id="edge13" class="edge">
<title>MATH0051&#45;&gt;MATH0018</title>
<g id="a_edge13"><a xlink:title="required prerequisite">
<path fill="none" stroke="black" d="M581.84,-164.19C624.29,-153.25 685.92,-137.38 736.91,-124.24"/>
<polygon fill="black" stroke="black" points="737.68,-127.66 746.49,-121.78 735.93,-120.88 737.68,-127.66"/>
</a>
</g>
</g>
<!-- MATH0051&#45;&gt;MATH0074 -->
<g id="edge17" class="edge">
<title>MATH0051&#45;&gt;MATH0074</title>
<g id="a_edge17"><a xlink:title="required prerequisite">
<path fill="none" stroke="black" d="M485.63,-154.5C469.21,-146.29 450.5,-136.94 433.34,-128.36"/>
<polygon fill="black" stroke="black" points="435.3,-125.43 424.79,-124.08 432.17,-131.69 435.3,-125.43"/>
</a>
</g>
</g>
<!-- MATH0051&#45;&gt;MATH0070 -->
<g id="edge20" class="edge">
<title>MATH0051&#45;&gt;MATH0070</title>
<g id="a_edge20"><a xlink:title="required prerequisite">
<path fill="none" stroke="black" d="M480.35,-158.98C477.92,-158.27 475.5,-157.61 473.12,-157 438.42,-148.1 361.18,-134.97 289.61,-123.64"/>
<polygon fill="black" stroke="black" points="290.56,-120.25 280.14,-122.15 289.47,-127.16 290.56,-120.25"/>
</a>
</g>
</g>
<!-- MATH0090 -->
<g id="node21" class="node">
<title>MATH0090</title>
<g id="a_node21"><a xlink:href="https://www.ucl.ac.uk/mathematical-physical-sciences/sites/mathematical_physical_sciences/files/math0090.pdf" xlink:title="Year 3 or 4, term 2">
<polygon fill="white" stroke="#cd1076" stroke-width="5" points="779.88,-42.5 498.38,-42.5 498.38,0 779.88,0 779.88,-42.5"/>
<text xml:space="preserve" text-anchor="middle" x="639.12" y="-25.2" font-family="Times,serif" font-size="14.00">MATH0090</text>
<text xml:space="preserve" text-anchor="middle" x="639.12" y="-7.95" font-family="Times,serif" font-size="14.00">Elliptic Partial Differential Equations</text>
</a>
</g>
</g>
<!-- MATH0051&#45;&gt;MATH0090 -->
<g id="edge23" class="edge">
<title>MATH0051&#45;&gt;MATH0090</title>
<g id="a_edge23"><a xlink:title="required prerequisite">
<path fill="none" stroke="black" d="M529.63,-154.52C529.35,-133.15 531.92,-101.14 547.12,-78.5 554.39,-67.68 564.51,-58.59 575.39,-51.08"/>
<polygon fill="black" stroke="black" points="577.27,-54.03 583.81,-45.7 573.5,-48.13 577.27,-54.03"/>
</a>
</g>
</g>
<!-- MATH0092 -->
<g id="node23" class="node">
<title>MATH0092</title>
<g id="a_node23"><a xlink:href="https://www.ucl.ac.uk/mathematical-physical-sciences/sites/mathematical_physical_sciences/files/math0092.pdf" xlink:title="Year 3 or 4, term 2">
<polygon fill="white" stroke="#cd1076" stroke-width="5" points="480.75,-42.5 81.5,-42.5 81.5,0 480.75,0 480.75,-42.5"/>
<text xml:space="preserve" text-anchor="middle" x="281.12" y="-25.2" font-family="Times,serif" font-size="14.00">MATH0092</text>
<text xml:space="preserve" text-anchor="middle" x="281.12" y="-7.95" font-family="Times,serif" font-size="14.00">Variational Methods for Partial Differential Equations</text>
</a>
</g>
</g>
<!-- MATH0051&#45;&gt;MATH0092 -->
<g id="edge29" class="edge">
<title>MATH0051&#45;&gt;MATH0092</title>
<g id="a_edge29"><a xlink:title="required prerequisite">
<path fill="none" stroke="black" d="M523.04,-154.69C513.85,-132.19 496.71,-98.21 471.12,-78.5 454.95,-66.04 436.07,-56.34 416.6,-48.78"/>
<polygon fill="black" stroke="black" points="418.08,-45.6 407.48,-45.43 415.66,-52.17 418.08,-45.6"/>
</a>
</g>
</g>
<!-- MATH0029 -->
<g id="node14" class="node">
<title>MATH0029</title>
<g id="a_node14"><a xlink:href="https://www.ucl.ac.uk/mathematical-physical-sciences/sites/mathematical_physical_sciences/files/math0029.pdf" xlink:title="Year 3, term 1">
<polygon fill="white" stroke="#ff4040" stroke-width="5" points="1559.62,-121 1306.62,-121 1306.62,-78.5 1559.62,-78.5 1559.62,-121"/>
<text xml:space="preserve" text-anchor="middle" x="1433.12" y="-103.7" font-family="Times,serif" font-size="14.00">MATH0029</text>
<text xml:space="preserve" text-anchor="middle" x="1433.12" y="-86.45" font-family="Times,serif" font-size="14.00">Graph Theory and Combinatorics</text>
</a>
</g>
</g>
<!-- MATH0057&#45;&gt;MATH0029 -->
<g id="edge12" class="edge">
<title>MATH0057&#45;&gt;MATH0029</title>
<g id="a_edge12"><a xlink:title="recommended prerequisite">
<path fill="none" stroke="black" stroke-dasharray="5,2" d="M1481.8,-154.71C1475.26,-147.46 1467.9,-139.3 1460.91,-131.56"/>
<polygon fill="black" stroke="black" points="1463.86,-129.6 1454.56,-124.52 1458.66,-134.29 1463.86,-129.6"/>
</a>
</g>
</g>
<!-- MATH0107 -->
<g id="node22" class="node">
<title>MATH0107</title>
<g id="a_node22"><a xlink:href="https://www.ucl.ac.uk/mathematical-physical-sciences/sites/mathematical_physical_sciences/files/math0107_1.pdf" xlink:title="Year 3 or 4, term 2">
<polygon fill="white" stroke="#cd1076" stroke-width="5" points="1578.75,-42.5 1287.5,-42.5 1287.5,0 1578.75,0 1578.75,-42.5"/>
<text xml:space="preserve" text-anchor="middle" x="1433.12" y="-25.2" font-family="Times,serif" font-size="14.00">MATH0107</text>
<text xml:space="preserve" text-anchor="middle" x="1433.12" y="-7.95" font-family="Times,serif" font-size="14.00">Probabilistic Method in Combinatorics</text>
</a>
</g>
</g>
<!-- MATH0057&#45;&gt;MATH0107 -->
<g id="edge28" class="edge">
<title>MATH0057&#45;&gt;MATH0107</title>
<g id="a_edge28"><a xlink:title="recommended prerequisite">
<path fill="none" stroke="black" stroke-dasharray="5,2" d="M1540.35,-154.56C1551.77,-145.66 1562.9,-134.35 1569.12,-121 1577.11,-103.88 1579.62,-94.2 1569.12,-78.5 1561.39,-66.94 1550.8,-57.75 1538.91,-50.44"/>
<polygon fill="black" stroke="black" points="1540.89,-47.54 1530.45,-45.72 1537.47,-53.65 1540.89,-47.54"/>
</a>
</g>
</g>
<!-- MATH0069 -->
<g id="node20" class="node">
<title>MATH0069</title>
<g id="a_node20"><a xlink:href="https://www.ucl.ac.uk/mathematical-physical-sciences/sites/mathematical_physical_sciences/files/math0069.pdf" xlink:title="Year 3 or 4, term 2">
<polygon fill="white" stroke="#cd1076" stroke-width="5" points="1043.62,-42.5 946.62,-42.5 946.62,0 1043.62,0 1043.62,-42.5"/>
<text xml:space="preserve" text-anchor="middle" x="995.12" y="-25.2" font-family="Times,serif" font-size="14.00">MATH0069</text>
<text xml:space="preserve" text-anchor="middle" x="995.12" y="-7.95" font-family="Times,serif" font-size="14.00">Probability</text>
</a>
</g>
</g>
<!-- MATH0017&#45;&gt;MATH0069 -->
<g id="edge21" class="edge">
<title>MATH0017&#45;&gt;MATH0069</title>
<g id="a_edge21"><a xlink:title="required prerequisite">
<path fill="none" stroke="black" d="M991.6,-76.21C992.01,-69.89 992.47,-62.87 992.92,-56.04"/>
<polygon fill="black" stroke="black" points="996.39,-56.61 993.55,-46.4 989.4,-56.15 996.39,-56.61"/>
</a>
</g>
</g>
<!-- MATH0071 -->
<g id="node24" class="node">
<title>MATH0071</title>
<g id="a_node24"><a xlink:href="https://www.ucl.ac.uk/mathematical-physical-sciences/sites/mathematical_physical_sciences/files/math0071.pdf" xlink:title="Year 4, term 1">
<polygon fill="white" stroke="#1c86ee" stroke-width="5" points="928.12,-42.5 798.12,-42.5 798.12,0 928.12,0 928.12,-42.5"/>
<text xml:space="preserve" text-anchor="middle" x="863.12" y="-25.2" font-family="Times,serif" font-size="14.00">MATH0071</text>
<text xml:space="preserve" text-anchor="middle" x="863.12" y="-7.95" font-family="Times,serif" font-size="14.00">Spectral Theory</text>
</a>
</g>
</g>
<!-- MATH0017&#45;&gt;MATH0071 -->
<g id="edge32" class="edge">
<title>MATH0017&#45;&gt;MATH0071</title>
<g id="a_edge32"><a xlink:title="recommended prerequisite">
<path fill="none" stroke="black" stroke-dasharray="5,2" d="M952.36,-76C939.19,-68.07 924.23,-59.05 910.37,-50.71"/>
<polygon fill="black" stroke="black" points="912.19,-47.72 901.82,-45.56 908.58,-53.71 912.19,-47.72"/>
</a>
</g>
</g>
<!-- MATH0019&#45;&gt;MATH0090 -->
<g id="edge25" class="edge">
<title>MATH0019&#45;&gt;MATH0090</title>
<g id="a_edge25"><a xlink:title="required prerequisite">
<path fill="none" stroke="black" d="M642.65,-76.21C642.24,-69.89 641.78,-62.87 641.33,-56.04"/>
<polygon fill="black" stroke="black" points="644.85,-56.15 640.7,-46.4 637.86,-56.61 644.85,-56.15"/>
</a>
</g>
</g>
<!-- MATH0019&#45;&gt;MATH0071 -->
<g id="edge31" class="edge">
<title>MATH0019&#45;&gt;MATH0071</title>
<g id="a_edge31"><a xlink:title="required prerequisite">
<path fill="none" stroke="black" d="M709.24,-76C733.84,-67.41 762.04,-57.56 787.53,-48.66"/>
<polygon fill="black" stroke="black" points="788.55,-52.01 796.83,-45.41 786.24,-45.4 788.55,-52.01"/>
</a>
</g>
</g>
<!-- MATH0029&#45;&gt;MATH0107 -->
<g id="edge26" class="edge">
<title>MATH0029&#45;&gt;MATH0107</title>
<g id="a_edge26"><a xlink:title="recommended prerequisite">
<path fill="none" stroke="black" stroke-dasharray="5,2" d="M1433.12,-76.21C1433.12,-69.89 1433.12,-62.87 1433.12,-56.04"/>
<polygon fill="black" stroke="black" points="1436.63,-56.41 1433.13,-46.41 1429.63,-56.41 1436.63,-56.41"/>
</a>
</g>
</g>
<!-- MATH0018&#45;&gt;MATH0090 -->
<g id="edge24" class="edge">
<title>MATH0018&#45;&gt;MATH0090</title>
<g id="a_edge24"><a xlink:title="required prerequisite">
<path fill="none" stroke="black" d="M771.93,-76C751.08,-67.56 727.23,-57.91 705.55,-49.14"/>
<polygon fill="black" stroke="black" points="707.09,-45.98 696.51,-45.48 704.46,-52.47 707.09,-45.98"/>
</a>
</g>
</g>
<!-- MATH0018&#45;&gt;MATH0071 -->
<g id="edge30" class="edge">
<title>MATH0018&#45;&gt;MATH0071</title>
<g id="a_edge30"><a xlink:title="required prerequisite">
<path fill="none" stroke="black" d="M838.44,-76.21C841.47,-69.58 844.86,-62.18 848.12,-55.04"/>
<polygon fill="black" stroke="black" points="851.16,-56.82 852.14,-46.27 844.79,-53.91 851.16,-56.82"/>
</a>
</g>
</g>
<!-- MATH0028&#45;&gt;MATH0107 -->
<g id="edge27" class="edge">
<title>MATH0028&#45;&gt;MATH0107</title>
<g id="a_edge27"><a xlink:title="recommended prerequisite">
<path fill="none" stroke="black" stroke-dasharray="5,2" d="M1256.05,-76C1284.87,-67.26 1317.97,-57.21 1347.7,-48.18"/>
<polygon fill="black" stroke="black" points="1348.49,-51.6 1357.04,-45.35 1346.45,-44.9 1348.49,-51.6"/>
</a>
</g>
</g>
<!-- MATH0070&#45;&gt;MATH0090 -->
<g id="edge22" class="edge">
<title>MATH0070&#45;&gt;MATH0090</title>
<g id="a_edge22"><a xlink:title="recommended prerequisite">
<path fill="none" stroke="black" stroke-dasharray="5,2" d="M278.68,-77.29C342.85,-67.49 419.02,-55.86 484.77,-45.82"/>
<polygon fill="black" stroke="black" points="485.22,-49.29 494.57,-44.32 484.16,-42.37 485.22,-49.29"/>
</a>
</g>
</g>
</g>
</svg>
