<?xml version="1.0" encoding="UTF-8" standalone="no"?>
<!DOCTYPE svg PUBLIC "-//W3C//DTD SVG 1.1//EN"
 "http://www.w3.org/Graphics/SVG/1.1/DTD/svg11.dtd">
<!-- Generated by graphviz version 12.2.1 (0)
 -->
<!-- Pages: 1 -->
<svg width="1830pt" height="365pt"
 viewBox="0.00 0.00 1830.00 364.50" xmlns="http://www.w3.org/2000/svg" xmlns:xlink="http://www.w3.org/1999/xlink">
<g id="graph0" class="graph" transform="scale(1 1) rotate(0) translate(4 360.5)">
<polygon fill="white" stroke="none" points="-4,4 -4,-360.5 1826,-360.5 1826,4 -4,4"/>
<!-- MATH0003 -->
<g id="node1" class="node">
<title>MATH0003</title>
<g id="a_node1"><a xlink:href="https://www.ucl.ac.uk/maths/sites/maths/files/math0003.pdf" xlink:title="Year 1, term 1">
<polygon fill="white" stroke="#ffb90f" stroke-width="5" points="300.62,-356.5 203.62,-356.5 203.62,-314 300.62,-314 300.62,-356.5"/>
<text text-anchor="middle" x="252.12" y="-339.2" font-family="Times,serif" font-size="14.00">MATH0003</text>
<text text-anchor="middle" x="252.12" y="-321.95" font-family="Times,serif" font-size="14.00">Analysis 1</text>
</a>
</g>
</g>
<!-- MATH0004 -->
<g id="node5" class="node">
<title>MATH0004</title>
<g id="a_node5"><a xlink:href="https://www.ucl.ac.uk/maths/sites/maths/files/math0004.pdf" xlink:title="Year 1, term 2">
<polygon fill="white" stroke="#cd950c" stroke-width="5" points="338.62,-278 241.62,-278 241.62,-235.5 338.62,-235.5 338.62,-278"/>
<text text-anchor="middle" x="290.12" y="-260.7" font-family="Times,serif" font-size="14.00">MATH0004</text>
<text text-anchor="middle" x="290.12" y="-243.45" font-family="Times,serif" font-size="14.00">Analysis 2</text>
</a>
</g>
</g>
<!-- MATH0003&#45;&gt;MATH0004 -->
<g id="edge2" class="edge">
<title>MATH0003&#45;&gt;MATH0004</title>
<path fill="none" stroke="black" d="M263.32,-311.71C266.62,-305.08 270.29,-297.68 273.83,-290.54"/>
<polygon fill="black" stroke="black" points="276.89,-292.26 278.2,-281.75 270.62,-289.15 276.89,-292.26"/>
</g>
<!-- MATH0013 -->
<g id="node8" class="node">
<title>MATH0013</title>
<g id="a_node8"><a xlink:href="https://www.ucl.ac.uk/maths/sites/maths/files/math0013.pdf" xlink:title="Year 2, term 1">
<polygon fill="white" stroke="#00ff00" stroke-width="5" points="327.25,-199.5 99,-199.5 99,-157 327.25,-157 327.25,-199.5"/>
<text text-anchor="middle" x="213.12" y="-182.2" font-family="Times,serif" font-size="14.00">MATH0013</text>
<text text-anchor="middle" x="213.12" y="-164.95" font-family="Times,serif" font-size="14.00">Analysis 3 &#45; Complex Analysis</text>
</a>
</g>
</g>
<!-- MATH0003&#45;&gt;MATH0013 -->
<g id="edge5" class="edge">
<title>MATH0003&#45;&gt;MATH0013</title>
<path fill="none" stroke="black" d="M243.8,-311.73C240.21,-301.53 236.15,-289.25 233.12,-278 227.37,-256.6 222.41,-232.19 218.87,-213"/>
<polygon fill="black" stroke="black" points="222.34,-212.5 217.12,-203.28 215.45,-213.74 222.34,-212.5"/>
</g>
<!-- MATH0010 -->
<g id="node2" class="node">
<title>MATH0010</title>
<g id="a_node2"><a xlink:href="https://www.ucl.ac.uk/maths/sites/maths/files/math0010.pdf" xlink:title="Year 1, term 1">
<polygon fill="white" stroke="#ffb90f" stroke-width="5" points="1268.38,-356.5 1073.88,-356.5 1073.88,-314 1268.38,-314 1268.38,-356.5"/>
<text text-anchor="middle" x="1171.12" y="-339.2" font-family="Times,serif" font-size="14.00">MATH0010</text>
<text text-anchor="middle" x="1171.12" y="-321.95" font-family="Times,serif" font-size="14.00">Mathematical Methods 1</text>
</a>
</g>
</g>
<!-- MATH0011 -->
<g id="node4" class="node">
<title>MATH0011</title>
<g id="a_node4"><a xlink:href="https://www.ucl.ac.uk/maths/sites/maths/files/math0011_2.pdf" xlink:title="Year 1, term 2">
<polygon fill="white" stroke="#cd950c" stroke-width="5" points="1268.38,-278 1073.88,-278 1073.88,-235.5 1268.38,-235.5 1268.38,-278"/>
<text text-anchor="middle" x="1171.12" y="-260.7" font-family="Times,serif" font-size="14.00">MATH0011</text>
<text text-anchor="middle" x="1171.12" y="-243.45" font-family="Times,serif" font-size="14.00">Mathematical Methods 2</text>
</a>
</g>
</g>
<!-- MATH0010&#45;&gt;MATH0011 -->
<g id="edge1" class="edge">
<title>MATH0010&#45;&gt;MATH0011</title>
<path fill="none" stroke="black" d="M1171.12,-311.71C1171.12,-305.39 1171.12,-298.37 1171.12,-291.54"/>
<polygon fill="black" stroke="black" points="1174.63,-291.91 1171.13,-281.91 1167.63,-291.91 1174.63,-291.91"/>
</g>
<!-- MATH0005 -->
<g id="node3" class="node">
<title>MATH0005</title>
<g id="a_node3"><a xlink:href="https://www.ucl.ac.uk/maths/sites/maths/files/math0005.pdf" xlink:title="Year 1, term 1">
<polygon fill="white" stroke="#ffb90f" stroke-width="5" points="1740.62,-356.5 1643.62,-356.5 1643.62,-314 1740.62,-314 1740.62,-356.5"/>
<text text-anchor="middle" x="1692.12" y="-339.2" font-family="Times,serif" font-size="14.00">MATH0005</text>
<text text-anchor="middle" x="1692.12" y="-321.95" font-family="Times,serif" font-size="14.00">Algebra 1</text>
</a>
</g>
</g>
<!-- MATH0006 -->
<g id="node6" class="node">
<title>MATH0006</title>
<g id="a_node6"><a xlink:href="https://www.ucl.ac.uk/maths/sites/maths/files/math0006.pdf" xlink:title="Year 1, term 2">
<polygon fill="white" stroke="#cd950c" stroke-width="5" points="1740.62,-278 1643.62,-278 1643.62,-235.5 1740.62,-235.5 1740.62,-278"/>
<text text-anchor="middle" x="1692.12" y="-260.7" font-family="Times,serif" font-size="14.00">MATH0006</text>
<text text-anchor="middle" x="1692.12" y="-243.45" font-family="Times,serif" font-size="14.00">Algebra 2</text>
</a>
</g>
</g>
<!-- MATH0005&#45;&gt;MATH0006 -->
<g id="edge3" class="edge">
<title>MATH0005&#45;&gt;MATH0006</title>
<path fill="none" stroke="black" d="M1692.12,-311.71C1692.12,-305.39 1692.12,-298.37 1692.12,-291.54"/>
<polygon fill="black" stroke="black" points="1695.63,-291.91 1692.13,-281.91 1688.63,-291.91 1695.63,-291.91"/>
</g>
<!-- MATH0016 -->
<g id="node7" class="node">
<title>MATH0016</title>
<g id="a_node7"><a xlink:href="https://www.ucl.ac.uk/maths/sites/maths/files/math0016.pdf" xlink:title="Year 2, term 1">
<polygon fill="white" stroke="#00ff00" stroke-width="5" points="539.38,-199.5 344.88,-199.5 344.88,-157 539.38,-157 539.38,-199.5"/>
<text text-anchor="middle" x="442.12" y="-182.2" font-family="Times,serif" font-size="14.00">MATH0016</text>
<text text-anchor="middle" x="442.12" y="-164.95" font-family="Times,serif" font-size="14.00">Mathematical Methods 3</text>
</a>
</g>
</g>
<!-- MATH0011&#45;&gt;MATH0016 -->
<g id="edge4" class="edge">
<title>MATH0011&#45;&gt;MATH0016</title>
<path fill="none" stroke="black" d="M1071.41,-249.72C950.68,-241.74 741.01,-225.74 552.96,-199.98"/>
<polygon fill="black" stroke="black" points="553.63,-196.54 543.24,-198.64 552.67,-203.48 553.63,-196.54"/>
</g>
<!-- MATH0057 -->
<g id="node11" class="node">
<title>MATH0057</title>
<g id="a_node11"><a xlink:href="https://www.ucl.ac.uk/maths/sites/maths/files/math0057.pdf" xlink:title="Year 2 or 3, term 2">
<polygon fill="white" stroke="#8ee5ee" stroke-width="5" points="1500.88,-199.5 1303.38,-199.5 1303.38,-157 1500.88,-157 1500.88,-199.5"/>
<text text-anchor="middle" x="1402.12" y="-182.2" font-family="Times,serif" font-size="14.00">MATH0057</text>
<text text-anchor="middle" x="1402.12" y="-164.95" font-family="Times,serif" font-size="14.00">Probability and Statistics</text>
</a>
</g>
</g>
<!-- MATH0011&#45;&gt;MATH0057 -->
<g id="edge9" class="edge">
<title>MATH0011&#45;&gt;MATH0057</title>
<path fill="none" stroke="black" d="M1239.81,-233C1265.99,-224.33 1296.03,-214.38 1323.1,-205.42"/>
<polygon fill="black" stroke="black" points="1323.88,-208.85 1332.27,-202.38 1321.68,-202.2 1323.88,-208.85"/>
</g>
<!-- MATH0020 -->
<g id="node16" class="node">
<title>MATH0020</title>
<g id="a_node16"><a xlink:href="https://www.ucl.ac.uk/maths/sites/maths/files/math0020.pdf" xlink:title="Year 3, term 2">
<polygon fill="white" stroke="#cd3333" stroke-width="5" points="1257.5,-121 1084.75,-121 1084.75,-78.5 1257.5,-78.5 1257.5,-121"/>
<text text-anchor="middle" x="1171.12" y="-103.7" font-family="Times,serif" font-size="14.00">MATH0020</text>
<text text-anchor="middle" x="1171.12" y="-86.45" font-family="Times,serif" font-size="14.00">Differential Geometry</text>
</a>
</g>
</g>
<!-- MATH0011&#45;&gt;MATH0020 -->
<g id="edge14" class="edge">
<title>MATH0011&#45;&gt;MATH0020</title>
<path fill="none" stroke="black" d="M1171.12,-233.21C1171.12,-207.27 1171.12,-164.4 1171.12,-134.48"/>
<polygon fill="black" stroke="black" points="1174.63,-134.83 1171.13,-124.83 1167.63,-134.83 1174.63,-134.83"/>
</g>
<!-- MATH0004&#45;&gt;MATH0013 -->
<g id="edge6" class="edge">
<title>MATH0004&#45;&gt;MATH0013</title>
<path fill="none" stroke="black" stroke-dasharray="5,2" d="M267.44,-233.21C259.99,-225.81 251.58,-217.45 243.64,-209.57"/>
<polygon fill="black" stroke="black" points="246.55,-207.52 236.99,-202.96 241.62,-212.49 246.55,-207.52"/>
</g>
<!-- MATH0051 -->
<g id="node10" class="node">
<title>MATH0051</title>
<g id="a_node10"><a xlink:href="https://www.ucl.ac.uk/maths/sites/maths/files/math0051.pdf" xlink:title="Year 2 or 3, term 2">
<polygon fill="white" stroke="#8ee5ee" stroke-width="5" points="654.62,-199.5 557.62,-199.5 557.62,-157 654.62,-157 654.62,-199.5"/>
<text text-anchor="middle" x="606.12" y="-182.2" font-family="Times,serif" font-size="14.00">MATH0051</text>
<text text-anchor="middle" x="606.12" y="-164.95" font-family="Times,serif" font-size="14.00">Analysis 4</text>
</a>
</g>
</g>
<!-- MATH0004&#45;&gt;MATH0051 -->
<g id="edge8" class="edge">
<title>MATH0004&#45;&gt;MATH0051</title>
<path fill="none" stroke="black" d="M341,-246.55C390.91,-237.1 469.31,-221.15 544.28,-200.47"/>
<polygon fill="black" stroke="black" points="545.17,-203.85 553.85,-197.79 543.28,-197.11 545.17,-203.85"/>
</g>
<!-- MATH0014 -->
<g id="node9" class="node">
<title>MATH0014</title>
<g id="a_node9"><a xlink:href="https://www.ucl.ac.uk/maths/sites/maths/files/math0014.pdf" xlink:title="Year 2, term 1">
<polygon fill="white" stroke="#00ff00" stroke-width="5" points="1822,-199.5 1562.25,-199.5 1562.25,-157 1822,-157 1822,-199.5"/>
<text text-anchor="middle" x="1692.12" y="-182.2" font-family="Times,serif" font-size="14.00">MATH0014</text>
<text text-anchor="middle" x="1692.12" y="-164.95" font-family="Times,serif" font-size="14.00">Algebra 3: Further Linear Algebra</text>
</a>
</g>
</g>
<!-- MATH0006&#45;&gt;MATH0014 -->
<g id="edge7" class="edge">
<title>MATH0006&#45;&gt;MATH0014</title>
<path fill="none" stroke="black" d="M1692.12,-233.21C1692.12,-226.89 1692.12,-219.87 1692.12,-213.04"/>
<polygon fill="black" stroke="black" points="1695.63,-213.41 1692.13,-203.41 1688.63,-213.41 1695.63,-213.41"/>
</g>
<!-- MATH0070 -->
<g id="node19" class="node">
<title>MATH0070</title>
<g id="a_node19"><a xlink:href="https://www.ucl.ac.uk/maths/sites/maths/files/math0070.pdf" xlink:title="Year 3 or 4, term 1">
<polygon fill="white" stroke="#ff1493" stroke-width="5" points="276.25,-121 0,-121 0,-78.5 276.25,-78.5 276.25,-121"/>
<text text-anchor="middle" x="138.12" y="-103.7" font-family="Times,serif" font-size="14.00">MATH0070</text>
<text text-anchor="middle" x="138.12" y="-86.45" font-family="Times,serif" font-size="14.00">Linear Partial Differential Equations</text>
</a>
</g>
</g>
<!-- MATH0016&#45;&gt;MATH0070 -->
<g id="edge19" class="edge">
<title>MATH0016&#45;&gt;MATH0070</title>
<path fill="none" stroke="black" d="M351.74,-154.5C316.45,-145.62 275.82,-135.4 239.54,-126.27"/>
<polygon fill="black" stroke="black" points="240.45,-122.89 229.89,-123.84 238.74,-129.68 240.45,-122.89"/>
</g>
<!-- MATH0074 -->
<g id="node18" class="node">
<title>MATH0074</title>
<g id="a_node18"><a xlink:href="https://www.ucl.ac.uk/maths/sites/maths/files/math0074.pdf" xlink:title="Year 3 or 4, term 1">
<polygon fill="white" stroke="#ff1493" stroke-width="5" points="461.88,-121 294.38,-121 294.38,-78.5 461.88,-78.5 461.88,-121"/>
<text text-anchor="middle" x="378.12" y="-103.7" font-family="Times,serif" font-size="14.00">MATH0074</text>
<text text-anchor="middle" x="378.12" y="-86.45" font-family="Times,serif" font-size="14.00">Topology and Groups</text>
</a>
</g>
</g>
<!-- MATH0013&#45;&gt;MATH0074 -->
<g id="edge16" class="edge">
<title>MATH0013&#45;&gt;MATH0074</title>
<path fill="none" stroke="black" d="M262.18,-154.5C279.97,-146.26 300.26,-136.85 318.84,-128.24"/>
<polygon fill="black" stroke="black" points="320.28,-131.43 327.88,-124.04 317.34,-125.08 320.28,-131.43"/>
</g>
<!-- MATH0013&#45;&gt;MATH0070 -->
<g id="edge18" class="edge">
<title>MATH0013&#45;&gt;MATH0070</title>
<path fill="none" stroke="black" d="M191.03,-154.71C183.92,-147.46 175.92,-139.3 168.33,-131.56"/>
<polygon fill="black" stroke="black" points="170.88,-129.16 161.38,-124.47 165.88,-134.06 170.88,-129.16"/>
</g>
<!-- MATH0028 -->
<g id="node17" class="node">
<title>MATH0028</title>
<g id="a_node17"><a xlink:href="https://www.ucl.ac.uk/maths/sites/maths/files/math0028.pdf" xlink:title="Year 3, term 2">
<polygon fill="white" stroke="#cd3333" stroke-width="5" points="1799.12,-121 1585.12,-121 1585.12,-78.5 1799.12,-78.5 1799.12,-121"/>
<text text-anchor="middle" x="1692.12" y="-103.7" font-family="Times,serif" font-size="14.00">MATH0028</text>
<text text-anchor="middle" x="1692.12" y="-86.45" font-family="Times,serif" font-size="14.00">Combinatorial Optimisation</text>
</a>
</g>
</g>
<!-- MATH0014&#45;&gt;MATH0028 -->
<g id="edge15" class="edge">
<title>MATH0014&#45;&gt;MATH0028</title>
<path fill="none" stroke="black" d="M1692.12,-154.71C1692.12,-148.39 1692.12,-141.37 1692.12,-134.54"/>
<polygon fill="black" stroke="black" points="1695.63,-134.91 1692.13,-124.91 1688.63,-134.91 1695.63,-134.91"/>
</g>
<!-- MATH0019 -->
<g id="node12" class="node">
<title>MATH0019</title>
<g id="a_node12"><a xlink:href="https://www.ucl.ac.uk/maths/sites/maths/files/math0019.pdf" xlink:title="Year 3, term 1">
<polygon fill="white" stroke="#ff4040" stroke-width="5" points="694,-121 518.25,-121 518.25,-78.5 694,-78.5 694,-121"/>
<text text-anchor="middle" x="606.12" y="-103.7" font-family="Times,serif" font-size="14.00">MATH0019</text>
<text text-anchor="middle" x="606.12" y="-86.45" font-family="Times,serif" font-size="14.00">Multivariable Analysis</text>
</a>
</g>
</g>
<!-- MATH0051&#45;&gt;MATH0019 -->
<g id="edge10" class="edge">
<title>MATH0051&#45;&gt;MATH0019</title>
<path fill="none" stroke="black" d="M606.12,-154.71C606.12,-148.39 606.12,-141.37 606.12,-134.54"/>
<polygon fill="black" stroke="black" points="609.63,-134.91 606.13,-124.91 602.63,-134.91 609.63,-134.91"/>
</g>
<!-- MATH0017 -->
<g id="node14" class="node">
<title>MATH0017</title>
<g id="a_node14"><a xlink:href="https://www.ucl.ac.uk/maths/sites/maths/files/math0017.pdf" xlink:title="Year 3, term 1">
<polygon fill="white" stroke="#ff4040" stroke-width="5" points="1018.25,-121 886,-121 886,-78.5 1018.25,-78.5 1018.25,-121"/>
<text text-anchor="middle" x="952.12" y="-103.7" font-family="Times,serif" font-size="14.00">MATH0017</text>
<text text-anchor="middle" x="952.12" y="-86.45" font-family="Times,serif" font-size="14.00">Measure Theory</text>
</a>
</g>
</g>
<!-- MATH0051&#45;&gt;MATH0017 -->
<g id="edge12" class="edge">
<title>MATH0051&#45;&gt;MATH0017</title>
<path fill="none" stroke="black" d="M657.02,-167.62C709.18,-157.54 792.88,-140.79 872.32,-122.1"/>
<polygon fill="black" stroke="black" points="873.11,-125.51 882.03,-119.8 871.49,-118.7 873.11,-125.51"/>
</g>
<!-- MATH0018 -->
<g id="node15" class="node">
<title>MATH0018</title>
<g id="a_node15"><a xlink:href="https://www.ucl.ac.uk/maths/sites/maths/files/math0018.pdf" xlink:title="Year 3, term 2">
<polygon fill="white" stroke="#cd3333" stroke-width="5" points="867.88,-121 712.38,-121 712.38,-78.5 867.88,-78.5 867.88,-121"/>
<text text-anchor="middle" x="790.12" y="-103.7" font-family="Times,serif" font-size="14.00">MATH0018</text>
<text text-anchor="middle" x="790.12" y="-86.45" font-family="Times,serif" font-size="14.00">Functional Analysis</text>
</a>
</g>
</g>
<!-- MATH0051&#45;&gt;MATH0018 -->
<g id="edge13" class="edge">
<title>MATH0051&#45;&gt;MATH0018</title>
<path fill="none" stroke="black" d="M656.89,-156.14C678.01,-147.36 702.79,-137.06 725.21,-127.74"/>
<polygon fill="black" stroke="black" points="726.37,-131.05 734.26,-123.98 723.68,-124.58 726.37,-131.05"/>
</g>
<!-- MATH0051&#45;&gt;MATH0074 -->
<g id="edge17" class="edge">
<title>MATH0051&#45;&gt;MATH0074</title>
<path fill="none" stroke="black" d="M555.22,-159.42C552.82,-158.6 550.45,-157.79 548.12,-157 518.89,-147.06 486.76,-136.37 458.37,-127"/>
<polygon fill="black" stroke="black" points="459.72,-123.76 449.13,-123.96 457.53,-130.41 459.72,-123.76"/>
</g>
<!-- MATH0051&#45;&gt;MATH0070 -->
<g id="edge20" class="edge">
<title>MATH0051&#45;&gt;MATH0070</title>
<path fill="none" stroke="black" d="M555.37,-158.89C552.93,-158.21 550.51,-157.57 548.12,-157 437,-130.28 404.05,-136.61 289.87,-121.62"/>
<polygon fill="black" stroke="black" points="290.44,-118.16 280.07,-120.3 289.51,-125.1 290.44,-118.16"/>
</g>
<!-- MATH0092 -->
<g id="node20" class="node">
<title>MATH0092</title>
<g id="a_node20"><a xlink:href="https://www.ucl.ac.uk/maths/sites/maths/files/math0092.pdf" xlink:title="Year 3 or 4, term 2">
<polygon fill="white" stroke="#cd1076" stroke-width="5" points="1375.75,-42.5 976.5,-42.5 976.5,0 1375.75,0 1375.75,-42.5"/>
<text text-anchor="middle" x="1176.12" y="-25.2" font-family="Times,serif" font-size="14.00">MATH0092</text>
<text text-anchor="middle" x="1176.12" y="-7.95" font-family="Times,serif" font-size="14.00">Variational Methods for Partial Differential Equations</text>
</a>
</g>
</g>
<!-- MATH0051&#45;&gt;MATH0092 -->
<g id="edge21" class="edge">
<title>MATH0051&#45;&gt;MATH0092</title>
<path fill="none" stroke="black" d="M656.77,-174.12C753.77,-167.55 961.92,-150.4 1027.12,-121 1053.4,-109.15 1052.55,-95.1 1076.12,-78.5 1090.42,-68.43 1106.67,-58.66 1121.85,-50.16"/>
<polygon fill="black" stroke="black" points="1123.25,-53.39 1130.32,-45.49 1119.87,-47.25 1123.25,-53.39"/>
</g>
<!-- MATH0090 -->
<g id="node22" class="node">
<title>MATH0090</title>
<g id="a_node22"><a xlink:href="https://www.ucl.ac.uk/maths/sites/maths/files/math0090.pdf" xlink:title="Year 3 or 4, term 2">
<polygon fill="white" stroke="#cd1076" stroke-width="5" points="659.88,-42.5 378.38,-42.5 378.38,0 659.88,0 659.88,-42.5"/>
<text text-anchor="middle" x="519.12" y="-25.2" font-family="Times,serif" font-size="14.00">MATH0090</text>
<text text-anchor="middle" x="519.12" y="-7.95" font-family="Times,serif" font-size="14.00">Elliptic Partial Differential Equations</text>
</a>
</g>
</g>
<!-- MATH0051&#45;&gt;MATH0090 -->
<g id="edge24" class="edge">
<title>MATH0051&#45;&gt;MATH0090</title>
<path fill="none" stroke="black" d="M555.34,-160.11C537.48,-151.36 519.33,-138.71 509.12,-121 497.78,-101.31 500.78,-75.71 506.35,-55.51"/>
<polygon fill="black" stroke="black" points="509.66,-56.65 509.29,-46.06 502.97,-54.57 509.66,-56.65"/>
</g>
<!-- MATH0029 -->
<g id="node13" class="node">
<title>MATH0029</title>
<g id="a_node13"><a xlink:href="https://www.ucl.ac.uk/maths/sites/maths/files/math0029.pdf" xlink:title="Year 3, term 1">
<polygon fill="white" stroke="#ff4040" stroke-width="5" points="1528.62,-121 1275.62,-121 1275.62,-78.5 1528.62,-78.5 1528.62,-121"/>
<text text-anchor="middle" x="1402.12" y="-103.7" font-family="Times,serif" font-size="14.00">MATH0029</text>
<text text-anchor="middle" x="1402.12" y="-86.45" font-family="Times,serif" font-size="14.00">Graph Theory and Combinatorics</text>
</a>
</g>
</g>
<!-- MATH0057&#45;&gt;MATH0029 -->
<g id="edge11" class="edge">
<title>MATH0057&#45;&gt;MATH0029</title>
<path fill="none" stroke="black" stroke-dasharray="5,2" d="M1402.12,-154.71C1402.12,-148.39 1402.12,-141.37 1402.12,-134.54"/>
<polygon fill="black" stroke="black" points="1405.63,-134.91 1402.13,-124.91 1398.63,-134.91 1405.63,-134.91"/>
</g>
<!-- MATH0107 -->
<g id="node23" class="node">
<title>MATH0107</title>
<g id="a_node23"><a xlink:href="https://www.ucl.ac.uk/maths/sites/maths/files/math0107_1.pdf" xlink:title="Year 3 or 4, term 2">
<polygon fill="white" stroke="#cd1076" stroke-width="5" points="1702.75,-42.5 1411.5,-42.5 1411.5,0 1702.75,0 1702.75,-42.5"/>
<text text-anchor="middle" x="1557.12" y="-25.2" font-family="Times,serif" font-size="14.00">MATH0107</text>
<text text-anchor="middle" x="1557.12" y="-7.95" font-family="Times,serif" font-size="14.00">Probabilistic Method in Combinatorics</text>
</a>
</g>
</g>
<!-- MATH0057&#45;&gt;MATH0107 -->
<g id="edge29" class="edge">
<title>MATH0057&#45;&gt;MATH0107</title>
<path fill="none" stroke="black" stroke-dasharray="5,2" d="M1492.48,-154.6C1509.77,-146.53 1526.17,-135.65 1538.12,-121 1552.86,-102.94 1557.4,-76.85 1558.36,-56.02"/>
<polygon fill="black" stroke="black" points="1561.85,-56.35 1558.54,-46.29 1554.85,-56.22 1561.85,-56.35"/>
</g>
<!-- MATH0019&#45;&gt;MATH0090 -->
<g id="edge26" class="edge">
<title>MATH0019&#45;&gt;MATH0090</title>
<path fill="none" stroke="black" d="M580.49,-76.21C571.98,-68.73 562.37,-60.28 553.32,-52.32"/>
<polygon fill="black" stroke="black" points="555.83,-49.87 546.01,-45.89 551.21,-55.12 555.83,-49.87"/>
</g>
<!-- MATH0071 -->
<g id="node24" class="node">
<title>MATH0071</title>
<g id="a_node24"><a xlink:href="https://www.ucl.ac.uk/maths/sites/maths/files/math0071.pdf" xlink:title="Year 4, term 1">
<polygon fill="white" stroke="#1c86ee" stroke-width="5" points="843.12,-42.5 713.12,-42.5 713.12,0 843.12,0 843.12,-42.5"/>
<text text-anchor="middle" x="778.12" y="-25.2" font-family="Times,serif" font-size="14.00">MATH0071</text>
<text text-anchor="middle" x="778.12" y="-7.95" font-family="Times,serif" font-size="14.00">Spectral Theory</text>
</a>
</g>
</g>
<!-- MATH0019&#45;&gt;MATH0071 -->
<g id="edge31" class="edge">
<title>MATH0019&#45;&gt;MATH0071</title>
<path fill="none" stroke="black" d="M657.26,-76C675.98,-67.68 697.35,-58.17 716.87,-49.5"/>
<polygon fill="black" stroke="black" points="718.08,-52.78 725.8,-45.52 715.24,-46.39 718.08,-52.78"/>
</g>
<!-- MATH0029&#45;&gt;MATH0107 -->
<g id="edge27" class="edge">
<title>MATH0029&#45;&gt;MATH0107</title>
<path fill="none" stroke="black" stroke-dasharray="5,2" d="M1448.21,-76C1464.85,-67.79 1483.81,-58.44 1501.19,-49.86"/>
<polygon fill="black" stroke="black" points="1502.44,-53.14 1509.86,-45.58 1499.34,-46.86 1502.44,-53.14"/>
</g>
<!-- MATH0069 -->
<g id="node21" class="node">
<title>MATH0069</title>
<g id="a_node21"><a xlink:href="https://www.ucl.ac.uk/maths/sites/maths/files/math0069.pdf" xlink:title="Year 3 or 4, term 2">
<polygon fill="white" stroke="#cd1076" stroke-width="5" points="958.62,-42.5 861.62,-42.5 861.62,0 958.62,0 958.62,-42.5"/>
<text text-anchor="middle" x="910.12" y="-25.2" font-family="Times,serif" font-size="14.00">MATH0069</text>
<text text-anchor="middle" x="910.12" y="-7.95" font-family="Times,serif" font-size="14.00">Probability</text>
</a>
</g>
</g>
<!-- MATH0017&#45;&gt;MATH0069 -->
<g id="edge22" class="edge">
<title>MATH0017&#45;&gt;MATH0069</title>
<path fill="none" stroke="black" d="M939.75,-76.21C936.02,-69.42 931.86,-61.84 927.86,-54.55"/>
<polygon fill="black" stroke="black" points="931.16,-53.3 923.28,-46.22 925.03,-56.67 931.16,-53.3"/>
</g>
<!-- MATH0017&#45;&gt;MATH0071 -->
<g id="edge32" class="edge">
<title>MATH0017&#45;&gt;MATH0071</title>
<path fill="none" stroke="black" stroke-dasharray="5,2" d="M900.39,-76C881.45,-67.68 859.84,-58.17 840.09,-49.5"/>
<polygon fill="black" stroke="black" points="841.61,-46.34 831.05,-45.52 838.79,-52.75 841.61,-46.34"/>
</g>
<!-- MATH0018&#45;&gt;MATH0090 -->
<g id="edge25" class="edge">
<title>MATH0018&#45;&gt;MATH0090</title>
<path fill="none" stroke="black" d="M709.92,-76.11C678.65,-67.28 642.63,-57.11 610.38,-48.01"/>
<polygon fill="black" stroke="black" points="611.63,-44.73 601.05,-45.38 609.73,-51.46 611.63,-44.73"/>
</g>
<!-- MATH0018&#45;&gt;MATH0071 -->
<g id="edge30" class="edge">
<title>MATH0018&#45;&gt;MATH0071</title>
<path fill="none" stroke="black" d="M786.59,-76.21C785.6,-69.89 784.5,-62.87 783.43,-56.04"/>
<polygon fill="black" stroke="black" points="786.92,-55.72 781.91,-46.39 780,-56.81 786.92,-55.72"/>
</g>
<!-- MATH0028&#45;&gt;MATH0107 -->
<g id="edge28" class="edge">
<title>MATH0028&#45;&gt;MATH0107</title>
<path fill="none" stroke="black" stroke-dasharray="5,2" d="M1651.99,-76C1637.7,-67.91 1621.46,-58.7 1606.49,-50.22"/>
<polygon fill="black" stroke="black" points="1608.62,-47.41 1598.19,-45.52 1605.17,-53.5 1608.62,-47.41"/>
</g>
<!-- MATH0070&#45;&gt;MATH0090 -->
<g id="edge23" class="edge">
<title>MATH0070&#45;&gt;MATH0090</title>
<path fill="none" stroke="black" stroke-dasharray="5,2" d="M251.41,-76C296.49,-66.95 348.53,-56.5 394.67,-47.24"/>
<polygon fill="black" stroke="black" points="395.35,-50.67 404.47,-45.27 393.97,-43.81 395.35,-50.67"/>
</g>
</g>
</svg>
