<?xml version="1.0" encoding="UTF-8" standalone="no"?>
<!DOCTYPE svg PUBLIC "-//W3C//DTD SVG 1.1//EN"
 "http://www.w3.org/Graphics/SVG/1.1/DTD/svg11.dtd">
<!-- Generated by graphviz version 12.2.1 (0)
 -->
<!-- Pages: 1 -->
<svg width="2168pt" height="365pt"
 viewBox="0.00 0.00 2167.50 364.50" xmlns="http://www.w3.org/2000/svg" xmlns:xlink="http://www.w3.org/1999/xlink">
<g id="graph0" class="graph" transform="scale(1 1) rotate(0) translate(4 360.5)">
<polygon fill="white" stroke="none" points="-4,4 -4,-360.5 2163.5,-360.5 2163.5,4 -4,4"/>
<!-- MATH0010 -->
<g id="node1" class="node">
<title>MATH0010</title>
<g id="a_node1"><a xlink:href="https://www.ucl.ac.uk/maths/sites/maths/files/math0010.pdf" xlink:title="Year 1, term 1">
<polygon fill="white" stroke="#ffb90f" stroke-width="5" points="754.12,-356.5 559.62,-356.5 559.62,-314 754.12,-314 754.12,-356.5"/>
<text text-anchor="middle" x="656.88" y="-339.2" font-family="Times,serif" font-size="14.00">MATH0010</text>
<text text-anchor="middle" x="656.88" y="-321.95" font-family="Times,serif" font-size="14.00">Mathematical Methods 1</text>
</a>
</g>
</g>
<!-- MATH0011 -->
<g id="node5" class="node">
<title>MATH0011</title>
<g id="a_node5"><a xlink:href="https://www.ucl.ac.uk/maths/sites/maths/files/math0011_2.pdf" xlink:title="Year 1, term 2">
<polygon fill="white" stroke="#cd950c" stroke-width="5" points="754.12,-278 559.62,-278 559.62,-235.5 754.12,-235.5 754.12,-278"/>
<text text-anchor="middle" x="656.88" y="-260.7" font-family="Times,serif" font-size="14.00">MATH0011</text>
<text text-anchor="middle" x="656.88" y="-243.45" font-family="Times,serif" font-size="14.00">Mathematical Methods 2</text>
</a>
</g>
</g>
<!-- MATH0010&#45;&gt;MATH0011 -->
<g id="edge2" class="edge">
<title>MATH0010&#45;&gt;MATH0011</title>
<path fill="none" stroke="black" d="M656.88,-311.71C656.88,-305.39 656.88,-298.37 656.88,-291.54"/>
<polygon fill="black" stroke="black" points="660.38,-291.91 656.88,-281.91 653.38,-291.91 660.38,-291.91"/>
</g>
<!-- MATH0005 -->
<g id="node2" class="node">
<title>MATH0005</title>
<g id="a_node2"><a xlink:href="https://www.ucl.ac.uk/maths/sites/maths/files/math0005.pdf" xlink:title="Year 1, term 1">
<polygon fill="white" stroke="#ffb90f" stroke-width="5" points="178.38,-356.5 81.38,-356.5 81.38,-314 178.38,-314 178.38,-356.5"/>
<text text-anchor="middle" x="129.88" y="-339.2" font-family="Times,serif" font-size="14.00">MATH0005</text>
<text text-anchor="middle" x="129.88" y="-321.95" font-family="Times,serif" font-size="14.00">Algebra 1</text>
</a>
</g>
</g>
<!-- MATH0006 -->
<g id="node4" class="node">
<title>MATH0006</title>
<g id="a_node4"><a xlink:href="https://www.ucl.ac.uk/maths/sites/maths/files/math0006.pdf" xlink:title="Year 1, term 2">
<polygon fill="white" stroke="#cd950c" stroke-width="5" points="178.38,-278 81.38,-278 81.38,-235.5 178.38,-235.5 178.38,-278"/>
<text text-anchor="middle" x="129.88" y="-260.7" font-family="Times,serif" font-size="14.00">MATH0006</text>
<text text-anchor="middle" x="129.88" y="-243.45" font-family="Times,serif" font-size="14.00">Algebra 2</text>
</a>
</g>
</g>
<!-- MATH0005&#45;&gt;MATH0006 -->
<g id="edge1" class="edge">
<title>MATH0005&#45;&gt;MATH0006</title>
<path fill="none" stroke="black" d="M129.88,-311.71C129.88,-305.39 129.88,-298.37 129.88,-291.54"/>
<polygon fill="black" stroke="black" points="133.38,-291.91 129.88,-281.91 126.38,-291.91 133.38,-291.91"/>
</g>
<!-- MATH0003 -->
<g id="node3" class="node">
<title>MATH0003</title>
<g id="a_node3"><a xlink:href="https://www.ucl.ac.uk/maths/sites/maths/files/math0003.pdf" xlink:title="Year 1, term 1">
<polygon fill="white" stroke="#ffb90f" stroke-width="5" points="1226.38,-356.5 1129.38,-356.5 1129.38,-314 1226.38,-314 1226.38,-356.5"/>
<text text-anchor="middle" x="1177.88" y="-339.2" font-family="Times,serif" font-size="14.00">MATH0003</text>
<text text-anchor="middle" x="1177.88" y="-321.95" font-family="Times,serif" font-size="14.00">Analysis 1</text>
</a>
</g>
</g>
<!-- MATH0004 -->
<g id="node6" class="node">
<title>MATH0004</title>
<g id="a_node6"><a xlink:href="https://www.ucl.ac.uk/maths/sites/maths/files/math0004.pdf" xlink:title="Year 1, term 2">
<polygon fill="white" stroke="#cd950c" stroke-width="5" points="1265.38,-278 1168.38,-278 1168.38,-235.5 1265.38,-235.5 1265.38,-278"/>
<text text-anchor="middle" x="1216.88" y="-260.7" font-family="Times,serif" font-size="14.00">MATH0004</text>
<text text-anchor="middle" x="1216.88" y="-243.45" font-family="Times,serif" font-size="14.00">Analysis 2</text>
</a>
</g>
</g>
<!-- MATH0003&#45;&gt;MATH0004 -->
<g id="edge3" class="edge">
<title>MATH0003&#45;&gt;MATH0004</title>
<path fill="none" stroke="black" d="M1189.37,-311.71C1192.75,-305.08 1196.52,-297.68 1200.16,-290.54"/>
<polygon fill="black" stroke="black" points="1203.22,-292.24 1204.64,-281.74 1196.98,-289.06 1203.22,-292.24"/>
</g>
<!-- MATH0013 -->
<g id="node9" class="node">
<title>MATH0013</title>
<g id="a_node9"><a xlink:href="https://www.ucl.ac.uk/maths/sites/maths/files/math0013.pdf" xlink:title="Year 2, term 1">
<polygon fill="white" stroke="#00ff00" stroke-width="5" points="1254,-199.5 1025.75,-199.5 1025.75,-157 1254,-157 1254,-199.5"/>
<text text-anchor="middle" x="1139.88" y="-182.2" font-family="Times,serif" font-size="14.00">MATH0013</text>
<text text-anchor="middle" x="1139.88" y="-164.95" font-family="Times,serif" font-size="14.00">Analysis 3 &#45; Complex Analysis</text>
</a>
</g>
</g>
<!-- MATH0003&#45;&gt;MATH0013 -->
<g id="edge6" class="edge">
<title>MATH0003&#45;&gt;MATH0013</title>
<path fill="none" stroke="black" d="M1170.03,-311.7C1166.64,-301.49 1162.79,-289.21 1159.88,-278 1154.29,-256.55 1149.33,-232.15 1145.75,-212.96"/>
<polygon fill="black" stroke="black" points="1149.22,-212.46 1143.98,-203.25 1142.33,-213.72 1149.22,-212.46"/>
</g>
<!-- MATH0014 -->
<g id="node7" class="node">
<title>MATH0014</title>
<g id="a_node7"><a xlink:href="https://www.ucl.ac.uk/maths/sites/maths/files/math0014.pdf" xlink:title="Year 2, term 1">
<polygon fill="white" stroke="#00ff00" stroke-width="5" points="259.75,-199.5 0,-199.5 0,-157 259.75,-157 259.75,-199.5"/>
<text text-anchor="middle" x="129.88" y="-182.2" font-family="Times,serif" font-size="14.00">MATH0014</text>
<text text-anchor="middle" x="129.88" y="-164.95" font-family="Times,serif" font-size="14.00">Algebra 3: Further Linear Algebra</text>
</a>
</g>
</g>
<!-- MATH0006&#45;&gt;MATH0014 -->
<g id="edge4" class="edge">
<title>MATH0006&#45;&gt;MATH0014</title>
<path fill="none" stroke="black" d="M129.88,-233.21C129.88,-226.89 129.88,-219.87 129.88,-213.04"/>
<polygon fill="black" stroke="black" points="133.38,-213.41 129.88,-203.41 126.38,-213.41 133.38,-213.41"/>
</g>
<!-- MATH0016 -->
<g id="node8" class="node">
<title>MATH0016</title>
<g id="a_node8"><a xlink:href="https://www.ucl.ac.uk/maths/sites/maths/files/math0016.pdf" xlink:title="Year 2, term 1">
<polygon fill="white" stroke="#00ff00" stroke-width="5" points="938.12,-199.5 743.62,-199.5 743.62,-157 938.12,-157 938.12,-199.5"/>
<text text-anchor="middle" x="840.88" y="-182.2" font-family="Times,serif" font-size="14.00">MATH0016</text>
<text text-anchor="middle" x="840.88" y="-164.95" font-family="Times,serif" font-size="14.00">Mathematical Methods 3</text>
</a>
</g>
</g>
<!-- MATH0011&#45;&gt;MATH0016 -->
<g id="edge5" class="edge">
<title>MATH0011&#45;&gt;MATH0016</title>
<path fill="none" stroke="black" d="M711.58,-233C731.79,-224.6 754.89,-215 775.92,-206.26"/>
<polygon fill="black" stroke="black" points="777.09,-209.56 784.98,-202.49 774.4,-203.1 777.09,-209.56"/>
</g>
<!-- MATH0057 -->
<g id="node11" class="node">
<title>MATH0057</title>
<g id="a_node11"><a xlink:href="https://www.ucl.ac.uk/maths/sites/maths/files/math0057.pdf" xlink:title="Year 2 or 3, term 2">
<polygon fill="white" stroke="#8ee5ee" stroke-width="5" points="628.62,-199.5 431.12,-199.5 431.12,-157 628.62,-157 628.62,-199.5"/>
<text text-anchor="middle" x="529.88" y="-182.2" font-family="Times,serif" font-size="14.00">MATH0057</text>
<text text-anchor="middle" x="529.88" y="-164.95" font-family="Times,serif" font-size="14.00">Probability and Statistics</text>
</a>
</g>
</g>
<!-- MATH0011&#45;&gt;MATH0057 -->
<g id="edge9" class="edge">
<title>MATH0011&#45;&gt;MATH0057</title>
<path fill="none" stroke="black" d="M619.11,-233C605.94,-225.07 590.98,-216.05 577.12,-207.71"/>
<polygon fill="black" stroke="black" points="578.94,-204.72 568.57,-202.56 575.33,-210.71 578.94,-204.72"/>
</g>
<!-- MATH0020 -->
<g id="node15" class="node">
<title>MATH0020</title>
<g id="a_node15"><a xlink:href="https://www.ucl.ac.uk/maths/sites/maths/files/math0020.pdf" xlink:title="Year 3, term 2">
<polygon fill="white" stroke="#cd3333" stroke-width="5" points="743.25,-121 570.5,-121 570.5,-78.5 743.25,-78.5 743.25,-121"/>
<text text-anchor="middle" x="656.88" y="-103.7" font-family="Times,serif" font-size="14.00">MATH0020</text>
<text text-anchor="middle" x="656.88" y="-86.45" font-family="Times,serif" font-size="14.00">Differential Geometry</text>
</a>
</g>
</g>
<!-- MATH0011&#45;&gt;MATH0020 -->
<g id="edge13" class="edge">
<title>MATH0011&#45;&gt;MATH0020</title>
<path fill="none" stroke="black" d="M656.88,-233.21C656.88,-207.27 656.88,-164.4 656.88,-134.48"/>
<polygon fill="black" stroke="black" points="660.38,-134.83 656.88,-124.83 653.38,-134.83 660.38,-134.83"/>
</g>
<!-- MATH0004&#45;&gt;MATH0013 -->
<g id="edge7" class="edge">
<title>MATH0004&#45;&gt;MATH0013</title>
<path fill="none" stroke="black" stroke-dasharray="5,2" d="M1194.19,-233.21C1186.74,-225.81 1178.33,-217.45 1170.39,-209.57"/>
<polygon fill="black" stroke="black" points="1173.3,-207.52 1163.74,-202.96 1168.37,-212.49 1173.3,-207.52"/>
</g>
<!-- MATH0051 -->
<g id="node10" class="node">
<title>MATH0051</title>
<g id="a_node10"><a xlink:href="https://www.ucl.ac.uk/maths/sites/maths/files/math0051.pdf" xlink:title="Year 2 or 3, term 2">
<polygon fill="white" stroke="#8ee5ee" stroke-width="5" points="1387.38,-199.5 1290.38,-199.5 1290.38,-157 1387.38,-157 1387.38,-199.5"/>
<text text-anchor="middle" x="1338.88" y="-182.2" font-family="Times,serif" font-size="14.00">MATH0051</text>
<text text-anchor="middle" x="1338.88" y="-164.95" font-family="Times,serif" font-size="14.00">Analysis 4</text>
</a>
</g>
</g>
<!-- MATH0004&#45;&gt;MATH0051 -->
<g id="edge8" class="edge">
<title>MATH0004&#45;&gt;MATH0051</title>
<path fill="none" stroke="black" d="M1253.15,-233C1265.81,-225.07 1280.18,-216.05 1293.49,-207.71"/>
<polygon fill="black" stroke="black" points="1295.06,-210.86 1301.67,-202.58 1291.34,-204.93 1295.06,-210.86"/>
</g>
<!-- MATH0028 -->
<g id="node16" class="node">
<title>MATH0028</title>
<g id="a_node16"><a xlink:href="https://www.ucl.ac.uk/maths/sites/maths/files/math0028.pdf" xlink:title="Year 3, term 2">
<polygon fill="white" stroke="#cd3333" stroke-width="5" points="236.88,-121 22.87,-121 22.87,-78.5 236.88,-78.5 236.88,-121"/>
<text text-anchor="middle" x="129.88" y="-103.7" font-family="Times,serif" font-size="14.00">MATH0028</text>
<text text-anchor="middle" x="129.88" y="-86.45" font-family="Times,serif" font-size="14.00">Combinatorial Optimisation</text>
</a>
</g>
</g>
<!-- MATH0014&#45;&gt;MATH0028 -->
<g id="edge14" class="edge">
<title>MATH0014&#45;&gt;MATH0028</title>
<path fill="none" stroke="black" d="M129.88,-154.71C129.88,-148.39 129.88,-141.37 129.88,-134.54"/>
<polygon fill="black" stroke="black" points="133.38,-134.91 129.88,-124.91 126.38,-134.91 133.38,-134.91"/>
</g>
<!-- MATH0070 -->
<g id="node19" class="node">
<title>MATH0070</title>
<g id="a_node19"><a xlink:href="https://www.ucl.ac.uk/maths/sites/maths/files/math0070.pdf" xlink:title="Year 3 or 4, term 1">
<polygon fill="white" stroke="#ff1493" stroke-width="5" points="1038,-121 761.75,-121 761.75,-78.5 1038,-78.5 1038,-121"/>
<text text-anchor="middle" x="899.88" y="-103.7" font-family="Times,serif" font-size="14.00">MATH0070</text>
<text text-anchor="middle" x="899.88" y="-86.45" font-family="Times,serif" font-size="14.00">Linear Partial Differential Equations</text>
</a>
</g>
</g>
<!-- MATH0016&#45;&gt;MATH0070 -->
<g id="edge19" class="edge">
<title>MATH0016&#45;&gt;MATH0070</title>
<path fill="none" stroke="black" d="M858.26,-154.71C863.73,-147.62 869.88,-139.65 875.73,-132.06"/>
<polygon fill="black" stroke="black" points="878.15,-134.65 881.49,-124.59 872.61,-130.37 878.15,-134.65"/>
</g>
<!-- MATH0074 -->
<g id="node18" class="node">
<title>MATH0074</title>
<g id="a_node18"><a xlink:href="https://www.ucl.ac.uk/maths/sites/maths/files/math0074.pdf" xlink:title="Year 3 or 4, term 1">
<polygon fill="white" stroke="#ff1493" stroke-width="5" points="1223.62,-121 1056.12,-121 1056.12,-78.5 1223.62,-78.5 1223.62,-121"/>
<text text-anchor="middle" x="1139.88" y="-103.7" font-family="Times,serif" font-size="14.00">MATH0074</text>
<text text-anchor="middle" x="1139.88" y="-86.45" font-family="Times,serif" font-size="14.00">Topology and Groups</text>
</a>
</g>
</g>
<!-- MATH0013&#45;&gt;MATH0074 -->
<g id="edge16" class="edge">
<title>MATH0013&#45;&gt;MATH0074</title>
<path fill="none" stroke="black" d="M1139.88,-154.71C1139.88,-148.39 1139.88,-141.37 1139.88,-134.54"/>
<polygon fill="black" stroke="black" points="1143.38,-134.91 1139.88,-124.91 1136.38,-134.91 1143.38,-134.91"/>
</g>
<!-- MATH0013&#45;&gt;MATH0070 -->
<g id="edge18" class="edge">
<title>MATH0013&#45;&gt;MATH0070</title>
<path fill="none" stroke="black" d="M1068.52,-154.5C1041.19,-145.8 1009.82,-135.8 981.6,-126.8"/>
<polygon fill="black" stroke="black" points="982.99,-123.57 972.4,-123.87 980.86,-130.24 982.99,-123.57"/>
</g>
<!-- MATH0019 -->
<g id="node13" class="node">
<title>MATH0019</title>
<g id="a_node13"><a xlink:href="https://www.ucl.ac.uk/maths/sites/maths/files/math0019.pdf" xlink:title="Year 3, term 1">
<polygon fill="white" stroke="#ff4040" stroke-width="5" points="1629.75,-121 1454,-121 1454,-78.5 1629.75,-78.5 1629.75,-121"/>
<text text-anchor="middle" x="1541.88" y="-103.7" font-family="Times,serif" font-size="14.00">MATH0019</text>
<text text-anchor="middle" x="1541.88" y="-86.45" font-family="Times,serif" font-size="14.00">Multivariable Analysis</text>
</a>
</g>
</g>
<!-- MATH0051&#45;&gt;MATH0019 -->
<g id="edge11" class="edge">
<title>MATH0051&#45;&gt;MATH0019</title>
<path fill="none" stroke="black" d="M1389.84,-158.04C1414.52,-148.75 1444.54,-137.43 1471.37,-127.32"/>
<polygon fill="black" stroke="black" points="1472.33,-130.7 1480.45,-123.9 1469.86,-124.15 1472.33,-130.7"/>
</g>
<!-- MATH0017 -->
<g id="node14" class="node">
<title>MATH0017</title>
<g id="a_node14"><a xlink:href="https://www.ucl.ac.uk/maths/sites/maths/files/math0017.pdf" xlink:title="Year 3, term 1">
<polygon fill="white" stroke="#ff4040" stroke-width="5" points="1780,-121 1647.75,-121 1647.75,-78.5 1780,-78.5 1780,-121"/>
<text text-anchor="middle" x="1713.88" y="-103.7" font-family="Times,serif" font-size="14.00">MATH0017</text>
<text text-anchor="middle" x="1713.88" y="-86.45" font-family="Times,serif" font-size="14.00">Measure Theory</text>
</a>
</g>
</g>
<!-- MATH0051&#45;&gt;MATH0017 -->
<g id="edge12" class="edge">
<title>MATH0051&#45;&gt;MATH0017</title>
<path fill="none" stroke="black" d="M1389.82,-168.95C1447.36,-159.3 1544.03,-142.25 1634.29,-121.99"/>
<polygon fill="black" stroke="black" points="1634.81,-125.46 1643.79,-119.84 1633.26,-118.64 1634.81,-125.46"/>
</g>
<!-- MATH0018 -->
<g id="node17" class="node">
<title>MATH0018</title>
<g id="a_node17"><a xlink:href="https://www.ucl.ac.uk/maths/sites/maths/files/math0018.pdf" xlink:title="Year 3, term 2">
<polygon fill="white" stroke="#cd3333" stroke-width="5" points="1435.62,-121 1280.12,-121 1280.12,-78.5 1435.62,-78.5 1435.62,-121"/>
<text text-anchor="middle" x="1357.88" y="-103.7" font-family="Times,serif" font-size="14.00">MATH0018</text>
<text text-anchor="middle" x="1357.88" y="-86.45" font-family="Times,serif" font-size="14.00">Functional Analysis</text>
</a>
</g>
</g>
<!-- MATH0051&#45;&gt;MATH0018 -->
<g id="edge15" class="edge">
<title>MATH0051&#45;&gt;MATH0018</title>
<path fill="none" stroke="black" d="M1344.47,-154.71C1346.04,-148.39 1347.79,-141.37 1349.48,-134.54"/>
<polygon fill="black" stroke="black" points="1352.87,-135.41 1351.89,-124.86 1346.08,-133.72 1352.87,-135.41"/>
</g>
<!-- MATH0051&#45;&gt;MATH0074 -->
<g id="edge17" class="edge">
<title>MATH0051&#45;&gt;MATH0074</title>
<path fill="none" stroke="black" d="M1287.89,-157.65C1264,-148.47 1235.18,-137.39 1209.33,-127.45"/>
<polygon fill="black" stroke="black" points="1210.85,-124.28 1200.26,-123.96 1208.33,-130.82 1210.85,-124.28"/>
</g>
<!-- MATH0051&#45;&gt;MATH0070 -->
<g id="edge20" class="edge">
<title>MATH0051&#45;&gt;MATH0070</title>
<path fill="none" stroke="black" d="M1287.95,-162.88C1279.61,-160.76 1271.03,-158.71 1262.88,-157 1222.94,-148.61 1132.21,-134.55 1051.45,-122.59"/>
<polygon fill="black" stroke="black" points="1052.03,-119.13 1041.63,-121.14 1051.01,-126.06 1052.03,-119.13"/>
</g>
<!-- MATH0092 -->
<g id="node22" class="node">
<title>MATH0092</title>
<g id="a_node22"><a xlink:href="https://www.ucl.ac.uk/maths/sites/maths/files/math0092.pdf" xlink:title="Year 3 or 4, term 2">
<polygon fill="white" stroke="#cd1076" stroke-width="5" points="2159.5,-42.5 1760.25,-42.5 1760.25,0 2159.5,0 2159.5,-42.5"/>
<text text-anchor="middle" x="1959.88" y="-25.2" font-family="Times,serif" font-size="14.00">MATH0092</text>
<text text-anchor="middle" x="1959.88" y="-7.95" font-family="Times,serif" font-size="14.00">Variational Methods for Partial Differential Equations</text>
</a>
</g>
</g>
<!-- MATH0051&#45;&gt;MATH0092 -->
<g id="edge25" class="edge">
<title>MATH0051&#45;&gt;MATH0092</title>
<path fill="none" stroke="black" d="M1389.59,-177.4C1474.47,-176.24 1649.68,-167.75 1788.88,-121 1837.09,-104.81 1886.85,-74.22 1920.17,-51.36"/>
<polygon fill="black" stroke="black" points="1922.09,-54.28 1928.3,-45.7 1918.09,-48.54 1922.09,-54.28"/>
</g>
<!-- MATH0090 -->
<g id="node23" class="node">
<title>MATH0090</title>
<g id="a_node23"><a xlink:href="https://www.ucl.ac.uk/maths/sites/maths/files/math0090.pdf" xlink:title="Year 3 or 4, term 2">
<polygon fill="white" stroke="#cd1076" stroke-width="5" points="1425.62,-42.5 1144.12,-42.5 1144.12,0 1425.62,0 1425.62,-42.5"/>
<text text-anchor="middle" x="1284.88" y="-25.2" font-family="Times,serif" font-size="14.00">MATH0090</text>
<text text-anchor="middle" x="1284.88" y="-7.95" font-family="Times,serif" font-size="14.00">Elliptic Partial Differential Equations</text>
</a>
</g>
</g>
<!-- MATH0051&#45;&gt;MATH0090 -->
<g id="edge27" class="edge">
<title>MATH0051&#45;&gt;MATH0090</title>
<path fill="none" stroke="black" d="M1300.09,-154.67C1288.5,-145.78 1277.2,-134.45 1270.88,-121 1261.28,-100.6 1265.06,-75.42 1271.1,-55.59"/>
<polygon fill="black" stroke="black" points="1274.34,-56.92 1274.23,-46.33 1267.71,-54.68 1274.34,-56.92"/>
</g>
<!-- MATH0029 -->
<g id="node12" class="node">
<title>MATH0029</title>
<g id="a_node12"><a xlink:href="https://www.ucl.ac.uk/maths/sites/maths/files/math0029.pdf" xlink:title="Year 3, term 1">
<polygon fill="white" stroke="#ff4040" stroke-width="5" points="508.38,-121 255.38,-121 255.38,-78.5 508.38,-78.5 508.38,-121"/>
<text text-anchor="middle" x="381.88" y="-103.7" font-family="Times,serif" font-size="14.00">MATH0029</text>
<text text-anchor="middle" x="381.88" y="-86.45" font-family="Times,serif" font-size="14.00">Graph Theory and Combinatorics</text>
</a>
</g>
</g>
<!-- MATH0057&#45;&gt;MATH0029 -->
<g id="edge10" class="edge">
<title>MATH0057&#45;&gt;MATH0029</title>
<path fill="none" stroke="black" stroke-dasharray="5,2" d="M485.87,-154.5C470.14,-146.37 452.22,-137.11 435.75,-128.6"/>
<polygon fill="black" stroke="black" points="437.54,-125.59 427.05,-124.1 434.33,-131.8 437.54,-125.59"/>
</g>
<!-- MATH0107 -->
<g id="node20" class="node">
<title>MATH0107</title>
<g id="a_node20"><a xlink:href="https://www.ucl.ac.uk/maths/sites/maths/files/math0107_1.pdf" xlink:title="Year 3 or 4, term 2">
<polygon fill="white" stroke="#cd1076" stroke-width="5" points="527.5,-42.5 236.25,-42.5 236.25,0 527.5,0 527.5,-42.5"/>
<text text-anchor="middle" x="381.88" y="-25.2" font-family="Times,serif" font-size="14.00">MATH0107</text>
<text text-anchor="middle" x="381.88" y="-7.95" font-family="Times,serif" font-size="14.00">Probabilistic Method in Combinatorics</text>
</a>
</g>
</g>
<!-- MATH0057&#45;&gt;MATH0107 -->
<g id="edge23" class="edge">
<title>MATH0057&#45;&gt;MATH0107</title>
<path fill="none" stroke="black" stroke-dasharray="5,2" d="M533.17,-154.88C535.09,-133.16 534.49,-100.36 517.88,-78.5 509.01,-66.83 497.28,-57.56 484.43,-50.21"/>
<polygon fill="black" stroke="black" points="486.23,-47.2 475.74,-45.66 482.97,-53.4 486.23,-47.2"/>
</g>
<!-- MATH0029&#45;&gt;MATH0107 -->
<g id="edge21" class="edge">
<title>MATH0029&#45;&gt;MATH0107</title>
<path fill="none" stroke="black" stroke-dasharray="5,2" d="M381.88,-76.21C381.88,-69.89 381.88,-62.87 381.88,-56.04"/>
<polygon fill="black" stroke="black" points="385.38,-56.41 381.88,-46.41 378.38,-56.41 385.38,-56.41"/>
</g>
<!-- MATH0019&#45;&gt;MATH0090 -->
<g id="edge29" class="edge">
<title>MATH0019&#45;&gt;MATH0090</title>
<path fill="none" stroke="black" d="M1465.46,-76C1436.08,-67.26 1402.31,-57.21 1371.99,-48.18"/>
<polygon fill="black" stroke="black" points="1373.03,-44.84 1362.44,-45.34 1371.03,-51.55 1373.03,-44.84"/>
</g>
<!-- MATH0071 -->
<g id="node24" class="node">
<title>MATH0071</title>
<g id="a_node24"><a xlink:href="https://www.ucl.ac.uk/maths/sites/maths/files/math0071.pdf" xlink:title="Year 4, term 1">
<polygon fill="white" stroke="#1c86ee" stroke-width="5" points="1606.88,-42.5 1476.88,-42.5 1476.88,0 1606.88,0 1606.88,-42.5"/>
<text text-anchor="middle" x="1541.88" y="-25.2" font-family="Times,serif" font-size="14.00">MATH0071</text>
<text text-anchor="middle" x="1541.88" y="-7.95" font-family="Times,serif" font-size="14.00">Spectral Theory</text>
</a>
</g>
</g>
<!-- MATH0019&#45;&gt;MATH0071 -->
<g id="edge31" class="edge">
<title>MATH0019&#45;&gt;MATH0071</title>
<path fill="none" stroke="black" d="M1541.88,-76.21C1541.88,-69.89 1541.88,-62.87 1541.88,-56.04"/>
<polygon fill="black" stroke="black" points="1545.38,-56.41 1541.88,-46.41 1538.38,-56.41 1545.38,-56.41"/>
</g>
<!-- MATH0069 -->
<g id="node21" class="node">
<title>MATH0069</title>
<g id="a_node21"><a xlink:href="https://www.ucl.ac.uk/maths/sites/maths/files/math0069.pdf" xlink:title="Year 3 or 4, term 2">
<polygon fill="white" stroke="#cd1076" stroke-width="5" points="1742.38,-42.5 1645.38,-42.5 1645.38,0 1742.38,0 1742.38,-42.5"/>
<text text-anchor="middle" x="1693.88" y="-25.2" font-family="Times,serif" font-size="14.00">MATH0069</text>
<text text-anchor="middle" x="1693.88" y="-7.95" font-family="Times,serif" font-size="14.00">Probability</text>
</a>
</g>
</g>
<!-- MATH0017&#45;&gt;MATH0069 -->
<g id="edge24" class="edge">
<title>MATH0017&#45;&gt;MATH0069</title>
<path fill="none" stroke="black" d="M1707.98,-76.21C1706.29,-69.73 1704.4,-62.53 1702.58,-55.54"/>
<polygon fill="black" stroke="black" points="1706.09,-55.15 1700.18,-46.36 1699.32,-56.92 1706.09,-55.15"/>
</g>
<!-- MATH0017&#45;&gt;MATH0071 -->
<g id="edge32" class="edge">
<title>MATH0017&#45;&gt;MATH0071</title>
<path fill="none" stroke="black" stroke-dasharray="5,2" d="M1662.74,-76C1644.02,-67.68 1622.65,-58.17 1603.13,-49.5"/>
<polygon fill="black" stroke="black" points="1604.76,-46.39 1594.2,-45.52 1601.92,-52.78 1604.76,-46.39"/>
</g>
<!-- MATH0028&#45;&gt;MATH0107 -->
<g id="edge22" class="edge">
<title>MATH0028&#45;&gt;MATH0107</title>
<path fill="none" stroke="black" stroke-dasharray="5,2" d="M204.8,-76C233.62,-67.26 266.72,-57.21 296.45,-48.18"/>
<polygon fill="black" stroke="black" points="297.24,-51.6 305.79,-45.35 295.2,-44.9 297.24,-51.6"/>
</g>
<!-- MATH0018&#45;&gt;MATH0090 -->
<g id="edge28" class="edge">
<title>MATH0018&#45;&gt;MATH0090</title>
<path fill="none" stroke="black" d="M1336.37,-76.21C1329.45,-68.96 1321.66,-60.8 1314.28,-53.06"/>
<polygon fill="black" stroke="black" points="1316.96,-50.81 1307.53,-45.99 1311.9,-55.64 1316.96,-50.81"/>
</g>
<!-- MATH0018&#45;&gt;MATH0071 -->
<g id="edge30" class="edge">
<title>MATH0018&#45;&gt;MATH0071</title>
<path fill="none" stroke="black" d="M1412.58,-76C1432.79,-67.6 1455.89,-58 1476.92,-49.26"/>
<polygon fill="black" stroke="black" points="1478.09,-52.56 1485.98,-45.49 1475.4,-46.1 1478.09,-52.56"/>
</g>
<!-- MATH0070&#45;&gt;MATH0090 -->
<g id="edge26" class="edge">
<title>MATH0070&#45;&gt;MATH0090</title>
<path fill="none" stroke="black" stroke-dasharray="5,2" d="M1014.35,-76C1060,-66.93 1112.71,-56.46 1159.41,-47.18"/>
<polygon fill="black" stroke="black" points="1159.9,-50.65 1169.03,-45.27 1158.54,-43.78 1159.9,-50.65"/>
</g>
</g>
</svg>
