<?xml version="1.0" encoding="UTF-8" standalone="no"?>
<!DOCTYPE svg PUBLIC "-//W3C//DTD SVG 1.1//EN"
 "http://www.w3.org/Graphics/SVG/1.1/DTD/svg11.dtd">
<!-- Generated by graphviz version 2.43.0 (0)
 -->
<!-- Title: %3 Pages: 1 -->
<svg width="1937pt" height="416pt"
 viewBox="0.00 0.00 1936.50 416.00" xmlns="http://www.w3.org/2000/svg" xmlns:xlink="http://www.w3.org/1999/xlink">
<g id="graph0" class="graph" transform="scale(1 1) rotate(0) translate(4 412)">
<title>%3</title>
<polygon fill="white" stroke="transparent" points="-4,4 -4,-412 1932.5,-412 1932.5,4 -4,4"/>
<!-- MATH0003 -->
<g id="node1" class="node">
<title>MATH0003</title>
<g id="a_node1"><a xlink:href="https://www.ucl.ac.uk/maths/sites/maths/files/math0003.pdf" xlink:title="Year 1, term 1">
<polygon fill="white" stroke="#ffb90f" stroke-width="5" points="694,-408 596,-408 596,-370 694,-370 694,-408"/>
<text text-anchor="middle" x="645" y="-392.8" font-family="Times,serif" font-size="14.00">MATH0003</text>
<text text-anchor="middle" x="645" y="-377.8" font-family="Times,serif" font-size="14.00">Analysis 1</text>
</a>
</g>
</g>
<!-- MATH0004 -->
<g id="node8" class="node">
<title>MATH0004</title>
<g id="a_node8"><a xlink:href="https://www.ucl.ac.uk/maths/sites/maths/files/math0004.pdf" xlink:title="Year 1, term 2">
<polygon fill="white" stroke="#cd950c" stroke-width="5" points="656,-334 558,-334 558,-296 656,-296 656,-334"/>
<text text-anchor="middle" x="607" y="-318.8" font-family="Times,serif" font-size="14.00">MATH0004</text>
<text text-anchor="middle" x="607" y="-303.8" font-family="Times,serif" font-size="14.00">Analysis 2</text>
</a>
</g>
</g>
<!-- MATH0003&#45;&gt;MATH0004 -->
<g id="edge5" class="edge">
<title>MATH0003&#45;&gt;MATH0004</title>
<g id="a_edge5"><a xlink:title="required prerequisite">
<path fill="none" stroke="black" d="M635.41,-369.83C631.17,-361.79 626.09,-352.17 621.4,-343.29"/>
<polygon fill="black" stroke="black" points="624.48,-341.62 616.72,-334.41 618.29,-344.89 624.48,-341.62"/>
</a>
</g>
</g>
<!-- MATH0013 -->
<g id="node11" class="node">
<title>MATH0013</title>
<g id="a_node11"><a xlink:href="https://www.ucl.ac.uk/maths/sites/maths/files/math0013.pdf" xlink:title="Year 2, term 1">
<polygon fill="white" stroke="#00ff00" stroke-width="5" points="798.5,-260 569.5,-260 569.5,-222 798.5,-222 798.5,-260"/>
<text text-anchor="middle" x="684" y="-244.8" font-family="Times,serif" font-size="14.00">MATH0013</text>
<text text-anchor="middle" x="684" y="-229.8" font-family="Times,serif" font-size="14.00">Analysis 3 &#45; Complex Analysis</text>
</a>
</g>
</g>
<!-- MATH0003&#45;&gt;MATH0013 -->
<g id="edge9" class="edge">
<title>MATH0003&#45;&gt;MATH0013</title>
<g id="a_edge9"><a xlink:title="required prerequisite">
<path fill="none" stroke="black" d="M652.55,-369.73C656.63,-359.38 661.53,-346.11 665,-334 671.05,-312.9 675.99,-288.56 679.31,-270.21"/>
<polygon fill="black" stroke="black" points="682.79,-270.63 681.08,-260.18 675.9,-269.42 682.79,-270.63"/>
</a>
</g>
</g>
<!-- MATH0008 -->
<g id="node2" class="node">
<title>MATH0008</title>
<g id="a_node2"><a xlink:href="https://www.ucl.ac.uk/maths/sites/maths/files/math0008.pdf" xlink:title="Year 1, term 1">
<polygon fill="white" stroke="#ffb90f" stroke-width="5" points="1868,-408 1700,-408 1700,-370 1868,-370 1868,-408"/>
<text text-anchor="middle" x="1784" y="-392.8" font-family="Times,serif" font-size="14.00">MATH0008</text>
<text text-anchor="middle" x="1784" y="-377.8" font-family="Times,serif" font-size="14.00">Applied Mathematics</text>
</a>
</g>
</g>
<!-- MATH0009 -->
<g id="node6" class="node">
<title>MATH0009</title>
<g id="a_node6"><a xlink:href="https://www.ucl.ac.uk/maths/sites/maths/files/math0009.pdf" xlink:title="Year 1, term 2">
<polygon fill="white" stroke="#cd950c" stroke-width="5" points="1871,-334 1697,-334 1697,-296 1871,-296 1871,-334"/>
<text text-anchor="middle" x="1784" y="-318.8" font-family="Times,serif" font-size="14.00">MATH0009</text>
<text text-anchor="middle" x="1784" y="-303.8" font-family="Times,serif" font-size="14.00">Newtonian Mechanics</text>
</a>
</g>
</g>
<!-- MATH0008&#45;&gt;MATH0009 -->
<g id="edge2" class="edge">
<title>MATH0008&#45;&gt;MATH0009</title>
<g id="a_edge2"><a xlink:title="required prerequisite">
<path fill="none" stroke="black" d="M1784,-369.83C1784,-362.13 1784,-352.97 1784,-344.42"/>
<polygon fill="black" stroke="black" points="1787.5,-344.41 1784,-334.41 1780.5,-344.41 1787.5,-344.41"/>
</a>
</g>
</g>
<!-- MATH0010 -->
<g id="node3" class="node">
<title>MATH0010</title>
<g id="a_node3"><a xlink:href="https://www.ucl.ac.uk/maths/sites/maths/files/math0010.pdf" xlink:title="Year 1, term 1">
<polygon fill="white" stroke="#ffb90f" stroke-width="5" points="1680.5,-408 1485.5,-408 1485.5,-370 1680.5,-370 1680.5,-408"/>
<text text-anchor="middle" x="1583" y="-392.8" font-family="Times,serif" font-size="14.00">MATH0010</text>
<text text-anchor="middle" x="1583" y="-377.8" font-family="Times,serif" font-size="14.00">Mathematical Methods 1</text>
</a>
</g>
</g>
<!-- MATH0011 -->
<g id="node5" class="node">
<title>MATH0011</title>
<g id="a_node5"><a xlink:href="https://www.ucl.ac.uk/maths/sites/maths/files/math0011_2.pdf" xlink:title="Year 1, term 2">
<polygon fill="white" stroke="#cd950c" stroke-width="5" points="1678.5,-334 1483.5,-334 1483.5,-296 1678.5,-296 1678.5,-334"/>
<text text-anchor="middle" x="1581" y="-318.8" font-family="Times,serif" font-size="14.00">MATH0011</text>
<text text-anchor="middle" x="1581" y="-303.8" font-family="Times,serif" font-size="14.00">Mathematical Methods 2</text>
</a>
</g>
</g>
<!-- MATH0010&#45;&gt;MATH0011 -->
<g id="edge1" class="edge">
<title>MATH0010&#45;&gt;MATH0011</title>
<g id="a_edge1"><a xlink:title="required prerequisite">
<path fill="none" stroke="black" d="M1582.5,-369.83C1582.28,-362.13 1582.03,-352.97 1581.79,-344.42"/>
<polygon fill="black" stroke="black" points="1585.29,-344.31 1581.51,-334.41 1578.29,-344.51 1585.29,-344.31"/>
</a>
</g>
</g>
<!-- MATH0010&#45;&gt;MATH0009 -->
<g id="edge3" class="edge">
<title>MATH0010&#45;&gt;MATH0009</title>
<g id="a_edge3"><a xlink:title="required prerequisite">
<path fill="none" stroke="black" d="M1633.46,-369.92C1660.94,-360.08 1695.12,-347.84 1723.96,-337.51"/>
<polygon fill="black" stroke="black" points="1725.28,-340.75 1733.52,-334.08 1722.92,-334.16 1725.28,-340.75"/>
</a>
</g>
</g>
<!-- MATH0005 -->
<g id="node4" class="node">
<title>MATH0005</title>
<g id="a_node4"><a xlink:href="https://www.ucl.ac.uk/maths/sites/maths/files/math0005.pdf" xlink:title="Year 1, term 1">
<polygon fill="white" stroke="#ffb90f" stroke-width="5" points="470,-408 372,-408 372,-370 470,-370 470,-408"/>
<text text-anchor="middle" x="421" y="-392.8" font-family="Times,serif" font-size="14.00">MATH0005</text>
<text text-anchor="middle" x="421" y="-377.8" font-family="Times,serif" font-size="14.00">Algebra 1</text>
</a>
</g>
</g>
<!-- MATH0006 -->
<g id="node7" class="node">
<title>MATH0006</title>
<g id="a_node7"><a xlink:href="https://www.ucl.ac.uk/maths/sites/maths/files/math0006.pdf" xlink:title="Year 1, term 2">
<polygon fill="white" stroke="#cd950c" stroke-width="5" points="470,-334 372,-334 372,-296 470,-296 470,-334"/>
<text text-anchor="middle" x="421" y="-318.8" font-family="Times,serif" font-size="14.00">MATH0006</text>
<text text-anchor="middle" x="421" y="-303.8" font-family="Times,serif" font-size="14.00">Algebra 2</text>
</a>
</g>
</g>
<!-- MATH0005&#45;&gt;MATH0006 -->
<g id="edge4" class="edge">
<title>MATH0005&#45;&gt;MATH0006</title>
<g id="a_edge4"><a xlink:title="required prerequisite">
<path fill="none" stroke="black" d="M421,-369.83C421,-362.13 421,-352.97 421,-344.42"/>
<polygon fill="black" stroke="black" points="424.5,-344.41 421,-334.41 417.5,-344.41 424.5,-344.41"/>
</a>
</g>
</g>
<!-- MATH0015 -->
<g id="node9" class="node">
<title>MATH0015</title>
<g id="a_node9"><a xlink:href="https://www.ucl.ac.uk/maths/sites/maths/files/math0015.pdf" xlink:title="Year 2, term 1">
<polygon fill="white" stroke="#00ff00" stroke-width="5" points="1769,-260 1635,-260 1635,-222 1769,-222 1769,-260"/>
<text text-anchor="middle" x="1702" y="-244.8" font-family="Times,serif" font-size="14.00">MATH0015</text>
<text text-anchor="middle" x="1702" y="-229.8" font-family="Times,serif" font-size="14.00">Fluid Mechanics</text>
</a>
</g>
</g>
<!-- MATH0011&#45;&gt;MATH0015 -->
<g id="edge6" class="edge">
<title>MATH0011&#45;&gt;MATH0015</title>
<g id="a_edge6"><a xlink:title="required prerequisite">
<path fill="none" stroke="black" d="M1611.53,-295.83C1627.01,-286.62 1645.99,-275.33 1662.56,-265.47"/>
<polygon fill="black" stroke="black" points="1664.67,-268.28 1671.48,-260.16 1661.09,-262.27 1664.67,-268.28"/>
</a>
</g>
</g>
<!-- MATH0016 -->
<g id="node12" class="node">
<title>MATH0016</title>
<g id="a_node12"><a xlink:href="https://www.ucl.ac.uk/maths/sites/maths/files/math0016.pdf" xlink:title="Year 2, term 1">
<polygon fill="white" stroke="#00ff00" stroke-width="5" points="1616.5,-260 1421.5,-260 1421.5,-222 1616.5,-222 1616.5,-260"/>
<text text-anchor="middle" x="1519" y="-244.8" font-family="Times,serif" font-size="14.00">MATH0016</text>
<text text-anchor="middle" x="1519" y="-229.8" font-family="Times,serif" font-size="14.00">Mathematical Methods 3</text>
</a>
</g>
</g>
<!-- MATH0011&#45;&gt;MATH0016 -->
<g id="edge11" class="edge">
<title>MATH0011&#45;&gt;MATH0016</title>
<g id="a_edge11"><a xlink:title="required prerequisite">
<path fill="none" stroke="black" d="M1565.35,-295.83C1558.14,-287.45 1549.44,-277.35 1541.54,-268.17"/>
<polygon fill="black" stroke="black" points="1544.03,-265.71 1534.86,-260.41 1538.73,-270.27 1544.03,-265.71"/>
</a>
</g>
</g>
<!-- MATH0020 -->
<g id="node20" class="node">
<title>MATH0020</title>
<g id="a_node20"><a xlink:href="https://www.ucl.ac.uk/maths/sites/maths/files/math0020.pdf" xlink:title="Year 3, term 2">
<polygon fill="white" stroke="#cd3333" stroke-width="5" points="518.5,-112 345.5,-112 345.5,-74 518.5,-74 518.5,-112"/>
<text text-anchor="middle" x="432" y="-96.8" font-family="Times,serif" font-size="14.00">MATH0020</text>
<text text-anchor="middle" x="432" y="-81.8" font-family="Times,serif" font-size="14.00">Differential Geometry</text>
</a>
</g>
</g>
<!-- MATH0011&#45;&gt;MATH0020 -->
<g id="edge20" class="edge">
<title>MATH0011&#45;&gt;MATH0020</title>
<g id="a_edge20"><a xlink:title="required prerequisite">
<path fill="none" stroke="black" d="M1483.24,-298.45C1342.16,-275.68 1073.43,-231.05 846,-186 732.18,-163.45 601.6,-133.8 518.04,-114.34"/>
<polygon fill="black" stroke="black" points="518.61,-110.88 508.08,-112.02 517.02,-117.7 518.61,-110.88"/>
</a>
</g>
</g>
<!-- MATH0054 -->
<g id="node21" class="node">
<title>MATH0054</title>
<g id="a_node21"><a xlink:href="https://www.ucl.ac.uk/maths/sites/maths/files/math0054.pdf" xlink:title="Year 3, term 2">
<polygon fill="white" stroke="#cd3333" stroke-width="5" points="1928.5,-112 1767.5,-112 1767.5,-74 1928.5,-74 1928.5,-112"/>
<text text-anchor="middle" x="1848" y="-96.8" font-family="Times,serif" font-size="14.00">MATH0054</text>
<text text-anchor="middle" x="1848" y="-81.8" font-family="Times,serif" font-size="14.00">Analytical Dynamics</text>
</a>
</g>
</g>
<!-- MATH0011&#45;&gt;MATH0054 -->
<g id="edge21" class="edge">
<title>MATH0011&#45;&gt;MATH0054</title>
<g id="a_edge21"><a xlink:title="required prerequisite">
<path fill="none" stroke="black" d="M1676.77,-295.99C1718.81,-286.45 1762.2,-273.85 1778,-260 1799.57,-241.1 1826.15,-164.1 1839.5,-121.93"/>
<polygon fill="black" stroke="black" points="1842.88,-122.85 1842.53,-112.27 1836.2,-120.77 1842.88,-122.85"/>
</a>
</g>
</g>
<!-- MATH0009&#45;&gt;MATH0015 -->
<g id="edge7" class="edge">
<title>MATH0009&#45;&gt;MATH0015</title>
<g id="a_edge7"><a xlink:title="required prerequisite">
<path fill="none" stroke="black" d="M1763.31,-295.83C1753.31,-287.05 1741.14,-276.37 1730.3,-266.85"/>
<polygon fill="black" stroke="black" points="1732.51,-264.13 1722.69,-260.16 1727.89,-269.39 1732.51,-264.13"/>
</a>
</g>
</g>
<!-- MATH0009&#45;&gt;MATH0054 -->
<g id="edge22" class="edge">
<title>MATH0009&#45;&gt;MATH0054</title>
<g id="a_edge22"><a xlink:title="required prerequisite">
<path fill="none" stroke="black" d="M1796.47,-295.75C1802.87,-285.61 1810.29,-272.55 1815,-260 1832.45,-213.45 1841.25,-155.92 1845.21,-122.26"/>
<polygon fill="black" stroke="black" points="1848.7,-122.54 1846.33,-112.21 1841.74,-121.76 1848.7,-122.54"/>
</a>
</g>
</g>
<!-- MATH0014 -->
<g id="node10" class="node">
<title>MATH0014</title>
<g id="a_node10"><a xlink:href="https://www.ucl.ac.uk/maths/sites/maths/files/math0014.pdf" xlink:title="Year 2, term 1">
<polygon fill="white" stroke="#00ff00" stroke-width="5" points="551,-260 291,-260 291,-222 551,-222 551,-260"/>
<text text-anchor="middle" x="421" y="-244.8" font-family="Times,serif" font-size="14.00">MATH0014</text>
<text text-anchor="middle" x="421" y="-229.8" font-family="Times,serif" font-size="14.00">Algebra 3: Further Linear Algebra</text>
</a>
</g>
</g>
<!-- MATH0006&#45;&gt;MATH0014 -->
<g id="edge8" class="edge">
<title>MATH0006&#45;&gt;MATH0014</title>
<g id="a_edge8"><a xlink:title="required prerequisite">
<path fill="none" stroke="black" d="M421,-295.83C421,-288.13 421,-278.97 421,-270.42"/>
<polygon fill="black" stroke="black" points="424.5,-270.41 421,-260.41 417.5,-270.41 424.5,-270.41"/>
</a>
</g>
</g>
<!-- MATH0004&#45;&gt;MATH0013 -->
<g id="edge10" class="edge">
<title>MATH0004&#45;&gt;MATH0013</title>
<g id="a_edge10"><a xlink:title="recommended prerequisite">
<path fill="none" stroke="black" stroke-dasharray="5,2" d="M626.43,-295.83C635.73,-287.13 647.02,-276.58 657.13,-267.13"/>
<polygon fill="black" stroke="black" points="659.66,-269.55 664.58,-260.16 654.88,-264.44 659.66,-269.55"/>
</a>
</g>
</g>
<!-- MATH0051 -->
<g id="node14" class="node">
<title>MATH0051</title>
<g id="a_node14"><a xlink:href="https://www.ucl.ac.uk/maths/sites/maths/files/math0051.pdf" xlink:title="Year 2 or 3, term 2">
<polygon fill="white" stroke="#8ee5ee" stroke-width="5" points="310,-186 212,-186 212,-148 310,-148 310,-186"/>
<text text-anchor="middle" x="261" y="-170.8" font-family="Times,serif" font-size="14.00">MATH0051</text>
<text text-anchor="middle" x="261" y="-155.8" font-family="Times,serif" font-size="14.00">Analysis 4</text>
</a>
</g>
</g>
<!-- MATH0004&#45;&gt;MATH0051 -->
<g id="edge13" class="edge">
<title>MATH0004&#45;&gt;MATH0051</title>
<g id="a_edge13"><a xlink:title="required prerequisite">
<path fill="none" stroke="black" d="M557.86,-306.55C468.25,-292.87 287.01,-264.72 282,-260 264.84,-243.83 260.33,-216.77 259.68,-196.17"/>
<polygon fill="black" stroke="black" points="263.18,-196.06 259.64,-186.08 256.18,-196.09 263.18,-196.06"/>
</a>
</g>
</g>
<!-- MATH0024 -->
<g id="node22" class="node">
<title>MATH0024</title>
<g id="a_node22"><a xlink:href="https://www.ucl.ac.uk/maths/sites/maths/files/math0024.pdf" xlink:title="Year 3, term 2">
<polygon fill="white" stroke="#cd3333" stroke-width="5" points="1711,-112 1559,-112 1559,-74 1711,-74 1711,-112"/>
<text text-anchor="middle" x="1635" y="-96.8" font-family="Times,serif" font-size="14.00">MATH0024</text>
<text text-anchor="middle" x="1635" y="-81.8" font-family="Times,serif" font-size="14.00">Geophysical Fluids</text>
</a>
</g>
</g>
<!-- MATH0015&#45;&gt;MATH0024 -->
<g id="edge23" class="edge">
<title>MATH0015&#45;&gt;MATH0024</title>
<g id="a_edge23"><a xlink:title="required prerequisite">
<path fill="none" stroke="black" d="M1695.74,-221.68C1689.1,-202.87 1677.94,-172.9 1666,-148 1661.68,-138.98 1656.43,-129.43 1651.49,-120.9"/>
<polygon fill="black" stroke="black" points="1654.41,-118.96 1646.31,-112.13 1648.38,-122.52 1654.41,-118.96"/>
</a>
</g>
</g>
<!-- MATH0077 -->
<g id="node23" class="node">
<title>MATH0077</title>
<g id="a_node23"><a xlink:href="https://www.ucl.ac.uk/maths/sites/maths/files/math0077.pdf" xlink:title="Year 3 or 4, term 1">
<polygon fill="white" stroke="#ff1493" stroke-width="5" points="1541,-112 1443,-112 1443,-74 1541,-74 1541,-112"/>
<text text-anchor="middle" x="1492" y="-96.8" font-family="Times,serif" font-size="14.00">MATH0077</text>
<text text-anchor="middle" x="1492" y="-81.8" font-family="Times,serif" font-size="14.00">Real Fluids</text>
</a>
</g>
</g>
<!-- MATH0015&#45;&gt;MATH0077 -->
<g id="edge25" class="edge">
<title>MATH0015&#45;&gt;MATH0077</title>
<g id="a_edge25"><a xlink:title="required prerequisite">
<path fill="none" stroke="black" d="M1675.83,-221.8C1638.08,-195.56 1568.29,-147.04 1526.41,-117.92"/>
<polygon fill="black" stroke="black" points="1528.38,-115.03 1518.17,-112.2 1524.38,-120.78 1528.38,-115.03"/>
</a>
</g>
</g>
<!-- MATH0115 -->
<g id="node25" class="node">
<title>MATH0115</title>
<g id="a_node25"><a xlink:href="https://www.ucl.ac.uk/maths/sites/maths/files/math0115_syllabus.pdf" xlink:title="Year 3 or 4, term 2">
<polygon fill="white" stroke="#cd1076" stroke-width="5" points="1224.5,-38 1091.5,-38 1091.5,0 1224.5,0 1224.5,-38"/>
<text text-anchor="middle" x="1158" y="-22.8" font-family="Times,serif" font-size="14.00">MATH0115</text>
<text text-anchor="middle" x="1158" y="-7.8" font-family="Times,serif" font-size="14.00">Solid Mechanics</text>
</a>
</g>
</g>
<!-- MATH0015&#45;&gt;MATH0115 -->
<g id="edge30" class="edge">
<title>MATH0015&#45;&gt;MATH0115</title>
<g id="a_edge30"><a xlink:title="required prerequisite">
<path fill="none" stroke="black" d="M1711.78,-221.97C1728.66,-188.15 1757.97,-114.89 1720,-74 1684.77,-36.07 1321.59,-45.32 1234.77,-37.59"/>
<polygon fill="black" stroke="black" points="1234.95,-34.08 1224.61,-36.41 1234.14,-41.04 1234.95,-34.08"/>
</a>
</g>
</g>
<!-- MATH0118 -->
<g id="node24" class="node">
<title>MATH0118</title>
<g id="a_node24"><a xlink:href="https://www.ucl.ac.uk/maths/sites/maths/files/math0118.pdf" xlink:title="Year 3 or 4, term 1">
<polygon fill="white" stroke="#ff1493" stroke-width="5" points="821.5,-112 536.5,-112 536.5,-74 821.5,-74 821.5,-112"/>
<text text-anchor="middle" x="679" y="-96.8" font-family="Times,serif" font-size="14.00">MATH0118</text>
<text text-anchor="middle" x="679" y="-81.8" font-family="Times,serif" font-size="14.00">Mathematics for Quantum Mechanics</text>
</a>
</g>
</g>
<!-- MATH0014&#45;&gt;MATH0118 -->
<g id="edge29" class="edge">
<title>MATH0014&#45;&gt;MATH0118</title>
<g id="a_edge29"><a xlink:title="required prerequisite">
<path fill="none" stroke="black" d="M452.89,-221.95C499.7,-195.47 586.98,-146.07 638.33,-117.01"/>
<polygon fill="black" stroke="black" points="640.2,-119.98 647.18,-112.01 636.75,-113.89 640.2,-119.98"/>
</a>
</g>
</g>
<!-- MATH0056 -->
<g id="node15" class="node">
<title>MATH0056</title>
<g id="a_node15"><a xlink:href="https://www.ucl.ac.uk/maths/sites/maths/files/math0056.pdf" xlink:title="Year 2 or 3, term 2">
<polygon fill="white" stroke="#8ee5ee" stroke-width="5" points="1049.5,-186 854.5,-186 854.5,-148 1049.5,-148 1049.5,-186"/>
<text text-anchor="middle" x="952" y="-170.8" font-family="Times,serif" font-size="14.00">MATH0056</text>
<text text-anchor="middle" x="952" y="-155.8" font-family="Times,serif" font-size="14.00">Mathematical Methods 4</text>
</a>
</g>
</g>
<!-- MATH0013&#45;&gt;MATH0056 -->
<g id="edge14" class="edge">
<title>MATH0013&#45;&gt;MATH0056</title>
<g id="a_edge14"><a xlink:title="required prerequisite">
<path fill="none" stroke="black" d="M751.28,-221.92C788.87,-211.82 835.87,-199.2 874.94,-188.7"/>
<polygon fill="black" stroke="black" points="875.94,-192.06 884.69,-186.08 874.12,-185.3 875.94,-192.06"/>
</a>
</g>
</g>
<!-- MATH0055 -->
<g id="node13" class="node">
<title>MATH0055</title>
<g id="a_node13"><a xlink:href="https://www.ucl.ac.uk/maths/sites/maths/files/math0055_3.pdf" xlink:title="Year 2 or 3, term 2">
<polygon fill="white" stroke="#8ee5ee" stroke-width="5" points="1491,-186 1067,-186 1067,-148 1491,-148 1491,-186"/>
<text text-anchor="middle" x="1279" y="-170.8" font-family="Times,serif" font-size="14.00">MATH0055</text>
<text text-anchor="middle" x="1279" y="-155.8" font-family="Times,serif" font-size="14.00">Mathematics of Electromagnetism and Special Relativity</text>
</a>
</g>
</g>
<!-- MATH0016&#45;&gt;MATH0055 -->
<g id="edge12" class="edge">
<title>MATH0016&#45;&gt;MATH0055</title>
<g id="a_edge12"><a xlink:title="required prerequisite">
<path fill="none" stroke="black" d="M1458.75,-221.92C1425.37,-211.91 1383.71,-199.41 1348.9,-188.97"/>
<polygon fill="black" stroke="black" points="1349.86,-185.6 1339.28,-186.08 1347.85,-192.31 1349.86,-185.6"/>
</a>
</g>
</g>
<!-- MATH0016&#45;&gt;MATH0056 -->
<g id="edge15" class="edge">
<title>MATH0016&#45;&gt;MATH0056</title>
<g id="a_edge15"><a xlink:title="required prerequisite">
<path fill="none" stroke="black" d="M1421.23,-230.03C1330.16,-220.4 1190.35,-204.75 1059.77,-186.22"/>
<polygon fill="black" stroke="black" points="1059.98,-182.71 1049.58,-184.77 1058.99,-189.64 1059.98,-182.71"/>
</a>
</g>
</g>
<!-- MATH0025 -->
<g id="node16" class="node">
<title>MATH0025</title>
<g id="a_node16"><a xlink:href="https://www.ucl.ac.uk/maths/sites/maths/files/math0025.pdf" xlink:title="Year 3, term 1">
<polygon fill="white" stroke="#ff4040" stroke-width="5" points="1424.5,-112 1155.5,-112 1155.5,-74 1424.5,-74 1424.5,-112"/>
<text text-anchor="middle" x="1290" y="-96.8" font-family="Times,serif" font-size="14.00">MATH0025</text>
<text text-anchor="middle" x="1290" y="-81.8" font-family="Times,serif" font-size="14.00">Mathematics for General Relativity</text>
</a>
</g>
</g>
<!-- MATH0016&#45;&gt;MATH0025 -->
<g id="edge16" class="edge">
<title>MATH0016&#45;&gt;MATH0025</title>
<g id="a_edge16"><a xlink:title="required prerequisite">
<path fill="none" stroke="black" d="M1520.51,-221.89C1521.18,-201.26 1518.9,-167.83 1500,-148 1486.83,-134.18 1451.14,-122.84 1412.85,-114.18"/>
<polygon fill="black" stroke="black" points="1413.58,-110.76 1403.06,-112.03 1412.08,-117.59 1413.58,-110.76"/>
</a>
</g>
</g>
<!-- MATH0016&#45;&gt;MATH0024 -->
<g id="edge24" class="edge">
<title>MATH0016&#45;&gt;MATH0024</title>
<g id="a_edge24"><a xlink:title="required prerequisite">
<path fill="none" stroke="black" d="M1533.46,-221.8C1553.69,-196.34 1590.58,-149.91 1613.88,-120.58"/>
<polygon fill="black" stroke="black" points="1616.88,-122.43 1620.36,-112.43 1611.4,-118.08 1616.88,-122.43"/>
</a>
</g>
</g>
<!-- MATH0016&#45;&gt;MATH0077 -->
<g id="edge26" class="edge">
<title>MATH0016&#45;&gt;MATH0077</title>
<g id="a_edge26"><a xlink:title="required prerequisite">
<path fill="none" stroke="black" d="M1526.65,-221.93C1533.53,-203.06 1541.35,-172.81 1533,-148 1529.62,-137.96 1523.55,-128.3 1517.1,-120.01"/>
<polygon fill="black" stroke="black" points="1519.69,-117.65 1510.6,-112.19 1514.3,-122.12 1519.69,-117.65"/>
</a>
</g>
</g>
<!-- MATH0017 -->
<g id="node17" class="node">
<title>MATH0017</title>
<g id="a_node17"><a xlink:href="https://www.ucl.ac.uk/maths/sites/maths/files/math0017.pdf" xlink:title="Year 3, term 1">
<polygon fill="white" stroke="#ff4040" stroke-width="5" points="327.5,-112 194.5,-112 194.5,-74 327.5,-74 327.5,-112"/>
<text text-anchor="middle" x="261" y="-96.8" font-family="Times,serif" font-size="14.00">MATH0017</text>
<text text-anchor="middle" x="261" y="-81.8" font-family="Times,serif" font-size="14.00">Measure Theory</text>
</a>
</g>
</g>
<!-- MATH0051&#45;&gt;MATH0017 -->
<g id="edge17" class="edge">
<title>MATH0051&#45;&gt;MATH0017</title>
<g id="a_edge17"><a xlink:title="required prerequisite">
<path fill="none" stroke="black" d="M261,-147.83C261,-140.13 261,-130.97 261,-122.42"/>
<polygon fill="black" stroke="black" points="264.5,-122.41 261,-112.41 257.5,-122.41 264.5,-122.41"/>
</a>
</g>
</g>
<!-- MATH0019 -->
<g id="node18" class="node">
<title>MATH0019</title>
<g id="a_node18"><a xlink:href="https://www.ucl.ac.uk/maths/sites/maths/files/math0019.pdf" xlink:title="Year 3, term 1">
<polygon fill="white" stroke="#ff4040" stroke-width="5" points="176,-112 0,-112 0,-74 176,-74 176,-112"/>
<text text-anchor="middle" x="88" y="-96.8" font-family="Times,serif" font-size="14.00">MATH0019</text>
<text text-anchor="middle" x="88" y="-81.8" font-family="Times,serif" font-size="14.00">Multivariable Analysis</text>
</a>
</g>
</g>
<!-- MATH0051&#45;&gt;MATH0019 -->
<g id="edge18" class="edge">
<title>MATH0051&#45;&gt;MATH0019</title>
<g id="a_edge18"><a xlink:title="required prerequisite">
<path fill="none" stroke="black" d="M217.34,-147.83C194.1,-138.16 165.34,-126.19 140.85,-115.99"/>
<polygon fill="black" stroke="black" points="141.92,-112.65 131.34,-112.04 139.23,-119.11 141.92,-112.65"/>
</a>
</g>
</g>
<!-- MATH0027 -->
<g id="node19" class="node">
<title>MATH0027</title>
<g id="a_node19"><a xlink:href="https://www.ucl.ac.uk/maths/sites/maths/files/math0027.pdf" xlink:title="Year 3, term 2">
<polygon fill="white" stroke="#cd3333" stroke-width="5" points="938,-112 840,-112 840,-74 938,-74 938,-112"/>
<text text-anchor="middle" x="889" y="-96.8" font-family="Times,serif" font-size="14.00">MATH0027</text>
<text text-anchor="middle" x="889" y="-81.8" font-family="Times,serif" font-size="14.00">Methods 5</text>
</a>
</g>
</g>
<!-- MATH0056&#45;&gt;MATH0027 -->
<g id="edge19" class="edge">
<title>MATH0056&#45;&gt;MATH0027</title>
<g id="a_edge19"><a xlink:title="required prerequisite">
<path fill="none" stroke="black" d="M936.1,-147.83C928.77,-139.45 919.93,-129.35 911.9,-120.17"/>
<polygon fill="black" stroke="black" points="914.33,-117.63 905.11,-112.41 909.06,-122.24 914.33,-117.63"/>
</a>
</g>
</g>
<!-- MATH0056&#45;&gt;MATH0077 -->
<g id="edge27" class="edge">
<title>MATH0056&#45;&gt;MATH0077</title>
<g id="a_edge27"><a xlink:title="required prerequisite">
<path fill="none" stroke="black" d="M1049.57,-149.16C1052.41,-148.75 1055.22,-148.37 1058,-148 1221.17,-126.36 1267.61,-144.32 1432.8,-112.01"/>
<polygon fill="black" stroke="black" points="1433.69,-115.4 1442.82,-110.02 1432.33,-108.54 1433.69,-115.4"/>
</a>
</g>
</g>
<!-- MATH0056&#45;&gt;MATH0118 -->
<g id="edge28" class="edge">
<title>MATH0056&#45;&gt;MATH0118</title>
<g id="a_edge28"><a xlink:title="required prerequisite">
<path fill="none" stroke="black" d="M883.46,-147.92C845.09,-137.8 797.09,-125.14 757.25,-114.64"/>
<polygon fill="black" stroke="black" points="758.13,-111.25 747.57,-112.08 756.34,-118.02 758.13,-111.25"/>
</a>
</g>
</g>
<!-- MATH0056&#45;&gt;MATH0115 -->
<g id="edge31" class="edge">
<title>MATH0056&#45;&gt;MATH0115</title>
<g id="a_edge31"><a xlink:title="required prerequisite">
<path fill="none" stroke="black" d="M977.67,-147.8C1014.63,-121.61 1082.88,-73.24 1123.99,-44.11"/>
<polygon fill="black" stroke="black" points="1126.19,-46.83 1132.33,-38.2 1122.14,-41.12 1126.19,-46.83"/>
</a>
</g>
</g>
<!-- MATH0080 -->
<g id="node26" class="node">
<title>MATH0080</title>
<g id="a_node26"><a xlink:href="https://www.ucl.ac.uk/maths/sites/maths/files/math0080.pdf" xlink:title="Year 3 or 4, term 2">
<polygon fill="white" stroke="#cd1076" stroke-width="5" points="1073,-38 859,-38 859,0 1073,0 1073,-38"/>
<text text-anchor="middle" x="966" y="-22.8" font-family="Times,serif" font-size="14.00">MATH0080</text>
<text text-anchor="middle" x="966" y="-7.8" font-family="Times,serif" font-size="14.00">Waves and Wave Scattering</text>
</a>
</g>
</g>
<!-- MATH0056&#45;&gt;MATH0080 -->
<g id="edge32" class="edge">
<title>MATH0056&#45;&gt;MATH0080</title>
<g id="a_edge32"><a xlink:title="required prerequisite">
<path fill="none" stroke="black" d="M953.74,-147.8C956.13,-122.89 960.45,-77.89 963.27,-48.49"/>
<polygon fill="black" stroke="black" points="966.76,-48.71 964.23,-38.43 959.79,-48.05 966.76,-48.71"/>
</a>
</g>
</g>
<!-- MATH0079 -->
<g id="node29" class="node">
<title>MATH0079</title>
<g id="a_node29"><a xlink:href="https://www.ucl.ac.uk/maths/sites/maths/files/math0079.pdf" xlink:title="Year 4, term 2">
<polygon fill="white" stroke="#1874cd" stroke-width="5" points="1341,-38 1243,-38 1243,0 1341,0 1341,-38"/>
<text text-anchor="middle" x="1292" y="-22.8" font-family="Times,serif" font-size="14.00">MATH0079</text>
<text text-anchor="middle" x="1292" y="-7.8" font-family="Times,serif" font-size="14.00">Cosmology</text>
</a>
</g>
</g>
<!-- MATH0025&#45;&gt;MATH0079 -->
<g id="edge37" class="edge">
<title>MATH0025&#45;&gt;MATH0079</title>
<g id="a_edge37"><a xlink:title="required prerequisite">
<path fill="none" stroke="black" d="M1290.5,-73.83C1290.72,-66.13 1290.97,-56.97 1291.21,-48.42"/>
<polygon fill="black" stroke="black" points="1294.71,-48.51 1291.49,-38.41 1287.71,-48.31 1294.71,-48.51"/>
</a>
</g>
</g>
<!-- MATH0119 -->
<g id="node27" class="node">
<title>MATH0119</title>
<g id="a_node27"><a xlink:href="https://www.ucl.ac.uk/maths/sites/maths/files/math0119.pdf" xlink:title="Year 3 or 4, term 2">
<polygon fill="white" stroke="#cd1076" stroke-width="5" points="339.5,-38 182.5,-38 182.5,0 339.5,0 339.5,-38"/>
<text text-anchor="middle" x="261" y="-22.8" font-family="Times,serif" font-size="14.00">MATH0119</text>
<text text-anchor="middle" x="261" y="-7.8" font-family="Times,serif" font-size="14.00">Dynamical Systems</text>
</a>
</g>
</g>
<!-- MATH0017&#45;&gt;MATH0119 -->
<g id="edge33" class="edge">
<title>MATH0017&#45;&gt;MATH0119</title>
<g id="a_edge33"><a xlink:title="required prerequisite">
<path fill="none" stroke="black" d="M261,-73.83C261,-66.13 261,-56.97 261,-48.42"/>
<polygon fill="black" stroke="black" points="264.5,-48.41 261,-38.41 257.5,-48.41 264.5,-48.41"/>
</a>
</g>
</g>
<!-- MATH0019&#45;&gt;MATH0119 -->
<g id="edge34" class="edge">
<title>MATH0019&#45;&gt;MATH0119</title>
<g id="a_edge34"><a xlink:title="recommended prerequisite">
<path fill="none" stroke="black" stroke-dasharray="5,2" d="M131.66,-73.83C154.9,-64.16 183.66,-52.19 208.15,-41.99"/>
<polygon fill="black" stroke="black" points="209.77,-45.11 217.66,-38.04 207.08,-38.65 209.77,-45.11"/>
</a>
</g>
</g>
<!-- MATH0020&#45;&gt;MATH0119 -->
<g id="edge35" class="edge">
<title>MATH0020&#45;&gt;MATH0119</title>
<g id="a_edge35"><a xlink:title="recommended prerequisite">
<path fill="none" stroke="black" stroke-dasharray="5,2" d="M388.85,-73.83C365.88,-64.16 337.45,-52.19 313.24,-41.99"/>
<polygon fill="black" stroke="black" points="314.41,-38.69 303.84,-38.04 311.7,-45.14 314.41,-38.69"/>
</a>
</g>
</g>
<!-- MATH0078 -->
<g id="node28" class="node">
<title>MATH0078</title>
<g id="a_node28"><a xlink:href="https://www.ucl.ac.uk/maths/sites/maths/files/math0078.pdf" xlink:title="Year 4, term 2">
<polygon fill="white" stroke="#1874cd" stroke-width="5" points="1632.5,-38 1359.5,-38 1359.5,0 1632.5,0 1632.5,-38"/>
<text text-anchor="middle" x="1496" y="-22.8" font-family="Times,serif" font-size="14.00">MATH0078</text>
<text text-anchor="middle" x="1496" y="-7.8" font-family="Times,serif" font-size="14.00">Asymptotic Approximation Methods</text>
</a>
</g>
</g>
<!-- MATH0077&#45;&gt;MATH0078 -->
<g id="edge36" class="edge">
<title>MATH0077&#45;&gt;MATH0078</title>
<g id="a_edge36"><a xlink:title="required prerequisite">
<path fill="none" stroke="black" d="M1493.01,-73.83C1493.44,-66.13 1493.95,-56.97 1494.42,-48.42"/>
<polygon fill="black" stroke="black" points="1497.92,-48.59 1494.98,-38.41 1490.93,-48.2 1497.92,-48.59"/>
</a>
</g>
</g>
</g>
</svg>
