<?xml version="1.0" encoding="UTF-8" standalone="no"?>
<!DOCTYPE svg PUBLIC "-//W3C//DTD SVG 1.1//EN"
 "http://www.w3.org/Graphics/SVG/1.1/DTD/svg11.dtd">
<!-- Generated by graphviz version 2.43.0 (0)
 -->
<!-- Title: %3 Pages: 1 -->
<svg width="1443pt" height="416pt"
 viewBox="0.00 0.00 1443.00 416.00" xmlns="http://www.w3.org/2000/svg" xmlns:xlink="http://www.w3.org/1999/xlink">
<g id="graph0" class="graph" transform="scale(1 1) rotate(0) translate(4 412)">
<title>%3</title>
<polygon fill="white" stroke="transparent" points="-4,4 -4,-412 1439,-412 1439,4 -4,4"/>
<!-- MATH0008 -->
<g id="node1" class="node">
<title>MATH0008</title>
<g id="a_node1"><a xlink:href="https://www.ucl.ac.uk/maths/sites/maths/files/math0008.pdf" xlink:title="Year 1, term 1">
<polygon fill="white" stroke="#ffb90f" stroke-width="5" points="171,-408 3,-408 3,-370 171,-370 171,-408"/>
<text text-anchor="middle" x="87" y="-392.8" font-family="Times,serif" font-size="14.00">MATH0008</text>
<text text-anchor="middle" x="87" y="-377.8" font-family="Times,serif" font-size="14.00">Applied Mathematics</text>
</a>
</g>
</g>
<!-- MATH0009 -->
<g id="node6" class="node">
<title>MATH0009</title>
<g id="a_node6"><a xlink:href="https://www.ucl.ac.uk/maths/sites/maths/files/math0009.pdf" xlink:title="Year 1, term 2">
<polygon fill="white" stroke="#cd950c" stroke-width="5" points="174,-334 0,-334 0,-296 174,-296 174,-334"/>
<text text-anchor="middle" x="87" y="-318.8" font-family="Times,serif" font-size="14.00">MATH0009</text>
<text text-anchor="middle" x="87" y="-303.8" font-family="Times,serif" font-size="14.00">Newtonian Mechanics</text>
</a>
</g>
</g>
<!-- MATH0008&#45;&gt;MATH0009 -->
<g id="edge3" class="edge">
<title>MATH0008&#45;&gt;MATH0009</title>
<path fill="none" stroke="black" d="M87,-369.83C87,-362.13 87,-352.97 87,-344.42"/>
<polygon fill="black" stroke="black" points="90.5,-344.41 87,-334.41 83.5,-344.41 90.5,-344.41"/>
</g>
<!-- MATH0010 -->
<g id="node2" class="node">
<title>MATH0010</title>
<g id="a_node2"><a xlink:href="https://www.ucl.ac.uk/maths/sites/maths/files/math0010.pdf" xlink:title="Year 1, term 1">
<polygon fill="white" stroke="#ffb90f" stroke-width="5" points="385.5,-408 190.5,-408 190.5,-370 385.5,-370 385.5,-408"/>
<text text-anchor="middle" x="288" y="-392.8" font-family="Times,serif" font-size="14.00">MATH0010</text>
<text text-anchor="middle" x="288" y="-377.8" font-family="Times,serif" font-size="14.00">Mathematical Methods 1</text>
</a>
</g>
</g>
<!-- MATH0011 -->
<g id="node5" class="node">
<title>MATH0011</title>
<g id="a_node5"><a xlink:href="https://www.ucl.ac.uk/maths/sites/maths/files/math0011_syllabus.pdf" xlink:title="Year 1, term 2">
<polygon fill="white" stroke="#cd950c" stroke-width="5" points="387.5,-334 192.5,-334 192.5,-296 387.5,-296 387.5,-334"/>
<text text-anchor="middle" x="290" y="-318.8" font-family="Times,serif" font-size="14.00">MATH0011</text>
<text text-anchor="middle" x="290" y="-303.8" font-family="Times,serif" font-size="14.00">Mathematical Methods 2</text>
</a>
</g>
</g>
<!-- MATH0010&#45;&gt;MATH0011 -->
<g id="edge2" class="edge">
<title>MATH0010&#45;&gt;MATH0011</title>
<path fill="none" stroke="black" d="M288.5,-369.83C288.72,-362.13 288.97,-352.97 289.21,-344.42"/>
<polygon fill="black" stroke="black" points="292.71,-344.51 289.49,-334.41 285.71,-344.31 292.71,-344.51"/>
</g>
<!-- MATH0010&#45;&gt;MATH0009 -->
<g id="edge4" class="edge">
<title>MATH0010&#45;&gt;MATH0009</title>
<path fill="none" stroke="black" d="M237.54,-369.92C210.06,-360.08 175.88,-347.84 147.04,-337.51"/>
<polygon fill="black" stroke="black" points="148.08,-334.16 137.48,-334.08 145.72,-340.75 148.08,-334.16"/>
</g>
<!-- MATH0003 -->
<g id="node3" class="node">
<title>MATH0003</title>
<g id="a_node3"><a xlink:href="https://www.ucl.ac.uk/maths/sites/maths/files/math0003.pdf" xlink:title="Year 1, term 1">
<polygon fill="white" stroke="#ffb90f" stroke-width="5" points="1289,-408 1191,-408 1191,-370 1289,-370 1289,-408"/>
<text text-anchor="middle" x="1240" y="-392.8" font-family="Times,serif" font-size="14.00">MATH0003</text>
<text text-anchor="middle" x="1240" y="-377.8" font-family="Times,serif" font-size="14.00">Analysis 1</text>
</a>
</g>
</g>
<!-- MATH0004 -->
<g id="node4" class="node">
<title>MATH0004</title>
<g id="a_node4"><a xlink:href="https://www.ucl.ac.uk/maths/sites/maths/files/math0004.pdf" xlink:title="Year 1, term 2">
<polygon fill="white" stroke="#cd950c" stroke-width="5" points="1251,-334 1153,-334 1153,-296 1251,-296 1251,-334"/>
<text text-anchor="middle" x="1202" y="-318.8" font-family="Times,serif" font-size="14.00">MATH0004</text>
<text text-anchor="middle" x="1202" y="-303.8" font-family="Times,serif" font-size="14.00">Analysis 2</text>
</a>
</g>
</g>
<!-- MATH0003&#45;&gt;MATH0004 -->
<g id="edge1" class="edge">
<title>MATH0003&#45;&gt;MATH0004</title>
<path fill="none" stroke="black" d="M1230.41,-369.83C1226.17,-361.79 1221.09,-352.17 1216.4,-343.29"/>
<polygon fill="black" stroke="black" points="1219.48,-341.62 1211.72,-334.41 1213.29,-344.89 1219.48,-341.62"/>
</g>
<!-- MATH0013 -->
<g id="node9" class="node">
<title>MATH0013</title>
<g id="a_node9"><a xlink:href="https://www.ucl.ac.uk/maths/sites/maths/files/math0013.pdf" xlink:title="Year 2, term 1">
<polygon fill="white" stroke="#00ff00" stroke-width="5" points="1355.5,-260 1126.5,-260 1126.5,-222 1355.5,-222 1355.5,-260"/>
<text text-anchor="middle" x="1241" y="-244.8" font-family="Times,serif" font-size="14.00">MATH0013</text>
<text text-anchor="middle" x="1241" y="-229.8" font-family="Times,serif" font-size="14.00">Analysis 3 &#45; Complex Analysis</text>
</a>
</g>
</g>
<!-- MATH0003&#45;&gt;MATH0013 -->
<g id="edge8" class="edge">
<title>MATH0003&#45;&gt;MATH0013</title>
<path fill="none" stroke="black" d="M1248.52,-369.96C1252.9,-359.67 1257.78,-346.4 1260,-334 1262.98,-317.38 1262.84,-312.65 1260,-296 1258.5,-287.22 1255.72,-277.98 1252.75,-269.67"/>
<polygon fill="black" stroke="black" points="1255.93,-268.18 1249.09,-260.08 1249.39,-270.67 1255.93,-268.18"/>
</g>
<!-- MATH0004&#45;&gt;MATH0013 -->
<g id="edge9" class="edge">
<title>MATH0004&#45;&gt;MATH0013</title>
<path fill="none" stroke="black" stroke-dasharray="5,2" d="M1211.84,-295.83C1216.2,-287.79 1221.41,-278.17 1226.22,-269.29"/>
<polygon fill="black" stroke="black" points="1229.34,-270.87 1231.03,-260.41 1223.19,-267.54 1229.34,-270.87"/>
</g>
<!-- MATH0016 -->
<g id="node7" class="node">
<title>MATH0016</title>
<g id="a_node7"><a xlink:href="https://www.ucl.ac.uk/maths/sites/maths/files/math0016.pdf" xlink:title="Year 2, term 1">
<polygon fill="white" stroke="#00ff00" stroke-width="5" points="805.5,-260 610.5,-260 610.5,-222 805.5,-222 805.5,-260"/>
<text text-anchor="middle" x="708" y="-244.8" font-family="Times,serif" font-size="14.00">MATH0016</text>
<text text-anchor="middle" x="708" y="-229.8" font-family="Times,serif" font-size="14.00">Mathematical Methods 3</text>
</a>
</g>
</g>
<!-- MATH0011&#45;&gt;MATH0016 -->
<g id="edge5" class="edge">
<title>MATH0011&#45;&gt;MATH0016</title>
<path fill="none" stroke="black" d="M387.74,-297.16C451.54,-286.18 534.86,-271.82 600.52,-260.51"/>
<polygon fill="black" stroke="black" points="601.23,-263.94 610.49,-258.8 600.04,-257.04 601.23,-263.94"/>
</g>
<!-- MATH0015 -->
<g id="node8" class="node">
<title>MATH0015</title>
<g id="a_node8"><a xlink:href="https://www.ucl.ac.uk/maths/sites/maths/files/math0015.pdf" xlink:title="Year 2, term 1">
<polygon fill="white" stroke="#00ff00" stroke-width="5" points="321,-260 187,-260 187,-222 321,-222 321,-260"/>
<text text-anchor="middle" x="254" y="-244.8" font-family="Times,serif" font-size="14.00">MATH0015</text>
<text text-anchor="middle" x="254" y="-229.8" font-family="Times,serif" font-size="14.00">Fluid Mechanics</text>
</a>
</g>
</g>
<!-- MATH0011&#45;&gt;MATH0015 -->
<g id="edge6" class="edge">
<title>MATH0011&#45;&gt;MATH0015</title>
<path fill="none" stroke="black" d="M280.92,-295.83C276.94,-287.88 272.18,-278.37 267.79,-269.57"/>
<polygon fill="black" stroke="black" points="270.81,-267.79 263.21,-260.41 264.55,-270.92 270.81,-267.79"/>
</g>
<!-- MATH0054 -->
<g id="node13" class="node">
<title>MATH0054</title>
<g id="a_node13"><a xlink:href="https://www.ucl.ac.uk/maths/sites/maths/files/math0054.pdf" xlink:title="Year 3, term 2">
<polygon fill="white" stroke="#cd3333" stroke-width="5" points="167.5,-112 6.5,-112 6.5,-74 167.5,-74 167.5,-112"/>
<text text-anchor="middle" x="87" y="-96.8" font-family="Times,serif" font-size="14.00">MATH0054</text>
<text text-anchor="middle" x="87" y="-81.8" font-family="Times,serif" font-size="14.00">Analytical Dynamics</text>
</a>
</g>
</g>
<!-- MATH0011&#45;&gt;MATH0054 -->
<g id="edge14" class="edge">
<title>MATH0011&#45;&gt;MATH0054</title>
<path fill="none" stroke="black" d="M235.94,-295.96C216.03,-287.38 194.36,-275.53 178,-260 136.45,-220.57 109.3,-157.88 96.19,-121.88"/>
<polygon fill="black" stroke="black" points="99.35,-120.32 92.73,-112.05 92.75,-122.65 99.35,-120.32"/>
</g>
<!-- MATH0009&#45;&gt;MATH0015 -->
<g id="edge7" class="edge">
<title>MATH0009&#45;&gt;MATH0015</title>
<path fill="none" stroke="black" d="M129.14,-295.83C151.48,-286.2 179.09,-274.29 202.67,-264.13"/>
<polygon fill="black" stroke="black" points="204.36,-267.21 212.16,-260.04 201.59,-260.78 204.36,-267.21"/>
</g>
<!-- MATH0009&#45;&gt;MATH0054 -->
<g id="edge15" class="edge">
<title>MATH0009&#45;&gt;MATH0054</title>
<path fill="none" stroke="black" d="M87,-296C87,-257.8 87,-168.41 87,-122.43"/>
<polygon fill="black" stroke="black" points="90.5,-122.25 87,-112.25 83.5,-122.25 90.5,-122.25"/>
</g>
<!-- MATH0055 -->
<g id="node10" class="node">
<title>MATH0055</title>
<g id="a_node10"><a xlink:href="https://www.ucl.ac.uk/maths/sites/maths/files/math0055_4.pdf" xlink:title="Year 2 or 3, term 2">
<polygon fill="white" stroke="cadetblue" stroke-width="5" points="800,-186 376,-186 376,-148 800,-148 800,-186"/>
<text text-anchor="middle" x="588" y="-170.8" font-family="Times,serif" font-size="14.00">MATH0055</text>
<text text-anchor="middle" x="588" y="-155.8" font-family="Times,serif" font-size="14.00">Mathematics of Electromagnetism and Special Relativity</text>
</a>
</g>
</g>
<!-- MATH0016&#45;&gt;MATH0055 -->
<g id="edge10" class="edge">
<title>MATH0016&#45;&gt;MATH0055</title>
<path fill="none" stroke="black" d="M677.72,-221.83C662.37,-212.62 643.55,-201.33 627.12,-191.47"/>
<polygon fill="black" stroke="black" points="628.65,-188.31 618.27,-186.16 625.05,-194.31 628.65,-188.31"/>
</g>
<!-- MATH0056 -->
<g id="node11" class="node">
<title>MATH0056</title>
<g id="a_node11"><a xlink:href="https://www.ucl.ac.uk/maths/sites/maths/files/math0056.pdf" xlink:title="Year 2 or 3, term 2">
<polygon fill="white" stroke="cadetblue" stroke-width="5" points="1338.5,-186 1143.5,-186 1143.5,-148 1338.5,-148 1338.5,-186"/>
<text text-anchor="middle" x="1241" y="-170.8" font-family="Times,serif" font-size="14.00">MATH0056</text>
<text text-anchor="middle" x="1241" y="-155.8" font-family="Times,serif" font-size="14.00">Mathematical Methods 4</text>
</a>
</g>
</g>
<!-- MATH0016&#45;&gt;MATH0056 -->
<g id="edge12" class="edge">
<title>MATH0016&#45;&gt;MATH0056</title>
<path fill="none" stroke="black" d="M805.68,-228.84C889.96,-218.94 1015.2,-203.56 1133.46,-186.2"/>
<polygon fill="black" stroke="black" points="1134.03,-189.65 1143.41,-184.73 1133.01,-182.73 1134.03,-189.65"/>
</g>
<!-- MATH0025 -->
<g id="node12" class="node">
<title>MATH0025</title>
<g id="a_node12"><a xlink:href="https://www.ucl.ac.uk/maths/sites/maths/files/math0025.pdf" xlink:title="Year 3, term 1">
<polygon fill="white" stroke="#ff4040" stroke-width="5" points="1125.5,-186 856.5,-186 856.5,-148 1125.5,-148 1125.5,-186"/>
<text text-anchor="middle" x="991" y="-170.8" font-family="Times,serif" font-size="14.00">MATH0025</text>
<text text-anchor="middle" x="991" y="-155.8" font-family="Times,serif" font-size="14.00">Mathematics for General Relativity</text>
</a>
</g>
</g>
<!-- MATH0016&#45;&gt;MATH0025 -->
<g id="edge13" class="edge">
<title>MATH0016&#45;&gt;MATH0025</title>
<path fill="none" stroke="black" d="M779.05,-221.92C818.91,-211.78 868.79,-199.09 910.15,-188.57"/>
<polygon fill="black" stroke="black" points="911.09,-191.94 919.92,-186.08 909.37,-185.16 911.09,-191.94"/>
</g>
<!-- MATH0024 -->
<g id="node15" class="node">
<title>MATH0024</title>
<g id="a_node15"><a xlink:href="https://www.ucl.ac.uk/maths/sites/maths/files/math0024.pdf" xlink:title="Year 3, term 2">
<polygon fill="white" stroke="#cd3333" stroke-width="5" points="376,-112 224,-112 224,-74 376,-74 376,-112"/>
<text text-anchor="middle" x="300" y="-96.8" font-family="Times,serif" font-size="14.00">MATH0024</text>
<text text-anchor="middle" x="300" y="-81.8" font-family="Times,serif" font-size="14.00">Geophysical Fluids</text>
</a>
</g>
</g>
<!-- MATH0016&#45;&gt;MATH0024 -->
<g id="edge18" class="edge">
<title>MATH0016&#45;&gt;MATH0024</title>
<path fill="none" stroke="black" d="M766.34,-221.89C783.05,-213.69 799.34,-202.12 809,-186 817.68,-171.51 820.42,-160.44 809,-148 778.65,-114.96 465.56,-118.4 386.59,-111.61"/>
<polygon fill="black" stroke="black" points="386.67,-108.1 376.35,-110.48 385.9,-115.06 386.67,-108.1"/>
</g>
<!-- MATH0077 -->
<g id="node16" class="node">
<title>MATH0077</title>
<g id="a_node16"><a xlink:href="https://www.ucl.ac.uk/maths/sites/maths/files/math0077.pdf" xlink:title="Year 3 or 4, term 1">
<polygon fill="white" stroke="#ff1493" stroke-width="5" points="644,-112 546,-112 546,-74 644,-74 644,-112"/>
<text text-anchor="middle" x="595" y="-96.8" font-family="Times,serif" font-size="14.00">MATH0077</text>
<text text-anchor="middle" x="595" y="-81.8" font-family="Times,serif" font-size="14.00">Real Fluids</text>
</a>
</g>
</g>
<!-- MATH0016&#45;&gt;MATH0077 -->
<g id="edge20" class="edge">
<title>MATH0016&#45;&gt;MATH0077</title>
<path fill="none" stroke="black" d="M610.29,-238.17C520.83,-234.18 397.8,-222.06 367,-186 277.48,-81.19 360.18,-154.49 535.93,-112.09"/>
<polygon fill="black" stroke="black" points="536.88,-115.46 545.73,-109.63 535.18,-108.67 536.88,-115.46"/>
</g>
<!-- MATH0015&#45;&gt;MATH0024 -->
<g id="edge17" class="edge">
<title>MATH0015&#45;&gt;MATH0024</title>
<path fill="none" stroke="black" d="M251.61,-221.73C249.84,-202.69 249.06,-172.31 258,-148 261.69,-137.97 267.97,-128.31 274.58,-120.01"/>
<polygon fill="black" stroke="black" points="277.4,-122.09 281.2,-112.2 272.06,-117.57 277.4,-122.09"/>
</g>
<!-- MATH0015&#45;&gt;MATH0077 -->
<g id="edge19" class="edge">
<title>MATH0015&#45;&gt;MATH0077</title>
<path fill="none" stroke="black" d="M268.77,-221.73C289.53,-196.27 325.71,-152.69 334,-148 411.01,-104.39 445.56,-131.61 535.95,-112.01"/>
<polygon fill="black" stroke="black" points="536.8,-115.4 545.76,-109.74 535.23,-108.58 536.8,-115.4"/>
</g>
<!-- MATH0115 -->
<g id="node17" class="node">
<title>MATH0115</title>
<g id="a_node17"><a xlink:href="https://www.ucl.ac.uk/maths/sites/maths/files/math0115_0.pdf" xlink:title="Year 3 or 4, term 2">
<polygon fill="white" stroke="#cd1076" stroke-width="5" points="527.5,-112 394.5,-112 394.5,-74 527.5,-74 527.5,-112"/>
<text text-anchor="middle" x="461" y="-96.8" font-family="Times,serif" font-size="14.00">MATH0115</text>
<text text-anchor="middle" x="461" y="-81.8" font-family="Times,serif" font-size="14.00">Solid Mechanics</text>
</a>
</g>
</g>
<!-- MATH0015&#45;&gt;MATH0115 -->
<g id="edge22" class="edge">
<title>MATH0015&#45;&gt;MATH0115</title>
<path fill="none" stroke="black" d="M257.68,-221.83C262.79,-201.14 274.01,-167.66 296,-148 309.77,-135.69 348.17,-122.79 384.46,-112.69"/>
<polygon fill="black" stroke="black" points="385.39,-116.06 394.12,-110.05 383.55,-109.31 385.39,-116.06"/>
</g>
<!-- MATH0106 -->
<g id="node19" class="node">
<title>MATH0106</title>
<g id="a_node19"><a xlink:href="https://www.ucl.ac.uk/maths/sites/maths/files/math0106.pdf" xlink:title="Year 4, term 1">
<polygon fill="white" stroke="#1c86ee" stroke-width="5" points="379.5,-38 134.5,-38 134.5,0 379.5,0 379.5,-38"/>
<text text-anchor="middle" x="257" y="-22.8" font-family="Times,serif" font-size="14.00">MATH0106</text>
<text text-anchor="middle" x="257" y="-7.8" font-family="Times,serif" font-size="14.00">Industrial and Geological Fluids</text>
</a>
</g>
</g>
<!-- MATH0015&#45;&gt;MATH0106 -->
<g id="edge25" class="edge">
<title>MATH0015&#45;&gt;MATH0106</title>
<path fill="none" stroke="black" d="M243.11,-221.73C226.12,-190.8 197.03,-126.36 215,-74 218.47,-63.89 224.69,-54.21 231.3,-45.92"/>
<polygon fill="black" stroke="black" points="234.13,-47.99 237.95,-38.11 228.8,-43.45 234.13,-47.99"/>
</g>
<!-- MATH0013&#45;&gt;MATH0056 -->
<g id="edge11" class="edge">
<title>MATH0013&#45;&gt;MATH0056</title>
<path fill="none" stroke="black" d="M1241,-221.83C1241,-214.13 1241,-204.97 1241,-196.42"/>
<polygon fill="black" stroke="black" points="1244.5,-196.41 1241,-186.41 1237.5,-196.41 1244.5,-196.41"/>
</g>
<!-- MATH0027 -->
<g id="node14" class="node">
<title>MATH0027</title>
<g id="a_node14"><a xlink:href="https://www.ucl.ac.uk/maths/sites/maths/files/math0027.pdf" xlink:title="Year 3, term 2">
<polygon fill="white" stroke="#cd3333" stroke-width="5" points="1203,-112 1105,-112 1105,-74 1203,-74 1203,-112"/>
<text text-anchor="middle" x="1154" y="-96.8" font-family="Times,serif" font-size="14.00">MATH0027</text>
<text text-anchor="middle" x="1154" y="-81.8" font-family="Times,serif" font-size="14.00">Methods 5</text>
</a>
</g>
</g>
<!-- MATH0056&#45;&gt;MATH0027 -->
<g id="edge16" class="edge">
<title>MATH0056&#45;&gt;MATH0027</title>
<path fill="none" stroke="black" d="M1219.05,-147.83C1208.33,-138.96 1195.28,-128.16 1183.69,-118.57"/>
<polygon fill="black" stroke="black" points="1185.88,-115.84 1175.95,-112.16 1181.42,-121.23 1185.88,-115.84"/>
</g>
<!-- MATH0056&#45;&gt;MATH0077 -->
<g id="edge21" class="edge">
<title>MATH0056&#45;&gt;MATH0077</title>
<path fill="none" stroke="black" d="M1143.43,-149.17C1140.59,-148.77 1137.77,-148.37 1135,-148 960.95,-124.55 754.06,-106.62 654.44,-98.6"/>
<polygon fill="black" stroke="black" points="654.52,-95.1 644.27,-97.79 653.96,-102.08 654.52,-95.1"/>
</g>
<!-- MATH0056&#45;&gt;MATH0115 -->
<g id="edge23" class="edge">
<title>MATH0056&#45;&gt;MATH0115</title>
<path fill="none" stroke="black" d="M1143.44,-149.03C1140.6,-148.66 1137.78,-148.32 1135,-148 873.7,-118.04 802.15,-150.03 537.5,-111.91"/>
<polygon fill="black" stroke="black" points="538,-108.44 527.6,-110.46 536.99,-115.37 538,-108.44"/>
</g>
<!-- MATH0080 -->
<g id="node18" class="node">
<title>MATH0080</title>
<g id="a_node18"><a xlink:href="https://www.ucl.ac.uk/maths/sites/maths/files/math0080.pdf" xlink:title="Year 3 or 4, term 2">
<polygon fill="white" stroke="#cd1076" stroke-width="5" points="1435,-112 1221,-112 1221,-74 1435,-74 1435,-112"/>
<text text-anchor="middle" x="1328" y="-96.8" font-family="Times,serif" font-size="14.00">MATH0080</text>
<text text-anchor="middle" x="1328" y="-81.8" font-family="Times,serif" font-size="14.00">Waves and Wave Scattering</text>
</a>
</g>
</g>
<!-- MATH0056&#45;&gt;MATH0080 -->
<g id="edge24" class="edge">
<title>MATH0056&#45;&gt;MATH0080</title>
<path fill="none" stroke="black" d="M1262.95,-147.83C1273.67,-138.96 1286.72,-128.16 1298.31,-118.57"/>
<polygon fill="black" stroke="black" points="1300.58,-121.23 1306.05,-112.16 1296.12,-115.84 1300.58,-121.23"/>
</g>
<!-- MATH0079 -->
<g id="node20" class="node">
<title>MATH0079</title>
<g id="a_node20"><a xlink:href="https://www.ucl.ac.uk/maths/sites/maths/files/math0079.pdf" xlink:title="Year 4, term 2">
<polygon fill="white" stroke="#104e8b" stroke-width="5" points="1040,-38 942,-38 942,0 1040,0 1040,-38"/>
<text text-anchor="middle" x="991" y="-22.8" font-family="Times,serif" font-size="14.00">MATH0079</text>
<text text-anchor="middle" x="991" y="-7.8" font-family="Times,serif" font-size="14.00">Cosmology</text>
</a>
</g>
</g>
<!-- MATH0025&#45;&gt;MATH0079 -->
<g id="edge27" class="edge">
<title>MATH0025&#45;&gt;MATH0079</title>
<path fill="none" stroke="black" d="M991,-147.8C991,-122.89 991,-77.89 991,-48.49"/>
<polygon fill="black" stroke="black" points="994.5,-48.43 991,-38.43 987.5,-48.43 994.5,-48.43"/>
</g>
<!-- MATH0077&#45;&gt;MATH0106 -->
<g id="edge26" class="edge">
<title>MATH0077&#45;&gt;MATH0106</title>
<path fill="none" stroke="black" stroke-dasharray="5,2" d="M545.74,-76.31C542.79,-75.49 539.86,-74.72 537,-74 484.33,-60.79 425.39,-48.99 375.22,-39.81"/>
<polygon fill="black" stroke="black" points="375.78,-36.35 365.31,-38.01 374.53,-43.24 375.78,-36.35"/>
</g>
<!-- MATH0078 -->
<g id="node21" class="node">
<title>MATH0078</title>
<g id="a_node21"><a xlink:href="https://www.ucl.ac.uk/maths/sites/maths/files/math0078.pdf" xlink:title="Year 4, term 2">
<polygon fill="white" stroke="#104e8b" stroke-width="5" points="731.5,-38 458.5,-38 458.5,0 731.5,0 731.5,-38"/>
<text text-anchor="middle" x="595" y="-22.8" font-family="Times,serif" font-size="14.00">MATH0078</text>
<text text-anchor="middle" x="595" y="-7.8" font-family="Times,serif" font-size="14.00">Asymptotic Approximation Methods</text>
</a>
</g>
</g>
<!-- MATH0077&#45;&gt;MATH0078 -->
<g id="edge28" class="edge">
<title>MATH0077&#45;&gt;MATH0078</title>
<path fill="none" stroke="black" d="M595,-73.83C595,-66.13 595,-56.97 595,-48.42"/>
<polygon fill="black" stroke="black" points="598.5,-48.41 595,-38.41 591.5,-48.41 598.5,-48.41"/>
</g>
</g>
</svg>
