<?xml version="1.0" encoding="UTF-8" standalone="no"?>
<!DOCTYPE svg PUBLIC "-//W3C//DTD SVG 1.1//EN"
 "http://www.w3.org/Graphics/SVG/1.1/DTD/svg11.dtd">
<!-- Generated by graphviz version 2.43.0 (0)
 -->
<!-- Title: %3 Pages: 1 -->
<svg width="1970pt" height="416pt"
 viewBox="0.00 0.00 1969.50 416.00" xmlns="http://www.w3.org/2000/svg" xmlns:xlink="http://www.w3.org/1999/xlink">
<g id="graph0" class="graph" transform="scale(1 1) rotate(0) translate(4 412)">
<title>%3</title>
<polygon fill="white" stroke="transparent" points="-4,4 -4,-412 1965.5,-412 1965.5,4 -4,4"/>
<!-- MATH0008 -->
<g id="node1" class="node">
<title>MATH0008</title>
<g id="a_node1"><a xlink:href="https://www.ucl.ac.uk/maths/sites/maths/files/math0008.pdf" xlink:title="Year 1, term 1">
<polygon fill="white" stroke="#ffb90f" stroke-width="5" points="257.5,-408 89.5,-408 89.5,-370 257.5,-370 257.5,-408"/>
<text text-anchor="middle" x="173.5" y="-392.8" font-family="Times,serif" font-size="14.00">MATH0008</text>
<text text-anchor="middle" x="173.5" y="-377.8" font-family="Times,serif" font-size="14.00">Applied Mathematics</text>
</a>
</g>
</g>
<!-- MATH0009 -->
<g id="node8" class="node">
<title>MATH0009</title>
<g id="a_node8"><a xlink:href="https://www.ucl.ac.uk/maths/sites/maths/files/math0009.pdf" xlink:title="Year 1, term 2">
<polygon fill="white" stroke="#cd950c" stroke-width="5" points="260.5,-334 86.5,-334 86.5,-296 260.5,-296 260.5,-334"/>
<text text-anchor="middle" x="173.5" y="-318.8" font-family="Times,serif" font-size="14.00">MATH0009</text>
<text text-anchor="middle" x="173.5" y="-303.8" font-family="Times,serif" font-size="14.00">Newtonian Mechanics</text>
</a>
</g>
</g>
<!-- MATH0008&#45;&gt;MATH0009 -->
<g id="edge4" class="edge">
<title>MATH0008&#45;&gt;MATH0009</title>
<g id="a_edge4"><a xlink:title="required prerequisite">
<path fill="none" stroke="black" d="M173.5,-369.83C173.5,-362.13 173.5,-352.97 173.5,-344.42"/>
<polygon fill="black" stroke="black" points="177,-344.41 173.5,-334.41 170,-344.41 177,-344.41"/>
</a>
</g>
</g>
<!-- MATH0005 -->
<g id="node2" class="node">
<title>MATH0005</title>
<g id="a_node2"><a xlink:href="https://www.ucl.ac.uk/maths/sites/maths/files/math0005.pdf" xlink:title="Year 1, term 1">
<polygon fill="white" stroke="#ffb90f" stroke-width="5" points="1692.5,-408 1594.5,-408 1594.5,-370 1692.5,-370 1692.5,-408"/>
<text text-anchor="middle" x="1643.5" y="-392.8" font-family="Times,serif" font-size="14.00">MATH0005</text>
<text text-anchor="middle" x="1643.5" y="-377.8" font-family="Times,serif" font-size="14.00">Algebra 1</text>
</a>
</g>
</g>
<!-- MATH0006 -->
<g id="node6" class="node">
<title>MATH0006</title>
<g id="a_node6"><a xlink:href="https://www.ucl.ac.uk/maths/sites/maths/files/math0006.pdf" xlink:title="Year 1, term 2">
<polygon fill="white" stroke="#cd950c" stroke-width="5" points="1692.5,-334 1594.5,-334 1594.5,-296 1692.5,-296 1692.5,-334"/>
<text text-anchor="middle" x="1643.5" y="-318.8" font-family="Times,serif" font-size="14.00">MATH0006</text>
<text text-anchor="middle" x="1643.5" y="-303.8" font-family="Times,serif" font-size="14.00">Algebra 2</text>
</a>
</g>
</g>
<!-- MATH0005&#45;&gt;MATH0006 -->
<g id="edge2" class="edge">
<title>MATH0005&#45;&gt;MATH0006</title>
<g id="a_edge2"><a xlink:title="required prerequisite">
<path fill="none" stroke="black" d="M1643.5,-369.83C1643.5,-362.13 1643.5,-352.97 1643.5,-344.42"/>
<polygon fill="black" stroke="black" points="1647,-344.41 1643.5,-334.41 1640,-344.41 1647,-344.41"/>
</a>
</g>
</g>
<!-- MATH0003 -->
<g id="node3" class="node">
<title>MATH0003</title>
<g id="a_node3"><a xlink:href="https://www.ucl.ac.uk/maths/sites/maths/files/math0003.pdf" xlink:title="Year 1, term 1">
<polygon fill="white" stroke="#ffb90f" stroke-width="5" points="1467.5,-408 1369.5,-408 1369.5,-370 1467.5,-370 1467.5,-408"/>
<text text-anchor="middle" x="1418.5" y="-392.8" font-family="Times,serif" font-size="14.00">MATH0003</text>
<text text-anchor="middle" x="1418.5" y="-377.8" font-family="Times,serif" font-size="14.00">Analysis 1</text>
</a>
</g>
</g>
<!-- MATH0004 -->
<g id="node7" class="node">
<title>MATH0004</title>
<g id="a_node7"><a xlink:href="https://www.ucl.ac.uk/maths/sites/maths/files/math0004.pdf" xlink:title="Year 1, term 2">
<polygon fill="white" stroke="#cd950c" stroke-width="5" points="1506.5,-334 1408.5,-334 1408.5,-296 1506.5,-296 1506.5,-334"/>
<text text-anchor="middle" x="1457.5" y="-318.8" font-family="Times,serif" font-size="14.00">MATH0004</text>
<text text-anchor="middle" x="1457.5" y="-303.8" font-family="Times,serif" font-size="14.00">Analysis 2</text>
</a>
</g>
</g>
<!-- MATH0003&#45;&gt;MATH0004 -->
<g id="edge3" class="edge">
<title>MATH0003&#45;&gt;MATH0004</title>
<g id="a_edge3"><a xlink:title="required prerequisite">
<path fill="none" stroke="black" d="M1428.34,-369.83C1432.7,-361.79 1437.91,-352.17 1442.72,-343.29"/>
<polygon fill="black" stroke="black" points="1445.84,-344.87 1447.53,-334.41 1439.69,-341.54 1445.84,-344.87"/>
</a>
</g>
</g>
<!-- MATH0013 -->
<g id="node10" class="node">
<title>MATH0013</title>
<g id="a_node10"><a xlink:href="https://www.ucl.ac.uk/maths/sites/maths/files/math0013.pdf" xlink:title="Year 2, term 1">
<polygon fill="white" stroke="#00ff00" stroke-width="5" points="1495,-260 1266,-260 1266,-222 1495,-222 1495,-260"/>
<text text-anchor="middle" x="1380.5" y="-244.8" font-family="Times,serif" font-size="14.00">MATH0013</text>
<text text-anchor="middle" x="1380.5" y="-229.8" font-family="Times,serif" font-size="14.00">Analysis 3 &#45; Complex Analysis</text>
</a>
</g>
</g>
<!-- MATH0003&#45;&gt;MATH0013 -->
<g id="edge7" class="edge">
<title>MATH0003&#45;&gt;MATH0013</title>
<g id="a_edge7"><a xlink:title="required prerequisite">
<path fill="none" stroke="black" d="M1411.37,-369.7C1407.51,-359.34 1402.85,-346.07 1399.5,-334 1393.62,-312.85 1388.68,-288.51 1385.3,-270.18"/>
<polygon fill="black" stroke="black" points="1388.71,-269.38 1383.5,-260.15 1381.82,-270.61 1388.71,-269.38"/>
</a>
</g>
</g>
<!-- MATH0010 -->
<g id="node4" class="node">
<title>MATH0010</title>
<g id="a_node4"><a xlink:href="https://www.ucl.ac.uk/maths/sites/maths/files/math0010.pdf" xlink:title="Year 1, term 1">
<polygon fill="white" stroke="#ffb90f" stroke-width="5" points="472,-408 277,-408 277,-370 472,-370 472,-408"/>
<text text-anchor="middle" x="374.5" y="-392.8" font-family="Times,serif" font-size="14.00">MATH0010</text>
<text text-anchor="middle" x="374.5" y="-377.8" font-family="Times,serif" font-size="14.00">Mathematical Methods 1</text>
</a>
</g>
</g>
<!-- MATH0011 -->
<g id="node5" class="node">
<title>MATH0011</title>
<g id="a_node5"><a xlink:href="https://www.ucl.ac.uk/maths/sites/maths/files/math0011_2.pdf" xlink:title="Year 1, term 2">
<polygon fill="white" stroke="#cd950c" stroke-width="5" points="474,-334 279,-334 279,-296 474,-296 474,-334"/>
<text text-anchor="middle" x="376.5" y="-318.8" font-family="Times,serif" font-size="14.00">MATH0011</text>
<text text-anchor="middle" x="376.5" y="-303.8" font-family="Times,serif" font-size="14.00">Mathematical Methods 2</text>
</a>
</g>
</g>
<!-- MATH0010&#45;&gt;MATH0011 -->
<g id="edge1" class="edge">
<title>MATH0010&#45;&gt;MATH0011</title>
<g id="a_edge1"><a xlink:title="required prerequisite">
<path fill="none" stroke="black" d="M375,-369.83C375.22,-362.13 375.47,-352.97 375.71,-344.42"/>
<polygon fill="black" stroke="black" points="379.21,-344.51 375.99,-334.41 372.21,-344.31 379.21,-344.51"/>
</a>
</g>
</g>
<!-- MATH0010&#45;&gt;MATH0009 -->
<g id="edge5" class="edge">
<title>MATH0010&#45;&gt;MATH0009</title>
<g id="a_edge5"><a xlink:title="required prerequisite">
<path fill="none" stroke="black" d="M324.04,-369.92C296.56,-360.08 262.38,-347.84 233.54,-337.51"/>
<polygon fill="black" stroke="black" points="234.58,-334.16 223.98,-334.08 232.22,-340.75 234.58,-334.16"/>
</a>
</g>
</g>
<!-- MATH0016 -->
<g id="node9" class="node">
<title>MATH0016</title>
<g id="a_node9"><a xlink:href="https://www.ucl.ac.uk/maths/sites/maths/files/math0016.pdf" xlink:title="Year 2, term 1">
<polygon fill="white" stroke="#00ff00" stroke-width="5" points="637,-260 442,-260 442,-222 637,-222 637,-260"/>
<text text-anchor="middle" x="539.5" y="-244.8" font-family="Times,serif" font-size="14.00">MATH0016</text>
<text text-anchor="middle" x="539.5" y="-229.8" font-family="Times,serif" font-size="14.00">Mathematical Methods 3</text>
</a>
</g>
</g>
<!-- MATH0011&#45;&gt;MATH0016 -->
<g id="edge6" class="edge">
<title>MATH0011&#45;&gt;MATH0016</title>
<g id="a_edge6"><a xlink:title="required prerequisite">
<path fill="none" stroke="black" d="M417.63,-295.83C439.43,-286.2 466.39,-274.29 489.4,-264.13"/>
<polygon fill="black" stroke="black" points="490.93,-267.28 498.66,-260.04 488.1,-260.88 490.93,-267.28"/>
</a>
</g>
</g>
<!-- MATH0015 -->
<g id="node12" class="node">
<title>MATH0015</title>
<g id="a_node12"><a xlink:href="https://www.ucl.ac.uk/maths/sites/maths/files/math0015.pdf" xlink:title="Year 2, term 1">
<polygon fill="white" stroke="#00ff00" stroke-width="5" points="324.5,-260 190.5,-260 190.5,-222 324.5,-222 324.5,-260"/>
<text text-anchor="middle" x="257.5" y="-244.8" font-family="Times,serif" font-size="14.00">MATH0015</text>
<text text-anchor="middle" x="257.5" y="-229.8" font-family="Times,serif" font-size="14.00">Fluid Mechanics</text>
</a>
</g>
</g>
<!-- MATH0011&#45;&gt;MATH0015 -->
<g id="edge10" class="edge">
<title>MATH0011&#45;&gt;MATH0015</title>
<g id="a_edge10"><a xlink:title="required prerequisite">
<path fill="none" stroke="black" d="M346.47,-295.83C331.25,-286.62 312.59,-275.33 296.29,-265.47"/>
<polygon fill="black" stroke="black" points="297.89,-262.34 287.52,-260.16 294.26,-268.33 297.89,-262.34"/>
</a>
</g>
</g>
<!-- MATH0020 -->
<g id="node19" class="node">
<title>MATH0020</title>
<g id="a_node19"><a xlink:href="https://www.ucl.ac.uk/maths/sites/maths/files/math0020.pdf" xlink:title="Year 3, term 2">
<polygon fill="white" stroke="#cd3333" stroke-width="5" points="1616,-112 1443,-112 1443,-74 1616,-74 1616,-112"/>
<text text-anchor="middle" x="1529.5" y="-96.8" font-family="Times,serif" font-size="14.00">MATH0020</text>
<text text-anchor="middle" x="1529.5" y="-81.8" font-family="Times,serif" font-size="14.00">Differential Geometry</text>
</a>
</g>
</g>
<!-- MATH0011&#45;&gt;MATH0020 -->
<g id="edge19" class="edge">
<title>MATH0011&#45;&gt;MATH0020</title>
<g id="a_edge19"><a xlink:title="required prerequisite">
<path fill="none" stroke="black" d="M474.11,-298.37C614.98,-275.49 883.32,-230.73 1110.5,-186 1225.6,-163.34 1357.69,-133.73 1442.28,-114.31"/>
<polygon fill="black" stroke="black" points="1443.14,-117.7 1452.1,-112.05 1441.57,-110.88 1443.14,-117.7"/>
</a>
</g>
</g>
<!-- MATH0054 -->
<g id="node22" class="node">
<title>MATH0054</title>
<g id="a_node22"><a xlink:href="https://www.ucl.ac.uk/maths/sites/maths/files/math0054.pdf" xlink:title="Year 3, term 2">
<polygon fill="white" stroke="#cd3333" stroke-width="5" points="161,-112 0,-112 0,-74 161,-74 161,-112"/>
<text text-anchor="middle" x="80.5" y="-96.8" font-family="Times,serif" font-size="14.00">MATH0054</text>
<text text-anchor="middle" x="80.5" y="-81.8" font-family="Times,serif" font-size="14.00">Analytical Dynamics</text>
</a>
</g>
</g>
<!-- MATH0011&#45;&gt;MATH0054 -->
<g id="edge23" class="edge">
<title>MATH0011&#45;&gt;MATH0054</title>
<g id="a_edge23"><a xlink:title="required prerequisite">
<path fill="none" stroke="black" d="M287.25,-295.97C244.42,-286 198.74,-273.03 181.5,-260 168.87,-250.46 120.49,-165.71 95.55,-121.14"/>
<polygon fill="black" stroke="black" points="98.54,-119.31 90.61,-112.28 92.43,-122.72 98.54,-119.31"/>
</a>
</g>
</g>
<!-- MATH0014 -->
<g id="node11" class="node">
<title>MATH0014</title>
<g id="a_node11"><a xlink:href="https://www.ucl.ac.uk/maths/sites/maths/files/math0014.pdf" xlink:title="Year 2, term 1">
<polygon fill="white" stroke="#00ff00" stroke-width="5" points="1773.5,-260 1513.5,-260 1513.5,-222 1773.5,-222 1773.5,-260"/>
<text text-anchor="middle" x="1643.5" y="-244.8" font-family="Times,serif" font-size="14.00">MATH0014</text>
<text text-anchor="middle" x="1643.5" y="-229.8" font-family="Times,serif" font-size="14.00">Algebra 3: Further Linear Algebra</text>
</a>
</g>
</g>
<!-- MATH0006&#45;&gt;MATH0014 -->
<g id="edge9" class="edge">
<title>MATH0006&#45;&gt;MATH0014</title>
<g id="a_edge9"><a xlink:title="required prerequisite">
<path fill="none" stroke="black" d="M1643.5,-295.83C1643.5,-288.13 1643.5,-278.97 1643.5,-270.42"/>
<polygon fill="black" stroke="black" points="1647,-270.41 1643.5,-260.41 1640,-270.41 1647,-270.41"/>
</a>
</g>
</g>
<!-- MATH0004&#45;&gt;MATH0013 -->
<g id="edge8" class="edge">
<title>MATH0004&#45;&gt;MATH0013</title>
<g id="a_edge8"><a xlink:title="recommended prerequisite">
<path fill="none" stroke="black" stroke-dasharray="5,2" d="M1438.07,-295.83C1428.77,-287.13 1417.48,-276.58 1407.37,-267.13"/>
<polygon fill="black" stroke="black" points="1409.62,-264.44 1399.92,-260.16 1404.84,-269.55 1409.62,-264.44"/>
</a>
</g>
</g>
<!-- MATH0051 -->
<g id="node15" class="node">
<title>MATH0051</title>
<g id="a_node15"><a xlink:href="https://www.ucl.ac.uk/maths/sites/maths/files/math0051.pdf" xlink:title="Year 2 or 3, term 2">
<polygon fill="white" stroke="#8ee5ee" stroke-width="5" points="1850.5,-186 1752.5,-186 1752.5,-148 1850.5,-148 1850.5,-186"/>
<text text-anchor="middle" x="1801.5" y="-170.8" font-family="Times,serif" font-size="14.00">MATH0051</text>
<text text-anchor="middle" x="1801.5" y="-155.8" font-family="Times,serif" font-size="14.00">Analysis 4</text>
</a>
</g>
</g>
<!-- MATH0004&#45;&gt;MATH0051 -->
<g id="edge15" class="edge">
<title>MATH0004&#45;&gt;MATH0051</title>
<g id="a_edge15"><a xlink:title="required prerequisite">
<path fill="none" stroke="black" d="M1506.65,-306.56C1596.27,-292.9 1777.54,-264.77 1782.5,-260 1799.42,-243.73 1803.32,-216.68 1803.49,-196.11"/>
<polygon fill="black" stroke="black" points="1806.99,-195.96 1803.29,-186.03 1799.99,-196.1 1806.99,-195.96"/>
</a>
</g>
</g>
<!-- MATH0009&#45;&gt;MATH0015 -->
<g id="edge11" class="edge">
<title>MATH0009&#45;&gt;MATH0015</title>
<g id="a_edge11"><a xlink:title="required prerequisite">
<path fill="none" stroke="black" d="M194.7,-295.83C204.94,-287.05 217.4,-276.37 228.51,-266.85"/>
<polygon fill="black" stroke="black" points="231,-269.33 236.31,-260.16 226.44,-264.01 231,-269.33"/>
</a>
</g>
</g>
<!-- MATH0009&#45;&gt;MATH0054 -->
<g id="edge24" class="edge">
<title>MATH0009&#45;&gt;MATH0054</title>
<g id="a_edge24"><a xlink:title="required prerequisite">
<path fill="none" stroke="black" d="M155.61,-295.83C146.7,-285.93 136.38,-273.05 129.5,-260 105.72,-214.91 91.94,-156.69 85.35,-122.53"/>
<polygon fill="black" stroke="black" points="88.72,-121.53 83.46,-112.34 81.84,-122.81 88.72,-121.53"/>
</a>
</g>
</g>
<!-- MATH0056 -->
<g id="node13" class="node">
<title>MATH0056</title>
<g id="a_node13"><a xlink:href="https://www.ucl.ac.uk/maths/sites/maths/files/math0056.pdf" xlink:title="Year 2 or 3, term 2">
<polygon fill="white" stroke="#8ee5ee" stroke-width="5" points="1101,-186 906,-186 906,-148 1101,-148 1101,-186"/>
<text text-anchor="middle" x="1003.5" y="-170.8" font-family="Times,serif" font-size="14.00">MATH0056</text>
<text text-anchor="middle" x="1003.5" y="-155.8" font-family="Times,serif" font-size="14.00">Mathematical Methods 4</text>
</a>
</g>
</g>
<!-- MATH0016&#45;&gt;MATH0056 -->
<g id="edge13" class="edge">
<title>MATH0016&#45;&gt;MATH0056</title>
<g id="a_edge13"><a xlink:title="required prerequisite">
<path fill="none" stroke="black" d="M637.3,-225.28C708.18,-214.55 806.3,-199.58 892.5,-186 893.58,-185.83 894.68,-185.66 895.77,-185.48"/>
<polygon fill="black" stroke="black" points="896.42,-188.92 905.75,-183.9 895.33,-182.01 896.42,-188.92"/>
</a>
</g>
</g>
<!-- MATH0055 -->
<g id="node14" class="node">
<title>MATH0055</title>
<g id="a_node14"><a xlink:href="https://www.ucl.ac.uk/maths/sites/maths/files/math0055_3.pdf" xlink:title="Year 2 or 3, term 2">
<polygon fill="white" stroke="#8ee5ee" stroke-width="5" points="850.5,-186 426.5,-186 426.5,-148 850.5,-148 850.5,-186"/>
<text text-anchor="middle" x="638.5" y="-170.8" font-family="Times,serif" font-size="14.00">MATH0055</text>
<text text-anchor="middle" x="638.5" y="-155.8" font-family="Times,serif" font-size="14.00">Mathematics of Electromagnetism and Special Relativity</text>
</a>
</g>
</g>
<!-- MATH0016&#45;&gt;MATH0055 -->
<g id="edge14" class="edge">
<title>MATH0016&#45;&gt;MATH0055</title>
<g id="a_edge14"><a xlink:title="required prerequisite">
<path fill="none" stroke="black" d="M564.48,-221.83C576.79,-212.88 591.81,-201.96 605.09,-192.3"/>
<polygon fill="black" stroke="black" points="607.5,-194.88 613.53,-186.16 603.38,-189.21 607.5,-194.88"/>
</a>
</g>
</g>
<!-- MATH0025 -->
<g id="node18" class="node">
<title>MATH0025</title>
<g id="a_node18"><a xlink:href="https://www.ucl.ac.uk/maths/sites/maths/files/math0025.pdf" xlink:title="Year 3, term 1">
<polygon fill="white" stroke="#ff4040" stroke-width="5" points="929,-112 660,-112 660,-74 929,-74 929,-112"/>
<text text-anchor="middle" x="794.5" y="-96.8" font-family="Times,serif" font-size="14.00">MATH0025</text>
<text text-anchor="middle" x="794.5" y="-81.8" font-family="Times,serif" font-size="14.00">Mathematics for General Relativity</text>
</a>
</g>
</g>
<!-- MATH0016&#45;&gt;MATH0025 -->
<g id="edge18" class="edge">
<title>MATH0016&#45;&gt;MATH0025</title>
<g id="a_edge18"><a xlink:title="required prerequisite">
<path fill="none" stroke="black" d="M637.27,-236.94C720.66,-232.02 831.4,-219.24 859.5,-186 870.4,-173.1 866.68,-163.29 859.5,-148 854.04,-136.37 844.71,-126.37 834.79,-118.26"/>
<polygon fill="black" stroke="black" points="836.86,-115.43 826.78,-112.16 832.62,-121 836.86,-115.43"/>
</a>
</g>
</g>
<!-- MATH0024 -->
<g id="node21" class="node">
<title>MATH0024</title>
<g id="a_node21"><a xlink:href="https://www.ucl.ac.uk/maths/sites/maths/files/math0024.pdf" xlink:title="Year 3, term 2">
<polygon fill="white" stroke="#cd3333" stroke-width="5" points="407.5,-112 255.5,-112 255.5,-74 407.5,-74 407.5,-112"/>
<text text-anchor="middle" x="331.5" y="-96.8" font-family="Times,serif" font-size="14.00">MATH0024</text>
<text text-anchor="middle" x="331.5" y="-81.8" font-family="Times,serif" font-size="14.00">Geophysical Fluids</text>
</a>
</g>
</g>
<!-- MATH0016&#45;&gt;MATH0024 -->
<g id="edge22" class="edge">
<title>MATH0016&#45;&gt;MATH0024</title>
<g id="a_edge22"><a xlink:title="required prerequisite">
<path fill="none" stroke="black" d="M478.94,-221.98C455.61,-213.32 429.53,-201.41 408.5,-186 384.06,-168.09 362.53,-140.83 348.5,-120.62"/>
<polygon fill="black" stroke="black" points="351.28,-118.49 342.78,-112.17 345.48,-122.41 351.28,-118.49"/>
</a>
</g>
</g>
<!-- MATH0077 -->
<g id="node23" class="node">
<title>MATH0077</title>
<g id="a_node23"><a xlink:href="https://www.ucl.ac.uk/maths/sites/maths/files/math0077.pdf" xlink:title="Year 3 or 4, term 1">
<polygon fill="white" stroke="#ff1493" stroke-width="5" points="523.5,-112 425.5,-112 425.5,-74 523.5,-74 523.5,-112"/>
<text text-anchor="middle" x="474.5" y="-96.8" font-family="Times,serif" font-size="14.00">MATH0077</text>
<text text-anchor="middle" x="474.5" y="-81.8" font-family="Times,serif" font-size="14.00">Real Fluids</text>
</a>
</g>
</g>
<!-- MATH0016&#45;&gt;MATH0077 -->
<g id="edge26" class="edge">
<title>MATH0016&#45;&gt;MATH0077</title>
<g id="a_edge26"><a xlink:title="required prerequisite">
<path fill="none" stroke="black" d="M463.3,-221.99C445.3,-214 428.24,-202.5 417.5,-186 408.29,-171.85 410.83,-163.51 417.5,-148 422.25,-136.96 430.49,-127.12 439.25,-118.96"/>
<polygon fill="black" stroke="black" points="441.75,-121.43 447.01,-112.24 437.16,-116.14 441.75,-121.43"/>
</a>
</g>
</g>
<!-- MATH0013&#45;&gt;MATH0056 -->
<g id="edge12" class="edge">
<title>MATH0013&#45;&gt;MATH0056</title>
<g id="a_edge12"><a xlink:title="required prerequisite">
<path fill="none" stroke="black" d="M1285.85,-221.92C1231.64,-211.57 1163.51,-198.56 1107.76,-187.91"/>
<polygon fill="black" stroke="black" points="1108.34,-184.46 1097.86,-186.02 1107.02,-191.33 1108.34,-184.46"/>
</a>
</g>
</g>
<!-- MATH0118 -->
<g id="node24" class="node">
<title>MATH0118</title>
<g id="a_node24"><a xlink:href="https://www.ucl.ac.uk/maths/sites/maths/files/math0118.pdf" xlink:title="Year 3 or 4, term 1">
<polygon fill="white" stroke="#ff1493" stroke-width="5" points="1425,-112 1140,-112 1140,-74 1425,-74 1425,-112"/>
<text text-anchor="middle" x="1282.5" y="-96.8" font-family="Times,serif" font-size="14.00">MATH0118</text>
<text text-anchor="middle" x="1282.5" y="-81.8" font-family="Times,serif" font-size="14.00">Mathematics for Quantum Mechanics</text>
</a>
</g>
</g>
<!-- MATH0014&#45;&gt;MATH0118 -->
<g id="edge29" class="edge">
<title>MATH0014&#45;&gt;MATH0118</title>
<g id="a_edge29"><a xlink:title="required prerequisite">
<path fill="none" stroke="black" d="M1598.87,-221.95C1532.43,-195.08 1407.7,-144.64 1336.31,-115.76"/>
<polygon fill="black" stroke="black" points="1337.61,-112.51 1327.03,-112.01 1334.98,-119 1337.61,-112.51"/>
</a>
</g>
</g>
<!-- MATH0015&#45;&gt;MATH0024 -->
<g id="edge21" class="edge">
<title>MATH0015&#45;&gt;MATH0024</title>
<g id="a_edge21"><a xlink:title="required prerequisite">
<path fill="none" stroke="black" d="M266.72,-221.8C279.46,-196.67 302.56,-151.1 317.45,-121.72"/>
<polygon fill="black" stroke="black" points="320.76,-122.93 322.16,-112.43 314.52,-119.76 320.76,-122.93"/>
</a>
</g>
</g>
<!-- MATH0015&#45;&gt;MATH0077 -->
<g id="edge25" class="edge">
<title>MATH0015&#45;&gt;MATH0077</title>
<g id="a_edge25"><a xlink:title="required prerequisite">
<path fill="none" stroke="black" d="M284.54,-221.8C323.55,-195.56 395.67,-147.04 438.94,-117.92"/>
<polygon fill="black" stroke="black" points="441.11,-120.68 447.46,-112.2 437.21,-114.87 441.11,-120.68"/>
</a>
</g>
</g>
<!-- MATH0115 -->
<g id="node25" class="node">
<title>MATH0115</title>
<g id="a_node25"><a xlink:href="https://www.ucl.ac.uk/maths/sites/maths/files/math0115_syllabus.pdf" xlink:title="Year 3 or 4, term 2">
<polygon fill="white" stroke="#cd1076" stroke-width="5" points="754,-38 621,-38 621,0 754,0 754,-38"/>
<text text-anchor="middle" x="687.5" y="-22.8" font-family="Times,serif" font-size="14.00">MATH0115</text>
<text text-anchor="middle" x="687.5" y="-7.8" font-family="Times,serif" font-size="14.00">Solid Mechanics</text>
</a>
</g>
</g>
<!-- MATH0015&#45;&gt;MATH0115 -->
<g id="edge30" class="edge">
<title>MATH0015&#45;&gt;MATH0115</title>
<g id="a_edge30"><a xlink:title="required prerequisite">
<path fill="none" stroke="black" d="M248.8,-221.77C234.07,-187.92 209.26,-115.09 246.5,-74 299.31,-15.73 515.16,-48.88 610.9,-37.72"/>
<polygon fill="black" stroke="black" points="611.46,-41.17 620.87,-36.31 610.48,-34.24 611.46,-41.17"/>
</a>
</g>
</g>
<!-- MATH0106 -->
<g id="node28" class="node">
<title>MATH0106</title>
<g id="a_node28"><a xlink:href="https://www.ucl.ac.uk/maths/sites/maths/files/math0106.pdf" xlink:title="Year 4, term 1">
<polygon fill="white" stroke="#1c86ee" stroke-width="5" points="312,-38 67,-38 67,0 312,0 312,-38"/>
<text text-anchor="middle" x="189.5" y="-22.8" font-family="Times,serif" font-size="14.00">MATH0106</text>
<text text-anchor="middle" x="189.5" y="-7.8" font-family="Times,serif" font-size="14.00">Industrial and Geological Fluids</text>
</a>
</g>
</g>
<!-- MATH0015&#45;&gt;MATH0106 -->
<g id="edge36" class="edge">
<title>MATH0015&#45;&gt;MATH0106</title>
<g id="a_edge36"><a xlink:title="required prerequisite">
<path fill="none" stroke="black" d="M238.38,-221.72C229.37,-211.98 219.33,-199.29 213.5,-186 193.64,-140.77 189.57,-82.59 189.07,-48.48"/>
<polygon fill="black" stroke="black" points="192.57,-48.29 189.02,-38.3 185.57,-48.32 192.57,-48.29"/>
</a>
</g>
</g>
<!-- MATH0027 -->
<g id="node20" class="node">
<title>MATH0027</title>
<g id="a_node20"><a xlink:href="https://www.ucl.ac.uk/maths/sites/maths/files/math0027.pdf" xlink:title="Year 3, term 2">
<polygon fill="white" stroke="#cd3333" stroke-width="5" points="1121.5,-112 1023.5,-112 1023.5,-74 1121.5,-74 1121.5,-112"/>
<text text-anchor="middle" x="1072.5" y="-96.8" font-family="Times,serif" font-size="14.00">MATH0027</text>
<text text-anchor="middle" x="1072.5" y="-81.8" font-family="Times,serif" font-size="14.00">Methods 5</text>
</a>
</g>
</g>
<!-- MATH0056&#45;&gt;MATH0027 -->
<g id="edge20" class="edge">
<title>MATH0056&#45;&gt;MATH0027</title>
<g id="a_edge20"><a xlink:title="required prerequisite">
<path fill="none" stroke="black" d="M1020.91,-147.83C1029.02,-139.37 1038.82,-129.15 1047.68,-119.9"/>
<polygon fill="black" stroke="black" points="1050.46,-122.05 1054.85,-112.41 1045.41,-117.21 1050.46,-122.05"/>
</a>
</g>
</g>
<!-- MATH0056&#45;&gt;MATH0077 -->
<g id="edge27" class="edge">
<title>MATH0056&#45;&gt;MATH0077</title>
<g id="a_edge27"><a xlink:title="required prerequisite">
<path fill="none" stroke="black" d="M905.86,-152.71C796.91,-137.88 624.13,-114.36 533.86,-102.08"/>
<polygon fill="black" stroke="black" points="534.18,-98.59 523.79,-100.71 533.23,-105.53 534.18,-98.59"/>
</a>
</g>
</g>
<!-- MATH0056&#45;&gt;MATH0118 -->
<g id="edge28" class="edge">
<title>MATH0056&#45;&gt;MATH0118</title>
<g id="a_edge28"><a xlink:title="required prerequisite">
<path fill="none" stroke="black" d="M1073.54,-147.92C1112.76,-137.8 1161.81,-125.14 1202.54,-114.64"/>
<polygon fill="black" stroke="black" points="1203.62,-117.97 1212.43,-112.08 1201.87,-111.19 1203.62,-117.97"/>
</a>
</g>
</g>
<!-- MATH0056&#45;&gt;MATH0115 -->
<g id="edge31" class="edge">
<title>MATH0056&#45;&gt;MATH0115</title>
<g id="a_edge31"><a xlink:title="required prerequisite">
<path fill="none" stroke="black" d="M995.84,-147.99C985.86,-126.8 966.32,-92.2 938.5,-74 874.64,-32.23 843.51,-53.33 764.13,-37.98"/>
<polygon fill="black" stroke="black" points="764.71,-34.52 754.2,-35.92 763.28,-41.38 764.71,-34.52"/>
</a>
</g>
</g>
<!-- MATH0080 -->
<g id="node27" class="node">
<title>MATH0080</title>
<g id="a_node27"><a xlink:href="https://www.ucl.ac.uk/maths/sites/maths/files/math0080.pdf" xlink:title="Year 3 or 4, term 2">
<polygon fill="white" stroke="#cd1076" stroke-width="5" points="1102.5,-38 888.5,-38 888.5,0 1102.5,0 1102.5,-38"/>
<text text-anchor="middle" x="995.5" y="-22.8" font-family="Times,serif" font-size="14.00">MATH0080</text>
<text text-anchor="middle" x="995.5" y="-7.8" font-family="Times,serif" font-size="14.00">Waves and Wave Scattering</text>
</a>
</g>
</g>
<!-- MATH0056&#45;&gt;MATH0080 -->
<g id="edge35" class="edge">
<title>MATH0056&#45;&gt;MATH0080</title>
<g id="a_edge35"><a xlink:title="required prerequisite">
<path fill="none" stroke="black" d="M1002.5,-147.8C1001.14,-122.89 998.67,-77.89 997.06,-48.49"/>
<polygon fill="black" stroke="black" points="1000.55,-48.22 996.51,-38.43 993.56,-48.6 1000.55,-48.22"/>
</a>
</g>
</g>
<!-- MATH0017 -->
<g id="node16" class="node">
<title>MATH0017</title>
<g id="a_node16"><a xlink:href="https://www.ucl.ac.uk/maths/sites/maths/files/math0017.pdf" xlink:title="Year 3, term 1">
<polygon fill="white" stroke="#ff4040" stroke-width="5" points="1767,-112 1634,-112 1634,-74 1767,-74 1767,-112"/>
<text text-anchor="middle" x="1700.5" y="-96.8" font-family="Times,serif" font-size="14.00">MATH0017</text>
<text text-anchor="middle" x="1700.5" y="-81.8" font-family="Times,serif" font-size="14.00">Measure Theory</text>
</a>
</g>
</g>
<!-- MATH0051&#45;&gt;MATH0017 -->
<g id="edge16" class="edge">
<title>MATH0051&#45;&gt;MATH0017</title>
<g id="a_edge16"><a xlink:title="required prerequisite">
<path fill="none" stroke="black" d="M1776.01,-147.83C1763.33,-138.79 1747.84,-127.75 1734.19,-118.02"/>
<polygon fill="black" stroke="black" points="1736.15,-115.12 1725.98,-112.16 1732.09,-120.82 1736.15,-115.12"/>
</a>
</g>
</g>
<!-- MATH0019 -->
<g id="node17" class="node">
<title>MATH0019</title>
<g id="a_node17"><a xlink:href="https://www.ucl.ac.uk/maths/sites/maths/files/math0019.pdf" xlink:title="Year 3, term 1">
<polygon fill="white" stroke="#ff4040" stroke-width="5" points="1961.5,-112 1785.5,-112 1785.5,-74 1961.5,-74 1961.5,-112"/>
<text text-anchor="middle" x="1873.5" y="-96.8" font-family="Times,serif" font-size="14.00">MATH0019</text>
<text text-anchor="middle" x="1873.5" y="-81.8" font-family="Times,serif" font-size="14.00">Multivariable Analysis</text>
</a>
</g>
</g>
<!-- MATH0051&#45;&gt;MATH0019 -->
<g id="edge17" class="edge">
<title>MATH0051&#45;&gt;MATH0019</title>
<g id="a_edge17"><a xlink:title="required prerequisite">
<path fill="none" stroke="black" d="M1819.67,-147.83C1828.22,-139.28 1838.56,-128.94 1847.88,-119.62"/>
<polygon fill="black" stroke="black" points="1850.49,-121.96 1855.09,-112.41 1845.54,-117.01 1850.49,-121.96"/>
</a>
</g>
</g>
<!-- MATH0119 -->
<g id="node26" class="node">
<title>MATH0119</title>
<g id="a_node26"><a xlink:href="https://www.ucl.ac.uk/maths/sites/maths/files/math0119.pdf" xlink:title="Year 3 or 4, term 2">
<polygon fill="white" stroke="#cd1076" stroke-width="5" points="1779,-38 1622,-38 1622,0 1779,0 1779,-38"/>
<text text-anchor="middle" x="1700.5" y="-22.8" font-family="Times,serif" font-size="14.00">MATH0119</text>
<text text-anchor="middle" x="1700.5" y="-7.8" font-family="Times,serif" font-size="14.00">Dynamical Systems</text>
</a>
</g>
</g>
<!-- MATH0017&#45;&gt;MATH0119 -->
<g id="edge32" class="edge">
<title>MATH0017&#45;&gt;MATH0119</title>
<g id="a_edge32"><a xlink:title="required prerequisite">
<path fill="none" stroke="black" d="M1700.5,-73.83C1700.5,-66.13 1700.5,-56.97 1700.5,-48.42"/>
<polygon fill="black" stroke="black" points="1704,-48.41 1700.5,-38.41 1697,-48.41 1704,-48.41"/>
</a>
</g>
</g>
<!-- MATH0019&#45;&gt;MATH0119 -->
<g id="edge33" class="edge">
<title>MATH0019&#45;&gt;MATH0119</title>
<g id="a_edge33"><a xlink:title="recommended prerequisite">
<path fill="none" stroke="black" stroke-dasharray="5,2" d="M1829.84,-73.83C1806.6,-64.16 1777.84,-52.19 1753.35,-41.99"/>
<polygon fill="black" stroke="black" points="1754.42,-38.65 1743.84,-38.04 1751.73,-45.11 1754.42,-38.65"/>
</a>
</g>
</g>
<!-- MATH0079 -->
<g id="node30" class="node">
<title>MATH0079</title>
<g id="a_node30"><a xlink:href="https://www.ucl.ac.uk/maths/sites/maths/files/math0079.pdf" xlink:title="Year 4, term 2">
<polygon fill="white" stroke="#1874cd" stroke-width="5" points="870.5,-38 772.5,-38 772.5,0 870.5,0 870.5,-38"/>
<text text-anchor="middle" x="821.5" y="-22.8" font-family="Times,serif" font-size="14.00">MATH0079</text>
<text text-anchor="middle" x="821.5" y="-7.8" font-family="Times,serif" font-size="14.00">Cosmology</text>
</a>
</g>
</g>
<!-- MATH0025&#45;&gt;MATH0079 -->
<g id="edge39" class="edge">
<title>MATH0025&#45;&gt;MATH0079</title>
<g id="a_edge39"><a xlink:title="required prerequisite">
<path fill="none" stroke="black" d="M801.31,-73.83C804.26,-65.96 807.79,-56.57 811.06,-47.85"/>
<polygon fill="black" stroke="black" points="814.36,-49.01 814.6,-38.41 807.81,-46.55 814.36,-49.01"/>
</a>
</g>
</g>
<!-- MATH0020&#45;&gt;MATH0119 -->
<g id="edge34" class="edge">
<title>MATH0020&#45;&gt;MATH0119</title>
<g id="a_edge34"><a xlink:title="recommended prerequisite">
<path fill="none" stroke="black" stroke-dasharray="5,2" d="M1572.65,-73.83C1595.62,-64.16 1624.05,-52.19 1648.26,-41.99"/>
<polygon fill="black" stroke="black" points="1649.8,-45.14 1657.66,-38.04 1647.09,-38.69 1649.8,-45.14"/>
</a>
</g>
</g>
<!-- MATH0077&#45;&gt;MATH0106 -->
<g id="edge37" class="edge">
<title>MATH0077&#45;&gt;MATH0106</title>
<g id="a_edge37"><a xlink:title="recommended prerequisite">
<path fill="none" stroke="black" stroke-dasharray="5,2" d="M425.21,-76.45C422.27,-75.6 419.35,-74.78 416.5,-74 372.19,-61.87 322.59,-49.89 281.08,-40.31"/>
<polygon fill="black" stroke="black" points="281.79,-36.88 271.26,-38.05 280.22,-43.7 281.79,-36.88"/>
</a>
</g>
</g>
<!-- MATH0078 -->
<g id="node29" class="node">
<title>MATH0078</title>
<g id="a_node29"><a xlink:href="https://www.ucl.ac.uk/maths/sites/maths/files/math0078.pdf" xlink:title="Year 4, term 2">
<polygon fill="white" stroke="#1874cd" stroke-width="5" points="603,-38 330,-38 330,0 603,0 603,-38"/>
<text text-anchor="middle" x="466.5" y="-22.8" font-family="Times,serif" font-size="14.00">MATH0078</text>
<text text-anchor="middle" x="466.5" y="-7.8" font-family="Times,serif" font-size="14.00">Asymptotic Approximation Methods</text>
</a>
</g>
</g>
<!-- MATH0077&#45;&gt;MATH0078 -->
<g id="edge38" class="edge">
<title>MATH0077&#45;&gt;MATH0078</title>
<g id="a_edge38"><a xlink:title="required prerequisite">
<path fill="none" stroke="black" d="M472.48,-73.83C471.63,-66.13 470.61,-56.97 469.66,-48.42"/>
<polygon fill="black" stroke="black" points="473.13,-47.97 468.55,-38.41 466.17,-48.74 473.13,-47.97"/>
</a>
</g>
</g>
</g>
</svg>
