<?xml version="1.0" encoding="UTF-8" standalone="no"?>
<!DOCTYPE svg PUBLIC "-//W3C//DTD SVG 1.1//EN"
 "http://www.w3.org/Graphics/SVG/1.1/DTD/svg11.dtd">
<!-- Generated by graphviz version 12.2.1 (0)
 -->
<!-- Pages: 1 -->
<svg width="1970pt" height="443pt"
 viewBox="0.00 0.00 1970.25 443.00" xmlns="http://www.w3.org/2000/svg" xmlns:xlink="http://www.w3.org/1999/xlink">
<g id="graph0" class="graph" transform="scale(1 1) rotate(0) translate(4 439)">
<polygon fill="white" stroke="none" points="-4,4 -4,-439 1966.25,-439 1966.25,4 -4,4"/>
<!-- MATH0003 -->
<g id="node1" class="node">
<title>MATH0003</title>
<g id="a_node1"><a xlink:href="https://www.ucl.ac.uk/maths/sites/maths/files/math0003.pdf" xlink:title="Year 1, term 1">
<polygon fill="white" stroke="#ffb90f" stroke-width="5" points="554.38,-435 457.38,-435 457.38,-392.5 554.38,-392.5 554.38,-435"/>
<text text-anchor="middle" x="505.88" y="-417.7" font-family="Times,serif" font-size="14.00">MATH0003</text>
<text text-anchor="middle" x="505.88" y="-400.45" font-family="Times,serif" font-size="14.00">Analysis 1</text>
</a>
</g>
</g>
<!-- MATH0004 -->
<g id="node6" class="node">
<title>MATH0004</title>
<g id="a_node6"><a xlink:href="https://www.ucl.ac.uk/maths/sites/maths/files/math0004.pdf" xlink:title="Year 1, term 2">
<polygon fill="white" stroke="#cd950c" stroke-width="5" points="516.38,-356.5 419.38,-356.5 419.38,-314 516.38,-314 516.38,-356.5"/>
<text text-anchor="middle" x="467.88" y="-339.2" font-family="Times,serif" font-size="14.00">MATH0004</text>
<text text-anchor="middle" x="467.88" y="-321.95" font-family="Times,serif" font-size="14.00">Analysis 2</text>
</a>
</g>
</g>
<!-- MATH0003&#45;&gt;MATH0004 -->
<g id="edge2" class="edge">
<title>MATH0003&#45;&gt;MATH0004</title>
<path fill="none" stroke="black" d="M494.68,-390.21C491.38,-383.58 487.71,-376.18 484.17,-369.04"/>
<polygon fill="black" stroke="black" points="487.38,-367.65 479.8,-360.25 481.11,-370.76 487.38,-367.65"/>
</g>
<!-- MATH0013 -->
<g id="node12" class="node">
<title>MATH0013</title>
<g id="a_node12"><a xlink:href="https://www.ucl.ac.uk/maths/sites/maths/files/math0013.pdf" xlink:title="Year 2, term 1">
<polygon fill="white" stroke="#00ff00" stroke-width="5" points="659,-278 430.75,-278 430.75,-235.5 659,-235.5 659,-278"/>
<text text-anchor="middle" x="544.88" y="-260.7" font-family="Times,serif" font-size="14.00">MATH0013</text>
<text text-anchor="middle" x="544.88" y="-243.45" font-family="Times,serif" font-size="14.00">Analysis 3 &#45; Complex Analysis</text>
</a>
</g>
</g>
<!-- MATH0003&#45;&gt;MATH0013 -->
<g id="edge10" class="edge">
<title>MATH0003&#45;&gt;MATH0013</title>
<path fill="none" stroke="black" d="M514.85,-390.01C518.62,-379.87 522.83,-367.7 525.88,-356.5 531.69,-335.16 536.4,-310.75 539.68,-291.54"/>
<polygon fill="black" stroke="black" points="543.11,-292.26 541.28,-281.82 536.2,-291.12 543.11,-292.26"/>
</g>
<!-- MATH0010 -->
<g id="node2" class="node">
<title>MATH0010</title>
<g id="a_node2"><a xlink:href="https://www.ucl.ac.uk/maths/sites/maths/files/math0010.pdf" xlink:title="Year 1, term 1">
<polygon fill="white" stroke="#ffb90f" stroke-width="5" points="1571.12,-435 1376.62,-435 1376.62,-392.5 1571.12,-392.5 1571.12,-435"/>
<text text-anchor="middle" x="1473.88" y="-417.7" font-family="Times,serif" font-size="14.00">MATH0010</text>
<text text-anchor="middle" x="1473.88" y="-400.45" font-family="Times,serif" font-size="14.00">Mathematical Methods 1</text>
</a>
</g>
</g>
<!-- MATH0011 -->
<g id="node5" class="node">
<title>MATH0011</title>
<g id="a_node5"><a xlink:href="https://www.ucl.ac.uk/maths/sites/maths/files/math0011_2.pdf" xlink:title="Year 1, term 2">
<polygon fill="white" stroke="#cd950c" stroke-width="5" points="1570.12,-356.5 1375.62,-356.5 1375.62,-314 1570.12,-314 1570.12,-356.5"/>
<text text-anchor="middle" x="1472.88" y="-339.2" font-family="Times,serif" font-size="14.00">MATH0011</text>
<text text-anchor="middle" x="1472.88" y="-321.95" font-family="Times,serif" font-size="14.00">Mathematical Methods 2</text>
</a>
</g>
</g>
<!-- MATH0010&#45;&gt;MATH0011 -->
<g id="edge1" class="edge">
<title>MATH0010&#45;&gt;MATH0011</title>
<path fill="none" stroke="black" d="M1473.58,-390.21C1473.5,-383.89 1473.41,-376.87 1473.32,-370.04"/>
<polygon fill="black" stroke="black" points="1476.82,-370.36 1473.19,-360.41 1469.82,-370.45 1476.82,-370.36"/>
</g>
<!-- MATH0009 -->
<g id="node7" class="node">
<title>MATH0009</title>
<g id="a_node7"><a xlink:href="https://www.ucl.ac.uk/maths/sites/maths/files/math0009.pdf" xlink:title="Year 1, term 2">
<polygon fill="white" stroke="#cd950c" stroke-width="5" points="1761.62,-356.5 1588.12,-356.5 1588.12,-314 1761.62,-314 1761.62,-356.5"/>
<text text-anchor="middle" x="1674.88" y="-339.2" font-family="Times,serif" font-size="14.00">MATH0009</text>
<text text-anchor="middle" x="1674.88" y="-321.95" font-family="Times,serif" font-size="14.00">Newtonian Mechanics</text>
</a>
</g>
</g>
<!-- MATH0010&#45;&gt;MATH0009 -->
<g id="edge4" class="edge">
<title>MATH0010&#45;&gt;MATH0009</title>
<path fill="none" stroke="black" d="M1533.64,-390C1556.02,-381.49 1581.64,-371.74 1604.86,-362.9"/>
<polygon fill="black" stroke="black" points="1605.83,-366.27 1613.93,-359.45 1603.34,-359.73 1605.83,-366.27"/>
</g>
<!-- MATH0005 -->
<g id="node3" class="node">
<title>MATH0005</title>
<g id="a_node3"><a xlink:href="https://www.ucl.ac.uk/maths/sites/maths/files/math0005.pdf" xlink:title="Year 1, term 1">
<polygon fill="white" stroke="#ffb90f" stroke-width="5" points="331.38,-435 234.38,-435 234.38,-392.5 331.38,-392.5 331.38,-435"/>
<text text-anchor="middle" x="282.88" y="-417.7" font-family="Times,serif" font-size="14.00">MATH0005</text>
<text text-anchor="middle" x="282.88" y="-400.45" font-family="Times,serif" font-size="14.00">Algebra 1</text>
</a>
</g>
</g>
<!-- MATH0006 -->
<g id="node8" class="node">
<title>MATH0006</title>
<g id="a_node8"><a xlink:href="https://www.ucl.ac.uk/maths/sites/maths/files/math0006.pdf" xlink:title="Year 1, term 2">
<polygon fill="white" stroke="#cd950c" stroke-width="5" points="331.38,-356.5 234.38,-356.5 234.38,-314 331.38,-314 331.38,-356.5"/>
<text text-anchor="middle" x="282.88" y="-339.2" font-family="Times,serif" font-size="14.00">MATH0006</text>
<text text-anchor="middle" x="282.88" y="-321.95" font-family="Times,serif" font-size="14.00">Algebra 2</text>
</a>
</g>
</g>
<!-- MATH0005&#45;&gt;MATH0006 -->
<g id="edge5" class="edge">
<title>MATH0005&#45;&gt;MATH0006</title>
<path fill="none" stroke="black" d="M282.88,-390.21C282.88,-383.89 282.88,-376.87 282.88,-370.04"/>
<polygon fill="black" stroke="black" points="286.38,-370.41 282.88,-360.41 279.38,-370.41 286.38,-370.41"/>
</g>
<!-- MATH0008 -->
<g id="node4" class="node">
<title>MATH0008</title>
<g id="a_node4"><a xlink:href="https://www.ucl.ac.uk/maths/sites/maths/files/math0008.pdf" xlink:title="Year 1, term 1">
<polygon fill="white" stroke="#ffb90f" stroke-width="5" points="1758.62,-435 1591.12,-435 1591.12,-392.5 1758.62,-392.5 1758.62,-435"/>
<text text-anchor="middle" x="1674.88" y="-417.7" font-family="Times,serif" font-size="14.00">MATH0008</text>
<text text-anchor="middle" x="1674.88" y="-400.45" font-family="Times,serif" font-size="14.00">Applied Mathematics</text>
</a>
</g>
</g>
<!-- MATH0008&#45;&gt;MATH0009 -->
<g id="edge3" class="edge">
<title>MATH0008&#45;&gt;MATH0009</title>
<path fill="none" stroke="black" d="M1674.88,-390.21C1674.88,-383.89 1674.88,-376.87 1674.88,-370.04"/>
<polygon fill="black" stroke="black" points="1678.38,-370.41 1674.88,-360.41 1671.38,-370.41 1678.38,-370.41"/>
</g>
<!-- MATH0016 -->
<g id="node9" class="node">
<title>MATH0016</title>
<g id="a_node9"><a xlink:href="https://www.ucl.ac.uk/maths/sites/maths/files/math0016.pdf" xlink:title="Year 2, term 1">
<polygon fill="white" stroke="#00ff00" stroke-width="5" points="1486.12,-278 1291.62,-278 1291.62,-235.5 1486.12,-235.5 1486.12,-278"/>
<text text-anchor="middle" x="1388.88" y="-260.7" font-family="Times,serif" font-size="14.00">MATH0016</text>
<text text-anchor="middle" x="1388.88" y="-243.45" font-family="Times,serif" font-size="14.00">Mathematical Methods 3</text>
</a>
</g>
</g>
<!-- MATH0011&#45;&gt;MATH0016 -->
<g id="edge6" class="edge">
<title>MATH0011&#45;&gt;MATH0016</title>
<path fill="none" stroke="black" d="M1448.13,-311.71C1440,-304.31 1430.82,-295.95 1422.16,-288.07"/>
<polygon fill="black" stroke="black" points="1424.61,-285.56 1414.86,-281.41 1419.89,-290.73 1424.61,-285.56"/>
</g>
<!-- MATH0015 -->
<g id="node11" class="node">
<title>MATH0015</title>
<g id="a_node11"><a xlink:href="https://www.ucl.ac.uk/maths/sites/maths/files/math0015.pdf" xlink:title="Year 2, term 1">
<polygon fill="white" stroke="#00ff00" stroke-width="5" points="1689.38,-278 1556.38,-278 1556.38,-235.5 1689.38,-235.5 1689.38,-278"/>
<text text-anchor="middle" x="1622.88" y="-260.7" font-family="Times,serif" font-size="14.00">MATH0015</text>
<text text-anchor="middle" x="1622.88" y="-243.45" font-family="Times,serif" font-size="14.00">Fluid Mechanics</text>
</a>
</g>
</g>
<!-- MATH0011&#45;&gt;MATH0015 -->
<g id="edge8" class="edge">
<title>MATH0011&#45;&gt;MATH0015</title>
<path fill="none" stroke="black" d="M1517.47,-311.5C1533.42,-303.37 1551.58,-294.11 1568.27,-285.6"/>
<polygon fill="black" stroke="black" points="1569.78,-288.76 1577.1,-281.1 1566.6,-282.52 1569.78,-288.76"/>
</g>
<!-- MATH0020 -->
<g id="node20" class="node">
<title>MATH0020</title>
<g id="a_node20"><a xlink:href="https://www.ucl.ac.uk/maths/sites/maths/files/math0020.pdf" xlink:title="Year 3, term 2">
<polygon fill="white" stroke="#cd3333" stroke-width="5" points="517.25,-121 344.5,-121 344.5,-78.5 517.25,-78.5 517.25,-121"/>
<text text-anchor="middle" x="430.88" y="-103.7" font-family="Times,serif" font-size="14.00">MATH0020</text>
<text text-anchor="middle" x="430.88" y="-86.45" font-family="Times,serif" font-size="14.00">Differential Geometry</text>
</a>
</g>
</g>
<!-- MATH0011&#45;&gt;MATH0020 -->
<g id="edge21" class="edge">
<title>MATH0011&#45;&gt;MATH0020</title>
<path fill="none" stroke="black" d="M1373.2,-317.51C1238.22,-294.24 990.14,-249.31 780.88,-199.5 689.3,-177.7 585.67,-147.8 515.1,-126.63"/>
<polygon fill="black" stroke="black" points="516.53,-123.4 505.94,-123.87 514.51,-130.11 516.53,-123.4"/>
</g>
<!-- MATH0054 -->
<g id="node22" class="node">
<title>MATH0054</title>
<g id="a_node22"><a xlink:href="https://www.ucl.ac.uk/maths/sites/maths/files/math0054.pdf" xlink:title="Year 3, term 2">
<polygon fill="white" stroke="#cd3333" stroke-width="5" points="1962.25,-121 1801.5,-121 1801.5,-78.5 1962.25,-78.5 1962.25,-121"/>
<text text-anchor="middle" x="1881.88" y="-103.7" font-family="Times,serif" font-size="14.00">MATH0054</text>
<text text-anchor="middle" x="1881.88" y="-86.45" font-family="Times,serif" font-size="14.00">Analytical Dynamics</text>
</a>
</g>
</g>
<!-- MATH0011&#45;&gt;MATH0054 -->
<g id="edge23" class="edge">
<title>MATH0011&#45;&gt;MATH0054</title>
<path fill="none" stroke="black" d="M1572.49,-314.77C1622.38,-303.96 1676.78,-290.26 1698.88,-278 1766.01,-240.74 1826.24,-172.52 1858.06,-132.45"/>
<polygon fill="black" stroke="black" points="1860.81,-134.61 1864.22,-124.58 1855.3,-130.29 1860.81,-134.61"/>
</g>
<!-- MATH0004&#45;&gt;MATH0013 -->
<g id="edge11" class="edge">
<title>MATH0004&#45;&gt;MATH0013</title>
<path fill="none" stroke="black" stroke-dasharray="5,2" d="M490.56,-311.71C498.01,-304.31 506.42,-295.95 514.36,-288.07"/>
<polygon fill="black" stroke="black" points="516.38,-290.99 521.01,-281.46 511.45,-286.02 516.38,-290.99"/>
</g>
<!-- MATH0051 -->
<g id="node13" class="node">
<title>MATH0051</title>
<g id="a_node13"><a xlink:href="https://www.ucl.ac.uk/maths/sites/maths/files/math0051.pdf" xlink:title="Year 2 or 3, term 2">
<polygon fill="white" stroke="#8ee5ee" stroke-width="5" points="173.38,-199.5 76.38,-199.5 76.38,-157 173.38,-157 173.38,-199.5"/>
<text text-anchor="middle" x="124.88" y="-182.2" font-family="Times,serif" font-size="14.00">MATH0051</text>
<text text-anchor="middle" x="124.88" y="-164.95" font-family="Times,serif" font-size="14.00">Analysis 4</text>
</a>
</g>
</g>
<!-- MATH0004&#45;&gt;MATH0051 -->
<g id="edge12" class="edge">
<title>MATH0004&#45;&gt;MATH0051</title>
<path fill="none" stroke="black" d="M417.11,-326.19C327.17,-311.81 148.74,-282.78 143.88,-278 126.95,-261.38 122.64,-234.6 122.32,-213.11"/>
<polygon fill="black" stroke="black" points="125.82,-213.38 122.47,-203.33 118.82,-213.27 125.82,-213.38"/>
</g>
<!-- MATH0009&#45;&gt;MATH0015 -->
<g id="edge9" class="edge">
<title>MATH0009&#45;&gt;MATH0015</title>
<path fill="none" stroke="black" d="M1659.55,-311.71C1654.84,-304.77 1649.55,-296.99 1644.49,-289.55"/>
<polygon fill="black" stroke="black" points="1647.63,-287.95 1639.12,-281.64 1641.84,-291.88 1647.63,-287.95"/>
</g>
<!-- MATH0009&#45;&gt;MATH0054 -->
<g id="edge24" class="edge">
<title>MATH0009&#45;&gt;MATH0054</title>
<path fill="none" stroke="black" d="M1764.07,-319.03C1789.59,-310.71 1815.46,-297.86 1833.88,-278 1870.51,-238.49 1879.69,-173.89 1881.7,-134.55"/>
<polygon fill="black" stroke="black" points="1885.2,-134.84 1882.07,-124.72 1878.2,-134.59 1885.2,-134.84"/>
</g>
<!-- MATH0014 -->
<g id="node10" class="node">
<title>MATH0014</title>
<g id="a_node10"><a xlink:href="https://www.ucl.ac.uk/maths/sites/maths/files/math0014.pdf" xlink:title="Year 2, term 1">
<polygon fill="white" stroke="#00ff00" stroke-width="5" points="412.75,-278 153,-278 153,-235.5 412.75,-235.5 412.75,-278"/>
<text text-anchor="middle" x="282.88" y="-260.7" font-family="Times,serif" font-size="14.00">MATH0014</text>
<text text-anchor="middle" x="282.88" y="-243.45" font-family="Times,serif" font-size="14.00">Algebra 3: Further Linear Algebra</text>
</a>
</g>
</g>
<!-- MATH0006&#45;&gt;MATH0014 -->
<g id="edge7" class="edge">
<title>MATH0006&#45;&gt;MATH0014</title>
<path fill="none" stroke="black" d="M282.88,-311.71C282.88,-305.39 282.88,-298.37 282.88,-291.54"/>
<polygon fill="black" stroke="black" points="286.38,-291.91 282.88,-281.91 279.38,-291.91 286.38,-291.91"/>
</g>
<!-- MATH0056 -->
<g id="node14" class="node">
<title>MATH0056</title>
<g id="a_node14"><a xlink:href="https://www.ucl.ac.uk/maths/sites/maths/files/math0056.pdf" xlink:title="Year 2 or 3, term 2">
<polygon fill="white" stroke="#8ee5ee" stroke-width="5" points="984.12,-199.5 789.62,-199.5 789.62,-157 984.12,-157 984.12,-199.5"/>
<text text-anchor="middle" x="886.88" y="-182.2" font-family="Times,serif" font-size="14.00">MATH0056</text>
<text text-anchor="middle" x="886.88" y="-164.95" font-family="Times,serif" font-size="14.00">Mathematical Methods 4</text>
</a>
</g>
</g>
<!-- MATH0016&#45;&gt;MATH0056 -->
<g id="edge14" class="edge">
<title>MATH0016&#45;&gt;MATH0056</title>
<path fill="none" stroke="black" d="M1289.48,-242.5C1210.36,-231.7 1096.87,-215.64 997.88,-199.5 997.76,-199.48 997.64,-199.46 997.52,-199.44"/>
<polygon fill="black" stroke="black" points="998.32,-196.03 987.88,-197.84 997.17,-202.93 998.32,-196.03"/>
</g>
<!-- MATH0055 -->
<g id="node15" class="node">
<title>MATH0055</title>
<g id="a_node15"><a xlink:href="https://www.ucl.ac.uk/maths/sites/maths/files/math0055_3.pdf" xlink:title="Year 2 or 3, term 2">
<polygon fill="white" stroke="#8ee5ee" stroke-width="5" points="1463.5,-199.5 1040.25,-199.5 1040.25,-157 1463.5,-157 1463.5,-199.5"/>
<text text-anchor="middle" x="1251.88" y="-182.2" font-family="Times,serif" font-size="14.00">MATH0055</text>
<text text-anchor="middle" x="1251.88" y="-164.95" font-family="Times,serif" font-size="14.00">Mathematics of Electromagnetism and Special Relativity</text>
</a>
</g>
</g>
<!-- MATH0016&#45;&gt;MATH0055 -->
<g id="edge15" class="edge">
<title>MATH0016&#45;&gt;MATH0055</title>
<path fill="none" stroke="black" d="M1348.14,-233C1333.65,-224.91 1317.16,-215.7 1301.97,-207.22"/>
<polygon fill="black" stroke="black" points="1303.97,-204.33 1293.54,-202.51 1300.56,-210.45 1303.97,-204.33"/>
</g>
<!-- MATH0025 -->
<g id="node17" class="node">
<title>MATH0025</title>
<g id="a_node17"><a xlink:href="https://www.ucl.ac.uk/maths/sites/maths/files/math0025.pdf" xlink:title="Year 3, term 1">
<polygon fill="white" stroke="#ff4040" stroke-width="5" points="1259.88,-121 991.88,-121 991.88,-78.5 1259.88,-78.5 1259.88,-121"/>
<text text-anchor="middle" x="1125.88" y="-103.7" font-family="Times,serif" font-size="14.00">MATH0025</text>
<text text-anchor="middle" x="1125.88" y="-86.45" font-family="Times,serif" font-size="14.00">Mathematics for General Relativity</text>
</a>
</g>
</g>
<!-- MATH0016&#45;&gt;MATH0025 -->
<g id="edge17" class="edge">
<title>MATH0016&#45;&gt;MATH0025</title>
<path fill="none" stroke="black" d="M1289.4,-254.09C1195.25,-250.16 1063.59,-237.75 1030.88,-199.5 1018.6,-185.14 1021.52,-173.41 1030.88,-157 1037.19,-145.92 1046.64,-136.81 1057.16,-129.38"/>
<polygon fill="black" stroke="black" points="1058.85,-132.45 1065.36,-124.1 1055.06,-126.57 1058.85,-132.45"/>
</g>
<!-- MATH0024 -->
<g id="node19" class="node">
<title>MATH0024</title>
<g id="a_node19"><a xlink:href="https://www.ucl.ac.uk/maths/sites/maths/files/math0024.pdf" xlink:title="Year 3, term 2">
<polygon fill="white" stroke="#cd3333" stroke-width="5" points="1745.38,-121 1594.38,-121 1594.38,-78.5 1745.38,-78.5 1745.38,-121"/>
<text text-anchor="middle" x="1669.88" y="-103.7" font-family="Times,serif" font-size="14.00">MATH0024</text>
<text text-anchor="middle" x="1669.88" y="-86.45" font-family="Times,serif" font-size="14.00">Geophysical Fluids</text>
</a>
</g>
</g>
<!-- MATH0016&#45;&gt;MATH0024 -->
<g id="edge20" class="edge">
<title>MATH0016&#45;&gt;MATH0024</title>
<path fill="none" stroke="black" d="M1435.81,-233.01C1455.99,-223.01 1479.74,-210.97 1500.88,-199.5 1542.74,-176.79 1589.42,-149.34 1623.1,-129.16"/>
<polygon fill="black" stroke="black" points="1624.61,-132.33 1631.38,-124.18 1621,-126.33 1624.61,-132.33"/>
</g>
<!-- MATH0077 -->
<g id="node24" class="node">
<title>MATH0077</title>
<g id="a_node24"><a xlink:href="https://www.ucl.ac.uk/maths/sites/maths/files/math0077.pdf" xlink:title="Year 3 or 4, term 1">
<polygon fill="white" stroke="#ff1493" stroke-width="5" points="1576.38,-121 1479.38,-121 1479.38,-78.5 1576.38,-78.5 1576.38,-121"/>
<text text-anchor="middle" x="1527.88" y="-103.7" font-family="Times,serif" font-size="14.00">MATH0077</text>
<text text-anchor="middle" x="1527.88" y="-86.45" font-family="Times,serif" font-size="14.00">Real Fluids</text>
</a>
</g>
</g>
<!-- MATH0016&#45;&gt;MATH0077 -->
<g id="edge28" class="edge">
<title>MATH0016&#45;&gt;MATH0077</title>
<path fill="none" stroke="black" d="M1430.76,-233.2C1445.26,-224.04 1460.86,-212.54 1472.88,-199.5 1490.57,-180.29 1504.73,-154.37 1514.25,-133.9"/>
<polygon fill="black" stroke="black" points="1517.41,-135.4 1518.31,-124.85 1511.02,-132.54 1517.41,-135.4"/>
</g>
<!-- MATH0118 -->
<g id="node23" class="node">
<title>MATH0118</title>
<g id="a_node23"><a xlink:href="https://www.ucl.ac.uk/maths/sites/maths/files/math0118.pdf" xlink:title="Year 3 or 4, term 1">
<polygon fill="white" stroke="#ff1493" stroke-width="5" points="820.12,-121 535.62,-121 535.62,-78.5 820.12,-78.5 820.12,-121"/>
<text text-anchor="middle" x="677.88" y="-103.7" font-family="Times,serif" font-size="14.00">MATH0118</text>
<text text-anchor="middle" x="677.88" y="-86.45" font-family="Times,serif" font-size="14.00">Mathematics for Quantum Mechanics</text>
</a>
</g>
</g>
<!-- MATH0014&#45;&gt;MATH0118 -->
<g id="edge26" class="edge">
<title>MATH0014&#45;&gt;MATH0118</title>
<path fill="none" stroke="black" d="M340.73,-233.05C412.26,-204.98 533.82,-157.28 609.78,-127.47"/>
<polygon fill="black" stroke="black" points="610.74,-130.85 618.77,-123.94 608.19,-124.34 610.74,-130.85"/>
</g>
<!-- MATH0015&#45;&gt;MATH0024 -->
<g id="edge19" class="edge">
<title>MATH0015&#45;&gt;MATH0024</title>
<path fill="none" stroke="black" d="M1629.71,-233.21C1637.61,-207.15 1650.69,-164.02 1659.77,-134.08"/>
<polygon fill="black" stroke="black" points="1663.04,-135.35 1662.59,-124.76 1656.34,-133.32 1663.04,-135.35"/>
</g>
<!-- MATH0015&#45;&gt;MATH0077 -->
<g id="edge27" class="edge">
<title>MATH0015&#45;&gt;MATH0077</title>
<path fill="none" stroke="black" d="M1609.06,-233.21C1592.88,-206.81 1565.95,-162.87 1547.58,-132.9"/>
<polygon fill="black" stroke="black" points="1550.71,-131.3 1542.5,-124.61 1544.74,-134.96 1550.71,-131.3"/>
</g>
<!-- MATH0115 -->
<g id="node26" class="node">
<title>MATH0115</title>
<g id="a_node26"><a xlink:href="https://www.ucl.ac.uk/maths/sites/maths/files/math0115_syllabus.pdf" xlink:title="Year 3 or 4, term 2">
<polygon fill="white" stroke="#cd1076" stroke-width="5" points="1354,-42.5 1221.75,-42.5 1221.75,0 1354,0 1354,-42.5"/>
<text text-anchor="middle" x="1287.88" y="-25.2" font-family="Times,serif" font-size="14.00">MATH0115</text>
<text text-anchor="middle" x="1287.88" y="-7.95" font-family="Times,serif" font-size="14.00">Solid Mechanics</text>
</a>
</g>
</g>
<!-- MATH0015&#45;&gt;MATH0115 -->
<g id="edge31" class="edge">
<title>MATH0015&#45;&gt;MATH0115</title>
<path fill="none" stroke="black" d="M1590.45,-233.15C1529.29,-190.52 1396.98,-98.3 1329.41,-51.2"/>
<polygon fill="black" stroke="black" points="1331.77,-48.58 1321.56,-45.73 1327.76,-54.32 1331.77,-48.58"/>
</g>
<!-- MATH0106 -->
<g id="node28" class="node">
<title>MATH0106</title>
<g id="a_node28"><a xlink:href="https://www.ucl.ac.uk/maths/sites/maths/files/math0106.pdf" xlink:title="Year 4, term 1">
<polygon fill="white" stroke="#1c86ee" stroke-width="5" points="1905.88,-42.5 1661.88,-42.5 1661.88,0 1905.88,0 1905.88,-42.5"/>
<text text-anchor="middle" x="1783.88" y="-25.2" font-family="Times,serif" font-size="14.00">MATH0106</text>
<text text-anchor="middle" x="1783.88" y="-7.95" font-family="Times,serif" font-size="14.00">Industrial and Geological Fluids</text>
</a>
</g>
</g>
<!-- MATH0015&#45;&gt;MATH0106 -->
<g id="edge36" class="edge">
<title>MATH0015&#45;&gt;MATH0106</title>
<path fill="none" stroke="black" d="M1652.34,-233.1C1682.31,-208.57 1728.04,-166.76 1754.88,-121 1766.66,-100.9 1773.97,-75.65 1778.29,-55.72"/>
<polygon fill="black" stroke="black" points="1781.68,-56.65 1780.21,-46.16 1774.81,-55.27 1781.68,-56.65"/>
</g>
<!-- MATH0013&#45;&gt;MATH0056 -->
<g id="edge13" class="edge">
<title>MATH0013&#45;&gt;MATH0056</title>
<path fill="none" stroke="black" d="M646.56,-233C687.41,-223.87 734.61,-213.31 776.31,-203.98"/>
<polygon fill="black" stroke="black" points="776.88,-207.44 785.87,-201.84 775.35,-200.61 776.88,-207.44"/>
</g>
<!-- MATH0019 -->
<g id="node16" class="node">
<title>MATH0019</title>
<g id="a_node16"><a xlink:href="https://www.ucl.ac.uk/maths/sites/maths/files/math0019.pdf" xlink:title="Year 3, term 1">
<polygon fill="white" stroke="#ff4040" stroke-width="5" points="175.75,-121 0,-121 0,-78.5 175.75,-78.5 175.75,-121"/>
<text text-anchor="middle" x="87.88" y="-103.7" font-family="Times,serif" font-size="14.00">MATH0019</text>
<text text-anchor="middle" x="87.88" y="-86.45" font-family="Times,serif" font-size="14.00">Multivariable Analysis</text>
</a>
</g>
</g>
<!-- MATH0051&#45;&gt;MATH0019 -->
<g id="edge16" class="edge">
<title>MATH0051&#45;&gt;MATH0019</title>
<path fill="none" stroke="black" d="M113.97,-154.71C110.77,-148.08 107.19,-140.68 103.74,-133.54"/>
<polygon fill="black" stroke="black" points="106.99,-132.23 99.49,-124.75 100.69,-135.28 106.99,-132.23"/>
</g>
<!-- MATH0017 -->
<g id="node18" class="node">
<title>MATH0017</title>
<g id="a_node18"><a xlink:href="https://www.ucl.ac.uk/maths/sites/maths/files/math0017.pdf" xlink:title="Year 3, term 1">
<polygon fill="white" stroke="#ff4040" stroke-width="5" points="326,-121 193.75,-121 193.75,-78.5 326,-78.5 326,-121"/>
<text text-anchor="middle" x="259.88" y="-103.7" font-family="Times,serif" font-size="14.00">MATH0017</text>
<text text-anchor="middle" x="259.88" y="-86.45" font-family="Times,serif" font-size="14.00">Measure Theory</text>
</a>
</g>
</g>
<!-- MATH0051&#45;&gt;MATH0017 -->
<g id="edge18" class="edge">
<title>MATH0051&#45;&gt;MATH0017</title>
<path fill="none" stroke="black" d="M165.01,-154.5C179.3,-146.41 195.54,-137.2 210.51,-128.72"/>
<polygon fill="black" stroke="black" points="211.83,-132 218.81,-124.02 208.38,-125.91 211.83,-132"/>
</g>
<!-- MATH0027 -->
<g id="node21" class="node">
<title>MATH0027</title>
<g id="a_node21"><a xlink:href="https://www.ucl.ac.uk/maths/sites/maths/files/math0027.pdf" xlink:title="Year 3, term 2">
<polygon fill="white" stroke="#cd3333" stroke-width="5" points="935.38,-121 838.38,-121 838.38,-78.5 935.38,-78.5 935.38,-121"/>
<text text-anchor="middle" x="886.88" y="-103.7" font-family="Times,serif" font-size="14.00">MATH0027</text>
<text text-anchor="middle" x="886.88" y="-86.45" font-family="Times,serif" font-size="14.00">Methods 5</text>
</a>
</g>
</g>
<!-- MATH0056&#45;&gt;MATH0027 -->
<g id="edge22" class="edge">
<title>MATH0056&#45;&gt;MATH0027</title>
<path fill="none" stroke="black" d="M886.88,-154.71C886.88,-148.39 886.88,-141.37 886.88,-134.54"/>
<polygon fill="black" stroke="black" points="890.38,-134.91 886.88,-124.91 883.38,-134.91 890.38,-134.91"/>
</g>
<!-- MATH0056&#45;&gt;MATH0118 -->
<g id="edge25" class="edge">
<title>MATH0056&#45;&gt;MATH0118</title>
<path fill="none" stroke="black" d="M824.73,-154.5C801.36,-145.95 774.58,-136.15 750.35,-127.28"/>
<polygon fill="black" stroke="black" points="751.79,-124.08 741.2,-123.93 749.39,-130.65 751.79,-124.08"/>
</g>
<!-- MATH0056&#45;&gt;MATH0077 -->
<g id="edge29" class="edge">
<title>MATH0056&#45;&gt;MATH0077</title>
<path fill="none" stroke="black" d="M986.37,-162.9C1001.28,-160.86 1016.47,-158.83 1030.88,-157 1187.17,-137.17 1371.56,-117.19 1465.72,-107.24"/>
<polygon fill="black" stroke="black" points="1465.94,-110.74 1475.52,-106.21 1465.21,-103.77 1465.94,-110.74"/>
</g>
<!-- MATH0080 -->
<g id="node25" class="node">
<title>MATH0080</title>
<g id="a_node25"><a xlink:href="https://www.ucl.ac.uk/maths/sites/maths/files/math0080.pdf" xlink:title="Year 3 or 4, term 2">
<polygon fill="white" stroke="#cd1076" stroke-width="5" points="1070.5,-42.5 857.25,-42.5 857.25,0 1070.5,0 1070.5,-42.5"/>
<text text-anchor="middle" x="963.88" y="-25.2" font-family="Times,serif" font-size="14.00">MATH0080</text>
<text text-anchor="middle" x="963.88" y="-7.95" font-family="Times,serif" font-size="14.00">Waves and Wave Scattering</text>
</a>
</g>
</g>
<!-- MATH0056&#45;&gt;MATH0080 -->
<g id="edge30" class="edge">
<title>MATH0056&#45;&gt;MATH0080</title>
<path fill="none" stroke="black" d="M916.9,-154.61C927.28,-145.3 938.01,-133.71 944.88,-121 955.65,-101.06 960.38,-75.96 962.43,-56.05"/>
<polygon fill="black" stroke="black" points="965.91,-56.48 963.24,-46.22 958.93,-55.9 965.91,-56.48"/>
</g>
<!-- MATH0056&#45;&gt;MATH0115 -->
<g id="edge32" class="edge">
<title>MATH0056&#45;&gt;MATH0115</title>
<path fill="none" stroke="black" d="M986.31,-162.96C1099.06,-146.7 1267.59,-122.23 1268.88,-121 1286.01,-104.6 1290.31,-77.8 1290.57,-56.25"/>
<polygon fill="black" stroke="black" points="1294.07,-56.37 1290.39,-46.44 1287.08,-56.5 1294.07,-56.37"/>
</g>
<!-- MATH0119 -->
<g id="node27" class="node">
<title>MATH0119</title>
<g id="a_node27"><a xlink:href="https://www.ucl.ac.uk/maths/sites/maths/files/math0119.pdf" xlink:title="Year 3 or 4, term 2">
<polygon fill="white" stroke="#cd1076" stroke-width="5" points="338,-42.5 181.75,-42.5 181.75,0 338,0 338,-42.5"/>
<text text-anchor="middle" x="259.88" y="-25.2" font-family="Times,serif" font-size="14.00">MATH0119</text>
<text text-anchor="middle" x="259.88" y="-7.95" font-family="Times,serif" font-size="14.00">Dynamical Systems</text>
</a>
</g>
</g>
<!-- MATH0019&#45;&gt;MATH0119 -->
<g id="edge34" class="edge">
<title>MATH0019&#45;&gt;MATH0119</title>
<path fill="none" stroke="black" stroke-dasharray="5,2" d="M139.01,-76C157.73,-67.68 179.1,-58.17 198.62,-49.5"/>
<polygon fill="black" stroke="black" points="199.83,-52.78 207.55,-45.52 196.99,-46.39 199.83,-52.78"/>
</g>
<!-- MATH0079 -->
<g id="node30" class="node">
<title>MATH0079</title>
<g id="a_node30"><a xlink:href="https://www.ucl.ac.uk/maths/sites/maths/files/math0079.pdf" xlink:title="Year 4, term 2">
<polygon fill="white" stroke="#1874cd" stroke-width="5" points="1185.38,-42.5 1088.38,-42.5 1088.38,0 1185.38,0 1185.38,-42.5"/>
<text text-anchor="middle" x="1136.88" y="-25.2" font-family="Times,serif" font-size="14.00">MATH0079</text>
<text text-anchor="middle" x="1136.88" y="-7.95" font-family="Times,serif" font-size="14.00">Cosmology</text>
</a>
</g>
</g>
<!-- MATH0025&#45;&gt;MATH0079 -->
<g id="edge39" class="edge">
<title>MATH0025&#45;&gt;MATH0079</title>
<path fill="none" stroke="black" d="M1129.12,-76.21C1130.03,-69.89 1131.03,-62.87 1132.02,-56.04"/>
<polygon fill="black" stroke="black" points="1135.44,-56.79 1133.4,-46.39 1128.52,-55.79 1135.44,-56.79"/>
</g>
<!-- MATH0017&#45;&gt;MATH0119 -->
<g id="edge33" class="edge">
<title>MATH0017&#45;&gt;MATH0119</title>
<path fill="none" stroke="black" d="M259.88,-76.21C259.88,-69.89 259.88,-62.87 259.88,-56.04"/>
<polygon fill="black" stroke="black" points="263.38,-56.41 259.88,-46.41 256.38,-56.41 263.38,-56.41"/>
</g>
<!-- MATH0020&#45;&gt;MATH0119 -->
<g id="edge35" class="edge">
<title>MATH0020&#45;&gt;MATH0119</title>
<path fill="none" stroke="black" stroke-dasharray="5,2" d="M380.03,-76C361.42,-67.68 340.18,-58.17 320.78,-49.5"/>
<polygon fill="black" stroke="black" points="322.46,-46.41 311.9,-45.53 319.6,-52.8 322.46,-46.41"/>
</g>
<!-- MATH0077&#45;&gt;MATH0106 -->
<g id="edge37" class="edge">
<title>MATH0077&#45;&gt;MATH0106</title>
<path fill="none" stroke="black" stroke-dasharray="5,2" d="M1578.74,-80.8C1581.15,-80.01 1583.54,-79.24 1585.88,-78.5 1619.24,-67.95 1656.05,-57.24 1688.79,-48.03"/>
<polygon fill="black" stroke="black" points="1689.59,-51.44 1698.27,-45.38 1687.7,-44.7 1689.59,-51.44"/>
</g>
<!-- MATH0078 -->
<g id="node29" class="node">
<title>MATH0078</title>
<g id="a_node29"><a xlink:href="https://www.ucl.ac.uk/maths/sites/maths/files/math0078.pdf" xlink:title="Year 4, term 2">
<polygon fill="white" stroke="#1874cd" stroke-width="5" points="1644.12,-42.5 1371.62,-42.5 1371.62,0 1644.12,0 1644.12,-42.5"/>
<text text-anchor="middle" x="1507.88" y="-25.2" font-family="Times,serif" font-size="14.00">MATH0078</text>
<text text-anchor="middle" x="1507.88" y="-7.95" font-family="Times,serif" font-size="14.00">Asymptotic Approximation Methods</text>
</a>
</g>
</g>
<!-- MATH0077&#45;&gt;MATH0078 -->
<g id="edge38" class="edge">
<title>MATH0077&#45;&gt;MATH0078</title>
<path fill="none" stroke="black" d="M1521.98,-76.21C1520.29,-69.73 1518.4,-62.53 1516.58,-55.54"/>
<polygon fill="black" stroke="black" points="1520.09,-55.15 1514.18,-46.36 1513.32,-56.92 1520.09,-55.15"/>
</g>
</g>
</svg>
