<?xml version="1.0" encoding="UTF-8" standalone="no"?>
<!DOCTYPE svg PUBLIC "-//W3C//DTD SVG 1.1//EN"
 "http://www.w3.org/Graphics/SVG/1.1/DTD/svg11.dtd">
<!-- Generated by graphviz version 12.2.1 (0)
 -->
<!-- Pages: 1 -->
<svg width="1962pt" height="443pt"
 viewBox="0.00 0.00 1961.50 443.00" xmlns="http://www.w3.org/2000/svg" xmlns:xlink="http://www.w3.org/1999/xlink">
<g id="graph0" class="graph" transform="scale(1 1) rotate(0) translate(4 439)">
<polygon fill="white" stroke="none" points="-4,4 -4,-439 1957.5,-439 1957.5,4 -4,4"/>
<!-- MATH0008 -->
<g id="node1" class="node">
<title>MATH0008</title>
<g id="a_node1"><a xlink:href="https://www.ucl.ac.uk/maths/sites/maths/files/math0008.pdf" xlink:title="Year 1, term 1">
<polygon fill="white" stroke="#ffb90f" stroke-width="5" points="265.12,-435 97.62,-435 97.62,-392.5 265.12,-392.5 265.12,-435"/>
<text text-anchor="middle" x="181.38" y="-417.7" font-family="Times,serif" font-size="14.00">MATH0008</text>
<text text-anchor="middle" x="181.38" y="-400.45" font-family="Times,serif" font-size="14.00">Applied Mathematics</text>
</a>
</g>
</g>
<!-- MATH0009 -->
<g id="node7" class="node">
<title>MATH0009</title>
<g id="a_node7"><a xlink:href="https://www.ucl.ac.uk/maths/sites/maths/files/math0009.pdf" xlink:title="Year 1, term 2">
<polygon fill="white" stroke="#cd950c" stroke-width="5" points="268.12,-356.5 94.62,-356.5 94.62,-314 268.12,-314 268.12,-356.5"/>
<text text-anchor="middle" x="181.38" y="-339.2" font-family="Times,serif" font-size="14.00">MATH0009</text>
<text text-anchor="middle" x="181.38" y="-321.95" font-family="Times,serif" font-size="14.00">Newtonian Mechanics</text>
</a>
</g>
</g>
<!-- MATH0008&#45;&gt;MATH0009 -->
<g id="edge3" class="edge">
<title>MATH0008&#45;&gt;MATH0009</title>
<path fill="none" stroke="black" d="M181.38,-390.21C181.38,-383.89 181.38,-376.87 181.38,-370.04"/>
<polygon fill="black" stroke="black" points="184.88,-370.41 181.38,-360.41 177.88,-370.41 184.88,-370.41"/>
</g>
<!-- MATH0010 -->
<g id="node2" class="node">
<title>MATH0010</title>
<g id="a_node2"><a xlink:href="https://www.ucl.ac.uk/maths/sites/maths/files/math0010.pdf" xlink:title="Year 1, term 1">
<polygon fill="white" stroke="#ffb90f" stroke-width="5" points="479.62,-435 285.12,-435 285.12,-392.5 479.62,-392.5 479.62,-435"/>
<text text-anchor="middle" x="382.38" y="-417.7" font-family="Times,serif" font-size="14.00">MATH0010</text>
<text text-anchor="middle" x="382.38" y="-400.45" font-family="Times,serif" font-size="14.00">Mathematical Methods 1</text>
</a>
</g>
</g>
<!-- MATH0011 -->
<g id="node6" class="node">
<title>MATH0011</title>
<g id="a_node6"><a xlink:href="https://www.ucl.ac.uk/maths/sites/maths/files/math0011_2.pdf" xlink:title="Year 1, term 2">
<polygon fill="white" stroke="#cd950c" stroke-width="5" points="480.62,-356.5 286.12,-356.5 286.12,-314 480.62,-314 480.62,-356.5"/>
<text text-anchor="middle" x="383.38" y="-339.2" font-family="Times,serif" font-size="14.00">MATH0011</text>
<text text-anchor="middle" x="383.38" y="-321.95" font-family="Times,serif" font-size="14.00">Mathematical Methods 2</text>
</a>
</g>
</g>
<!-- MATH0010&#45;&gt;MATH0011 -->
<g id="edge2" class="edge">
<title>MATH0010&#45;&gt;MATH0011</title>
<path fill="none" stroke="black" d="M382.67,-390.21C382.75,-383.89 382.84,-376.87 382.93,-370.04"/>
<polygon fill="black" stroke="black" points="386.43,-370.45 383.06,-360.41 379.43,-370.36 386.43,-370.45"/>
</g>
<!-- MATH0010&#45;&gt;MATH0009 -->
<g id="edge4" class="edge">
<title>MATH0010&#45;&gt;MATH0009</title>
<path fill="none" stroke="black" d="M322.61,-390C300.23,-381.49 274.61,-371.74 251.39,-362.9"/>
<polygon fill="black" stroke="black" points="252.91,-359.73 242.32,-359.45 250.42,-366.27 252.91,-359.73"/>
</g>
<!-- MATH0005 -->
<g id="node3" class="node">
<title>MATH0005</title>
<g id="a_node3"><a xlink:href="https://www.ucl.ac.uk/maths/sites/maths/files/math0005.pdf" xlink:title="Year 1, term 1">
<polygon fill="white" stroke="#ffb90f" stroke-width="5" points="1695.88,-435 1598.88,-435 1598.88,-392.5 1695.88,-392.5 1695.88,-435"/>
<text text-anchor="middle" x="1647.38" y="-417.7" font-family="Times,serif" font-size="14.00">MATH0005</text>
<text text-anchor="middle" x="1647.38" y="-400.45" font-family="Times,serif" font-size="14.00">Algebra 1</text>
</a>
</g>
</g>
<!-- MATH0006 -->
<g id="node5" class="node">
<title>MATH0006</title>
<g id="a_node5"><a xlink:href="https://www.ucl.ac.uk/maths/sites/maths/files/math0006.pdf" xlink:title="Year 1, term 2">
<polygon fill="white" stroke="#cd950c" stroke-width="5" points="1695.88,-356.5 1598.88,-356.5 1598.88,-314 1695.88,-314 1695.88,-356.5"/>
<text text-anchor="middle" x="1647.38" y="-339.2" font-family="Times,serif" font-size="14.00">MATH0006</text>
<text text-anchor="middle" x="1647.38" y="-321.95" font-family="Times,serif" font-size="14.00">Algebra 2</text>
</a>
</g>
</g>
<!-- MATH0005&#45;&gt;MATH0006 -->
<g id="edge1" class="edge">
<title>MATH0005&#45;&gt;MATH0006</title>
<path fill="none" stroke="black" d="M1647.38,-390.21C1647.38,-383.89 1647.38,-376.87 1647.38,-370.04"/>
<polygon fill="black" stroke="black" points="1650.88,-370.41 1647.38,-360.41 1643.88,-370.41 1650.88,-370.41"/>
</g>
<!-- MATH0003 -->
<g id="node4" class="node">
<title>MATH0003</title>
<g id="a_node4"><a xlink:href="https://www.ucl.ac.uk/maths/sites/maths/files/math0003.pdf" xlink:title="Year 1, term 1">
<polygon fill="white" stroke="#ffb90f" stroke-width="5" points="1471.88,-435 1374.88,-435 1374.88,-392.5 1471.88,-392.5 1471.88,-435"/>
<text text-anchor="middle" x="1423.38" y="-417.7" font-family="Times,serif" font-size="14.00">MATH0003</text>
<text text-anchor="middle" x="1423.38" y="-400.45" font-family="Times,serif" font-size="14.00">Analysis 1</text>
</a>
</g>
</g>
<!-- MATH0004 -->
<g id="node8" class="node">
<title>MATH0004</title>
<g id="a_node8"><a xlink:href="https://www.ucl.ac.uk/maths/sites/maths/files/math0004.pdf" xlink:title="Year 1, term 2">
<polygon fill="white" stroke="#cd950c" stroke-width="5" points="1510.88,-356.5 1413.88,-356.5 1413.88,-314 1510.88,-314 1510.88,-356.5"/>
<text text-anchor="middle" x="1462.38" y="-339.2" font-family="Times,serif" font-size="14.00">MATH0004</text>
<text text-anchor="middle" x="1462.38" y="-321.95" font-family="Times,serif" font-size="14.00">Analysis 2</text>
</a>
</g>
</g>
<!-- MATH0003&#45;&gt;MATH0004 -->
<g id="edge5" class="edge">
<title>MATH0003&#45;&gt;MATH0004</title>
<path fill="none" stroke="black" d="M1434.87,-390.21C1438.25,-383.58 1442.02,-376.18 1445.66,-369.04"/>
<polygon fill="black" stroke="black" points="1448.72,-370.74 1450.14,-360.24 1442.48,-367.56 1448.72,-370.74"/>
</g>
<!-- MATH0013 -->
<g id="node11" class="node">
<title>MATH0013</title>
<g id="a_node11"><a xlink:href="https://www.ucl.ac.uk/maths/sites/maths/files/math0013.pdf" xlink:title="Year 2, term 1">
<polygon fill="white" stroke="#00ff00" stroke-width="5" points="1499.5,-278 1271.25,-278 1271.25,-235.5 1499.5,-235.5 1499.5,-278"/>
<text text-anchor="middle" x="1385.38" y="-260.7" font-family="Times,serif" font-size="14.00">MATH0013</text>
<text text-anchor="middle" x="1385.38" y="-243.45" font-family="Times,serif" font-size="14.00">Analysis 3 &#45; Complex Analysis</text>
</a>
</g>
</g>
<!-- MATH0003&#45;&gt;MATH0013 -->
<g id="edge8" class="edge">
<title>MATH0003&#45;&gt;MATH0013</title>
<path fill="none" stroke="black" d="M1415.53,-390.2C1412.14,-379.99 1408.29,-367.71 1405.38,-356.5 1399.79,-335.05 1394.83,-310.65 1391.25,-291.46"/>
<polygon fill="black" stroke="black" points="1394.72,-290.96 1389.48,-281.75 1387.83,-292.22 1394.72,-290.96"/>
</g>
<!-- MATH0014 -->
<g id="node9" class="node">
<title>MATH0014</title>
<g id="a_node9"><a xlink:href="https://www.ucl.ac.uk/maths/sites/maths/files/math0014.pdf" xlink:title="Year 2, term 1">
<polygon fill="white" stroke="#00ff00" stroke-width="5" points="1777.25,-278 1517.5,-278 1517.5,-235.5 1777.25,-235.5 1777.25,-278"/>
<text text-anchor="middle" x="1647.38" y="-260.7" font-family="Times,serif" font-size="14.00">MATH0014</text>
<text text-anchor="middle" x="1647.38" y="-243.45" font-family="Times,serif" font-size="14.00">Algebra 3: Further Linear Algebra</text>
</a>
</g>
</g>
<!-- MATH0006&#45;&gt;MATH0014 -->
<g id="edge6" class="edge">
<title>MATH0006&#45;&gt;MATH0014</title>
<path fill="none" stroke="black" d="M1647.38,-311.71C1647.38,-305.39 1647.38,-298.37 1647.38,-291.54"/>
<polygon fill="black" stroke="black" points="1650.88,-291.91 1647.38,-281.91 1643.88,-291.91 1650.88,-291.91"/>
</g>
<!-- MATH0016 -->
<g id="node10" class="node">
<title>MATH0016</title>
<g id="a_node10"><a xlink:href="https://www.ucl.ac.uk/maths/sites/maths/files/math0016.pdf" xlink:title="Year 2, term 1">
<polygon fill="white" stroke="#00ff00" stroke-width="5" points="637.62,-278 443.12,-278 443.12,-235.5 637.62,-235.5 637.62,-278"/>
<text text-anchor="middle" x="540.38" y="-260.7" font-family="Times,serif" font-size="14.00">MATH0016</text>
<text text-anchor="middle" x="540.38" y="-243.45" font-family="Times,serif" font-size="14.00">Mathematical Methods 3</text>
</a>
</g>
</g>
<!-- MATH0011&#45;&gt;MATH0016 -->
<g id="edge7" class="edge">
<title>MATH0011&#45;&gt;MATH0016</title>
<path fill="none" stroke="black" d="M430.06,-311.5C446.9,-303.29 466.11,-293.94 483.72,-285.36"/>
<polygon fill="black" stroke="black" points="485.06,-288.6 492.51,-281.07 481.99,-282.3 485.06,-288.6"/>
</g>
<!-- MATH0015 -->
<g id="node12" class="node">
<title>MATH0015</title>
<g id="a_node12"><a xlink:href="https://www.ucl.ac.uk/maths/sites/maths/files/math0015.pdf" xlink:title="Year 2, term 1">
<polygon fill="white" stroke="#00ff00" stroke-width="5" points="329.88,-278 196.88,-278 196.88,-235.5 329.88,-235.5 329.88,-278"/>
<text text-anchor="middle" x="263.38" y="-260.7" font-family="Times,serif" font-size="14.00">MATH0015</text>
<text text-anchor="middle" x="263.38" y="-243.45" font-family="Times,serif" font-size="14.00">Fluid Mechanics</text>
</a>
</g>
</g>
<!-- MATH0011&#45;&gt;MATH0015 -->
<g id="edge10" class="edge">
<title>MATH0011&#45;&gt;MATH0015</title>
<path fill="none" stroke="black" d="M347.7,-311.5C335.36,-303.64 321.38,-294.73 308.4,-286.45"/>
<polygon fill="black" stroke="black" points="310.3,-283.51 299.99,-281.09 306.54,-289.42 310.3,-283.51"/>
</g>
<!-- MATH0054 -->
<g id="node20" class="node">
<title>MATH0054</title>
<g id="a_node20"><a xlink:href="https://www.ucl.ac.uk/maths/sites/maths/files/math0054.pdf" xlink:title="Year 3, term 2">
<polygon fill="white" stroke="#cd3333" stroke-width="5" points="160.75,-121 0,-121 0,-78.5 160.75,-78.5 160.75,-121"/>
<text text-anchor="middle" x="80.38" y="-103.7" font-family="Times,serif" font-size="14.00">MATH0054</text>
<text text-anchor="middle" x="80.38" y="-86.45" font-family="Times,serif" font-size="14.00">Analytical Dynamics</text>
</a>
</g>
</g>
<!-- MATH0011&#45;&gt;MATH0054 -->
<g id="edge20" class="edge">
<title>MATH0011&#45;&gt;MATH0054</title>
<path fill="none" stroke="black" d="M283.88,-312.79C243.84,-302.71 203.36,-290.24 187.38,-278 161.75,-258.37 119.41,-179.04 96.43,-133.44"/>
<polygon fill="black" stroke="black" points="99.57,-131.9 91.97,-124.53 93.31,-135.04 99.57,-131.9"/>
</g>
<!-- MATH0020 -->
<g id="node21" class="node">
<title>MATH0020</title>
<g id="a_node21"><a xlink:href="https://www.ucl.ac.uk/maths/sites/maths/files/math0020.pdf" xlink:title="Year 3, term 2">
<polygon fill="white" stroke="#cd3333" stroke-width="5" points="1609.75,-121 1437,-121 1437,-78.5 1609.75,-78.5 1609.75,-121"/>
<text text-anchor="middle" x="1523.38" y="-103.7" font-family="Times,serif" font-size="14.00">MATH0020</text>
<text text-anchor="middle" x="1523.38" y="-86.45" font-family="Times,serif" font-size="14.00">Differential Geometry</text>
</a>
</g>
</g>
<!-- MATH0011&#45;&gt;MATH0020 -->
<g id="edge22" class="edge">
<title>MATH0011&#45;&gt;MATH0020</title>
<path fill="none" stroke="black" d="M483.08,-317.24C622.81,-293.04 884.64,-246.39 1106.38,-199.5 1215.22,-176.48 1339.19,-146.66 1423.47,-125.84"/>
<polygon fill="black" stroke="black" points="1424.25,-129.25 1433.11,-123.45 1422.56,-122.46 1424.25,-129.25"/>
</g>
<!-- MATH0009&#45;&gt;MATH0015 -->
<g id="edge11" class="edge">
<title>MATH0009&#45;&gt;MATH0015</title>
<path fill="none" stroke="black" d="M205.53,-311.71C213.47,-304.31 222.43,-295.95 230.88,-288.07"/>
<polygon fill="black" stroke="black" points="233.07,-290.81 238,-281.42 228.3,-285.69 233.07,-290.81"/>
</g>
<!-- MATH0009&#45;&gt;MATH0054 -->
<g id="edge21" class="edge">
<title>MATH0009&#45;&gt;MATH0054</title>
<path fill="none" stroke="black" d="M155.26,-311.73C145.6,-302.19 135.32,-290.41 128.38,-278 102.67,-232.06 90.16,-171.63 84.51,-134.53"/>
<polygon fill="black" stroke="black" points="88.01,-134.25 83.12,-124.85 81.08,-135.24 88.01,-134.25"/>
</g>
<!-- MATH0004&#45;&gt;MATH0013 -->
<g id="edge9" class="edge">
<title>MATH0004&#45;&gt;MATH0013</title>
<path fill="none" stroke="black" stroke-dasharray="5,2" d="M1439.69,-311.71C1432.24,-304.31 1423.83,-295.95 1415.89,-288.07"/>
<polygon fill="black" stroke="black" points="1418.8,-286.02 1409.24,-281.46 1413.87,-290.99 1418.8,-286.02"/>
</g>
<!-- MATH0051 -->
<g id="node14" class="node">
<title>MATH0051</title>
<g id="a_node14"><a xlink:href="https://www.ucl.ac.uk/maths/sites/maths/files/math0051.pdf" xlink:title="Year 2 or 3, term 2">
<polygon fill="white" stroke="#8ee5ee" stroke-width="5" points="1853.88,-199.5 1756.88,-199.5 1756.88,-157 1853.88,-157 1853.88,-199.5"/>
<text text-anchor="middle" x="1805.38" y="-182.2" font-family="Times,serif" font-size="14.00">MATH0051</text>
<text text-anchor="middle" x="1805.38" y="-164.95" font-family="Times,serif" font-size="14.00">Analysis 4</text>
</a>
</g>
</g>
<!-- MATH0004&#45;&gt;MATH0051 -->
<g id="edge13" class="edge">
<title>MATH0004&#45;&gt;MATH0051</title>
<path fill="none" stroke="black" d="M1513.14,-326.19C1603.08,-311.81 1781.51,-282.78 1786.38,-278 1803.3,-261.38 1807.61,-234.6 1807.93,-213.11"/>
<polygon fill="black" stroke="black" points="1811.43,-213.27 1807.78,-203.33 1804.43,-213.38 1811.43,-213.27"/>
</g>
<!-- MATH0118 -->
<g id="node24" class="node">
<title>MATH0118</title>
<g id="a_node24"><a xlink:href="https://www.ucl.ac.uk/maths/sites/maths/files/math0118.pdf" xlink:title="Year 3 or 4, term 1">
<polygon fill="white" stroke="#ff1493" stroke-width="5" points="1418.62,-121 1134.12,-121 1134.12,-78.5 1418.62,-78.5 1418.62,-121"/>
<text text-anchor="middle" x="1276.38" y="-103.7" font-family="Times,serif" font-size="14.00">MATH0118</text>
<text text-anchor="middle" x="1276.38" y="-86.45" font-family="Times,serif" font-size="14.00">Mathematics for Quantum Mechanics</text>
</a>
</g>
</g>
<!-- MATH0014&#45;&gt;MATH0118 -->
<g id="edge29" class="edge">
<title>MATH0014&#45;&gt;MATH0118</title>
<path fill="none" stroke="black" d="M1593.03,-233.05C1525.99,-205.03 1412.14,-157.47 1340.77,-127.65"/>
<polygon fill="black" stroke="black" points="1342.54,-124.6 1331.96,-123.97 1339.84,-131.06 1342.54,-124.6"/>
</g>
<!-- MATH0055 -->
<g id="node13" class="node">
<title>MATH0055</title>
<g id="a_node13"><a xlink:href="https://www.ucl.ac.uk/maths/sites/maths/files/math0055_3.pdf" xlink:title="Year 2 or 3, term 2">
<polygon fill="white" stroke="#8ee5ee" stroke-width="5" points="847,-199.5 423.75,-199.5 423.75,-157 847,-157 847,-199.5"/>
<text text-anchor="middle" x="635.38" y="-182.2" font-family="Times,serif" font-size="14.00">MATH0055</text>
<text text-anchor="middle" x="635.38" y="-164.95" font-family="Times,serif" font-size="14.00">Mathematics of Electromagnetism and Special Relativity</text>
</a>
</g>
</g>
<!-- MATH0016&#45;&gt;MATH0055 -->
<g id="edge12" class="edge">
<title>MATH0016&#45;&gt;MATH0055</title>
<path fill="none" stroke="black" d="M568.62,-233C578,-225.45 588.59,-216.93 598.52,-208.93"/>
<polygon fill="black" stroke="black" points="600.63,-211.72 606.22,-202.73 596.24,-206.27 600.63,-211.72"/>
</g>
<!-- MATH0056 -->
<g id="node15" class="node">
<title>MATH0056</title>
<g id="a_node15"><a xlink:href="https://www.ucl.ac.uk/maths/sites/maths/files/math0056.pdf" xlink:title="Year 2 or 3, term 2">
<polygon fill="white" stroke="#8ee5ee" stroke-width="5" points="1097.62,-199.5 903.12,-199.5 903.12,-157 1097.62,-157 1097.62,-199.5"/>
<text text-anchor="middle" x="1000.38" y="-182.2" font-family="Times,serif" font-size="14.00">MATH0056</text>
<text text-anchor="middle" x="1000.38" y="-164.95" font-family="Times,serif" font-size="14.00">Mathematical Methods 4</text>
</a>
</g>
</g>
<!-- MATH0016&#45;&gt;MATH0056 -->
<g id="edge15" class="edge">
<title>MATH0016&#45;&gt;MATH0056</title>
<path fill="none" stroke="black" d="M639.75,-240.29C709.63,-229.29 805.3,-213.94 889.38,-199.5 889.49,-199.48 889.61,-199.46 889.73,-199.44"/>
<polygon fill="black" stroke="black" points="890.1,-202.93 899.36,-197.77 888.91,-196.03 890.1,-202.93"/>
</g>
<!-- MATH0025 -->
<g id="node16" class="node">
<title>MATH0025</title>
<g id="a_node16"><a xlink:href="https://www.ucl.ac.uk/maths/sites/maths/files/math0025.pdf" xlink:title="Year 3, term 1">
<polygon fill="white" stroke="#ff4040" stroke-width="5" points="924.38,-121 656.38,-121 656.38,-78.5 924.38,-78.5 924.38,-121"/>
<text text-anchor="middle" x="790.38" y="-103.7" font-family="Times,serif" font-size="14.00">MATH0025</text>
<text text-anchor="middle" x="790.38" y="-86.45" font-family="Times,serif" font-size="14.00">Mathematics for General Relativity</text>
</a>
</g>
</g>
<!-- MATH0016&#45;&gt;MATH0025 -->
<g id="edge16" class="edge">
<title>MATH0016&#45;&gt;MATH0025</title>
<path fill="none" stroke="black" d="M639.78,-251.6C721.83,-245.84 829.05,-232.12 856.38,-199.5 868.5,-185.02 864.29,-174.15 856.38,-157 851.79,-147.06 844.48,-138.22 836.36,-130.67"/>
<polygon fill="black" stroke="black" points="838.73,-128.09 828.85,-124.26 834.18,-133.41 838.73,-128.09"/>
</g>
<!-- MATH0024 -->
<g id="node22" class="node">
<title>MATH0024</title>
<g id="a_node22"><a xlink:href="https://www.ucl.ac.uk/maths/sites/maths/files/math0024.pdf" xlink:title="Year 3, term 2">
<polygon fill="white" stroke="#cd3333" stroke-width="5" points="405.88,-121 254.88,-121 254.88,-78.5 405.88,-78.5 405.88,-121"/>
<text text-anchor="middle" x="330.38" y="-103.7" font-family="Times,serif" font-size="14.00">MATH0024</text>
<text text-anchor="middle" x="330.38" y="-86.45" font-family="Times,serif" font-size="14.00">Geophysical Fluids</text>
</a>
</g>
</g>
<!-- MATH0016&#45;&gt;MATH0024 -->
<g id="edge24" class="edge">
<title>MATH0016&#45;&gt;MATH0024</title>
<path fill="none" stroke="black" d="M464.58,-233.12C443.48,-224.65 421.43,-213.56 403.38,-199.5 380.25,-181.48 360.91,-154.33 347.95,-133.06"/>
<polygon fill="black" stroke="black" points="350.98,-131.3 342.89,-124.45 344.95,-134.85 350.98,-131.3"/>
</g>
<!-- MATH0077 -->
<g id="node23" class="node">
<title>MATH0077</title>
<g id="a_node23"><a xlink:href="https://www.ucl.ac.uk/maths/sites/maths/files/math0077.pdf" xlink:title="Year 3 or 4, term 1">
<polygon fill="white" stroke="#ff1493" stroke-width="5" points="520.88,-121 423.88,-121 423.88,-78.5 520.88,-78.5 520.88,-121"/>
<text text-anchor="middle" x="472.38" y="-103.7" font-family="Times,serif" font-size="14.00">MATH0077</text>
<text text-anchor="middle" x="472.38" y="-86.45" font-family="Times,serif" font-size="14.00">Real Fluids</text>
</a>
</g>
</g>
<!-- MATH0016&#45;&gt;MATH0077 -->
<g id="edge26" class="edge">
<title>MATH0016&#45;&gt;MATH0077</title>
<path fill="none" stroke="black" d="M453.86,-233.1C438.23,-225.05 423.89,-214.17 414.38,-199.5 404.1,-183.65 407.01,-174.4 414.38,-157 418.43,-147.42 425,-138.67 432.3,-131.07"/>
<polygon fill="black" stroke="black" points="434.52,-133.79 439.32,-124.34 429.67,-128.73 434.52,-133.79"/>
</g>
<!-- MATH0013&#45;&gt;MATH0056 -->
<g id="edge14" class="edge">
<title>MATH0013&#45;&gt;MATH0056</title>
<path fill="none" stroke="black" d="M1270.9,-233C1220.42,-222.97 1161.31,-211.23 1111.24,-201.28"/>
<polygon fill="black" stroke="black" points="1112.02,-197.87 1101.53,-199.35 1110.66,-204.73 1112.02,-197.87"/>
</g>
<!-- MATH0015&#45;&gt;MATH0024 -->
<g id="edge23" class="edge">
<title>MATH0015&#45;&gt;MATH0024</title>
<path fill="none" stroke="black" d="M272.78,-233.35C281.23,-213.31 294.01,-183.14 305.38,-157 308.65,-149.47 312.21,-141.4 315.59,-133.78"/>
<polygon fill="black" stroke="black" points="318.71,-135.37 319.58,-124.81 312.32,-132.53 318.71,-135.37"/>
</g>
<!-- MATH0015&#45;&gt;MATH0077 -->
<g id="edge25" class="edge">
<title>MATH0015&#45;&gt;MATH0077</title>
<path fill="none" stroke="black" d="M293.77,-233.21C330.53,-205.95 392.5,-159.99 432.92,-130.01"/>
<polygon fill="black" stroke="black" points="434.78,-132.99 440.73,-124.22 430.62,-127.36 434.78,-132.99"/>
</g>
<!-- MATH0115 -->
<g id="node26" class="node">
<title>MATH0115</title>
<g id="a_node26"><a xlink:href="https://www.ucl.ac.uk/maths/sites/maths/files/math0115_syllabus.pdf" xlink:title="Year 3 or 4, term 2">
<polygon fill="white" stroke="#cd1076" stroke-width="5" points="750.5,-42.5 618.25,-42.5 618.25,0 750.5,0 750.5,-42.5"/>
<text text-anchor="middle" x="684.38" y="-25.2" font-family="Times,serif" font-size="14.00">MATH0115</text>
<text text-anchor="middle" x="684.38" y="-7.95" font-family="Times,serif" font-size="14.00">Solid Mechanics</text>
</a>
</g>
</g>
<!-- MATH0015&#45;&gt;MATH0115 -->
<g id="edge33" class="edge">
<title>MATH0015&#45;&gt;MATH0115</title>
<path fill="none" stroke="black" d="M251.74,-233.1C234.38,-195.77 207.67,-121.23 246.38,-78.5 298.56,-20.88 511.16,-54.11 604.51,-42.93"/>
<polygon fill="black" stroke="black" points="604.94,-46.41 614.32,-41.47 603.91,-39.49 604.94,-46.41"/>
</g>
<!-- MATH0106 -->
<g id="node28" class="node">
<title>MATH0106</title>
<g id="a_node28"><a xlink:href="https://www.ucl.ac.uk/maths/sites/maths/files/math0106.pdf" xlink:title="Year 4, term 1">
<polygon fill="white" stroke="#1c86ee" stroke-width="5" points="310.38,-42.5 66.37,-42.5 66.37,0 310.38,0 310.38,-42.5"/>
<text text-anchor="middle" x="188.38" y="-25.2" font-family="Times,serif" font-size="14.00">MATH0106</text>
<text text-anchor="middle" x="188.38" y="-7.95" font-family="Times,serif" font-size="14.00">Industrial and Geological Fluids</text>
</a>
</g>
</g>
<!-- MATH0015&#45;&gt;MATH0106 -->
<g id="edge36" class="edge">
<title>MATH0015&#45;&gt;MATH0106</title>
<path fill="none" stroke="black" d="M237.17,-233.22C227.84,-223.77 218.21,-212.05 212.38,-199.5 190.8,-153.14 187.05,-93.08 187.12,-56.12"/>
<polygon fill="black" stroke="black" points="190.62,-56.54 187.24,-46.5 183.62,-56.46 190.62,-56.54"/>
</g>
<!-- MATH0019 -->
<g id="node17" class="node">
<title>MATH0019</title>
<g id="a_node17"><a xlink:href="https://www.ucl.ac.uk/maths/sites/maths/files/math0019.pdf" xlink:title="Year 3, term 1">
<polygon fill="white" stroke="#ff4040" stroke-width="5" points="1803.25,-121 1627.5,-121 1627.5,-78.5 1803.25,-78.5 1803.25,-121"/>
<text text-anchor="middle" x="1715.38" y="-103.7" font-family="Times,serif" font-size="14.00">MATH0019</text>
<text text-anchor="middle" x="1715.38" y="-86.45" font-family="Times,serif" font-size="14.00">Multivariable Analysis</text>
</a>
</g>
</g>
<!-- MATH0051&#45;&gt;MATH0019 -->
<g id="edge17" class="edge">
<title>MATH0051&#45;&gt;MATH0019</title>
<path fill="none" stroke="black" d="M1778.86,-154.71C1770.06,-147.23 1760.11,-138.78 1750.75,-130.82"/>
<polygon fill="black" stroke="black" points="1753.05,-128.18 1743.17,-124.37 1748.52,-133.52 1753.05,-128.18"/>
</g>
<!-- MATH0017 -->
<g id="node18" class="node">
<title>MATH0017</title>
<g id="a_node18"><a xlink:href="https://www.ucl.ac.uk/maths/sites/maths/files/math0017.pdf" xlink:title="Year 3, term 1">
<polygon fill="white" stroke="#ff4040" stroke-width="5" points="1953.5,-121 1821.25,-121 1821.25,-78.5 1953.5,-78.5 1953.5,-121"/>
<text text-anchor="middle" x="1887.38" y="-103.7" font-family="Times,serif" font-size="14.00">MATH0017</text>
<text text-anchor="middle" x="1887.38" y="-86.45" font-family="Times,serif" font-size="14.00">Measure Theory</text>
</a>
</g>
</g>
<!-- MATH0051&#45;&gt;MATH0017 -->
<g id="edge18" class="edge">
<title>MATH0051&#45;&gt;MATH0017</title>
<path fill="none" stroke="black" d="M1829.53,-154.71C1837.47,-147.31 1846.43,-138.95 1854.88,-131.07"/>
<polygon fill="black" stroke="black" points="1857.07,-133.81 1862,-124.42 1852.3,-128.69 1857.07,-133.81"/>
</g>
<!-- MATH0027 -->
<g id="node19" class="node">
<title>MATH0027</title>
<g id="a_node19"><a xlink:href="https://www.ucl.ac.uk/maths/sites/maths/files/math0027.pdf" xlink:title="Year 3, term 2">
<polygon fill="white" stroke="#cd3333" stroke-width="5" points="1115.88,-121 1018.88,-121 1018.88,-78.5 1115.88,-78.5 1115.88,-121"/>
<text text-anchor="middle" x="1067.38" y="-103.7" font-family="Times,serif" font-size="14.00">MATH0027</text>
<text text-anchor="middle" x="1067.38" y="-86.45" font-family="Times,serif" font-size="14.00">Methods 5</text>
</a>
</g>
</g>
<!-- MATH0056&#45;&gt;MATH0027 -->
<g id="edge19" class="edge">
<title>MATH0056&#45;&gt;MATH0027</title>
<path fill="none" stroke="black" d="M1020.11,-154.71C1026.46,-147.46 1033.61,-139.3 1040.39,-131.56"/>
<polygon fill="black" stroke="black" points="1042.59,-134.36 1046.55,-124.53 1037.33,-129.75 1042.59,-134.36"/>
</g>
<!-- MATH0056&#45;&gt;MATH0077 -->
<g id="edge27" class="edge">
<title>MATH0056&#45;&gt;MATH0077</title>
<path fill="none" stroke="black" d="M900.75,-162.82C792.99,-147.2 624.55,-122.8 534.34,-109.73"/>
<polygon fill="black" stroke="black" points="535.1,-106.3 524.71,-108.33 534.1,-113.23 535.1,-106.3"/>
</g>
<!-- MATH0056&#45;&gt;MATH0118 -->
<g id="edge28" class="edge">
<title>MATH0056&#45;&gt;MATH0118</title>
<path fill="none" stroke="black" d="M1082.44,-154.5C1114.27,-145.68 1150.89,-135.53 1183.67,-126.44"/>
<polygon fill="black" stroke="black" points="1184.47,-129.86 1193.17,-123.81 1182.6,-123.11 1184.47,-129.86"/>
</g>
<!-- MATH0056&#45;&gt;MATH0115 -->
<g id="edge34" class="edge">
<title>MATH0056&#45;&gt;MATH0115</title>
<path fill="none" stroke="black" d="M991.19,-154.64C980.69,-131.76 961.27,-97.17 933.38,-78.5 871.04,-36.77 839.68,-58.44 763.71,-43.07"/>
<polygon fill="black" stroke="black" points="764.69,-39.7 754.17,-40.97 763.18,-46.54 764.69,-39.7"/>
</g>
<!-- MATH0080 -->
<g id="node27" class="node">
<title>MATH0080</title>
<g id="a_node27"><a xlink:href="https://www.ucl.ac.uk/maths/sites/maths/files/math0080.pdf" xlink:title="Year 3 or 4, term 2">
<polygon fill="white" stroke="#cd1076" stroke-width="5" points="1097,-42.5 883.75,-42.5 883.75,0 1097,0 1097,-42.5"/>
<text text-anchor="middle" x="990.38" y="-25.2" font-family="Times,serif" font-size="14.00">MATH0080</text>
<text text-anchor="middle" x="990.38" y="-7.95" font-family="Times,serif" font-size="14.00">Waves and Wave Scattering</text>
</a>
</g>
</g>
<!-- MATH0056&#45;&gt;MATH0080 -->
<g id="edge35" class="edge">
<title>MATH0056&#45;&gt;MATH0080</title>
<path fill="none" stroke="black" d="M998.92,-154.71C997.25,-128.77 994.48,-85.9 992.55,-55.98"/>
<polygon fill="black" stroke="black" points="996.06,-56.08 991.93,-46.33 989.08,-56.53 996.06,-56.08"/>
</g>
<!-- MATH0079 -->
<g id="node30" class="node">
<title>MATH0079</title>
<g id="a_node30"><a xlink:href="https://www.ucl.ac.uk/maths/sites/maths/files/math0079.pdf" xlink:title="Year 4, term 2">
<polygon fill="white" stroke="#1874cd" stroke-width="5" points="865.88,-42.5 768.88,-42.5 768.88,0 865.88,0 865.88,-42.5"/>
<text text-anchor="middle" x="817.38" y="-25.2" font-family="Times,serif" font-size="14.00">MATH0079</text>
<text text-anchor="middle" x="817.38" y="-7.95" font-family="Times,serif" font-size="14.00">Cosmology</text>
</a>
</g>
</g>
<!-- MATH0025&#45;&gt;MATH0079 -->
<g id="edge39" class="edge">
<title>MATH0025&#45;&gt;MATH0079</title>
<path fill="none" stroke="black" d="M798.33,-76.21C800.62,-69.73 803.16,-62.53 805.62,-55.54"/>
<polygon fill="black" stroke="black" points="808.85,-56.91 808.88,-46.32 802.25,-54.58 808.85,-56.91"/>
</g>
<!-- MATH0119 -->
<g id="node25" class="node">
<title>MATH0119</title>
<g id="a_node25"><a xlink:href="https://www.ucl.ac.uk/maths/sites/maths/files/math0119.pdf" xlink:title="Year 3 or 4, term 2">
<polygon fill="white" stroke="#cd1076" stroke-width="5" points="1793.5,-42.5 1637.25,-42.5 1637.25,0 1793.5,0 1793.5,-42.5"/>
<text text-anchor="middle" x="1715.38" y="-25.2" font-family="Times,serif" font-size="14.00">MATH0119</text>
<text text-anchor="middle" x="1715.38" y="-7.95" font-family="Times,serif" font-size="14.00">Dynamical Systems</text>
</a>
</g>
</g>
<!-- MATH0019&#45;&gt;MATH0119 -->
<g id="edge31" class="edge">
<title>MATH0019&#45;&gt;MATH0119</title>
<path fill="none" stroke="black" stroke-dasharray="5,2" d="M1715.38,-76.21C1715.38,-69.89 1715.38,-62.87 1715.38,-56.04"/>
<polygon fill="black" stroke="black" points="1718.88,-56.41 1715.38,-46.41 1711.88,-56.41 1718.88,-56.41"/>
</g>
<!-- MATH0017&#45;&gt;MATH0119 -->
<g id="edge30" class="edge">
<title>MATH0017&#45;&gt;MATH0119</title>
<path fill="none" stroke="black" d="M1836.24,-76C1817.52,-67.68 1796.15,-58.17 1776.63,-49.5"/>
<polygon fill="black" stroke="black" points="1778.26,-46.39 1767.7,-45.52 1775.42,-52.78 1778.26,-46.39"/>
</g>
<!-- MATH0020&#45;&gt;MATH0119 -->
<g id="edge32" class="edge">
<title>MATH0020&#45;&gt;MATH0119</title>
<path fill="none" stroke="black" stroke-dasharray="5,2" d="M1580.46,-76C1601.65,-67.56 1625.87,-57.91 1647.9,-49.14"/>
<polygon fill="black" stroke="black" points="1649.11,-52.42 1657.1,-45.47 1646.52,-45.92 1649.11,-52.42"/>
</g>
<!-- MATH0077&#45;&gt;MATH0106 -->
<g id="edge37" class="edge">
<title>MATH0077&#45;&gt;MATH0106</title>
<path fill="none" stroke="black" stroke-dasharray="5,2" d="M421.49,-80.39C419.43,-79.74 417.39,-79.1 415.38,-78.5 378.13,-67.3 336.97,-56.6 300.05,-47.61"/>
<polygon fill="black" stroke="black" points="301.26,-44.3 290.72,-45.35 299.61,-51.1 301.26,-44.3"/>
</g>
<!-- MATH0078 -->
<g id="node29" class="node">
<title>MATH0078</title>
<g id="a_node29"><a xlink:href="https://www.ucl.ac.uk/maths/sites/maths/files/math0078.pdf" xlink:title="Year 4, term 2">
<polygon fill="white" stroke="#1874cd" stroke-width="5" points="600.62,-42.5 328.12,-42.5 328.12,0 600.62,0 600.62,-42.5"/>
<text text-anchor="middle" x="464.38" y="-25.2" font-family="Times,serif" font-size="14.00">MATH0078</text>
<text text-anchor="middle" x="464.38" y="-7.95" font-family="Times,serif" font-size="14.00">Asymptotic Approximation Methods</text>
</a>
</g>
</g>
<!-- MATH0077&#45;&gt;MATH0078 -->
<g id="edge38" class="edge">
<title>MATH0077&#45;&gt;MATH0078</title>
<path fill="none" stroke="black" d="M470.02,-76.21C469.36,-69.89 468.62,-62.87 467.91,-56.04"/>
<polygon fill="black" stroke="black" points="471.42,-55.98 466.9,-46.4 464.46,-56.71 471.42,-55.98"/>
</g>
</g>
</svg>
