<?xml version="1.0" encoding="UTF-8" standalone="no"?>
<!DOCTYPE svg PUBLIC "-//W3C//DTD SVG 1.1//EN"
 "http://www.w3.org/Graphics/SVG/1.1/DTD/svg11.dtd">
<!-- Generated by graphviz version 14.0.5 (0)
 -->
<!-- Pages: 1 -->
<svg width="1512pt" height="434pt"
 viewBox="0.00 0.00 1512.00 434.00" xmlns="http://www.w3.org/2000/svg" xmlns:xlink="http://www.w3.org/1999/xlink">
<g id="graph0" class="graph" transform="scale(1 1) rotate(0) translate(4 430)">
<polygon fill="white" stroke="none" points="-4,4 -4,-430 1508,-430 1508,4 -4,4"/>
<!-- MATH0010 -->
<g id="node1" class="node">
<title>MATH0010</title>
<g id="a_node1"><a xlink:href="https://www.ucl.ac.uk/mathematical-physical-sciences/sites/mathematical_physical_sciences/files/math0010.pdf" xlink:title="Year 1, term 1">
<polygon fill="white" stroke="#ffb90f" stroke-width="5" points="378.75,-426 224.75,-426 224.75,-385 378.75,-385 378.75,-426"/>
<text xml:space="preserve" text-anchor="middle" x="301.75" y="-408.7" font-family="Times,serif" font-size="14.00">MATH0010</text>
<text xml:space="preserve" text-anchor="middle" x="301.75" y="-392.2" font-family="Times,serif" font-size="14.00">Mathematical Methods 1</text>
</a>
</g>
</g>
<!-- MATH0009 -->
<g id="node5" class="node">
<title>MATH0009</title>
<g id="a_node5"><a xlink:href="https://www.ucl.ac.uk/mathematical-physical-sciences/sites/mathematical_physical_sciences/files/math0009.pdf" xlink:title="Year 1, term 2">
<polygon fill="white" stroke="#cd950c" stroke-width="5" points="207.88,-349 69.62,-349 69.62,-308 207.88,-308 207.88,-349"/>
<text xml:space="preserve" text-anchor="middle" x="138.75" y="-331.7" font-family="Times,serif" font-size="14.00">MATH0009</text>
<text xml:space="preserve" text-anchor="middle" x="138.75" y="-315.2" font-family="Times,serif" font-size="14.00">Newtonian Mechanics</text>
</a>
</g>
</g>
<!-- MATH0010&#45;&gt;MATH0009 -->
<g id="edge2" class="edge">
<title>MATH0010&#45;&gt;MATH0009</title>
<g id="a_edge2"><a xlink:title="required prerequisite">
<path fill="none" stroke="black" d="M254.17,-382.61C236.17,-374.32 215.48,-364.81 196.64,-356.14"/>
<polygon fill="black" stroke="black" points="198.32,-353.06 187.77,-352.05 195.39,-359.41 198.32,-353.06"/>
</a>
</g>
</g>
<!-- MATH0011 -->
<g id="node7" class="node">
<title>MATH0011</title>
<g id="a_node7"><a xlink:href="https://www.ucl.ac.uk/mathematical-physical-sciences/sites/mathematical_physical_sciences/files/math0011_3.pdf" xlink:title="Year 1, term 2">
<polygon fill="white" stroke="#cd950c" stroke-width="5" points="379.75,-349 225.75,-349 225.75,-308 379.75,-308 379.75,-349"/>
<text xml:space="preserve" text-anchor="middle" x="302.75" y="-331.7" font-family="Times,serif" font-size="14.00">MATH0011</text>
<text xml:space="preserve" text-anchor="middle" x="302.75" y="-315.2" font-family="Times,serif" font-size="14.00">Mathematical Methods 2</text>
</a>
</g>
</g>
<!-- MATH0010&#45;&gt;MATH0011 -->
<g id="edge4" class="edge">
<title>MATH0010&#45;&gt;MATH0011</title>
<g id="a_edge4"><a xlink:title="required prerequisite">
<path fill="none" stroke="black" d="M302.04,-382.81C302.12,-376.56 302.22,-369.61 302.31,-362.83"/>
<polygon fill="black" stroke="black" points="305.8,-362.96 302.44,-352.92 298.8,-362.87 305.8,-362.96"/>
</a>
</g>
</g>
<!-- MATH0003 -->
<g id="node2" class="node">
<title>MATH0003</title>
<g id="a_node2"><a xlink:href="https://www.ucl.ac.uk/mathematical-physical-sciences/sites/mathematical_physical_sciences/files/2025-09/math0003.pdf" xlink:title="Year 1, term 1">
<polygon fill="white" stroke="#ffb90f" stroke-width="5" points="1348.75,-426 1266.75,-426 1266.75,-385 1348.75,-385 1348.75,-426"/>
<text xml:space="preserve" text-anchor="middle" x="1307.75" y="-408.7" font-family="Times,serif" font-size="14.00">MATH0003</text>
<text xml:space="preserve" text-anchor="middle" x="1307.75" y="-392.2" font-family="Times,serif" font-size="14.00">Analysis 1</text>
</a>
</g>
</g>
<!-- MATH0004 -->
<g id="node8" class="node">
<title>MATH0004</title>
<g id="a_node8"><a xlink:href="https://www.ucl.ac.uk/mathematical-physical-sciences/sites/mathematical_physical_sciences/files/math0004.pdf" xlink:title="Year 1, term 2">
<polygon fill="white" stroke="#cd950c" stroke-width="5" points="1383.75,-349 1301.75,-349 1301.75,-308 1383.75,-308 1383.75,-349"/>
<text xml:space="preserve" text-anchor="middle" x="1342.75" y="-331.7" font-family="Times,serif" font-size="14.00">MATH0004</text>
<text xml:space="preserve" text-anchor="middle" x="1342.75" y="-315.2" font-family="Times,serif" font-size="14.00">Analysis 2</text>
</a>
</g>
</g>
<!-- MATH0003&#45;&gt;MATH0004 -->
<g id="edge5" class="edge">
<title>MATH0003&#45;&gt;MATH0004</title>
<g id="a_edge5"><a xlink:title="required prerequisite">
<path fill="none" stroke="black" d="M1317.87,-382.81C1320.93,-376.26 1324.35,-368.92 1327.66,-361.83"/>
<polygon fill="black" stroke="black" points="1330.83,-363.32 1331.89,-352.78 1324.49,-360.36 1330.83,-363.32"/>
</a>
</g>
</g>
<!-- MATH0013 -->
<g id="node12" class="node">
<title>MATH0013</title>
<g id="a_node12"><a xlink:href="https://www.ucl.ac.uk/mathematical-physical-sciences/sites/mathematical_physical_sciences/files/2025-09/math0013_0.pdf" xlink:title="Year 2, term 1">
<polygon fill="white" stroke="#00ff00" stroke-width="5" points="1366.88,-272 1180.62,-272 1180.62,-231 1366.88,-231 1366.88,-272"/>
<text xml:space="preserve" text-anchor="middle" x="1273.75" y="-254.7" font-family="Times,serif" font-size="14.00">MATH0013</text>
<text xml:space="preserve" text-anchor="middle" x="1273.75" y="-238.2" font-family="Times,serif" font-size="14.00">Analysis 3 &#45; Complex Analysis</text>
</a>
</g>
</g>
<!-- MATH0003&#45;&gt;MATH0013 -->
<g id="edge10" class="edge">
<title>MATH0003&#45;&gt;MATH0013</title>
<g id="a_edge10"><a xlink:title="required prerequisite">
<path fill="none" stroke="black" d="M1301.48,-382.71C1298.65,-372.51 1295.36,-360.18 1292.75,-349 1287.86,-328.03 1283.18,-304.3 1279.68,-285.62"/>
<polygon fill="black" stroke="black" points="1283.15,-285.13 1277.89,-275.93 1276.27,-286.4 1283.15,-285.13"/>
</a>
</g>
</g>
<!-- MATH0005 -->
<g id="node3" class="node">
<title>MATH0005</title>
<g id="a_node3"><a xlink:href="https://www.ucl.ac.uk/mathematical-physical-sciences/sites/mathematical_physical_sciences/files/2025-09/math0005 syllabus.pdf" xlink:title="Year 1, term 1">
<polygon fill="white" stroke="#ffb90f" stroke-width="5" points="1101.75,-426 1019.75,-426 1019.75,-385 1101.75,-385 1101.75,-426"/>
<text xml:space="preserve" text-anchor="middle" x="1060.75" y="-408.7" font-family="Times,serif" font-size="14.00">MATH0005</text>
<text xml:space="preserve" text-anchor="middle" x="1060.75" y="-392.2" font-family="Times,serif" font-size="14.00">Algebra 1</text>
</a>
</g>
</g>
<!-- MATH0006 -->
<g id="node6" class="node">
<title>MATH0006</title>
<g id="a_node6"><a xlink:href="https://www.ucl.ac.uk/mathematical-physical-sciences/sites/mathematical_physical_sciences/files/math0006.pdf" xlink:title="Year 1, term 2">
<polygon fill="white" stroke="#cd950c" stroke-width="5" points="1101.75,-349 1019.75,-349 1019.75,-308 1101.75,-308 1101.75,-349"/>
<text xml:space="preserve" text-anchor="middle" x="1060.75" y="-331.7" font-family="Times,serif" font-size="14.00">MATH0006</text>
<text xml:space="preserve" text-anchor="middle" x="1060.75" y="-315.2" font-family="Times,serif" font-size="14.00">Algebra 2</text>
</a>
</g>
</g>
<!-- MATH0005&#45;&gt;MATH0006 -->
<g id="edge3" class="edge">
<title>MATH0005&#45;&gt;MATH0006</title>
<g id="a_edge3"><a xlink:title="required prerequisite">
<path fill="none" stroke="black" d="M1060.75,-382.81C1060.75,-376.56 1060.75,-369.61 1060.75,-362.83"/>
<polygon fill="black" stroke="black" points="1064.25,-362.92 1060.75,-352.92 1057.25,-362.92 1064.25,-362.92"/>
</a>
</g>
</g>
<!-- MATH0008 -->
<g id="node4" class="node">
<title>MATH0008</title>
<g id="a_node4"><a xlink:href="https://www.ucl.ac.uk/mathematical-physical-sciences/sites/mathematical_physical_sciences/files/math0008.pdf" xlink:title="Year 1, term 1">
<polygon fill="white" stroke="#ffb90f" stroke-width="5" points="206,-426 71.5,-426 71.5,-385 206,-385 206,-426"/>
<text xml:space="preserve" text-anchor="middle" x="138.75" y="-408.7" font-family="Times,serif" font-size="14.00">MATH0008</text>
<text xml:space="preserve" text-anchor="middle" x="138.75" y="-392.2" font-family="Times,serif" font-size="14.00">Applied Mathematics</text>
</a>
</g>
</g>
<!-- MATH0008&#45;&gt;MATH0009 -->
<g id="edge1" class="edge">
<title>MATH0008&#45;&gt;MATH0009</title>
<g id="a_edge1"><a xlink:title="required prerequisite">
<path fill="none" stroke="black" d="M138.75,-382.81C138.75,-376.56 138.75,-369.61 138.75,-362.83"/>
<polygon fill="black" stroke="black" points="142.25,-362.92 138.75,-352.92 135.25,-362.92 142.25,-362.92"/>
</a>
</g>
</g>
<!-- MATH0015 -->
<g id="node11" class="node">
<title>MATH0015</title>
<g id="a_node11"><a xlink:href="https://www.ucl.ac.uk/mathematical-physical-sciences/sites/mathematical_physical_sciences/files/2025-09/math0015.pdf" xlink:title="Year 2, term 1">
<polygon fill="white" stroke="#00ff00" stroke-width="5" points="259.5,-272 152,-272 152,-231 259.5,-231 259.5,-272"/>
<text xml:space="preserve" text-anchor="middle" x="205.75" y="-254.7" font-family="Times,serif" font-size="14.00">MATH0015</text>
<text xml:space="preserve" text-anchor="middle" x="205.75" y="-238.2" font-family="Times,serif" font-size="14.00">Fluid Mechanics</text>
</a>
</g>
</g>
<!-- MATH0009&#45;&gt;MATH0015 -->
<g id="edge9" class="edge">
<title>MATH0009&#45;&gt;MATH0015</title>
<g id="a_edge9"><a xlink:title="required prerequisite">
<path fill="none" stroke="black" d="M158.13,-305.81C164.6,-298.56 171.93,-290.36 178.87,-282.59"/>
<polygon fill="black" stroke="black" points="181.12,-285.32 185.17,-275.53 175.9,-280.66 181.12,-285.32"/>
</a>
</g>
</g>
<!-- MATH0054 -->
<g id="node19" class="node">
<title>MATH0054</title>
<g id="a_node19"><a xlink:href="https://www.ucl.ac.uk/mathematical-physical-sciences/sites/mathematical_physical_sciences/files/math0054.pdf" xlink:title="Year 3, term 2">
<polygon fill="white" stroke="#cd3333" stroke-width="5" points="131.5,-118 0,-118 0,-77 131.5,-77 131.5,-118"/>
<text xml:space="preserve" text-anchor="middle" x="65.75" y="-100.7" font-family="Times,serif" font-size="14.00">MATH0054</text>
<text xml:space="preserve" text-anchor="middle" x="65.75" y="-84.2" font-family="Times,serif" font-size="14.00">Analytical Dynamics</text>
</a>
</g>
</g>
<!-- MATH0009&#45;&gt;MATH0054 -->
<g id="edge20" class="edge">
<title>MATH0009&#45;&gt;MATH0054</title>
<g id="a_edge20"><a xlink:title="required prerequisite">
<path fill="none" stroke="black" d="M123.61,-305.63C117.33,-295.73 110.42,-283.65 105.75,-272 86.88,-224.96 75.77,-167 70.23,-131.41"/>
<polygon fill="black" stroke="black" points="73.72,-131.11 68.78,-121.74 66.8,-132.15 73.72,-131.11"/>
</a>
</g>
</g>
<!-- MATH0014 -->
<g id="node9" class="node">
<title>MATH0014</title>
<g id="a_node9"><a xlink:href="https://www.ucl.ac.uk/mathematical-physical-sciences/sites/mathematical_physical_sciences/files/2025-09/math0014_0.pdf" xlink:title="Year 2, term 1">
<polygon fill="white" stroke="#00ff00" stroke-width="5" points="1162.12,-272 959.38,-272 959.38,-231 1162.12,-231 1162.12,-272"/>
<text xml:space="preserve" text-anchor="middle" x="1060.75" y="-254.7" font-family="Times,serif" font-size="14.00">MATH0014</text>
<text xml:space="preserve" text-anchor="middle" x="1060.75" y="-238.2" font-family="Times,serif" font-size="14.00">Algebra 3: Further Linear Algebra</text>
</a>
</g>
</g>
<!-- MATH0006&#45;&gt;MATH0014 -->
<g id="edge6" class="edge">
<title>MATH0006&#45;&gt;MATH0014</title>
<g id="a_edge6"><a xlink:title="required prerequisite">
<path fill="none" stroke="black" d="M1060.75,-305.81C1060.75,-299.56 1060.75,-292.61 1060.75,-285.83"/>
<polygon fill="black" stroke="black" points="1064.25,-285.92 1060.75,-275.92 1057.25,-285.92 1064.25,-285.92"/>
</a>
</g>
</g>
<!-- MATH0016 -->
<g id="node10" class="node">
<title>MATH0016</title>
<g id="a_node10"><a xlink:href="https://www.ucl.ac.uk/mathematical-physical-sciences/sites/mathematical_physical_sciences/files/2025-09/math0016_0.pdf" xlink:title="Year 2, term 1">
<polygon fill="white" stroke="#00ff00" stroke-width="5" points="433.75,-272 279.75,-272 279.75,-231 433.75,-231 433.75,-272"/>
<text xml:space="preserve" text-anchor="middle" x="356.75" y="-254.7" font-family="Times,serif" font-size="14.00">MATH0016</text>
<text xml:space="preserve" text-anchor="middle" x="356.75" y="-238.2" font-family="Times,serif" font-size="14.00">Mathematical Methods 3</text>
</a>
</g>
</g>
<!-- MATH0011&#45;&gt;MATH0016 -->
<g id="edge7" class="edge">
<title>MATH0011&#45;&gt;MATH0016</title>
<g id="a_edge7"><a xlink:title="required prerequisite">
<path fill="none" stroke="black" d="M318.37,-305.81C323.36,-298.87 328.99,-291.05 334.37,-283.58"/>
<polygon fill="black" stroke="black" points="337.09,-285.79 340.09,-275.63 331.41,-281.7 337.09,-285.79"/>
</a>
</g>
</g>
<!-- MATH0011&#45;&gt;MATH0015 -->
<g id="edge8" class="edge">
<title>MATH0011&#45;&gt;MATH0015</title>
<g id="a_edge8"><a xlink:title="required prerequisite">
<path fill="none" stroke="black" d="M274.43,-305.61C264.57,-297.98 253.36,-289.31 242.89,-281.22"/>
<polygon fill="black" stroke="black" points="245.18,-278.57 235.13,-275.22 240.9,-284.1 245.18,-278.57"/>
</a>
</g>
</g>
<!-- MATH0011&#45;&gt;MATH0054 -->
<g id="edge19" class="edge">
<title>MATH0011&#45;&gt;MATH0054</title>
<g id="a_edge19"><a xlink:title="required prerequisite">
<path fill="none" stroke="black" d="M223.61,-306.53C189.86,-296.3 155.35,-283.7 142.75,-272 100.88,-233.12 115.2,-206.1 91.75,-154 88.34,-146.42 84.58,-138.29 81.02,-130.66"/>
<polygon fill="black" stroke="black" points="84.22,-129.24 76.8,-121.68 77.88,-132.22 84.22,-129.24"/>
</a>
</g>
</g>
<!-- MATH0020 -->
<g id="node22" class="node">
<title>MATH0020</title>
<g id="a_node22"><a xlink:href="https://www.ucl.ac.uk/mathematical-physical-sciences/sites/mathematical_physical_sciences/files/math0020.pdf" xlink:title="Year 3, term 2">
<polygon fill="white" stroke="#cd3333" stroke-width="5" points="979.62,-118 851.88,-118 851.88,-77 979.62,-77 979.62,-118"/>
<text xml:space="preserve" text-anchor="middle" x="915.75" y="-100.7" font-family="Times,serif" font-size="14.00">MATH0020</text>
<text xml:space="preserve" text-anchor="middle" x="915.75" y="-84.2" font-family="Times,serif" font-size="14.00">Curves and Surfaces</text>
</a>
</g>
</g>
<!-- MATH0011&#45;&gt;MATH0020 -->
<g id="edge24" class="edge">
<title>MATH0011&#45;&gt;MATH0020</title>
<g id="a_edge24"><a xlink:title="required prerequisite">
<path fill="none" stroke="black" d="M382,-320.44C526.83,-305.89 825.88,-267.66 896.75,-195 912.87,-178.47 917.26,-152.48 917.82,-131.64"/>
<polygon fill="black" stroke="black" points="921.32,-131.87 917.78,-121.89 914.32,-131.9 921.32,-131.87"/>
</a>
</g>
</g>
<!-- MATH0004&#45;&gt;MATH0013 -->
<g id="edge11" class="edge">
<title>MATH0004&#45;&gt;MATH0013</title>
<g id="a_edge11"><a xlink:title="recommended prerequisite">
<path fill="none" stroke="black" stroke-dasharray="5,2" d="M1322.79,-305.81C1316.13,-298.56 1308.58,-290.36 1301.43,-282.59"/>
<polygon fill="black" stroke="black" points="1304.27,-280.51 1294.93,-275.52 1299.12,-285.25 1304.27,-280.51"/>
</a>
</g>
</g>
<!-- MATH0051 -->
<g id="node13" class="node">
<title>MATH0051</title>
<g id="a_node13"><a xlink:href="https://www.ucl.ac.uk/mathematical-physical-sciences/sites/mathematical_physical_sciences/files/math0051.pdf" xlink:title="Year 2 or 3, term 2">
<polygon fill="white" stroke="#8ee5ee" stroke-width="5" points="1435.75,-195 1353.75,-195 1353.75,-154 1435.75,-154 1435.75,-195"/>
<text xml:space="preserve" text-anchor="middle" x="1394.75" y="-177.7" font-family="Times,serif" font-size="14.00">MATH0051</text>
<text xml:space="preserve" text-anchor="middle" x="1394.75" y="-161.2" font-family="Times,serif" font-size="14.00">Analysis 4</text>
</a>
</g>
</g>
<!-- MATH0004&#45;&gt;MATH0051 -->
<g id="edge12" class="edge">
<title>MATH0004&#45;&gt;MATH0051</title>
<g id="a_edge12"><a xlink:title="required prerequisite">
<path fill="none" stroke="black" d="M1358.07,-305.7C1364.39,-295.82 1371.26,-283.73 1375.75,-272 1383.55,-251.63 1388.29,-227.55 1391.09,-208.55"/>
<polygon fill="black" stroke="black" points="1394.56,-209.05 1392.43,-198.67 1387.62,-208.11 1394.56,-209.05"/>
</a>
</g>
</g>
<!-- MATH0118 -->
<g id="node24" class="node">
<title>MATH0118</title>
<g id="a_node24"><a xlink:href="https://www.ucl.ac.uk/mathematical-physical-sciences/sites/mathematical_physical_sciences/files/math0118.pdf" xlink:title="Year 3 or 4, term 1">
<polygon fill="white" stroke="#ff1493" stroke-width="5" points="1222,-118 997.5,-118 997.5,-77 1222,-77 1222,-118"/>
<text xml:space="preserve" text-anchor="middle" x="1109.75" y="-100.7" font-family="Times,serif" font-size="14.00">MATH0118</text>
<text xml:space="preserve" text-anchor="middle" x="1109.75" y="-84.2" font-family="Times,serif" font-size="14.00">Mathematics for Quantum Mechanics</text>
</a>
</g>
</g>
<!-- MATH0014&#45;&gt;MATH0118 -->
<g id="edge29" class="edge">
<title>MATH0014&#45;&gt;MATH0118</title>
<g id="a_edge29"><a xlink:title="required prerequisite">
<path fill="none" stroke="black" d="M1067.77,-228.72C1076.03,-203.1 1089.82,-160.32 1099.33,-130.83"/>
<polygon fill="black" stroke="black" points="1102.54,-132.27 1102.28,-121.68 1095.88,-130.12 1102.54,-132.27"/>
</a>
</g>
</g>
<!-- MATH0056 -->
<g id="node14" class="node">
<title>MATH0056</title>
<g id="a_node14"><a xlink:href="https://www.ucl.ac.uk/mathematical-physical-sciences/sites/mathematical_physical_sciences/files/math0056.pdf" xlink:title="Year 2 or 3, term 2">
<polygon fill="white" stroke="#8ee5ee" stroke-width="5" points="887.75,-195 733.75,-195 733.75,-154 887.75,-154 887.75,-195"/>
<text xml:space="preserve" text-anchor="middle" x="810.75" y="-177.7" font-family="Times,serif" font-size="14.00">MATH0056</text>
<text xml:space="preserve" text-anchor="middle" x="810.75" y="-161.2" font-family="Times,serif" font-size="14.00">Mathematical Methods 4</text>
</a>
</g>
</g>
<!-- MATH0016&#45;&gt;MATH0056 -->
<g id="edge14" class="edge">
<title>MATH0016&#45;&gt;MATH0056</title>
<g id="a_edge14"><a xlink:title="required prerequisite">
<path fill="none" stroke="black" d="M436,-240.26C508.09,-230.55 617.67,-214.83 720.4,-195.77"/>
<polygon fill="black" stroke="black" points="720.93,-199.23 730.11,-193.95 719.64,-192.35 720.93,-199.23"/>
</a>
</g>
</g>
<!-- MATH0055 -->
<g id="node15" class="node">
<title>MATH0055</title>
<g id="a_node15"><a xlink:href="https://www.ucl.ac.uk/mathematical-physical-sciences/sites/mathematical_physical_sciences/files/math0055_3.pdf" xlink:title="Year 2 or 3, term 2">
<polygon fill="white" stroke="#8ee5ee" stroke-width="5" points="715.5,-195 386,-195 386,-154 715.5,-154 715.5,-195"/>
<text xml:space="preserve" text-anchor="middle" x="550.75" y="-177.7" font-family="Times,serif" font-size="14.00">MATH0055</text>
<text xml:space="preserve" text-anchor="middle" x="550.75" y="-161.2" font-family="Times,serif" font-size="14.00">Mathematics of Electromagnetism and Special Relativity</text>
</a>
</g>
</g>
<!-- MATH0016&#45;&gt;MATH0055 -->
<g id="edge15" class="edge">
<title>MATH0016&#45;&gt;MATH0055</title>
<g id="a_edge15"><a xlink:title="required prerequisite">
<path fill="none" stroke="black" d="M413.65,-228.5C435.46,-220.07 460.56,-210.37 483.27,-201.59"/>
<polygon fill="black" stroke="black" points="484.38,-204.91 492.44,-198.04 481.85,-198.38 484.38,-204.91"/>
</a>
</g>
</g>
<!-- MATH0025 -->
<g id="node17" class="node">
<title>MATH0025</title>
<g id="a_node17"><a xlink:href="https://www.ucl.ac.uk/mathematical-physical-sciences/sites/mathematical_physical_sciences/files/math0025.pdf" xlink:title="Year 3, term 1">
<polygon fill="white" stroke="#ff4040" stroke-width="5" points="644.88,-118 434.62,-118 434.62,-77 644.88,-77 644.88,-118"/>
<text xml:space="preserve" text-anchor="middle" x="539.75" y="-100.7" font-family="Times,serif" font-size="14.00">MATH0025</text>
<text xml:space="preserve" text-anchor="middle" x="539.75" y="-84.2" font-family="Times,serif" font-size="14.00">Mathematics for General Relativity</text>
</a>
</g>
</g>
<!-- MATH0016&#45;&gt;MATH0025 -->
<g id="edge17" class="edge">
<title>MATH0016&#45;&gt;MATH0025</title>
<g id="a_edge17"><a xlink:title="required prerequisite">
<path fill="none" stroke="black" d="M355.43,-228.62C355.35,-207.08 358.63,-174.52 376.75,-154 389.07,-140.05 405.05,-129.6 422.17,-121.77"/>
<polygon fill="black" stroke="black" points="423.12,-125.17 430.97,-118.05 420.39,-118.72 423.12,-125.17"/>
</a>
</g>
</g>
<!-- MATH0024 -->
<g id="node21" class="node">
<title>MATH0024</title>
<g id="a_node21"><a xlink:href="https://www.ucl.ac.uk/mathematical-physical-sciences/sites/mathematical_physical_sciences/files/math0024.pdf" xlink:title="Year 3, term 2">
<polygon fill="white" stroke="#cd3333" stroke-width="5" points="309.25,-118 188.25,-118 188.25,-77 309.25,-77 309.25,-118"/>
<text xml:space="preserve" text-anchor="middle" x="248.75" y="-100.7" font-family="Times,serif" font-size="14.00">MATH0024</text>
<text xml:space="preserve" text-anchor="middle" x="248.75" y="-84.2" font-family="Times,serif" font-size="14.00">Geophysical Fluids</text>
</a>
</g>
</g>
<!-- MATH0016&#45;&gt;MATH0024 -->
<g id="edge23" class="edge">
<title>MATH0016&#45;&gt;MATH0024</title>
<g id="a_edge23"><a xlink:title="required prerequisite">
<path fill="none" stroke="black" d="M341.28,-228.72C322.75,-202.65 291.6,-158.81 270.62,-129.28"/>
<polygon fill="black" stroke="black" points="273.72,-127.6 265.07,-121.47 268.01,-131.65 273.72,-127.6"/>
</a>
</g>
</g>
<!-- MATH0077 -->
<g id="node23" class="node">
<title>MATH0077</title>
<g id="a_node23"><a xlink:href="https://www.ucl.ac.uk/mathematical-physical-sciences/sites/mathematical_physical_sciences/files/math0077.pdf" xlink:title="Year 3 or 4, term 1">
<polygon fill="white" stroke="#ff1493" stroke-width="5" points="409.75,-118 327.75,-118 327.75,-77 409.75,-77 409.75,-118"/>
<text xml:space="preserve" text-anchor="middle" x="368.75" y="-100.7" font-family="Times,serif" font-size="14.00">MATH0077</text>
<text xml:space="preserve" text-anchor="middle" x="368.75" y="-84.2" font-family="Times,serif" font-size="14.00">Real Fluids</text>
</a>
</g>
</g>
<!-- MATH0016&#45;&gt;MATH0077 -->
<g id="edge26" class="edge">
<title>MATH0016&#45;&gt;MATH0077</title>
<g id="a_edge26"><a xlink:title="required prerequisite">
<path fill="none" stroke="black" d="M349.6,-228.87C344.1,-209.2 338.28,-179.45 343.75,-154 345.42,-146.23 348.27,-138.23 351.46,-130.81"/>
<polygon fill="black" stroke="black" points="354.6,-132.36 355.64,-121.81 348.25,-129.41 354.6,-132.36"/>
</a>
</g>
</g>
<!-- MATH0015&#45;&gt;MATH0024 -->
<g id="edge22" class="edge">
<title>MATH0015&#45;&gt;MATH0024</title>
<g id="a_edge22"><a xlink:title="required prerequisite">
<path fill="none" stroke="black" d="M210.65,-228.51C215.16,-208.86 222.28,-179.33 229.75,-154 231.95,-146.54 234.53,-138.59 237.06,-131.11"/>
<polygon fill="black" stroke="black" points="240.37,-132.26 240.33,-121.67 233.75,-129.98 240.37,-132.26"/>
</a>
</g>
</g>
<!-- MATH0015&#45;&gt;MATH0077 -->
<g id="edge25" class="edge">
<title>MATH0015&#45;&gt;MATH0077</title>
<g id="a_edge25"><a xlink:title="required prerequisite">
<path fill="none" stroke="black" d="M229.1,-228.72C257.47,-202.27 305.44,-157.54 337.1,-128.01"/>
<polygon fill="black" stroke="black" points="339.14,-130.9 344.07,-121.52 334.37,-125.78 339.14,-130.9"/>
</a>
</g>
</g>
<!-- MATH0115 -->
<g id="node25" class="node">
<title>MATH0115</title>
<g id="a_node25"><a xlink:href="https://www.ucl.ac.uk/mathematical-physical-sciences/sites/mathematical_physical_sciences/files/math0115_0.pdf" xlink:title="Year 3 or 4, term 2">
<polygon fill="white" stroke="#cd1076" stroke-width="5" points="500.5,-41 393,-41 393,0 500.5,0 500.5,-41"/>
<text xml:space="preserve" text-anchor="middle" x="446.75" y="-23.7" font-family="Times,serif" font-size="14.00">MATH0115</text>
<text xml:space="preserve" text-anchor="middle" x="446.75" y="-7.2" font-family="Times,serif" font-size="14.00">Solid Mechanics</text>
</a>
</g>
</g>
<!-- MATH0015&#45;&gt;MATH0115 -->
<g id="edge30" class="edge">
<title>MATH0015&#45;&gt;MATH0115</title>
<g id="a_edge30"><a xlink:title="required prerequisite">
<path fill="none" stroke="black" d="M192.97,-228.7C173.73,-192.71 143.24,-120.52 179.75,-77 207.37,-44.08 322.23,-50.69 379.27,-41.51"/>
<polygon fill="black" stroke="black" points="379.9,-44.95 389.03,-39.58 378.54,-38.08 379.9,-44.95"/>
</a>
</g>
</g>
<!-- MATH0013&#45;&gt;MATH0056 -->
<g id="edge13" class="edge">
<title>MATH0013&#45;&gt;MATH0056</title>
<g id="a_edge13"><a xlink:title="required prerequisite">
<path fill="none" stroke="black" d="M1178.37,-232.32C1175.81,-231.87 1173.26,-231.43 1170.75,-231 1079.16,-215.27 974.09,-199.31 901.2,-188.57"/>
<polygon fill="black" stroke="black" points="902.14,-185.17 891.74,-187.18 901.12,-192.1 902.14,-185.17"/>
</a>
</g>
</g>
<!-- MATH0017 -->
<g id="node16" class="node">
<title>MATH0017</title>
<g id="a_node16"><a xlink:href="https://www.ucl.ac.uk/mathematical-physical-sciences/sites/mathematical_physical_sciences/files/math0017.pdf" xlink:title="Year 3, term 1">
<polygon fill="white" stroke="#ff4040" stroke-width="5" points="1345.38,-118 1240.12,-118 1240.12,-77 1345.38,-77 1345.38,-118"/>
<text xml:space="preserve" text-anchor="middle" x="1292.75" y="-100.7" font-family="Times,serif" font-size="14.00">MATH0017</text>
<text xml:space="preserve" text-anchor="middle" x="1292.75" y="-84.2" font-family="Times,serif" font-size="14.00">Measure Theory</text>
</a>
</g>
</g>
<!-- MATH0051&#45;&gt;MATH0017 -->
<g id="edge16" class="edge">
<title>MATH0051&#45;&gt;MATH0017</title>
<g id="a_edge16"><a xlink:title="required prerequisite">
<path fill="none" stroke="black" d="M1364.97,-151.61C1354.5,-143.9 1342.57,-135.13 1331.47,-126.97"/>
<polygon fill="black" stroke="black" points="1333.74,-124.29 1323.61,-121.19 1329.59,-129.93 1333.74,-124.29"/>
</a>
</g>
</g>
<!-- MATH0019 -->
<g id="node18" class="node">
<title>MATH0019</title>
<g id="a_node18"><a xlink:href="https://www.ucl.ac.uk/mathematical-physical-sciences/sites/mathematical_physical_sciences/files/math0019.pdf" xlink:title="Year 3, term 1">
<polygon fill="white" stroke="#ff4040" stroke-width="5" points="1504,-118 1363.5,-118 1363.5,-77 1504,-77 1504,-118"/>
<text xml:space="preserve" text-anchor="middle" x="1433.75" y="-100.7" font-family="Times,serif" font-size="14.00">MATH0019</text>
<text xml:space="preserve" text-anchor="middle" x="1433.75" y="-84.2" font-family="Times,serif" font-size="14.00">Multivariable Analysis</text>
</a>
</g>
</g>
<!-- MATH0051&#45;&gt;MATH0019 -->
<g id="edge18" class="edge">
<title>MATH0051&#45;&gt;MATH0019</title>
<g id="a_edge18"><a xlink:title="required prerequisite">
<path fill="none" stroke="black" d="M1406.03,-151.81C1409.48,-145.18 1413.34,-137.75 1417.07,-130.58"/>
<polygon fill="black" stroke="black" points="1420.15,-132.23 1421.66,-121.75 1413.94,-129 1420.15,-132.23"/>
</a>
</g>
</g>
<!-- MATH0027 -->
<g id="node20" class="node">
<title>MATH0027</title>
<g id="a_node20"><a xlink:href="https://www.ucl.ac.uk/mathematical-physical-sciences/sites/mathematical_physical_sciences/files/math0027.pdf" xlink:title="Year 3, term 2">
<polygon fill="white" stroke="#cd3333" stroke-width="5" points="833.75,-118 751.75,-118 751.75,-77 833.75,-77 833.75,-118"/>
<text xml:space="preserve" text-anchor="middle" x="792.75" y="-100.7" font-family="Times,serif" font-size="14.00">MATH0027</text>
<text xml:space="preserve" text-anchor="middle" x="792.75" y="-84.2" font-family="Times,serif" font-size="14.00">Methods 5</text>
</a>
</g>
</g>
<!-- MATH0056&#45;&gt;MATH0027 -->
<g id="edge21" class="edge">
<title>MATH0056&#45;&gt;MATH0027</title>
<g id="a_edge21"><a xlink:title="required prerequisite">
<path fill="none" stroke="black" d="M805.54,-151.81C804.03,-145.49 802.33,-138.44 800.69,-131.58"/>
<polygon fill="black" stroke="black" points="804.1,-130.78 798.36,-121.88 797.29,-132.42 804.1,-130.78"/>
</a>
</g>
</g>
<!-- MATH0056&#45;&gt;MATH0077 -->
<g id="edge27" class="edge">
<title>MATH0056&#45;&gt;MATH0077</title>
<g id="a_edge27"><a xlink:title="required prerequisite">
<path fill="none" stroke="black" d="M731.62,-155.23C729.31,-154.8 727.01,-154.39 724.75,-154 592.86,-131.17 556.23,-147.83 425.75,-118 424.77,-117.78 423.78,-117.54 422.79,-117.3"/>
<polygon fill="black" stroke="black" points="424.08,-114.02 413.51,-114.76 422.23,-120.77 424.08,-114.02"/>
</a>
</g>
</g>
<!-- MATH0056&#45;&gt;MATH0118 -->
<g id="edge28" class="edge">
<title>MATH0056&#45;&gt;MATH0118</title>
<g id="a_edge28"><a xlink:title="required prerequisite">
<path fill="none" stroke="black" d="M890.09,-153.6C927.25,-144.28 971.9,-133.08 1011.2,-123.22"/>
<polygon fill="black" stroke="black" points="1011.82,-126.67 1020.67,-120.84 1010.12,-119.88 1011.82,-126.67"/>
</a>
</g>
</g>
<!-- MATH0056&#45;&gt;MATH0115 -->
<g id="edge31" class="edge">
<title>MATH0056&#45;&gt;MATH0115</title>
<g id="a_edge31"><a xlink:title="required prerequisite">
<path fill="none" stroke="black" d="M776.33,-151.57C734.11,-124.79 666.54,-82.38 653.75,-77 596.14,-52.78 575.47,-58.08 513.45,-41.9"/>
<polygon fill="black" stroke="black" points="514.72,-38.62 504.15,-39.39 512.89,-45.38 514.72,-38.62"/>
</a>
</g>
</g>
<!-- MATH0080 -->
<g id="node27" class="node">
<title>MATH0080</title>
<g id="a_node27"><a xlink:href="https://www.ucl.ac.uk/mathematical-physical-sciences/sites/mathematical_physical_sciences/files/math0080.pdf" xlink:title="Year 3 or 4, term 2">
<polygon fill="white" stroke="#cd1076" stroke-width="5" points="807.5,-41 640,-41 640,0 807.5,0 807.5,-41"/>
<text xml:space="preserve" text-anchor="middle" x="723.75" y="-23.7" font-family="Times,serif" font-size="14.00">MATH0080</text>
<text xml:space="preserve" text-anchor="middle" x="723.75" y="-7.2" font-family="Times,serif" font-size="14.00">Waves and Wave Scattering</text>
</a>
</g>
</g>
<!-- MATH0056&#45;&gt;MATH0080 -->
<g id="edge35" class="edge">
<title>MATH0056&#45;&gt;MATH0080</title>
<g id="a_edge35"><a xlink:title="required prerequisite">
<path fill="none" stroke="black" d="M774.86,-151.62C762.92,-142.62 750.67,-131.2 742.75,-118 731.33,-98.96 726.61,-74.37 724.73,-54.78"/>
<polygon fill="black" stroke="black" points="728.22,-54.55 724,-44.83 721.24,-55.06 728.22,-54.55"/>
</a>
</g>
</g>
<!-- MATH0119 -->
<g id="node26" class="node">
<title>MATH0119</title>
<g id="a_node26"><a xlink:href="https://www.ucl.ac.uk/mathematical-physical-sciences/sites/mathematical_physical_sciences/files/math0119.pdf" xlink:title="Year 3 or 4, term 2">
<polygon fill="white" stroke="#cd1076" stroke-width="5" points="1355.5,-41 1230,-41 1230,0 1355.5,0 1355.5,-41"/>
<text xml:space="preserve" text-anchor="middle" x="1292.75" y="-23.7" font-family="Times,serif" font-size="14.00">MATH0119</text>
<text xml:space="preserve" text-anchor="middle" x="1292.75" y="-7.2" font-family="Times,serif" font-size="14.00">Dynamical Systems</text>
</a>
</g>
</g>
<!-- MATH0017&#45;&gt;MATH0119 -->
<g id="edge32" class="edge">
<title>MATH0017&#45;&gt;MATH0119</title>
<g id="a_edge32"><a xlink:title="required prerequisite">
<path fill="none" stroke="black" d="M1292.75,-74.81C1292.75,-68.56 1292.75,-61.61 1292.75,-54.83"/>
<polygon fill="black" stroke="black" points="1296.25,-54.92 1292.75,-44.92 1289.25,-54.92 1296.25,-54.92"/>
</a>
</g>
</g>
<!-- MATH0079 -->
<g id="node28" class="node">
<title>MATH0079</title>
<g id="a_node28"><a xlink:href="https://www.ucl.ac.uk/mathematical-physical-sciences/sites/mathematical_physical_sciences/files/math0079.pdf" xlink:title="Year 4, term 2">
<polygon fill="white" stroke="#1874cd" stroke-width="5" points="600.75,-41 518.75,-41 518.75,0 600.75,0 600.75,-41"/>
<text xml:space="preserve" text-anchor="middle" x="559.75" y="-23.7" font-family="Times,serif" font-size="14.00">MATH0079</text>
<text xml:space="preserve" text-anchor="middle" x="559.75" y="-7.2" font-family="Times,serif" font-size="14.00">Cosmology</text>
</a>
</g>
</g>
<!-- MATH0025&#45;&gt;MATH0079 -->
<g id="edge36" class="edge">
<title>MATH0025&#45;&gt;MATH0079</title>
<g id="a_edge36"><a xlink:title="required prerequisite">
<path fill="none" stroke="black" d="M545.53,-74.81C547.24,-68.41 549.15,-61.26 550.99,-54.33"/>
<polygon fill="black" stroke="black" points="554.32,-55.43 553.52,-44.87 547.56,-53.63 554.32,-55.43"/>
</a>
</g>
</g>
<!-- MATH0019&#45;&gt;MATH0119 -->
<g id="edge33" class="edge">
<title>MATH0019&#45;&gt;MATH0119</title>
<g id="a_edge33"><a xlink:title="recommended prerequisite">
<path fill="none" stroke="black" stroke-dasharray="5,2" d="M1392.59,-74.61C1377.24,-66.44 1359.63,-57.08 1343.52,-48.51"/>
<polygon fill="black" stroke="black" points="1345.53,-45.61 1335.06,-44 1342.24,-51.79 1345.53,-45.61"/>
</a>
</g>
</g>
<!-- MATH0020&#45;&gt;MATH0119 -->
<g id="edge34" class="edge">
<title>MATH0020&#45;&gt;MATH0119</title>
<g id="a_edge34"><a xlink:title="recommended prerequisite">
<path fill="none" stroke="black" stroke-dasharray="5,2" d="M981.74,-78.62C984.11,-78.06 986.45,-77.52 988.75,-77 1065.75,-59.72 1154.63,-43.97 1216.32,-33.7"/>
<polygon fill="black" stroke="black" points="1216.72,-37.18 1226.02,-32.1 1215.58,-30.28 1216.72,-37.18"/>
</a>
</g>
</g>
<!-- MATH0078 -->
<g id="node29" class="node">
<title>MATH0078</title>
<g id="a_node29"><a xlink:href="https://www.ucl.ac.uk/mathematical-physical-sciences/sites/mathematical_physical_sciences/files/math0078.pdf" xlink:title="Year 4, term 2">
<polygon fill="white" stroke="#1874cd" stroke-width="5" points="374.62,-41 156.88,-41 156.88,0 374.62,0 374.62,-41"/>
<text xml:space="preserve" text-anchor="middle" x="265.75" y="-23.7" font-family="Times,serif" font-size="14.00">MATH0078</text>
<text xml:space="preserve" text-anchor="middle" x="265.75" y="-7.2" font-family="Times,serif" font-size="14.00">Asymptotic Approximation Methods</text>
</a>
</g>
</g>
<!-- MATH0077&#45;&gt;MATH0078 -->
<g id="edge37" class="edge">
<title>MATH0077&#45;&gt;MATH0078</title>
<g id="a_edge37"><a xlink:title="required prerequisite">
<path fill="none" stroke="black" d="M338.68,-74.61C328.1,-66.9 316.06,-58.13 304.85,-49.97"/>
<polygon fill="black" stroke="black" points="307.05,-47.24 296.9,-44.18 302.93,-52.9 307.05,-47.24"/>
</a>
</g>
</g>
</g>
</svg>
