<?xml version="1.0" encoding="UTF-8" standalone="no"?>
<!DOCTYPE svg PUBLIC "-//W3C//DTD SVG 1.1//EN"
 "http://www.w3.org/Graphics/SVG/1.1/DTD/svg11.dtd">
<!-- Generated by graphviz version 12.1.1 (0)
 -->
<!-- Pages: 1 -->
<svg width="1439pt" height="443pt"
 viewBox="0.00 0.00 1439.38 443.00" xmlns="http://www.w3.org/2000/svg" xmlns:xlink="http://www.w3.org/1999/xlink">
<g id="graph0" class="graph" transform="scale(1 1) rotate(0) translate(4 439)">
<polygon fill="white" stroke="none" points="-4,4 -4,-439 1435.38,-439 1435.38,4 -4,4"/>
<!-- MATH0008 -->
<g id="node1" class="node">
<title>MATH0008</title>
<g id="a_node1"><a xlink:href="https://www.ucl.ac.uk/maths/sites/maths/files/math0008.pdf" xlink:title="MATH0008&#10;Applied Mathematics">
<polygon fill="white" stroke="orange" stroke-width="5" points="170.5,-435 3,-435 3,-392.5 170.5,-392.5 170.5,-435"/>
<text text-anchor="middle" x="86.75" y="-417.7" font-family="Times,serif" font-size="14.00">MATH0008</text>
<text text-anchor="middle" x="86.75" y="-400.45" font-family="Times,serif" font-size="14.00">Applied Mathematics</text>
</a>
</g>
</g>
<!-- MATH0009 -->
<g id="node4" class="node">
<title>MATH0009</title>
<g id="a_node4"><a xlink:href="https://www.ucl.ac.uk/maths/sites/maths/files/math0009.pdf" xlink:title="MATH0009&#10;Newtonian Mechanics">
<polygon fill="white" stroke="orange" stroke-width="5" points="173.5,-356.5 0,-356.5 0,-314 173.5,-314 173.5,-356.5"/>
<text text-anchor="middle" x="86.75" y="-339.2" font-family="Times,serif" font-size="14.00">MATH0009</text>
<text text-anchor="middle" x="86.75" y="-321.95" font-family="Times,serif" font-size="14.00">Newtonian Mechanics</text>
</a>
</g>
</g>
<!-- MATH0008&#45;&gt;MATH0009 -->
<g id="edge1" class="edge">
<title>MATH0008&#45;&gt;MATH0009</title>
<path fill="none" stroke="black" d="M86.75,-390.21C86.75,-383.89 86.75,-376.87 86.75,-370.04"/>
<polygon fill="black" stroke="black" points="90.25,-370.41 86.75,-360.41 83.25,-370.41 90.25,-370.41"/>
</g>
<!-- MATH0003 -->
<g id="node2" class="node">
<title>MATH0003</title>
<g id="a_node2"><a xlink:href="https://www.ucl.ac.uk/maths/sites/maths/files/math0003.pdf" xlink:title="MATH0003&#10;Analysis 1">
<polygon fill="white" stroke="orange" stroke-width="5" points="1285.25,-435 1188.25,-435 1188.25,-392.5 1285.25,-392.5 1285.25,-435"/>
<text text-anchor="middle" x="1236.75" y="-417.7" font-family="Times,serif" font-size="14.00">MATH0003</text>
<text text-anchor="middle" x="1236.75" y="-400.45" font-family="Times,serif" font-size="14.00">Analysis 1</text>
</a>
</g>
</g>
<!-- MATH0004 -->
<g id="node6" class="node">
<title>MATH0004</title>
<g id="a_node6"><a xlink:href="https://www.ucl.ac.uk/maths/sites/maths/files/math0004.pdf" xlink:title="MATH0004&#10;Analysis 2">
<polygon fill="white" stroke="orange" stroke-width="5" points="1247.25,-356.5 1150.25,-356.5 1150.25,-314 1247.25,-314 1247.25,-356.5"/>
<text text-anchor="middle" x="1198.75" y="-339.2" font-family="Times,serif" font-size="14.00">MATH0004</text>
<text text-anchor="middle" x="1198.75" y="-321.95" font-family="Times,serif" font-size="14.00">Analysis 2</text>
</a>
</g>
</g>
<!-- MATH0003&#45;&gt;MATH0004 -->
<g id="edge4" class="edge">
<title>MATH0003&#45;&gt;MATH0004</title>
<path fill="none" stroke="black" d="M1225.55,-390.21C1222.26,-383.58 1218.59,-376.18 1215.04,-369.04"/>
<polygon fill="black" stroke="black" points="1218.25,-367.65 1210.67,-360.25 1211.98,-370.76 1218.25,-367.65"/>
</g>
<!-- MATH0013 -->
<g id="node7" class="node">
<title>MATH0013</title>
<g id="a_node7"><a xlink:href="https://www.ucl.ac.uk/maths/sites/maths/files/math0013.pdf" xlink:title="MATH0013&#10;Analysis 3 &#45; Complex Analysis">
<polygon fill="white" stroke="#00cd00" stroke-width="5" points="1351.88,-278 1123.62,-278 1123.62,-235.5 1351.88,-235.5 1351.88,-278"/>
<text text-anchor="middle" x="1237.75" y="-260.7" font-family="Times,serif" font-size="14.00">MATH0013</text>
<text text-anchor="middle" x="1237.75" y="-243.45" font-family="Times,serif" font-size="14.00">Analysis 3 &#45; Complex Analysis</text>
</a>
</g>
</g>
<!-- MATH0003&#45;&gt;MATH0013 -->
<g id="edge5" class="edge">
<title>MATH0003&#45;&gt;MATH0013</title>
<path fill="none" stroke="black" d="M1246.74,-390.24C1250.7,-380.14 1254.78,-367.94 1256.75,-356.5 1259.96,-337.89 1259.81,-332.64 1256.75,-314 1255.51,-306.44 1253.38,-298.52 1250.99,-291.09"/>
<polygon fill="black" stroke="black" points="1254.33,-290.03 1247.74,-281.74 1247.72,-292.33 1254.33,-290.03"/>
</g>
<!-- MATH0010 -->
<g id="node3" class="node">
<title>MATH0010</title>
<g id="a_node3"><a xlink:href="https://www.ucl.ac.uk/maths/sites/maths/files/math0010.pdf" xlink:title="MATH0010&#10;Mathematical Methods 1">
<polygon fill="white" stroke="orange" stroke-width="5" points="385,-435 190.5,-435 190.5,-392.5 385,-392.5 385,-435"/>
<text text-anchor="middle" x="287.75" y="-417.7" font-family="Times,serif" font-size="14.00">MATH0010</text>
<text text-anchor="middle" x="287.75" y="-400.45" font-family="Times,serif" font-size="14.00">Mathematical Methods 1</text>
</a>
</g>
</g>
<!-- MATH0010&#45;&gt;MATH0009 -->
<g id="edge2" class="edge">
<title>MATH0010&#45;&gt;MATH0009</title>
<path fill="none" stroke="black" d="M227.99,-390C205.61,-381.49 179.99,-371.74 156.76,-362.9"/>
<polygon fill="black" stroke="black" points="158.29,-359.73 147.7,-359.45 155.8,-366.27 158.29,-359.73"/>
</g>
<!-- MATH0011 -->
<g id="node5" class="node">
<title>MATH0011</title>
<g id="a_node5"><a xlink:href="https://www.ucl.ac.uk/maths/sites/maths/files/math0011_syllabus.pdf" xlink:title="MATH0011&#10;Mathematical Methods 2">
<polygon fill="white" stroke="orange" stroke-width="5" points="386,-356.5 191.5,-356.5 191.5,-314 386,-314 386,-356.5"/>
<text text-anchor="middle" x="288.75" y="-339.2" font-family="Times,serif" font-size="14.00">MATH0011</text>
<text text-anchor="middle" x="288.75" y="-321.95" font-family="Times,serif" font-size="14.00">Mathematical Methods 2</text>
</a>
</g>
</g>
<!-- MATH0010&#45;&gt;MATH0011 -->
<g id="edge3" class="edge">
<title>MATH0010&#45;&gt;MATH0011</title>
<path fill="none" stroke="black" d="M288.04,-390.21C288.13,-383.89 288.22,-376.87 288.31,-370.04"/>
<polygon fill="black" stroke="black" points="291.8,-370.45 288.43,-360.41 284.8,-370.36 291.8,-370.45"/>
</g>
<!-- MATH0015 -->
<g id="node8" class="node">
<title>MATH0015</title>
<g id="a_node8"><a xlink:href="https://www.ucl.ac.uk/maths/sites/maths/files/math0015.pdf" xlink:title="MATH0015&#10;Fluid Mechanics">
<polygon fill="white" stroke="#00cd00" stroke-width="5" points="320.25,-278 187.25,-278 187.25,-235.5 320.25,-235.5 320.25,-278"/>
<text text-anchor="middle" x="253.75" y="-260.7" font-family="Times,serif" font-size="14.00">MATH0015</text>
<text text-anchor="middle" x="253.75" y="-243.45" font-family="Times,serif" font-size="14.00">Fluid Mechanics</text>
</a>
</g>
</g>
<!-- MATH0009&#45;&gt;MATH0015 -->
<g id="edge8" class="edge">
<title>MATH0009&#45;&gt;MATH0015</title>
<path fill="none" stroke="black" d="M136.4,-311.5C154.49,-303.22 175.14,-293.76 194.01,-285.12"/>
<polygon fill="black" stroke="black" points="195.28,-288.38 202.91,-281.04 192.36,-282.02 195.28,-288.38"/>
</g>
<!-- MATH0054 -->
<g id="node13" class="node">
<title>MATH0054</title>
<g id="a_node13"><a xlink:href="https://www.ucl.ac.uk/maths/sites/maths/files/math0054.pdf" xlink:title="MATH0054&#10;Analytical Dynamics">
<polygon fill="white" stroke="#ff4040" stroke-width="5" points="167.12,-121 6.38,-121 6.38,-78.5 167.12,-78.5 167.12,-121"/>
<text text-anchor="middle" x="86.75" y="-103.7" font-family="Times,serif" font-size="14.00">MATH0054</text>
<text text-anchor="middle" x="86.75" y="-86.45" font-family="Times,serif" font-size="14.00">Analytical Dynamics</text>
</a>
</g>
</g>
<!-- MATH0009&#45;&gt;MATH0054 -->
<g id="edge15" class="edge">
<title>MATH0009&#45;&gt;MATH0054</title>
<path fill="none" stroke="black" d="M86.75,-311.86C86.75,-270.82 86.75,-183.32 86.75,-134.85"/>
<polygon fill="black" stroke="black" points="90.25,-134.93 86.75,-124.93 83.25,-134.93 90.25,-134.93"/>
</g>
<!-- MATH0011&#45;&gt;MATH0015 -->
<g id="edge7" class="edge">
<title>MATH0011&#45;&gt;MATH0015</title>
<path fill="none" stroke="black" d="M278.44,-311.71C275.4,-305.08 272.02,-297.68 268.75,-290.54"/>
<polygon fill="black" stroke="black" points="272.08,-289.41 264.74,-281.77 265.72,-292.32 272.08,-289.41"/>
</g>
<!-- MATH0016 -->
<g id="node9" class="node">
<title>MATH0016</title>
<g id="a_node9"><a xlink:href="https://www.ucl.ac.uk/maths/sites/maths/files/math0016.pdf" xlink:title="MATH0016&#10;Mathematical Methods 3">
<polygon fill="white" stroke="cadetblue" stroke-width="5" points="804,-278 609.5,-278 609.5,-235.5 804,-235.5 804,-278"/>
<text text-anchor="middle" x="706.75" y="-260.7" font-family="Times,serif" font-size="14.00">MATH0016</text>
<text text-anchor="middle" x="706.75" y="-243.45" font-family="Times,serif" font-size="14.00">Mathematical Methods 3</text>
</a>
</g>
</g>
<!-- MATH0011&#45;&gt;MATH0016 -->
<g id="edge9" class="edge">
<title>MATH0011&#45;&gt;MATH0016</title>
<path fill="none" stroke="black" d="M388.34,-316.02C450.89,-304.58 531.64,-289.8 596.17,-277.99"/>
<polygon fill="black" stroke="black" points="596.5,-281.48 605.71,-276.24 595.24,-274.6 596.5,-281.48"/>
</g>
<!-- MATH0011&#45;&gt;MATH0054 -->
<g id="edge14" class="edge">
<title>MATH0011&#45;&gt;MATH0054</title>
<path fill="none" stroke="black" d="M228.1,-311.56C210.69,-302.97 192.67,-291.84 178.75,-278 137.23,-236.73 110.46,-172.8 97.04,-134.05"/>
<polygon fill="black" stroke="black" points="100.44,-133.16 93.94,-124.79 93.8,-135.39 100.44,-133.16"/>
</g>
<!-- MATH0004&#45;&gt;MATH0013 -->
<g id="edge6" class="edge">
<title>MATH0004&#45;&gt;MATH0013</title>
<path fill="none" stroke="black" stroke-dasharray="5,2" d="M1210.24,-311.71C1213.62,-305.08 1217.39,-297.68 1221.03,-290.54"/>
<polygon fill="black" stroke="black" points="1224.1,-292.24 1225.52,-281.74 1217.86,-289.06 1224.1,-292.24"/>
</g>
<!-- MATH0056 -->
<g id="node10" class="node">
<title>MATH0056</title>
<g id="a_node10"><a xlink:href="https://www.ucl.ac.uk/maths/sites/maths/files/math0056.pdf" xlink:title="MATH0056&#10;Mathematical Methods 4">
<polygon fill="white" stroke="cadetblue" stroke-width="5" points="1335,-199.5 1140.5,-199.5 1140.5,-157 1335,-157 1335,-199.5"/>
<text text-anchor="middle" x="1237.75" y="-182.2" font-family="Times,serif" font-size="14.00">MATH0056</text>
<text text-anchor="middle" x="1237.75" y="-164.95" font-family="Times,serif" font-size="14.00">Mathematical Methods 4</text>
</a>
</g>
</g>
<!-- MATH0013&#45;&gt;MATH0056 -->
<g id="edge10" class="edge">
<title>MATH0013&#45;&gt;MATH0056</title>
<path fill="none" stroke="black" d="M1237.75,-233.21C1237.75,-226.89 1237.75,-219.87 1237.75,-213.04"/>
<polygon fill="black" stroke="black" points="1241.25,-213.41 1237.75,-203.41 1234.25,-213.41 1241.25,-213.41"/>
</g>
<!-- MATH0024 -->
<g id="node15" class="node">
<title>MATH0024</title>
<g id="a_node15"><a xlink:href="https://www.ucl.ac.uk/maths/sites/maths/files/math0024.pdf" xlink:title="MATH0024&#10;Geophysical Fluids">
<polygon fill="white" stroke="#ff4040" stroke-width="5" points="374.25,-121 223.25,-121 223.25,-78.5 374.25,-78.5 374.25,-121"/>
<text text-anchor="middle" x="298.75" y="-103.7" font-family="Times,serif" font-size="14.00">MATH0024</text>
<text text-anchor="middle" x="298.75" y="-86.45" font-family="Times,serif" font-size="14.00">Geophysical Fluids</text>
</a>
</g>
</g>
<!-- MATH0015&#45;&gt;MATH0024 -->
<g id="edge17" class="edge">
<title>MATH0015&#45;&gt;MATH0024</title>
<path fill="none" stroke="black" d="M250.65,-233.09C248.73,-212.61 248.04,-181.94 256.75,-157 259.74,-148.42 264.55,-140.07 269.87,-132.54"/>
<polygon fill="black" stroke="black" points="272.58,-134.77 275.86,-124.7 267.01,-130.52 272.58,-134.77"/>
</g>
<!-- MATH0077 -->
<g id="node16" class="node">
<title>MATH0077</title>
<g id="a_node16"><a xlink:href="https://www.ucl.ac.uk/maths/sites/maths/files/math0077.pdf" xlink:title="MATH0077&#10;Real Fluids">
<polygon fill="white" stroke="deeppink" stroke-width="5" points="640.25,-121 543.25,-121 543.25,-78.5 640.25,-78.5 640.25,-121"/>
<text text-anchor="middle" x="591.75" y="-103.7" font-family="Times,serif" font-size="14.00">MATH0077</text>
<text text-anchor="middle" x="591.75" y="-86.45" font-family="Times,serif" font-size="14.00">Real Fluids</text>
</a>
</g>
</g>
<!-- MATH0015&#45;&gt;MATH0077 -->
<g id="edge19" class="edge">
<title>MATH0015&#45;&gt;MATH0077</title>
<path fill="none" stroke="black" d="M269.96,-233.07C287.63,-210.14 318.05,-175.52 352.75,-157 422,-120.04 452,-140.61 530.13,-121.73"/>
<polygon fill="black" stroke="black" points="530.68,-125.2 539.49,-119.31 528.93,-118.42 530.68,-125.2"/>
</g>
<!-- MATH0115 -->
<g id="node18" class="node">
<title>MATH0115</title>
<g id="a_node18"><a xlink:href="https://www.ucl.ac.uk/maths/sites/maths/files/math0115_0.pdf" xlink:title="MATH0115&#10;Solid Mechanics">
<polygon fill="white" stroke="deeppink" stroke-width="5" points="524.88,-121 392.62,-121 392.62,-78.5 524.88,-78.5 524.88,-121"/>
<text text-anchor="middle" x="458.75" y="-103.7" font-family="Times,serif" font-size="14.00">MATH0115</text>
<text text-anchor="middle" x="458.75" y="-86.45" font-family="Times,serif" font-size="14.00">Solid Mechanics</text>
</a>
</g>
</g>
<!-- MATH0015&#45;&gt;MATH0115 -->
<g id="edge23" class="edge">
<title>MATH0015&#45;&gt;MATH0115</title>
<path fill="none" stroke="black" d="M257.59,-233.08C262.49,-210.82 273.1,-177.33 294.75,-157 301.62,-150.55 341.01,-136.95 379.46,-124.74"/>
<polygon fill="black" stroke="black" points="380.33,-128.14 388.81,-121.79 378.22,-121.46 380.33,-128.14"/>
</g>
<!-- MATH0106 -->
<g id="node19" class="node">
<title>MATH0106</title>
<g id="a_node19"><a xlink:href="https://www.ucl.ac.uk/maths/sites/maths/files/math0106.pdf" xlink:title="MATH0106&#10;Industrial and Geological Fluids">
<polygon fill="white" stroke="midnightblue" stroke-width="5" points="377.75,-42.5 133.75,-42.5 133.75,0 377.75,0 377.75,-42.5"/>
<text text-anchor="middle" x="255.75" y="-25.2" font-family="Times,serif" font-size="14.00">MATH0106</text>
<text text-anchor="middle" x="255.75" y="-7.95" font-family="Times,serif" font-size="14.00">Industrial and Geological Fluids</text>
</a>
</g>
</g>
<!-- MATH0015&#45;&gt;MATH0106 -->
<g id="edge25" class="edge">
<title>MATH0015&#45;&gt;MATH0106</title>
<path fill="none" stroke="black" d="M241.26,-233.27C224.04,-199.24 197.04,-132.88 214.75,-78.5 217.57,-69.86 222.27,-61.43 227.5,-53.85"/>
<polygon fill="black" stroke="black" points="230.23,-56.06 233.41,-45.95 224.62,-51.86 230.23,-56.06"/>
</g>
<!-- MATH0016&#45;&gt;MATH0056 -->
<g id="edge11" class="edge">
<title>MATH0016&#45;&gt;MATH0056</title>
<path fill="none" stroke="black" d="M806.17,-244.22C889.75,-234.15 1012.65,-218.47 1127.14,-200.22"/>
<polygon fill="black" stroke="black" points="1127.38,-203.72 1136.7,-198.68 1126.27,-196.81 1127.38,-203.72"/>
</g>
<!-- MATH0055 -->
<g id="node11" class="node">
<title>MATH0055</title>
<g id="a_node11"><a xlink:href="https://www.ucl.ac.uk/maths/sites/maths/files/math0055_4.pdf" xlink:title="MATH0055&#10;Mathematics of Electromagnetism and Special Relativity">
<polygon fill="white" stroke="cadetblue" stroke-width="5" points="798.38,-199.5 375.12,-199.5 375.12,-157 798.38,-157 798.38,-199.5"/>
<text text-anchor="middle" x="586.75" y="-182.2" font-family="Times,serif" font-size="14.00">MATH0055</text>
<text text-anchor="middle" x="586.75" y="-164.95" font-family="Times,serif" font-size="14.00">Mathematics of Electromagnetism and Special Relativity</text>
</a>
</g>
</g>
<!-- MATH0016&#45;&gt;MATH0055 -->
<g id="edge12" class="edge">
<title>MATH0016&#45;&gt;MATH0055</title>
<path fill="none" stroke="black" d="M671.07,-233C658.74,-225.14 644.76,-216.23 631.77,-207.95"/>
<polygon fill="black" stroke="black" points="633.67,-205.01 623.36,-202.59 629.91,-210.92 633.67,-205.01"/>
</g>
<!-- MATH0025 -->
<g id="node12" class="node">
<title>MATH0025</title>
<g id="a_node12"><a xlink:href="https://www.ucl.ac.uk/maths/sites/maths/files/math0025.pdf" xlink:title="MATH0025&#10;Mathematics for General Relativity">
<polygon fill="white" stroke="#ff4040" stroke-width="5" points="1122.75,-199.5 854.75,-199.5 854.75,-157 1122.75,-157 1122.75,-199.5"/>
<text text-anchor="middle" x="988.75" y="-182.2" font-family="Times,serif" font-size="14.00">MATH0025</text>
<text text-anchor="middle" x="988.75" y="-164.95" font-family="Times,serif" font-size="14.00">Mathematics for General Relativity</text>
</a>
</g>
</g>
<!-- MATH0016&#45;&gt;MATH0025 -->
<g id="edge13" class="edge">
<title>MATH0016&#45;&gt;MATH0025</title>
<path fill="none" stroke="black" d="M790.6,-233C823.27,-224.14 860.86,-213.94 894.47,-204.83"/>
<polygon fill="black" stroke="black" points="895.03,-208.3 903.77,-202.3 893.2,-201.54 895.03,-208.3"/>
</g>
<!-- MATH0016&#45;&gt;MATH0024 -->
<g id="edge18" class="edge">
<title>MATH0016&#45;&gt;MATH0024</title>
<path fill="none" stroke="black" d="M771.22,-233.08C785.73,-224.82 799.31,-213.86 807.75,-199.5 817.32,-183.22 820.53,-170.91 807.75,-157 777.51,-124.09 467.27,-127.93 387.84,-121.07"/>
<polygon fill="black" stroke="black" points="388.31,-117.6 377.98,-119.93 387.51,-124.55 388.31,-117.6"/>
</g>
<!-- MATH0016&#45;&gt;MATH0077 -->
<g id="edge20" class="edge">
<title>MATH0016&#45;&gt;MATH0077</title>
<path fill="none" stroke="black" d="M607.3,-253.15C517.96,-248.47 396.27,-235.47 365.75,-199.5 353.53,-185.1 353.87,-171.69 365.75,-157 411.51,-100.4 455.87,-137.73 529.81,-121.67"/>
<polygon fill="black" stroke="black" points="530.62,-125.07 539.47,-119.26 528.92,-118.28 530.62,-125.07"/>
</g>
<!-- MATH0027 -->
<g id="node14" class="node">
<title>MATH0027</title>
<g id="a_node14"><a xlink:href="https://www.ucl.ac.uk/maths/sites/maths/files/math0027.pdf" xlink:title="MATH0027&#10;Methods 5">
<polygon fill="white" stroke="#ff4040" stroke-width="5" points="1200.25,-121 1103.25,-121 1103.25,-78.5 1200.25,-78.5 1200.25,-121"/>
<text text-anchor="middle" x="1151.75" y="-103.7" font-family="Times,serif" font-size="14.00">MATH0027</text>
<text text-anchor="middle" x="1151.75" y="-86.45" font-family="Times,serif" font-size="14.00">Methods 5</text>
</a>
</g>
</g>
<!-- MATH0056&#45;&gt;MATH0027 -->
<g id="edge16" class="edge">
<title>MATH0056&#45;&gt;MATH0027</title>
<path fill="none" stroke="black" d="M1212.41,-154.71C1204,-147.23 1194.5,-138.78 1185.56,-130.82"/>
<polygon fill="black" stroke="black" points="1188.13,-128.43 1178.33,-124.4 1183.48,-133.66 1188.13,-128.43"/>
</g>
<!-- MATH0056&#45;&gt;MATH0077 -->
<g id="edge21" class="edge">
<title>MATH0056&#45;&gt;MATH0077</title>
<path fill="none" stroke="black" d="M1138.21,-157.98C1136.04,-157.64 1133.88,-157.31 1131.75,-157 959.53,-131.63 754.75,-113.59 654.02,-105.51"/>
<polygon fill="black" stroke="black" points="654.31,-102.02 644.06,-104.71 653.75,-109 654.31,-102.02"/>
</g>
<!-- MATH0080 -->
<g id="node17" class="node">
<title>MATH0080</title>
<g id="a_node17"><a xlink:href="https://www.ucl.ac.uk/maths/sites/maths/files/math0080.pdf" xlink:title="MATH0080&#10;Waves and Wave Scattering">
<polygon fill="white" stroke="deeppink" stroke-width="5" points="1431.38,-121 1218.12,-121 1218.12,-78.5 1431.38,-78.5 1431.38,-121"/>
<text text-anchor="middle" x="1324.75" y="-103.7" font-family="Times,serif" font-size="14.00">MATH0080</text>
<text text-anchor="middle" x="1324.75" y="-86.45" font-family="Times,serif" font-size="14.00">Waves and Wave Scattering</text>
</a>
</g>
</g>
<!-- MATH0056&#45;&gt;MATH0080 -->
<g id="edge22" class="edge">
<title>MATH0056&#45;&gt;MATH0080</title>
<path fill="none" stroke="black" d="M1263.38,-154.71C1271.89,-147.23 1281.5,-138.78 1290.55,-130.82"/>
<polygon fill="black" stroke="black" points="1292.67,-133.62 1297.86,-124.39 1288.04,-128.37 1292.67,-133.62"/>
</g>
<!-- MATH0056&#45;&gt;MATH0115 -->
<g id="edge24" class="edge">
<title>MATH0056&#45;&gt;MATH0115</title>
<path fill="none" stroke="black" d="M1138.22,-157.85C1136.05,-157.55 1133.89,-157.27 1131.75,-157 871.73,-124.46 799.2,-162.33 538.33,-121.43"/>
<polygon fill="black" stroke="black" points="538.89,-117.97 528.47,-119.86 537.79,-124.89 538.89,-117.97"/>
</g>
<!-- MATH0079 -->
<g id="node21" class="node">
<title>MATH0079</title>
<g id="a_node21"><a xlink:href="https://www.ucl.ac.uk/maths/sites/maths/files/math0079.pdf" xlink:title="MATH0079&#10;Cosmology">
<polygon fill="white" stroke="midnightblue" stroke-width="5" points="1037.25,-42.5 940.25,-42.5 940.25,0 1037.25,0 1037.25,-42.5"/>
<text text-anchor="middle" x="988.75" y="-25.2" font-family="Times,serif" font-size="14.00">MATH0079</text>
<text text-anchor="middle" x="988.75" y="-7.95" font-family="Times,serif" font-size="14.00">Cosmology</text>
</a>
</g>
</g>
<!-- MATH0025&#45;&gt;MATH0079 -->
<g id="edge28" class="edge">
<title>MATH0025&#45;&gt;MATH0079</title>
<path fill="none" stroke="black" d="M988.75,-154.71C988.75,-128.77 988.75,-85.9 988.75,-55.98"/>
<polygon fill="black" stroke="black" points="992.25,-56.33 988.75,-46.33 985.25,-56.33 992.25,-56.33"/>
</g>
<!-- MATH0077&#45;&gt;MATH0106 -->
<g id="edge26" class="edge">
<title>MATH0077&#45;&gt;MATH0106</title>
<path fill="none" stroke="black" stroke-dasharray="5,2" d="M540.95,-80.57C538.52,-79.84 536.12,-79.15 533.75,-78.5 487.8,-65.89 436.86,-54.78 391.28,-45.83"/>
<polygon fill="black" stroke="black" points="392.08,-42.42 381.6,-43.95 390.75,-49.29 392.08,-42.42"/>
</g>
<!-- MATH0078 -->
<g id="node20" class="node">
<title>MATH0078</title>
<g id="a_node20"><a xlink:href="https://www.ucl.ac.uk/maths/sites/maths/files/math0078.pdf" xlink:title="MATH0078&#10;Asymptotic Approximation Methods">
<polygon fill="white" stroke="midnightblue" stroke-width="5" points="728,-42.5 455.5,-42.5 455.5,0 728,0 728,-42.5"/>
<text text-anchor="middle" x="591.75" y="-25.2" font-family="Times,serif" font-size="14.00">MATH0078</text>
<text text-anchor="middle" x="591.75" y="-7.95" font-family="Times,serif" font-size="14.00">Asymptotic Approximation Methods</text>
</a>
</g>
</g>
<!-- MATH0077&#45;&gt;MATH0078 -->
<g id="edge27" class="edge">
<title>MATH0077&#45;&gt;MATH0078</title>
<path fill="none" stroke="black" d="M591.75,-76.21C591.75,-69.89 591.75,-62.87 591.75,-56.04"/>
<polygon fill="black" stroke="black" points="595.25,-56.41 591.75,-46.41 588.25,-56.41 595.25,-56.41"/>
</g>
</g>
</svg>
