<?xml version="1.0" encoding="UTF-8" standalone="no"?>
<!DOCTYPE svg PUBLIC "-//W3C//DTD SVG 1.1//EN"
 "http://www.w3.org/Graphics/SVG/1.1/DTD/svg11.dtd">
<!-- Generated by graphviz version 13.1.2 (0)
 -->
<!-- Pages: 1 -->
<svg width="1945pt" height="443pt"
 viewBox="0.00 0.00 1945.00 443.00" xmlns="http://www.w3.org/2000/svg" xmlns:xlink="http://www.w3.org/1999/xlink">
<g id="graph0" class="graph" transform="scale(1 1) rotate(0) translate(4 439)">
<polygon fill="white" stroke="none" points="-4,4 -4,-439 1940.5,-439 1940.5,4 -4,4"/>
<!-- MATH0010 -->
<g id="node1" class="node">
<title>MATH0010</title>
<g id="a_node1"><a xlink:href="https://www.ucl.ac.uk/mathematical-physical-sciences/sites/mathematical_physical_sciences/files/math0010.pdf" xlink:title="Year 1, term 1">
<polygon fill="white" stroke="#ffb90f" stroke-width="5" points="510.62,-435 316.12,-435 316.12,-392.5 510.62,-392.5 510.62,-435"/>
<text xml:space="preserve" text-anchor="middle" x="413.38" y="-417.7" font-family="Times,serif" font-size="14.00">MATH0010</text>
<text xml:space="preserve" text-anchor="middle" x="413.38" y="-400.45" font-family="Times,serif" font-size="14.00">Mathematical Methods 1</text>
</a>
</g>
</g>
<!-- MATH0011 -->
<g id="node5" class="node">
<title>MATH0011</title>
<g id="a_node5"><a xlink:href="https://www.ucl.ac.uk/mathematical-physical-sciences/sites/mathematical_physical_sciences/files/math0011_2.pdf" xlink:title="Year 1, term 2">
<polygon fill="white" stroke="#cd950c" stroke-width="5" points="511.62,-356.5 317.12,-356.5 317.12,-314 511.62,-314 511.62,-356.5"/>
<text xml:space="preserve" text-anchor="middle" x="414.38" y="-339.2" font-family="Times,serif" font-size="14.00">MATH0011</text>
<text xml:space="preserve" text-anchor="middle" x="414.38" y="-321.95" font-family="Times,serif" font-size="14.00">Mathematical Methods 2</text>
</a>
</g>
</g>
<!-- MATH0010&#45;&gt;MATH0011 -->
<g id="edge1" class="edge">
<title>MATH0010&#45;&gt;MATH0011</title>
<g id="a_edge1"><a xlink:title="required prerequisite">
<path fill="none" stroke="black" d="M413.67,-390.21C413.75,-383.89 413.84,-376.87 413.93,-370.04"/>
<polygon fill="black" stroke="black" points="417.43,-370.45 414.06,-360.41 410.43,-370.36 417.43,-370.45"/>
</a>
</g>
</g>
<!-- MATH0009 -->
<g id="node8" class="node">
<title>MATH0009</title>
<g id="a_node8"><a xlink:href="https://www.ucl.ac.uk/mathematical-physical-sciences/sites/mathematical_physical_sciences/files/math0009.pdf" xlink:title="Year 1, term 2">
<polygon fill="white" stroke="#cd950c" stroke-width="5" points="299.12,-356.5 125.62,-356.5 125.62,-314 299.12,-314 299.12,-356.5"/>
<text xml:space="preserve" text-anchor="middle" x="212.38" y="-339.2" font-family="Times,serif" font-size="14.00">MATH0009</text>
<text xml:space="preserve" text-anchor="middle" x="212.38" y="-321.95" font-family="Times,serif" font-size="14.00">Newtonian Mechanics</text>
</a>
</g>
</g>
<!-- MATH0010&#45;&gt;MATH0009 -->
<g id="edge5" class="edge">
<title>MATH0010&#45;&gt;MATH0009</title>
<g id="a_edge5"><a xlink:title="required prerequisite">
<path fill="none" stroke="black" d="M353.61,-390C331.23,-381.49 305.61,-371.74 282.39,-362.9"/>
<polygon fill="black" stroke="black" points="283.91,-359.73 273.32,-359.45 281.42,-366.27 283.91,-359.73"/>
</a>
</g>
</g>
<!-- MATH0008 -->
<g id="node2" class="node">
<title>MATH0008</title>
<g id="a_node2"><a xlink:href="https://www.ucl.ac.uk/mathematical-physical-sciences/sites/mathematical_physical_sciences/files/math0008.pdf" xlink:title="Year 1, term 1">
<polygon fill="white" stroke="#ffb90f" stroke-width="5" points="296.12,-435 128.62,-435 128.62,-392.5 296.12,-392.5 296.12,-435"/>
<text xml:space="preserve" text-anchor="middle" x="212.38" y="-417.7" font-family="Times,serif" font-size="14.00">MATH0008</text>
<text xml:space="preserve" text-anchor="middle" x="212.38" y="-400.45" font-family="Times,serif" font-size="14.00">Applied Mathematics</text>
</a>
</g>
</g>
<!-- MATH0008&#45;&gt;MATH0009 -->
<g id="edge4" class="edge">
<title>MATH0008&#45;&gt;MATH0009</title>
<g id="a_edge4"><a xlink:title="required prerequisite">
<path fill="none" stroke="black" d="M212.38,-390.21C212.38,-383.89 212.38,-376.87 212.38,-370.04"/>
<polygon fill="black" stroke="black" points="215.88,-370.41 212.38,-360.41 208.88,-370.41 215.88,-370.41"/>
</a>
</g>
</g>
<!-- MATH0003 -->
<g id="node3" class="node">
<title>MATH0003</title>
<g id="a_node3"><a xlink:href="https://www.ucl.ac.uk/mathematical-physical-sciences/sites/mathematical_physical_sciences/files/math0003.pdf" xlink:title="Year 1, term 1">
<polygon fill="white" stroke="#ffb90f" stroke-width="5" points="1409.88,-435 1312.88,-435 1312.88,-392.5 1409.88,-392.5 1409.88,-435"/>
<text xml:space="preserve" text-anchor="middle" x="1361.38" y="-417.7" font-family="Times,serif" font-size="14.00">MATH0003</text>
<text xml:space="preserve" text-anchor="middle" x="1361.38" y="-400.45" font-family="Times,serif" font-size="14.00">Analysis 1</text>
</a>
</g>
</g>
<!-- MATH0004 -->
<g id="node6" class="node">
<title>MATH0004</title>
<g id="a_node6"><a xlink:href="https://www.ucl.ac.uk/mathematical-physical-sciences/sites/mathematical_physical_sciences/files/math0004.pdf" xlink:title="Year 1, term 2">
<polygon fill="white" stroke="#cd950c" stroke-width="5" points="1448.88,-356.5 1351.88,-356.5 1351.88,-314 1448.88,-314 1448.88,-356.5"/>
<text xml:space="preserve" text-anchor="middle" x="1400.38" y="-339.2" font-family="Times,serif" font-size="14.00">MATH0004</text>
<text xml:space="preserve" text-anchor="middle" x="1400.38" y="-321.95" font-family="Times,serif" font-size="14.00">Analysis 2</text>
</a>
</g>
</g>
<!-- MATH0003&#45;&gt;MATH0004 -->
<g id="edge2" class="edge">
<title>MATH0003&#45;&gt;MATH0004</title>
<g id="a_edge2"><a xlink:title="required prerequisite">
<path fill="none" stroke="black" d="M1372.87,-390.21C1376.25,-383.58 1380.02,-376.18 1383.66,-369.04"/>
<polygon fill="black" stroke="black" points="1386.72,-370.74 1388.14,-360.24 1380.48,-367.56 1386.72,-370.74"/>
</a>
</g>
</g>
<!-- MATH0013 -->
<g id="node10" class="node">
<title>MATH0013</title>
<g id="a_node10"><a xlink:href="https://www.ucl.ac.uk/mathematical-physical-sciences/sites/mathematical_physical_sciences/files/math0013.pdf" xlink:title="Year 2, term 1">
<polygon fill="white" stroke="#00ff00" stroke-width="5" points="1437.5,-278 1209.25,-278 1209.25,-235.5 1437.5,-235.5 1437.5,-278"/>
<text xml:space="preserve" text-anchor="middle" x="1323.38" y="-260.7" font-family="Times,serif" font-size="14.00">MATH0013</text>
<text xml:space="preserve" text-anchor="middle" x="1323.38" y="-243.45" font-family="Times,serif" font-size="14.00">Analysis 3 &#45; Complex Analysis</text>
</a>
</g>
</g>
<!-- MATH0003&#45;&gt;MATH0013 -->
<g id="edge8" class="edge">
<title>MATH0003&#45;&gt;MATH0013</title>
<g id="a_edge8"><a xlink:title="required prerequisite">
<path fill="none" stroke="black" d="M1353.53,-390.2C1350.14,-379.99 1346.29,-367.71 1343.38,-356.5 1337.79,-335.05 1332.83,-310.65 1329.25,-291.46"/>
<polygon fill="black" stroke="black" points="1332.72,-290.96 1327.48,-281.75 1325.83,-292.22 1332.72,-290.96"/>
</a>
</g>
</g>
<!-- MATH0005 -->
<g id="node4" class="node">
<title>MATH0005</title>
<g id="a_node4"><a xlink:href="https://www.ucl.ac.uk/mathematical-physical-sciences/sites/mathematical_physical_sciences/files/math0005.pdf" xlink:title="Year 1, term 1">
<polygon fill="white" stroke="#ffb90f" stroke-width="5" points="1671.88,-435 1574.88,-435 1574.88,-392.5 1671.88,-392.5 1671.88,-435"/>
<text xml:space="preserve" text-anchor="middle" x="1623.38" y="-417.7" font-family="Times,serif" font-size="14.00">MATH0005</text>
<text xml:space="preserve" text-anchor="middle" x="1623.38" y="-400.45" font-family="Times,serif" font-size="14.00">Algebra 1</text>
</a>
</g>
</g>
<!-- MATH0006 -->
<g id="node7" class="node">
<title>MATH0006</title>
<g id="a_node7"><a xlink:href="https://www.ucl.ac.uk/mathematical-physical-sciences/sites/mathematical_physical_sciences/files/math0006.pdf" xlink:title="Year 1, term 2">
<polygon fill="white" stroke="#cd950c" stroke-width="5" points="1671.88,-356.5 1574.88,-356.5 1574.88,-314 1671.88,-314 1671.88,-356.5"/>
<text xml:space="preserve" text-anchor="middle" x="1623.38" y="-339.2" font-family="Times,serif" font-size="14.00">MATH0006</text>
<text xml:space="preserve" text-anchor="middle" x="1623.38" y="-321.95" font-family="Times,serif" font-size="14.00">Algebra 2</text>
</a>
</g>
</g>
<!-- MATH0005&#45;&gt;MATH0006 -->
<g id="edge3" class="edge">
<title>MATH0005&#45;&gt;MATH0006</title>
<g id="a_edge3"><a xlink:title="required prerequisite">
<path fill="none" stroke="black" d="M1623.38,-390.21C1623.38,-383.89 1623.38,-376.87 1623.38,-370.04"/>
<polygon fill="black" stroke="black" points="1626.88,-370.41 1623.38,-360.41 1619.88,-370.41 1626.88,-370.41"/>
</a>
</g>
</g>
<!-- MATH0015 -->
<g id="node9" class="node">
<title>MATH0015</title>
<g id="a_node9"><a xlink:href="https://www.ucl.ac.uk/mathematical-physical-sciences/sites/mathematical_physical_sciences/files/math0015.pdf" xlink:title="Year 2, term 1">
<polygon fill="white" stroke="#00ff00" stroke-width="5" points="379.88,-278 246.88,-278 246.88,-235.5 379.88,-235.5 379.88,-278"/>
<text xml:space="preserve" text-anchor="middle" x="313.38" y="-260.7" font-family="Times,serif" font-size="14.00">MATH0015</text>
<text xml:space="preserve" text-anchor="middle" x="313.38" y="-243.45" font-family="Times,serif" font-size="14.00">Fluid Mechanics</text>
</a>
</g>
</g>
<!-- MATH0011&#45;&gt;MATH0015 -->
<g id="edge6" class="edge">
<title>MATH0011&#45;&gt;MATH0015</title>
<g id="a_edge6"><a xlink:title="required prerequisite">
<path fill="none" stroke="black" d="M384.35,-311.5C374.27,-303.87 362.89,-295.25 352.24,-287.18"/>
<polygon fill="black" stroke="black" points="354.41,-284.44 344.32,-281.19 350.18,-290.02 354.41,-284.44"/>
</a>
</g>
</g>
<!-- MATH0016 -->
<g id="node11" class="node">
<title>MATH0016</title>
<g id="a_node11"><a xlink:href="https://www.ucl.ac.uk/mathematical-physical-sciences/sites/mathematical_physical_sciences/files/math0016.pdf" xlink:title="Year 2, term 1">
<polygon fill="white" stroke="#00ff00" stroke-width="5" points="711.62,-278 517.12,-278 517.12,-235.5 711.62,-235.5 711.62,-278"/>
<text xml:space="preserve" text-anchor="middle" x="614.38" y="-260.7" font-family="Times,serif" font-size="14.00">MATH0016</text>
<text xml:space="preserve" text-anchor="middle" x="614.38" y="-243.45" font-family="Times,serif" font-size="14.00">Mathematical Methods 3</text>
</a>
</g>
</g>
<!-- MATH0011&#45;&gt;MATH0016 -->
<g id="edge10" class="edge">
<title>MATH0011&#45;&gt;MATH0016</title>
<g id="a_edge10"><a xlink:title="required prerequisite">
<path fill="none" stroke="black" d="M473.84,-311.5C496.01,-303.03 521.37,-293.32 544.4,-284.52"/>
<polygon fill="black" stroke="black" points="545.64,-287.79 553.73,-280.95 543.13,-281.25 545.64,-287.79"/>
</a>
</g>
</g>
<!-- MATH0054 -->
<g id="node20" class="node">
<title>MATH0054</title>
<g id="a_node20"><a xlink:href="https://www.ucl.ac.uk/mathematical-physical-sciences/sites/mathematical_physical_sciences/files/math0054.pdf" xlink:title="Year 3, term 2">
<polygon fill="white" stroke="#cd3333" stroke-width="5" points="160.75,-121 0,-121 0,-78.5 160.75,-78.5 160.75,-121"/>
<text xml:space="preserve" text-anchor="middle" x="80.38" y="-103.7" font-family="Times,serif" font-size="14.00">MATH0054</text>
<text xml:space="preserve" text-anchor="middle" x="80.38" y="-86.45" font-family="Times,serif" font-size="14.00">Analytical Dynamics</text>
</a>
</g>
</g>
<!-- MATH0011&#45;&gt;MATH0054 -->
<g id="edge20" class="edge">
<title>MATH0011&#45;&gt;MATH0054</title>
<g id="a_edge20"><a xlink:title="required prerequisite">
<path fill="none" stroke="black" d="M314.77,-312.51C288.64,-304.17 261.38,-292.94 238.38,-278 178.78,-239.29 127.8,-172.34 100.86,-132.73"/>
<polygon fill="black" stroke="black" points="103.85,-130.91 95.37,-124.54 98.03,-134.8 103.85,-130.91"/>
</a>
</g>
</g>
<!-- MATH0020 -->
<g id="node22" class="node">
<title>MATH0020</title>
<g id="a_node22"><a xlink:href="https://www.ucl.ac.uk/mathematical-physical-sciences/sites/mathematical_physical_sciences/files/math0020.pdf" xlink:title="Year 3, term 2">
<polygon fill="white" stroke="#cd3333" stroke-width="5" points="1290.25,-121 1126.5,-121 1126.5,-78.5 1290.25,-78.5 1290.25,-121"/>
<text xml:space="preserve" text-anchor="middle" x="1208.38" y="-103.7" font-family="Times,serif" font-size="14.00">MATH0020</text>
<text xml:space="preserve" text-anchor="middle" x="1208.38" y="-86.45" font-family="Times,serif" font-size="14.00">Curves and Surfaces</text>
</a>
</g>
</g>
<!-- MATH0011&#45;&gt;MATH0020 -->
<g id="edge24" class="edge">
<title>MATH0011&#45;&gt;MATH0020</title>
<g id="a_edge24"><a xlink:title="required prerequisite">
<path fill="none" stroke="black" d="M513.84,-327.58C693.38,-313.76 1062.3,-276.62 1162.38,-199.5 1183.04,-183.57 1194.79,-156.14 1201.24,-134.22"/>
<polygon fill="black" stroke="black" points="1204.55,-135.38 1203.75,-124.81 1197.79,-133.57 1204.55,-135.38"/>
</a>
</g>
</g>
<!-- MATH0004&#45;&gt;MATH0013 -->
<g id="edge9" class="edge">
<title>MATH0004&#45;&gt;MATH0013</title>
<g id="a_edge9"><a xlink:title="recommended prerequisite">
<path fill="none" stroke="black" stroke-dasharray="5,2" d="M1377.69,-311.71C1370.24,-304.31 1361.83,-295.95 1353.89,-288.07"/>
<polygon fill="black" stroke="black" points="1356.8,-286.02 1347.24,-281.46 1351.87,-290.99 1356.8,-286.02"/>
</a>
</g>
</g>
<!-- MATH0051 -->
<g id="node15" class="node">
<title>MATH0051</title>
<g id="a_node15"><a xlink:href="https://www.ucl.ac.uk/mathematical-physical-sciences/sites/mathematical_physical_sciences/files/math0051.pdf" xlink:title="Year 2 or 3, term 2">
<polygon fill="white" stroke="#8ee5ee" stroke-width="5" points="1746.88,-199.5 1649.88,-199.5 1649.88,-157 1746.88,-157 1746.88,-199.5"/>
<text xml:space="preserve" text-anchor="middle" x="1698.38" y="-182.2" font-family="Times,serif" font-size="14.00">MATH0051</text>
<text xml:space="preserve" text-anchor="middle" x="1698.38" y="-164.95" font-family="Times,serif" font-size="14.00">Analysis 4</text>
</a>
</g>
</g>
<!-- MATH0004&#45;&gt;MATH0051 -->
<g id="edge15" class="edge">
<title>MATH0004&#45;&gt;MATH0051</title>
<g id="a_edge15"><a xlink:title="required prerequisite">
<path fill="none" stroke="black" d="M1419.03,-311.63C1442.48,-283.3 1480.21,-238.12 1484.38,-235.5 1530.44,-206.52 1591.06,-192.39 1636.01,-185.55"/>
<polygon fill="black" stroke="black" points="1636.48,-189.02 1645.88,-184.14 1635.48,-182.09 1636.48,-189.02"/>
</a>
</g>
</g>
<!-- MATH0014 -->
<g id="node12" class="node">
<title>MATH0014</title>
<g id="a_node12"><a xlink:href="https://www.ucl.ac.uk/mathematical-physical-sciences/sites/mathematical_physical_sciences/files/math0014.pdf" xlink:title="Year 2, term 1">
<polygon fill="white" stroke="#00ff00" stroke-width="5" points="1753.25,-278 1493.5,-278 1493.5,-235.5 1753.25,-235.5 1753.25,-278"/>
<text xml:space="preserve" text-anchor="middle" x="1623.38" y="-260.7" font-family="Times,serif" font-size="14.00">MATH0014</text>
<text xml:space="preserve" text-anchor="middle" x="1623.38" y="-243.45" font-family="Times,serif" font-size="14.00">Algebra 3: Further Linear Algebra</text>
</a>
</g>
</g>
<!-- MATH0006&#45;&gt;MATH0014 -->
<g id="edge11" class="edge">
<title>MATH0006&#45;&gt;MATH0014</title>
<g id="a_edge11"><a xlink:title="required prerequisite">
<path fill="none" stroke="black" d="M1623.38,-311.71C1623.38,-305.39 1623.38,-298.37 1623.38,-291.54"/>
<polygon fill="black" stroke="black" points="1626.88,-291.91 1623.38,-281.91 1619.88,-291.91 1626.88,-291.91"/>
</a>
</g>
</g>
<!-- MATH0009&#45;&gt;MATH0015 -->
<g id="edge7" class="edge">
<title>MATH0009&#45;&gt;MATH0015</title>
<g id="a_edge7"><a xlink:title="required prerequisite">
<path fill="none" stroke="black" d="M242.4,-311.5C252.48,-303.87 263.86,-295.25 274.51,-287.18"/>
<polygon fill="black" stroke="black" points="276.57,-290.02 282.43,-281.19 272.34,-284.44 276.57,-290.02"/>
</a>
</g>
</g>
<!-- MATH0009&#45;&gt;MATH0054 -->
<g id="edge21" class="edge">
<title>MATH0009&#45;&gt;MATH0054</title>
<g id="a_edge21"><a xlink:title="required prerequisite">
<path fill="none" stroke="black" d="M166.03,-311.56C152.17,-302.78 138.1,-291.55 128.38,-278 97.29,-234.7 86.33,-172.35 82.47,-134.3"/>
<polygon fill="black" stroke="black" points="86,-134.48 81.62,-124.83 79.03,-135.1 86,-134.48"/>
</a>
</g>
</g>
<!-- MATH0024 -->
<g id="node21" class="node">
<title>MATH0024</title>
<g id="a_node21"><a xlink:href="https://www.ucl.ac.uk/mathematical-physical-sciences/sites/mathematical_physical_sciences/files/math0024.pdf" xlink:title="Year 3, term 2">
<polygon fill="white" stroke="#cd3333" stroke-width="5" points="367.88,-121 216.88,-121 216.88,-78.5 367.88,-78.5 367.88,-121"/>
<text xml:space="preserve" text-anchor="middle" x="292.38" y="-103.7" font-family="Times,serif" font-size="14.00">MATH0024</text>
<text xml:space="preserve" text-anchor="middle" x="292.38" y="-86.45" font-family="Times,serif" font-size="14.00">Geophysical Fluids</text>
</a>
</g>
</g>
<!-- MATH0015&#45;&gt;MATH0024 -->
<g id="edge22" class="edge">
<title>MATH0015&#45;&gt;MATH0024</title>
<g id="a_edge22"><a xlink:title="required prerequisite">
<path fill="none" stroke="black" d="M310.32,-233.21C306.81,-207.27 301,-164.4 296.94,-134.48"/>
<polygon fill="black" stroke="black" points="300.45,-134.25 295.64,-124.82 293.51,-135.19 300.45,-134.25"/>
</a>
</g>
</g>
<!-- MATH0077 -->
<g id="node23" class="node">
<title>MATH0077</title>
<g id="a_node23"><a xlink:href="https://www.ucl.ac.uk/mathematical-physical-sciences/sites/mathematical_physical_sciences/files/math0077.pdf" xlink:title="Year 3 or 4, term 1">
<polygon fill="white" stroke="#ff1493" stroke-width="5" points="482.88,-121 385.88,-121 385.88,-78.5 482.88,-78.5 482.88,-121"/>
<text xml:space="preserve" text-anchor="middle" x="434.38" y="-103.7" font-family="Times,serif" font-size="14.00">MATH0077</text>
<text xml:space="preserve" text-anchor="middle" x="434.38" y="-86.45" font-family="Times,serif" font-size="14.00">Real Fluids</text>
</a>
</g>
</g>
<!-- MATH0015&#45;&gt;MATH0077 -->
<g id="edge25" class="edge">
<title>MATH0015&#45;&gt;MATH0077</title>
<g id="a_edge25"><a xlink:title="required prerequisite">
<path fill="none" stroke="black" d="M330.97,-233.21C351.76,-206.58 386.48,-162.11 409.89,-132.12"/>
<polygon fill="black" stroke="black" points="412.43,-134.54 415.83,-124.51 406.92,-130.24 412.43,-134.54"/>
</a>
</g>
</g>
<!-- MATH0115 -->
<g id="node26" class="node">
<title>MATH0115</title>
<g id="a_node26"><a xlink:href="https://www.ucl.ac.uk/mathematical-physical-sciences/sites/mathematical_physical_sciences/files/math0115_syllabus.pdf" xlink:title="Year 3 or 4, term 2">
<polygon fill="white" stroke="#cd1076" stroke-width="5" points="733.5,-42.5 601.25,-42.5 601.25,0 733.5,0 733.5,-42.5"/>
<text xml:space="preserve" text-anchor="middle" x="667.38" y="-25.2" font-family="Times,serif" font-size="14.00">MATH0115</text>
<text xml:space="preserve" text-anchor="middle" x="667.38" y="-7.95" font-family="Times,serif" font-size="14.00">Solid Mechanics</text>
</a>
</g>
</g>
<!-- MATH0015&#45;&gt;MATH0115 -->
<g id="edge31" class="edge">
<title>MATH0015&#45;&gt;MATH0115</title>
<g id="a_edge31"><a xlink:title="required prerequisite">
<path fill="none" stroke="black" d="M347.64,-233.15C412.27,-190.52 552.09,-98.3 623.49,-51.2"/>
<polygon fill="black" stroke="black" points="625.41,-54.12 631.83,-45.7 621.55,-48.28 625.41,-54.12"/>
</a>
</g>
</g>
<!-- MATH0106 -->
<g id="node28" class="node">
<title>MATH0106</title>
<g id="a_node28"><a xlink:href="https://www.ucl.ac.uk/mathematical-physical-sciences/sites/mathematical_physical_sciences/files/math0106.pdf" xlink:title="Year 4, term 1">
<polygon fill="white" stroke="#1c86ee" stroke-width="5" points="293.38,-42.5 49.37,-42.5 49.37,0 293.38,0 293.38,-42.5"/>
<text xml:space="preserve" text-anchor="middle" x="171.38" y="-25.2" font-family="Times,serif" font-size="14.00">MATH0106</text>
<text xml:space="preserve" text-anchor="middle" x="171.38" y="-7.95" font-family="Times,serif" font-size="14.00">Industrial and Geological Fluids</text>
</a>
</g>
</g>
<!-- MATH0015&#45;&gt;MATH0106 -->
<g id="edge36" class="edge">
<title>MATH0015&#45;&gt;MATH0106</title>
<g id="a_edge36"><a xlink:title="required prerequisite">
<path fill="none" stroke="black" d="M291.77,-233.04C268.4,-207.48 231.27,-163.91 207.38,-121 195.87,-100.34 186.79,-75.3 180.63,-55.6"/>
<polygon fill="black" stroke="black" points="184.01,-54.71 177.78,-46.14 177.31,-56.73 184.01,-54.71"/>
</a>
</g>
</g>
<!-- MATH0056 -->
<g id="node13" class="node">
<title>MATH0056</title>
<g id="a_node13"><a xlink:href="https://www.ucl.ac.uk/mathematical-physical-sciences/sites/mathematical_physical_sciences/files/math0056.pdf" xlink:title="Year 2 or 3, term 2">
<polygon fill="white" stroke="#8ee5ee" stroke-width="5" points="1153.62,-199.5 959.12,-199.5 959.12,-157 1153.62,-157 1153.62,-199.5"/>
<text xml:space="preserve" text-anchor="middle" x="1056.38" y="-182.2" font-family="Times,serif" font-size="14.00">MATH0056</text>
<text xml:space="preserve" text-anchor="middle" x="1056.38" y="-164.95" font-family="Times,serif" font-size="14.00">Mathematical Methods 4</text>
</a>
</g>
</g>
<!-- MATH0013&#45;&gt;MATH0056 -->
<g id="edge12" class="edge">
<title>MATH0013&#45;&gt;MATH0056</title>
<g id="a_edge12"><a xlink:title="required prerequisite">
<path fill="none" stroke="black" d="M1243.99,-233C1213.33,-224.22 1178.08,-214.12 1146.47,-205.06"/>
<polygon fill="black" stroke="black" points="1147.49,-201.71 1136.91,-202.32 1145.56,-208.44 1147.49,-201.71"/>
</a>
</g>
</g>
<!-- MATH0016&#45;&gt;MATH0056 -->
<g id="edge13" class="edge">
<title>MATH0016&#45;&gt;MATH0056</title>
<g id="a_edge13"><a xlink:title="required prerequisite">
<path fill="none" stroke="black" d="M714.01,-239.14C779.74,-228.1 867.73,-213.18 945.38,-199.5 945.49,-199.48 945.61,-199.46 945.73,-199.44"/>
<polygon fill="black" stroke="black" points="946.11,-202.92 955.35,-197.73 944.89,-196.03 946.11,-202.92"/>
</a>
</g>
</g>
<!-- MATH0055 -->
<g id="node14" class="node">
<title>MATH0055</title>
<g id="a_node14"><a xlink:href="https://www.ucl.ac.uk/mathematical-physical-sciences/sites/mathematical_physical_sciences/files/math0055_3.pdf" xlink:title="Year 2 or 3, term 2">
<polygon fill="white" stroke="#8ee5ee" stroke-width="5" points="903,-199.5 479.75,-199.5 479.75,-157 903,-157 903,-199.5"/>
<text xml:space="preserve" text-anchor="middle" x="691.38" y="-182.2" font-family="Times,serif" font-size="14.00">MATH0055</text>
<text xml:space="preserve" text-anchor="middle" x="691.38" y="-164.95" font-family="Times,serif" font-size="14.00">Mathematics of Electromagnetism and Special Relativity</text>
</a>
</g>
</g>
<!-- MATH0016&#45;&gt;MATH0055 -->
<g id="edge14" class="edge">
<title>MATH0016&#45;&gt;MATH0055</title>
<g id="a_edge14"><a xlink:title="required prerequisite">
<path fill="none" stroke="black" d="M637.06,-233.21C644.51,-225.81 652.92,-217.45 660.86,-209.57"/>
<polygon fill="black" stroke="black" points="662.88,-212.49 667.51,-202.96 657.95,-207.52 662.88,-212.49"/>
</a>
</g>
</g>
<!-- MATH0025 -->
<g id="node17" class="node">
<title>MATH0025</title>
<g id="a_node17"><a xlink:href="https://www.ucl.ac.uk/mathematical-physical-sciences/sites/mathematical_physical_sciences/files/math0025.pdf" xlink:title="Year 3, term 1">
<polygon fill="white" stroke="#ff4040" stroke-width="5" points="917.38,-121 649.38,-121 649.38,-78.5 917.38,-78.5 917.38,-121"/>
<text xml:space="preserve" text-anchor="middle" x="783.38" y="-103.7" font-family="Times,serif" font-size="14.00">MATH0025</text>
<text xml:space="preserve" text-anchor="middle" x="783.38" y="-86.45" font-family="Times,serif" font-size="14.00">Mathematics for General Relativity</text>
</a>
</g>
</g>
<!-- MATH0016&#45;&gt;MATH0025 -->
<g id="edge17" class="edge">
<title>MATH0016&#45;&gt;MATH0025</title>
<g id="a_edge17"><a xlink:title="required prerequisite">
<path fill="none" stroke="black" d="M713.92,-250.31C790.5,-243.8 887.34,-229.7 912.38,-199.5 924.43,-184.96 922.72,-172.8 912.38,-157 904.77,-145.39 894.19,-136.16 882.32,-128.83"/>
<polygon fill="black" stroke="black" points="884.32,-125.93 873.89,-124.09 880.89,-132.04 884.32,-125.93"/>
</a>
</g>
</g>
<!-- MATH0016&#45;&gt;MATH0024 -->
<g id="edge23" class="edge">
<title>MATH0016&#45;&gt;MATH0024</title>
<g id="a_edge23"><a xlink:title="required prerequisite">
<path fill="none" stroke="black" d="M529.95,-233.06C501.49,-224.13 469.97,-212.8 442.38,-199.5 402.21,-180.14 360.1,-151.59 330.76,-130.16"/>
<polygon fill="black" stroke="black" points="333.05,-127.5 322.92,-124.37 328.89,-133.13 333.05,-127.5"/>
</a>
</g>
</g>
<!-- MATH0016&#45;&gt;MATH0077 -->
<g id="edge26" class="edge">
<title>MATH0016&#45;&gt;MATH0077</title>
<g id="a_edge26"><a xlink:title="required prerequisite">
<path fill="none" stroke="black" d="M522.06,-233.06C503.12,-224.97 484.63,-214.09 470.38,-199.5 453.16,-181.88 444.09,-155.39 439.36,-134.27"/>
<polygon fill="black" stroke="black" points="442.83,-133.8 437.45,-124.67 435.97,-135.16 442.83,-133.8"/>
</a>
</g>
</g>
<!-- MATH0118 -->
<g id="node24" class="node">
<title>MATH0118</title>
<g id="a_node24"><a xlink:href="https://www.ucl.ac.uk/mathematical-physical-sciences/sites/mathematical_physical_sciences/files/math0118.pdf" xlink:title="Year 3 or 4, term 1">
<polygon fill="white" stroke="#ff1493" stroke-width="5" points="1592.62,-121 1308.12,-121 1308.12,-78.5 1592.62,-78.5 1592.62,-121"/>
<text xml:space="preserve" text-anchor="middle" x="1450.38" y="-103.7" font-family="Times,serif" font-size="14.00">MATH0118</text>
<text xml:space="preserve" text-anchor="middle" x="1450.38" y="-86.45" font-family="Times,serif" font-size="14.00">Mathematics for Quantum Mechanics</text>
</a>
</g>
</g>
<!-- MATH0014&#45;&gt;MATH0118 -->
<g id="edge29" class="edge">
<title>MATH0014&#45;&gt;MATH0118</title>
<g id="a_edge29"><a xlink:title="required prerequisite">
<path fill="none" stroke="black" d="M1598.22,-233.21C1568.11,-206.24 1517.57,-160.95 1484.1,-130.97"/>
<polygon fill="black" stroke="black" points="1486.47,-128.39 1476.69,-124.33 1481.8,-133.61 1486.47,-128.39"/>
</a>
</g>
</g>
<!-- MATH0027 -->
<g id="node19" class="node">
<title>MATH0027</title>
<g id="a_node19"><a xlink:href="https://www.ucl.ac.uk/mathematical-physical-sciences/sites/mathematical_physical_sciences/files/math0027.pdf" xlink:title="Year 3, term 2">
<polygon fill="white" stroke="#cd3333" stroke-width="5" points="1108.88,-121 1011.88,-121 1011.88,-78.5 1108.88,-78.5 1108.88,-121"/>
<text xml:space="preserve" text-anchor="middle" x="1060.38" y="-103.7" font-family="Times,serif" font-size="14.00">MATH0027</text>
<text xml:space="preserve" text-anchor="middle" x="1060.38" y="-86.45" font-family="Times,serif" font-size="14.00">Methods 5</text>
</a>
</g>
</g>
<!-- MATH0056&#45;&gt;MATH0027 -->
<g id="edge19" class="edge">
<title>MATH0056&#45;&gt;MATH0027</title>
<g id="a_edge19"><a xlink:title="required prerequisite">
<path fill="none" stroke="black" d="M1057.55,-154.71C1057.88,-148.39 1058.25,-141.37 1058.61,-134.54"/>
<polygon fill="black" stroke="black" points="1062.09,-135.07 1059.11,-124.9 1055.09,-134.71 1062.09,-135.07"/>
</a>
</g>
</g>
<!-- MATH0056&#45;&gt;MATH0077 -->
<g id="edge27" class="edge">
<title>MATH0056&#45;&gt;MATH0077</title>
<g id="a_edge27"><a xlink:title="required prerequisite">
<path fill="none" stroke="black" d="M956.87,-162.96C941.97,-160.9 926.77,-158.86 912.38,-157 763.37,-137.76 587.86,-117.8 496.6,-107.62"/>
<polygon fill="black" stroke="black" points="497.19,-104.16 486.86,-106.53 496.41,-111.12 497.19,-104.16"/>
</a>
</g>
</g>
<!-- MATH0056&#45;&gt;MATH0118 -->
<g id="edge28" class="edge">
<title>MATH0056&#45;&gt;MATH0118</title>
<g id="a_edge28"><a xlink:title="required prerequisite">
<path fill="none" stroke="black" d="M1156.05,-157.9C1206.49,-148.1 1268.3,-136.1 1322.24,-125.63"/>
<polygon fill="black" stroke="black" points="1322.63,-129.12 1331.78,-123.78 1321.29,-122.25 1322.63,-129.12"/>
</a>
</g>
</g>
<!-- MATH0080 -->
<g id="node25" class="node">
<title>MATH0080</title>
<g id="a_node25"><a xlink:href="https://www.ucl.ac.uk/mathematical-physical-sciences/sites/mathematical_physical_sciences/files/math0080.pdf" xlink:title="Year 3 or 4, term 2">
<polygon fill="white" stroke="#cd1076" stroke-width="5" points="1090,-42.5 876.75,-42.5 876.75,0 1090,0 1090,-42.5"/>
<text xml:space="preserve" text-anchor="middle" x="983.38" y="-25.2" font-family="Times,serif" font-size="14.00">MATH0080</text>
<text xml:space="preserve" text-anchor="middle" x="983.38" y="-7.95" font-family="Times,serif" font-size="14.00">Waves and Wave Scattering</text>
</a>
</g>
</g>
<!-- MATH0056&#45;&gt;MATH0080 -->
<g id="edge30" class="edge">
<title>MATH0056&#45;&gt;MATH0080</title>
<g id="a_edge30"><a xlink:title="required prerequisite">
<path fill="none" stroke="black" d="M1029.57,-154.68C1019.93,-145.22 1009.85,-133.51 1003.38,-121 993,-100.97 988.01,-76.06 985.6,-56.27"/>
<polygon fill="black" stroke="black" points="989.1,-56.08 984.59,-46.5 982.14,-56.8 989.1,-56.08"/>
</a>
</g>
</g>
<!-- MATH0056&#45;&gt;MATH0115 -->
<g id="edge32" class="edge">
<title>MATH0056&#45;&gt;MATH0115</title>
<g id="a_edge32"><a xlink:title="required prerequisite">
<path fill="none" stroke="black" d="M1028.07,-154.66C993.32,-127.1 937.59,-83.53 926.38,-78.5 854,-46.01 826.51,-59.85 746.75,-43.12"/>
<polygon fill="black" stroke="black" points="747.68,-39.74 737.16,-41 746.17,-46.58 747.68,-39.74"/>
</a>
</g>
</g>
<!-- MATH0019 -->
<g id="node16" class="node">
<title>MATH0019</title>
<g id="a_node16"><a xlink:href="https://www.ucl.ac.uk/mathematical-physical-sciences/sites/mathematical_physical_sciences/files/math0019.pdf" xlink:title="Year 3, term 1">
<polygon fill="white" stroke="#ff4040" stroke-width="5" points="1786.25,-121 1610.5,-121 1610.5,-78.5 1786.25,-78.5 1786.25,-121"/>
<text xml:space="preserve" text-anchor="middle" x="1698.38" y="-103.7" font-family="Times,serif" font-size="14.00">MATH0019</text>
<text xml:space="preserve" text-anchor="middle" x="1698.38" y="-86.45" font-family="Times,serif" font-size="14.00">Multivariable Analysis</text>
</a>
</g>
</g>
<!-- MATH0051&#45;&gt;MATH0019 -->
<g id="edge16" class="edge">
<title>MATH0051&#45;&gt;MATH0019</title>
<g id="a_edge16"><a xlink:title="required prerequisite">
<path fill="none" stroke="black" d="M1698.38,-154.71C1698.38,-148.39 1698.38,-141.37 1698.38,-134.54"/>
<polygon fill="black" stroke="black" points="1701.88,-134.91 1698.38,-124.91 1694.88,-134.91 1701.88,-134.91"/>
</a>
</g>
</g>
<!-- MATH0017 -->
<g id="node18" class="node">
<title>MATH0017</title>
<g id="a_node18"><a xlink:href="https://www.ucl.ac.uk/mathematical-physical-sciences/sites/mathematical_physical_sciences/files/math0017.pdf" xlink:title="Year 3, term 1">
<polygon fill="white" stroke="#ff4040" stroke-width="5" points="1936.5,-121 1804.25,-121 1804.25,-78.5 1936.5,-78.5 1936.5,-121"/>
<text xml:space="preserve" text-anchor="middle" x="1870.38" y="-103.7" font-family="Times,serif" font-size="14.00">MATH0017</text>
<text xml:space="preserve" text-anchor="middle" x="1870.38" y="-86.45" font-family="Times,serif" font-size="14.00">Measure Theory</text>
</a>
</g>
</g>
<!-- MATH0051&#45;&gt;MATH0017 -->
<g id="edge18" class="edge">
<title>MATH0051&#45;&gt;MATH0017</title>
<g id="a_edge18"><a xlink:title="required prerequisite">
<path fill="none" stroke="black" d="M1749.05,-154.71C1767.87,-146.34 1789.41,-136.76 1809.07,-128.01"/>
<polygon fill="black" stroke="black" points="1810.37,-131.27 1818.08,-124.01 1807.53,-124.87 1810.37,-131.27"/>
</a>
</g>
</g>
<!-- MATH0119 -->
<g id="node27" class="node">
<title>MATH0119</title>
<g id="a_node27"><a xlink:href="https://www.ucl.ac.uk/mathematical-physical-sciences/sites/mathematical_physical_sciences/files/math0119.pdf" xlink:title="Year 3 or 4, term 2">
<polygon fill="white" stroke="#cd1076" stroke-width="5" points="1776.5,-42.5 1620.25,-42.5 1620.25,0 1776.5,0 1776.5,-42.5"/>
<text xml:space="preserve" text-anchor="middle" x="1698.38" y="-25.2" font-family="Times,serif" font-size="14.00">MATH0119</text>
<text xml:space="preserve" text-anchor="middle" x="1698.38" y="-7.95" font-family="Times,serif" font-size="14.00">Dynamical Systems</text>
</a>
</g>
</g>
<!-- MATH0019&#45;&gt;MATH0119 -->
<g id="edge34" class="edge">
<title>MATH0019&#45;&gt;MATH0119</title>
<g id="a_edge34"><a xlink:title="recommended prerequisite">
<path fill="none" stroke="black" stroke-dasharray="5,2" d="M1698.38,-76.21C1698.38,-69.89 1698.38,-62.87 1698.38,-56.04"/>
<polygon fill="black" stroke="black" points="1701.88,-56.41 1698.38,-46.41 1694.88,-56.41 1701.88,-56.41"/>
</a>
</g>
</g>
<!-- MATH0079 -->
<g id="node29" class="node">
<title>MATH0079</title>
<g id="a_node29"><a xlink:href="https://www.ucl.ac.uk/mathematical-physical-sciences/sites/mathematical_physical_sciences/files/math0079.pdf" xlink:title="Year 4, term 2">
<polygon fill="white" stroke="#1874cd" stroke-width="5" points="848.88,-42.5 751.88,-42.5 751.88,0 848.88,0 848.88,-42.5"/>
<text xml:space="preserve" text-anchor="middle" x="800.38" y="-25.2" font-family="Times,serif" font-size="14.00">MATH0079</text>
<text xml:space="preserve" text-anchor="middle" x="800.38" y="-7.95" font-family="Times,serif" font-size="14.00">Cosmology</text>
</a>
</g>
</g>
<!-- MATH0025&#45;&gt;MATH0079 -->
<g id="edge38" class="edge">
<title>MATH0025&#45;&gt;MATH0079</title>
<g id="a_edge38"><a xlink:title="required prerequisite">
<path fill="none" stroke="black" d="M788.38,-76.21C789.79,-69.89 791.35,-62.87 792.87,-56.04"/>
<polygon fill="black" stroke="black" points="796.26,-56.89 795.02,-46.37 789.43,-55.37 796.26,-56.89"/>
</a>
</g>
</g>
<!-- MATH0017&#45;&gt;MATH0119 -->
<g id="edge33" class="edge">
<title>MATH0017&#45;&gt;MATH0119</title>
<g id="a_edge33"><a xlink:title="required prerequisite">
<path fill="none" stroke="black" d="M1819.24,-76C1800.52,-67.68 1779.15,-58.17 1759.63,-49.5"/>
<polygon fill="black" stroke="black" points="1761.26,-46.39 1750.7,-45.52 1758.42,-52.78 1761.26,-46.39"/>
</a>
</g>
</g>
<!-- MATH0020&#45;&gt;MATH0119 -->
<g id="edge35" class="edge">
<title>MATH0020&#45;&gt;MATH0119</title>
<g id="a_edge35"><a xlink:title="recommended prerequisite">
<path fill="none" stroke="black" stroke-dasharray="5,2" d="M1292.61,-79.76C1294.89,-79.33 1297.15,-78.9 1299.38,-78.5 1404.23,-59.47 1525.58,-43.17 1606.66,-33.09"/>
<polygon fill="black" stroke="black" points="1606.83,-36.6 1616.33,-31.9 1605.98,-29.65 1606.83,-36.6"/>
</a>
</g>
</g>
<!-- MATH0077&#45;&gt;MATH0106 -->
<g id="edge37" class="edge">
<title>MATH0077&#45;&gt;MATH0106</title>
<g id="a_edge37"><a xlink:title="recommended prerequisite">
<path fill="none" stroke="black" stroke-dasharray="5,2" d="M383.47,-80.45C381.42,-79.78 379.38,-79.13 377.38,-78.5 342.98,-67.71 305,-57 271.11,-47.87"/>
<polygon fill="black" stroke="black" points="272.29,-44.57 261.73,-45.36 270.48,-51.33 272.29,-44.57"/>
</a>
</g>
</g>
<!-- MATH0078 -->
<g id="node30" class="node">
<title>MATH0078</title>
<g id="a_node30"><a xlink:href="https://www.ucl.ac.uk/mathematical-physical-sciences/sites/mathematical_physical_sciences/files/math0078.pdf" xlink:title="Year 4, term 2">
<polygon fill="white" stroke="#1874cd" stroke-width="5" points="583.62,-42.5 311.12,-42.5 311.12,0 583.62,0 583.62,-42.5"/>
<text xml:space="preserve" text-anchor="middle" x="447.38" y="-25.2" font-family="Times,serif" font-size="14.00">MATH0078</text>
<text xml:space="preserve" text-anchor="middle" x="447.38" y="-7.95" font-family="Times,serif" font-size="14.00">Asymptotic Approximation Methods</text>
</a>
</g>
</g>
<!-- MATH0077&#45;&gt;MATH0078 -->
<g id="edge39" class="edge">
<title>MATH0077&#45;&gt;MATH0078</title>
<g id="a_edge39"><a xlink:title="required prerequisite">
<path fill="none" stroke="black" d="M438.21,-76.21C439.28,-69.89 440.47,-62.87 441.63,-56.04"/>
<polygon fill="black" stroke="black" points="445.05,-56.83 443.27,-46.38 438.15,-55.66 445.05,-56.83"/>
</a>
</g>
</g>
</g>
</svg>
