<?xml version="1.0" encoding="UTF-8" standalone="no"?>
<!DOCTYPE svg PUBLIC "-//W3C//DTD SVG 1.1//EN"
 "http://www.w3.org/Graphics/SVG/1.1/DTD/svg11.dtd">
<!-- Generated by graphviz version 2.43.0 (0)
 -->
<!-- Title: %3 Pages: 1 -->
<svg width="1951pt" height="416pt"
 viewBox="0.00 0.00 1950.50 416.00" xmlns="http://www.w3.org/2000/svg" xmlns:xlink="http://www.w3.org/1999/xlink">
<g id="graph0" class="graph" transform="scale(1 1) rotate(0) translate(4 412)">
<title>%3</title>
<polygon fill="white" stroke="transparent" points="-4,4 -4,-412 1946.5,-412 1946.5,4 -4,4"/>
<!-- MATH0008 -->
<g id="node1" class="node">
<title>MATH0008</title>
<g id="a_node1"><a xlink:href="https://www.ucl.ac.uk/maths/sites/maths/files/math0008.pdf" xlink:title="Year 1, term 1">
<polygon fill="white" stroke="#ffb90f" stroke-width="5" points="240.5,-408 72.5,-408 72.5,-370 240.5,-370 240.5,-408"/>
<text text-anchor="middle" x="156.5" y="-392.8" font-family="Times,serif" font-size="14.00">MATH0008</text>
<text text-anchor="middle" x="156.5" y="-377.8" font-family="Times,serif" font-size="14.00">Applied Mathematics</text>
</a>
</g>
</g>
<!-- MATH0009 -->
<g id="node7" class="node">
<title>MATH0009</title>
<g id="a_node7"><a xlink:href="https://www.ucl.ac.uk/maths/sites/maths/files/math0009.pdf" xlink:title="Year 1, term 2">
<polygon fill="white" stroke="#cd950c" stroke-width="5" points="243.5,-334 69.5,-334 69.5,-296 243.5,-296 243.5,-334"/>
<text text-anchor="middle" x="156.5" y="-318.8" font-family="Times,serif" font-size="14.00">MATH0009</text>
<text text-anchor="middle" x="156.5" y="-303.8" font-family="Times,serif" font-size="14.00">Newtonian Mechanics</text>
</a>
</g>
</g>
<!-- MATH0008&#45;&gt;MATH0009 -->
<g id="edge3" class="edge">
<title>MATH0008&#45;&gt;MATH0009</title>
<path fill="none" stroke="black" d="M156.5,-369.83C156.5,-362.13 156.5,-352.97 156.5,-344.42"/>
<polygon fill="black" stroke="black" points="160,-344.41 156.5,-334.41 153,-344.41 160,-344.41"/>
</g>
<!-- MATH0005 -->
<g id="node2" class="node">
<title>MATH0005</title>
<g id="a_node2"><a xlink:href="https://www.ucl.ac.uk/maths/sites/maths/files/math0005.pdf" xlink:title="Year 1, term 1">
<polygon fill="white" stroke="#ffb90f" stroke-width="5" points="1314.5,-408 1216.5,-408 1216.5,-370 1314.5,-370 1314.5,-408"/>
<text text-anchor="middle" x="1265.5" y="-392.8" font-family="Times,serif" font-size="14.00">MATH0005</text>
<text text-anchor="middle" x="1265.5" y="-377.8" font-family="Times,serif" font-size="14.00">Algebra 1</text>
</a>
</g>
</g>
<!-- MATH0006 -->
<g id="node5" class="node">
<title>MATH0006</title>
<g id="a_node5"><a xlink:href="https://www.ucl.ac.uk/maths/sites/maths/files/math0006.pdf" xlink:title="Year 1, term 2">
<polygon fill="white" stroke="#cd950c" stroke-width="5" points="1314.5,-334 1216.5,-334 1216.5,-296 1314.5,-296 1314.5,-334"/>
<text text-anchor="middle" x="1265.5" y="-318.8" font-family="Times,serif" font-size="14.00">MATH0006</text>
<text text-anchor="middle" x="1265.5" y="-303.8" font-family="Times,serif" font-size="14.00">Algebra 2</text>
</a>
</g>
</g>
<!-- MATH0005&#45;&gt;MATH0006 -->
<g id="edge1" class="edge">
<title>MATH0005&#45;&gt;MATH0006</title>
<path fill="none" stroke="black" d="M1265.5,-369.83C1265.5,-362.13 1265.5,-352.97 1265.5,-344.42"/>
<polygon fill="black" stroke="black" points="1269,-344.41 1265.5,-334.41 1262,-344.41 1269,-344.41"/>
</g>
<!-- MATH0003 -->
<g id="node3" class="node">
<title>MATH0003</title>
<g id="a_node3"><a xlink:href="https://www.ucl.ac.uk/maths/sites/maths/files/math0003.pdf" xlink:title="Year 1, term 1">
<polygon fill="white" stroke="#ffb90f" stroke-width="5" points="1618.5,-408 1520.5,-408 1520.5,-370 1618.5,-370 1618.5,-408"/>
<text text-anchor="middle" x="1569.5" y="-392.8" font-family="Times,serif" font-size="14.00">MATH0003</text>
<text text-anchor="middle" x="1569.5" y="-377.8" font-family="Times,serif" font-size="14.00">Analysis 1</text>
</a>
</g>
</g>
<!-- MATH0004 -->
<g id="node8" class="node">
<title>MATH0004</title>
<g id="a_node8"><a xlink:href="https://www.ucl.ac.uk/maths/sites/maths/files/math0004.pdf" xlink:title="Year 1, term 2">
<polygon fill="white" stroke="#cd950c" stroke-width="5" points="1657.5,-334 1559.5,-334 1559.5,-296 1657.5,-296 1657.5,-334"/>
<text text-anchor="middle" x="1608.5" y="-318.8" font-family="Times,serif" font-size="14.00">MATH0004</text>
<text text-anchor="middle" x="1608.5" y="-303.8" font-family="Times,serif" font-size="14.00">Analysis 2</text>
</a>
</g>
</g>
<!-- MATH0003&#45;&gt;MATH0004 -->
<g id="edge5" class="edge">
<title>MATH0003&#45;&gt;MATH0004</title>
<path fill="none" stroke="black" d="M1579.34,-369.83C1583.7,-361.79 1588.91,-352.17 1593.72,-343.29"/>
<polygon fill="black" stroke="black" points="1596.84,-344.87 1598.53,-334.41 1590.69,-341.54 1596.84,-344.87"/>
</g>
<!-- MATH0013 -->
<g id="node12" class="node">
<title>MATH0013</title>
<g id="a_node12"><a xlink:href="https://www.ucl.ac.uk/maths/sites/maths/files/math0013.pdf" xlink:title="Year 2, term 1">
<polygon fill="white" stroke="#00ff00" stroke-width="5" points="1646,-260 1417,-260 1417,-222 1646,-222 1646,-260"/>
<text text-anchor="middle" x="1531.5" y="-244.8" font-family="Times,serif" font-size="14.00">MATH0013</text>
<text text-anchor="middle" x="1531.5" y="-229.8" font-family="Times,serif" font-size="14.00">Analysis 3 &#45; Complex Analysis</text>
</a>
</g>
</g>
<!-- MATH0003&#45;&gt;MATH0013 -->
<g id="edge10" class="edge">
<title>MATH0003&#45;&gt;MATH0013</title>
<path fill="none" stroke="black" d="M1562.37,-369.7C1558.51,-359.34 1553.85,-346.07 1550.5,-334 1544.62,-312.85 1539.68,-288.51 1536.3,-270.18"/>
<polygon fill="black" stroke="black" points="1539.71,-269.38 1534.5,-260.15 1532.82,-270.61 1539.71,-269.38"/>
</g>
<!-- MATH0010 -->
<g id="node4" class="node">
<title>MATH0010</title>
<g id="a_node4"><a xlink:href="https://www.ucl.ac.uk/maths/sites/maths/files/math0010.pdf" xlink:title="Year 1, term 1">
<polygon fill="white" stroke="#ffb90f" stroke-width="5" points="455,-408 260,-408 260,-370 455,-370 455,-408"/>
<text text-anchor="middle" x="357.5" y="-392.8" font-family="Times,serif" font-size="14.00">MATH0010</text>
<text text-anchor="middle" x="357.5" y="-377.8" font-family="Times,serif" font-size="14.00">Mathematical Methods 1</text>
</a>
</g>
</g>
<!-- MATH0011 -->
<g id="node6" class="node">
<title>MATH0011</title>
<g id="a_node6"><a xlink:href="https://www.ucl.ac.uk/maths/sites/maths/files/math0011_2.pdf" xlink:title="Year 1, term 2">
<polygon fill="white" stroke="#cd950c" stroke-width="5" points="457,-334 262,-334 262,-296 457,-296 457,-334"/>
<text text-anchor="middle" x="359.5" y="-318.8" font-family="Times,serif" font-size="14.00">MATH0011</text>
<text text-anchor="middle" x="359.5" y="-303.8" font-family="Times,serif" font-size="14.00">Mathematical Methods 2</text>
</a>
</g>
</g>
<!-- MATH0010&#45;&gt;MATH0011 -->
<g id="edge2" class="edge">
<title>MATH0010&#45;&gt;MATH0011</title>
<path fill="none" stroke="black" d="M358,-369.83C358.22,-362.13 358.47,-352.97 358.71,-344.42"/>
<polygon fill="black" stroke="black" points="362.21,-344.51 358.99,-334.41 355.21,-344.31 362.21,-344.51"/>
</g>
<!-- MATH0010&#45;&gt;MATH0009 -->
<g id="edge4" class="edge">
<title>MATH0010&#45;&gt;MATH0009</title>
<path fill="none" stroke="black" d="M307.04,-369.92C279.56,-360.08 245.38,-347.84 216.54,-337.51"/>
<polygon fill="black" stroke="black" points="217.58,-334.16 206.98,-334.08 215.22,-340.75 217.58,-334.16"/>
</g>
<!-- MATH0014 -->
<g id="node11" class="node">
<title>MATH0014</title>
<g id="a_node11"><a xlink:href="https://www.ucl.ac.uk/maths/sites/maths/files/math0014.pdf" xlink:title="Year 2, term 1">
<polygon fill="white" stroke="#00ff00" stroke-width="5" points="1395.5,-260 1135.5,-260 1135.5,-222 1395.5,-222 1395.5,-260"/>
<text text-anchor="middle" x="1265.5" y="-244.8" font-family="Times,serif" font-size="14.00">MATH0014</text>
<text text-anchor="middle" x="1265.5" y="-229.8" font-family="Times,serif" font-size="14.00">Algebra 3: Further Linear Algebra</text>
</a>
</g>
</g>
<!-- MATH0006&#45;&gt;MATH0014 -->
<g id="edge9" class="edge">
<title>MATH0006&#45;&gt;MATH0014</title>
<path fill="none" stroke="black" d="M1265.5,-295.83C1265.5,-288.13 1265.5,-278.97 1265.5,-270.42"/>
<polygon fill="black" stroke="black" points="1269,-270.41 1265.5,-260.41 1262,-270.41 1269,-270.41"/>
</g>
<!-- MATH0016 -->
<g id="node9" class="node">
<title>MATH0016</title>
<g id="a_node9"><a xlink:href="https://www.ucl.ac.uk/maths/sites/maths/files/math0016.pdf" xlink:title="Year 2, term 1">
<polygon fill="white" stroke="#00ff00" stroke-width="5" points="513,-260 318,-260 318,-222 513,-222 513,-260"/>
<text text-anchor="middle" x="415.5" y="-244.8" font-family="Times,serif" font-size="14.00">MATH0016</text>
<text text-anchor="middle" x="415.5" y="-229.8" font-family="Times,serif" font-size="14.00">Mathematical Methods 3</text>
</a>
</g>
</g>
<!-- MATH0011&#45;&gt;MATH0016 -->
<g id="edge6" class="edge">
<title>MATH0011&#45;&gt;MATH0016</title>
<path fill="none" stroke="black" d="M373.63,-295.83C380.08,-287.54 387.84,-277.56 394.93,-268.45"/>
<polygon fill="black" stroke="black" points="397.8,-270.46 401.18,-260.41 392.28,-266.16 397.8,-270.46"/>
</g>
<!-- MATH0015 -->
<g id="node10" class="node">
<title>MATH0015</title>
<g id="a_node10"><a xlink:href="https://www.ucl.ac.uk/maths/sites/maths/files/math0015.pdf" xlink:title="Year 2, term 1">
<polygon fill="white" stroke="#00ff00" stroke-width="5" points="299.5,-260 165.5,-260 165.5,-222 299.5,-222 299.5,-260"/>
<text text-anchor="middle" x="232.5" y="-244.8" font-family="Times,serif" font-size="14.00">MATH0015</text>
<text text-anchor="middle" x="232.5" y="-229.8" font-family="Times,serif" font-size="14.00">Fluid Mechanics</text>
</a>
</g>
</g>
<!-- MATH0011&#45;&gt;MATH0015 -->
<g id="edge7" class="edge">
<title>MATH0011&#45;&gt;MATH0015</title>
<path fill="none" stroke="black" d="M327.45,-295.83C311.06,-286.54 290.92,-275.12 273.42,-265.2"/>
<polygon fill="black" stroke="black" points="274.96,-262.05 264.54,-260.16 271.51,-268.14 274.96,-262.05"/>
</g>
<!-- MATH0020 -->
<g id="node19" class="node">
<title>MATH0020</title>
<g id="a_node19"><a xlink:href="https://www.ucl.ac.uk/maths/sites/maths/files/math0020.pdf" xlink:title="Year 3, term 2">
<polygon fill="white" stroke="#cd3333" stroke-width="5" points="1597,-112 1424,-112 1424,-74 1597,-74 1597,-112"/>
<text text-anchor="middle" x="1510.5" y="-96.8" font-family="Times,serif" font-size="14.00">MATH0020</text>
<text text-anchor="middle" x="1510.5" y="-81.8" font-family="Times,serif" font-size="14.00">Differential Geometry</text>
</a>
</g>
</g>
<!-- MATH0011&#45;&gt;MATH0020 -->
<g id="edge19" class="edge">
<title>MATH0011&#45;&gt;MATH0020</title>
<path fill="none" stroke="black" d="M457.15,-298.2C597.4,-275.21 863.83,-230.42 1089.5,-186 1205.12,-163.24 1337.85,-133.66 1422.85,-114.27"/>
<polygon fill="black" stroke="black" points="1423.75,-117.65 1432.72,-112.01 1422.19,-110.83 1423.75,-117.65"/>
</g>
<!-- MATH0054 -->
<g id="node21" class="node">
<title>MATH0054</title>
<g id="a_node21"><a xlink:href="https://www.ucl.ac.uk/maths/sites/maths/files/math0054.pdf" xlink:title="Year 3, term 2">
<polygon fill="white" stroke="#cd3333" stroke-width="5" points="161,-112 0,-112 0,-74 161,-74 161,-112"/>
<text text-anchor="middle" x="80.5" y="-96.8" font-family="Times,serif" font-size="14.00">MATH0054</text>
<text text-anchor="middle" x="80.5" y="-81.8" font-family="Times,serif" font-size="14.00">Analytical Dynamics</text>
</a>
</g>
</g>
<!-- MATH0011&#45;&gt;MATH0054 -->
<g id="edge22" class="edge">
<title>MATH0011&#45;&gt;MATH0054</title>
<path fill="none" stroke="black" d="M261.84,-296.24C218.31,-286.7 173.12,-274.02 156.5,-260 150.79,-255.18 112.22,-167.31 92.32,-121.42"/>
<polygon fill="black" stroke="black" points="95.45,-119.83 88.27,-112.04 89.03,-122.61 95.45,-119.83"/>
</g>
<!-- MATH0009&#45;&gt;MATH0015 -->
<g id="edge8" class="edge">
<title>MATH0009&#45;&gt;MATH0015</title>
<path fill="none" stroke="black" d="M175.68,-295.83C184.86,-287.13 196,-276.58 205.98,-267.13"/>
<polygon fill="black" stroke="black" points="208.48,-269.58 213.33,-260.16 203.66,-264.5 208.48,-269.58"/>
</g>
<!-- MATH0009&#45;&gt;MATH0054 -->
<g id="edge23" class="edge">
<title>MATH0009&#45;&gt;MATH0054</title>
<path fill="none" stroke="black" d="M139.47,-295.84C131.06,-285.94 121.47,-273.06 115.5,-260 94.73,-214.55 86.12,-156.45 82.67,-122.41"/>
<polygon fill="black" stroke="black" points="86.14,-121.89 81.73,-112.25 79.17,-122.54 86.14,-121.89"/>
</g>
<!-- MATH0004&#45;&gt;MATH0013 -->
<g id="edge11" class="edge">
<title>MATH0004&#45;&gt;MATH0013</title>
<path fill="none" stroke="black" stroke-dasharray="5,2" d="M1589.07,-295.83C1579.77,-287.13 1568.48,-276.58 1558.37,-267.13"/>
<polygon fill="black" stroke="black" points="1560.62,-264.44 1550.92,-260.16 1555.84,-269.55 1560.62,-264.44"/>
</g>
<!-- MATH0051 -->
<g id="node14" class="node">
<title>MATH0051</title>
<g id="a_node14"><a xlink:href="https://www.ucl.ac.uk/maths/sites/maths/files/math0051.pdf" xlink:title="Year 2 or 3, term 2">
<polygon fill="white" stroke="#8ee5ee" stroke-width="5" points="1730.5,-186 1632.5,-186 1632.5,-148 1730.5,-148 1730.5,-186"/>
<text text-anchor="middle" x="1681.5" y="-170.8" font-family="Times,serif" font-size="14.00">MATH0051</text>
<text text-anchor="middle" x="1681.5" y="-155.8" font-family="Times,serif" font-size="14.00">Analysis 4</text>
</a>
</g>
</g>
<!-- MATH0004&#45;&gt;MATH0051 -->
<g id="edge14" class="edge">
<title>MATH0004&#45;&gt;MATH0051</title>
<path fill="none" stroke="black" d="M1628.19,-295.58C1637.63,-285.8 1648.4,-273.12 1655.5,-260 1666.31,-240.01 1672.99,-215.1 1676.87,-196.23"/>
<polygon fill="black" stroke="black" points="1680.35,-196.66 1678.8,-186.18 1673.48,-195.35 1680.35,-196.66"/>
</g>
<!-- MATH0056 -->
<g id="node13" class="node">
<title>MATH0056</title>
<g id="a_node13"><a xlink:href="https://www.ucl.ac.uk/maths/sites/maths/files/math0056.pdf" xlink:title="Year 2 or 3, term 2">
<polygon fill="white" stroke="#8ee5ee" stroke-width="5" points="1080,-186 885,-186 885,-148 1080,-148 1080,-186"/>
<text text-anchor="middle" x="982.5" y="-170.8" font-family="Times,serif" font-size="14.00">MATH0056</text>
<text text-anchor="middle" x="982.5" y="-155.8" font-family="Times,serif" font-size="14.00">Mathematical Methods 4</text>
</a>
</g>
</g>
<!-- MATH0016&#45;&gt;MATH0056 -->
<g id="edge13" class="edge">
<title>MATH0016&#45;&gt;MATH0056</title>
<path fill="none" stroke="black" d="M513.27,-230.03C604.34,-220.4 744.15,-204.75 874.73,-186.22"/>
<polygon fill="black" stroke="black" points="875.51,-189.64 884.92,-184.77 874.52,-182.71 875.51,-189.64"/>
</g>
<!-- MATH0055 -->
<g id="node15" class="node">
<title>MATH0055</title>
<g id="a_node15"><a xlink:href="https://www.ucl.ac.uk/maths/sites/maths/files/math0055_3.pdf" xlink:title="Year 2 or 3, term 2">
<polygon fill="white" stroke="#8ee5ee" stroke-width="5" points="867.5,-186 443.5,-186 443.5,-148 867.5,-148 867.5,-186"/>
<text text-anchor="middle" x="655.5" y="-170.8" font-family="Times,serif" font-size="14.00">MATH0055</text>
<text text-anchor="middle" x="655.5" y="-155.8" font-family="Times,serif" font-size="14.00">Mathematics of Electromagnetism and Special Relativity</text>
</a>
</g>
</g>
<!-- MATH0016&#45;&gt;MATH0055 -->
<g id="edge15" class="edge">
<title>MATH0016&#45;&gt;MATH0055</title>
<path fill="none" stroke="black" d="M475.75,-221.92C509.13,-211.91 550.79,-199.41 585.6,-188.97"/>
<polygon fill="black" stroke="black" points="586.65,-192.31 595.22,-186.08 584.64,-185.6 586.65,-192.31"/>
</g>
<!-- MATH0025 -->
<g id="node18" class="node">
<title>MATH0025</title>
<g id="a_node18"><a xlink:href="https://www.ucl.ac.uk/maths/sites/maths/files/math0025.pdf" xlink:title="Year 3, term 1">
<polygon fill="white" stroke="#ff4040" stroke-width="5" points="657,-112 388,-112 388,-74 657,-74 657,-112"/>
<text text-anchor="middle" x="522.5" y="-96.8" font-family="Times,serif" font-size="14.00">MATH0025</text>
<text text-anchor="middle" x="522.5" y="-81.8" font-family="Times,serif" font-size="14.00">Mathematics for General Relativity</text>
</a>
</g>
</g>
<!-- MATH0016&#45;&gt;MATH0025 -->
<g id="edge18" class="edge">
<title>MATH0016&#45;&gt;MATH0025</title>
<path fill="none" stroke="black" d="M405.95,-221.87C397,-202.12 386.99,-170.36 401.5,-148 410.31,-134.42 423.43,-124.22 437.81,-116.57"/>
<polygon fill="black" stroke="black" points="439.45,-119.67 446.91,-112.14 436.38,-113.38 439.45,-119.67"/>
</g>
<!-- MATH0024 -->
<g id="node20" class="node">
<title>MATH0024</title>
<g id="a_node20"><a xlink:href="https://www.ucl.ac.uk/maths/sites/maths/files/math0024.pdf" xlink:title="Year 3, term 2">
<polygon fill="white" stroke="#cd3333" stroke-width="5" points="369.5,-112 217.5,-112 217.5,-74 369.5,-74 369.5,-112"/>
<text text-anchor="middle" x="293.5" y="-96.8" font-family="Times,serif" font-size="14.00">MATH0024</text>
<text text-anchor="middle" x="293.5" y="-81.8" font-family="Times,serif" font-size="14.00">Geophysical Fluids</text>
</a>
</g>
</g>
<!-- MATH0016&#45;&gt;MATH0024 -->
<g id="edge21" class="edge">
<title>MATH0016&#45;&gt;MATH0024</title>
<path fill="none" stroke="black" d="M400.3,-221.8C378.93,-196.23 339.89,-149.51 315.39,-120.2"/>
<polygon fill="black" stroke="black" points="317.99,-117.85 308.9,-112.43 312.62,-122.34 317.99,-117.85"/>
</g>
<!-- MATH0077 -->
<g id="node23" class="node">
<title>MATH0077</title>
<g id="a_node23"><a xlink:href="https://www.ucl.ac.uk/maths/sites/maths/files/math0077.pdf" xlink:title="Year 3 or 4, term 1">
<polygon fill="white" stroke="#ff1493" stroke-width="5" points="773.5,-112 675.5,-112 675.5,-74 773.5,-74 773.5,-112"/>
<text text-anchor="middle" x="724.5" y="-96.8" font-family="Times,serif" font-size="14.00">MATH0077</text>
<text text-anchor="middle" x="724.5" y="-81.8" font-family="Times,serif" font-size="14.00">Real Fluids</text>
</a>
</g>
</g>
<!-- MATH0016&#45;&gt;MATH0077 -->
<g id="edge26" class="edge">
<title>MATH0016&#45;&gt;MATH0077</title>
<path fill="none" stroke="black" d="M413.67,-221.93C412.65,-201.01 414.53,-167 434.5,-148 470.3,-113.93 600.84,-122.66 665.17,-111.82"/>
<polygon fill="black" stroke="black" points="666.15,-115.2 675.27,-109.82 664.78,-108.33 666.15,-115.2"/>
</g>
<!-- MATH0015&#45;&gt;MATH0024 -->
<g id="edge20" class="edge">
<title>MATH0015&#45;&gt;MATH0024</title>
<path fill="none" stroke="black" d="M240.1,-221.8C250.6,-196.67 269.64,-151.1 281.92,-121.72"/>
<polygon fill="black" stroke="black" points="285.18,-123 285.8,-112.43 278.72,-120.3 285.18,-123"/>
</g>
<!-- MATH0015&#45;&gt;MATH0077 -->
<g id="edge25" class="edge">
<title>MATH0015&#45;&gt;MATH0077</title>
<path fill="none" stroke="black" d="M260.54,-221.93C294.91,-200.67 355.62,-166.01 412.5,-148 518.12,-114.56 553.26,-135.7 665.29,-112.05"/>
<polygon fill="black" stroke="black" points="666.26,-115.42 675.28,-109.86 664.77,-108.58 666.26,-115.42"/>
</g>
<!-- MATH0115 -->
<g id="node27" class="node">
<title>MATH0115</title>
<g id="a_node27"><a xlink:href="https://www.ucl.ac.uk/maths/sites/maths/files/math0115_syllabus.pdf" xlink:title="Year 3 or 4, term 2">
<polygon fill="white" stroke="#cd1076" stroke-width="5" points="353,-38 220,-38 220,0 353,0 353,-38"/>
<text text-anchor="middle" x="286.5" y="-22.8" font-family="Times,serif" font-size="14.00">MATH0115</text>
<text text-anchor="middle" x="286.5" y="-7.8" font-family="Times,serif" font-size="14.00">Solid Mechanics</text>
</a>
</g>
</g>
<!-- MATH0015&#45;&gt;MATH0115 -->
<g id="edge34" class="edge">
<title>MATH0015&#45;&gt;MATH0115</title>
<path fill="none" stroke="black" d="M223.18,-221.86C208.21,-190 182.96,-122.75 208.5,-74 214.96,-61.67 225.65,-51.6 237.08,-43.64"/>
<polygon fill="black" stroke="black" points="238.98,-46.58 245.48,-38.21 235.18,-40.7 238.98,-46.58"/>
</g>
<!-- MATH0118 -->
<g id="node24" class="node">
<title>MATH0118</title>
<g id="a_node24"><a xlink:href="https://www.ucl.ac.uk/maths/sites/maths/files/math0118.pdf" xlink:title="Year 3 or 4, term 1">
<polygon fill="white" stroke="#ff1493" stroke-width="5" points="1406,-112 1121,-112 1121,-74 1406,-74 1406,-112"/>
<text text-anchor="middle" x="1263.5" y="-96.8" font-family="Times,serif" font-size="14.00">MATH0118</text>
<text text-anchor="middle" x="1263.5" y="-81.8" font-family="Times,serif" font-size="14.00">Mathematics for Quantum Mechanics</text>
</a>
</g>
</g>
<!-- MATH0014&#45;&gt;MATH0118 -->
<g id="edge29" class="edge">
<title>MATH0014&#45;&gt;MATH0118</title>
<path fill="none" stroke="black" d="M1265.25,-221.8C1264.91,-196.89 1264.29,-151.89 1263.89,-122.49"/>
<polygon fill="black" stroke="black" points="1267.39,-122.38 1263.75,-112.43 1260.39,-122.47 1267.39,-122.38"/>
</g>
<!-- MATH0013&#45;&gt;MATH0056 -->
<g id="edge12" class="edge">
<title>MATH0013&#45;&gt;MATH0056</title>
<path fill="none" stroke="black" d="M1416.94,-223.69C1412.74,-223.12 1408.58,-222.55 1404.5,-222 1297.65,-207.59 1175.45,-192.06 1090.14,-181.37"/>
<polygon fill="black" stroke="black" points="1090.54,-177.89 1080.19,-180.12 1089.67,-184.84 1090.54,-177.89"/>
</g>
<!-- MATH0027 -->
<g id="node22" class="node">
<title>MATH0027</title>
<g id="a_node22"><a xlink:href="https://www.ucl.ac.uk/maths/sites/maths/files/math0027.pdf" xlink:title="Year 3, term 2">
<polygon fill="white" stroke="#cd3333" stroke-width="5" points="1102.5,-112 1004.5,-112 1004.5,-74 1102.5,-74 1102.5,-112"/>
<text text-anchor="middle" x="1053.5" y="-96.8" font-family="Times,serif" font-size="14.00">MATH0027</text>
<text text-anchor="middle" x="1053.5" y="-81.8" font-family="Times,serif" font-size="14.00">Methods 5</text>
</a>
</g>
</g>
<!-- MATH0056&#45;&gt;MATH0027 -->
<g id="edge24" class="edge">
<title>MATH0056&#45;&gt;MATH0027</title>
<path fill="none" stroke="black" d="M1000.42,-147.83C1008.84,-139.28 1019.04,-128.94 1028.24,-119.62"/>
<polygon fill="black" stroke="black" points="1030.81,-121.99 1035.34,-112.41 1025.83,-117.08 1030.81,-121.99"/>
</g>
<!-- MATH0056&#45;&gt;MATH0077 -->
<g id="edge27" class="edge">
<title>MATH0056&#45;&gt;MATH0077</title>
<path fill="none" stroke="black" d="M917.73,-147.92C876.58,-136.44 823.74,-121.69 783.71,-110.52"/>
<polygon fill="black" stroke="black" points="784.4,-107.08 773.83,-107.77 782.52,-113.83 784.4,-107.08"/>
</g>
<!-- MATH0056&#45;&gt;MATH0118 -->
<g id="edge28" class="edge">
<title>MATH0056&#45;&gt;MATH0118</title>
<path fill="none" stroke="black" d="M1053.05,-147.92C1092.63,-137.78 1142.16,-125.09 1183.22,-114.57"/>
<polygon fill="black" stroke="black" points="1184.11,-117.96 1192.93,-112.08 1182.37,-111.17 1184.11,-117.96"/>
</g>
<!-- MATH0080 -->
<g id="node26" class="node">
<title>MATH0080</title>
<g id="a_node26"><a xlink:href="https://www.ucl.ac.uk/maths/sites/maths/files/math0080.pdf" xlink:title="Year 3 or 4, term 2">
<polygon fill="white" stroke="#cd1076" stroke-width="5" points="1088.5,-38 874.5,-38 874.5,0 1088.5,0 1088.5,-38"/>
<text text-anchor="middle" x="981.5" y="-22.8" font-family="Times,serif" font-size="14.00">MATH0080</text>
<text text-anchor="middle" x="981.5" y="-7.8" font-family="Times,serif" font-size="14.00">Waves and Wave Scattering</text>
</a>
</g>
</g>
<!-- MATH0056&#45;&gt;MATH0080 -->
<g id="edge33" class="edge">
<title>MATH0056&#45;&gt;MATH0080</title>
<path fill="none" stroke="black" d="M982.38,-147.8C982.2,-122.89 981.9,-77.89 981.7,-48.49"/>
<polygon fill="black" stroke="black" points="985.19,-48.4 981.63,-38.43 978.19,-48.45 985.19,-48.4"/>
</g>
<!-- MATH0056&#45;&gt;MATH0115 -->
<g id="edge35" class="edge">
<title>MATH0056&#45;&gt;MATH0115</title>
<path fill="none" stroke="black" d="M951.49,-147.88C913.17,-126.41 845.31,-91.37 782.5,-74 777.49,-72.62 501.15,-42.95 363.18,-28.19"/>
<polygon fill="black" stroke="black" points="363.4,-24.69 353.08,-27.11 362.66,-31.65 363.4,-24.69"/>
</g>
<!-- MATH0017 -->
<g id="node16" class="node">
<title>MATH0017</title>
<g id="a_node16"><a xlink:href="https://www.ucl.ac.uk/maths/sites/maths/files/math0017.pdf" xlink:title="Year 3, term 1">
<polygon fill="white" stroke="#ff4040" stroke-width="5" points="1748,-112 1615,-112 1615,-74 1748,-74 1748,-112"/>
<text text-anchor="middle" x="1681.5" y="-96.8" font-family="Times,serif" font-size="14.00">MATH0017</text>
<text text-anchor="middle" x="1681.5" y="-81.8" font-family="Times,serif" font-size="14.00">Measure Theory</text>
</a>
</g>
</g>
<!-- MATH0051&#45;&gt;MATH0017 -->
<g id="edge16" class="edge">
<title>MATH0051&#45;&gt;MATH0017</title>
<path fill="none" stroke="black" d="M1681.5,-147.83C1681.5,-140.13 1681.5,-130.97 1681.5,-122.42"/>
<polygon fill="black" stroke="black" points="1685,-122.41 1681.5,-112.41 1678,-122.41 1685,-122.41"/>
</g>
<!-- MATH0019 -->
<g id="node17" class="node">
<title>MATH0019</title>
<g id="a_node17"><a xlink:href="https://www.ucl.ac.uk/maths/sites/maths/files/math0019.pdf" xlink:title="Year 3, term 1">
<polygon fill="white" stroke="#ff4040" stroke-width="5" points="1942.5,-112 1766.5,-112 1766.5,-74 1942.5,-74 1942.5,-112"/>
<text text-anchor="middle" x="1854.5" y="-96.8" font-family="Times,serif" font-size="14.00">MATH0019</text>
<text text-anchor="middle" x="1854.5" y="-81.8" font-family="Times,serif" font-size="14.00">Multivariable Analysis</text>
</a>
</g>
</g>
<!-- MATH0051&#45;&gt;MATH0019 -->
<g id="edge17" class="edge">
<title>MATH0051&#45;&gt;MATH0019</title>
<path fill="none" stroke="black" d="M1725.16,-147.83C1748.4,-138.16 1777.16,-126.19 1801.65,-115.99"/>
<polygon fill="black" stroke="black" points="1803.27,-119.11 1811.16,-112.04 1800.58,-112.65 1803.27,-119.11"/>
</g>
<!-- MATH0119 -->
<g id="node25" class="node">
<title>MATH0119</title>
<g id="a_node25"><a xlink:href="https://www.ucl.ac.uk/maths/sites/maths/files/math0119.pdf" xlink:title="Year 3 or 4, term 2">
<polygon fill="white" stroke="#cd1076" stroke-width="5" points="1760,-38 1603,-38 1603,0 1760,0 1760,-38"/>
<text text-anchor="middle" x="1681.5" y="-22.8" font-family="Times,serif" font-size="14.00">MATH0119</text>
<text text-anchor="middle" x="1681.5" y="-7.8" font-family="Times,serif" font-size="14.00">Dynamical Systems</text>
</a>
</g>
</g>
<!-- MATH0017&#45;&gt;MATH0119 -->
<g id="edge30" class="edge">
<title>MATH0017&#45;&gt;MATH0119</title>
<path fill="none" stroke="black" d="M1681.5,-73.83C1681.5,-66.13 1681.5,-56.97 1681.5,-48.42"/>
<polygon fill="black" stroke="black" points="1685,-48.41 1681.5,-38.41 1678,-48.41 1685,-48.41"/>
</g>
<!-- MATH0019&#45;&gt;MATH0119 -->
<g id="edge31" class="edge">
<title>MATH0019&#45;&gt;MATH0119</title>
<path fill="none" stroke="black" stroke-dasharray="5,2" d="M1810.84,-73.83C1787.6,-64.16 1758.84,-52.19 1734.35,-41.99"/>
<polygon fill="black" stroke="black" points="1735.42,-38.65 1724.84,-38.04 1732.73,-45.11 1735.42,-38.65"/>
</g>
<!-- MATH0079 -->
<g id="node29" class="node">
<title>MATH0079</title>
<g id="a_node29"><a xlink:href="https://www.ucl.ac.uk/maths/sites/maths/files/math0079.pdf" xlink:title="Year 4, term 2">
<polygon fill="white" stroke="#1874cd" stroke-width="5" points="564.5,-38 466.5,-38 466.5,0 564.5,0 564.5,-38"/>
<text text-anchor="middle" x="515.5" y="-22.8" font-family="Times,serif" font-size="14.00">MATH0079</text>
<text text-anchor="middle" x="515.5" y="-7.8" font-family="Times,serif" font-size="14.00">Cosmology</text>
</a>
</g>
</g>
<!-- MATH0025&#45;&gt;MATH0079 -->
<g id="edge37" class="edge">
<title>MATH0025&#45;&gt;MATH0079</title>
<path fill="none" stroke="black" d="M520.73,-73.83C519.98,-66.13 519.09,-56.97 518.26,-48.42"/>
<polygon fill="black" stroke="black" points="521.74,-48.03 517.29,-38.41 514.77,-48.71 521.74,-48.03"/>
</g>
<!-- MATH0020&#45;&gt;MATH0119 -->
<g id="edge32" class="edge">
<title>MATH0020&#45;&gt;MATH0119</title>
<path fill="none" stroke="black" stroke-dasharray="5,2" d="M1553.65,-73.83C1576.62,-64.16 1605.05,-52.19 1629.26,-41.99"/>
<polygon fill="black" stroke="black" points="1630.8,-45.14 1638.66,-38.04 1628.09,-38.69 1630.8,-45.14"/>
</g>
<!-- MATH0078 -->
<g id="node28" class="node">
<title>MATH0078</title>
<g id="a_node28"><a xlink:href="https://www.ucl.ac.uk/maths/sites/maths/files/math0078.pdf" xlink:title="Year 4, term 2">
<polygon fill="white" stroke="#1874cd" stroke-width="5" points="856,-38 583,-38 583,0 856,0 856,-38"/>
<text text-anchor="middle" x="719.5" y="-22.8" font-family="Times,serif" font-size="14.00">MATH0078</text>
<text text-anchor="middle" x="719.5" y="-7.8" font-family="Times,serif" font-size="14.00">Asymptotic Approximation Methods</text>
</a>
</g>
</g>
<!-- MATH0077&#45;&gt;MATH0078 -->
<g id="edge36" class="edge">
<title>MATH0077&#45;&gt;MATH0078</title>
<path fill="none" stroke="black" d="M723.24,-73.83C722.7,-66.13 722.07,-56.97 721.47,-48.42"/>
<polygon fill="black" stroke="black" points="724.96,-48.15 720.78,-38.41 717.98,-48.63 724.96,-48.15"/>
</g>
</g>
</svg>
