<?xml version="1.0" encoding="UTF-8" standalone="no"?>
<!DOCTYPE svg PUBLIC "-//W3C//DTD SVG 1.1//EN"
 "http://www.w3.org/Graphics/SVG/1.1/DTD/svg11.dtd">
<!-- Generated by graphviz version 14.1.1 (0)
 -->
<!-- Pages: 1 -->
<svg width="1829pt" height="443pt"
 viewBox="0.00 0.00 1829.00 443.00" xmlns="http://www.w3.org/2000/svg" xmlns:xlink="http://www.w3.org/1999/xlink">
<g id="graph0" class="graph" transform="scale(1 1) rotate(0) translate(4 439)">
<polygon fill="white" stroke="none" points="-4,4 -4,-439 1824.5,-439 1824.5,4 -4,4"/>
<!-- MATH0005 -->
<g id="node1" class="node">
<title>MATH0005</title>
<g id="a_node1"><a xlink:href="https://www.ucl.ac.uk/mathematical-physical-sciences/sites/mathematical_physical_sciences/files/2025-09/math0005 syllabus.pdf" xlink:title="Year 1, term 1">
<polygon fill="white" stroke="#ffb90f" stroke-width="5" points="366.62,-435 269.62,-435 269.62,-392.5 366.62,-392.5 366.62,-435"/>
<text xml:space="preserve" text-anchor="middle" x="318.12" y="-417.7" font-family="Times,serif" font-size="14.00">MATH0005</text>
<text xml:space="preserve" text-anchor="middle" x="318.12" y="-400.45" font-family="Times,serif" font-size="14.00">Algebra 1</text>
</a>
</g>
</g>
<!-- MATH0006 -->
<g id="node5" class="node">
<title>MATH0006</title>
<g id="a_node5"><a xlink:href="https://www.ucl.ac.uk/mathematical-physical-sciences/sites/mathematical_physical_sciences/files/math0006.pdf" xlink:title="Year 1, term 2">
<polygon fill="white" stroke="#cd950c" stroke-width="5" points="366.62,-356.5 269.62,-356.5 269.62,-314 366.62,-314 366.62,-356.5"/>
<text xml:space="preserve" text-anchor="middle" x="318.12" y="-339.2" font-family="Times,serif" font-size="14.00">MATH0006</text>
<text xml:space="preserve" text-anchor="middle" x="318.12" y="-321.95" font-family="Times,serif" font-size="14.00">Algebra 2</text>
</a>
</g>
</g>
<!-- MATH0005&#45;&gt;MATH0006 -->
<g id="edge1" class="edge">
<title>MATH0005&#45;&gt;MATH0006</title>
<g id="a_edge1"><a xlink:title="required prerequisite">
<path fill="none" stroke="black" d="M318.12,-390.21C318.12,-383.89 318.12,-376.87 318.12,-370.04"/>
<polygon fill="black" stroke="black" points="321.63,-370.41 318.13,-360.41 314.63,-370.41 321.63,-370.41"/>
</a>
</g>
</g>
<!-- MATH0010 -->
<g id="node2" class="node">
<title>MATH0010</title>
<g id="a_node2"><a xlink:href="https://www.ucl.ac.uk/mathematical-physical-sciences/sites/mathematical_physical_sciences/files/math0010.pdf" xlink:title="Year 1, term 1">
<polygon fill="white" stroke="#ffb90f" stroke-width="5" points="1572.38,-435 1377.88,-435 1377.88,-392.5 1572.38,-392.5 1572.38,-435"/>
<text xml:space="preserve" text-anchor="middle" x="1475.12" y="-417.7" font-family="Times,serif" font-size="14.00">MATH0010</text>
<text xml:space="preserve" text-anchor="middle" x="1475.12" y="-400.45" font-family="Times,serif" font-size="14.00">Mathematical Methods 1</text>
</a>
</g>
</g>
<!-- MATH0011 -->
<g id="node6" class="node">
<title>MATH0011</title>
<g id="a_node6"><a xlink:href="https://www.ucl.ac.uk/mathematical-physical-sciences/sites/mathematical_physical_sciences/files/math0011.pdf" xlink:title="Year 1, term 2">
<polygon fill="white" stroke="#cd950c" stroke-width="5" points="1571.38,-356.5 1376.88,-356.5 1376.88,-314 1571.38,-314 1571.38,-356.5"/>
<text xml:space="preserve" text-anchor="middle" x="1474.12" y="-339.2" font-family="Times,serif" font-size="14.00">MATH0011</text>
<text xml:space="preserve" text-anchor="middle" x="1474.12" y="-321.95" font-family="Times,serif" font-size="14.00">Mathematical Methods 2</text>
</a>
</g>
</g>
<!-- MATH0010&#45;&gt;MATH0011 -->
<g id="edge2" class="edge">
<title>MATH0010&#45;&gt;MATH0011</title>
<g id="a_edge2"><a xlink:title="required prerequisite">
<path fill="none" stroke="black" d="M1474.83,-390.21C1474.75,-383.89 1474.66,-376.87 1474.57,-370.04"/>
<polygon fill="black" stroke="black" points="1478.07,-370.36 1474.44,-360.41 1471.07,-370.45 1478.07,-370.36"/>
</a>
</g>
</g>
<!-- MATH0009 -->
<g id="node7" class="node">
<title>MATH0009</title>
<g id="a_node7"><a xlink:href="https://www.ucl.ac.uk/mathematical-physical-sciences/sites/mathematical_physical_sciences/files/math0009.pdf" xlink:title="Year 1, term 2">
<polygon fill="white" stroke="#cd950c" stroke-width="5" points="1762.88,-356.5 1589.38,-356.5 1589.38,-314 1762.88,-314 1762.88,-356.5"/>
<text xml:space="preserve" text-anchor="middle" x="1676.12" y="-339.2" font-family="Times,serif" font-size="14.00">MATH0009</text>
<text xml:space="preserve" text-anchor="middle" x="1676.12" y="-321.95" font-family="Times,serif" font-size="14.00">Newtonian Mechanics</text>
</a>
</g>
</g>
<!-- MATH0010&#45;&gt;MATH0009 -->
<g id="edge4" class="edge">
<title>MATH0010&#45;&gt;MATH0009</title>
<g id="a_edge4"><a xlink:title="required prerequisite">
<path fill="none" stroke="black" d="M1534.89,-390C1557.27,-381.49 1582.89,-371.74 1606.11,-362.9"/>
<polygon fill="black" stroke="black" points="1607.08,-366.27 1615.18,-359.45 1604.59,-359.73 1607.08,-366.27"/>
</a>
</g>
</g>
<!-- MATH0003 -->
<g id="node3" class="node">
<title>MATH0003</title>
<g id="a_node3"><a xlink:href="https://www.ucl.ac.uk/mathematical-physical-sciences/sites/mathematical_physical_sciences/files/2025-09/math0003.pdf" xlink:title="Year 1, term 1">
<polygon fill="white" stroke="#ffb90f" stroke-width="5" points="589.62,-435 492.62,-435 492.62,-392.5 589.62,-392.5 589.62,-435"/>
<text xml:space="preserve" text-anchor="middle" x="541.12" y="-417.7" font-family="Times,serif" font-size="14.00">MATH0003</text>
<text xml:space="preserve" text-anchor="middle" x="541.12" y="-400.45" font-family="Times,serif" font-size="14.00">Analysis 1</text>
</a>
</g>
</g>
<!-- MATH0004 -->
<g id="node8" class="node">
<title>MATH0004</title>
<g id="a_node8"><a xlink:href="https://www.ucl.ac.uk/mathematical-physical-sciences/sites/mathematical_physical_sciences/files/math0004.pdf" xlink:title="Year 1, term 2">
<polygon fill="white" stroke="#cd950c" stroke-width="5" points="551.62,-356.5 454.62,-356.5 454.62,-314 551.62,-314 551.62,-356.5"/>
<text xml:space="preserve" text-anchor="middle" x="503.12" y="-339.2" font-family="Times,serif" font-size="14.00">MATH0004</text>
<text xml:space="preserve" text-anchor="middle" x="503.12" y="-321.95" font-family="Times,serif" font-size="14.00">Analysis 2</text>
</a>
</g>
</g>
<!-- MATH0003&#45;&gt;MATH0004 -->
<g id="edge5" class="edge">
<title>MATH0003&#45;&gt;MATH0004</title>
<g id="a_edge5"><a xlink:title="required prerequisite">
<path fill="none" stroke="black" d="M529.93,-390.21C526.63,-383.58 522.96,-376.18 519.42,-369.04"/>
<polygon fill="black" stroke="black" points="522.63,-367.65 515.05,-360.25 516.36,-370.76 522.63,-367.65"/>
</a>
</g>
</g>
<!-- MATH0013 -->
<g id="node12" class="node">
<title>MATH0013</title>
<g id="a_node12"><a xlink:href="https://www.ucl.ac.uk/mathematical-physical-sciences/sites/mathematical_physical_sciences/files/2025-09/math0013_0.pdf" xlink:title="Year 2, term 1">
<polygon fill="white" stroke="#00ff00" stroke-width="5" points="694.25,-278 466,-278 466,-235.5 694.25,-235.5 694.25,-278"/>
<text xml:space="preserve" text-anchor="middle" x="580.12" y="-260.7" font-family="Times,serif" font-size="14.00">MATH0013</text>
<text xml:space="preserve" text-anchor="middle" x="580.12" y="-243.45" font-family="Times,serif" font-size="14.00">Analysis 3 &#45; Complex Analysis</text>
</a>
</g>
</g>
<!-- MATH0003&#45;&gt;MATH0013 -->
<g id="edge10" class="edge">
<title>MATH0003&#45;&gt;MATH0013</title>
<g id="a_edge10"><a xlink:title="required prerequisite">
<path fill="none" stroke="black" d="M549.45,-390.23C553.04,-380.03 557.1,-367.75 560.12,-356.5 565.88,-335.1 570.84,-310.69 574.38,-291.5"/>
<polygon fill="black" stroke="black" points="577.8,-292.24 576.13,-281.78 570.91,-291 577.8,-292.24"/>
</a>
</g>
</g>
<!-- MATH0008 -->
<g id="node4" class="node">
<title>MATH0008</title>
<g id="a_node4"><a xlink:href="https://www.ucl.ac.uk/mathematical-physical-sciences/sites/mathematical_physical_sciences/files/math0008.pdf" xlink:title="Year 1, term 1">
<polygon fill="white" stroke="#ffb90f" stroke-width="5" points="1759.88,-435 1592.38,-435 1592.38,-392.5 1759.88,-392.5 1759.88,-435"/>
<text xml:space="preserve" text-anchor="middle" x="1676.12" y="-417.7" font-family="Times,serif" font-size="14.00">MATH0008</text>
<text xml:space="preserve" text-anchor="middle" x="1676.12" y="-400.45" font-family="Times,serif" font-size="14.00">Applied Mathematics</text>
</a>
</g>
</g>
<!-- MATH0008&#45;&gt;MATH0009 -->
<g id="edge3" class="edge">
<title>MATH0008&#45;&gt;MATH0009</title>
<g id="a_edge3"><a xlink:title="required prerequisite">
<path fill="none" stroke="black" d="M1676.12,-390.21C1676.12,-383.89 1676.12,-376.87 1676.12,-370.04"/>
<polygon fill="black" stroke="black" points="1679.63,-370.41 1676.13,-360.41 1672.63,-370.41 1679.63,-370.41"/>
</a>
</g>
</g>
<!-- MATH0014 -->
<g id="node10" class="node">
<title>MATH0014</title>
<g id="a_node10"><a xlink:href="https://www.ucl.ac.uk/mathematical-physical-sciences/sites/mathematical_physical_sciences/files/2025-09/math0014_0.pdf" xlink:title="Year 2, term 1">
<polygon fill="white" stroke="#00ff00" stroke-width="5" points="448,-278 188.25,-278 188.25,-235.5 448,-235.5 448,-278"/>
<text xml:space="preserve" text-anchor="middle" x="318.12" y="-260.7" font-family="Times,serif" font-size="14.00">MATH0014</text>
<text xml:space="preserve" text-anchor="middle" x="318.12" y="-243.45" font-family="Times,serif" font-size="14.00">Algebra 3: Further Linear Algebra</text>
</a>
</g>
</g>
<!-- MATH0006&#45;&gt;MATH0014 -->
<g id="edge8" class="edge">
<title>MATH0006&#45;&gt;MATH0014</title>
<g id="a_edge8"><a xlink:title="required prerequisite">
<path fill="none" stroke="black" d="M318.12,-311.71C318.12,-305.39 318.12,-298.37 318.12,-291.54"/>
<polygon fill="black" stroke="black" points="321.63,-291.91 318.13,-281.91 314.63,-291.91 321.63,-291.91"/>
</a>
</g>
</g>
<!-- MATH0015 -->
<g id="node9" class="node">
<title>MATH0015</title>
<g id="a_node9"><a xlink:href="https://www.ucl.ac.uk/mathematical-physical-sciences/sites/mathematical_physical_sciences/files/2025-09/math0015.pdf" xlink:title="Year 2, term 1">
<polygon fill="white" stroke="#00ff00" stroke-width="5" points="1662.62,-278 1529.62,-278 1529.62,-235.5 1662.62,-235.5 1662.62,-278"/>
<text xml:space="preserve" text-anchor="middle" x="1596.12" y="-260.7" font-family="Times,serif" font-size="14.00">MATH0015</text>
<text xml:space="preserve" text-anchor="middle" x="1596.12" y="-243.45" font-family="Times,serif" font-size="14.00">Fluid Mechanics</text>
</a>
</g>
</g>
<!-- MATH0011&#45;&gt;MATH0015 -->
<g id="edge6" class="edge">
<title>MATH0011&#45;&gt;MATH0015</title>
<g id="a_edge6"><a xlink:title="required prerequisite">
<path fill="none" stroke="black" d="M1510.4,-311.5C1523.06,-303.57 1537.43,-294.55 1550.74,-286.21"/>
<polygon fill="black" stroke="black" points="1552.31,-289.36 1558.92,-281.08 1548.59,-283.43 1552.31,-289.36"/>
</a>
</g>
</g>
<!-- MATH0016 -->
<g id="node11" class="node">
<title>MATH0016</title>
<g id="a_node11"><a xlink:href="https://www.ucl.ac.uk/mathematical-physical-sciences/sites/mathematical_physical_sciences/files/2025-09/math0016_0.pdf" xlink:title="Year 2, term 1">
<polygon fill="white" stroke="#00ff00" stroke-width="5" points="1511.38,-278 1316.88,-278 1316.88,-235.5 1511.38,-235.5 1511.38,-278"/>
<text xml:space="preserve" text-anchor="middle" x="1414.12" y="-260.7" font-family="Times,serif" font-size="14.00">MATH0016</text>
<text xml:space="preserve" text-anchor="middle" x="1414.12" y="-243.45" font-family="Times,serif" font-size="14.00">Mathematical Methods 3</text>
</a>
</g>
</g>
<!-- MATH0011&#45;&gt;MATH0016 -->
<g id="edge9" class="edge">
<title>MATH0011&#45;&gt;MATH0016</title>
<g id="a_edge9"><a xlink:title="required prerequisite">
<path fill="none" stroke="black" d="M1456.45,-311.71C1450.88,-304.62 1444.63,-296.65 1438.68,-289.06"/>
<polygon fill="black" stroke="black" points="1441.74,-287.29 1432.82,-281.58 1436.23,-291.61 1441.74,-287.29"/>
</a>
</g>
</g>
<!-- MATH0020 -->
<g id="node19" class="node">
<title>MATH0020</title>
<g id="a_node19"><a xlink:href="https://www.ucl.ac.uk/mathematical-physical-sciences/sites/mathematical_physical_sciences/files/math0020.pdf" xlink:title="Year 3, term 2">
<polygon fill="white" stroke="#cd3333" stroke-width="5" points="508,-121 344.25,-121 344.25,-78.5 508,-78.5 508,-121"/>
<text xml:space="preserve" text-anchor="middle" x="426.12" y="-103.7" font-family="Times,serif" font-size="14.00">MATH0020</text>
<text xml:space="preserve" text-anchor="middle" x="426.12" y="-86.45" font-family="Times,serif" font-size="14.00">Curves and Surfaces</text>
</a>
</g>
</g>
<!-- MATH0011&#45;&gt;MATH0020 -->
<g id="edge19" class="edge">
<title>MATH0011&#45;&gt;MATH0020</title>
<g id="a_edge19"><a xlink:title="required prerequisite">
<path fill="none" stroke="black" d="M1374.61,-319.9C1232.86,-298.57 965.15,-254.99 741.12,-199.5 657.9,-178.89 564.38,-148.64 501.01,-127.07"/>
<polygon fill="black" stroke="black" points="502.35,-123.82 491.76,-123.9 500.09,-130.45 502.35,-123.82"/>
</a>
</g>
</g>
<!-- MATH0054 -->
<g id="node20" class="node">
<title>MATH0054</title>
<g id="a_node20"><a xlink:href="https://www.ucl.ac.uk/mathematical-physical-sciences/sites/mathematical_physical_sciences/files/math0054.pdf" xlink:title="Year 3, term 2">
<polygon fill="white" stroke="#cd3333" stroke-width="5" points="1820.5,-121 1659.75,-121 1659.75,-78.5 1820.5,-78.5 1820.5,-121"/>
<text xml:space="preserve" text-anchor="middle" x="1740.12" y="-103.7" font-family="Times,serif" font-size="14.00">MATH0054</text>
<text xml:space="preserve" text-anchor="middle" x="1740.12" y="-86.45" font-family="Times,serif" font-size="14.00">Analytical Dynamics</text>
</a>
</g>
</g>
<!-- MATH0011&#45;&gt;MATH0054 -->
<g id="edge20" class="edge">
<title>MATH0011&#45;&gt;MATH0054</title>
<g id="a_edge20"><a xlink:title="required prerequisite">
<path fill="none" stroke="black" d="M1573.82,-314.6C1615.1,-304.73 1656.89,-291.93 1672.12,-278 1693.82,-258.16 1718.3,-179.91 1731.15,-134.28"/>
<polygon fill="black" stroke="black" points="1734.45,-135.47 1733.75,-124.9 1727.7,-133.6 1734.45,-135.47"/>
</a>
</g>
</g>
<!-- MATH0009&#45;&gt;MATH0015 -->
<g id="edge7" class="edge">
<title>MATH0009&#45;&gt;MATH0015</title>
<g id="a_edge7"><a xlink:title="required prerequisite">
<path fill="none" stroke="black" d="M1652.56,-311.71C1644.89,-304.38 1636.26,-296.13 1628.09,-288.31"/>
<polygon fill="black" stroke="black" points="1630.54,-285.82 1620.9,-281.44 1625.71,-290.88 1630.54,-285.82"/>
</a>
</g>
</g>
<!-- MATH0009&#45;&gt;MATH0054 -->
<g id="edge21" class="edge">
<title>MATH0009&#45;&gt;MATH0054</title>
<g id="a_edge21"><a xlink:title="required prerequisite">
<path fill="none" stroke="black" d="M1692.42,-311.71C1698.86,-301.81 1705.75,-289.77 1710.12,-278 1727.9,-230.16 1735.2,-171.12 1738.17,-134.7"/>
<polygon fill="black" stroke="black" points="1741.65,-135.01 1738.9,-124.78 1734.67,-134.5 1741.65,-135.01"/>
</a>
</g>
</g>
<!-- MATH0004&#45;&gt;MATH0013 -->
<g id="edge11" class="edge">
<title>MATH0004&#45;&gt;MATH0013</title>
<g id="a_edge11"><a xlink:title="recommended prerequisite">
<path fill="none" stroke="black" stroke-dasharray="5,2" d="M525.81,-311.71C533.26,-304.31 541.67,-295.95 549.61,-288.07"/>
<polygon fill="black" stroke="black" points="551.63,-290.99 556.26,-281.46 546.7,-286.02 551.63,-290.99"/>
</a>
</g>
</g>
<!-- MATH0051 -->
<g id="node13" class="node">
<title>MATH0051</title>
<g id="a_node13"><a xlink:href="https://www.ucl.ac.uk/mathematical-physical-sciences/sites/mathematical_physical_sciences/files/math0051.pdf" xlink:title="Year 2 or 3, term 2">
<polygon fill="white" stroke="#8ee5ee" stroke-width="5" points="208.62,-199.5 111.62,-199.5 111.62,-157 208.62,-157 208.62,-199.5"/>
<text xml:space="preserve" text-anchor="middle" x="160.12" y="-182.2" font-family="Times,serif" font-size="14.00">MATH0051</text>
<text xml:space="preserve" text-anchor="middle" x="160.12" y="-164.95" font-family="Times,serif" font-size="14.00">Analysis 4</text>
</a>
</g>
</g>
<!-- MATH0004&#45;&gt;MATH0051 -->
<g id="edge12" class="edge">
<title>MATH0004&#45;&gt;MATH0051</title>
<g id="a_edge12"><a xlink:title="required prerequisite">
<path fill="none" stroke="black" d="M452.36,-326.19C362.42,-311.81 183.99,-282.78 179.12,-278 162.2,-261.38 157.89,-234.6 157.57,-213.11"/>
<polygon fill="black" stroke="black" points="161.07,-213.38 157.72,-203.33 154.07,-213.27 161.07,-213.38"/>
</a>
</g>
</g>
<!-- MATH0024 -->
<g id="node21" class="node">
<title>MATH0024</title>
<g id="a_node21"><a xlink:href="https://www.ucl.ac.uk/mathematical-physical-sciences/sites/mathematical_physical_sciences/files/math0024.pdf" xlink:title="Year 3, term 2">
<polygon fill="white" stroke="#cd3333" stroke-width="5" points="1603.62,-121 1452.62,-121 1452.62,-78.5 1603.62,-78.5 1603.62,-121"/>
<text xml:space="preserve" text-anchor="middle" x="1528.12" y="-103.7" font-family="Times,serif" font-size="14.00">MATH0024</text>
<text xml:space="preserve" text-anchor="middle" x="1528.12" y="-86.45" font-family="Times,serif" font-size="14.00">Geophysical Fluids</text>
</a>
</g>
</g>
<!-- MATH0015&#45;&gt;MATH0024 -->
<g id="edge22" class="edge">
<title>MATH0015&#45;&gt;MATH0024</title>
<g id="a_edge22"><a xlink:title="required prerequisite">
<path fill="none" stroke="black" d="M1586.24,-233.21C1574.75,-207.04 1555.71,-163.64 1542.57,-133.68"/>
<polygon fill="black" stroke="black" points="1545.86,-132.45 1538.63,-124.7 1539.45,-135.27 1545.86,-132.45"/>
</a>
</g>
</g>
<!-- MATH0077 -->
<g id="node23" class="node">
<title>MATH0077</title>
<g id="a_node23"><a xlink:href="https://www.ucl.ac.uk/mathematical-physical-sciences/sites/mathematical_physical_sciences/files/math0077.pdf" xlink:title="Year 3 or 4, term 1">
<polygon fill="white" stroke="#ff1493" stroke-width="5" points="1147.62,-121 1050.62,-121 1050.62,-78.5 1147.62,-78.5 1147.62,-121"/>
<text xml:space="preserve" text-anchor="middle" x="1099.12" y="-103.7" font-family="Times,serif" font-size="14.00">MATH0077</text>
<text xml:space="preserve" text-anchor="middle" x="1099.12" y="-86.45" font-family="Times,serif" font-size="14.00">Real Fluids</text>
</a>
</g>
</g>
<!-- MATH0015&#45;&gt;MATH0077 -->
<g id="edge25" class="edge">
<title>MATH0015&#45;&gt;MATH0077</title>
<g id="a_edge25"><a xlink:title="required prerequisite">
<path fill="none" stroke="black" d="M1564.24,-233.11C1530.06,-210.04 1473.35,-175.13 1419.12,-157 1311.14,-120.89 1273.74,-146.77 1161.03,-121.7"/>
<polygon fill="black" stroke="black" points="1161.88,-118.31 1151.35,-119.45 1160.3,-125.13 1161.88,-118.31"/>
</a>
</g>
</g>
<!-- MATH0115 -->
<g id="node25" class="node">
<title>MATH0115</title>
<g id="a_node25"><a xlink:href="https://www.ucl.ac.uk/mathematical-physical-sciences/sites/mathematical_physical_sciences/files/math0115_0.pdf" xlink:title="Year 3 or 4, term 2">
<polygon fill="white" stroke="#cd1076" stroke-width="5" points="1385.25,-42.5 1253,-42.5 1253,0 1385.25,0 1385.25,-42.5"/>
<text xml:space="preserve" text-anchor="middle" x="1319.12" y="-25.2" font-family="Times,serif" font-size="14.00">MATH0115</text>
<text xml:space="preserve" text-anchor="middle" x="1319.12" y="-7.95" font-family="Times,serif" font-size="14.00">Solid Mechanics</text>
</a>
</g>
</g>
<!-- MATH0015&#45;&gt;MATH0115 -->
<g id="edge30" class="edge">
<title>MATH0015&#45;&gt;MATH0115</title>
<g id="a_edge30"><a xlink:title="required prerequisite">
<path fill="none" stroke="black" d="M1607.59,-233.07C1624.49,-196.05 1650.32,-122.35 1613.12,-78.5 1583.28,-43.33 1459.47,-51.59 1398.4,-42.72"/>
<polygon fill="black" stroke="black" points="1399.36,-39.34 1388.9,-41.04 1398.14,-46.23 1399.36,-39.34"/>
</a>
</g>
</g>
<!-- MATH0118 -->
<g id="node24" class="node">
<title>MATH0118</title>
<g id="a_node24"><a xlink:href="https://www.ucl.ac.uk/mathematical-physical-sciences/sites/mathematical_physical_sciences/files/math0118.pdf" xlink:title="Year 3 or 4, term 1">
<polygon fill="white" stroke="#ff1493" stroke-width="5" points="810.38,-121 525.88,-121 525.88,-78.5 810.38,-78.5 810.38,-121"/>
<text xml:space="preserve" text-anchor="middle" x="668.12" y="-103.7" font-family="Times,serif" font-size="14.00">MATH0118</text>
<text xml:space="preserve" text-anchor="middle" x="668.12" y="-86.45" font-family="Times,serif" font-size="14.00">Mathematics for Quantum Mechanics</text>
</a>
</g>
</g>
<!-- MATH0014&#45;&gt;MATH0118 -->
<g id="edge29" class="edge">
<title>MATH0014&#45;&gt;MATH0118</title>
<g id="a_edge29"><a xlink:title="required prerequisite">
<path fill="none" stroke="black" d="M369.39,-233.05C432.38,-205.15 539.17,-157.86 606.54,-128.02"/>
<polygon fill="black" stroke="black" points="607.89,-131.25 615.62,-124 605.06,-124.85 607.89,-131.25"/>
</a>
</g>
</g>
<!-- MATH0056 -->
<g id="node14" class="node">
<title>MATH0056</title>
<g id="a_node14"><a xlink:href="https://www.ucl.ac.uk/mathematical-physical-sciences/sites/mathematical_physical_sciences/files/math0056.pdf" xlink:title="Year 2 or 3, term 2">
<polygon fill="white" stroke="#8ee5ee" stroke-width="5" points="944.38,-199.5 749.88,-199.5 749.88,-157 944.38,-157 944.38,-199.5"/>
<text xml:space="preserve" text-anchor="middle" x="847.12" y="-182.2" font-family="Times,serif" font-size="14.00">MATH0056</text>
<text xml:space="preserve" text-anchor="middle" x="847.12" y="-164.95" font-family="Times,serif" font-size="14.00">Mathematical Methods 4</text>
</a>
</g>
</g>
<!-- MATH0016&#45;&gt;MATH0056 -->
<g id="edge14" class="edge">
<title>MATH0016&#45;&gt;MATH0056</title>
<g id="a_edge14"><a xlink:title="required prerequisite">
<path fill="none" stroke="black" d="M1314.49,-245.55C1223.59,-235.8 1085.3,-219.83 957.8,-200.2"/>
<polygon fill="black" stroke="black" points="958.59,-196.78 948.17,-198.7 957.52,-203.7 958.59,-196.78"/>
</a>
</g>
</g>
<!-- MATH0055 -->
<g id="node15" class="node">
<title>MATH0055</title>
<g id="a_node15"><a xlink:href="https://www.ucl.ac.uk/mathematical-physical-sciences/sites/mathematical_physical_sciences/files/math0055_3.pdf" xlink:title="Year 2 or 3, term 2">
<polygon fill="white" stroke="#8ee5ee" stroke-width="5" points="1385.75,-199.5 962.5,-199.5 962.5,-157 1385.75,-157 1385.75,-199.5"/>
<text xml:space="preserve" text-anchor="middle" x="1174.12" y="-182.2" font-family="Times,serif" font-size="14.00">MATH0055</text>
<text xml:space="preserve" text-anchor="middle" x="1174.12" y="-164.95" font-family="Times,serif" font-size="14.00">Mathematics of Electromagnetism and Special Relativity</text>
</a>
</g>
</g>
<!-- MATH0016&#45;&gt;MATH0055 -->
<g id="edge15" class="edge">
<title>MATH0016&#45;&gt;MATH0055</title>
<g id="a_edge15"><a xlink:title="required prerequisite">
<path fill="none" stroke="black" d="M1342.77,-233C1315.44,-224.3 1284.07,-214.3 1255.85,-205.3"/>
<polygon fill="black" stroke="black" points="1257.24,-202.07 1246.65,-202.37 1255.11,-208.74 1257.24,-202.07"/>
</a>
</g>
</g>
<!-- MATH0025 -->
<g id="node17" class="node">
<title>MATH0025</title>
<g id="a_node17"><a xlink:href="https://www.ucl.ac.uk/mathematical-physical-sciences/sites/mathematical_physical_sciences/files/math0025.pdf" xlink:title="Year 3, term 1">
<polygon fill="white" stroke="#ff4040" stroke-width="5" points="1434.12,-121 1166.12,-121 1166.12,-78.5 1434.12,-78.5 1434.12,-121"/>
<text xml:space="preserve" text-anchor="middle" x="1300.12" y="-103.7" font-family="Times,serif" font-size="14.00">MATH0025</text>
<text xml:space="preserve" text-anchor="middle" x="1300.12" y="-86.45" font-family="Times,serif" font-size="14.00">Mathematics for General Relativity</text>
</a>
</g>
</g>
<!-- MATH0016&#45;&gt;MATH0025 -->
<g id="edge17" class="edge">
<title>MATH0016&#45;&gt;MATH0025</title>
<g id="a_edge17"><a xlink:title="required prerequisite">
<path fill="none" stroke="black" d="M1425.45,-233.08C1434.35,-211.75 1442.99,-179.76 1428.12,-157 1420.59,-145.45 1410.09,-136.26 1398.32,-128.95"/>
<polygon fill="black" stroke="black" points="1400.38,-126.09 1389.96,-124.22 1396.94,-132.19 1400.38,-126.09"/>
</a>
</g>
</g>
<!-- MATH0016&#45;&gt;MATH0024 -->
<g id="edge23" class="edge">
<title>MATH0016&#45;&gt;MATH0024</title>
<g id="a_edge23"><a xlink:title="required prerequisite">
<path fill="none" stroke="black" d="M1430.7,-233.21C1450.2,-206.69 1482.72,-162.49 1504.77,-132.51"/>
<polygon fill="black" stroke="black" points="1507.53,-134.66 1510.63,-124.53 1501.89,-130.52 1507.53,-134.66"/>
</a>
</g>
</g>
<!-- MATH0016&#45;&gt;MATH0077 -->
<g id="edge26" class="edge">
<title>MATH0016&#45;&gt;MATH0077</title>
<g id="a_edge26"><a xlink:title="required prerequisite">
<path fill="none" stroke="black" d="M1416.59,-233.09C1417.68,-210.51 1415.39,-176.47 1395.12,-157 1358.81,-122.11 1225.96,-132.41 1161.16,-121.39"/>
<polygon fill="black" stroke="black" points="1161.87,-117.97 1151.37,-119.38 1160.46,-124.82 1161.87,-117.97"/>
</a>
</g>
</g>
<!-- MATH0013&#45;&gt;MATH0056 -->
<g id="edge13" class="edge">
<title>MATH0013&#45;&gt;MATH0056</title>
<g id="a_edge13"><a xlink:title="required prerequisite">
<path fill="none" stroke="black" d="M659.51,-233C690.17,-224.22 725.42,-214.12 757.03,-205.06"/>
<polygon fill="black" stroke="black" points="757.94,-208.44 766.59,-202.32 756.01,-201.71 757.94,-208.44"/>
</a>
</g>
</g>
<!-- MATH0019 -->
<g id="node16" class="node">
<title>MATH0019</title>
<g id="a_node16"><a xlink:href="https://www.ucl.ac.uk/mathematical-physical-sciences/sites/mathematical_physical_sciences/files/math0019.pdf" xlink:title="Year 3, term 1">
<polygon fill="white" stroke="#ff4040" stroke-width="5" points="326,-121 150.25,-121 150.25,-78.5 326,-78.5 326,-121"/>
<text xml:space="preserve" text-anchor="middle" x="238.12" y="-103.7" font-family="Times,serif" font-size="14.00">MATH0019</text>
<text xml:space="preserve" text-anchor="middle" x="238.12" y="-86.45" font-family="Times,serif" font-size="14.00">Multivariable Analysis</text>
</a>
</g>
</g>
<!-- MATH0051&#45;&gt;MATH0019 -->
<g id="edge16" class="edge">
<title>MATH0051&#45;&gt;MATH0019</title>
<g id="a_edge16"><a xlink:title="required prerequisite">
<path fill="none" stroke="black" d="M183.11,-154.71C190.58,-147.38 199,-139.13 206.96,-131.31"/>
<polygon fill="black" stroke="black" points="209.27,-133.95 213.96,-124.45 204.37,-128.96 209.27,-133.95"/>
</a>
</g>
</g>
<!-- MATH0017 -->
<g id="node18" class="node">
<title>MATH0017</title>
<g id="a_node18"><a xlink:href="https://www.ucl.ac.uk/mathematical-physical-sciences/sites/mathematical_physical_sciences/files/math0017.pdf" xlink:title="Year 3, term 1">
<polygon fill="white" stroke="#ff4040" stroke-width="5" points="132.25,-121 0,-121 0,-78.5 132.25,-78.5 132.25,-121"/>
<text xml:space="preserve" text-anchor="middle" x="66.12" y="-103.7" font-family="Times,serif" font-size="14.00">MATH0017</text>
<text xml:space="preserve" text-anchor="middle" x="66.12" y="-86.45" font-family="Times,serif" font-size="14.00">Measure Theory</text>
</a>
</g>
</g>
<!-- MATH0051&#45;&gt;MATH0017 -->
<g id="edge18" class="edge">
<title>MATH0051&#45;&gt;MATH0017</title>
<g id="a_edge18"><a xlink:title="required prerequisite">
<path fill="none" stroke="black" d="M132.18,-154.5C122.9,-146.95 112.42,-138.43 102.59,-130.43"/>
<polygon fill="black" stroke="black" points="104.94,-127.83 94.98,-124.23 100.52,-133.26 104.94,-127.83"/>
</a>
</g>
</g>
<!-- MATH0027 -->
<g id="node22" class="node">
<title>MATH0027</title>
<g id="a_node22"><a xlink:href="https://www.ucl.ac.uk/mathematical-physical-sciences/sites/mathematical_physical_sciences/files/math0027.pdf" xlink:title="Year 3, term 2">
<polygon fill="white" stroke="#cd3333" stroke-width="5" points="963.62,-121 866.62,-121 866.62,-78.5 963.62,-78.5 963.62,-121"/>
<text xml:space="preserve" text-anchor="middle" x="915.12" y="-103.7" font-family="Times,serif" font-size="14.00">MATH0027</text>
<text xml:space="preserve" text-anchor="middle" x="915.12" y="-86.45" font-family="Times,serif" font-size="14.00">Methods 5</text>
</a>
</g>
</g>
<!-- MATH0056&#45;&gt;MATH0027 -->
<g id="edge24" class="edge">
<title>MATH0056&#45;&gt;MATH0027</title>
<g id="a_edge24"><a xlink:title="required prerequisite">
<path fill="none" stroke="black" d="M867.16,-154.71C873.6,-147.46 880.86,-139.3 887.74,-131.56"/>
<polygon fill="black" stroke="black" points="889.97,-134.32 893.99,-124.52 884.73,-129.67 889.97,-134.32"/>
</a>
</g>
</g>
<!-- MATH0056&#45;&gt;MATH0077 -->
<g id="edge27" class="edge">
<title>MATH0056&#45;&gt;MATH0077</title>
<g id="a_edge27"><a xlink:title="required prerequisite">
<path fill="none" stroke="black" d="M922.05,-154.5C958.84,-143.34 1002.62,-130.05 1037.44,-119.48"/>
<polygon fill="black" stroke="black" points="1038.41,-122.84 1046.96,-116.58 1036.38,-116.14 1038.41,-122.84"/>
</a>
</g>
</g>
<!-- MATH0056&#45;&gt;MATH0118 -->
<g id="edge28" class="edge">
<title>MATH0056&#45;&gt;MATH0118</title>
<g id="a_edge28"><a xlink:title="required prerequisite">
<path fill="none" stroke="black" d="M793.9,-154.5C774.33,-146.14 751.98,-136.59 731.6,-127.88"/>
<polygon fill="black" stroke="black" points="733.1,-124.71 722.53,-124 730.35,-131.15 733.1,-124.71"/>
</a>
</g>
</g>
<!-- MATH0056&#45;&gt;MATH0115 -->
<g id="edge31" class="edge">
<title>MATH0056&#45;&gt;MATH0115</title>
<g id="a_edge31"><a xlink:title="required prerequisite">
<path fill="none" stroke="black" d="M902.14,-154.57C924.49,-144.87 950.35,-133.03 973.12,-121 1004.97,-104.18 1008.47,-91.33 1042.12,-78.5 1123.92,-47.32 1152.81,-61.17 1239.38,-43.42"/>
<polygon fill="black" stroke="black" points="1240,-46.87 1249.04,-41.35 1238.53,-40.02 1240,-46.87"/>
</a>
</g>
</g>
<!-- MATH0080 -->
<g id="node27" class="node">
<title>MATH0080</title>
<g id="a_node27"><a xlink:href="https://www.ucl.ac.uk/mathematical-physical-sciences/sites/mathematical_physical_sciences/files/math0080.pdf" xlink:title="Year 3 or 4, term 2">
<polygon fill="white" stroke="#cd1076" stroke-width="5" points="944.75,-42.5 731.5,-42.5 731.5,0 944.75,0 944.75,-42.5"/>
<text xml:space="preserve" text-anchor="middle" x="838.12" y="-25.2" font-family="Times,serif" font-size="14.00">MATH0080</text>
<text xml:space="preserve" text-anchor="middle" x="838.12" y="-7.95" font-family="Times,serif" font-size="14.00">Waves and Wave Scattering</text>
</a>
</g>
</g>
<!-- MATH0056&#45;&gt;MATH0080 -->
<g id="edge35" class="edge">
<title>MATH0056&#45;&gt;MATH0080</title>
<g id="a_edge35"><a xlink:title="required prerequisite">
<path fill="none" stroke="black" d="M845.82,-154.71C844.31,-128.77 841.82,-85.9 840.08,-55.98"/>
<polygon fill="black" stroke="black" points="843.6,-56.11 839.52,-46.33 836.61,-56.51 843.6,-56.11"/>
</a>
</g>
</g>
<!-- MATH0119 -->
<g id="node26" class="node">
<title>MATH0119</title>
<g id="a_node26"><a xlink:href="https://www.ucl.ac.uk/mathematical-physical-sciences/sites/mathematical_physical_sciences/files/math0119.pdf" xlink:title="Year 3 or 4, term 2">
<polygon fill="white" stroke="#cd1076" stroke-width="5" points="316.25,-42.5 160,-42.5 160,0 316.25,0 316.25,-42.5"/>
<text xml:space="preserve" text-anchor="middle" x="238.12" y="-25.2" font-family="Times,serif" font-size="14.00">MATH0119</text>
<text xml:space="preserve" text-anchor="middle" x="238.12" y="-7.95" font-family="Times,serif" font-size="14.00">Dynamical Systems</text>
</a>
</g>
</g>
<!-- MATH0019&#45;&gt;MATH0119 -->
<g id="edge33" class="edge">
<title>MATH0019&#45;&gt;MATH0119</title>
<g id="a_edge33"><a xlink:title="recommended prerequisite">
<path fill="none" stroke="black" stroke-dasharray="5,2" d="M238.12,-76.21C238.12,-69.89 238.12,-62.87 238.12,-56.04"/>
<polygon fill="black" stroke="black" points="241.63,-56.41 238.13,-46.41 234.63,-56.41 241.63,-56.41"/>
</a>
</g>
</g>
<!-- MATH0079 -->
<g id="node28" class="node">
<title>MATH0079</title>
<g id="a_node28"><a xlink:href="https://www.ucl.ac.uk/mathematical-physical-sciences/sites/mathematical_physical_sciences/files/math0079.pdf" xlink:title="Year 4, term 2">
<polygon fill="white" stroke="#1874cd" stroke-width="5" points="1500.62,-42.5 1403.62,-42.5 1403.62,0 1500.62,0 1500.62,-42.5"/>
<text xml:space="preserve" text-anchor="middle" x="1452.12" y="-25.2" font-family="Times,serif" font-size="14.00">MATH0079</text>
<text xml:space="preserve" text-anchor="middle" x="1452.12" y="-7.95" font-family="Times,serif" font-size="14.00">Cosmology</text>
</a>
</g>
</g>
<!-- MATH0025&#45;&gt;MATH0079 -->
<g id="edge36" class="edge">
<title>MATH0025&#45;&gt;MATH0079</title>
<g id="a_edge36"><a xlink:title="required prerequisite">
<path fill="none" stroke="black" d="M1345.32,-76C1361.63,-67.79 1380.22,-58.44 1397.27,-49.86"/>
<polygon fill="black" stroke="black" points="1398.39,-53.21 1405.75,-45.59 1395.25,-46.96 1398.39,-53.21"/>
</a>
</g>
</g>
<!-- MATH0017&#45;&gt;MATH0119 -->
<g id="edge32" class="edge">
<title>MATH0017&#45;&gt;MATH0119</title>
<g id="a_edge32"><a xlink:title="required prerequisite">
<path fill="none" stroke="black" d="M117.26,-76C135.98,-67.68 157.35,-58.17 176.87,-49.5"/>
<polygon fill="black" stroke="black" points="178.08,-52.78 185.8,-45.52 175.24,-46.39 178.08,-52.78"/>
</a>
</g>
</g>
<!-- MATH0020&#45;&gt;MATH0119 -->
<g id="edge34" class="edge">
<title>MATH0020&#45;&gt;MATH0119</title>
<g id="a_edge34"><a xlink:title="recommended prerequisite">
<path fill="none" stroke="black" stroke-dasharray="5,2" d="M370.23,-76C349.49,-67.56 325.76,-57.91 304.2,-49.14"/>
<polygon fill="black" stroke="black" points="305.79,-46.01 295.21,-45.48 303.15,-52.49 305.79,-46.01"/>
</a>
</g>
</g>
<!-- MATH0078 -->
<g id="node29" class="node">
<title>MATH0078</title>
<g id="a_node29"><a xlink:href="https://www.ucl.ac.uk/mathematical-physical-sciences/sites/mathematical_physical_sciences/files/math0078.pdf" xlink:title="Year 4, term 2">
<polygon fill="white" stroke="#1874cd" stroke-width="5" points="1235.38,-42.5 962.88,-42.5 962.88,0 1235.38,0 1235.38,-42.5"/>
<text xml:space="preserve" text-anchor="middle" x="1099.12" y="-25.2" font-family="Times,serif" font-size="14.00">MATH0078</text>
<text xml:space="preserve" text-anchor="middle" x="1099.12" y="-7.95" font-family="Times,serif" font-size="14.00">Asymptotic Approximation Methods</text>
</a>
</g>
</g>
<!-- MATH0077&#45;&gt;MATH0078 -->
<g id="edge37" class="edge">
<title>MATH0077&#45;&gt;MATH0078</title>
<g id="a_edge37"><a xlink:title="required prerequisite">
<path fill="none" stroke="black" d="M1099.12,-76.21C1099.12,-69.89 1099.12,-62.87 1099.12,-56.04"/>
<polygon fill="black" stroke="black" points="1102.63,-56.41 1099.13,-46.41 1095.63,-56.41 1102.63,-56.41"/>
</a>
</g>
</g>
</g>
</svg>
