<?xml version="1.0" encoding="UTF-8" standalone="no"?>
<!DOCTYPE svg PUBLIC "-//W3C//DTD SVG 1.1//EN"
 "http://www.w3.org/Graphics/SVG/1.1/DTD/svg11.dtd">
<!-- Generated by graphviz version 13.1.2 (0)
 -->
<!-- Pages: 1 -->
<svg width="1961pt" height="443pt"
 viewBox="0.00 0.00 1961.00 443.00" xmlns="http://www.w3.org/2000/svg" xmlns:xlink="http://www.w3.org/1999/xlink">
<g id="graph0" class="graph" transform="scale(1 1) rotate(0) translate(4 439)">
<polygon fill="white" stroke="none" points="-4,4 -4,-439 1956.5,-439 1956.5,4 -4,4"/>
<!-- MATH0003 -->
<g id="node1" class="node">
<title>MATH0003</title>
<g id="a_node1"><a xlink:href="https://www.ucl.ac.uk/mathematical-physical-sciences/sites/mathematical_physical_sciences/files/math0003.pdf" xlink:title="Year 1, term 1">
<polygon fill="white" stroke="#ffb90f" stroke-width="5" points="539.62,-435 442.62,-435 442.62,-392.5 539.62,-392.5 539.62,-435"/>
<text xml:space="preserve" text-anchor="middle" x="491.12" y="-417.7" font-family="Times,serif" font-size="14.00">MATH0003</text>
<text xml:space="preserve" text-anchor="middle" x="491.12" y="-400.45" font-family="Times,serif" font-size="14.00">Analysis 1</text>
</a>
</g>
</g>
<!-- MATH0004 -->
<g id="node7" class="node">
<title>MATH0004</title>
<g id="a_node7"><a xlink:href="https://www.ucl.ac.uk/mathematical-physical-sciences/sites/mathematical_physical_sciences/files/math0004.pdf" xlink:title="Year 1, term 2">
<polygon fill="white" stroke="#cd950c" stroke-width="5" points="501.62,-356.5 404.62,-356.5 404.62,-314 501.62,-314 501.62,-356.5"/>
<text xml:space="preserve" text-anchor="middle" x="453.12" y="-339.2" font-family="Times,serif" font-size="14.00">MATH0004</text>
<text xml:space="preserve" text-anchor="middle" x="453.12" y="-321.95" font-family="Times,serif" font-size="14.00">Analysis 2</text>
</a>
</g>
</g>
<!-- MATH0003&#45;&gt;MATH0004 -->
<g id="edge3" class="edge">
<title>MATH0003&#45;&gt;MATH0004</title>
<g id="a_edge3"><a xlink:title="required prerequisite">
<path fill="none" stroke="black" d="M479.93,-390.21C476.63,-383.58 472.96,-376.18 469.42,-369.04"/>
<polygon fill="black" stroke="black" points="472.63,-367.65 465.05,-360.25 466.36,-370.76 472.63,-367.65"/>
</a>
</g>
</g>
<!-- MATH0013 -->
<g id="node9" class="node">
<title>MATH0013</title>
<g id="a_node9"><a xlink:href="https://www.ucl.ac.uk/mathematical-physical-sciences/sites/mathematical_physical_sciences/files/math0013.pdf" xlink:title="Year 2, term 1">
<polygon fill="white" stroke="#00ff00" stroke-width="5" points="644.25,-278 416,-278 416,-235.5 644.25,-235.5 644.25,-278"/>
<text xml:space="preserve" text-anchor="middle" x="530.12" y="-260.7" font-family="Times,serif" font-size="14.00">MATH0013</text>
<text xml:space="preserve" text-anchor="middle" x="530.12" y="-243.45" font-family="Times,serif" font-size="14.00">Analysis 3 &#45; Complex Analysis</text>
</a>
</g>
</g>
<!-- MATH0003&#45;&gt;MATH0013 -->
<g id="edge6" class="edge">
<title>MATH0003&#45;&gt;MATH0013</title>
<g id="a_edge6"><a xlink:title="required prerequisite">
<path fill="none" stroke="black" d="M500.1,-390.01C503.87,-379.87 508.08,-367.7 511.12,-356.5 516.94,-335.16 521.65,-310.75 524.93,-291.54"/>
<polygon fill="black" stroke="black" points="528.36,-292.26 526.53,-281.82 521.45,-291.12 528.36,-292.26"/>
</a>
</g>
</g>
<!-- MATH0010 -->
<g id="node2" class="node">
<title>MATH0010</title>
<g id="a_node2"><a xlink:href="https://www.ucl.ac.uk/mathematical-physical-sciences/sites/mathematical_physical_sciences/files/math0010.pdf" xlink:title="Year 1, term 1">
<polygon fill="white" stroke="#ffb90f" stroke-width="5" points="1561.38,-435 1366.88,-435 1366.88,-392.5 1561.38,-392.5 1561.38,-435"/>
<text xml:space="preserve" text-anchor="middle" x="1464.12" y="-417.7" font-family="Times,serif" font-size="14.00">MATH0010</text>
<text xml:space="preserve" text-anchor="middle" x="1464.12" y="-400.45" font-family="Times,serif" font-size="14.00">Mathematical Methods 1</text>
</a>
</g>
</g>
<!-- MATH0011 -->
<g id="node5" class="node">
<title>MATH0011</title>
<g id="a_node5"><a xlink:href="https://www.ucl.ac.uk/mathematical-physical-sciences/sites/mathematical_physical_sciences/files/math0011_2.pdf" xlink:title="Year 1, term 2">
<polygon fill="white" stroke="#cd950c" stroke-width="5" points="1560.38,-356.5 1365.88,-356.5 1365.88,-314 1560.38,-314 1560.38,-356.5"/>
<text xml:space="preserve" text-anchor="middle" x="1463.12" y="-339.2" font-family="Times,serif" font-size="14.00">MATH0011</text>
<text xml:space="preserve" text-anchor="middle" x="1463.12" y="-321.95" font-family="Times,serif" font-size="14.00">Mathematical Methods 2</text>
</a>
</g>
</g>
<!-- MATH0010&#45;&gt;MATH0011 -->
<g id="edge1" class="edge">
<title>MATH0010&#45;&gt;MATH0011</title>
<g id="a_edge1"><a xlink:title="required prerequisite">
<path fill="none" stroke="black" d="M1463.83,-390.21C1463.75,-383.89 1463.66,-376.87 1463.57,-370.04"/>
<polygon fill="black" stroke="black" points="1467.07,-370.36 1463.44,-360.41 1460.07,-370.45 1467.07,-370.36"/>
</a>
</g>
</g>
<!-- MATH0009 -->
<g id="node8" class="node">
<title>MATH0009</title>
<g id="a_node8"><a xlink:href="https://www.ucl.ac.uk/mathematical-physical-sciences/sites/mathematical_physical_sciences/files/math0009.pdf" xlink:title="Year 1, term 2">
<polygon fill="white" stroke="#cd950c" stroke-width="5" points="1751.88,-356.5 1578.38,-356.5 1578.38,-314 1751.88,-314 1751.88,-356.5"/>
<text xml:space="preserve" text-anchor="middle" x="1665.12" y="-339.2" font-family="Times,serif" font-size="14.00">MATH0009</text>
<text xml:space="preserve" text-anchor="middle" x="1665.12" y="-321.95" font-family="Times,serif" font-size="14.00">Newtonian Mechanics</text>
</a>
</g>
</g>
<!-- MATH0010&#45;&gt;MATH0009 -->
<g id="edge5" class="edge">
<title>MATH0010&#45;&gt;MATH0009</title>
<g id="a_edge5"><a xlink:title="required prerequisite">
<path fill="none" stroke="black" d="M1523.89,-390C1546.27,-381.49 1571.89,-371.74 1595.11,-362.9"/>
<polygon fill="black" stroke="black" points="1596.08,-366.27 1604.18,-359.45 1593.59,-359.73 1596.08,-366.27"/>
</a>
</g>
</g>
<!-- MATH0005 -->
<g id="node3" class="node">
<title>MATH0005</title>
<g id="a_node3"><a xlink:href="https://www.ucl.ac.uk/mathematical-physical-sciences/sites/mathematical_physical_sciences/files/math0005.pdf" xlink:title="Year 1, term 1">
<polygon fill="white" stroke="#ffb90f" stroke-width="5" points="316.62,-435 219.62,-435 219.62,-392.5 316.62,-392.5 316.62,-435"/>
<text xml:space="preserve" text-anchor="middle" x="268.12" y="-417.7" font-family="Times,serif" font-size="14.00">MATH0005</text>
<text xml:space="preserve" text-anchor="middle" x="268.12" y="-400.45" font-family="Times,serif" font-size="14.00">Algebra 1</text>
</a>
</g>
</g>
<!-- MATH0006 -->
<g id="node6" class="node">
<title>MATH0006</title>
<g id="a_node6"><a xlink:href="https://www.ucl.ac.uk/mathematical-physical-sciences/sites/mathematical_physical_sciences/files/math0006.pdf" xlink:title="Year 1, term 2">
<polygon fill="white" stroke="#cd950c" stroke-width="5" points="316.62,-356.5 219.62,-356.5 219.62,-314 316.62,-314 316.62,-356.5"/>
<text xml:space="preserve" text-anchor="middle" x="268.12" y="-339.2" font-family="Times,serif" font-size="14.00">MATH0006</text>
<text xml:space="preserve" text-anchor="middle" x="268.12" y="-321.95" font-family="Times,serif" font-size="14.00">Algebra 2</text>
</a>
</g>
</g>
<!-- MATH0005&#45;&gt;MATH0006 -->
<g id="edge2" class="edge">
<title>MATH0005&#45;&gt;MATH0006</title>
<g id="a_edge2"><a xlink:title="required prerequisite">
<path fill="none" stroke="black" d="M268.12,-390.21C268.12,-383.89 268.12,-376.87 268.12,-370.04"/>
<polygon fill="black" stroke="black" points="271.63,-370.41 268.13,-360.41 264.63,-370.41 271.63,-370.41"/>
</a>
</g>
</g>
<!-- MATH0008 -->
<g id="node4" class="node">
<title>MATH0008</title>
<g id="a_node4"><a xlink:href="https://www.ucl.ac.uk/mathematical-physical-sciences/sites/mathematical_physical_sciences/files/math0008.pdf" xlink:title="Year 1, term 1">
<polygon fill="white" stroke="#ffb90f" stroke-width="5" points="1748.88,-435 1581.38,-435 1581.38,-392.5 1748.88,-392.5 1748.88,-435"/>
<text xml:space="preserve" text-anchor="middle" x="1665.12" y="-417.7" font-family="Times,serif" font-size="14.00">MATH0008</text>
<text xml:space="preserve" text-anchor="middle" x="1665.12" y="-400.45" font-family="Times,serif" font-size="14.00">Applied Mathematics</text>
</a>
</g>
</g>
<!-- MATH0008&#45;&gt;MATH0009 -->
<g id="edge4" class="edge">
<title>MATH0008&#45;&gt;MATH0009</title>
<g id="a_edge4"><a xlink:title="required prerequisite">
<path fill="none" stroke="black" d="M1665.12,-390.21C1665.12,-383.89 1665.12,-376.87 1665.12,-370.04"/>
<polygon fill="black" stroke="black" points="1668.63,-370.41 1665.13,-360.41 1661.63,-370.41 1668.63,-370.41"/>
</a>
</g>
</g>
<!-- MATH0016 -->
<g id="node11" class="node">
<title>MATH0016</title>
<g id="a_node11"><a xlink:href="https://www.ucl.ac.uk/mathematical-physical-sciences/sites/mathematical_physical_sciences/files/math0016.pdf" xlink:title="Year 2, term 1">
<polygon fill="white" stroke="#00ff00" stroke-width="5" points="1476.38,-278 1281.88,-278 1281.88,-235.5 1476.38,-235.5 1476.38,-278"/>
<text xml:space="preserve" text-anchor="middle" x="1379.12" y="-260.7" font-family="Times,serif" font-size="14.00">MATH0016</text>
<text xml:space="preserve" text-anchor="middle" x="1379.12" y="-243.45" font-family="Times,serif" font-size="14.00">Mathematical Methods 3</text>
</a>
</g>
</g>
<!-- MATH0011&#45;&gt;MATH0016 -->
<g id="edge9" class="edge">
<title>MATH0011&#45;&gt;MATH0016</title>
<g id="a_edge9"><a xlink:title="required prerequisite">
<path fill="none" stroke="black" d="M1438.38,-311.71C1430.25,-304.31 1421.07,-295.95 1412.41,-288.07"/>
<polygon fill="black" stroke="black" points="1414.86,-285.56 1405.11,-281.41 1410.14,-290.73 1414.86,-285.56"/>
</a>
</g>
</g>
<!-- MATH0015 -->
<g id="node12" class="node">
<title>MATH0015</title>
<g id="a_node12"><a xlink:href="https://www.ucl.ac.uk/mathematical-physical-sciences/sites/mathematical_physical_sciences/files/math0015.pdf" xlink:title="Year 2, term 1">
<polygon fill="white" stroke="#00ff00" stroke-width="5" points="1679.62,-278 1546.62,-278 1546.62,-235.5 1679.62,-235.5 1679.62,-278"/>
<text xml:space="preserve" text-anchor="middle" x="1613.12" y="-260.7" font-family="Times,serif" font-size="14.00">MATH0015</text>
<text xml:space="preserve" text-anchor="middle" x="1613.12" y="-243.45" font-family="Times,serif" font-size="14.00">Fluid Mechanics</text>
</a>
</g>
</g>
<!-- MATH0011&#45;&gt;MATH0015 -->
<g id="edge10" class="edge">
<title>MATH0011&#45;&gt;MATH0015</title>
<g id="a_edge10"><a xlink:title="required prerequisite">
<path fill="none" stroke="black" d="M1507.72,-311.5C1523.67,-303.37 1541.83,-294.11 1558.52,-285.6"/>
<polygon fill="black" stroke="black" points="1560.03,-288.76 1567.35,-281.1 1556.85,-282.52 1560.03,-288.76"/>
</a>
</g>
</g>
<!-- MATH0020 -->
<g id="node19" class="node">
<title>MATH0020</title>
<g id="a_node19"><a xlink:href="https://www.ucl.ac.uk/mathematical-physical-sciences/sites/mathematical_physical_sciences/files/math0020.pdf" xlink:title="Year 3, term 2">
<polygon fill="white" stroke="#cd3333" stroke-width="5" points="508,-121 344.25,-121 344.25,-78.5 508,-78.5 508,-121"/>
<text xml:space="preserve" text-anchor="middle" x="426.12" y="-103.7" font-family="Times,serif" font-size="14.00">MATH0020</text>
<text xml:space="preserve" text-anchor="middle" x="426.12" y="-86.45" font-family="Times,serif" font-size="14.00">Curves and Surfaces</text>
</a>
</g>
</g>
<!-- MATH0011&#45;&gt;MATH0020 -->
<g id="edge19" class="edge">
<title>MATH0011&#45;&gt;MATH0020</title>
<g id="a_edge19"><a xlink:title="required prerequisite">
<path fill="none" stroke="black" d="M1363.42,-317.63C1228.41,-294.48 980.29,-249.7 771.12,-199.5 680.99,-177.87 579.08,-148.02 509.54,-126.82"/>
<polygon fill="black" stroke="black" points="510.7,-123.51 500.11,-123.94 508.65,-130.21 510.7,-123.51"/>
</a>
</g>
</g>
<!-- MATH0054 -->
<g id="node20" class="node">
<title>MATH0054</title>
<g id="a_node20"><a xlink:href="https://www.ucl.ac.uk/mathematical-physical-sciences/sites/mathematical_physical_sciences/files/math0054.pdf" xlink:title="Year 3, term 2">
<polygon fill="white" stroke="#cd3333" stroke-width="5" points="1952.5,-121 1791.75,-121 1791.75,-78.5 1952.5,-78.5 1952.5,-121"/>
<text xml:space="preserve" text-anchor="middle" x="1872.12" y="-103.7" font-family="Times,serif" font-size="14.00">MATH0054</text>
<text xml:space="preserve" text-anchor="middle" x="1872.12" y="-86.45" font-family="Times,serif" font-size="14.00">Analytical Dynamics</text>
</a>
</g>
</g>
<!-- MATH0011&#45;&gt;MATH0054 -->
<g id="edge20" class="edge">
<title>MATH0011&#45;&gt;MATH0054</title>
<g id="a_edge20"><a xlink:title="required prerequisite">
<path fill="none" stroke="black" d="M1562.74,-314.77C1612.63,-303.96 1667.03,-290.26 1689.12,-278 1756.26,-240.74 1816.49,-172.52 1848.31,-132.45"/>
<polygon fill="black" stroke="black" points="1851.06,-134.61 1854.47,-124.58 1845.55,-130.29 1851.06,-134.61"/>
</a>
</g>
</g>
<!-- MATH0014 -->
<g id="node10" class="node">
<title>MATH0014</title>
<g id="a_node10"><a xlink:href="https://www.ucl.ac.uk/mathematical-physical-sciences/sites/mathematical_physical_sciences/files/math0014.pdf" xlink:title="Year 2, term 1">
<polygon fill="white" stroke="#00ff00" stroke-width="5" points="398,-278 138.25,-278 138.25,-235.5 398,-235.5 398,-278"/>
<text xml:space="preserve" text-anchor="middle" x="268.12" y="-260.7" font-family="Times,serif" font-size="14.00">MATH0014</text>
<text xml:space="preserve" text-anchor="middle" x="268.12" y="-243.45" font-family="Times,serif" font-size="14.00">Algebra 3: Further Linear Algebra</text>
</a>
</g>
</g>
<!-- MATH0006&#45;&gt;MATH0014 -->
<g id="edge8" class="edge">
<title>MATH0006&#45;&gt;MATH0014</title>
<g id="a_edge8"><a xlink:title="required prerequisite">
<path fill="none" stroke="black" d="M268.12,-311.71C268.12,-305.39 268.12,-298.37 268.12,-291.54"/>
<polygon fill="black" stroke="black" points="271.63,-291.91 268.13,-281.91 264.63,-291.91 271.63,-291.91"/>
</a>
</g>
</g>
<!-- MATH0004&#45;&gt;MATH0013 -->
<g id="edge7" class="edge">
<title>MATH0004&#45;&gt;MATH0013</title>
<g id="a_edge7"><a xlink:title="recommended prerequisite">
<path fill="none" stroke="black" stroke-dasharray="5,2" d="M475.81,-311.71C483.26,-304.31 491.67,-295.95 499.61,-288.07"/>
<polygon fill="black" stroke="black" points="501.63,-290.99 506.26,-281.46 496.7,-286.02 501.63,-290.99"/>
</a>
</g>
</g>
<!-- MATH0051 -->
<g id="node14" class="node">
<title>MATH0051</title>
<g id="a_node14"><a xlink:href="https://www.ucl.ac.uk/mathematical-physical-sciences/sites/mathematical_physical_sciences/files/math0051.pdf" xlink:title="Year 2 or 3, term 2">
<polygon fill="white" stroke="#8ee5ee" stroke-width="5" points="158.62,-199.5 61.62,-199.5 61.62,-157 158.62,-157 158.62,-199.5"/>
<text xml:space="preserve" text-anchor="middle" x="110.12" y="-182.2" font-family="Times,serif" font-size="14.00">MATH0051</text>
<text xml:space="preserve" text-anchor="middle" x="110.12" y="-164.95" font-family="Times,serif" font-size="14.00">Analysis 4</text>
</a>
</g>
</g>
<!-- MATH0004&#45;&gt;MATH0051 -->
<g id="edge13" class="edge">
<title>MATH0004&#45;&gt;MATH0051</title>
<g id="a_edge13"><a xlink:title="required prerequisite">
<path fill="none" stroke="black" d="M402.36,-326.19C312.42,-311.81 133.99,-282.78 129.12,-278 112.2,-261.38 107.89,-234.6 107.57,-213.11"/>
<polygon fill="black" stroke="black" points="111.07,-213.38 107.72,-203.33 104.07,-213.27 111.07,-213.38"/>
</a>
</g>
</g>
<!-- MATH0009&#45;&gt;MATH0015 -->
<g id="edge11" class="edge">
<title>MATH0009&#45;&gt;MATH0015</title>
<g id="a_edge11"><a xlink:title="required prerequisite">
<path fill="none" stroke="black" d="M1649.8,-311.71C1645.09,-304.77 1639.8,-296.99 1634.74,-289.55"/>
<polygon fill="black" stroke="black" points="1637.88,-287.95 1629.37,-281.64 1632.09,-291.88 1637.88,-287.95"/>
</a>
</g>
</g>
<!-- MATH0009&#45;&gt;MATH0054 -->
<g id="edge21" class="edge">
<title>MATH0009&#45;&gt;MATH0054</title>
<g id="a_edge21"><a xlink:title="required prerequisite">
<path fill="none" stroke="black" d="M1754.06,-321.98C1782.57,-313.86 1811.94,-300.38 1832.12,-278 1867.74,-238.51 1873.8,-174.18 1873.78,-134.84"/>
<polygon fill="black" stroke="black" points="1877.28,-134.95 1873.63,-125 1870.28,-135.05 1877.28,-134.95"/>
</a>
</g>
</g>
<!-- MATH0056 -->
<g id="node15" class="node">
<title>MATH0056</title>
<g id="a_node15"><a xlink:href="https://www.ucl.ac.uk/mathematical-physical-sciences/sites/mathematical_physical_sciences/files/math0056.pdf" xlink:title="Year 2 or 3, term 2">
<polygon fill="white" stroke="#8ee5ee" stroke-width="5" points="974.38,-199.5 779.88,-199.5 779.88,-157 974.38,-157 974.38,-199.5"/>
<text xml:space="preserve" text-anchor="middle" x="877.12" y="-182.2" font-family="Times,serif" font-size="14.00">MATH0056</text>
<text xml:space="preserve" text-anchor="middle" x="877.12" y="-164.95" font-family="Times,serif" font-size="14.00">Mathematical Methods 4</text>
</a>
</g>
</g>
<!-- MATH0013&#45;&gt;MATH0056 -->
<g id="edge14" class="edge">
<title>MATH0013&#45;&gt;MATH0056</title>
<g id="a_edge14"><a xlink:title="required prerequisite">
<path fill="none" stroke="black" d="M633.3,-233C675.29,-223.75 723.9,-213.03 766.62,-203.61"/>
<polygon fill="black" stroke="black" points="767.14,-207.08 776.15,-201.51 765.63,-200.25 767.14,-207.08"/>
</a>
</g>
</g>
<!-- MATH0118 -->
<g id="node23" class="node">
<title>MATH0118</title>
<g id="a_node23"><a xlink:href="https://www.ucl.ac.uk/mathematical-physical-sciences/sites/mathematical_physical_sciences/files/math0118.pdf" xlink:title="Year 3 or 4, term 1">
<polygon fill="white" stroke="#ff1493" stroke-width="5" points="810.38,-121 525.88,-121 525.88,-78.5 810.38,-78.5 810.38,-121"/>
<text xml:space="preserve" text-anchor="middle" x="668.12" y="-103.7" font-family="Times,serif" font-size="14.00">MATH0118</text>
<text xml:space="preserve" text-anchor="middle" x="668.12" y="-86.45" font-family="Times,serif" font-size="14.00">Mathematics for Quantum Mechanics</text>
</a>
</g>
</g>
<!-- MATH0014&#45;&gt;MATH0118 -->
<g id="edge26" class="edge">
<title>MATH0014&#45;&gt;MATH0118</title>
<g id="a_edge26"><a xlink:title="required prerequisite">
<path fill="none" stroke="black" d="M326.72,-233.05C399.15,-204.98 522.25,-157.28 599.17,-127.47"/>
<polygon fill="black" stroke="black" points="600.23,-130.81 608.29,-123.94 597.7,-124.29 600.23,-130.81"/>
</a>
</g>
</g>
<!-- MATH0055 -->
<g id="node13" class="node">
<title>MATH0055</title>
<g id="a_node13"><a xlink:href="https://www.ucl.ac.uk/mathematical-physical-sciences/sites/mathematical_physical_sciences/files/math0055_3.pdf" xlink:title="Year 2 or 3, term 2">
<polygon fill="white" stroke="#8ee5ee" stroke-width="5" points="1453.75,-199.5 1030.5,-199.5 1030.5,-157 1453.75,-157 1453.75,-199.5"/>
<text xml:space="preserve" text-anchor="middle" x="1242.12" y="-182.2" font-family="Times,serif" font-size="14.00">MATH0055</text>
<text xml:space="preserve" text-anchor="middle" x="1242.12" y="-164.95" font-family="Times,serif" font-size="14.00">Mathematics of Electromagnetism and Special Relativity</text>
</a>
</g>
</g>
<!-- MATH0016&#45;&gt;MATH0055 -->
<g id="edge12" class="edge">
<title>MATH0016&#45;&gt;MATH0055</title>
<g id="a_edge12"><a xlink:title="required prerequisite">
<path fill="none" stroke="black" d="M1338.39,-233C1323.9,-224.91 1307.41,-215.7 1292.22,-207.22"/>
<polygon fill="black" stroke="black" points="1294.22,-204.33 1283.79,-202.51 1290.81,-210.45 1294.22,-204.33"/>
</a>
</g>
</g>
<!-- MATH0016&#45;&gt;MATH0056 -->
<g id="edge15" class="edge">
<title>MATH0016&#45;&gt;MATH0056</title>
<g id="a_edge15"><a xlink:title="required prerequisite">
<path fill="none" stroke="black" d="M1279.73,-242.5C1200.61,-231.7 1087.12,-215.64 988.12,-199.5 988.01,-199.48 987.89,-199.46 987.77,-199.44"/>
<polygon fill="black" stroke="black" points="988.57,-196.03 978.13,-197.84 987.42,-202.93 988.57,-196.03"/>
</a>
</g>
</g>
<!-- MATH0025 -->
<g id="node17" class="node">
<title>MATH0025</title>
<g id="a_node17"><a xlink:href="https://www.ucl.ac.uk/mathematical-physical-sciences/sites/mathematical_physical_sciences/files/math0025.pdf" xlink:title="Year 3, term 1">
<polygon fill="white" stroke="#ff4040" stroke-width="5" points="1250.12,-121 982.12,-121 982.12,-78.5 1250.12,-78.5 1250.12,-121"/>
<text xml:space="preserve" text-anchor="middle" x="1116.12" y="-103.7" font-family="Times,serif" font-size="14.00">MATH0025</text>
<text xml:space="preserve" text-anchor="middle" x="1116.12" y="-86.45" font-family="Times,serif" font-size="14.00">Mathematics for General Relativity</text>
</a>
</g>
</g>
<!-- MATH0016&#45;&gt;MATH0025 -->
<g id="edge17" class="edge">
<title>MATH0016&#45;&gt;MATH0025</title>
<g id="a_edge17"><a xlink:title="required prerequisite">
<path fill="none" stroke="black" d="M1279.65,-254.09C1185.5,-250.16 1053.84,-237.75 1021.12,-199.5 1008.85,-185.14 1011.77,-173.41 1021.12,-157 1027.44,-145.92 1036.89,-136.81 1047.41,-129.38"/>
<polygon fill="black" stroke="black" points="1049.1,-132.45 1055.61,-124.1 1045.31,-126.57 1049.1,-132.45"/>
</a>
</g>
</g>
<!-- MATH0024 -->
<g id="node21" class="node">
<title>MATH0024</title>
<g id="a_node21"><a xlink:href="https://www.ucl.ac.uk/mathematical-physical-sciences/sites/mathematical_physical_sciences/files/math0024.pdf" xlink:title="Year 3, term 2">
<polygon fill="white" stroke="#cd3333" stroke-width="5" points="1735.62,-121 1584.62,-121 1584.62,-78.5 1735.62,-78.5 1735.62,-121"/>
<text xml:space="preserve" text-anchor="middle" x="1660.12" y="-103.7" font-family="Times,serif" font-size="14.00">MATH0024</text>
<text xml:space="preserve" text-anchor="middle" x="1660.12" y="-86.45" font-family="Times,serif" font-size="14.00">Geophysical Fluids</text>
</a>
</g>
</g>
<!-- MATH0016&#45;&gt;MATH0024 -->
<g id="edge23" class="edge">
<title>MATH0016&#45;&gt;MATH0024</title>
<g id="a_edge23"><a xlink:title="required prerequisite">
<path fill="none" stroke="black" d="M1426.06,-233.01C1446.24,-223.01 1469.99,-210.97 1491.12,-199.5 1532.99,-176.79 1579.67,-149.34 1613.35,-129.16"/>
<polygon fill="black" stroke="black" points="1614.86,-132.33 1621.63,-124.18 1611.25,-126.33 1614.86,-132.33"/>
</a>
</g>
</g>
<!-- MATH0077 -->
<g id="node24" class="node">
<title>MATH0077</title>
<g id="a_node24"><a xlink:href="https://www.ucl.ac.uk/mathematical-physical-sciences/sites/mathematical_physical_sciences/files/math0077.pdf" xlink:title="Year 3 or 4, term 1">
<polygon fill="white" stroke="#ff1493" stroke-width="5" points="1566.62,-121 1469.62,-121 1469.62,-78.5 1566.62,-78.5 1566.62,-121"/>
<text xml:space="preserve" text-anchor="middle" x="1518.12" y="-103.7" font-family="Times,serif" font-size="14.00">MATH0077</text>
<text xml:space="preserve" text-anchor="middle" x="1518.12" y="-86.45" font-family="Times,serif" font-size="14.00">Real Fluids</text>
</a>
</g>
</g>
<!-- MATH0016&#45;&gt;MATH0077 -->
<g id="edge28" class="edge">
<title>MATH0016&#45;&gt;MATH0077</title>
<g id="a_edge28"><a xlink:title="required prerequisite">
<path fill="none" stroke="black" d="M1421.01,-233.2C1435.51,-224.04 1451.11,-212.54 1463.12,-199.5 1480.82,-180.29 1494.98,-154.37 1504.5,-133.9"/>
<polygon fill="black" stroke="black" points="1507.66,-135.4 1508.56,-124.85 1501.27,-132.54 1507.66,-135.4"/>
</a>
</g>
</g>
<!-- MATH0015&#45;&gt;MATH0024 -->
<g id="edge22" class="edge">
<title>MATH0015&#45;&gt;MATH0024</title>
<g id="a_edge22"><a xlink:title="required prerequisite">
<path fill="none" stroke="black" d="M1619.96,-233.21C1627.86,-207.15 1640.94,-164.02 1650.02,-134.08"/>
<polygon fill="black" stroke="black" points="1653.29,-135.35 1652.84,-124.76 1646.59,-133.32 1653.29,-135.35"/>
</a>
</g>
</g>
<!-- MATH0015&#45;&gt;MATH0077 -->
<g id="edge27" class="edge">
<title>MATH0015&#45;&gt;MATH0077</title>
<g id="a_edge27"><a xlink:title="required prerequisite">
<path fill="none" stroke="black" d="M1599.31,-233.21C1583.13,-206.81 1556.2,-162.87 1537.83,-132.9"/>
<polygon fill="black" stroke="black" points="1540.96,-131.3 1532.75,-124.61 1534.99,-134.96 1540.96,-131.3"/>
</a>
</g>
</g>
<!-- MATH0115 -->
<g id="node25" class="node">
<title>MATH0115</title>
<g id="a_node25"><a xlink:href="https://www.ucl.ac.uk/mathematical-physical-sciences/sites/mathematical_physical_sciences/files/math0115_syllabus.pdf" xlink:title="Year 3 or 4, term 2">
<polygon fill="white" stroke="#cd1076" stroke-width="5" points="1344.25,-42.5 1212,-42.5 1212,0 1344.25,0 1344.25,-42.5"/>
<text xml:space="preserve" text-anchor="middle" x="1278.12" y="-25.2" font-family="Times,serif" font-size="14.00">MATH0115</text>
<text xml:space="preserve" text-anchor="middle" x="1278.12" y="-7.95" font-family="Times,serif" font-size="14.00">Solid Mechanics</text>
</a>
</g>
</g>
<!-- MATH0015&#45;&gt;MATH0115 -->
<g id="edge30" class="edge">
<title>MATH0015&#45;&gt;MATH0115</title>
<g id="a_edge30"><a xlink:title="required prerequisite">
<path fill="none" stroke="black" d="M1580.7,-233.15C1519.54,-190.52 1387.23,-98.3 1319.66,-51.2"/>
<polygon fill="black" stroke="black" points="1322.02,-48.58 1311.81,-45.73 1318.01,-54.32 1322.02,-48.58"/>
</a>
</g>
</g>
<!-- MATH0106 -->
<g id="node28" class="node">
<title>MATH0106</title>
<g id="a_node28"><a xlink:href="https://www.ucl.ac.uk/mathematical-physical-sciences/sites/mathematical_physical_sciences/files/math0106.pdf" xlink:title="Year 4, term 1">
<polygon fill="white" stroke="#1c86ee" stroke-width="5" points="1896.12,-42.5 1652.12,-42.5 1652.12,0 1896.12,0 1896.12,-42.5"/>
<text xml:space="preserve" text-anchor="middle" x="1774.12" y="-25.2" font-family="Times,serif" font-size="14.00">MATH0106</text>
<text xml:space="preserve" text-anchor="middle" x="1774.12" y="-7.95" font-family="Times,serif" font-size="14.00">Industrial and Geological Fluids</text>
</a>
</g>
</g>
<!-- MATH0015&#45;&gt;MATH0106 -->
<g id="edge36" class="edge">
<title>MATH0015&#45;&gt;MATH0106</title>
<g id="a_edge36"><a xlink:title="required prerequisite">
<path fill="none" stroke="black" d="M1642.59,-233.1C1672.56,-208.57 1718.29,-166.76 1745.12,-121 1756.91,-100.9 1764.22,-75.65 1768.54,-55.72"/>
<polygon fill="black" stroke="black" points="1771.93,-56.65 1770.46,-46.16 1765.06,-55.27 1771.93,-56.65"/>
</a>
</g>
</g>
<!-- MATH0017 -->
<g id="node16" class="node">
<title>MATH0017</title>
<g id="a_node16"><a xlink:href="https://www.ucl.ac.uk/mathematical-physical-sciences/sites/mathematical_physical_sciences/files/math0017.pdf" xlink:title="Year 3, term 1">
<polygon fill="white" stroke="#ff4040" stroke-width="5" points="132.25,-121 0,-121 0,-78.5 132.25,-78.5 132.25,-121"/>
<text xml:space="preserve" text-anchor="middle" x="66.12" y="-103.7" font-family="Times,serif" font-size="14.00">MATH0017</text>
<text xml:space="preserve" text-anchor="middle" x="66.12" y="-86.45" font-family="Times,serif" font-size="14.00">Measure Theory</text>
</a>
</g>
</g>
<!-- MATH0051&#45;&gt;MATH0017 -->
<g id="edge16" class="edge">
<title>MATH0051&#45;&gt;MATH0017</title>
<g id="a_edge16"><a xlink:title="required prerequisite">
<path fill="none" stroke="black" d="M97.16,-154.71C93.26,-147.92 88.89,-140.34 84.7,-133.05"/>
<polygon fill="black" stroke="black" points="87.92,-131.63 79.9,-124.7 81.85,-135.12 87.92,-131.63"/>
</a>
</g>
</g>
<!-- MATH0019 -->
<g id="node18" class="node">
<title>MATH0019</title>
<g id="a_node18"><a xlink:href="https://www.ucl.ac.uk/mathematical-physical-sciences/sites/mathematical_physical_sciences/files/math0019.pdf" xlink:title="Year 3, term 1">
<polygon fill="white" stroke="#ff4040" stroke-width="5" points="326,-121 150.25,-121 150.25,-78.5 326,-78.5 326,-121"/>
<text xml:space="preserve" text-anchor="middle" x="238.12" y="-103.7" font-family="Times,serif" font-size="14.00">MATH0019</text>
<text xml:space="preserve" text-anchor="middle" x="238.12" y="-86.45" font-family="Times,serif" font-size="14.00">Multivariable Analysis</text>
</a>
</g>
</g>
<!-- MATH0051&#45;&gt;MATH0019 -->
<g id="edge18" class="edge">
<title>MATH0051&#45;&gt;MATH0019</title>
<g id="a_edge18"><a xlink:title="required prerequisite">
<path fill="none" stroke="black" d="M148.18,-154.5C161.59,-146.49 176.84,-137.38 190.91,-128.97"/>
<polygon fill="black" stroke="black" points="192.35,-132.19 199.14,-124.05 188.76,-126.18 192.35,-132.19"/>
</a>
</g>
</g>
<!-- MATH0027 -->
<g id="node22" class="node">
<title>MATH0027</title>
<g id="a_node22"><a xlink:href="https://www.ucl.ac.uk/mathematical-physical-sciences/sites/mathematical_physical_sciences/files/math0027.pdf" xlink:title="Year 3, term 2">
<polygon fill="white" stroke="#cd3333" stroke-width="5" points="925.62,-121 828.62,-121 828.62,-78.5 925.62,-78.5 925.62,-121"/>
<text xml:space="preserve" text-anchor="middle" x="877.12" y="-103.7" font-family="Times,serif" font-size="14.00">MATH0027</text>
<text xml:space="preserve" text-anchor="middle" x="877.12" y="-86.45" font-family="Times,serif" font-size="14.00">Methods 5</text>
</a>
</g>
</g>
<!-- MATH0056&#45;&gt;MATH0027 -->
<g id="edge24" class="edge">
<title>MATH0056&#45;&gt;MATH0027</title>
<g id="a_edge24"><a xlink:title="required prerequisite">
<path fill="none" stroke="black" d="M877.12,-154.71C877.12,-148.39 877.12,-141.37 877.12,-134.54"/>
<polygon fill="black" stroke="black" points="880.63,-134.91 877.13,-124.91 873.63,-134.91 880.63,-134.91"/>
</a>
</g>
</g>
<!-- MATH0056&#45;&gt;MATH0118 -->
<g id="edge25" class="edge">
<title>MATH0056&#45;&gt;MATH0118</title>
<g id="a_edge25"><a xlink:title="required prerequisite">
<path fill="none" stroke="black" d="M814.98,-154.5C791.61,-145.95 764.83,-136.15 740.6,-127.28"/>
<polygon fill="black" stroke="black" points="742.04,-124.08 731.45,-123.93 739.64,-130.65 742.04,-124.08"/>
</a>
</g>
</g>
<!-- MATH0056&#45;&gt;MATH0077 -->
<g id="edge29" class="edge">
<title>MATH0056&#45;&gt;MATH0077</title>
<g id="a_edge29"><a xlink:title="required prerequisite">
<path fill="none" stroke="black" d="M976.62,-162.9C991.53,-160.86 1006.72,-158.83 1021.12,-157 1177.42,-137.17 1361.81,-117.19 1455.97,-107.24"/>
<polygon fill="black" stroke="black" points="1456.19,-110.74 1465.77,-106.21 1455.46,-103.77 1456.19,-110.74"/>
</a>
</g>
</g>
<!-- MATH0056&#45;&gt;MATH0115 -->
<g id="edge31" class="edge">
<title>MATH0056&#45;&gt;MATH0115</title>
<g id="a_edge31"><a xlink:title="required prerequisite">
<path fill="none" stroke="black" d="M976.56,-162.96C1089.31,-146.7 1257.84,-122.23 1259.12,-121 1276.26,-104.6 1280.56,-77.8 1280.82,-56.25"/>
<polygon fill="black" stroke="black" points="1284.32,-56.37 1280.64,-46.44 1277.33,-56.5 1284.32,-56.37"/>
</a>
</g>
</g>
<!-- MATH0080 -->
<g id="node26" class="node">
<title>MATH0080</title>
<g id="a_node26"><a xlink:href="https://www.ucl.ac.uk/mathematical-physical-sciences/sites/mathematical_physical_sciences/files/math0080.pdf" xlink:title="Year 3 or 4, term 2">
<polygon fill="white" stroke="#cd1076" stroke-width="5" points="1060.75,-42.5 847.5,-42.5 847.5,0 1060.75,0 1060.75,-42.5"/>
<text xml:space="preserve" text-anchor="middle" x="954.12" y="-25.2" font-family="Times,serif" font-size="14.00">MATH0080</text>
<text xml:space="preserve" text-anchor="middle" x="954.12" y="-7.95" font-family="Times,serif" font-size="14.00">Waves and Wave Scattering</text>
</a>
</g>
</g>
<!-- MATH0056&#45;&gt;MATH0080 -->
<g id="edge32" class="edge">
<title>MATH0056&#45;&gt;MATH0080</title>
<g id="a_edge32"><a xlink:title="required prerequisite">
<path fill="none" stroke="black" d="M907.15,-154.61C917.53,-145.3 928.26,-133.71 935.12,-121 945.9,-101.06 950.63,-75.96 952.68,-56.05"/>
<polygon fill="black" stroke="black" points="956.16,-56.48 953.49,-46.22 949.18,-55.9 956.16,-56.48"/>
</a>
</g>
</g>
<!-- MATH0119 -->
<g id="node27" class="node">
<title>MATH0119</title>
<g id="a_node27"><a xlink:href="https://www.ucl.ac.uk/mathematical-physical-sciences/sites/mathematical_physical_sciences/files/math0119.pdf" xlink:title="Year 3 or 4, term 2">
<polygon fill="white" stroke="#cd1076" stroke-width="5" points="316.25,-42.5 160,-42.5 160,0 316.25,0 316.25,-42.5"/>
<text xml:space="preserve" text-anchor="middle" x="238.12" y="-25.2" font-family="Times,serif" font-size="14.00">MATH0119</text>
<text xml:space="preserve" text-anchor="middle" x="238.12" y="-7.95" font-family="Times,serif" font-size="14.00">Dynamical Systems</text>
</a>
</g>
</g>
<!-- MATH0017&#45;&gt;MATH0119 -->
<g id="edge33" class="edge">
<title>MATH0017&#45;&gt;MATH0119</title>
<g id="a_edge33"><a xlink:title="required prerequisite">
<path fill="none" stroke="black" d="M117.26,-76C135.98,-67.68 157.35,-58.17 176.87,-49.5"/>
<polygon fill="black" stroke="black" points="178.08,-52.78 185.8,-45.52 175.24,-46.39 178.08,-52.78"/>
</a>
</g>
</g>
<!-- MATH0079 -->
<g id="node30" class="node">
<title>MATH0079</title>
<g id="a_node30"><a xlink:href="https://www.ucl.ac.uk/mathematical-physical-sciences/sites/mathematical_physical_sciences/files/math0079.pdf" xlink:title="Year 4, term 2">
<polygon fill="white" stroke="#1874cd" stroke-width="5" points="1175.62,-42.5 1078.62,-42.5 1078.62,0 1175.62,0 1175.62,-42.5"/>
<text xml:space="preserve" text-anchor="middle" x="1127.12" y="-25.2" font-family="Times,serif" font-size="14.00">MATH0079</text>
<text xml:space="preserve" text-anchor="middle" x="1127.12" y="-7.95" font-family="Times,serif" font-size="14.00">Cosmology</text>
</a>
</g>
</g>
<!-- MATH0025&#45;&gt;MATH0079 -->
<g id="edge39" class="edge">
<title>MATH0025&#45;&gt;MATH0079</title>
<g id="a_edge39"><a xlink:title="required prerequisite">
<path fill="none" stroke="black" d="M1119.37,-76.21C1120.28,-69.89 1121.28,-62.87 1122.27,-56.04"/>
<polygon fill="black" stroke="black" points="1125.69,-56.79 1123.65,-46.39 1118.77,-55.79 1125.69,-56.79"/>
</a>
</g>
</g>
<!-- MATH0019&#45;&gt;MATH0119 -->
<g id="edge34" class="edge">
<title>MATH0019&#45;&gt;MATH0119</title>
<g id="a_edge34"><a xlink:title="recommended prerequisite">
<path fill="none" stroke="black" stroke-dasharray="5,2" d="M238.12,-76.21C238.12,-69.89 238.12,-62.87 238.12,-56.04"/>
<polygon fill="black" stroke="black" points="241.63,-56.41 238.13,-46.41 234.63,-56.41 241.63,-56.41"/>
</a>
</g>
</g>
<!-- MATH0020&#45;&gt;MATH0119 -->
<g id="edge35" class="edge">
<title>MATH0020&#45;&gt;MATH0119</title>
<g id="a_edge35"><a xlink:title="recommended prerequisite">
<path fill="none" stroke="black" stroke-dasharray="5,2" d="M370.23,-76C349.49,-67.56 325.76,-57.91 304.2,-49.14"/>
<polygon fill="black" stroke="black" points="305.79,-46.01 295.21,-45.48 303.15,-52.49 305.79,-46.01"/>
</a>
</g>
</g>
<!-- MATH0077&#45;&gt;MATH0106 -->
<g id="edge37" class="edge">
<title>MATH0077&#45;&gt;MATH0106</title>
<g id="a_edge37"><a xlink:title="recommended prerequisite">
<path fill="none" stroke="black" stroke-dasharray="5,2" d="M1568.99,-80.8C1571.4,-80.01 1573.79,-79.24 1576.12,-78.5 1609.49,-67.95 1646.3,-57.24 1679.04,-48.03"/>
<polygon fill="black" stroke="black" points="1679.84,-51.44 1688.52,-45.38 1677.95,-44.7 1679.84,-51.44"/>
</a>
</g>
</g>
<!-- MATH0078 -->
<g id="node29" class="node">
<title>MATH0078</title>
<g id="a_node29"><a xlink:href="https://www.ucl.ac.uk/mathematical-physical-sciences/sites/mathematical_physical_sciences/files/math0078.pdf" xlink:title="Year 4, term 2">
<polygon fill="white" stroke="#1874cd" stroke-width="5" points="1634.38,-42.5 1361.88,-42.5 1361.88,0 1634.38,0 1634.38,-42.5"/>
<text xml:space="preserve" text-anchor="middle" x="1498.12" y="-25.2" font-family="Times,serif" font-size="14.00">MATH0078</text>
<text xml:space="preserve" text-anchor="middle" x="1498.12" y="-7.95" font-family="Times,serif" font-size="14.00">Asymptotic Approximation Methods</text>
</a>
</g>
</g>
<!-- MATH0077&#45;&gt;MATH0078 -->
<g id="edge38" class="edge">
<title>MATH0077&#45;&gt;MATH0078</title>
<g id="a_edge38"><a xlink:title="required prerequisite">
<path fill="none" stroke="black" d="M1512.23,-76.21C1510.54,-69.73 1508.65,-62.53 1506.83,-55.54"/>
<polygon fill="black" stroke="black" points="1510.34,-55.15 1504.43,-46.36 1503.57,-56.92 1510.34,-55.15"/>
</a>
</g>
</g>
</g>
</svg>
