<?xml version="1.0" encoding="UTF-8" standalone="no"?>
<!DOCTYPE svg PUBLIC "-//W3C//DTD SVG 1.1//EN"
 "http://www.w3.org/Graphics/SVG/1.1/DTD/svg11.dtd">
<!-- Generated by graphviz version 2.43.0 (0)
 -->
<!-- Title: %3 Pages: 1 -->
<svg width="2172pt" height="268pt"
 viewBox="0.00 0.00 2172.00 268.00" xmlns="http://www.w3.org/2000/svg" xmlns:xlink="http://www.w3.org/1999/xlink">
<g id="graph0" class="graph" transform="scale(1 1) rotate(0) translate(4 264)">
<title>%3</title>
<polygon fill="white" stroke="transparent" points="-4,4 -4,-264 2168,-264 2168,4 -4,4"/>
<!-- MATH0110 -->
<g id="node1" class="node">
<title>MATH0110</title>
<g id="a_node1"><a xlink:href="https://www.ucl.ac.uk/maths/sites/maths/files/math0110_0.pdf" xlink:title="Year 1, term 1">
<polygon fill="white" stroke="#ffb90f" stroke-width="5" points="203,-260 0,-260 0,-222 203,-222 203,-260"/>
<text text-anchor="middle" x="101.5" y="-244.8" font-family="Times,serif" font-size="14.00">MATH0110</text>
<text text-anchor="middle" x="101.5" y="-229.8" font-family="Times,serif" font-size="14.00">Analysis for Joint Honours</text>
</a>
</g>
</g>
<!-- MATH0008 -->
<g id="node2" class="node">
<title>MATH0008</title>
<g id="a_node2"><a xlink:href="https://www.ucl.ac.uk/maths/sites/maths/files/math0008.pdf" xlink:title="Year 1, term 1">
<polygon fill="white" stroke="#ffb90f" stroke-width="5" points="388.5,-260 220.5,-260 220.5,-222 388.5,-222 388.5,-260"/>
<text text-anchor="middle" x="304.5" y="-244.8" font-family="Times,serif" font-size="14.00">MATH0008</text>
<text text-anchor="middle" x="304.5" y="-229.8" font-family="Times,serif" font-size="14.00">Applied Mathematics</text>
</a>
</g>
</g>
<!-- MATH0009 -->
<g id="node10" class="node">
<title>MATH0009</title>
<g id="a_node10"><a xlink:href="https://www.ucl.ac.uk/maths/sites/maths/files/math0009.pdf" xlink:title="Year 1, term 2">
<polygon fill="white" stroke="#cd950c" stroke-width="5" points="391.5,-186 217.5,-186 217.5,-148 391.5,-148 391.5,-186"/>
<text text-anchor="middle" x="304.5" y="-170.8" font-family="Times,serif" font-size="14.00">MATH0009</text>
<text text-anchor="middle" x="304.5" y="-155.8" font-family="Times,serif" font-size="14.00">Newtonian Mechanics</text>
</a>
</g>
</g>
<!-- MATH0008&#45;&gt;MATH0009 -->
<g id="edge4" class="edge">
<title>MATH0008&#45;&gt;MATH0009</title>
<path fill="none" stroke="black" d="M304.5,-221.83C304.5,-214.13 304.5,-204.97 304.5,-196.42"/>
<polygon fill="black" stroke="black" points="308,-196.41 304.5,-186.41 301,-196.41 308,-196.41"/>
</g>
<!-- MATH0010 -->
<g id="node3" class="node">
<title>MATH0010</title>
<g id="a_node3"><a xlink:href="https://www.ucl.ac.uk/maths/sites/maths/files/math0010.pdf" xlink:title="Year 1, term 1">
<polygon fill="white" stroke="#ffb90f" stroke-width="5" points="605,-260 410,-260 410,-222 605,-222 605,-260"/>
<text text-anchor="middle" x="507.5" y="-244.8" font-family="Times,serif" font-size="14.00">MATH0010</text>
<text text-anchor="middle" x="507.5" y="-229.8" font-family="Times,serif" font-size="14.00">Mathematical Methods 1</text>
</a>
</g>
</g>
<!-- MATH0011 -->
<g id="node9" class="node">
<title>MATH0011</title>
<g id="a_node9"><a xlink:href="https://www.ucl.ac.uk/maths/sites/maths/files/math0011_syllabus.pdf" xlink:title="Year 1, term 2">
<polygon fill="white" stroke="#cd950c" stroke-width="5" points="605,-186 410,-186 410,-148 605,-148 605,-186"/>
<text text-anchor="middle" x="507.5" y="-170.8" font-family="Times,serif" font-size="14.00">MATH0011</text>
<text text-anchor="middle" x="507.5" y="-155.8" font-family="Times,serif" font-size="14.00">Mathematical Methods 2</text>
</a>
</g>
</g>
<!-- MATH0010&#45;&gt;MATH0011 -->
<g id="edge3" class="edge">
<title>MATH0010&#45;&gt;MATH0011</title>
<path fill="none" stroke="black" d="M507.5,-221.83C507.5,-214.13 507.5,-204.97 507.5,-196.42"/>
<polygon fill="black" stroke="black" points="511,-196.41 507.5,-186.41 504,-196.41 511,-196.41"/>
</g>
<!-- MATH0010&#45;&gt;MATH0009 -->
<g id="edge5" class="edge">
<title>MATH0010&#45;&gt;MATH0009</title>
<path fill="none" stroke="black" d="M456.54,-221.92C428.79,-212.08 394.27,-199.84 365.14,-189.51"/>
<polygon fill="black" stroke="black" points="366.08,-186.13 355.48,-186.08 363.74,-192.72 366.08,-186.13"/>
</g>
<!-- MATH0058 -->
<g id="node22" class="node">
<title>MATH0058</title>
<g id="a_node22"><a xlink:href="https://www.ucl.ac.uk/maths/sites/maths/files/math0058.pdf" xlink:title="Year 2 or 3, term 2">
<polygon fill="white" stroke="cadetblue" stroke-width="5" points="1257.5,-38 1069.5,-38 1069.5,0 1257.5,0 1257.5,-38"/>
<text text-anchor="middle" x="1163.5" y="-22.8" font-family="Times,serif" font-size="14.00">MATH0058</text>
<text text-anchor="middle" x="1163.5" y="-7.8" font-family="Times,serif" font-size="14.00">Computational Methods</text>
</a>
</g>
</g>
<!-- MATH0010&#45;&gt;MATH0058 -->
<g id="edge20" class="edge">
<title>MATH0010&#45;&gt;MATH0058</title>
<path fill="none" stroke="black" d="M561.18,-222C681.22,-181.74 970.89,-84.59 1099.79,-41.36"/>
<polygon fill="black" stroke="black" points="1101.17,-44.6 1109.54,-38.1 1098.94,-37.96 1101.17,-44.6"/>
</g>
<!-- MATH0003 -->
<g id="node4" class="node">
<title>MATH0003</title>
<g id="a_node4"><a xlink:href="https://www.ucl.ac.uk/maths/sites/maths/files/math0003.pdf" xlink:title="Year 1, term 1">
<polygon fill="white" stroke="#ffb90f" stroke-width="5" points="1269.5,-260 1171.5,-260 1171.5,-222 1269.5,-222 1269.5,-260"/>
<text text-anchor="middle" x="1220.5" y="-244.8" font-family="Times,serif" font-size="14.00">MATH0003</text>
<text text-anchor="middle" x="1220.5" y="-229.8" font-family="Times,serif" font-size="14.00">Analysis 1</text>
</a>
</g>
</g>
<!-- MATH0004 -->
<g id="node7" class="node">
<title>MATH0004</title>
<g id="a_node7"><a xlink:href="https://www.ucl.ac.uk/maths/sites/maths/files/math0004.pdf" xlink:title="Year 1, term 2">
<polygon fill="white" stroke="#cd950c" stroke-width="5" points="1307.5,-186 1209.5,-186 1209.5,-148 1307.5,-148 1307.5,-186"/>
<text text-anchor="middle" x="1258.5" y="-170.8" font-family="Times,serif" font-size="14.00">MATH0004</text>
<text text-anchor="middle" x="1258.5" y="-155.8" font-family="Times,serif" font-size="14.00">Analysis 2</text>
</a>
</g>
</g>
<!-- MATH0003&#45;&gt;MATH0004 -->
<g id="edge1" class="edge">
<title>MATH0003&#45;&gt;MATH0004</title>
<path fill="none" stroke="black" d="M1230.09,-221.83C1234.33,-213.79 1239.41,-204.17 1244.1,-195.29"/>
<polygon fill="black" stroke="black" points="1247.21,-196.89 1248.78,-186.41 1241.02,-193.62 1247.21,-196.89"/>
</g>
<!-- MATH0013 -->
<g id="node15" class="node">
<title>MATH0013</title>
<g id="a_node15"><a xlink:href="https://www.ucl.ac.uk/maths/sites/maths/files/math0013.pdf" xlink:title="Year 2, term 1">
<polygon fill="white" stroke="#00ff00" stroke-width="5" points="1296,-112 1067,-112 1067,-74 1296,-74 1296,-112"/>
<text text-anchor="middle" x="1181.5" y="-96.8" font-family="Times,serif" font-size="14.00">MATH0013</text>
<text text-anchor="middle" x="1181.5" y="-81.8" font-family="Times,serif" font-size="14.00">Analysis 3 &#45; Complex Analysis</text>
</a>
</g>
</g>
<!-- MATH0003&#45;&gt;MATH0013 -->
<g id="edge10" class="edge">
<title>MATH0003&#45;&gt;MATH0013</title>
<path fill="none" stroke="black" d="M1212.95,-221.73C1208.87,-211.38 1203.97,-198.11 1200.5,-186 1194.45,-164.9 1189.51,-140.56 1186.19,-122.21"/>
<polygon fill="black" stroke="black" points="1189.6,-121.42 1184.42,-112.18 1182.71,-122.63 1189.6,-121.42"/>
</g>
<!-- MATH0005 -->
<g id="node5" class="node">
<title>MATH0005</title>
<g id="a_node5"><a xlink:href="https://www.ucl.ac.uk/maths/sites/maths/files/math0005.pdf" xlink:title="Year 1, term 1">
<polygon fill="white" stroke="#ffb90f" stroke-width="5" points="1607.5,-260 1509.5,-260 1509.5,-222 1607.5,-222 1607.5,-260"/>
<text text-anchor="middle" x="1558.5" y="-244.8" font-family="Times,serif" font-size="14.00">MATH0005</text>
<text text-anchor="middle" x="1558.5" y="-229.8" font-family="Times,serif" font-size="14.00">Algebra 1</text>
</a>
</g>
</g>
<!-- MATH0006 -->
<g id="node8" class="node">
<title>MATH0006</title>
<g id="a_node8"><a xlink:href="https://www.ucl.ac.uk/maths/sites/maths/files/math0006.pdf" xlink:title="Year 1, term 2">
<polygon fill="white" stroke="#cd950c" stroke-width="5" points="1607.5,-186 1509.5,-186 1509.5,-148 1607.5,-148 1607.5,-186"/>
<text text-anchor="middle" x="1558.5" y="-170.8" font-family="Times,serif" font-size="14.00">MATH0006</text>
<text text-anchor="middle" x="1558.5" y="-155.8" font-family="Times,serif" font-size="14.00">Algebra 2</text>
</a>
</g>
</g>
<!-- MATH0005&#45;&gt;MATH0006 -->
<g id="edge2" class="edge">
<title>MATH0005&#45;&gt;MATH0006</title>
<path fill="none" stroke="black" d="M1558.5,-221.83C1558.5,-214.13 1558.5,-204.97 1558.5,-196.42"/>
<polygon fill="black" stroke="black" points="1562,-196.41 1558.5,-186.41 1555,-196.41 1562,-196.41"/>
</g>
<!-- MATH0002 -->
<g id="node6" class="node">
<title>MATH0002</title>
<g id="a_node6"><a xlink:href="https://www.ucl.ac.uk/maths/sites/maths/files/math0002.pdf" xlink:title="Year 1, term 1 and 2">
<polygon fill="white" stroke="#eead0e" stroke-width="5" points="1877,-260 1626,-260 1626,-222 1877,-222 1877,-260"/>
<text text-anchor="middle" x="1751.5" y="-244.8" font-family="Times,serif" font-size="14.00">MATH0002</text>
<text text-anchor="middle" x="1751.5" y="-229.8" font-family="Times,serif" font-size="14.00">Economics 1 &#45; Combined Studies</text>
</a>
</g>
</g>
<!-- STAT0001 -->
<g id="node16" class="node">
<title>STAT0001</title>
<g id="a_node16"><a xlink:href="https://www.ucl.ac.uk/maths/sites/maths/files/stat0001.pdf" xlink:title="Year 2, term 1 and 2">
<polygon fill="white" stroke="#00cd00" stroke-width="5" points="1877,-186 1626,-186 1626,-148 1877,-148 1877,-186"/>
<text text-anchor="middle" x="1751.5" y="-170.8" font-family="Times,serif" font-size="14.00">STAT0001</text>
<text text-anchor="middle" x="1751.5" y="-155.8" font-family="Times,serif" font-size="14.00">Economics 2 &#45; Combined Studies</text>
</a>
</g>
</g>
<!-- MATH0002&#45;&gt;STAT0001 -->
<g id="edge12" class="edge">
<title>MATH0002&#45;&gt;STAT0001</title>
<path fill="none" stroke="black" d="M1751.5,-221.83C1751.5,-214.13 1751.5,-204.97 1751.5,-196.42"/>
<polygon fill="black" stroke="black" points="1755,-196.41 1751.5,-186.41 1748,-196.41 1755,-196.41"/>
</g>
<!-- MATH0004&#45;&gt;MATH0013 -->
<g id="edge11" class="edge">
<title>MATH0004&#45;&gt;MATH0013</title>
<path fill="none" stroke="black" stroke-dasharray="5,2" d="M1239.07,-147.83C1229.77,-139.13 1218.48,-128.58 1208.37,-119.13"/>
<polygon fill="black" stroke="black" points="1210.62,-116.44 1200.92,-112.16 1205.84,-121.55 1210.62,-116.44"/>
</g>
<!-- MATH0051 -->
<g id="node20" class="node">
<title>MATH0051</title>
<g id="a_node20"><a xlink:href="https://www.ucl.ac.uk/maths/sites/maths/files/math0051.pdf" xlink:title="Year 2 or 3, term 2">
<polygon fill="white" stroke="cadetblue" stroke-width="5" points="1373.5,-38 1275.5,-38 1275.5,0 1373.5,0 1373.5,-38"/>
<text text-anchor="middle" x="1324.5" y="-22.8" font-family="Times,serif" font-size="14.00">MATH0051</text>
<text text-anchor="middle" x="1324.5" y="-7.8" font-family="Times,serif" font-size="14.00">Analysis 4</text>
</a>
</g>
</g>
<!-- MATH0004&#45;&gt;MATH0051 -->
<g id="edge18" class="edge">
<title>MATH0004&#45;&gt;MATH0051</title>
<path fill="none" stroke="black" d="M1278.59,-147.79C1288.14,-138.07 1298.88,-125.36 1305.5,-112 1315.41,-91.99 1320.15,-67.08 1322.42,-48.22"/>
<polygon fill="black" stroke="black" points="1325.92,-48.48 1323.47,-38.17 1318.95,-47.76 1325.92,-48.48"/>
</g>
<!-- MATH0014 -->
<g id="node14" class="node">
<title>MATH0014</title>
<g id="a_node14"><a xlink:href="https://www.ucl.ac.uk/maths/sites/maths/files/math0014.pdf" xlink:title="Year 2, term 1">
<polygon fill="white" stroke="#00ff00" stroke-width="5" points="1688.5,-112 1428.5,-112 1428.5,-74 1688.5,-74 1688.5,-112"/>
<text text-anchor="middle" x="1558.5" y="-96.8" font-family="Times,serif" font-size="14.00">MATH0014</text>
<text text-anchor="middle" x="1558.5" y="-81.8" font-family="Times,serif" font-size="14.00">Algebra 3: Further Linear Algebra</text>
</a>
</g>
</g>
<!-- MATH0006&#45;&gt;MATH0014 -->
<g id="edge9" class="edge">
<title>MATH0006&#45;&gt;MATH0014</title>
<path fill="none" stroke="black" d="M1558.5,-147.83C1558.5,-140.13 1558.5,-130.97 1558.5,-122.42"/>
<polygon fill="black" stroke="black" points="1562,-122.41 1558.5,-112.41 1555,-122.41 1562,-122.41"/>
</g>
<!-- MATH0053 -->
<g id="node17" class="node">
<title>MATH0053</title>
<g id="a_node17"><a xlink:href="https://www.ucl.ac.uk/maths/sites/maths/files/math0053.pdf" xlink:title="Year 2 or 3, term 2">
<polygon fill="white" stroke="cadetblue" stroke-width="5" points="1765.5,-38 1667.5,-38 1667.5,0 1765.5,0 1765.5,-38"/>
<text text-anchor="middle" x="1716.5" y="-22.8" font-family="Times,serif" font-size="14.00">MATH0053</text>
<text text-anchor="middle" x="1716.5" y="-7.8" font-family="Times,serif" font-size="14.00">Algebra 4</text>
</a>
</g>
</g>
<!-- MATH0006&#45;&gt;MATH0053 -->
<g id="edge13" class="edge">
<title>MATH0006&#45;&gt;MATH0053</title>
<path fill="none" stroke="black" d="M1607.79,-149.44C1645.21,-136.45 1691.27,-119.36 1697.5,-112 1712.41,-94.37 1716.64,-68.11 1717.44,-48.15"/>
<polygon fill="black" stroke="black" points="1720.94,-48.13 1717.58,-38.09 1713.94,-48.04 1720.94,-48.13"/>
</g>
<!-- MATH0052 -->
<g id="node19" class="node">
<title>MATH0052</title>
<g id="a_node19"><a xlink:href="https://www.ucl.ac.uk/maths/sites/maths/files/math0052.pdf" xlink:title="Year 2 or 3, term 2">
<polygon fill="white" stroke="cadetblue" stroke-width="5" points="1565.5,-38 1391.5,-38 1391.5,0 1565.5,0 1565.5,-38"/>
<text text-anchor="middle" x="1478.5" y="-22.8" font-family="Times,serif" font-size="14.00">MATH0052</text>
<text text-anchor="middle" x="1478.5" y="-7.8" font-family="Times,serif" font-size="14.00">Geometry and Groups</text>
</a>
</g>
</g>
<!-- MATH0006&#45;&gt;MATH0052 -->
<g id="edge16" class="edge">
<title>MATH0006&#45;&gt;MATH0052</title>
<path fill="none" stroke="black" d="M1509.3,-160.82C1477.93,-154.68 1439.53,-141.27 1419.5,-112 1409.96,-98.06 1412.69,-89.46 1419.5,-74 1424.48,-62.68 1433.14,-52.7 1442.31,-44.5"/>
<polygon fill="black" stroke="black" points="1444.63,-47.13 1450.07,-38.04 1440.14,-41.75 1444.63,-47.13"/>
</g>
<!-- MATH0006&#45;&gt;MATH0058 -->
<g id="edge21" class="edge">
<title>MATH0006&#45;&gt;MATH0058</title>
<path fill="none" stroke="black" d="M1509.46,-148.54C1480.13,-138.04 1442.14,-124.37 1408.5,-112 1343.94,-88.26 1270.04,-60.42 1220.44,-41.63"/>
<polygon fill="black" stroke="black" points="1221.45,-38.27 1210.85,-38 1218.97,-44.82 1221.45,-38.27"/>
</g>
<!-- MATH0034 -->
<g id="node23" class="node">
<title>MATH0034</title>
<g id="a_node23"><a xlink:href="https://www.ucl.ac.uk/maths/sites/maths/files/math0034.pdf" xlink:title="Year 2 or 3, term 2">
<polygon fill="white" stroke="cadetblue" stroke-width="5" points="1913,-38 1784,-38 1784,0 1913,0 1913,-38"/>
<text text-anchor="middle" x="1848.5" y="-22.8" font-family="Times,serif" font-size="14.00">MATH0034</text>
<text text-anchor="middle" x="1848.5" y="-7.8" font-family="Times,serif" font-size="14.00">Number Theory</text>
</a>
</g>
</g>
<!-- MATH0006&#45;&gt;MATH0034 -->
<g id="edge22" class="edge">
<title>MATH0006&#45;&gt;MATH0034</title>
<path fill="none" stroke="black" d="M1607.9,-150.24C1651.34,-136.25 1709.22,-117.24 1719.5,-112 1756.27,-93.25 1794.25,-64.88 1819.39,-44.6"/>
<polygon fill="black" stroke="black" points="1821.87,-47.09 1827.41,-38.06 1817.44,-41.67 1821.87,-47.09"/>
</g>
<!-- MATH0016 -->
<g id="node12" class="node">
<title>MATH0016</title>
<g id="a_node12"><a xlink:href="https://www.ucl.ac.uk/maths/sites/maths/files/math0016.pdf" xlink:title="Year 2, term 1">
<polygon fill="white" stroke="#00ff00" stroke-width="5" points="724,-112 529,-112 529,-74 724,-74 724,-112"/>
<text text-anchor="middle" x="626.5" y="-96.8" font-family="Times,serif" font-size="14.00">MATH0016</text>
<text text-anchor="middle" x="626.5" y="-81.8" font-family="Times,serif" font-size="14.00">Mathematical Methods 3</text>
</a>
</g>
</g>
<!-- MATH0011&#45;&gt;MATH0016 -->
<g id="edge6" class="edge">
<title>MATH0011&#45;&gt;MATH0016</title>
<path fill="none" stroke="black" d="M537.53,-147.83C552.75,-138.62 571.41,-127.33 587.71,-117.47"/>
<polygon fill="black" stroke="black" points="589.74,-120.33 596.48,-112.16 586.11,-114.34 589.74,-120.33"/>
</g>
<!-- MATH0015 -->
<g id="node13" class="node">
<title>MATH0015</title>
<g id="a_node13"><a xlink:href="https://www.ucl.ac.uk/maths/sites/maths/files/math0015.pdf" xlink:title="Year 2, term 1">
<polygon fill="white" stroke="#00ff00" stroke-width="5" points="371.5,-112 237.5,-112 237.5,-74 371.5,-74 371.5,-112"/>
<text text-anchor="middle" x="304.5" y="-96.8" font-family="Times,serif" font-size="14.00">MATH0015</text>
<text text-anchor="middle" x="304.5" y="-81.8" font-family="Times,serif" font-size="14.00">Fluid Mechanics</text>
</a>
</g>
</g>
<!-- MATH0011&#45;&gt;MATH0015 -->
<g id="edge7" class="edge">
<title>MATH0011&#45;&gt;MATH0015</title>
<path fill="none" stroke="black" d="M456.54,-147.92C428.79,-138.08 394.27,-125.84 365.14,-115.51"/>
<polygon fill="black" stroke="black" points="366.08,-112.13 355.48,-112.08 363.74,-118.72 366.08,-112.13"/>
</g>
<!-- MATH0057 -->
<g id="node18" class="node">
<title>MATH0057</title>
<g id="a_node18"><a xlink:href="https://www.ucl.ac.uk/maths/sites/maths/files/math0057.pdf" xlink:title="Year 2 or 3, term 2">
<polygon fill="white" stroke="cadetblue" stroke-width="5" points="396.5,-38 198.5,-38 198.5,0 396.5,0 396.5,-38"/>
<text text-anchor="middle" x="297.5" y="-22.8" font-family="Times,serif" font-size="14.00">MATH0057</text>
<text text-anchor="middle" x="297.5" y="-7.8" font-family="Times,serif" font-size="14.00">Probability and Statistics</text>
</a>
</g>
</g>
<!-- MATH0011&#45;&gt;MATH0057 -->
<g id="edge14" class="edge">
<title>MATH0011&#45;&gt;MATH0057</title>
<path fill="none" stroke="black" d="M483.41,-148C458.06,-129.18 416.86,-98.97 380.5,-74 365.71,-63.84 349.19,-53 334.81,-43.71"/>
<polygon fill="black" stroke="black" points="336.46,-40.61 326.16,-38.15 332.68,-46.5 336.46,-40.61"/>
</g>
<!-- MATH0009&#45;&gt;MATH0015 -->
<g id="edge8" class="edge">
<title>MATH0009&#45;&gt;MATH0015</title>
<path fill="none" stroke="black" d="M304.5,-147.83C304.5,-140.13 304.5,-130.97 304.5,-122.42"/>
<polygon fill="black" stroke="black" points="308,-122.41 304.5,-112.41 301,-122.41 308,-122.41"/>
</g>
<!-- MATH0007 -->
<g id="node11" class="node">
<title>MATH0007</title>
<g id="a_node11"><a xlink:href="https://www.ucl.ac.uk/maths/sites/maths/files/math0007.pdf" xlink:title="Year 1, term 2">
<polygon fill="white" stroke="#cd950c" stroke-width="5" points="2164,-186 1895,-186 1895,-148 2164,-148 2164,-186"/>
<text text-anchor="middle" x="2029.5" y="-170.8" font-family="Times,serif" font-size="14.00">MATH0007</text>
<text text-anchor="middle" x="2029.5" y="-155.8" font-family="Times,serif" font-size="14.00">Algebra for Joint Honours Students</text>
</a>
</g>
</g>
<!-- MATH0055 -->
<g id="node21" class="node">
<title>MATH0055</title>
<g id="a_node21"><a xlink:href="https://www.ucl.ac.uk/maths/sites/maths/files/math0055_4.pdf" xlink:title="Year 2 or 3, term 2">
<polygon fill="white" stroke="cadetblue" stroke-width="5" points="838.5,-38 414.5,-38 414.5,0 838.5,0 838.5,-38"/>
<text text-anchor="middle" x="626.5" y="-22.8" font-family="Times,serif" font-size="14.00">MATH0055</text>
<text text-anchor="middle" x="626.5" y="-7.8" font-family="Times,serif" font-size="14.00">Mathematics of Electromagnetism and Special Relativity</text>
</a>
</g>
</g>
<!-- MATH0016&#45;&gt;MATH0055 -->
<g id="edge19" class="edge">
<title>MATH0016&#45;&gt;MATH0055</title>
<path fill="none" stroke="black" d="M626.5,-73.83C626.5,-66.13 626.5,-56.97 626.5,-48.42"/>
<polygon fill="black" stroke="black" points="630,-48.41 626.5,-38.41 623,-48.41 630,-48.41"/>
</g>
<!-- MATH0056 -->
<g id="node24" class="node">
<title>MATH0056</title>
<g id="a_node24"><a xlink:href="https://www.ucl.ac.uk/maths/sites/maths/files/math0056.pdf" xlink:title="Year 2 or 3, term 2">
<polygon fill="white" stroke="cadetblue" stroke-width="5" points="1051,-38 856,-38 856,0 1051,0 1051,-38"/>
<text text-anchor="middle" x="953.5" y="-22.8" font-family="Times,serif" font-size="14.00">MATH0056</text>
<text text-anchor="middle" x="953.5" y="-7.8" font-family="Times,serif" font-size="14.00">Mathematical Methods 4</text>
</a>
</g>
</g>
<!-- MATH0016&#45;&gt;MATH0056 -->
<g id="edge24" class="edge">
<title>MATH0016&#45;&gt;MATH0056</title>
<path fill="none" stroke="black" d="M708.59,-73.92C755.23,-63.66 813.73,-50.77 861.86,-40.18"/>
<polygon fill="black" stroke="black" points="862.64,-43.59 871.66,-38.02 861.14,-36.75 862.64,-43.59"/>
</g>
<!-- MATH0014&#45;&gt;MATH0052 -->
<g id="edge17" class="edge">
<title>MATH0014&#45;&gt;MATH0052</title>
<path fill="none" stroke="black" d="M1538.31,-73.83C1528.65,-65.13 1516.92,-54.58 1506.42,-45.13"/>
<polygon fill="black" stroke="black" points="1508.46,-42.25 1498.68,-38.16 1503.77,-47.45 1508.46,-42.25"/>
</g>
<!-- MATH0013&#45;&gt;MATH0052 -->
<g id="edge15" class="edge">
<title>MATH0013&#45;&gt;MATH0052</title>
<path fill="none" stroke="black" d="M1256.06,-73.92C1298.07,-63.74 1350.67,-50.99 1394.17,-40.44"/>
<polygon fill="black" stroke="black" points="1395.27,-43.78 1404.16,-38.02 1393.62,-36.98 1395.27,-43.78"/>
</g>
<!-- MATH0013&#45;&gt;MATH0056 -->
<g id="edge23" class="edge">
<title>MATH0013&#45;&gt;MATH0056</title>
<path fill="none" stroke="black" d="M1124.26,-73.92C1092.68,-63.95 1053.31,-51.52 1020.33,-41.1"/>
<polygon fill="black" stroke="black" points="1021.35,-37.76 1010.76,-38.08 1019.25,-44.43 1021.35,-37.76"/>
</g>
</g>
</svg>
