<?xml version="1.0" encoding="UTF-8" standalone="no"?>
<!DOCTYPE svg PUBLIC "-//W3C//DTD SVG 1.1//EN"
 "http://www.w3.org/Graphics/SVG/1.1/DTD/svg11.dtd">
<!-- Generated by graphviz version 12.1.1 (0)
 -->
<!-- Pages: 1 -->
<svg width="2188pt" height="286pt"
 viewBox="0.00 0.00 2187.75 286.00" xmlns="http://www.w3.org/2000/svg" xmlns:xlink="http://www.w3.org/1999/xlink">
<g id="graph0" class="graph" transform="scale(1 1) rotate(0) translate(4 282)">
<polygon fill="white" stroke="none" points="-4,4 -4,-282 2183.75,-282 2183.75,4 -4,4"/>
<!-- MATH0008 -->
<g id="node1" class="node">
<title>MATH0008</title>
<g id="a_node1"><a xlink:href="https://www.ucl.ac.uk/maths/sites/maths/files/math0008.pdf" xlink:title="MATH0008&#10;Applied Mathematics">
<polygon fill="white" stroke="orange" stroke-width="5" points="189.5,-278 22,-278 22,-235.5 189.5,-235.5 189.5,-278"/>
<text text-anchor="middle" x="105.75" y="-260.7" font-family="Times,serif" font-size="14.00">MATH0008</text>
<text text-anchor="middle" x="105.75" y="-243.45" font-family="Times,serif" font-size="14.00">Applied Mathematics</text>
</a>
</g>
</g>
<!-- MATH0009 -->
<g id="node7" class="node">
<title>MATH0009</title>
<g id="a_node7"><a xlink:href="https://www.ucl.ac.uk/maths/sites/maths/files/math0009.pdf" xlink:title="MATH0009&#10;Newtonian Mechanics">
<polygon fill="white" stroke="orange" stroke-width="5" points="192.5,-199.5 19,-199.5 19,-157 192.5,-157 192.5,-199.5"/>
<text text-anchor="middle" x="105.75" y="-182.2" font-family="Times,serif" font-size="14.00">MATH0009</text>
<text text-anchor="middle" x="105.75" y="-164.95" font-family="Times,serif" font-size="14.00">Newtonian Mechanics</text>
</a>
</g>
</g>
<!-- MATH0008&#45;&gt;MATH0009 -->
<g id="edge1" class="edge">
<title>MATH0008&#45;&gt;MATH0009</title>
<path fill="none" stroke="black" d="M105.75,-233.21C105.75,-226.89 105.75,-219.87 105.75,-213.04"/>
<polygon fill="black" stroke="black" points="109.25,-213.41 105.75,-203.41 102.25,-213.41 109.25,-213.41"/>
</g>
<!-- MATH0005 -->
<g id="node2" class="node">
<title>MATH0005</title>
<g id="a_node2"><a xlink:href="https://www.ucl.ac.uk/maths/sites/maths/files/math0005.pdf" xlink:title="MATH0005&#10;Algebra 1">
<polygon fill="white" stroke="orange" stroke-width="5" points="1405.25,-278 1308.25,-278 1308.25,-235.5 1405.25,-235.5 1405.25,-278"/>
<text text-anchor="middle" x="1356.75" y="-260.7" font-family="Times,serif" font-size="14.00">MATH0005</text>
<text text-anchor="middle" x="1356.75" y="-243.45" font-family="Times,serif" font-size="14.00">Algebra 1</text>
</a>
</g>
</g>
<!-- MATH0006 -->
<g id="node8" class="node">
<title>MATH0006</title>
<g id="a_node8"><a xlink:href="https://www.ucl.ac.uk/maths/sites/maths/files/math0006.pdf" xlink:title="MATH0006&#10;Algebra 2">
<polygon fill="white" stroke="orange" stroke-width="5" points="1405.25,-199.5 1308.25,-199.5 1308.25,-157 1405.25,-157 1405.25,-199.5"/>
<text text-anchor="middle" x="1356.75" y="-182.2" font-family="Times,serif" font-size="14.00">MATH0006</text>
<text text-anchor="middle" x="1356.75" y="-164.95" font-family="Times,serif" font-size="14.00">Algebra 2</text>
</a>
</g>
</g>
<!-- MATH0005&#45;&gt;MATH0006 -->
<g id="edge3" class="edge">
<title>MATH0005&#45;&gt;MATH0006</title>
<path fill="none" stroke="black" d="M1356.75,-233.21C1356.75,-226.89 1356.75,-219.87 1356.75,-213.04"/>
<polygon fill="black" stroke="black" points="1360.25,-213.41 1356.75,-203.41 1353.25,-213.41 1360.25,-213.41"/>
</g>
<!-- MATH0003 -->
<g id="node3" class="node">
<title>MATH0003</title>
<g id="a_node3"><a xlink:href="https://www.ucl.ac.uk/maths/sites/maths/files/math0003.pdf" xlink:title="MATH0003&#10;Analysis 1">
<polygon fill="white" stroke="orange" stroke-width="5" points="1067.25,-278 970.25,-278 970.25,-235.5 1067.25,-235.5 1067.25,-278"/>
<text text-anchor="middle" x="1018.75" y="-260.7" font-family="Times,serif" font-size="14.00">MATH0003</text>
<text text-anchor="middle" x="1018.75" y="-243.45" font-family="Times,serif" font-size="14.00">Analysis 1</text>
</a>
</g>
</g>
<!-- MATH0004 -->
<g id="node10" class="node">
<title>MATH0004</title>
<g id="a_node10"><a xlink:href="https://www.ucl.ac.uk/maths/sites/maths/files/math0004.pdf" xlink:title="MATH0004&#10;Analysis 2">
<polygon fill="white" stroke="orange" stroke-width="5" points="1106.25,-199.5 1009.25,-199.5 1009.25,-157 1106.25,-157 1106.25,-199.5"/>
<text text-anchor="middle" x="1057.75" y="-182.2" font-family="Times,serif" font-size="14.00">MATH0004</text>
<text text-anchor="middle" x="1057.75" y="-164.95" font-family="Times,serif" font-size="14.00">Analysis 2</text>
</a>
</g>
</g>
<!-- MATH0003&#45;&gt;MATH0004 -->
<g id="edge5" class="edge">
<title>MATH0003&#45;&gt;MATH0004</title>
<path fill="none" stroke="black" d="M1030.24,-233.21C1033.62,-226.58 1037.39,-219.18 1041.03,-212.04"/>
<polygon fill="black" stroke="black" points="1044.1,-213.74 1045.52,-203.24 1037.86,-210.56 1044.1,-213.74"/>
</g>
<!-- MATH0013 -->
<g id="node12" class="node">
<title>MATH0013</title>
<g id="a_node12"><a xlink:href="https://www.ucl.ac.uk/maths/sites/maths/files/math0013.pdf" xlink:title="MATH0013&#10;Analysis 3 &#45; Complex Analysis">
<polygon fill="white" stroke="#00cd00" stroke-width="5" points="1094.88,-121 866.62,-121 866.62,-78.5 1094.88,-78.5 1094.88,-121"/>
<text text-anchor="middle" x="980.75" y="-103.7" font-family="Times,serif" font-size="14.00">MATH0013</text>
<text text-anchor="middle" x="980.75" y="-86.45" font-family="Times,serif" font-size="14.00">Analysis 3 &#45; Complex Analysis</text>
</a>
</g>
</g>
<!-- MATH0003&#45;&gt;MATH0013 -->
<g id="edge6" class="edge">
<title>MATH0003&#45;&gt;MATH0013</title>
<path fill="none" stroke="black" d="M1010.37,-233.25C1006.77,-223.04 1002.72,-210.76 999.75,-199.5 994.11,-178.11 989.4,-153.7 986.08,-134.51"/>
<polygon fill="black" stroke="black" points="989.55,-134.07 984.44,-124.79 982.65,-135.23 989.55,-134.07"/>
</g>
<!-- MATH0010 -->
<g id="node4" class="node">
<title>MATH0010</title>
<g id="a_node4"><a xlink:href="https://www.ucl.ac.uk/maths/sites/maths/files/math0010.pdf" xlink:title="MATH0010&#10;Mathematical Methods 1">
<polygon fill="white" stroke="orange" stroke-width="5" points="405,-278 210.5,-278 210.5,-235.5 405,-235.5 405,-278"/>
<text text-anchor="middle" x="307.75" y="-260.7" font-family="Times,serif" font-size="14.00">MATH0010</text>
<text text-anchor="middle" x="307.75" y="-243.45" font-family="Times,serif" font-size="14.00">Mathematical Methods 1</text>
</a>
</g>
</g>
<!-- MATH0010&#45;&gt;MATH0009 -->
<g id="edge2" class="edge">
<title>MATH0010&#45;&gt;MATH0009</title>
<path fill="none" stroke="black" d="M247.69,-233C225.2,-224.49 199.45,-214.74 176.11,-205.9"/>
<polygon fill="black" stroke="black" points="177.59,-202.71 166.99,-202.44 175.11,-209.26 177.59,-202.71"/>
</g>
<!-- MATH0011 -->
<g id="node9" class="node">
<title>MATH0011</title>
<g id="a_node9"><a xlink:href="https://www.ucl.ac.uk/maths/sites/maths/files/math0011_syllabus.pdf" xlink:title="MATH0011&#10;Mathematical Methods 2">
<polygon fill="white" stroke="orange" stroke-width="5" points="405,-199.5 210.5,-199.5 210.5,-157 405,-157 405,-199.5"/>
<text text-anchor="middle" x="307.75" y="-182.2" font-family="Times,serif" font-size="14.00">MATH0011</text>
<text text-anchor="middle" x="307.75" y="-164.95" font-family="Times,serif" font-size="14.00">Mathematical Methods 2</text>
</a>
</g>
</g>
<!-- MATH0010&#45;&gt;MATH0011 -->
<g id="edge4" class="edge">
<title>MATH0010&#45;&gt;MATH0011</title>
<path fill="none" stroke="black" d="M307.75,-233.21C307.75,-226.89 307.75,-219.87 307.75,-213.04"/>
<polygon fill="black" stroke="black" points="311.25,-213.41 307.75,-203.41 304.25,-213.41 311.25,-213.41"/>
</g>
<!-- MATH0058 -->
<g id="node20" class="node">
<title>MATH0058</title>
<g id="a_node20"><a xlink:href="https://www.ucl.ac.uk/maths/sites/maths/files/math0058.pdf" xlink:title="MATH0058&#10;Computational Methods">
<polygon fill="white" stroke="cadetblue" stroke-width="5" points="1056.62,-42.5 868.88,-42.5 868.88,0 1056.62,0 1056.62,-42.5"/>
<text text-anchor="middle" x="962.75" y="-25.2" font-family="Times,serif" font-size="14.00">MATH0058</text>
<text text-anchor="middle" x="962.75" y="-7.95" font-family="Times,serif" font-size="14.00">Computational Methods</text>
</a>
</g>
</g>
<!-- MATH0010&#45;&gt;MATH0058 -->
<g id="edge19" class="edge">
<title>MATH0010&#45;&gt;MATH0058</title>
<path fill="none" stroke="black" d="M371.45,-233.04C493.4,-189.57 759.22,-94.81 888.79,-48.62"/>
<polygon fill="black" stroke="black" points="889.72,-52 897.96,-45.35 887.37,-45.41 889.72,-52"/>
</g>
<!-- MATH0110 -->
<g id="node5" class="node">
<title>MATH0110</title>
<g id="a_node5"><a xlink:href="https://www.ucl.ac.uk/maths/sites/maths/files/math0110_0.pdf" xlink:title="MATH0110&#10;Analysis for Joint Honours">
<polygon fill="white" stroke="orange" stroke-width="5" points="1626.12,-278 1423.38,-278 1423.38,-235.5 1626.12,-235.5 1626.12,-278"/>
<text text-anchor="middle" x="1524.75" y="-260.7" font-family="Times,serif" font-size="14.00">MATH0110</text>
<text text-anchor="middle" x="1524.75" y="-243.45" font-family="Times,serif" font-size="14.00">Analysis for Joint Honours</text>
</a>
</g>
</g>
<!-- MATH0002 -->
<g id="node6" class="node">
<title>MATH0002</title>
<g id="a_node6"><a xlink:href="https://www.ucl.ac.uk/maths/sites/maths/files/math0002.pdf" xlink:title="MATH0002&#10;Economics 1 &#45; Combined Studies">
<polygon fill="white" stroke="orange" stroke-width="5" points="1893.75,-278 1643.75,-278 1643.75,-235.5 1893.75,-235.5 1893.75,-278"/>
<text text-anchor="middle" x="1768.75" y="-260.7" font-family="Times,serif" font-size="14.00">MATH0002</text>
<text text-anchor="middle" x="1768.75" y="-243.45" font-family="Times,serif" font-size="14.00">Economics 1 &#45; Combined Studies</text>
</a>
</g>
</g>
<!-- STAT0001 -->
<g id="node15" class="node">
<title>STAT0001</title>
<g id="a_node15"><a xlink:href="https://www.ucl.ac.uk/maths/sites/maths/files/stat0001.pdf" xlink:title="STAT0001&#10;Economics 2 &#45; Combined Studies">
<polygon fill="white" stroke="#00cd00" stroke-width="5" points="1893.75,-199.5 1643.75,-199.5 1643.75,-157 1893.75,-157 1893.75,-199.5"/>
<text text-anchor="middle" x="1768.75" y="-182.2" font-family="Times,serif" font-size="14.00">STAT0001</text>
<text text-anchor="middle" x="1768.75" y="-164.95" font-family="Times,serif" font-size="14.00">Economics 2 &#45; Combined Studies</text>
</a>
</g>
</g>
<!-- MATH0002&#45;&gt;STAT0001 -->
<g id="edge11" class="edge">
<title>MATH0002&#45;&gt;STAT0001</title>
<path fill="none" stroke="black" d="M1768.75,-233.21C1768.75,-226.89 1768.75,-219.87 1768.75,-213.04"/>
<polygon fill="black" stroke="black" points="1772.25,-213.41 1768.75,-203.41 1765.25,-213.41 1772.25,-213.41"/>
</g>
<!-- MATH0015 -->
<g id="node14" class="node">
<title>MATH0015</title>
<g id="a_node14"><a xlink:href="https://www.ucl.ac.uk/maths/sites/maths/files/math0015.pdf" xlink:title="MATH0015&#10;Fluid Mechanics">
<polygon fill="white" stroke="#00cd00" stroke-width="5" points="172.25,-121 39.25,-121 39.25,-78.5 172.25,-78.5 172.25,-121"/>
<text text-anchor="middle" x="105.75" y="-103.7" font-family="Times,serif" font-size="14.00">MATH0015</text>
<text text-anchor="middle" x="105.75" y="-86.45" font-family="Times,serif" font-size="14.00">Fluid Mechanics</text>
</a>
</g>
</g>
<!-- MATH0009&#45;&gt;MATH0015 -->
<g id="edge10" class="edge">
<title>MATH0009&#45;&gt;MATH0015</title>
<path fill="none" stroke="black" d="M105.75,-154.71C105.75,-148.39 105.75,-141.37 105.75,-134.54"/>
<polygon fill="black" stroke="black" points="109.25,-134.91 105.75,-124.91 102.25,-134.91 109.25,-134.91"/>
</g>
<!-- MATH0014 -->
<g id="node13" class="node">
<title>MATH0014</title>
<g id="a_node13"><a xlink:href="https://www.ucl.ac.uk/maths/sites/maths/files/math0014.pdf" xlink:title="MATH0014&#10;Algebra 3: Further Linear Algebra">
<polygon fill="white" stroke="#00cd00" stroke-width="5" points="1486.62,-121 1226.88,-121 1226.88,-78.5 1486.62,-78.5 1486.62,-121"/>
<text text-anchor="middle" x="1356.75" y="-103.7" font-family="Times,serif" font-size="14.00">MATH0014</text>
<text text-anchor="middle" x="1356.75" y="-86.45" font-family="Times,serif" font-size="14.00">Algebra 3: Further Linear Algebra</text>
</a>
</g>
</g>
<!-- MATH0006&#45;&gt;MATH0014 -->
<g id="edge8" class="edge">
<title>MATH0006&#45;&gt;MATH0014</title>
<path fill="none" stroke="black" d="M1356.75,-154.71C1356.75,-148.39 1356.75,-141.37 1356.75,-134.54"/>
<polygon fill="black" stroke="black" points="1360.25,-134.91 1356.75,-124.91 1353.25,-134.91 1360.25,-134.91"/>
</g>
<!-- MATH0052 -->
<g id="node17" class="node">
<title>MATH0052</title>
<g id="a_node17"><a xlink:href="https://www.ucl.ac.uk/maths/sites/maths/files/math0052.pdf" xlink:title="MATH0052&#10;Geometry and Groups">
<polygon fill="white" stroke="cadetblue" stroke-width="5" points="1362.5,-42.5 1189,-42.5 1189,0 1362.5,0 1362.5,-42.5"/>
<text text-anchor="middle" x="1275.75" y="-25.2" font-family="Times,serif" font-size="14.00">MATH0052</text>
<text text-anchor="middle" x="1275.75" y="-7.95" font-family="Times,serif" font-size="14.00">Geometry and Groups</text>
</a>
</g>
</g>
<!-- MATH0006&#45;&gt;MATH0052 -->
<g id="edge14" class="edge">
<title>MATH0006&#45;&gt;MATH0052</title>
<path fill="none" stroke="black" d="M1305.77,-170.89C1274.7,-164.09 1237.32,-150.03 1217.75,-121 1207.19,-105.34 1210.39,-95.9 1217.75,-78.5 1221.81,-68.92 1228.38,-60.17 1235.67,-52.57"/>
<polygon fill="black" stroke="black" points="1237.89,-55.29 1242.69,-45.84 1233.05,-50.23 1237.89,-55.29"/>
</g>
<!-- MATH0034 -->
<g id="node19" class="node">
<title>MATH0034</title>
<g id="a_node19"><a xlink:href="https://www.ucl.ac.uk/maths/sites/maths/files/math0034.pdf" xlink:title="MATH0034&#10;Number Theory">
<polygon fill="white" stroke="cadetblue" stroke-width="5" points="1579,-42.5 1450.5,-42.5 1450.5,0 1579,0 1579,-42.5"/>
<text text-anchor="middle" x="1514.75" y="-25.2" font-family="Times,serif" font-size="14.00">MATH0034</text>
<text text-anchor="middle" x="1514.75" y="-7.95" font-family="Times,serif" font-size="14.00">Number Theory</text>
</a>
</g>
</g>
<!-- MATH0006&#45;&gt;MATH0034 -->
<g id="edge18" class="edge">
<title>MATH0006&#45;&gt;MATH0034</title>
<path fill="none" stroke="black" d="M1407.63,-169.13C1437.65,-161.67 1473.92,-147.54 1495.75,-121 1510.56,-102.99 1515.09,-76.9 1516.03,-56.06"/>
<polygon fill="black" stroke="black" points="1519.53,-56.38 1516.2,-46.32 1512.53,-56.25 1519.53,-56.38"/>
</g>
<!-- MATH0006&#45;&gt;MATH0058 -->
<g id="edge20" class="edge">
<title>MATH0006&#45;&gt;MATH0058</title>
<path fill="none" stroke="black" d="M1305.91,-158.65C1276.79,-147.88 1239.62,-133.94 1206.75,-121 1160.67,-102.86 1149.64,-97.12 1103.75,-78.5 1079.92,-68.83 1053.78,-58.36 1030.55,-49.11"/>
<polygon fill="black" stroke="black" points="1032.09,-45.96 1021.5,-45.51 1029.5,-52.46 1032.09,-45.96"/>
</g>
<!-- MATH0053 -->
<g id="node22" class="node">
<title>MATH0053</title>
<g id="a_node22"><a xlink:href="https://www.ucl.ac.uk/maths/sites/maths/files/math0053.pdf" xlink:title="MATH0053&#10;Algebra 4">
<polygon fill="white" stroke="cadetblue" stroke-width="5" points="1694.25,-42.5 1597.25,-42.5 1597.25,0 1694.25,0 1694.25,-42.5"/>
<text text-anchor="middle" x="1645.75" y="-25.2" font-family="Times,serif" font-size="14.00">MATH0053</text>
<text text-anchor="middle" x="1645.75" y="-7.95" font-family="Times,serif" font-size="14.00">Algebra 4</text>
</a>
</g>
</g>
<!-- MATH0006&#45;&gt;MATH0053 -->
<g id="edge22" class="edge">
<title>MATH0006&#45;&gt;MATH0053</title>
<path fill="none" stroke="black" d="M1407.44,-164.29C1440.31,-154.78 1483.43,-140.18 1518.75,-121 1553.51,-102.12 1588.67,-73.91 1613.16,-52.47"/>
<polygon fill="black" stroke="black" points="1615.39,-55.17 1620.54,-45.91 1610.74,-49.94 1615.39,-55.17"/>
</g>
<!-- MATH0011&#45;&gt;MATH0015 -->
<g id="edge9" class="edge">
<title>MATH0011&#45;&gt;MATH0015</title>
<path fill="none" stroke="black" d="M247.69,-154.5C225.2,-145.99 199.45,-136.24 176.11,-127.4"/>
<polygon fill="black" stroke="black" points="177.59,-124.21 166.99,-123.94 175.11,-130.76 177.59,-124.21"/>
</g>
<!-- MATH0016 -->
<g id="node16" class="node">
<title>MATH0016</title>
<g id="a_node16"><a xlink:href="https://www.ucl.ac.uk/maths/sites/maths/files/math0016.pdf" xlink:title="MATH0016&#10;Mathematical Methods 3">
<polygon fill="white" stroke="cadetblue" stroke-width="5" points="524,-121 329.5,-121 329.5,-78.5 524,-78.5 524,-121"/>
<text text-anchor="middle" x="426.75" y="-103.7" font-family="Times,serif" font-size="14.00">MATH0016</text>
<text text-anchor="middle" x="426.75" y="-86.45" font-family="Times,serif" font-size="14.00">Mathematical Methods 3</text>
</a>
</g>
</g>
<!-- MATH0011&#45;&gt;MATH0016 -->
<g id="edge12" class="edge">
<title>MATH0011&#45;&gt;MATH0016</title>
<path fill="none" stroke="black" d="M343.13,-154.5C355.36,-146.64 369.23,-137.73 382.1,-129.45"/>
<polygon fill="black" stroke="black" points="383.92,-132.45 390.44,-124.09 380.13,-126.56 383.92,-132.45"/>
</g>
<!-- MATH0057 -->
<g id="node23" class="node">
<title>MATH0057</title>
<g id="a_node23"><a xlink:href="https://www.ucl.ac.uk/maths/sites/maths/files/math0057.pdf" xlink:title="MATH0057&#10;Probability and Statistics">
<polygon fill="white" stroke="cadetblue" stroke-width="5" points="197.5,-42.5 0,-42.5 0,0 197.5,0 197.5,-42.5"/>
<text text-anchor="middle" x="98.75" y="-25.2" font-family="Times,serif" font-size="14.00">MATH0057</text>
<text text-anchor="middle" x="98.75" y="-7.95" font-family="Times,serif" font-size="14.00">Probability and Statistics</text>
</a>
</g>
</g>
<!-- MATH0011&#45;&gt;MATH0057 -->
<g id="edge23" class="edge">
<title>MATH0011&#45;&gt;MATH0057</title>
<path fill="none" stroke="black" d="M279.87,-154.8C254.38,-134.46 215.48,-103.88 180.75,-78.5 168.31,-69.41 154.58,-59.82 141.97,-51.19"/>
<polygon fill="black" stroke="black" points="144.07,-48.38 133.83,-45.64 140.12,-54.17 144.07,-48.38"/>
</g>
<!-- MATH0004&#45;&gt;MATH0013 -->
<g id="edge7" class="edge">
<title>MATH0004&#45;&gt;MATH0013</title>
<path fill="none" stroke="black" stroke-dasharray="5,2" d="M1035.06,-154.71C1027.61,-147.31 1019.2,-138.95 1011.27,-131.07"/>
<polygon fill="black" stroke="black" points="1014.17,-129.02 1004.61,-124.46 1009.24,-133.99 1014.17,-129.02"/>
</g>
<!-- MATH0051 -->
<g id="node21" class="node">
<title>MATH0051</title>
<g id="a_node21"><a xlink:href="https://www.ucl.ac.uk/maths/sites/maths/files/math0051.pdf" xlink:title="MATH0051&#10;Analysis 4">
<polygon fill="white" stroke="cadetblue" stroke-width="5" points="1171.25,-42.5 1074.25,-42.5 1074.25,0 1171.25,0 1171.25,-42.5"/>
<text text-anchor="middle" x="1122.75" y="-25.2" font-family="Times,serif" font-size="14.00">MATH0051</text>
<text text-anchor="middle" x="1122.75" y="-7.95" font-family="Times,serif" font-size="14.00">Analysis 4</text>
</a>
</g>
</g>
<!-- MATH0004&#45;&gt;MATH0051 -->
<g id="edge21" class="edge">
<title>MATH0004&#45;&gt;MATH0051</title>
<path fill="none" stroke="black" d="M1080.54,-154.69C1089.05,-145.06 1098.03,-133.23 1103.75,-121 1113.3,-100.61 1118.04,-75.7 1120.41,-56"/>
<polygon fill="black" stroke="black" points="1123.87,-56.6 1121.41,-46.29 1116.9,-55.88 1123.87,-56.6"/>
</g>
<!-- MATH0007 -->
<g id="node11" class="node">
<title>MATH0007</title>
<g id="a_node11"><a xlink:href="https://www.ucl.ac.uk/maths/sites/maths/files/math0007.pdf" xlink:title="MATH0007&#10;Algebra for Joint Honours Students">
<polygon fill="white" stroke="orange" stroke-width="5" points="2179.75,-199.5 1911.75,-199.5 1911.75,-157 2179.75,-157 2179.75,-199.5"/>
<text text-anchor="middle" x="2045.75" y="-182.2" font-family="Times,serif" font-size="14.00">MATH0007</text>
<text text-anchor="middle" x="2045.75" y="-164.95" font-family="Times,serif" font-size="14.00">Algebra for Joint Honours Students</text>
</a>
</g>
</g>
<!-- MATH0013&#45;&gt;MATH0052 -->
<g id="edge13" class="edge">
<title>MATH0013&#45;&gt;MATH0052</title>
<path fill="none" stroke="black" d="M1068.46,-76C1102.71,-67.12 1142.13,-56.9 1177.34,-47.77"/>
<polygon fill="black" stroke="black" points="1177.86,-51.25 1186.66,-45.35 1176.1,-44.48 1177.86,-51.25"/>
</g>
<!-- MATH0056 -->
<g id="node18" class="node">
<title>MATH0056</title>
<g id="a_node18"><a xlink:href="https://www.ucl.ac.uk/maths/sites/maths/files/math0056.pdf" xlink:title="MATH0056&#10;Mathematical Methods 4">
<polygon fill="white" stroke="cadetblue" stroke-width="5" points="851,-42.5 656.5,-42.5 656.5,0 851,0 851,-42.5"/>
<text text-anchor="middle" x="753.75" y="-25.2" font-family="Times,serif" font-size="14.00">MATH0056</text>
<text text-anchor="middle" x="753.75" y="-7.95" font-family="Times,serif" font-size="14.00">Mathematical Methods 4</text>
</a>
</g>
</g>
<!-- MATH0013&#45;&gt;MATH0056 -->
<g id="edge16" class="edge">
<title>MATH0013&#45;&gt;MATH0056</title>
<path fill="none" stroke="black" d="M913.26,-76C887.64,-67.37 858.26,-57.47 831.76,-48.54"/>
<polygon fill="black" stroke="black" points="833.01,-45.27 822.42,-45.39 830.78,-51.9 833.01,-45.27"/>
</g>
<!-- MATH0014&#45;&gt;MATH0052 -->
<g id="edge15" class="edge">
<title>MATH0014&#45;&gt;MATH0052</title>
<path fill="none" stroke="black" d="M1332.89,-76.21C1325.05,-68.81 1316.2,-60.45 1307.85,-52.57"/>
<polygon fill="black" stroke="black" points="1310.5,-50.25 1300.82,-45.93 1305.69,-55.34 1310.5,-50.25"/>
</g>
<!-- MATH0016&#45;&gt;MATH0056 -->
<g id="edge17" class="edge">
<title>MATH0016&#45;&gt;MATH0056</title>
<path fill="none" stroke="black" d="M523.98,-76C562.18,-67.07 606.2,-56.77 645.42,-47.59"/>
<polygon fill="black" stroke="black" points="646.2,-51 655.14,-45.32 644.61,-44.19 646.2,-51"/>
</g>
<!-- MATH0055 -->
<g id="node24" class="node">
<title>MATH0055</title>
<g id="a_node24"><a xlink:href="https://www.ucl.ac.uk/maths/sites/maths/files/math0055_4.pdf" xlink:title="MATH0055&#10;Mathematics of Electromagnetism and Special Relativity">
<polygon fill="white" stroke="cadetblue" stroke-width="5" points="638.38,-42.5 215.12,-42.5 215.12,0 638.38,0 638.38,-42.5"/>
<text text-anchor="middle" x="426.75" y="-25.2" font-family="Times,serif" font-size="14.00">MATH0055</text>
<text text-anchor="middle" x="426.75" y="-7.95" font-family="Times,serif" font-size="14.00">Mathematics of Electromagnetism and Special Relativity</text>
</a>
</g>
</g>
<!-- MATH0016&#45;&gt;MATH0055 -->
<g id="edge24" class="edge">
<title>MATH0016&#45;&gt;MATH0055</title>
<path fill="none" stroke="black" d="M426.75,-76.21C426.75,-69.89 426.75,-62.87 426.75,-56.04"/>
<polygon fill="black" stroke="black" points="430.25,-56.41 426.75,-46.41 423.25,-56.41 430.25,-56.41"/>
</g>
</g>
</svg>
