<?xml version="1.0" encoding="UTF-8" standalone="no"?>
<!DOCTYPE svg PUBLIC "-//W3C//DTD SVG 1.1//EN"
 "http://www.w3.org/Graphics/SVG/1.1/DTD/svg11.dtd">
<!-- Generated by graphviz version 2.43.0 (0)
 -->
<!-- Title: %3 Pages: 1 -->
<svg width="2156pt" height="268pt"
 viewBox="0.00 0.00 2155.50 268.00" xmlns="http://www.w3.org/2000/svg" xmlns:xlink="http://www.w3.org/1999/xlink">
<g id="graph0" class="graph" transform="scale(1 1) rotate(0) translate(4 264)">
<title>%3</title>
<polygon fill="white" stroke="transparent" points="-4,4 -4,-264 2151.5,-264 2151.5,4 -4,4"/>
<!-- MATH0008 -->
<g id="node1" class="node">
<title>MATH0008</title>
<g id="a_node1"><a xlink:href="https://www.ucl.ac.uk/maths/sites/maths/files/math0008.pdf" xlink:title="Year 1, term 1">
<polygon fill="white" stroke="#ffb90f" stroke-width="5" points="566,-260 398,-260 398,-222 566,-222 566,-260"/>
<text text-anchor="middle" x="482" y="-244.8" font-family="Times,serif" font-size="14.00">MATH0008</text>
<text text-anchor="middle" x="482" y="-229.8" font-family="Times,serif" font-size="14.00">Applied Mathematics</text>
</a>
</g>
</g>
<!-- MATH0009 -->
<g id="node9" class="node">
<title>MATH0009</title>
<g id="a_node9"><a xlink:href="https://www.ucl.ac.uk/maths/sites/maths/files/math0009.pdf" xlink:title="Year 1, term 2">
<polygon fill="white" stroke="#cd950c" stroke-width="5" points="569,-186 395,-186 395,-148 569,-148 569,-186"/>
<text text-anchor="middle" x="482" y="-170.8" font-family="Times,serif" font-size="14.00">MATH0009</text>
<text text-anchor="middle" x="482" y="-155.8" font-family="Times,serif" font-size="14.00">Newtonian Mechanics</text>
</a>
</g>
</g>
<!-- MATH0008&#45;&gt;MATH0009 -->
<g id="edge3" class="edge">
<title>MATH0008&#45;&gt;MATH0009</title>
<path fill="none" stroke="black" d="M482,-221.83C482,-214.13 482,-204.97 482,-196.42"/>
<polygon fill="black" stroke="black" points="485.5,-196.41 482,-186.41 478.5,-196.41 485.5,-196.41"/>
</g>
<!-- MATH0005 -->
<g id="node2" class="node">
<title>MATH0005</title>
<g id="a_node2"><a xlink:href="https://www.ucl.ac.uk/maths/sites/maths/files/math0005.pdf" xlink:title="Year 1, term 1">
<polygon fill="white" stroke="#ffb90f" stroke-width="5" points="1370,-260 1272,-260 1272,-222 1370,-222 1370,-260"/>
<text text-anchor="middle" x="1321" y="-244.8" font-family="Times,serif" font-size="14.00">MATH0005</text>
<text text-anchor="middle" x="1321" y="-229.8" font-family="Times,serif" font-size="14.00">Algebra 1</text>
</a>
</g>
</g>
<!-- MATH0006 -->
<g id="node7" class="node">
<title>MATH0006</title>
<g id="a_node7"><a xlink:href="https://www.ucl.ac.uk/maths/sites/maths/files/math0006.pdf" xlink:title="Year 1, term 2">
<polygon fill="white" stroke="#cd950c" stroke-width="5" points="1370,-186 1272,-186 1272,-148 1370,-148 1370,-186"/>
<text text-anchor="middle" x="1321" y="-170.8" font-family="Times,serif" font-size="14.00">MATH0006</text>
<text text-anchor="middle" x="1321" y="-155.8" font-family="Times,serif" font-size="14.00">Algebra 2</text>
</a>
</g>
</g>
<!-- MATH0005&#45;&gt;MATH0006 -->
<g id="edge1" class="edge">
<title>MATH0005&#45;&gt;MATH0006</title>
<path fill="none" stroke="black" d="M1321,-221.83C1321,-214.13 1321,-204.97 1321,-196.42"/>
<polygon fill="black" stroke="black" points="1324.5,-196.41 1321,-186.41 1317.5,-196.41 1324.5,-196.41"/>
</g>
<!-- MATH0003 -->
<g id="node3" class="node">
<title>MATH0003</title>
<g id="a_node3"><a xlink:href="https://www.ucl.ac.uk/maths/sites/maths/files/math0003.pdf" xlink:title="Year 1, term 1">
<polygon fill="white" stroke="#ffb90f" stroke-width="5" points="214,-260 116,-260 116,-222 214,-222 214,-260"/>
<text text-anchor="middle" x="165" y="-244.8" font-family="Times,serif" font-size="14.00">MATH0003</text>
<text text-anchor="middle" x="165" y="-229.8" font-family="Times,serif" font-size="14.00">Analysis 1</text>
</a>
</g>
</g>
<!-- MATH0004 -->
<g id="node10" class="node">
<title>MATH0004</title>
<g id="a_node10"><a xlink:href="https://www.ucl.ac.uk/maths/sites/maths/files/math0004.pdf" xlink:title="Year 1, term 2">
<polygon fill="white" stroke="#cd950c" stroke-width="5" points="175,-186 77,-186 77,-148 175,-148 175,-186"/>
<text text-anchor="middle" x="126" y="-170.8" font-family="Times,serif" font-size="14.00">MATH0004</text>
<text text-anchor="middle" x="126" y="-155.8" font-family="Times,serif" font-size="14.00">Analysis 2</text>
</a>
</g>
</g>
<!-- MATH0003&#45;&gt;MATH0004 -->
<g id="edge5" class="edge">
<title>MATH0003&#45;&gt;MATH0004</title>
<path fill="none" stroke="black" d="M155.16,-221.83C150.8,-213.79 145.59,-204.17 140.78,-195.29"/>
<polygon fill="black" stroke="black" points="143.81,-193.54 135.97,-186.41 137.66,-196.87 143.81,-193.54"/>
</g>
<!-- MATH0013 -->
<g id="node15" class="node">
<title>MATH0013</title>
<g id="a_node15"><a xlink:href="https://www.ucl.ac.uk/maths/sites/maths/files/math0013.pdf" xlink:title="Year 2, term 1">
<polygon fill="white" stroke="#00ff00" stroke-width="5" points="317.5,-112 88.5,-112 88.5,-74 317.5,-74 317.5,-112"/>
<text text-anchor="middle" x="203" y="-96.8" font-family="Times,serif" font-size="14.00">MATH0013</text>
<text text-anchor="middle" x="203" y="-81.8" font-family="Times,serif" font-size="14.00">Analysis 3 &#45; Complex Analysis</text>
</a>
</g>
</g>
<!-- MATH0003&#45;&gt;MATH0013 -->
<g id="edge10" class="edge">
<title>MATH0003&#45;&gt;MATH0013</title>
<path fill="none" stroke="black" d="M172.13,-221.7C175.99,-211.34 180.65,-198.07 184,-186 189.88,-164.85 194.82,-140.51 198.2,-122.18"/>
<polygon fill="black" stroke="black" points="201.68,-122.61 200,-112.15 194.79,-121.38 201.68,-122.61"/>
</g>
<!-- MATH0110 -->
<g id="node4" class="node">
<title>MATH0110</title>
<g id="a_node4"><a xlink:href="https://www.ucl.ac.uk/maths/sites/maths/files/math0110_1.pdf" xlink:title="Year 1, term 1">
<polygon fill="white" stroke="#ffb90f" stroke-width="5" points="1591.5,-260 1388.5,-260 1388.5,-222 1591.5,-222 1591.5,-260"/>
<text text-anchor="middle" x="1490" y="-244.8" font-family="Times,serif" font-size="14.00">MATH0110</text>
<text text-anchor="middle" x="1490" y="-229.8" font-family="Times,serif" font-size="14.00">Analysis for Joint Honours</text>
</a>
</g>
</g>
<!-- MATH0010 -->
<g id="node5" class="node">
<title>MATH0010</title>
<g id="a_node5"><a xlink:href="https://www.ucl.ac.uk/maths/sites/maths/files/math0010.pdf" xlink:title="Year 1, term 1">
<polygon fill="white" stroke="#ffb90f" stroke-width="5" points="782.5,-260 587.5,-260 587.5,-222 782.5,-222 782.5,-260"/>
<text text-anchor="middle" x="685" y="-244.8" font-family="Times,serif" font-size="14.00">MATH0010</text>
<text text-anchor="middle" x="685" y="-229.8" font-family="Times,serif" font-size="14.00">Mathematical Methods 1</text>
</a>
</g>
</g>
<!-- MATH0011 -->
<g id="node8" class="node">
<title>MATH0011</title>
<g id="a_node8"><a xlink:href="https://www.ucl.ac.uk/maths/sites/maths/files/math0011_2.pdf" xlink:title="Year 1, term 2">
<polygon fill="white" stroke="#cd950c" stroke-width="5" points="782.5,-186 587.5,-186 587.5,-148 782.5,-148 782.5,-186"/>
<text text-anchor="middle" x="685" y="-170.8" font-family="Times,serif" font-size="14.00">MATH0011</text>
<text text-anchor="middle" x="685" y="-155.8" font-family="Times,serif" font-size="14.00">Mathematical Methods 2</text>
</a>
</g>
</g>
<!-- MATH0010&#45;&gt;MATH0011 -->
<g id="edge2" class="edge">
<title>MATH0010&#45;&gt;MATH0011</title>
<path fill="none" stroke="black" d="M685,-221.83C685,-214.13 685,-204.97 685,-196.42"/>
<polygon fill="black" stroke="black" points="688.5,-196.41 685,-186.41 681.5,-196.41 688.5,-196.41"/>
</g>
<!-- MATH0010&#45;&gt;MATH0009 -->
<g id="edge4" class="edge">
<title>MATH0010&#45;&gt;MATH0009</title>
<path fill="none" stroke="black" d="M634.04,-221.92C606.29,-212.08 571.77,-199.84 542.64,-189.51"/>
<polygon fill="black" stroke="black" points="543.58,-186.13 532.98,-186.08 541.24,-192.72 543.58,-186.13"/>
</g>
<!-- MATH0058 -->
<g id="node19" class="node">
<title>MATH0058</title>
<g id="a_node19"><a xlink:href="https://www.ucl.ac.uk/maths/sites/maths/files/math0058.pdf" xlink:title="Year 2 or 3, term 2">
<polygon fill="white" stroke="#8ee5ee" stroke-width="5" points="1175,-38 987,-38 987,0 1175,0 1175,-38"/>
<text text-anchor="middle" x="1081" y="-22.8" font-family="Times,serif" font-size="14.00">MATH0058</text>
<text text-anchor="middle" x="1081" y="-7.8" font-family="Times,serif" font-size="14.00">Computational Methods</text>
</a>
</g>
</g>
<!-- MATH0010&#45;&gt;MATH0058 -->
<g id="edge15" class="edge">
<title>MATH0010&#45;&gt;MATH0058</title>
<path fill="none" stroke="black" d="M721.53,-221.94C742.07,-211.65 768.11,-198.37 791,-186 881.64,-137.01 986.1,-76.09 1041.58,-43.38"/>
<polygon fill="black" stroke="black" points="1043.54,-46.28 1050.37,-38.19 1039.98,-40.26 1043.54,-46.28"/>
</g>
<!-- MATH0002 -->
<g id="node6" class="node">
<title>MATH0002</title>
<g id="a_node6"><a xlink:href="https://www.ucl.ac.uk/maths/sites/maths/files/math0002.pdf" xlink:title="Year 1, term 1 and 2">
<polygon fill="white" stroke="#eead0e" stroke-width="5" points="1860.5,-260 1609.5,-260 1609.5,-222 1860.5,-222 1860.5,-260"/>
<text text-anchor="middle" x="1735" y="-244.8" font-family="Times,serif" font-size="14.00">MATH0002</text>
<text text-anchor="middle" x="1735" y="-229.8" font-family="Times,serif" font-size="14.00">Economics 1 &#45; Combined Studies</text>
</a>
</g>
</g>
<!-- STAT0001 -->
<g id="node16" class="node">
<title>STAT0001</title>
<g id="a_node16"><a xlink:href="https://www.ucl.ac.uk/maths/sites/maths/files/stat0001.pdf" xlink:title="Year 2, term 1 and 2">
<polygon fill="white" stroke="#00cd00" stroke-width="5" points="1860.5,-186 1609.5,-186 1609.5,-148 1860.5,-148 1860.5,-186"/>
<text text-anchor="middle" x="1735" y="-170.8" font-family="Times,serif" font-size="14.00">STAT0001</text>
<text text-anchor="middle" x="1735" y="-155.8" font-family="Times,serif" font-size="14.00">Economics 2 &#45; Combined Studies</text>
</a>
</g>
</g>
<!-- MATH0002&#45;&gt;STAT0001 -->
<g id="edge12" class="edge">
<title>MATH0002&#45;&gt;STAT0001</title>
<path fill="none" stroke="black" d="M1735,-221.83C1735,-214.13 1735,-204.97 1735,-196.42"/>
<polygon fill="black" stroke="black" points="1738.5,-196.41 1735,-186.41 1731.5,-196.41 1738.5,-196.41"/>
</g>
<!-- MATH0014 -->
<g id="node13" class="node">
<title>MATH0014</title>
<g id="a_node13"><a xlink:href="https://www.ucl.ac.uk/maths/sites/maths/files/math0014.pdf" xlink:title="Year 2, term 1">
<polygon fill="white" stroke="#00ff00" stroke-width="5" points="1530,-112 1270,-112 1270,-74 1530,-74 1530,-112"/>
<text text-anchor="middle" x="1400" y="-96.8" font-family="Times,serif" font-size="14.00">MATH0014</text>
<text text-anchor="middle" x="1400" y="-81.8" font-family="Times,serif" font-size="14.00">Algebra 3: Further Linear Algebra</text>
</a>
</g>
</g>
<!-- MATH0006&#45;&gt;MATH0014 -->
<g id="edge7" class="edge">
<title>MATH0006&#45;&gt;MATH0014</title>
<path fill="none" stroke="black" d="M1340.94,-147.83C1350.48,-139.13 1362.06,-128.58 1372.43,-119.13"/>
<polygon fill="black" stroke="black" points="1375.04,-121.49 1380.07,-112.16 1370.32,-116.31 1375.04,-121.49"/>
</g>
<!-- MATH0053 -->
<g id="node17" class="node">
<title>MATH0053</title>
<g id="a_node17"><a xlink:href="https://www.ucl.ac.uk/maths/sites/maths/files/math0053.pdf" xlink:title="Year 2 or 3, term 2">
<polygon fill="white" stroke="#8ee5ee" stroke-width="5" points="1291,-38 1193,-38 1193,0 1291,0 1291,-38"/>
<text text-anchor="middle" x="1242" y="-22.8" font-family="Times,serif" font-size="14.00">MATH0053</text>
<text text-anchor="middle" x="1242" y="-7.8" font-family="Times,serif" font-size="14.00">Algebra 4</text>
</a>
</g>
</g>
<!-- MATH0006&#45;&gt;MATH0053 -->
<g id="edge13" class="edge">
<title>MATH0006&#45;&gt;MATH0053</title>
<path fill="none" stroke="black" d="M1294.05,-147.87C1282.17,-138.51 1269.09,-126.1 1261,-112 1249.82,-92.51 1245.17,-67.37 1243.26,-48.29"/>
<polygon fill="black" stroke="black" points="1246.73,-47.8 1242.44,-38.12 1239.76,-48.37 1246.73,-47.8"/>
</g>
<!-- MATH0006&#45;&gt;MATH0058 -->
<g id="edge16" class="edge">
<title>MATH0006&#45;&gt;MATH0058</title>
<path fill="none" stroke="black" d="M1291.09,-147.8C1247.77,-121.45 1167.52,-72.63 1119.73,-43.56"/>
<polygon fill="black" stroke="black" points="1121.27,-40.4 1110.91,-38.2 1117.63,-46.38 1121.27,-40.4"/>
</g>
<!-- MATH0034 -->
<g id="node20" class="node">
<title>MATH0034</title>
<g id="a_node20"><a xlink:href="https://www.ucl.ac.uk/maths/sites/maths/files/math0034.pdf" xlink:title="Year 2 or 3, term 2">
<polygon fill="white" stroke="#8ee5ee" stroke-width="5" points="1622.5,-38 1493.5,-38 1493.5,0 1622.5,0 1622.5,-38"/>
<text text-anchor="middle" x="1558" y="-22.8" font-family="Times,serif" font-size="14.00">MATH0034</text>
<text text-anchor="middle" x="1558" y="-7.8" font-family="Times,serif" font-size="14.00">Number Theory</text>
</a>
</g>
</g>
<!-- MATH0006&#45;&gt;MATH0034 -->
<g id="edge17" class="edge">
<title>MATH0006&#45;&gt;MATH0034</title>
<path fill="none" stroke="black" d="M1370.5,-159.9C1427.43,-151.86 1516.03,-135.89 1539,-112 1555.1,-95.26 1559.17,-68.67 1559.61,-48.38"/>
<polygon fill="black" stroke="black" points="1563.1,-48.12 1559.54,-38.14 1556.1,-48.16 1563.1,-48.12"/>
</g>
<!-- MATH0016 -->
<g id="node12" class="node">
<title>MATH0016</title>
<g id="a_node12"><a xlink:href="https://www.ucl.ac.uk/maths/sites/maths/files/math0016.pdf" xlink:title="Year 2, term 1">
<polygon fill="white" stroke="#00ff00" stroke-width="5" points="762.5,-112 567.5,-112 567.5,-74 762.5,-74 762.5,-112"/>
<text text-anchor="middle" x="665" y="-96.8" font-family="Times,serif" font-size="14.00">MATH0016</text>
<text text-anchor="middle" x="665" y="-81.8" font-family="Times,serif" font-size="14.00">Mathematical Methods 3</text>
</a>
</g>
</g>
<!-- MATH0011&#45;&gt;MATH0016 -->
<g id="edge6" class="edge">
<title>MATH0011&#45;&gt;MATH0016</title>
<path fill="none" stroke="black" d="M679.95,-147.83C677.79,-140.05 675.21,-130.77 672.82,-122.13"/>
<polygon fill="black" stroke="black" points="676.16,-121.11 670.11,-112.41 669.42,-122.99 676.16,-121.11"/>
</g>
<!-- MATH0015 -->
<g id="node14" class="node">
<title>MATH0015</title>
<g id="a_node14"><a xlink:href="https://www.ucl.ac.uk/maths/sites/maths/files/math0015.pdf" xlink:title="Year 2, term 1">
<polygon fill="white" stroke="#00ff00" stroke-width="5" points="549,-112 415,-112 415,-74 549,-74 549,-112"/>
<text text-anchor="middle" x="482" y="-96.8" font-family="Times,serif" font-size="14.00">MATH0015</text>
<text text-anchor="middle" x="482" y="-81.8" font-family="Times,serif" font-size="14.00">Fluid Mechanics</text>
</a>
</g>
</g>
<!-- MATH0011&#45;&gt;MATH0015 -->
<g id="edge8" class="edge">
<title>MATH0011&#45;&gt;MATH0015</title>
<path fill="none" stroke="black" d="M634.04,-147.92C606.29,-138.08 571.77,-125.84 542.64,-115.51"/>
<polygon fill="black" stroke="black" points="543.58,-112.13 532.98,-112.08 541.24,-118.72 543.58,-112.13"/>
</g>
<!-- MATH0057 -->
<g id="node18" class="node">
<title>MATH0057</title>
<g id="a_node18"><a xlink:href="https://www.ucl.ac.uk/maths/sites/maths/files/math0057.pdf" xlink:title="Year 2 or 3, term 2">
<polygon fill="white" stroke="#8ee5ee" stroke-width="5" points="969,-38 771,-38 771,0 969,0 969,-38"/>
<text text-anchor="middle" x="870" y="-22.8" font-family="Times,serif" font-size="14.00">MATH0057</text>
<text text-anchor="middle" x="870" y="-7.8" font-family="Times,serif" font-size="14.00">Probability and Statistics</text>
</a>
</g>
</g>
<!-- MATH0011&#45;&gt;MATH0057 -->
<g id="edge14" class="edge">
<title>MATH0011&#45;&gt;MATH0057</title>
<path fill="none" stroke="black" d="M717,-147.87C733.61,-137.98 753.94,-125.1 771,-112 797.95,-91.31 826.08,-64.6 845.44,-45.29"/>
<polygon fill="black" stroke="black" points="848.09,-47.59 852.66,-38.03 843.13,-42.65 848.09,-47.59"/>
</g>
<!-- MATH0009&#45;&gt;MATH0015 -->
<g id="edge9" class="edge">
<title>MATH0009&#45;&gt;MATH0015</title>
<path fill="none" stroke="black" d="M482,-147.83C482,-140.13 482,-130.97 482,-122.42"/>
<polygon fill="black" stroke="black" points="485.5,-122.41 482,-112.41 478.5,-122.41 485.5,-122.41"/>
</g>
<!-- MATH0004&#45;&gt;MATH0013 -->
<g id="edge11" class="edge">
<title>MATH0004&#45;&gt;MATH0013</title>
<path fill="none" stroke="black" stroke-dasharray="5,2" d="M145.43,-147.83C154.73,-139.13 166.02,-128.58 176.13,-119.13"/>
<polygon fill="black" stroke="black" points="178.66,-121.55 183.58,-112.16 173.88,-116.44 178.66,-121.55"/>
</g>
<!-- MATH0051 -->
<g id="node21" class="node">
<title>MATH0051</title>
<g id="a_node21"><a xlink:href="https://www.ucl.ac.uk/maths/sites/maths/files/math0051.pdf" xlink:title="Year 2 or 3, term 2">
<polygon fill="white" stroke="#8ee5ee" stroke-width="5" points="98,-38 0,-38 0,0 98,0 98,-38"/>
<text text-anchor="middle" x="49" y="-22.8" font-family="Times,serif" font-size="14.00">MATH0051</text>
<text text-anchor="middle" x="49" y="-7.8" font-family="Times,serif" font-size="14.00">Analysis 4</text>
</a>
</g>
</g>
<!-- MATH0004&#45;&gt;MATH0051 -->
<g id="edge18" class="edge">
<title>MATH0004&#45;&gt;MATH0051</title>
<path fill="none" stroke="black" d="M107,-147.95C97.5,-138.07 86.48,-125.19 79,-112 67.61,-91.9 59.8,-66.84 55.01,-47.96"/>
<polygon fill="black" stroke="black" points="58.4,-47.08 52.65,-38.17 51.59,-48.71 58.4,-47.08"/>
</g>
<!-- MATH0007 -->
<g id="node11" class="node">
<title>MATH0007</title>
<g id="a_node11"><a xlink:href="https://www.ucl.ac.uk/maths/sites/maths/files/math0007.pdf" xlink:title="Year 1, term 2">
<polygon fill="white" stroke="#cd950c" stroke-width="5" points="2147.5,-186 1878.5,-186 1878.5,-148 2147.5,-148 2147.5,-186"/>
<text text-anchor="middle" x="2013" y="-170.8" font-family="Times,serif" font-size="14.00">MATH0007</text>
<text text-anchor="middle" x="2013" y="-155.8" font-family="Times,serif" font-size="14.00">Algebra for Joint Honours Students</text>
</a>
</g>
</g>
<!-- MATH0056 -->
<g id="node22" class="node">
<title>MATH0056</title>
<g id="a_node22"><a xlink:href="https://www.ucl.ac.uk/maths/sites/maths/files/math0056.pdf" xlink:title="Year 2 or 3, term 2">
<polygon fill="white" stroke="#8ee5ee" stroke-width="5" points="311.5,-38 116.5,-38 116.5,0 311.5,0 311.5,-38"/>
<text text-anchor="middle" x="214" y="-22.8" font-family="Times,serif" font-size="14.00">MATH0056</text>
<text text-anchor="middle" x="214" y="-7.8" font-family="Times,serif" font-size="14.00">Mathematical Methods 4</text>
</a>
</g>
</g>
<!-- MATH0016&#45;&gt;MATH0056 -->
<g id="edge20" class="edge">
<title>MATH0016&#45;&gt;MATH0056</title>
<path fill="none" stroke="black" d="M567.34,-75.5C564.19,-74.99 561.07,-74.49 558,-74 455.56,-57.64 427.32,-55.1 321.72,-38.26"/>
<polygon fill="black" stroke="black" points="322.03,-34.77 311.6,-36.64 320.92,-41.68 322.03,-34.77"/>
</g>
<!-- MATH0055 -->
<g id="node23" class="node">
<title>MATH0055</title>
<g id="a_node23"><a xlink:href="https://www.ucl.ac.uk/maths/sites/maths/files/math0055_3.pdf" xlink:title="Year 2 or 3, term 2">
<polygon fill="white" stroke="#8ee5ee" stroke-width="5" points="753,-38 329,-38 329,0 753,0 753,-38"/>
<text text-anchor="middle" x="541" y="-22.8" font-family="Times,serif" font-size="14.00">MATH0055</text>
<text text-anchor="middle" x="541" y="-7.8" font-family="Times,serif" font-size="14.00">Mathematics of Electromagnetism and Special Relativity</text>
</a>
</g>
</g>
<!-- MATH0016&#45;&gt;MATH0055 -->
<g id="edge21" class="edge">
<title>MATH0016&#45;&gt;MATH0055</title>
<path fill="none" stroke="black" d="M633.71,-73.83C617.7,-64.54 598.04,-53.12 580.95,-43.2"/>
<polygon fill="black" stroke="black" points="582.69,-40.16 572.28,-38.16 579.17,-46.21 582.69,-40.16"/>
</g>
<!-- MATH0013&#45;&gt;MATH0056 -->
<g id="edge19" class="edge">
<title>MATH0013&#45;&gt;MATH0056</title>
<path fill="none" stroke="black" d="M205.78,-73.83C206.95,-66.13 208.35,-56.97 209.66,-48.42"/>
<polygon fill="black" stroke="black" points="213.14,-48.83 211.19,-38.41 206.22,-47.77 213.14,-48.83"/>
</g>
</g>
</svg>
