<?xml version="1.0" encoding="UTF-8" standalone="no"?>
<!DOCTYPE svg PUBLIC "-//W3C//DTD SVG 1.1//EN"
 "http://www.w3.org/Graphics/SVG/1.1/DTD/svg11.dtd">
<!-- Generated by graphviz version 13.1.2 (0)
 -->
<!-- Pages: 1 -->
<svg width="2127pt" height="286pt"
 viewBox="0.00 0.00 2127.00 286.00" xmlns="http://www.w3.org/2000/svg" xmlns:xlink="http://www.w3.org/1999/xlink">
<g id="graph0" class="graph" transform="scale(1 1) rotate(0) translate(4 282)">
<polygon fill="white" stroke="none" points="-4,4 -4,-282 2122.75,-282 2122.75,4 -4,4"/>
<!-- MATH0010 -->
<g id="node1" class="node">
<title>MATH0010</title>
<g id="a_node1"><a xlink:href="https://www.ucl.ac.uk/mathematical-physical-sciences/sites/mathematical_physical_sciences/files/math0010.pdf" xlink:title="Year 1, term 1">
<polygon fill="white" stroke="#ffb90f" stroke-width="5" points="405,-278 210.5,-278 210.5,-235.5 405,-235.5 405,-278"/>
<text xml:space="preserve" text-anchor="middle" x="307.75" y="-260.7" font-family="Times,serif" font-size="14.00">MATH0010</text>
<text xml:space="preserve" text-anchor="middle" x="307.75" y="-243.45" font-family="Times,serif" font-size="14.00">Mathematical Methods 1</text>
</a>
</g>
</g>
<!-- MATH0011 -->
<g id="node7" class="node">
<title>MATH0011</title>
<g id="a_node7"><a xlink:href="https://www.ucl.ac.uk/mathematical-physical-sciences/sites/mathematical_physical_sciences/files/math0011_2.pdf" xlink:title="Year 1, term 2">
<polygon fill="white" stroke="#cd950c" stroke-width="5" points="405,-199.5 210.5,-199.5 210.5,-157 405,-157 405,-199.5"/>
<text xml:space="preserve" text-anchor="middle" x="307.75" y="-182.2" font-family="Times,serif" font-size="14.00">MATH0011</text>
<text xml:space="preserve" text-anchor="middle" x="307.75" y="-164.95" font-family="Times,serif" font-size="14.00">Mathematical Methods 2</text>
</a>
</g>
</g>
<!-- MATH0010&#45;&gt;MATH0011 -->
<g id="edge1" class="edge">
<title>MATH0010&#45;&gt;MATH0011</title>
<g id="a_edge1"><a xlink:title="required prerequisite">
<path fill="none" stroke="black" d="M307.75,-233.21C307.75,-226.89 307.75,-219.87 307.75,-213.04"/>
<polygon fill="black" stroke="black" points="311.25,-213.41 307.75,-203.41 304.25,-213.41 311.25,-213.41"/>
</a>
</g>
</g>
<!-- MATH0009 -->
<g id="node10" class="node">
<title>MATH0009</title>
<g id="a_node10"><a xlink:href="https://www.ucl.ac.uk/mathematical-physical-sciences/sites/mathematical_physical_sciences/files/math0009.pdf" xlink:title="Year 1, term 2">
<polygon fill="white" stroke="#cd950c" stroke-width="5" points="192.5,-199.5 19,-199.5 19,-157 192.5,-157 192.5,-199.5"/>
<text xml:space="preserve" text-anchor="middle" x="105.75" y="-182.2" font-family="Times,serif" font-size="14.00">MATH0009</text>
<text xml:space="preserve" text-anchor="middle" x="105.75" y="-164.95" font-family="Times,serif" font-size="14.00">Newtonian Mechanics</text>
</a>
</g>
</g>
<!-- MATH0010&#45;&gt;MATH0009 -->
<g id="edge5" class="edge">
<title>MATH0010&#45;&gt;MATH0009</title>
<g id="a_edge5"><a xlink:title="required prerequisite">
<path fill="none" stroke="black" d="M247.69,-233C225.2,-224.49 199.45,-214.74 176.11,-205.9"/>
<polygon fill="black" stroke="black" points="177.59,-202.71 166.99,-202.44 175.11,-209.26 177.59,-202.71"/>
</a>
</g>
</g>
<!-- MATH0058 -->
<g id="node20" class="node">
<title>MATH0058</title>
<g id="a_node20"><a xlink:href="https://www.ucl.ac.uk/mathematical-physical-sciences/sites/mathematical_physical_sciences/files/math0058.pdf" xlink:title="Year 2 or 3, term 2">
<polygon fill="white" stroke="#8ee5ee" stroke-width="5" points="1056.62,-42.5 868.88,-42.5 868.88,0 1056.62,0 1056.62,-42.5"/>
<text xml:space="preserve" text-anchor="middle" x="962.75" y="-25.2" font-family="Times,serif" font-size="14.00">MATH0058</text>
<text xml:space="preserve" text-anchor="middle" x="962.75" y="-7.95" font-family="Times,serif" font-size="14.00">Computational Methods</text>
</a>
</g>
</g>
<!-- MATH0010&#45;&gt;MATH0058 -->
<g id="edge17" class="edge">
<title>MATH0010&#45;&gt;MATH0058</title>
<g id="a_edge17"><a xlink:title="required prerequisite">
<path fill="none" stroke="black" d="M357.28,-233.05C437.32,-196.96 600.59,-125.75 743.75,-78.5 779.73,-66.63 819.71,-55.71 855.55,-46.72"/>
<polygon fill="black" stroke="black" points="856.21,-50.16 865.07,-44.35 854.52,-43.37 856.21,-50.16"/>
</a>
</g>
</g>
<!-- MATH0008 -->
<g id="node2" class="node">
<title>MATH0008</title>
<g id="a_node2"><a xlink:href="https://www.ucl.ac.uk/mathematical-physical-sciences/sites/mathematical_physical_sciences/files/math0008.pdf" xlink:title="Year 1, term 1">
<polygon fill="white" stroke="#ffb90f" stroke-width="5" points="189.5,-278 22,-278 22,-235.5 189.5,-235.5 189.5,-278"/>
<text xml:space="preserve" text-anchor="middle" x="105.75" y="-260.7" font-family="Times,serif" font-size="14.00">MATH0008</text>
<text xml:space="preserve" text-anchor="middle" x="105.75" y="-243.45" font-family="Times,serif" font-size="14.00">Applied Mathematics</text>
</a>
</g>
</g>
<!-- MATH0008&#45;&gt;MATH0009 -->
<g id="edge4" class="edge">
<title>MATH0008&#45;&gt;MATH0009</title>
<g id="a_edge4"><a xlink:title="required prerequisite">
<path fill="none" stroke="black" d="M105.75,-233.21C105.75,-226.89 105.75,-219.87 105.75,-213.04"/>
<polygon fill="black" stroke="black" points="109.25,-213.41 105.75,-203.41 102.25,-213.41 109.25,-213.41"/>
</a>
</g>
</g>
<!-- MATH0003 -->
<g id="node3" class="node">
<title>MATH0003</title>
<g id="a_node3"><a xlink:href="https://www.ucl.ac.uk/mathematical-physical-sciences/sites/mathematical_physical_sciences/files/math0003.pdf" xlink:title="Year 1, term 1">
<polygon fill="white" stroke="#ffb90f" stroke-width="5" points="953.25,-278 856.25,-278 856.25,-235.5 953.25,-235.5 953.25,-278"/>
<text xml:space="preserve" text-anchor="middle" x="904.75" y="-260.7" font-family="Times,serif" font-size="14.00">MATH0003</text>
<text xml:space="preserve" text-anchor="middle" x="904.75" y="-243.45" font-family="Times,serif" font-size="14.00">Analysis 1</text>
</a>
</g>
</g>
<!-- MATH0004 -->
<g id="node8" class="node">
<title>MATH0004</title>
<g id="a_node8"><a xlink:href="https://www.ucl.ac.uk/mathematical-physical-sciences/sites/mathematical_physical_sciences/files/math0004.pdf" xlink:title="Year 1, term 2">
<polygon fill="white" stroke="#cd950c" stroke-width="5" points="992.25,-199.5 895.25,-199.5 895.25,-157 992.25,-157 992.25,-199.5"/>
<text xml:space="preserve" text-anchor="middle" x="943.75" y="-182.2" font-family="Times,serif" font-size="14.00">MATH0004</text>
<text xml:space="preserve" text-anchor="middle" x="943.75" y="-164.95" font-family="Times,serif" font-size="14.00">Analysis 2</text>
</a>
</g>
</g>
<!-- MATH0003&#45;&gt;MATH0004 -->
<g id="edge2" class="edge">
<title>MATH0003&#45;&gt;MATH0004</title>
<g id="a_edge2"><a xlink:title="required prerequisite">
<path fill="none" stroke="black" d="M916.24,-233.21C919.62,-226.58 923.39,-219.18 927.03,-212.04"/>
<polygon fill="black" stroke="black" points="930.1,-213.74 931.52,-203.24 923.86,-210.56 930.1,-213.74"/>
</a>
</g>
</g>
<!-- MATH0013 -->
<g id="node13" class="node">
<title>MATH0013</title>
<g id="a_node13"><a xlink:href="https://www.ucl.ac.uk/mathematical-physical-sciences/sites/mathematical_physical_sciences/files/math0013.pdf" xlink:title="Year 2, term 1">
<polygon fill="white" stroke="#00ff00" stroke-width="5" points="980.88,-121 752.62,-121 752.62,-78.5 980.88,-78.5 980.88,-121"/>
<text xml:space="preserve" text-anchor="middle" x="866.75" y="-103.7" font-family="Times,serif" font-size="14.00">MATH0013</text>
<text xml:space="preserve" text-anchor="middle" x="866.75" y="-86.45" font-family="Times,serif" font-size="14.00">Analysis 3 &#45; Complex Analysis</text>
</a>
</g>
</g>
<!-- MATH0003&#45;&gt;MATH0013 -->
<g id="edge8" class="edge">
<title>MATH0003&#45;&gt;MATH0013</title>
<g id="a_edge8"><a xlink:title="required prerequisite">
<path fill="none" stroke="black" d="M896.37,-233.25C892.77,-223.04 888.72,-210.76 885.75,-199.5 880.11,-178.11 875.4,-153.7 872.08,-134.51"/>
<polygon fill="black" stroke="black" points="875.55,-134.07 870.44,-124.79 868.65,-135.23 875.55,-134.07"/>
</a>
</g>
</g>
<!-- MATH0005 -->
<g id="node4" class="node">
<title>MATH0005</title>
<g id="a_node4"><a xlink:href="https://www.ucl.ac.uk/mathematical-physical-sciences/sites/mathematical_physical_sciences/files/math0005.pdf" xlink:title="Year 1, term 1">
<polygon fill="white" stroke="#ffb90f" stroke-width="5" points="1344.25,-278 1247.25,-278 1247.25,-235.5 1344.25,-235.5 1344.25,-278"/>
<text xml:space="preserve" text-anchor="middle" x="1295.75" y="-260.7" font-family="Times,serif" font-size="14.00">MATH0005</text>
<text xml:space="preserve" text-anchor="middle" x="1295.75" y="-243.45" font-family="Times,serif" font-size="14.00">Algebra 1</text>
</a>
</g>
</g>
<!-- MATH0006 -->
<g id="node9" class="node">
<title>MATH0006</title>
<g id="a_node9"><a xlink:href="https://www.ucl.ac.uk/mathematical-physical-sciences/sites/mathematical_physical_sciences/files/math0006.pdf" xlink:title="Year 1, term 2">
<polygon fill="white" stroke="#cd950c" stroke-width="5" points="1344.25,-199.5 1247.25,-199.5 1247.25,-157 1344.25,-157 1344.25,-199.5"/>
<text xml:space="preserve" text-anchor="middle" x="1295.75" y="-182.2" font-family="Times,serif" font-size="14.00">MATH0006</text>
<text xml:space="preserve" text-anchor="middle" x="1295.75" y="-164.95" font-family="Times,serif" font-size="14.00">Algebra 2</text>
</a>
</g>
</g>
<!-- MATH0005&#45;&gt;MATH0006 -->
<g id="edge3" class="edge">
<title>MATH0005&#45;&gt;MATH0006</title>
<g id="a_edge3"><a xlink:title="required prerequisite">
<path fill="none" stroke="black" d="M1295.75,-233.21C1295.75,-226.89 1295.75,-219.87 1295.75,-213.04"/>
<polygon fill="black" stroke="black" points="1299.25,-213.41 1295.75,-203.41 1292.25,-213.41 1299.25,-213.41"/>
</a>
</g>
</g>
<!-- MATH0110 -->
<g id="node5" class="node">
<title>MATH0110</title>
<g id="a_node5"><a xlink:href="https://www.ucl.ac.uk/mathematical-physical-sciences/sites/mathematical_physical_sciences/files/math0110_1.pdf" xlink:title="Year 1, term 1">
<polygon fill="white" stroke="#ffb90f" stroke-width="5" points="1565.12,-278 1362.38,-278 1362.38,-235.5 1565.12,-235.5 1565.12,-278"/>
<text xml:space="preserve" text-anchor="middle" x="1463.75" y="-260.7" font-family="Times,serif" font-size="14.00">MATH0110</text>
<text xml:space="preserve" text-anchor="middle" x="1463.75" y="-243.45" font-family="Times,serif" font-size="14.00">Analysis for Joint Honours</text>
</a>
</g>
</g>
<!-- MATH0002 -->
<g id="node6" class="node">
<title>MATH0002</title>
<g id="a_node6"><a xlink:href="https://www.ucl.ac.uk/mathematical-physical-sciences/sites/mathematical_physical_sciences/files/math0002.pdf" xlink:title="Year 1, term 1 and 2">
<polygon fill="white" stroke="#eead0e" stroke-width="5" points="1832.75,-278 1582.75,-278 1582.75,-235.5 1832.75,-235.5 1832.75,-278"/>
<text xml:space="preserve" text-anchor="middle" x="1707.75" y="-260.7" font-family="Times,serif" font-size="14.00">MATH0002</text>
<text xml:space="preserve" text-anchor="middle" x="1707.75" y="-243.45" font-family="Times,serif" font-size="14.00">Economics 1 &#45; Combined Studies</text>
</a>
</g>
</g>
<!-- STAT0001 -->
<g id="node16" class="node">
<title>STAT0001</title>
<g id="a_node16"><a xlink:href="https://www.ucl.ac.uk/mathematical-physical-sciences/sites/mathematical_physical_sciences/files/stat0001.pdf" xlink:title="Year 2, term 1 and 2">
<polygon fill="white" stroke="#00cd00" stroke-width="5" points="1832.75,-199.5 1582.75,-199.5 1582.75,-157 1832.75,-157 1832.75,-199.5"/>
<text xml:space="preserve" text-anchor="middle" x="1707.75" y="-182.2" font-family="Times,serif" font-size="14.00">STAT0001</text>
<text xml:space="preserve" text-anchor="middle" x="1707.75" y="-164.95" font-family="Times,serif" font-size="14.00">Economics 2 &#45; Combined Studies</text>
</a>
</g>
</g>
<!-- MATH0002&#45;&gt;STAT0001 -->
<g id="edge12" class="edge">
<title>MATH0002&#45;&gt;STAT0001</title>
<g id="a_edge12"><a xlink:title="required prerequisite">
<path fill="none" stroke="black" d="M1707.75,-233.21C1707.75,-226.89 1707.75,-219.87 1707.75,-213.04"/>
<polygon fill="black" stroke="black" points="1711.25,-213.41 1707.75,-203.41 1704.25,-213.41 1711.25,-213.41"/>
</a>
</g>
</g>
<!-- MATH0015 -->
<g id="node12" class="node">
<title>MATH0015</title>
<g id="a_node12"><a xlink:href="https://www.ucl.ac.uk/mathematical-physical-sciences/sites/mathematical_physical_sciences/files/math0015.pdf" xlink:title="Year 2, term 1">
<polygon fill="white" stroke="#00ff00" stroke-width="5" points="172.25,-121 39.25,-121 39.25,-78.5 172.25,-78.5 172.25,-121"/>
<text xml:space="preserve" text-anchor="middle" x="105.75" y="-103.7" font-family="Times,serif" font-size="14.00">MATH0015</text>
<text xml:space="preserve" text-anchor="middle" x="105.75" y="-86.45" font-family="Times,serif" font-size="14.00">Fluid Mechanics</text>
</a>
</g>
</g>
<!-- MATH0011&#45;&gt;MATH0015 -->
<g id="edge6" class="edge">
<title>MATH0011&#45;&gt;MATH0015</title>
<g id="a_edge6"><a xlink:title="required prerequisite">
<path fill="none" stroke="black" d="M247.69,-154.5C225.2,-145.99 199.45,-136.24 176.11,-127.4"/>
<polygon fill="black" stroke="black" points="177.59,-124.21 166.99,-123.94 175.11,-130.76 177.59,-124.21"/>
</a>
</g>
</g>
<!-- MATH0016 -->
<g id="node14" class="node">
<title>MATH0016</title>
<g id="a_node14"><a xlink:href="https://www.ucl.ac.uk/mathematical-physical-sciences/sites/mathematical_physical_sciences/files/math0016.pdf" xlink:title="Year 2, term 1">
<polygon fill="white" stroke="#00ff00" stroke-width="5" points="524,-121 329.5,-121 329.5,-78.5 524,-78.5 524,-121"/>
<text xml:space="preserve" text-anchor="middle" x="426.75" y="-103.7" font-family="Times,serif" font-size="14.00">MATH0016</text>
<text xml:space="preserve" text-anchor="middle" x="426.75" y="-86.45" font-family="Times,serif" font-size="14.00">Mathematical Methods 3</text>
</a>
</g>
</g>
<!-- MATH0011&#45;&gt;MATH0016 -->
<g id="edge10" class="edge">
<title>MATH0011&#45;&gt;MATH0016</title>
<g id="a_edge10"><a xlink:title="required prerequisite">
<path fill="none" stroke="black" d="M343.13,-154.5C355.36,-146.64 369.23,-137.73 382.1,-129.45"/>
<polygon fill="black" stroke="black" points="383.92,-132.45 390.44,-124.09 380.13,-126.56 383.92,-132.45"/>
</a>
</g>
</g>
<!-- MATH0057 -->
<g id="node19" class="node">
<title>MATH0057</title>
<g id="a_node19"><a xlink:href="https://www.ucl.ac.uk/mathematical-physical-sciences/sites/mathematical_physical_sciences/files/math0057.pdf" xlink:title="Year 2 or 3, term 2">
<polygon fill="white" stroke="#8ee5ee" stroke-width="5" points="197.5,-42.5 0,-42.5 0,0 197.5,0 197.5,-42.5"/>
<text xml:space="preserve" text-anchor="middle" x="98.75" y="-25.2" font-family="Times,serif" font-size="14.00">MATH0057</text>
<text xml:space="preserve" text-anchor="middle" x="98.75" y="-7.95" font-family="Times,serif" font-size="14.00">Probability and Statistics</text>
</a>
</g>
</g>
<!-- MATH0011&#45;&gt;MATH0057 -->
<g id="edge16" class="edge">
<title>MATH0011&#45;&gt;MATH0057</title>
<g id="a_edge16"><a xlink:title="required prerequisite">
<path fill="none" stroke="black" d="M279.87,-154.8C254.38,-134.46 215.48,-103.88 180.75,-78.5 168.31,-69.41 154.58,-59.82 141.97,-51.19"/>
<polygon fill="black" stroke="black" points="144.07,-48.38 133.83,-45.64 140.12,-54.17 144.07,-48.38"/>
</a>
</g>
</g>
<!-- MATH0004&#45;&gt;MATH0013 -->
<g id="edge9" class="edge">
<title>MATH0004&#45;&gt;MATH0013</title>
<g id="a_edge9"><a xlink:title="recommended prerequisite">
<path fill="none" stroke="black" stroke-dasharray="5,2" d="M921.06,-154.71C913.61,-147.31 905.2,-138.95 897.27,-131.07"/>
<polygon fill="black" stroke="black" points="900.17,-129.02 890.61,-124.46 895.24,-133.99 900.17,-129.02"/>
</a>
</g>
</g>
<!-- MATH0051 -->
<g id="node23" class="node">
<title>MATH0051</title>
<g id="a_node23"><a xlink:href="https://www.ucl.ac.uk/mathematical-physical-sciences/sites/mathematical_physical_sciences/files/math0051.pdf" xlink:title="Year 2 or 3, term 2">
<polygon fill="white" stroke="#8ee5ee" stroke-width="5" points="1171.25,-42.5 1074.25,-42.5 1074.25,0 1171.25,0 1171.25,-42.5"/>
<text xml:space="preserve" text-anchor="middle" x="1122.75" y="-25.2" font-family="Times,serif" font-size="14.00">MATH0051</text>
<text xml:space="preserve" text-anchor="middle" x="1122.75" y="-7.95" font-family="Times,serif" font-size="14.00">Analysis 4</text>
</a>
</g>
</g>
<!-- MATH0004&#45;&gt;MATH0051 -->
<g id="edge21" class="edge">
<title>MATH0004&#45;&gt;MATH0051</title>
<g id="a_edge21"><a xlink:title="required prerequisite">
<path fill="none" stroke="black" d="M969.78,-154.71C1001.06,-127.62 1053.67,-82.07 1088.3,-52.08"/>
<polygon fill="black" stroke="black" points="1090.28,-55 1095.55,-45.81 1085.7,-49.71 1090.28,-55"/>
</a>
</g>
</g>
<!-- MATH0014 -->
<g id="node15" class="node">
<title>MATH0014</title>
<g id="a_node15"><a xlink:href="https://www.ucl.ac.uk/mathematical-physical-sciences/sites/mathematical_physical_sciences/files/math0014.pdf" xlink:title="Year 2, term 1">
<polygon fill="white" stroke="#00ff00" stroke-width="5" points="1625.62,-121 1365.88,-121 1365.88,-78.5 1625.62,-78.5 1625.62,-121"/>
<text xml:space="preserve" text-anchor="middle" x="1495.75" y="-103.7" font-family="Times,serif" font-size="14.00">MATH0014</text>
<text xml:space="preserve" text-anchor="middle" x="1495.75" y="-86.45" font-family="Times,serif" font-size="14.00">Algebra 3: Further Linear Algebra</text>
</a>
</g>
</g>
<!-- MATH0006&#45;&gt;MATH0014 -->
<g id="edge11" class="edge">
<title>MATH0006&#45;&gt;MATH0014</title>
<g id="a_edge11"><a xlink:title="required prerequisite">
<path fill="none" stroke="black" d="M1346.74,-157.75C1370.74,-148.57 1399.75,-137.47 1425.78,-127.52"/>
<polygon fill="black" stroke="black" points="1426.84,-130.86 1434.93,-124.02 1424.34,-124.32 1426.84,-130.86"/>
</a>
</g>
</g>
<!-- MATH0053 -->
<g id="node17" class="node">
<title>MATH0053</title>
<g id="a_node17"><a xlink:href="https://www.ucl.ac.uk/mathematical-physical-sciences/sites/mathematical_physical_sciences/files/math0053.pdf" xlink:title="Year 2 or 3, term 2">
<polygon fill="white" stroke="#8ee5ee" stroke-width="5" points="1433.25,-42.5 1336.25,-42.5 1336.25,0 1433.25,0 1433.25,-42.5"/>
<text xml:space="preserve" text-anchor="middle" x="1384.75" y="-25.2" font-family="Times,serif" font-size="14.00">MATH0053</text>
<text xml:space="preserve" text-anchor="middle" x="1384.75" y="-7.95" font-family="Times,serif" font-size="14.00">Algebra 4</text>
</a>
</g>
</g>
<!-- MATH0006&#45;&gt;MATH0053 -->
<g id="edge13" class="edge">
<title>MATH0006&#45;&gt;MATH0053</title>
<g id="a_edge13"><a xlink:title="required prerequisite">
<path fill="none" stroke="black" d="M1308.69,-154.71C1323.79,-128.42 1348.86,-84.76 1366.06,-54.79"/>
<polygon fill="black" stroke="black" points="1369.1,-56.54 1371.04,-46.13 1363.02,-53.06 1369.1,-56.54"/>
</a>
</g>
</g>
<!-- MATH0006&#45;&gt;MATH0058 -->
<g id="edge18" class="edge">
<title>MATH0006&#45;&gt;MATH0058</title>
<g id="a_edge18"><a xlink:title="required prerequisite">
<path fill="none" stroke="black" d="M1246.97,-154.55C1187.16,-126.71 1085.86,-79.56 1021.74,-49.71"/>
<polygon fill="black" stroke="black" points="1023.3,-46.57 1012.76,-45.53 1020.35,-52.92 1023.3,-46.57"/>
</a>
</g>
</g>
<!-- MATH0034 -->
<g id="node22" class="node">
<title>MATH0034</title>
<g id="a_node22"><a xlink:href="https://www.ucl.ac.uk/mathematical-physical-sciences/sites/mathematical_physical_sciences/files/math0034.pdf" xlink:title="Year 2 or 3, term 2">
<polygon fill="white" stroke="#8ee5ee" stroke-width="5" points="1318,-42.5 1189.5,-42.5 1189.5,0 1318,0 1318,-42.5"/>
<text xml:space="preserve" text-anchor="middle" x="1253.75" y="-25.2" font-family="Times,serif" font-size="14.00">MATH0034</text>
<text xml:space="preserve" text-anchor="middle" x="1253.75" y="-7.95" font-family="Times,serif" font-size="14.00">Number Theory</text>
</a>
</g>
</g>
<!-- MATH0006&#45;&gt;MATH0034 -->
<g id="edge20" class="edge">
<title>MATH0006&#45;&gt;MATH0034</title>
<g id="a_edge20"><a xlink:title="required prerequisite">
<path fill="none" stroke="black" d="M1289.64,-154.71C1282.58,-128.65 1270.89,-85.52 1262.78,-55.58"/>
<polygon fill="black" stroke="black" points="1266.25,-55.01 1260.26,-46.28 1259.5,-56.84 1266.25,-55.01"/>
</a>
</g>
</g>
<!-- MATH0009&#45;&gt;MATH0015 -->
<g id="edge7" class="edge">
<title>MATH0009&#45;&gt;MATH0015</title>
<g id="a_edge7"><a xlink:title="required prerequisite">
<path fill="none" stroke="black" d="M105.75,-154.71C105.75,-148.39 105.75,-141.37 105.75,-134.54"/>
<polygon fill="black" stroke="black" points="109.25,-134.91 105.75,-124.91 102.25,-134.91 109.25,-134.91"/>
</a>
</g>
</g>
<!-- MATH0007 -->
<g id="node11" class="node">
<title>MATH0007</title>
<g id="a_node11"><a xlink:href="https://www.ucl.ac.uk/mathematical-physical-sciences/sites/mathematical_physical_sciences/files/math0007.pdf" xlink:title="Year 1, term 2">
<polygon fill="white" stroke="#cd950c" stroke-width="5" points="2118.75,-199.5 1850.75,-199.5 1850.75,-157 2118.75,-157 2118.75,-199.5"/>
<text xml:space="preserve" text-anchor="middle" x="1984.75" y="-182.2" font-family="Times,serif" font-size="14.00">MATH0007</text>
<text xml:space="preserve" text-anchor="middle" x="1984.75" y="-164.95" font-family="Times,serif" font-size="14.00">Algebra for Joint Honours Students</text>
</a>
</g>
</g>
<!-- MATH0056 -->
<g id="node18" class="node">
<title>MATH0056</title>
<g id="a_node18"><a xlink:href="https://www.ucl.ac.uk/mathematical-physical-sciences/sites/mathematical_physical_sciences/files/math0056.pdf" xlink:title="Year 2 or 3, term 2">
<polygon fill="white" stroke="#8ee5ee" stroke-width="5" points="851,-42.5 656.5,-42.5 656.5,0 851,0 851,-42.5"/>
<text xml:space="preserve" text-anchor="middle" x="753.75" y="-25.2" font-family="Times,serif" font-size="14.00">MATH0056</text>
<text xml:space="preserve" text-anchor="middle" x="753.75" y="-7.95" font-family="Times,serif" font-size="14.00">Mathematical Methods 4</text>
</a>
</g>
</g>
<!-- MATH0013&#45;&gt;MATH0056 -->
<g id="edge14" class="edge">
<title>MATH0013&#45;&gt;MATH0056</title>
<g id="a_edge14"><a xlink:title="required prerequisite">
<path fill="none" stroke="black" d="M833.15,-76C821.65,-68.22 808.63,-59.4 796.51,-51.2"/>
<polygon fill="black" stroke="black" points="798.52,-48.33 788.28,-45.62 794.6,-54.13 798.52,-48.33"/>
</a>
</g>
</g>
<!-- MATH0016&#45;&gt;MATH0056 -->
<g id="edge15" class="edge">
<title>MATH0016&#45;&gt;MATH0056</title>
<g id="a_edge15"><a xlink:title="required prerequisite">
<path fill="none" stroke="black" d="M523.98,-76C562.18,-67.07 606.2,-56.77 645.42,-47.59"/>
<polygon fill="black" stroke="black" points="646.2,-51 655.14,-45.32 644.61,-44.19 646.2,-51"/>
</a>
</g>
</g>
<!-- MATH0055 -->
<g id="node21" class="node">
<title>MATH0055</title>
<g id="a_node21"><a xlink:href="https://www.ucl.ac.uk/mathematical-physical-sciences/sites/mathematical_physical_sciences/files/math0055_3.pdf" xlink:title="Year 2 or 3, term 2">
<polygon fill="white" stroke="#8ee5ee" stroke-width="5" points="638.38,-42.5 215.12,-42.5 215.12,0 638.38,0 638.38,-42.5"/>
<text xml:space="preserve" text-anchor="middle" x="426.75" y="-25.2" font-family="Times,serif" font-size="14.00">MATH0055</text>
<text xml:space="preserve" text-anchor="middle" x="426.75" y="-7.95" font-family="Times,serif" font-size="14.00">Mathematics of Electromagnetism and Special Relativity</text>
</a>
</g>
</g>
<!-- MATH0016&#45;&gt;MATH0055 -->
<g id="edge19" class="edge">
<title>MATH0016&#45;&gt;MATH0055</title>
<g id="a_edge19"><a xlink:title="required prerequisite">
<path fill="none" stroke="black" d="M426.75,-76.21C426.75,-69.89 426.75,-62.87 426.75,-56.04"/>
<polygon fill="black" stroke="black" points="430.25,-56.41 426.75,-46.41 423.25,-56.41 430.25,-56.41"/>
</a>
</g>
</g>
</g>
</svg>
