<?xml version="1.0" encoding="UTF-8" standalone="no"?>
<!DOCTYPE svg PUBLIC "-//W3C//DTD SVG 1.1//EN"
 "http://www.w3.org/Graphics/SVG/1.1/DTD/svg11.dtd">
<!-- Generated by graphviz version 14.1.1 (0)
 -->
<!-- Pages: 1 -->
<svg width="2286pt" height="286pt"
 viewBox="0.00 0.00 2286.00 286.00" xmlns="http://www.w3.org/2000/svg" xmlns:xlink="http://www.w3.org/1999/xlink">
<g id="graph0" class="graph" transform="scale(1 1) rotate(0) translate(4 282)">
<polygon fill="white" stroke="none" points="-4,4 -4,-282 2282.25,-282 2282.25,4 -4,4"/>
<!-- MATH0005 -->
<g id="node1" class="node">
<title>MATH0005</title>
<g id="a_node1"><a xlink:href="https://www.ucl.ac.uk/mathematical-physical-sciences/sites/mathematical_physical_sciences/files/2025-09/math0005 syllabus.pdf" xlink:title="Year 1, term 1">
<polygon fill="white" stroke="#ffb90f" stroke-width="5" points="349.75,-278 252.75,-278 252.75,-235.5 349.75,-235.5 349.75,-278"/>
<text xml:space="preserve" text-anchor="middle" x="301.25" y="-260.7" font-family="Times,serif" font-size="14.00">MATH0005</text>
<text xml:space="preserve" text-anchor="middle" x="301.25" y="-243.45" font-family="Times,serif" font-size="14.00">Algebra 1</text>
</a>
</g>
</g>
<!-- MATH0006 -->
<g id="node7" class="node">
<title>MATH0006</title>
<g id="a_node7"><a xlink:href="https://www.ucl.ac.uk/mathematical-physical-sciences/sites/mathematical_physical_sciences/files/math0006.pdf" xlink:title="Year 1, term 2">
<polygon fill="white" stroke="#cd950c" stroke-width="5" points="349.75,-199.5 252.75,-199.5 252.75,-157 349.75,-157 349.75,-199.5"/>
<text xml:space="preserve" text-anchor="middle" x="301.25" y="-182.2" font-family="Times,serif" font-size="14.00">MATH0006</text>
<text xml:space="preserve" text-anchor="middle" x="301.25" y="-164.95" font-family="Times,serif" font-size="14.00">Algebra 2</text>
</a>
</g>
</g>
<!-- MATH0005&#45;&gt;MATH0006 -->
<g id="edge1" class="edge">
<title>MATH0005&#45;&gt;MATH0006</title>
<g id="a_edge1"><a xlink:title="required prerequisite">
<path fill="none" stroke="black" d="M301.25,-233.21C301.25,-226.89 301.25,-219.87 301.25,-213.04"/>
<polygon fill="black" stroke="black" points="304.75,-213.41 301.25,-203.41 297.75,-213.41 304.75,-213.41"/>
</a>
</g>
</g>
<!-- MATH0010 -->
<g id="node2" class="node">
<title>MATH0010</title>
<g id="a_node2"><a xlink:href="https://www.ucl.ac.uk/mathematical-physical-sciences/sites/mathematical_physical_sciences/files/math0010.pdf" xlink:title="Year 1, term 1">
<polygon fill="white" stroke="#ffb90f" stroke-width="5" points="1027.5,-278 833,-278 833,-235.5 1027.5,-235.5 1027.5,-278"/>
<text xml:space="preserve" text-anchor="middle" x="930.25" y="-260.7" font-family="Times,serif" font-size="14.00">MATH0010</text>
<text xml:space="preserve" text-anchor="middle" x="930.25" y="-243.45" font-family="Times,serif" font-size="14.00">Mathematical Methods 1</text>
</a>
</g>
</g>
<!-- MATH0011 -->
<g id="node8" class="node">
<title>MATH0011</title>
<g id="a_node8"><a xlink:href="https://www.ucl.ac.uk/mathematical-physical-sciences/sites/mathematical_physical_sciences/files/math0011.pdf" xlink:title="Year 1, term 2">
<polygon fill="white" stroke="#cd950c" stroke-width="5" points="1027.5,-199.5 833,-199.5 833,-157 1027.5,-157 1027.5,-199.5"/>
<text xml:space="preserve" text-anchor="middle" x="930.25" y="-182.2" font-family="Times,serif" font-size="14.00">MATH0011</text>
<text xml:space="preserve" text-anchor="middle" x="930.25" y="-164.95" font-family="Times,serif" font-size="14.00">Mathematical Methods 2</text>
</a>
</g>
</g>
<!-- MATH0010&#45;&gt;MATH0011 -->
<g id="edge2" class="edge">
<title>MATH0010&#45;&gt;MATH0011</title>
<g id="a_edge2"><a xlink:title="required prerequisite">
<path fill="none" stroke="black" d="M930.25,-233.21C930.25,-226.89 930.25,-219.87 930.25,-213.04"/>
<polygon fill="black" stroke="black" points="933.75,-213.41 930.25,-203.41 926.75,-213.41 933.75,-213.41"/>
</a>
</g>
</g>
<!-- MATH0009 -->
<g id="node9" class="node">
<title>MATH0009</title>
<g id="a_node9"><a xlink:href="https://www.ucl.ac.uk/mathematical-physical-sciences/sites/mathematical_physical_sciences/files/math0009.pdf" xlink:title="Year 1, term 2">
<polygon fill="white" stroke="#cd950c" stroke-width="5" points="1219,-199.5 1045.5,-199.5 1045.5,-157 1219,-157 1219,-199.5"/>
<text xml:space="preserve" text-anchor="middle" x="1132.25" y="-182.2" font-family="Times,serif" font-size="14.00">MATH0009</text>
<text xml:space="preserve" text-anchor="middle" x="1132.25" y="-164.95" font-family="Times,serif" font-size="14.00">Newtonian Mechanics</text>
</a>
</g>
</g>
<!-- MATH0010&#45;&gt;MATH0009 -->
<g id="edge4" class="edge">
<title>MATH0010&#45;&gt;MATH0009</title>
<g id="a_edge4"><a xlink:title="required prerequisite">
<path fill="none" stroke="black" d="M990.31,-233C1012.8,-224.49 1038.55,-214.74 1061.89,-205.9"/>
<polygon fill="black" stroke="black" points="1062.89,-209.26 1071.01,-202.44 1060.41,-202.71 1062.89,-209.26"/>
</a>
</g>
</g>
<!-- MATH0058 -->
<g id="node17" class="node">
<title>MATH0058</title>
<g id="a_node17"><a xlink:href="https://www.ucl.ac.uk/mathematical-physical-sciences/sites/mathematical_physical_sciences/files/math0058.pdf" xlink:title="Year 2 or 3, term 2">
<polygon fill="white" stroke="#8ee5ee" stroke-width="5" points="634.12,-42.5 446.38,-42.5 446.38,0 634.12,0 634.12,-42.5"/>
<text xml:space="preserve" text-anchor="middle" x="540.25" y="-25.2" font-family="Times,serif" font-size="14.00">MATH0058</text>
<text xml:space="preserve" text-anchor="middle" x="540.25" y="-7.95" font-family="Times,serif" font-size="14.00">Computational Methods</text>
</a>
</g>
</g>
<!-- MATH0010&#45;&gt;MATH0058 -->
<g id="edge13" class="edge">
<title>MATH0010&#45;&gt;MATH0058</title>
<g id="a_edge13"><a xlink:title="required prerequisite">
<path fill="none" stroke="black" d="M885.78,-233.03C866.67,-223.05 844.19,-211 824.25,-199.5 737.8,-149.66 639.56,-86.95 584.24,-51.05"/>
<polygon fill="black" stroke="black" points="586.31,-48.22 576.02,-45.7 582.5,-54.09 586.31,-48.22"/>
</a>
</g>
</g>
<!-- MATH0003 -->
<g id="node3" class="node">
<title>MATH0003</title>
<g id="a_node3"><a xlink:href="https://www.ucl.ac.uk/mathematical-physical-sciences/sites/mathematical_physical_sciences/files/2025-09/math0003.pdf" xlink:title="Year 1, term 1">
<polygon fill="white" stroke="#ffb90f" stroke-width="5" points="1503.75,-278 1406.75,-278 1406.75,-235.5 1503.75,-235.5 1503.75,-278"/>
<text xml:space="preserve" text-anchor="middle" x="1455.25" y="-260.7" font-family="Times,serif" font-size="14.00">MATH0003</text>
<text xml:space="preserve" text-anchor="middle" x="1455.25" y="-243.45" font-family="Times,serif" font-size="14.00">Analysis 1</text>
</a>
</g>
</g>
<!-- MATH0004 -->
<g id="node10" class="node">
<title>MATH0004</title>
<g id="a_node10"><a xlink:href="https://www.ucl.ac.uk/mathematical-physical-sciences/sites/mathematical_physical_sciences/files/math0004.pdf" xlink:title="Year 1, term 2">
<polygon fill="white" stroke="#cd950c" stroke-width="5" points="1542.75,-199.5 1445.75,-199.5 1445.75,-157 1542.75,-157 1542.75,-199.5"/>
<text xml:space="preserve" text-anchor="middle" x="1494.25" y="-182.2" font-family="Times,serif" font-size="14.00">MATH0004</text>
<text xml:space="preserve" text-anchor="middle" x="1494.25" y="-164.95" font-family="Times,serif" font-size="14.00">Analysis 2</text>
</a>
</g>
</g>
<!-- MATH0003&#45;&gt;MATH0004 -->
<g id="edge5" class="edge">
<title>MATH0003&#45;&gt;MATH0004</title>
<g id="a_edge5"><a xlink:title="required prerequisite">
<path fill="none" stroke="black" d="M1466.74,-233.21C1470.12,-226.58 1473.89,-219.18 1477.53,-212.04"/>
<polygon fill="black" stroke="black" points="1480.6,-213.74 1482.02,-203.24 1474.36,-210.56 1480.6,-213.74"/>
</a>
</g>
</g>
<!-- MATH0013 -->
<g id="node15" class="node">
<title>MATH0013</title>
<g id="a_node15"><a xlink:href="https://www.ucl.ac.uk/mathematical-physical-sciences/sites/mathematical_physical_sciences/files/2025-09/math0013_0.pdf" xlink:title="Year 2, term 1">
<polygon fill="white" stroke="#00ff00" stroke-width="5" points="1531.38,-121 1303.12,-121 1303.12,-78.5 1531.38,-78.5 1531.38,-121"/>
<text xml:space="preserve" text-anchor="middle" x="1417.25" y="-103.7" font-family="Times,serif" font-size="14.00">MATH0013</text>
<text xml:space="preserve" text-anchor="middle" x="1417.25" y="-86.45" font-family="Times,serif" font-size="14.00">Analysis 3 &#45; Complex Analysis</text>
</a>
</g>
</g>
<!-- MATH0003&#45;&gt;MATH0013 -->
<g id="edge10" class="edge">
<title>MATH0003&#45;&gt;MATH0013</title>
<g id="a_edge10"><a xlink:title="required prerequisite">
<path fill="none" stroke="black" d="M1447.41,-233.2C1444.02,-222.99 1440.17,-210.71 1437.25,-199.5 1431.66,-178.05 1426.71,-153.65 1423.13,-134.46"/>
<polygon fill="black" stroke="black" points="1426.59,-133.96 1421.35,-124.75 1419.71,-135.22 1426.59,-133.96"/>
</a>
</g>
</g>
<!-- MATH0008 -->
<g id="node4" class="node">
<title>MATH0008</title>
<g id="a_node4"><a xlink:href="https://www.ucl.ac.uk/mathematical-physical-sciences/sites/mathematical_physical_sciences/files/math0008.pdf" xlink:title="Year 1, term 1">
<polygon fill="white" stroke="#ffb90f" stroke-width="5" points="1216,-278 1048.5,-278 1048.5,-235.5 1216,-235.5 1216,-278"/>
<text xml:space="preserve" text-anchor="middle" x="1132.25" y="-260.7" font-family="Times,serif" font-size="14.00">MATH0008</text>
<text xml:space="preserve" text-anchor="middle" x="1132.25" y="-243.45" font-family="Times,serif" font-size="14.00">Applied Mathematics</text>
</a>
</g>
</g>
<!-- MATH0008&#45;&gt;MATH0009 -->
<g id="edge3" class="edge">
<title>MATH0008&#45;&gt;MATH0009</title>
<g id="a_edge3"><a xlink:title="required prerequisite">
<path fill="none" stroke="black" d="M1132.25,-233.21C1132.25,-226.89 1132.25,-219.87 1132.25,-213.04"/>
<polygon fill="black" stroke="black" points="1135.75,-213.41 1132.25,-203.41 1128.75,-213.41 1135.75,-213.41"/>
</a>
</g>
</g>
<!-- MATH0110 -->
<g id="node5" class="node">
<title>MATH0110</title>
<g id="a_node5"><a xlink:href="https://www.ucl.ac.uk/mathematical-physical-sciences/sites/mathematical_physical_sciences/files/math0110_1.pdf" xlink:title="Year 1, term 1">
<polygon fill="white" stroke="#ffb90f" stroke-width="5" points="1724.62,-278 1521.88,-278 1521.88,-235.5 1724.62,-235.5 1724.62,-278"/>
<text xml:space="preserve" text-anchor="middle" x="1623.25" y="-260.7" font-family="Times,serif" font-size="14.00">MATH0110</text>
<text xml:space="preserve" text-anchor="middle" x="1623.25" y="-243.45" font-family="Times,serif" font-size="14.00">Analysis for Joint Honours</text>
</a>
</g>
</g>
<!-- MATH0002 -->
<g id="node6" class="node">
<title>MATH0002</title>
<g id="a_node6"><a xlink:href="https://www.ucl.ac.uk/mathematical-physical-sciences/sites/mathematical_physical_sciences/files/math0002.pdf" xlink:title="Year 1, term 1 and 2">
<polygon fill="white" stroke="#eead0e" stroke-width="5" points="1992.25,-278 1742.25,-278 1742.25,-235.5 1992.25,-235.5 1992.25,-278"/>
<text xml:space="preserve" text-anchor="middle" x="1867.25" y="-260.7" font-family="Times,serif" font-size="14.00">MATH0002</text>
<text xml:space="preserve" text-anchor="middle" x="1867.25" y="-243.45" font-family="Times,serif" font-size="14.00">Economics 1 &#45; Combined Studies</text>
</a>
</g>
</g>
<!-- STAT0001 -->
<g id="node16" class="node">
<title>STAT0001</title>
<g id="a_node16"><a xlink:href="https://www.ucl.ac.uk/mathematical-physical-sciences/sites/mathematical_physical_sciences/files/stat0001.pdf" xlink:title="Year 2, term 1 and 2">
<polygon fill="white" stroke="#00cd00" stroke-width="5" points="1992.25,-199.5 1742.25,-199.5 1742.25,-157 1992.25,-157 1992.25,-199.5"/>
<text xml:space="preserve" text-anchor="middle" x="1867.25" y="-182.2" font-family="Times,serif" font-size="14.00">STAT0001</text>
<text xml:space="preserve" text-anchor="middle" x="1867.25" y="-164.95" font-family="Times,serif" font-size="14.00">Economics 2 &#45; Combined Studies</text>
</a>
</g>
</g>
<!-- MATH0002&#45;&gt;STAT0001 -->
<g id="edge12" class="edge">
<title>MATH0002&#45;&gt;STAT0001</title>
<g id="a_edge12"><a xlink:title="required prerequisite">
<path fill="none" stroke="black" d="M1867.25,-233.21C1867.25,-226.89 1867.25,-219.87 1867.25,-213.04"/>
<polygon fill="black" stroke="black" points="1870.75,-213.41 1867.25,-203.41 1863.75,-213.41 1870.75,-213.41"/>
</a>
</g>
</g>
<!-- MATH0014 -->
<g id="node13" class="node">
<title>MATH0014</title>
<g id="a_node13"><a xlink:href="https://www.ucl.ac.uk/mathematical-physical-sciences/sites/mathematical_physical_sciences/files/2025-09/math0014_0.pdf" xlink:title="Year 2, term 1">
<polygon fill="white" stroke="#00ff00" stroke-width="5" points="352.12,-121 92.38,-121 92.38,-78.5 352.12,-78.5 352.12,-121"/>
<text xml:space="preserve" text-anchor="middle" x="222.25" y="-103.7" font-family="Times,serif" font-size="14.00">MATH0014</text>
<text xml:space="preserve" text-anchor="middle" x="222.25" y="-86.45" font-family="Times,serif" font-size="14.00">Algebra 3: Further Linear Algebra</text>
</a>
</g>
</g>
<!-- MATH0006&#45;&gt;MATH0014 -->
<g id="edge8" class="edge">
<title>MATH0006&#45;&gt;MATH0014</title>
<g id="a_edge8"><a xlink:title="required prerequisite">
<path fill="none" stroke="black" d="M277.97,-154.71C270.41,-147.38 261.88,-139.13 253.81,-131.31"/>
<polygon fill="black" stroke="black" points="256.34,-128.89 246.72,-124.44 251.47,-133.92 256.34,-128.89"/>
</a>
</g>
</g>
<!-- MATH0006&#45;&gt;MATH0058 -->
<g id="edge14" class="edge">
<title>MATH0006&#45;&gt;MATH0058</title>
<g id="a_edge14"><a xlink:title="required prerequisite">
<path fill="none" stroke="black" d="M336.26,-154.55C378.63,-127.07 450,-80.78 496.1,-50.88"/>
<polygon fill="black" stroke="black" points="497.78,-53.96 504.27,-45.59 493.97,-48.09 497.78,-53.96"/>
</a>
</g>
</g>
<!-- MATH0034 -->
<g id="node21" class="node">
<title>MATH0034</title>
<g id="a_node21"><a xlink:href="https://www.ucl.ac.uk/mathematical-physical-sciences/sites/mathematical_physical_sciences/files/math0034.pdf" xlink:title="Year 2 or 3, term 2">
<polygon fill="white" stroke="#8ee5ee" stroke-width="5" points="128.5,-42.5 0,-42.5 0,0 128.5,0 128.5,-42.5"/>
<text xml:space="preserve" text-anchor="middle" x="64.25" y="-25.2" font-family="Times,serif" font-size="14.00">MATH0034</text>
<text xml:space="preserve" text-anchor="middle" x="64.25" y="-7.95" font-family="Times,serif" font-size="14.00">Number Theory</text>
</a>
</g>
</g>
<!-- MATH0006&#45;&gt;MATH0034 -->
<g id="edge19" class="edge">
<title>MATH0006&#45;&gt;MATH0034</title>
<g id="a_edge19"><a xlink:title="required prerequisite">
<path fill="none" stroke="black" d="M250.41,-170.48C193.37,-161.83 105.83,-145.04 83.25,-121 67.19,-103.9 62.75,-77.55 62.16,-56.36"/>
<polygon fill="black" stroke="black" points="65.66,-56.43 62.19,-46.42 58.66,-56.41 65.66,-56.43"/>
</a>
</g>
</g>
<!-- MATH0053 -->
<g id="node23" class="node">
<title>MATH0053</title>
<g id="a_node23"><a xlink:href="https://www.ucl.ac.uk/mathematical-physical-sciences/sites/mathematical_physical_sciences/files/math0053.pdf" xlink:title="Year 2 or 3, term 2">
<polygon fill="white" stroke="#8ee5ee" stroke-width="5" points="428.75,-42.5 331.75,-42.5 331.75,0 428.75,0 428.75,-42.5"/>
<text xml:space="preserve" text-anchor="middle" x="380.25" y="-25.2" font-family="Times,serif" font-size="14.00">MATH0053</text>
<text xml:space="preserve" text-anchor="middle" x="380.25" y="-7.95" font-family="Times,serif" font-size="14.00">Algebra 4</text>
</a>
</g>
</g>
<!-- MATH0006&#45;&gt;MATH0053 -->
<g id="edge21" class="edge">
<title>MATH0006&#45;&gt;MATH0053</title>
<g id="a_edge21"><a xlink:title="required prerequisite">
<path fill="none" stroke="black" d="M332.63,-154.52C343.26,-145.27 354.22,-133.75 361.25,-121 372.19,-101.16 376.92,-76.05 378.93,-56.12"/>
<polygon fill="black" stroke="black" points="382.41,-56.52 379.72,-46.27 375.43,-55.96 382.41,-56.52"/>
</a>
</g>
</g>
<!-- MATH0015 -->
<g id="node12" class="node">
<title>MATH0015</title>
<g id="a_node12"><a xlink:href="https://www.ucl.ac.uk/mathematical-physical-sciences/sites/mathematical_physical_sciences/files/2025-09/math0015.pdf" xlink:title="Year 2, term 1">
<polygon fill="white" stroke="#00ff00" stroke-width="5" points="1198.75,-121 1065.75,-121 1065.75,-78.5 1198.75,-78.5 1198.75,-121"/>
<text xml:space="preserve" text-anchor="middle" x="1132.25" y="-103.7" font-family="Times,serif" font-size="14.00">MATH0015</text>
<text xml:space="preserve" text-anchor="middle" x="1132.25" y="-86.45" font-family="Times,serif" font-size="14.00">Fluid Mechanics</text>
</a>
</g>
</g>
<!-- MATH0011&#45;&gt;MATH0015 -->
<g id="edge6" class="edge">
<title>MATH0011&#45;&gt;MATH0015</title>
<g id="a_edge6"><a xlink:title="required prerequisite">
<path fill="none" stroke="black" d="M990.31,-154.5C1012.8,-145.99 1038.55,-136.24 1061.89,-127.4"/>
<polygon fill="black" stroke="black" points="1062.89,-130.76 1071.01,-123.94 1060.41,-124.21 1062.89,-130.76"/>
</a>
</g>
</g>
<!-- MATH0016 -->
<g id="node14" class="node">
<title>MATH0016</title>
<g id="a_node14"><a xlink:href="https://www.ucl.ac.uk/mathematical-physical-sciences/sites/mathematical_physical_sciences/files/2025-09/math0016_0.pdf" xlink:title="Year 2, term 1">
<polygon fill="white" stroke="#00ff00" stroke-width="5" points="1047.5,-121 853,-121 853,-78.5 1047.5,-78.5 1047.5,-121"/>
<text xml:space="preserve" text-anchor="middle" x="950.25" y="-103.7" font-family="Times,serif" font-size="14.00">MATH0016</text>
<text xml:space="preserve" text-anchor="middle" x="950.25" y="-86.45" font-family="Times,serif" font-size="14.00">Mathematical Methods 3</text>
</a>
</g>
</g>
<!-- MATH0011&#45;&gt;MATH0016 -->
<g id="edge9" class="edge">
<title>MATH0011&#45;&gt;MATH0016</title>
<g id="a_edge9"><a xlink:title="required prerequisite">
<path fill="none" stroke="black" d="M936.14,-154.71C937.84,-148.23 939.72,-141.03 941.55,-134.04"/>
<polygon fill="black" stroke="black" points="944.8,-135.42 943.95,-124.86 938.03,-133.65 944.8,-135.42"/>
</a>
</g>
</g>
<!-- MATH0057 -->
<g id="node19" class="node">
<title>MATH0057</title>
<g id="a_node19"><a xlink:href="https://www.ucl.ac.uk/mathematical-physical-sciences/sites/mathematical_physical_sciences/files/math0057.pdf" xlink:title="Year 2 or 3, term 2">
<polygon fill="white" stroke="#8ee5ee" stroke-width="5" points="850,-42.5 652.5,-42.5 652.5,0 850,0 850,-42.5"/>
<text xml:space="preserve" text-anchor="middle" x="751.25" y="-25.2" font-family="Times,serif" font-size="14.00">MATH0057</text>
<text xml:space="preserve" text-anchor="middle" x="751.25" y="-7.95" font-family="Times,serif" font-size="14.00">Probability and Statistics</text>
</a>
</g>
</g>
<!-- MATH0011&#45;&gt;MATH0057 -->
<g id="edge16" class="edge">
<title>MATH0011&#45;&gt;MATH0057</title>
<g id="a_edge16"><a xlink:title="required prerequisite">
<path fill="none" stroke="black" d="M891.63,-154.72C876.31,-145.1 858.88,-133.26 844.25,-121 819.72,-100.45 795.03,-73.89 777.25,-53.49"/>
<polygon fill="black" stroke="black" points="780.01,-51.33 770.83,-46.03 774.7,-55.89 780.01,-51.33"/>
</a>
</g>
</g>
<!-- MATH0009&#45;&gt;MATH0015 -->
<g id="edge7" class="edge">
<title>MATH0009&#45;&gt;MATH0015</title>
<g id="a_edge7"><a xlink:title="required prerequisite">
<path fill="none" stroke="black" d="M1132.25,-154.71C1132.25,-148.39 1132.25,-141.37 1132.25,-134.54"/>
<polygon fill="black" stroke="black" points="1135.75,-134.91 1132.25,-124.91 1128.75,-134.91 1135.75,-134.91"/>
</a>
</g>
</g>
<!-- MATH0004&#45;&gt;MATH0013 -->
<g id="edge11" class="edge">
<title>MATH0004&#45;&gt;MATH0013</title>
<g id="a_edge11"><a xlink:title="recommended prerequisite">
<path fill="none" stroke="black" stroke-dasharray="5,2" d="M1471.56,-154.71C1464.11,-147.31 1455.7,-138.95 1447.77,-131.07"/>
<polygon fill="black" stroke="black" points="1450.67,-129.02 1441.11,-124.46 1445.74,-133.99 1450.67,-129.02"/>
</a>
</g>
</g>
<!-- MATH0051 -->
<g id="node18" class="node">
<title>MATH0051</title>
<g id="a_node18"><a xlink:href="https://www.ucl.ac.uk/mathematical-physical-sciences/sites/mathematical_physical_sciences/files/math0051.pdf" xlink:title="Year 2 or 3, term 2">
<polygon fill="white" stroke="#8ee5ee" stroke-width="5" points="1618.75,-42.5 1521.75,-42.5 1521.75,0 1618.75,0 1618.75,-42.5"/>
<text xml:space="preserve" text-anchor="middle" x="1570.25" y="-25.2" font-family="Times,serif" font-size="14.00">MATH0051</text>
<text xml:space="preserve" text-anchor="middle" x="1570.25" y="-7.95" font-family="Times,serif" font-size="14.00">Analysis 4</text>
</a>
</g>
</g>
<!-- MATH0004&#45;&gt;MATH0051 -->
<g id="edge15" class="edge">
<title>MATH0004&#45;&gt;MATH0051</title>
<g id="a_edge15"><a xlink:title="required prerequisite">
<path fill="none" stroke="black" d="M1516.16,-154.64C1524.65,-144.91 1533.84,-133.02 1540.25,-121 1551.13,-100.61 1558.66,-75.71 1563.46,-56.01"/>
<polygon fill="black" stroke="black" points="1566.87,-56.8 1565.69,-46.27 1560.04,-55.23 1566.87,-56.8"/>
</a>
</g>
</g>
<!-- MATH0007 -->
<g id="node11" class="node">
<title>MATH0007</title>
<g id="a_node11"><a xlink:href="https://www.ucl.ac.uk/mathematical-physical-sciences/sites/mathematical_physical_sciences/files/math0007.pdf" xlink:title="Year 1, term 2">
<polygon fill="white" stroke="#cd950c" stroke-width="5" points="2278.25,-199.5 2010.25,-199.5 2010.25,-157 2278.25,-157 2278.25,-199.5"/>
<text xml:space="preserve" text-anchor="middle" x="2144.25" y="-182.2" font-family="Times,serif" font-size="14.00">MATH0007</text>
<text xml:space="preserve" text-anchor="middle" x="2144.25" y="-164.95" font-family="Times,serif" font-size="14.00">Algebra for Joint Honours Students</text>
</a>
</g>
</g>
<!-- MATH0056 -->
<g id="node20" class="node">
<title>MATH0056</title>
<g id="a_node20"><a xlink:href="https://www.ucl.ac.uk/mathematical-physical-sciences/sites/mathematical_physical_sciences/files/math0056.pdf" xlink:title="Year 2 or 3, term 2">
<polygon fill="white" stroke="#8ee5ee" stroke-width="5" points="1503.5,-42.5 1309,-42.5 1309,0 1503.5,0 1503.5,-42.5"/>
<text xml:space="preserve" text-anchor="middle" x="1406.25" y="-25.2" font-family="Times,serif" font-size="14.00">MATH0056</text>
<text xml:space="preserve" text-anchor="middle" x="1406.25" y="-7.95" font-family="Times,serif" font-size="14.00">Mathematical Methods 4</text>
</a>
</g>
</g>
<!-- MATH0016&#45;&gt;MATH0056 -->
<g id="edge18" class="edge">
<title>MATH0016&#45;&gt;MATH0056</title>
<g id="a_edge18"><a xlink:title="required prerequisite">
<path fill="none" stroke="black" d="M1049.81,-79.6C1051.98,-79.23 1054.13,-78.86 1056.25,-78.5 1160.74,-60.82 1190.23,-60.77 1295.56,-43.26"/>
<polygon fill="black" stroke="black" points="1295.91,-46.75 1305.19,-41.65 1294.75,-39.85 1295.91,-46.75"/>
</a>
</g>
</g>
<!-- MATH0055 -->
<g id="node22" class="node">
<title>MATH0055</title>
<g id="a_node22"><a xlink:href="https://www.ucl.ac.uk/mathematical-physical-sciences/sites/mathematical_physical_sciences/files/math0055_3.pdf" xlink:title="Year 2 or 3, term 2">
<polygon fill="white" stroke="#8ee5ee" stroke-width="5" points="1290.88,-42.5 867.62,-42.5 867.62,0 1290.88,0 1290.88,-42.5"/>
<text xml:space="preserve" text-anchor="middle" x="1079.25" y="-25.2" font-family="Times,serif" font-size="14.00">MATH0055</text>
<text xml:space="preserve" text-anchor="middle" x="1079.25" y="-7.95" font-family="Times,serif" font-size="14.00">Mathematics of Electromagnetism and Special Relativity</text>
</a>
</g>
</g>
<!-- MATH0016&#45;&gt;MATH0055 -->
<g id="edge20" class="edge">
<title>MATH0016&#45;&gt;MATH0055</title>
<g id="a_edge20"><a xlink:title="required prerequisite">
<path fill="none" stroke="black" d="M988.6,-76C1002.12,-67.99 1017.48,-58.88 1031.67,-50.47"/>
<polygon fill="black" stroke="black" points="1033.15,-53.66 1039.96,-45.55 1029.58,-47.64 1033.15,-53.66"/>
</a>
</g>
</g>
<!-- MATH0013&#45;&gt;MATH0056 -->
<g id="edge17" class="edge">
<title>MATH0013&#45;&gt;MATH0056</title>
<g id="a_edge17"><a xlink:title="required prerequisite">
<path fill="none" stroke="black" d="M1414.01,-76.21C1413.1,-69.89 1412.09,-62.87 1411.11,-56.04"/>
<polygon fill="black" stroke="black" points="1414.61,-55.79 1409.72,-46.39 1407.68,-56.79 1414.61,-55.79"/>
</a>
</g>
</g>
</g>
</svg>
