<?xml version="1.0" encoding="UTF-8" standalone="no"?>
<!DOCTYPE svg PUBLIC "-//W3C//DTD SVG 1.1//EN"
 "http://www.w3.org/Graphics/SVG/1.1/DTD/svg11.dtd">
<!-- Generated by graphviz version 14.0.5 (0)
 -->
<!-- Pages: 1 -->
<svg width="1710pt" height="280pt"
 viewBox="0.00 0.00 1710.00 280.00" xmlns="http://www.w3.org/2000/svg" xmlns:xlink="http://www.w3.org/1999/xlink">
<g id="graph0" class="graph" transform="scale(1 1) rotate(0) translate(4 276)">
<polygon fill="white" stroke="none" points="-4,4 -4,-276 1705.62,-276 1705.62,4 -4,4"/>
<!-- MATH0010 -->
<g id="node1" class="node">
<title>MATH0010</title>
<g id="a_node1"><a xlink:href="https://www.ucl.ac.uk/mathematical-physical-sciences/sites/mathematical_physical_sciences/files/math0010.pdf" xlink:title="Year 1, term 1">
<polygon fill="white" stroke="#ffb90f" stroke-width="5" points="311.88,-272 157.88,-272 157.88,-231 311.88,-231 311.88,-272"/>
<text xml:space="preserve" text-anchor="middle" x="234.88" y="-254.7" font-family="Times,serif" font-size="14.00">MATH0010</text>
<text xml:space="preserve" text-anchor="middle" x="234.88" y="-238.2" font-family="Times,serif" font-size="14.00">Mathematical Methods 1</text>
</a>
</g>
</g>
<!-- MATH0009 -->
<g id="node8" class="node">
<title>MATH0009</title>
<g id="a_node8"><a xlink:href="https://www.ucl.ac.uk/mathematical-physical-sciences/sites/mathematical_physical_sciences/files/math0009.pdf" xlink:title="Year 1, term 2">
<polygon fill="white" stroke="#cd950c" stroke-width="5" points="140,-195 1.75,-195 1.75,-154 140,-154 140,-195"/>
<text xml:space="preserve" text-anchor="middle" x="70.88" y="-177.7" font-family="Times,serif" font-size="14.00">MATH0009</text>
<text xml:space="preserve" text-anchor="middle" x="70.88" y="-161.2" font-family="Times,serif" font-size="14.00">Newtonian Mechanics</text>
</a>
</g>
</g>
<!-- MATH0010&#45;&gt;MATH0009 -->
<g id="edge3" class="edge">
<title>MATH0010&#45;&gt;MATH0009</title>
<g id="a_edge3"><a xlink:title="required prerequisite">
<path fill="none" stroke="black" d="M187,-228.61C168.89,-220.32 148.08,-210.81 129.12,-202.14"/>
<polygon fill="black" stroke="black" points="130.74,-199.03 120.19,-198.05 127.83,-205.39 130.74,-199.03"/>
</a>
</g>
</g>
<!-- MATH0011 -->
<g id="node9" class="node">
<title>MATH0011</title>
<g id="a_node9"><a xlink:href="https://www.ucl.ac.uk/mathematical-physical-sciences/sites/mathematical_physical_sciences/files/math0011_3.pdf" xlink:title="Year 1, term 2">
<polygon fill="white" stroke="#cd950c" stroke-width="5" points="311.88,-195 157.88,-195 157.88,-154 311.88,-154 311.88,-195"/>
<text xml:space="preserve" text-anchor="middle" x="234.88" y="-177.7" font-family="Times,serif" font-size="14.00">MATH0011</text>
<text xml:space="preserve" text-anchor="middle" x="234.88" y="-161.2" font-family="Times,serif" font-size="14.00">Mathematical Methods 2</text>
</a>
</g>
</g>
<!-- MATH0010&#45;&gt;MATH0011 -->
<g id="edge4" class="edge">
<title>MATH0010&#45;&gt;MATH0011</title>
<g id="a_edge4"><a xlink:title="required prerequisite">
<path fill="none" stroke="black" d="M234.88,-228.81C234.88,-222.56 234.88,-215.61 234.88,-208.83"/>
<polygon fill="black" stroke="black" points="238.38,-208.92 234.88,-198.92 231.38,-208.92 238.38,-208.92"/>
</a>
</g>
</g>
<!-- MATH0058 -->
<g id="node18" class="node">
<title>MATH0058</title>
<g id="a_node18"><a xlink:href="https://www.ucl.ac.uk/mathematical-physical-sciences/sites/mathematical_physical_sciences/files/math0058.pdf" xlink:title="Year 2 or 3, term 2">
<polygon fill="white" stroke="#8ee5ee" stroke-width="5" points="838.25,-41 689.5,-41 689.5,0 838.25,0 838.25,-41"/>
<text xml:space="preserve" text-anchor="middle" x="763.88" y="-23.7" font-family="Times,serif" font-size="14.00">MATH0058</text>
<text xml:space="preserve" text-anchor="middle" x="763.88" y="-7.2" font-family="Times,serif" font-size="14.00">Computational Methods</text>
</a>
</g>
</g>
<!-- MATH0010&#45;&gt;MATH0058 -->
<g id="edge14" class="edge">
<title>MATH0010&#45;&gt;MATH0058</title>
<g id="a_edge14"><a xlink:title="required prerequisite">
<path fill="none" stroke="black" d="M273.57,-228.56C336.8,-193.3 466.89,-123.33 582.88,-77 612.78,-65.06 646.3,-54.13 676.3,-45.18"/>
<polygon fill="black" stroke="black" points="677.12,-48.59 685.72,-42.41 675.14,-41.87 677.12,-48.59"/>
</a>
</g>
</g>
<!-- MATH0003 -->
<g id="node2" class="node">
<title>MATH0003</title>
<g id="a_node2"><a xlink:href="https://www.ucl.ac.uk/mathematical-physical-sciences/sites/mathematical_physical_sciences/files/2025-09/math0003.pdf" xlink:title="Year 1, term 1">
<polygon fill="white" stroke="#ffb90f" stroke-width="5" points="759.88,-272 677.88,-272 677.88,-231 759.88,-231 759.88,-272"/>
<text xml:space="preserve" text-anchor="middle" x="718.88" y="-254.7" font-family="Times,serif" font-size="14.00">MATH0003</text>
<text xml:space="preserve" text-anchor="middle" x="718.88" y="-238.2" font-family="Times,serif" font-size="14.00">Analysis 1</text>
</a>
</g>
</g>
<!-- MATH0004 -->
<g id="node10" class="node">
<title>MATH0004</title>
<g id="a_node10"><a xlink:href="https://www.ucl.ac.uk/mathematical-physical-sciences/sites/mathematical_physical_sciences/files/math0004.pdf" xlink:title="Year 1, term 2">
<polygon fill="white" stroke="#cd950c" stroke-width="5" points="794.88,-195 712.88,-195 712.88,-154 794.88,-154 794.88,-195"/>
<text xml:space="preserve" text-anchor="middle" x="753.88" y="-177.7" font-family="Times,serif" font-size="14.00">MATH0004</text>
<text xml:space="preserve" text-anchor="middle" x="753.88" y="-161.2" font-family="Times,serif" font-size="14.00">Analysis 2</text>
</a>
</g>
</g>
<!-- MATH0003&#45;&gt;MATH0004 -->
<g id="edge5" class="edge">
<title>MATH0003&#45;&gt;MATH0004</title>
<g id="a_edge5"><a xlink:title="required prerequisite">
<path fill="none" stroke="black" d="M729,-228.81C732.06,-222.26 735.48,-214.92 738.79,-207.83"/>
<polygon fill="black" stroke="black" points="741.96,-209.32 743.01,-198.78 735.61,-206.36 741.96,-209.32"/>
</a>
</g>
</g>
<!-- MATH0013 -->
<g id="node15" class="node">
<title>MATH0013</title>
<g id="a_node15"><a xlink:href="https://www.ucl.ac.uk/mathematical-physical-sciences/sites/mathematical_physical_sciences/files/2025-09/math0013_0.pdf" xlink:title="Year 2, term 1">
<polygon fill="white" stroke="#00ff00" stroke-width="5" points="778,-118 591.75,-118 591.75,-77 778,-77 778,-118"/>
<text xml:space="preserve" text-anchor="middle" x="684.88" y="-100.7" font-family="Times,serif" font-size="14.00">MATH0013</text>
<text xml:space="preserve" text-anchor="middle" x="684.88" y="-84.2" font-family="Times,serif" font-size="14.00">Analysis 3 &#45; Complex Analysis</text>
</a>
</g>
</g>
<!-- MATH0003&#45;&gt;MATH0013 -->
<g id="edge10" class="edge">
<title>MATH0003&#45;&gt;MATH0013</title>
<g id="a_edge10"><a xlink:title="required prerequisite">
<path fill="none" stroke="black" d="M712.61,-228.71C709.77,-218.51 706.48,-206.18 703.88,-195 698.98,-174.03 694.3,-150.3 690.81,-131.62"/>
<polygon fill="black" stroke="black" points="694.27,-131.13 689.02,-121.93 687.39,-132.4 694.27,-131.13"/>
</a>
</g>
</g>
<!-- MATH0110 -->
<g id="node3" class="node">
<title>MATH0110</title>
<g id="a_node3"><a xlink:href="https://www.ucl.ac.uk/mathematical-physical-sciences/sites/mathematical_physical_sciences/files/math0110_1.pdf" xlink:title="Year 1, term 1">
<polygon fill="white" stroke="#ffb90f" stroke-width="5" points="1256.38,-272 1093.38,-272 1093.38,-231 1256.38,-231 1256.38,-272"/>
<text xml:space="preserve" text-anchor="middle" x="1174.88" y="-254.7" font-family="Times,serif" font-size="14.00">MATH0110</text>
<text xml:space="preserve" text-anchor="middle" x="1174.88" y="-238.2" font-family="Times,serif" font-size="14.00">Analysis for Joint Honours</text>
</a>
</g>
</g>
<!-- MATH0005 -->
<g id="node4" class="node">
<title>MATH0005</title>
<g id="a_node4"><a xlink:href="https://www.ucl.ac.uk/mathematical-physical-sciences/sites/mathematical_physical_sciences/files/2025-09/math0005 syllabus.pdf" xlink:title="Year 1, term 1">
<polygon fill="white" stroke="#ffb90f" stroke-width="5" points="1074.88,-272 992.88,-272 992.88,-231 1074.88,-231 1074.88,-272"/>
<text xml:space="preserve" text-anchor="middle" x="1033.88" y="-254.7" font-family="Times,serif" font-size="14.00">MATH0005</text>
<text xml:space="preserve" text-anchor="middle" x="1033.88" y="-238.2" font-family="Times,serif" font-size="14.00">Algebra 1</text>
</a>
</g>
</g>
<!-- MATH0006 -->
<g id="node7" class="node">
<title>MATH0006</title>
<g id="a_node7"><a xlink:href="https://www.ucl.ac.uk/mathematical-physical-sciences/sites/mathematical_physical_sciences/files/math0006.pdf" xlink:title="Year 1, term 2">
<polygon fill="white" stroke="#cd950c" stroke-width="5" points="1074.88,-195 992.88,-195 992.88,-154 1074.88,-154 1074.88,-195"/>
<text xml:space="preserve" text-anchor="middle" x="1033.88" y="-177.7" font-family="Times,serif" font-size="14.00">MATH0006</text>
<text xml:space="preserve" text-anchor="middle" x="1033.88" y="-161.2" font-family="Times,serif" font-size="14.00">Algebra 2</text>
</a>
</g>
</g>
<!-- MATH0005&#45;&gt;MATH0006 -->
<g id="edge1" class="edge">
<title>MATH0005&#45;&gt;MATH0006</title>
<g id="a_edge1"><a xlink:title="required prerequisite">
<path fill="none" stroke="black" d="M1033.88,-228.81C1033.88,-222.56 1033.88,-215.61 1033.88,-208.83"/>
<polygon fill="black" stroke="black" points="1037.38,-208.92 1033.88,-198.92 1030.38,-208.92 1037.38,-208.92"/>
</a>
</g>
</g>
<!-- MATH0008 -->
<g id="node5" class="node">
<title>MATH0008</title>
<g id="a_node5"><a xlink:href="https://www.ucl.ac.uk/mathematical-physical-sciences/sites/mathematical_physical_sciences/files/math0008.pdf" xlink:title="Year 1, term 1">
<polygon fill="white" stroke="#ffb90f" stroke-width="5" points="138.12,-272 3.62,-272 3.62,-231 138.12,-231 138.12,-272"/>
<text xml:space="preserve" text-anchor="middle" x="70.88" y="-254.7" font-family="Times,serif" font-size="14.00">MATH0008</text>
<text xml:space="preserve" text-anchor="middle" x="70.88" y="-238.2" font-family="Times,serif" font-size="14.00">Applied Mathematics</text>
</a>
</g>
</g>
<!-- MATH0008&#45;&gt;MATH0009 -->
<g id="edge2" class="edge">
<title>MATH0008&#45;&gt;MATH0009</title>
<g id="a_edge2"><a xlink:title="required prerequisite">
<path fill="none" stroke="black" d="M70.88,-228.81C70.88,-222.56 70.88,-215.61 70.88,-208.83"/>
<polygon fill="black" stroke="black" points="74.38,-208.92 70.88,-198.92 67.38,-208.92 74.38,-208.92"/>
</a>
</g>
</g>
<!-- MATH0002 -->
<g id="node6" class="node">
<title>MATH0002</title>
<g id="a_node6"><a xlink:href="https://www.ucl.ac.uk/mathematical-physical-sciences/sites/mathematical_physical_sciences/files/math0002.pdf" xlink:title="Year 1, term 1 and 2">
<polygon fill="white" stroke="#eead0e" stroke-width="5" points="1473.75,-272 1274,-272 1274,-231 1473.75,-231 1473.75,-272"/>
<text xml:space="preserve" text-anchor="middle" x="1373.88" y="-254.7" font-family="Times,serif" font-size="14.00">MATH0002</text>
<text xml:space="preserve" text-anchor="middle" x="1373.88" y="-238.2" font-family="Times,serif" font-size="14.00">Economics 1 &#45; Combined Studies</text>
</a>
</g>
</g>
<!-- STAT0001 -->
<g id="node16" class="node">
<title>STAT0001</title>
<g id="a_node16"><a xlink:href="https://www.ucl.ac.uk/mathematical-physical-sciences/sites/mathematical_physical_sciences/files/stat0001.pdf" xlink:title="Year 2, term 1 and 2">
<polygon fill="white" stroke="#00cd00" stroke-width="5" points="1473.75,-195 1274,-195 1274,-154 1473.75,-154 1473.75,-195"/>
<text xml:space="preserve" text-anchor="middle" x="1373.88" y="-177.7" font-family="Times,serif" font-size="14.00">STAT0001</text>
<text xml:space="preserve" text-anchor="middle" x="1373.88" y="-161.2" font-family="Times,serif" font-size="14.00">Economics 2 &#45; Combined Studies</text>
</a>
</g>
</g>
<!-- MATH0002&#45;&gt;STAT0001 -->
<g id="edge12" class="edge">
<title>MATH0002&#45;&gt;STAT0001</title>
<g id="a_edge12"><a xlink:title="required prerequisite">
<path fill="none" stroke="black" d="M1373.88,-228.81C1373.88,-222.56 1373.88,-215.61 1373.88,-208.83"/>
<polygon fill="black" stroke="black" points="1377.38,-208.92 1373.88,-198.92 1370.38,-208.92 1377.38,-208.92"/>
</a>
</g>
</g>
<!-- MATH0014 -->
<g id="node12" class="node">
<title>MATH0014</title>
<g id="a_node12"><a xlink:href="https://www.ucl.ac.uk/mathematical-physical-sciences/sites/mathematical_physical_sciences/files/2025-09/math0014_0.pdf" xlink:title="Year 2, term 1">
<polygon fill="white" stroke="#00ff00" stroke-width="5" points="1301.25,-118 1098.5,-118 1098.5,-77 1301.25,-77 1301.25,-118"/>
<text xml:space="preserve" text-anchor="middle" x="1199.88" y="-100.7" font-family="Times,serif" font-size="14.00">MATH0014</text>
<text xml:space="preserve" text-anchor="middle" x="1199.88" y="-84.2" font-family="Times,serif" font-size="14.00">Algebra 3: Further Linear Algebra</text>
</a>
</g>
</g>
<!-- MATH0006&#45;&gt;MATH0014 -->
<g id="edge6" class="edge">
<title>MATH0006&#45;&gt;MATH0014</title>
<g id="a_edge6"><a xlink:title="required prerequisite">
<path fill="none" stroke="black" d="M1077.06,-153.99C1096.53,-145.19 1119.84,-134.66 1140.9,-125.15"/>
<polygon fill="black" stroke="black" points="1142.29,-128.36 1149.97,-121.05 1139.41,-121.98 1142.29,-128.36"/>
</a>
</g>
</g>
<!-- MATH0006&#45;&gt;MATH0058 -->
<g id="edge15" class="edge">
<title>MATH0006&#45;&gt;MATH0058</title>
<g id="a_edge15"><a xlink:title="required prerequisite">
<path fill="none" stroke="black" d="M994.9,-151.56C946.75,-124.45 864.79,-78.31 812.55,-48.9"/>
<polygon fill="black" stroke="black" points="814.59,-46.03 804.15,-44.18 811.15,-52.13 814.59,-46.03"/>
</a>
</g>
</g>
<!-- MATH0034 -->
<g id="node20" class="node">
<title>MATH0034</title>
<g id="a_node20"><a xlink:href="https://www.ucl.ac.uk/mathematical-physical-sciences/sites/mathematical_physical_sciences/files/math0034.pdf" xlink:title="Year 2 or 3, term 2">
<polygon fill="white" stroke="#8ee5ee" stroke-width="5" points="1159.38,-41 1056.38,-41 1056.38,0 1159.38,0 1159.38,-41"/>
<text xml:space="preserve" text-anchor="middle" x="1107.88" y="-23.7" font-family="Times,serif" font-size="14.00">MATH0034</text>
<text xml:space="preserve" text-anchor="middle" x="1107.88" y="-7.2" font-family="Times,serif" font-size="14.00">Number Theory</text>
</a>
</g>
</g>
<!-- MATH0006&#45;&gt;MATH0034 -->
<g id="edge18" class="edge">
<title>MATH0006&#45;&gt;MATH0034</title>
<g id="a_edge18"><a xlink:title="required prerequisite">
<path fill="none" stroke="black" d="M1044.48,-151.72C1057.01,-125.99 1077.96,-82.95 1092.33,-53.44"/>
<polygon fill="black" stroke="black" points="1095.4,-55.12 1096.63,-44.6 1089.11,-52.06 1095.4,-55.12"/>
</a>
</g>
</g>
<!-- MATH0053 -->
<g id="node21" class="node">
<title>MATH0053</title>
<g id="a_node21"><a xlink:href="https://www.ucl.ac.uk/mathematical-physical-sciences/sites/mathematical_physical_sciences/files/math0053.pdf" xlink:title="Year 2 or 3, term 2">
<polygon fill="white" stroke="#8ee5ee" stroke-width="5" points="1037.88,-41 955.88,-41 955.88,0 1037.88,0 1037.88,-41"/>
<text xml:space="preserve" text-anchor="middle" x="996.88" y="-23.7" font-family="Times,serif" font-size="14.00">MATH0053</text>
<text xml:space="preserve" text-anchor="middle" x="996.88" y="-7.2" font-family="Times,serif" font-size="14.00">Algebra 4</text>
</a>
</g>
</g>
<!-- MATH0006&#45;&gt;MATH0053 -->
<g id="edge19" class="edge">
<title>MATH0006&#45;&gt;MATH0053</title>
<g id="a_edge19"><a xlink:title="required prerequisite">
<path fill="none" stroke="black" d="M1028.57,-151.72C1022.36,-126.21 1012.02,-83.7 1004.84,-54.22"/>
<polygon fill="black" stroke="black" points="1008.29,-53.6 1002.52,-44.71 1001.49,-55.25 1008.29,-53.6"/>
</a>
</g>
</g>
<!-- MATH0015 -->
<g id="node14" class="node">
<title>MATH0015</title>
<g id="a_node14"><a xlink:href="https://www.ucl.ac.uk/mathematical-physical-sciences/sites/mathematical_physical_sciences/files/2025-09/math0015.pdf" xlink:title="Year 2, term 1">
<polygon fill="white" stroke="#00ff00" stroke-width="5" points="124.62,-118 17.12,-118 17.12,-77 124.62,-77 124.62,-118"/>
<text xml:space="preserve" text-anchor="middle" x="70.88" y="-100.7" font-family="Times,serif" font-size="14.00">MATH0015</text>
<text xml:space="preserve" text-anchor="middle" x="70.88" y="-84.2" font-family="Times,serif" font-size="14.00">Fluid Mechanics</text>
</a>
</g>
</g>
<!-- MATH0009&#45;&gt;MATH0015 -->
<g id="edge9" class="edge">
<title>MATH0009&#45;&gt;MATH0015</title>
<g id="a_edge9"><a xlink:title="required prerequisite">
<path fill="none" stroke="black" d="M70.88,-151.81C70.88,-145.56 70.88,-138.61 70.88,-131.83"/>
<polygon fill="black" stroke="black" points="74.38,-131.92 70.88,-121.92 67.38,-131.92 74.38,-131.92"/>
</a>
</g>
</g>
<!-- MATH0016 -->
<g id="node13" class="node">
<title>MATH0016</title>
<g id="a_node13"><a xlink:href="https://www.ucl.ac.uk/mathematical-physical-sciences/sites/mathematical_physical_sciences/files/2025-09/math0016_0.pdf" xlink:title="Year 2, term 1">
<polygon fill="white" stroke="#00ff00" stroke-width="5" points="411.88,-118 257.88,-118 257.88,-77 411.88,-77 411.88,-118"/>
<text xml:space="preserve" text-anchor="middle" x="334.88" y="-100.7" font-family="Times,serif" font-size="14.00">MATH0016</text>
<text xml:space="preserve" text-anchor="middle" x="334.88" y="-84.2" font-family="Times,serif" font-size="14.00">Mathematical Methods 3</text>
</a>
</g>
</g>
<!-- MATH0011&#45;&gt;MATH0016 -->
<g id="edge7" class="edge">
<title>MATH0011&#45;&gt;MATH0016</title>
<g id="a_edge7"><a xlink:title="required prerequisite">
<path fill="none" stroke="black" d="M264.07,-151.61C274.34,-143.9 286.03,-135.13 296.92,-126.97"/>
<polygon fill="black" stroke="black" points="298.71,-130 304.61,-121.2 294.51,-124.4 298.71,-130"/>
</a>
</g>
</g>
<!-- MATH0011&#45;&gt;MATH0015 -->
<g id="edge8" class="edge">
<title>MATH0011&#45;&gt;MATH0015</title>
<g id="a_edge8"><a xlink:title="required prerequisite">
<path fill="none" stroke="black" d="M187,-151.61C168.89,-143.32 148.08,-133.81 129.12,-125.14"/>
<polygon fill="black" stroke="black" points="130.74,-122.03 120.19,-121.05 127.83,-128.39 130.74,-122.03"/>
</a>
</g>
</g>
<!-- MATH0057 -->
<g id="node22" class="node">
<title>MATH0057</title>
<g id="a_node22"><a xlink:href="https://www.ucl.ac.uk/mathematical-physical-sciences/sites/mathematical_physical_sciences/files/math0057.pdf" xlink:title="Year 2 or 3, term 2">
<polygon fill="white" stroke="#8ee5ee" stroke-width="5" points="151.75,-41 0,-41 0,0 151.75,0 151.75,-41"/>
<text xml:space="preserve" text-anchor="middle" x="75.88" y="-23.7" font-family="Times,serif" font-size="14.00">MATH0057</text>
<text xml:space="preserve" text-anchor="middle" x="75.88" y="-7.2" font-family="Times,serif" font-size="14.00">Probability and Statistics</text>
</a>
</g>
</g>
<!-- MATH0011&#45;&gt;MATH0057 -->
<g id="edge20" class="edge">
<title>MATH0011&#45;&gt;MATH0057</title>
<g id="a_edge20"><a xlink:title="required prerequisite">
<path fill="none" stroke="black" d="M212.09,-151.72C184.54,-125.39 138.03,-80.92 107.14,-51.39"/>
<polygon fill="black" stroke="black" points="109.61,-48.91 99.97,-44.53 104.78,-53.97 109.61,-48.91"/>
</a>
</g>
</g>
<!-- MATH0004&#45;&gt;MATH0013 -->
<g id="edge11" class="edge">
<title>MATH0004&#45;&gt;MATH0013</title>
<g id="a_edge11"><a xlink:title="recommended prerequisite">
<path fill="none" stroke="black" stroke-dasharray="5,2" d="M733.92,-151.81C727.25,-144.56 719.7,-136.36 712.56,-128.59"/>
<polygon fill="black" stroke="black" points="715.4,-126.51 706.05,-121.52 710.25,-131.25 715.4,-126.51"/>
</a>
</g>
</g>
<!-- MATH0051 -->
<g id="node17" class="node">
<title>MATH0051</title>
<g id="a_node17"><a xlink:href="https://www.ucl.ac.uk/mathematical-physical-sciences/sites/mathematical_physical_sciences/files/math0051.pdf" xlink:title="Year 2 or 3, term 2">
<polygon fill="white" stroke="#8ee5ee" stroke-width="5" points="937.88,-41 855.88,-41 855.88,0 937.88,0 937.88,-41"/>
<text xml:space="preserve" text-anchor="middle" x="896.88" y="-23.7" font-family="Times,serif" font-size="14.00">MATH0051</text>
<text xml:space="preserve" text-anchor="middle" x="896.88" y="-7.2" font-family="Times,serif" font-size="14.00">Analysis 4</text>
</a>
</g>
</g>
<!-- MATH0004&#45;&gt;MATH0051 -->
<g id="edge13" class="edge">
<title>MATH0004&#45;&gt;MATH0051</title>
<g id="a_edge13"><a xlink:title="required prerequisite">
<path fill="none" stroke="black" d="M774.36,-151.72C799.11,-125.42 840.85,-81.05 868.63,-51.52"/>
<polygon fill="black" stroke="black" points="871.08,-54.02 875.39,-44.34 865.99,-49.23 871.08,-54.02"/>
</a>
</g>
</g>
<!-- MATH0007 -->
<g id="node11" class="node">
<title>MATH0007</title>
<g id="a_node11"><a xlink:href="https://www.ucl.ac.uk/mathematical-physical-sciences/sites/mathematical_physical_sciences/files/math0007.pdf" xlink:title="Year 1, term 2">
<polygon fill="white" stroke="#cd950c" stroke-width="5" points="1701.62,-195 1492.12,-195 1492.12,-154 1701.62,-154 1701.62,-195"/>
<text xml:space="preserve" text-anchor="middle" x="1596.88" y="-177.7" font-family="Times,serif" font-size="14.00">MATH0007</text>
<text xml:space="preserve" text-anchor="middle" x="1596.88" y="-161.2" font-family="Times,serif" font-size="14.00">Algebra for Joint Honours Students</text>
</a>
</g>
</g>
<!-- MATH0056 -->
<g id="node19" class="node">
<title>MATH0056</title>
<g id="a_node19"><a xlink:href="https://www.ucl.ac.uk/mathematical-physical-sciences/sites/mathematical_physical_sciences/files/math0056.pdf" xlink:title="Year 2 or 3, term 2">
<polygon fill="white" stroke="#8ee5ee" stroke-width="5" points="671.88,-41 517.88,-41 517.88,0 671.88,0 671.88,-41"/>
<text xml:space="preserve" text-anchor="middle" x="594.88" y="-23.7" font-family="Times,serif" font-size="14.00">MATH0056</text>
<text xml:space="preserve" text-anchor="middle" x="594.88" y="-7.2" font-family="Times,serif" font-size="14.00">Mathematical Methods 4</text>
</a>
</g>
</g>
<!-- MATH0016&#45;&gt;MATH0056 -->
<g id="edge17" class="edge">
<title>MATH0016&#45;&gt;MATH0056</title>
<g id="a_edge17"><a xlink:title="required prerequisite">
<path fill="none" stroke="black" d="M411.13,-74.5C441.42,-65.77 476.44,-55.66 507.73,-46.64"/>
<polygon fill="black" stroke="black" points="508.53,-50.05 517.17,-43.91 506.59,-43.32 508.53,-50.05"/>
</a>
</g>
</g>
<!-- MATH0055 -->
<g id="node23" class="node">
<title>MATH0055</title>
<g id="a_node23"><a xlink:href="https://www.ucl.ac.uk/mathematical-physical-sciences/sites/mathematical_physical_sciences/files/math0055_3.pdf" xlink:title="Year 2 or 3, term 2">
<polygon fill="white" stroke="#8ee5ee" stroke-width="5" points="499.62,-41 170.12,-41 170.12,0 499.62,0 499.62,-41"/>
<text xml:space="preserve" text-anchor="middle" x="334.88" y="-23.7" font-family="Times,serif" font-size="14.00">MATH0055</text>
<text xml:space="preserve" text-anchor="middle" x="334.88" y="-7.2" font-family="Times,serif" font-size="14.00">Mathematics of Electromagnetism and Special Relativity</text>
</a>
</g>
</g>
<!-- MATH0016&#45;&gt;MATH0055 -->
<g id="edge21" class="edge">
<title>MATH0016&#45;&gt;MATH0055</title>
<g id="a_edge21"><a xlink:title="required prerequisite">
<path fill="none" stroke="black" d="M334.88,-74.81C334.88,-68.56 334.88,-61.61 334.88,-54.83"/>
<polygon fill="black" stroke="black" points="338.38,-54.92 334.88,-44.92 331.38,-54.92 338.38,-54.92"/>
</a>
</g>
</g>
<!-- MATH0013&#45;&gt;MATH0056 -->
<g id="edge16" class="edge">
<title>MATH0013&#45;&gt;MATH0056</title>
<g id="a_edge16"><a xlink:title="required prerequisite">
<path fill="none" stroke="black" d="M658.84,-74.81C649.78,-67.25 639.46,-58.66 629.8,-50.6"/>
<polygon fill="black" stroke="black" points="632.25,-48.09 622.32,-44.37 627.76,-53.46 632.25,-48.09"/>
</a>
</g>
</g>
</g>
</svg>
