<?xml version="1.0" encoding="UTF-8" standalone="no"?>
<!DOCTYPE svg PUBLIC "-//W3C//DTD SVG 1.1//EN"
 "http://www.w3.org/Graphics/SVG/1.1/DTD/svg11.dtd">
<!-- Generated by graphviz version 2.43.0 (0)
 -->
<!-- Title: %3 Pages: 1 -->
<svg width="2119pt" height="268pt"
 viewBox="0.00 0.00 2118.50 268.00" xmlns="http://www.w3.org/2000/svg" xmlns:xlink="http://www.w3.org/1999/xlink">
<g id="graph0" class="graph" transform="scale(1 1) rotate(0) translate(4 264)">
<title>%3</title>
<polygon fill="white" stroke="transparent" points="-4,4 -4,-264 2114.5,-264 2114.5,4 -4,4"/>
<!-- MATH0003 -->
<g id="node1" class="node">
<title>MATH0003</title>
<g id="a_node1"><a xlink:href="https://www.ucl.ac.uk/maths/sites/maths/files/math0003.pdf" xlink:title="Year 1, term 1">
<polygon fill="white" stroke="#ffb90f" stroke-width="5" points="214,-260 116,-260 116,-222 214,-222 214,-260"/>
<text text-anchor="middle" x="165" y="-244.8" font-family="Times,serif" font-size="14.00">MATH0003</text>
<text text-anchor="middle" x="165" y="-229.8" font-family="Times,serif" font-size="14.00">Analysis 1</text>
</a>
</g>
</g>
<!-- MATH0004 -->
<g id="node10" class="node">
<title>MATH0004</title>
<g id="a_node10"><a xlink:href="https://www.ucl.ac.uk/maths/sites/maths/files/math0004.pdf" xlink:title="Year 1, term 2">
<polygon fill="white" stroke="#cd950c" stroke-width="5" points="175,-186 77,-186 77,-148 175,-148 175,-186"/>
<text text-anchor="middle" x="126" y="-170.8" font-family="Times,serif" font-size="14.00">MATH0004</text>
<text text-anchor="middle" x="126" y="-155.8" font-family="Times,serif" font-size="14.00">Analysis 2</text>
</a>
</g>
</g>
<!-- MATH0003&#45;&gt;MATH0004 -->
<g id="edge5" class="edge">
<title>MATH0003&#45;&gt;MATH0004</title>
<g id="a_edge5"><a xlink:title="required prerequisite">
<path fill="none" stroke="black" d="M155.16,-221.83C150.8,-213.79 145.59,-204.17 140.78,-195.29"/>
<polygon fill="black" stroke="black" points="143.81,-193.54 135.97,-186.41 137.66,-196.87 143.81,-193.54"/>
</a>
</g>
</g>
<!-- MATH0013 -->
<g id="node14" class="node">
<title>MATH0013</title>
<g id="a_node14"><a xlink:href="https://www.ucl.ac.uk/maths/sites/maths/files/math0013.pdf" xlink:title="Year 2, term 1">
<polygon fill="white" stroke="#00ff00" stroke-width="5" points="317.5,-112 88.5,-112 88.5,-74 317.5,-74 317.5,-112"/>
<text text-anchor="middle" x="203" y="-96.8" font-family="Times,serif" font-size="14.00">MATH0013</text>
<text text-anchor="middle" x="203" y="-81.8" font-family="Times,serif" font-size="14.00">Analysis 3 &#45; Complex Analysis</text>
</a>
</g>
</g>
<!-- MATH0003&#45;&gt;MATH0013 -->
<g id="edge9" class="edge">
<title>MATH0003&#45;&gt;MATH0013</title>
<g id="a_edge9"><a xlink:title="required prerequisite">
<path fill="none" stroke="black" d="M172.13,-221.7C175.99,-211.34 180.65,-198.07 184,-186 189.88,-164.85 194.82,-140.51 198.2,-122.18"/>
<polygon fill="black" stroke="black" points="201.68,-122.61 200,-112.15 194.79,-121.38 201.68,-122.61"/>
</a>
</g>
</g>
<!-- MATH0008 -->
<g id="node2" class="node">
<title>MATH0008</title>
<g id="a_node2"><a xlink:href="https://www.ucl.ac.uk/maths/sites/maths/files/math0008.pdf" xlink:title="Year 1, term 1">
<polygon fill="white" stroke="#ffb90f" stroke-width="5" points="566,-260 398,-260 398,-222 566,-222 566,-260"/>
<text text-anchor="middle" x="482" y="-244.8" font-family="Times,serif" font-size="14.00">MATH0008</text>
<text text-anchor="middle" x="482" y="-229.8" font-family="Times,serif" font-size="14.00">Applied Mathematics</text>
</a>
</g>
</g>
<!-- MATH0009 -->
<g id="node8" class="node">
<title>MATH0009</title>
<g id="a_node8"><a xlink:href="https://www.ucl.ac.uk/maths/sites/maths/files/math0009.pdf" xlink:title="Year 1, term 2">
<polygon fill="white" stroke="#cd950c" stroke-width="5" points="569,-186 395,-186 395,-148 569,-148 569,-186"/>
<text text-anchor="middle" x="482" y="-170.8" font-family="Times,serif" font-size="14.00">MATH0009</text>
<text text-anchor="middle" x="482" y="-155.8" font-family="Times,serif" font-size="14.00">Newtonian Mechanics</text>
</a>
</g>
</g>
<!-- MATH0008&#45;&gt;MATH0009 -->
<g id="edge2" class="edge">
<title>MATH0008&#45;&gt;MATH0009</title>
<g id="a_edge2"><a xlink:title="required prerequisite">
<path fill="none" stroke="black" d="M482,-221.83C482,-214.13 482,-204.97 482,-196.42"/>
<polygon fill="black" stroke="black" points="485.5,-196.41 482,-186.41 478.5,-196.41 485.5,-196.41"/>
</a>
</g>
</g>
<!-- MATH0110 -->
<g id="node3" class="node">
<title>MATH0110</title>
<g id="a_node3"><a xlink:href="https://www.ucl.ac.uk/maths/sites/maths/files/math0110_1.pdf" xlink:title="Year 1, term 1">
<polygon fill="white" stroke="#ffb90f" stroke-width="5" points="1554.5,-260 1351.5,-260 1351.5,-222 1554.5,-222 1554.5,-260"/>
<text text-anchor="middle" x="1453" y="-244.8" font-family="Times,serif" font-size="14.00">MATH0110</text>
<text text-anchor="middle" x="1453" y="-229.8" font-family="Times,serif" font-size="14.00">Analysis for Joint Honours</text>
</a>
</g>
</g>
<!-- MATH0010 -->
<g id="node4" class="node">
<title>MATH0010</title>
<g id="a_node4"><a xlink:href="https://www.ucl.ac.uk/maths/sites/maths/files/math0010.pdf" xlink:title="Year 1, term 1">
<polygon fill="white" stroke="#ffb90f" stroke-width="5" points="782.5,-260 587.5,-260 587.5,-222 782.5,-222 782.5,-260"/>
<text text-anchor="middle" x="685" y="-244.8" font-family="Times,serif" font-size="14.00">MATH0010</text>
<text text-anchor="middle" x="685" y="-229.8" font-family="Times,serif" font-size="14.00">Mathematical Methods 1</text>
</a>
</g>
</g>
<!-- MATH0011 -->
<g id="node7" class="node">
<title>MATH0011</title>
<g id="a_node7"><a xlink:href="https://www.ucl.ac.uk/maths/sites/maths/files/math0011_2.pdf" xlink:title="Year 1, term 2">
<polygon fill="white" stroke="#cd950c" stroke-width="5" points="782.5,-186 587.5,-186 587.5,-148 782.5,-148 782.5,-186"/>
<text text-anchor="middle" x="685" y="-170.8" font-family="Times,serif" font-size="14.00">MATH0011</text>
<text text-anchor="middle" x="685" y="-155.8" font-family="Times,serif" font-size="14.00">Mathematical Methods 2</text>
</a>
</g>
</g>
<!-- MATH0010&#45;&gt;MATH0011 -->
<g id="edge1" class="edge">
<title>MATH0010&#45;&gt;MATH0011</title>
<g id="a_edge1"><a xlink:title="required prerequisite">
<path fill="none" stroke="black" d="M685,-221.83C685,-214.13 685,-204.97 685,-196.42"/>
<polygon fill="black" stroke="black" points="688.5,-196.41 685,-186.41 681.5,-196.41 688.5,-196.41"/>
</a>
</g>
</g>
<!-- MATH0010&#45;&gt;MATH0009 -->
<g id="edge3" class="edge">
<title>MATH0010&#45;&gt;MATH0009</title>
<g id="a_edge3"><a xlink:title="required prerequisite">
<path fill="none" stroke="black" d="M634.04,-221.92C606.29,-212.08 571.77,-199.84 542.64,-189.51"/>
<polygon fill="black" stroke="black" points="543.58,-186.13 532.98,-186.08 541.24,-192.72 543.58,-186.13"/>
</a>
</g>
</g>
<!-- MATH0058 -->
<g id="node20" class="node">
<title>MATH0058</title>
<g id="a_node20"><a xlink:href="https://www.ucl.ac.uk/maths/sites/maths/files/math0058.pdf" xlink:title="Year 2 or 3, term 2">
<polygon fill="white" stroke="#8ee5ee" stroke-width="5" points="1175,-38 987,-38 987,0 1175,0 1175,-38"/>
<text text-anchor="middle" x="1081" y="-22.8" font-family="Times,serif" font-size="14.00">MATH0058</text>
<text text-anchor="middle" x="1081" y="-7.8" font-family="Times,serif" font-size="14.00">Computational Methods</text>
</a>
</g>
</g>
<!-- MATH0010&#45;&gt;MATH0058 -->
<g id="edge16" class="edge">
<title>MATH0010&#45;&gt;MATH0058</title>
<g id="a_edge16"><a xlink:title="required prerequisite">
<path fill="none" stroke="black" d="M721.53,-221.94C742.07,-211.65 768.11,-198.37 791,-186 881.64,-137.01 986.1,-76.09 1041.58,-43.38"/>
<polygon fill="black" stroke="black" points="1043.54,-46.28 1050.37,-38.19 1039.98,-40.26 1043.54,-46.28"/>
</a>
</g>
</g>
<!-- MATH0005 -->
<g id="node5" class="node">
<title>MATH0005</title>
<g id="a_node5"><a xlink:href="https://www.ucl.ac.uk/maths/sites/maths/files/math0005.pdf" xlink:title="Year 1, term 1">
<polygon fill="white" stroke="#ffb90f" stroke-width="5" points="1333,-260 1235,-260 1235,-222 1333,-222 1333,-260"/>
<text text-anchor="middle" x="1284" y="-244.8" font-family="Times,serif" font-size="14.00">MATH0005</text>
<text text-anchor="middle" x="1284" y="-229.8" font-family="Times,serif" font-size="14.00">Algebra 1</text>
</a>
</g>
</g>
<!-- MATH0006 -->
<g id="node9" class="node">
<title>MATH0006</title>
<g id="a_node9"><a xlink:href="https://www.ucl.ac.uk/maths/sites/maths/files/math0006.pdf" xlink:title="Year 1, term 2">
<polygon fill="white" stroke="#cd950c" stroke-width="5" points="1333,-186 1235,-186 1235,-148 1333,-148 1333,-186"/>
<text text-anchor="middle" x="1284" y="-170.8" font-family="Times,serif" font-size="14.00">MATH0006</text>
<text text-anchor="middle" x="1284" y="-155.8" font-family="Times,serif" font-size="14.00">Algebra 2</text>
</a>
</g>
</g>
<!-- MATH0005&#45;&gt;MATH0006 -->
<g id="edge4" class="edge">
<title>MATH0005&#45;&gt;MATH0006</title>
<g id="a_edge4"><a xlink:title="required prerequisite">
<path fill="none" stroke="black" d="M1284,-221.83C1284,-214.13 1284,-204.97 1284,-196.42"/>
<polygon fill="black" stroke="black" points="1287.5,-196.41 1284,-186.41 1280.5,-196.41 1287.5,-196.41"/>
</a>
</g>
</g>
<!-- MATH0002 -->
<g id="node6" class="node">
<title>MATH0002</title>
<g id="a_node6"><a xlink:href="https://www.ucl.ac.uk/maths/sites/maths/files/math0002.pdf" xlink:title="Year 1, term 1 and 2">
<polygon fill="white" stroke="#eead0e" stroke-width="5" points="1823.5,-260 1572.5,-260 1572.5,-222 1823.5,-222 1823.5,-260"/>
<text text-anchor="middle" x="1698" y="-244.8" font-family="Times,serif" font-size="14.00">MATH0002</text>
<text text-anchor="middle" x="1698" y="-229.8" font-family="Times,serif" font-size="14.00">Economics 1 &#45; Combined Studies</text>
</a>
</g>
</g>
<!-- STAT0001 -->
<g id="node16" class="node">
<title>STAT0001</title>
<g id="a_node16"><a xlink:href="https://www.ucl.ac.uk/maths/sites/maths/files/stat0001.pdf" xlink:title="Year 2, term 1 and 2">
<polygon fill="white" stroke="#00cd00" stroke-width="5" points="1823.5,-186 1572.5,-186 1572.5,-148 1823.5,-148 1823.5,-186"/>
<text text-anchor="middle" x="1698" y="-170.8" font-family="Times,serif" font-size="14.00">STAT0001</text>
<text text-anchor="middle" x="1698" y="-155.8" font-family="Times,serif" font-size="14.00">Economics 2 &#45; Combined Studies</text>
</a>
</g>
</g>
<!-- MATH0002&#45;&gt;STAT0001 -->
<g id="edge12" class="edge">
<title>MATH0002&#45;&gt;STAT0001</title>
<g id="a_edge12"><a xlink:title="required prerequisite">
<path fill="none" stroke="black" d="M1698,-221.83C1698,-214.13 1698,-204.97 1698,-196.42"/>
<polygon fill="black" stroke="black" points="1701.5,-196.41 1698,-186.41 1694.5,-196.41 1701.5,-196.41"/>
</a>
</g>
</g>
<!-- MATH0015 -->
<g id="node12" class="node">
<title>MATH0015</title>
<g id="a_node12"><a xlink:href="https://www.ucl.ac.uk/maths/sites/maths/files/math0015.pdf" xlink:title="Year 2, term 1">
<polygon fill="white" stroke="#00ff00" stroke-width="5" points="549,-112 415,-112 415,-74 549,-74 549,-112"/>
<text text-anchor="middle" x="482" y="-96.8" font-family="Times,serif" font-size="14.00">MATH0015</text>
<text text-anchor="middle" x="482" y="-81.8" font-family="Times,serif" font-size="14.00">Fluid Mechanics</text>
</a>
</g>
</g>
<!-- MATH0011&#45;&gt;MATH0015 -->
<g id="edge6" class="edge">
<title>MATH0011&#45;&gt;MATH0015</title>
<g id="a_edge6"><a xlink:title="required prerequisite">
<path fill="none" stroke="black" d="M634.04,-147.92C606.29,-138.08 571.77,-125.84 542.64,-115.51"/>
<polygon fill="black" stroke="black" points="543.58,-112.13 532.98,-112.08 541.24,-118.72 543.58,-112.13"/>
</a>
</g>
</g>
<!-- MATH0016 -->
<g id="node15" class="node">
<title>MATH0016</title>
<g id="a_node15"><a xlink:href="https://www.ucl.ac.uk/maths/sites/maths/files/math0016.pdf" xlink:title="Year 2, term 1">
<polygon fill="white" stroke="#00ff00" stroke-width="5" points="762.5,-112 567.5,-112 567.5,-74 762.5,-74 762.5,-112"/>
<text text-anchor="middle" x="665" y="-96.8" font-family="Times,serif" font-size="14.00">MATH0016</text>
<text text-anchor="middle" x="665" y="-81.8" font-family="Times,serif" font-size="14.00">Mathematical Methods 3</text>
</a>
</g>
</g>
<!-- MATH0011&#45;&gt;MATH0016 -->
<g id="edge11" class="edge">
<title>MATH0011&#45;&gt;MATH0016</title>
<g id="a_edge11"><a xlink:title="required prerequisite">
<path fill="none" stroke="black" d="M679.95,-147.83C677.79,-140.05 675.21,-130.77 672.82,-122.13"/>
<polygon fill="black" stroke="black" points="676.16,-121.11 670.11,-112.41 669.42,-122.99 676.16,-121.11"/>
</a>
</g>
</g>
<!-- MATH0057 -->
<g id="node23" class="node">
<title>MATH0057</title>
<g id="a_node23"><a xlink:href="https://www.ucl.ac.uk/maths/sites/maths/files/math0057.pdf" xlink:title="Year 2 or 3, term 2">
<polygon fill="white" stroke="#8ee5ee" stroke-width="5" points="969,-38 771,-38 771,0 969,0 969,-38"/>
<text text-anchor="middle" x="870" y="-22.8" font-family="Times,serif" font-size="14.00">MATH0057</text>
<text text-anchor="middle" x="870" y="-7.8" font-family="Times,serif" font-size="14.00">Probability and Statistics</text>
</a>
</g>
</g>
<!-- MATH0011&#45;&gt;MATH0057 -->
<g id="edge21" class="edge">
<title>MATH0011&#45;&gt;MATH0057</title>
<g id="a_edge21"><a xlink:title="required prerequisite">
<path fill="none" stroke="black" d="M717,-147.87C733.61,-137.98 753.94,-125.1 771,-112 797.95,-91.31 826.08,-64.6 845.44,-45.29"/>
<polygon fill="black" stroke="black" points="848.09,-47.59 852.66,-38.03 843.13,-42.65 848.09,-47.59"/>
</a>
</g>
</g>
<!-- MATH0009&#45;&gt;MATH0015 -->
<g id="edge7" class="edge">
<title>MATH0009&#45;&gt;MATH0015</title>
<g id="a_edge7"><a xlink:title="required prerequisite">
<path fill="none" stroke="black" d="M482,-147.83C482,-140.13 482,-130.97 482,-122.42"/>
<polygon fill="black" stroke="black" points="485.5,-122.41 482,-112.41 478.5,-122.41 485.5,-122.41"/>
</a>
</g>
</g>
<!-- MATH0014 -->
<g id="node13" class="node">
<title>MATH0014</title>
<g id="a_node13"><a xlink:href="https://www.ucl.ac.uk/maths/sites/maths/files/math0014.pdf" xlink:title="Year 2, term 1">
<polygon fill="white" stroke="#00ff00" stroke-width="5" points="1615,-112 1355,-112 1355,-74 1615,-74 1615,-112"/>
<text text-anchor="middle" x="1485" y="-96.8" font-family="Times,serif" font-size="14.00">MATH0014</text>
<text text-anchor="middle" x="1485" y="-81.8" font-family="Times,serif" font-size="14.00">Algebra 3: Further Linear Algebra</text>
</a>
</g>
</g>
<!-- MATH0006&#45;&gt;MATH0014 -->
<g id="edge8" class="edge">
<title>MATH0006&#45;&gt;MATH0014</title>
<g id="a_edge8"><a xlink:title="required prerequisite">
<path fill="none" stroke="black" d="M1333.17,-148.39C1360.84,-138.47 1395.61,-126.02 1424.89,-115.53"/>
<polygon fill="black" stroke="black" points="1426.36,-118.72 1434.59,-112.06 1424,-112.13 1426.36,-118.72"/>
</a>
</g>
</g>
<!-- MATH0053 -->
<g id="node17" class="node">
<title>MATH0053</title>
<g id="a_node17"><a xlink:href="https://www.ucl.ac.uk/maths/sites/maths/files/math0053.pdf" xlink:title="Year 2 or 3, term 2">
<polygon fill="white" stroke="#8ee5ee" stroke-width="5" points="1291,-38 1193,-38 1193,0 1291,0 1291,-38"/>
<text text-anchor="middle" x="1242" y="-22.8" font-family="Times,serif" font-size="14.00">MATH0053</text>
<text text-anchor="middle" x="1242" y="-7.8" font-family="Times,serif" font-size="14.00">Algebra 4</text>
</a>
</g>
</g>
<!-- MATH0006&#45;&gt;MATH0053 -->
<g id="edge13" class="edge">
<title>MATH0006&#45;&gt;MATH0053</title>
<g id="a_edge13"><a xlink:title="required prerequisite">
<path fill="none" stroke="black" d="M1278.77,-147.8C1271.57,-122.78 1258.54,-77.5 1250.08,-48.1"/>
<polygon fill="black" stroke="black" points="1253.43,-47.07 1247.3,-38.43 1246.7,-49 1253.43,-47.07"/>
</a>
</g>
</g>
<!-- MATH0034 -->
<g id="node18" class="node">
<title>MATH0034</title>
<g id="a_node18"><a xlink:href="https://www.ucl.ac.uk/maths/sites/maths/files/math0034.pdf" xlink:title="Year 2 or 3, term 2">
<polygon fill="white" stroke="#8ee5ee" stroke-width="5" points="1438.5,-38 1309.5,-38 1309.5,0 1438.5,0 1438.5,-38"/>
<text text-anchor="middle" x="1374" y="-22.8" font-family="Times,serif" font-size="14.00">MATH0034</text>
<text text-anchor="middle" x="1374" y="-7.8" font-family="Times,serif" font-size="14.00">Number Theory</text>
</a>
</g>
</g>
<!-- MATH0006&#45;&gt;MATH0034 -->
<g id="edge14" class="edge">
<title>MATH0006&#45;&gt;MATH0034</title>
<g id="a_edge14"><a xlink:title="required prerequisite">
<path fill="none" stroke="black" d="M1295.22,-147.8C1310.85,-122.45 1339.29,-76.31 1357.38,-46.95"/>
<polygon fill="black" stroke="black" points="1360.37,-48.77 1362.64,-38.43 1354.42,-45.1 1360.37,-48.77"/>
</a>
</g>
</g>
<!-- MATH0006&#45;&gt;MATH0058 -->
<g id="edge17" class="edge">
<title>MATH0006&#45;&gt;MATH0058</title>
<g id="a_edge17"><a xlink:title="required prerequisite">
<path fill="none" stroke="black" d="M1258.7,-147.8C1222.28,-121.61 1155.03,-73.24 1114.52,-44.11"/>
<polygon fill="black" stroke="black" points="1116.46,-41.19 1106.3,-38.2 1112.37,-46.88 1116.46,-41.19"/>
</a>
</g>
</g>
<!-- MATH0004&#45;&gt;MATH0013 -->
<g id="edge10" class="edge">
<title>MATH0004&#45;&gt;MATH0013</title>
<g id="a_edge10"><a xlink:title="recommended prerequisite">
<path fill="none" stroke="black" stroke-dasharray="5,2" d="M145.43,-147.83C154.73,-139.13 166.02,-128.58 176.13,-119.13"/>
<polygon fill="black" stroke="black" points="178.66,-121.55 183.58,-112.16 173.88,-116.44 178.66,-121.55"/>
</a>
</g>
</g>
<!-- MATH0051 -->
<g id="node21" class="node">
<title>MATH0051</title>
<g id="a_node21"><a xlink:href="https://www.ucl.ac.uk/maths/sites/maths/files/math0051.pdf" xlink:title="Year 2 or 3, term 2">
<polygon fill="white" stroke="#8ee5ee" stroke-width="5" points="98,-38 0,-38 0,0 98,0 98,-38"/>
<text text-anchor="middle" x="49" y="-22.8" font-family="Times,serif" font-size="14.00">MATH0051</text>
<text text-anchor="middle" x="49" y="-7.8" font-family="Times,serif" font-size="14.00">Analysis 4</text>
</a>
</g>
</g>
<!-- MATH0004&#45;&gt;MATH0051 -->
<g id="edge18" class="edge">
<title>MATH0004&#45;&gt;MATH0051</title>
<g id="a_edge18"><a xlink:title="required prerequisite">
<path fill="none" stroke="black" d="M107,-147.95C97.5,-138.07 86.48,-125.19 79,-112 67.61,-91.9 59.8,-66.84 55.01,-47.96"/>
<polygon fill="black" stroke="black" points="58.4,-47.08 52.65,-38.17 51.59,-48.71 58.4,-47.08"/>
</a>
</g>
</g>
<!-- MATH0007 -->
<g id="node11" class="node">
<title>MATH0007</title>
<g id="a_node11"><a xlink:href="https://www.ucl.ac.uk/maths/sites/maths/files/math0007.pdf" xlink:title="Year 1, term 2">
<polygon fill="white" stroke="#cd950c" stroke-width="5" points="2110.5,-186 1841.5,-186 1841.5,-148 2110.5,-148 2110.5,-186"/>
<text text-anchor="middle" x="1976" y="-170.8" font-family="Times,serif" font-size="14.00">MATH0007</text>
<text text-anchor="middle" x="1976" y="-155.8" font-family="Times,serif" font-size="14.00">Algebra for Joint Honours Students</text>
</a>
</g>
</g>
<!-- MATH0056 -->
<g id="node22" class="node">
<title>MATH0056</title>
<g id="a_node22"><a xlink:href="https://www.ucl.ac.uk/maths/sites/maths/files/math0056.pdf" xlink:title="Year 2 or 3, term 2">
<polygon fill="white" stroke="#8ee5ee" stroke-width="5" points="311.5,-38 116.5,-38 116.5,0 311.5,0 311.5,-38"/>
<text text-anchor="middle" x="214" y="-22.8" font-family="Times,serif" font-size="14.00">MATH0056</text>
<text text-anchor="middle" x="214" y="-7.8" font-family="Times,serif" font-size="14.00">Mathematical Methods 4</text>
</a>
</g>
</g>
<!-- MATH0013&#45;&gt;MATH0056 -->
<g id="edge19" class="edge">
<title>MATH0013&#45;&gt;MATH0056</title>
<g id="a_edge19"><a xlink:title="required prerequisite">
<path fill="none" stroke="black" d="M205.78,-73.83C206.95,-66.13 208.35,-56.97 209.66,-48.42"/>
<polygon fill="black" stroke="black" points="213.14,-48.83 211.19,-38.41 206.22,-47.77 213.14,-48.83"/>
</a>
</g>
</g>
<!-- MATH0055 -->
<g id="node19" class="node">
<title>MATH0055</title>
<g id="a_node19"><a xlink:href="https://www.ucl.ac.uk/maths/sites/maths/files/math0055_3.pdf" xlink:title="Year 2 or 3, term 2">
<polygon fill="white" stroke="#8ee5ee" stroke-width="5" points="753,-38 329,-38 329,0 753,0 753,-38"/>
<text text-anchor="middle" x="541" y="-22.8" font-family="Times,serif" font-size="14.00">MATH0055</text>
<text text-anchor="middle" x="541" y="-7.8" font-family="Times,serif" font-size="14.00">Mathematics of Electromagnetism and Special Relativity</text>
</a>
</g>
</g>
<!-- MATH0016&#45;&gt;MATH0055 -->
<g id="edge15" class="edge">
<title>MATH0016&#45;&gt;MATH0055</title>
<g id="a_edge15"><a xlink:title="required prerequisite">
<path fill="none" stroke="black" d="M633.71,-73.83C617.7,-64.54 598.04,-53.12 580.95,-43.2"/>
<polygon fill="black" stroke="black" points="582.69,-40.16 572.28,-38.16 579.17,-46.21 582.69,-40.16"/>
</a>
</g>
</g>
<!-- MATH0016&#45;&gt;MATH0056 -->
<g id="edge20" class="edge">
<title>MATH0016&#45;&gt;MATH0056</title>
<g id="a_edge20"><a xlink:title="required prerequisite">
<path fill="none" stroke="black" d="M567.34,-75.5C564.19,-74.99 561.07,-74.49 558,-74 455.56,-57.64 427.32,-55.1 321.72,-38.26"/>
<polygon fill="black" stroke="black" points="322.03,-34.77 311.6,-36.64 320.92,-41.68 322.03,-34.77"/>
</a>
</g>
</g>
</g>
</svg>
