<?xml version="1.0" encoding="UTF-8" standalone="no"?>
<!DOCTYPE svg PUBLIC "-//W3C//DTD SVG 1.1//EN"
 "http://www.w3.org/Graphics/SVG/1.1/DTD/svg11.dtd">
<!-- Generated by graphviz version 13.1.2 (0)
 -->
<!-- Pages: 1 -->
<svg width="2112pt" height="286pt"
 viewBox="0.00 0.00 2112.00 286.00" xmlns="http://www.w3.org/2000/svg" xmlns:xlink="http://www.w3.org/1999/xlink">
<g id="graph0" class="graph" transform="scale(1 1) rotate(0) translate(4 282)">
<polygon fill="white" stroke="none" points="-4,4 -4,-282 2107.5,-282 2107.5,4 -4,4"/>
<!-- MATH0003 -->
<g id="node1" class="node">
<title>MATH0003</title>
<g id="a_node1"><a xlink:href="https://www.ucl.ac.uk/mathematical-physical-sciences/sites/mathematical_physical_sciences/files/math0003.pdf" xlink:title="Year 1, term 1">
<polygon fill="white" stroke="#ffb90f" stroke-width="5" points="212,-278 115,-278 115,-235.5 212,-235.5 212,-278"/>
<text xml:space="preserve" text-anchor="middle" x="163.5" y="-260.7" font-family="Times,serif" font-size="14.00">MATH0003</text>
<text xml:space="preserve" text-anchor="middle" x="163.5" y="-243.45" font-family="Times,serif" font-size="14.00">Analysis 1</text>
</a>
</g>
</g>
<!-- MATH0004 -->
<g id="node9" class="node">
<title>MATH0004</title>
<g id="a_node9"><a xlink:href="https://www.ucl.ac.uk/mathematical-physical-sciences/sites/mathematical_physical_sciences/files/math0004.pdf" xlink:title="Year 1, term 2">
<polygon fill="white" stroke="#cd950c" stroke-width="5" points="173,-199.5 76,-199.5 76,-157 173,-157 173,-199.5"/>
<text xml:space="preserve" text-anchor="middle" x="124.5" y="-182.2" font-family="Times,serif" font-size="14.00">MATH0004</text>
<text xml:space="preserve" text-anchor="middle" x="124.5" y="-164.95" font-family="Times,serif" font-size="14.00">Analysis 2</text>
</a>
</g>
</g>
<!-- MATH0003&#45;&gt;MATH0004 -->
<g id="edge3" class="edge">
<title>MATH0003&#45;&gt;MATH0004</title>
<g id="a_edge3"><a xlink:title="required prerequisite">
<path fill="none" stroke="black" d="M152.01,-233.21C148.63,-226.58 144.86,-219.18 141.22,-212.04"/>
<polygon fill="black" stroke="black" points="144.39,-210.56 136.73,-203.24 138.15,-213.74 144.39,-210.56"/>
</a>
</g>
</g>
<!-- MATH0013 -->
<g id="node12" class="node">
<title>MATH0013</title>
<g id="a_node12"><a xlink:href="https://www.ucl.ac.uk/mathematical-physical-sciences/sites/mathematical_physical_sciences/files/math0013.pdf" xlink:title="Year 2, term 1">
<polygon fill="white" stroke="#00ff00" stroke-width="5" points="315.62,-121 87.37,-121 87.37,-78.5 315.62,-78.5 315.62,-121"/>
<text xml:space="preserve" text-anchor="middle" x="201.5" y="-103.7" font-family="Times,serif" font-size="14.00">MATH0013</text>
<text xml:space="preserve" text-anchor="middle" x="201.5" y="-86.45" font-family="Times,serif" font-size="14.00">Analysis 3 &#45; Complex Analysis</text>
</a>
</g>
</g>
<!-- MATH0003&#45;&gt;MATH0013 -->
<g id="edge6" class="edge">
<title>MATH0003&#45;&gt;MATH0013</title>
<g id="a_edge6"><a xlink:title="required prerequisite">
<path fill="none" stroke="black" d="M171.34,-233.2C174.73,-222.99 178.58,-210.71 181.5,-199.5 187.09,-178.05 192.04,-153.65 195.62,-134.46"/>
<polygon fill="black" stroke="black" points="199.04,-135.22 197.4,-124.75 192.16,-133.96 199.04,-135.22"/>
</a>
</g>
</g>
<!-- MATH0010 -->
<g id="node2" class="node">
<title>MATH0010</title>
<g id="a_node2"><a xlink:href="https://www.ucl.ac.uk/mathematical-physical-sciences/sites/mathematical_physical_sciences/files/math0010.pdf" xlink:title="Year 1, term 1">
<polygon fill="white" stroke="#ffb90f" stroke-width="5" points="779.75,-278 585.25,-278 585.25,-235.5 779.75,-235.5 779.75,-278"/>
<text xml:space="preserve" text-anchor="middle" x="682.5" y="-260.7" font-family="Times,serif" font-size="14.00">MATH0010</text>
<text xml:space="preserve" text-anchor="middle" x="682.5" y="-243.45" font-family="Times,serif" font-size="14.00">Mathematical Methods 1</text>
</a>
</g>
</g>
<!-- MATH0011 -->
<g id="node7" class="node">
<title>MATH0011</title>
<g id="a_node7"><a xlink:href="https://www.ucl.ac.uk/mathematical-physical-sciences/sites/mathematical_physical_sciences/files/math0011_2.pdf" xlink:title="Year 1, term 2">
<polygon fill="white" stroke="#cd950c" stroke-width="5" points="779.75,-199.5 585.25,-199.5 585.25,-157 779.75,-157 779.75,-199.5"/>
<text xml:space="preserve" text-anchor="middle" x="682.5" y="-182.2" font-family="Times,serif" font-size="14.00">MATH0011</text>
<text xml:space="preserve" text-anchor="middle" x="682.5" y="-164.95" font-family="Times,serif" font-size="14.00">Mathematical Methods 2</text>
</a>
</g>
</g>
<!-- MATH0010&#45;&gt;MATH0011 -->
<g id="edge1" class="edge">
<title>MATH0010&#45;&gt;MATH0011</title>
<g id="a_edge1"><a xlink:title="required prerequisite">
<path fill="none" stroke="black" d="M682.5,-233.21C682.5,-226.89 682.5,-219.87 682.5,-213.04"/>
<polygon fill="black" stroke="black" points="686,-213.41 682.5,-203.41 679,-213.41 686,-213.41"/>
</a>
</g>
</g>
<!-- MATH0009 -->
<g id="node10" class="node">
<title>MATH0009</title>
<g id="a_node10"><a xlink:href="https://www.ucl.ac.uk/mathematical-physical-sciences/sites/mathematical_physical_sciences/files/math0009.pdf" xlink:title="Year 1, term 2">
<polygon fill="white" stroke="#cd950c" stroke-width="5" points="567.25,-199.5 393.75,-199.5 393.75,-157 567.25,-157 567.25,-199.5"/>
<text xml:space="preserve" text-anchor="middle" x="480.5" y="-182.2" font-family="Times,serif" font-size="14.00">MATH0009</text>
<text xml:space="preserve" text-anchor="middle" x="480.5" y="-164.95" font-family="Times,serif" font-size="14.00">Newtonian Mechanics</text>
</a>
</g>
</g>
<!-- MATH0010&#45;&gt;MATH0009 -->
<g id="edge5" class="edge">
<title>MATH0010&#45;&gt;MATH0009</title>
<g id="a_edge5"><a xlink:title="required prerequisite">
<path fill="none" stroke="black" d="M622.44,-233C599.95,-224.49 574.2,-214.74 550.86,-205.9"/>
<polygon fill="black" stroke="black" points="552.34,-202.71 541.74,-202.44 549.86,-209.26 552.34,-202.71"/>
</a>
</g>
</g>
<!-- MATH0058 -->
<g id="node22" class="node">
<title>MATH0058</title>
<g id="a_node22"><a xlink:href="https://www.ucl.ac.uk/mathematical-physical-sciences/sites/mathematical_physical_sciences/files/math0058.pdf" xlink:title="Year 2 or 3, term 2">
<polygon fill="white" stroke="#8ee5ee" stroke-width="5" points="1172.38,-42.5 984.62,-42.5 984.62,0 1172.38,0 1172.38,-42.5"/>
<text xml:space="preserve" text-anchor="middle" x="1078.5" y="-25.2" font-family="Times,serif" font-size="14.00">MATH0058</text>
<text xml:space="preserve" text-anchor="middle" x="1078.5" y="-7.95" font-family="Times,serif" font-size="14.00">Computational Methods</text>
</a>
</g>
</g>
<!-- MATH0010&#45;&gt;MATH0058 -->
<g id="edge19" class="edge">
<title>MATH0010&#45;&gt;MATH0058</title>
<g id="a_edge19"><a xlink:title="required prerequisite">
<path fill="none" stroke="black" d="M726.66,-233.08C745.82,-223.05 768.41,-210.96 788.5,-199.5 876.51,-149.32 976.91,-86.72 1033.49,-50.93"/>
<polygon fill="black" stroke="black" points="1035.35,-53.9 1041.92,-45.59 1031.6,-47.99 1035.35,-53.9"/>
</a>
</g>
</g>
<!-- MATH0110 -->
<g id="node3" class="node">
<title>MATH0110</title>
<g id="a_node3"><a xlink:href="https://www.ucl.ac.uk/mathematical-physical-sciences/sites/mathematical_physical_sciences/files/math0110_1.pdf" xlink:title="Year 1, term 1">
<polygon fill="white" stroke="#ffb90f" stroke-width="5" points="1549.88,-278 1347.12,-278 1347.12,-235.5 1549.88,-235.5 1549.88,-278"/>
<text xml:space="preserve" text-anchor="middle" x="1448.5" y="-260.7" font-family="Times,serif" font-size="14.00">MATH0110</text>
<text xml:space="preserve" text-anchor="middle" x="1448.5" y="-243.45" font-family="Times,serif" font-size="14.00">Analysis for Joint Honours</text>
</a>
</g>
</g>
<!-- MATH0005 -->
<g id="node4" class="node">
<title>MATH0005</title>
<g id="a_node4"><a xlink:href="https://www.ucl.ac.uk/mathematical-physical-sciences/sites/mathematical_physical_sciences/files/math0005.pdf" xlink:title="Year 1, term 1">
<polygon fill="white" stroke="#ffb90f" stroke-width="5" points="1329,-278 1232,-278 1232,-235.5 1329,-235.5 1329,-278"/>
<text xml:space="preserve" text-anchor="middle" x="1280.5" y="-260.7" font-family="Times,serif" font-size="14.00">MATH0005</text>
<text xml:space="preserve" text-anchor="middle" x="1280.5" y="-243.45" font-family="Times,serif" font-size="14.00">Algebra 1</text>
</a>
</g>
</g>
<!-- MATH0006 -->
<g id="node8" class="node">
<title>MATH0006</title>
<g id="a_node8"><a xlink:href="https://www.ucl.ac.uk/mathematical-physical-sciences/sites/mathematical_physical_sciences/files/math0006.pdf" xlink:title="Year 1, term 2">
<polygon fill="white" stroke="#cd950c" stroke-width="5" points="1329,-199.5 1232,-199.5 1232,-157 1329,-157 1329,-199.5"/>
<text xml:space="preserve" text-anchor="middle" x="1280.5" y="-182.2" font-family="Times,serif" font-size="14.00">MATH0006</text>
<text xml:space="preserve" text-anchor="middle" x="1280.5" y="-164.95" font-family="Times,serif" font-size="14.00">Algebra 2</text>
</a>
</g>
</g>
<!-- MATH0005&#45;&gt;MATH0006 -->
<g id="edge2" class="edge">
<title>MATH0005&#45;&gt;MATH0006</title>
<g id="a_edge2"><a xlink:title="required prerequisite">
<path fill="none" stroke="black" d="M1280.5,-233.21C1280.5,-226.89 1280.5,-219.87 1280.5,-213.04"/>
<polygon fill="black" stroke="black" points="1284,-213.41 1280.5,-203.41 1277,-213.41 1284,-213.41"/>
</a>
</g>
</g>
<!-- MATH0008 -->
<g id="node5" class="node">
<title>MATH0008</title>
<g id="a_node5"><a xlink:href="https://www.ucl.ac.uk/mathematical-physical-sciences/sites/mathematical_physical_sciences/files/math0008.pdf" xlink:title="Year 1, term 1">
<polygon fill="white" stroke="#ffb90f" stroke-width="5" points="564.25,-278 396.75,-278 396.75,-235.5 564.25,-235.5 564.25,-278"/>
<text xml:space="preserve" text-anchor="middle" x="480.5" y="-260.7" font-family="Times,serif" font-size="14.00">MATH0008</text>
<text xml:space="preserve" text-anchor="middle" x="480.5" y="-243.45" font-family="Times,serif" font-size="14.00">Applied Mathematics</text>
</a>
</g>
</g>
<!-- MATH0008&#45;&gt;MATH0009 -->
<g id="edge4" class="edge">
<title>MATH0008&#45;&gt;MATH0009</title>
<g id="a_edge4"><a xlink:title="required prerequisite">
<path fill="none" stroke="black" d="M480.5,-233.21C480.5,-226.89 480.5,-219.87 480.5,-213.04"/>
<polygon fill="black" stroke="black" points="484,-213.41 480.5,-203.41 477,-213.41 484,-213.41"/>
</a>
</g>
</g>
<!-- MATH0002 -->
<g id="node6" class="node">
<title>MATH0002</title>
<g id="a_node6"><a xlink:href="https://www.ucl.ac.uk/mathematical-physical-sciences/sites/mathematical_physical_sciences/files/math0002.pdf" xlink:title="Year 1, term 1 and 2">
<polygon fill="white" stroke="#eead0e" stroke-width="5" points="1817.5,-278 1567.5,-278 1567.5,-235.5 1817.5,-235.5 1817.5,-278"/>
<text xml:space="preserve" text-anchor="middle" x="1692.5" y="-260.7" font-family="Times,serif" font-size="14.00">MATH0002</text>
<text xml:space="preserve" text-anchor="middle" x="1692.5" y="-243.45" font-family="Times,serif" font-size="14.00">Economics 1 &#45; Combined Studies</text>
</a>
</g>
</g>
<!-- STAT0001 -->
<g id="node16" class="node">
<title>STAT0001</title>
<g id="a_node16"><a xlink:href="https://www.ucl.ac.uk/mathematical-physical-sciences/sites/mathematical_physical_sciences/files/stat0001.pdf" xlink:title="Year 2, term 1 and 2">
<polygon fill="white" stroke="#00cd00" stroke-width="5" points="1817.5,-199.5 1567.5,-199.5 1567.5,-157 1817.5,-157 1817.5,-199.5"/>
<text xml:space="preserve" text-anchor="middle" x="1692.5" y="-182.2" font-family="Times,serif" font-size="14.00">STAT0001</text>
<text xml:space="preserve" text-anchor="middle" x="1692.5" y="-164.95" font-family="Times,serif" font-size="14.00">Economics 2 &#45; Combined Studies</text>
</a>
</g>
</g>
<!-- MATH0002&#45;&gt;STAT0001 -->
<g id="edge12" class="edge">
<title>MATH0002&#45;&gt;STAT0001</title>
<g id="a_edge12"><a xlink:title="required prerequisite">
<path fill="none" stroke="black" d="M1692.5,-233.21C1692.5,-226.89 1692.5,-219.87 1692.5,-213.04"/>
<polygon fill="black" stroke="black" points="1696,-213.41 1692.5,-203.41 1689,-213.41 1696,-213.41"/>
</a>
</g>
</g>
<!-- MATH0016 -->
<g id="node14" class="node">
<title>MATH0016</title>
<g id="a_node14"><a xlink:href="https://www.ucl.ac.uk/mathematical-physical-sciences/sites/mathematical_physical_sciences/files/math0016.pdf" xlink:title="Year 2, term 1">
<polygon fill="white" stroke="#00ff00" stroke-width="5" points="759.75,-121 565.25,-121 565.25,-78.5 759.75,-78.5 759.75,-121"/>
<text xml:space="preserve" text-anchor="middle" x="662.5" y="-103.7" font-family="Times,serif" font-size="14.00">MATH0016</text>
<text xml:space="preserve" text-anchor="middle" x="662.5" y="-86.45" font-family="Times,serif" font-size="14.00">Mathematical Methods 3</text>
</a>
</g>
</g>
<!-- MATH0011&#45;&gt;MATH0016 -->
<g id="edge9" class="edge">
<title>MATH0011&#45;&gt;MATH0016</title>
<g id="a_edge9"><a xlink:title="required prerequisite">
<path fill="none" stroke="black" d="M676.61,-154.71C674.91,-148.23 673.03,-141.03 671.2,-134.04"/>
<polygon fill="black" stroke="black" points="674.72,-133.65 668.8,-124.86 667.95,-135.42 674.72,-133.65"/>
</a>
</g>
</g>
<!-- MATH0015 -->
<g id="node15" class="node">
<title>MATH0015</title>
<g id="a_node15"><a xlink:href="https://www.ucl.ac.uk/mathematical-physical-sciences/sites/mathematical_physical_sciences/files/math0015.pdf" xlink:title="Year 2, term 1">
<polygon fill="white" stroke="#00ff00" stroke-width="5" points="547,-121 414,-121 414,-78.5 547,-78.5 547,-121"/>
<text xml:space="preserve" text-anchor="middle" x="480.5" y="-103.7" font-family="Times,serif" font-size="14.00">MATH0015</text>
<text xml:space="preserve" text-anchor="middle" x="480.5" y="-86.45" font-family="Times,serif" font-size="14.00">Fluid Mechanics</text>
</a>
</g>
</g>
<!-- MATH0011&#45;&gt;MATH0015 -->
<g id="edge10" class="edge">
<title>MATH0011&#45;&gt;MATH0015</title>
<g id="a_edge10"><a xlink:title="required prerequisite">
<path fill="none" stroke="black" d="M622.44,-154.5C599.95,-145.99 574.2,-136.24 550.86,-127.4"/>
<polygon fill="black" stroke="black" points="552.34,-124.21 541.74,-123.94 549.86,-130.76 552.34,-124.21"/>
</a>
</g>
</g>
<!-- MATH0057 -->
<g id="node23" class="node">
<title>MATH0057</title>
<g id="a_node23"><a xlink:href="https://www.ucl.ac.uk/mathematical-physical-sciences/sites/mathematical_physical_sciences/files/math0057.pdf" xlink:title="Year 2 or 3, term 2">
<polygon fill="white" stroke="#8ee5ee" stroke-width="5" points="966.25,-42.5 768.75,-42.5 768.75,0 966.25,0 966.25,-42.5"/>
<text xml:space="preserve" text-anchor="middle" x="867.5" y="-25.2" font-family="Times,serif" font-size="14.00">MATH0057</text>
<text xml:space="preserve" text-anchor="middle" x="867.5" y="-7.95" font-family="Times,serif" font-size="14.00">Probability and Statistics</text>
</a>
</g>
</g>
<!-- MATH0011&#45;&gt;MATH0057 -->
<g id="edge21" class="edge">
<title>MATH0011&#45;&gt;MATH0057</title>
<g id="a_edge21"><a xlink:title="required prerequisite">
<path fill="none" stroke="black" d="M720.49,-154.76C735.89,-145.05 753.54,-133.14 768.5,-121 794.23,-100.12 820.67,-73.43 839.74,-53.07"/>
<polygon fill="black" stroke="black" points="842.18,-55.58 846.42,-45.87 837.05,-50.82 842.18,-55.58"/>
</a>
</g>
</g>
<!-- MATH0014 -->
<g id="node13" class="node">
<title>MATH0014</title>
<g id="a_node13"><a xlink:href="https://www.ucl.ac.uk/mathematical-physical-sciences/sites/mathematical_physical_sciences/files/math0014.pdf" xlink:title="Year 2, term 1">
<polygon fill="white" stroke="#00ff00" stroke-width="5" points="1610.38,-121 1350.62,-121 1350.62,-78.5 1610.38,-78.5 1610.38,-121"/>
<text xml:space="preserve" text-anchor="middle" x="1480.5" y="-103.7" font-family="Times,serif" font-size="14.00">MATH0014</text>
<text xml:space="preserve" text-anchor="middle" x="1480.5" y="-86.45" font-family="Times,serif" font-size="14.00">Algebra 3: Further Linear Algebra</text>
</a>
</g>
</g>
<!-- MATH0006&#45;&gt;MATH0014 -->
<g id="edge8" class="edge">
<title>MATH0006&#45;&gt;MATH0014</title>
<g id="a_edge8"><a xlink:title="required prerequisite">
<path fill="none" stroke="black" d="M1331.49,-157.75C1355.49,-148.57 1384.5,-137.47 1410.53,-127.52"/>
<polygon fill="black" stroke="black" points="1411.59,-130.86 1419.68,-124.02 1409.09,-124.32 1411.59,-130.86"/>
</a>
</g>
</g>
<!-- MATH0053 -->
<g id="node19" class="node">
<title>MATH0053</title>
<g id="a_node19"><a xlink:href="https://www.ucl.ac.uk/mathematical-physical-sciences/sites/mathematical_physical_sciences/files/math0053.pdf" xlink:title="Year 2 or 3, term 2">
<polygon fill="white" stroke="#8ee5ee" stroke-width="5" points="1287,-42.5 1190,-42.5 1190,0 1287,0 1287,-42.5"/>
<text xml:space="preserve" text-anchor="middle" x="1238.5" y="-25.2" font-family="Times,serif" font-size="14.00">MATH0053</text>
<text xml:space="preserve" text-anchor="middle" x="1238.5" y="-7.95" font-family="Times,serif" font-size="14.00">Algebra 4</text>
</a>
</g>
</g>
<!-- MATH0006&#45;&gt;MATH0053 -->
<g id="edge15" class="edge">
<title>MATH0006&#45;&gt;MATH0053</title>
<g id="a_edge15"><a xlink:title="required prerequisite">
<path fill="none" stroke="black" d="M1274.39,-154.71C1267.33,-128.65 1255.64,-85.52 1247.53,-55.58"/>
<polygon fill="black" stroke="black" points="1251,-55.01 1245.01,-46.28 1244.25,-56.84 1251,-55.01"/>
</a>
</g>
</g>
<!-- MATH0034 -->
<g id="node20" class="node">
<title>MATH0034</title>
<g id="a_node20"><a xlink:href="https://www.ucl.ac.uk/mathematical-physical-sciences/sites/mathematical_physical_sciences/files/math0034.pdf" xlink:title="Year 2 or 3, term 2">
<polygon fill="white" stroke="#8ee5ee" stroke-width="5" points="1433.75,-42.5 1305.25,-42.5 1305.25,0 1433.75,0 1433.75,-42.5"/>
<text xml:space="preserve" text-anchor="middle" x="1369.5" y="-25.2" font-family="Times,serif" font-size="14.00">MATH0034</text>
<text xml:space="preserve" text-anchor="middle" x="1369.5" y="-7.95" font-family="Times,serif" font-size="14.00">Number Theory</text>
</a>
</g>
</g>
<!-- MATH0006&#45;&gt;MATH0034 -->
<g id="edge16" class="edge">
<title>MATH0006&#45;&gt;MATH0034</title>
<g id="a_edge16"><a xlink:title="required prerequisite">
<path fill="none" stroke="black" d="M1293.44,-154.71C1308.54,-128.42 1333.61,-84.76 1350.81,-54.79"/>
<polygon fill="black" stroke="black" points="1353.85,-56.54 1355.79,-46.13 1347.77,-53.06 1353.85,-56.54"/>
</a>
</g>
</g>
<!-- MATH0006&#45;&gt;MATH0058 -->
<g id="edge20" class="edge">
<title>MATH0006&#45;&gt;MATH0058</title>
<g id="a_edge20"><a xlink:title="required prerequisite">
<path fill="none" stroke="black" d="M1251.13,-154.71C1215.67,-127.51 1155.95,-81.68 1116.88,-51.7"/>
<polygon fill="black" stroke="black" points="1119.17,-49.05 1109.11,-45.74 1114.91,-54.6 1119.17,-49.05"/>
</a>
</g>
</g>
<!-- MATH0004&#45;&gt;MATH0013 -->
<g id="edge7" class="edge">
<title>MATH0004&#45;&gt;MATH0013</title>
<g id="a_edge7"><a xlink:title="recommended prerequisite">
<path fill="none" stroke="black" stroke-dasharray="5,2" d="M147.19,-154.71C154.64,-147.31 163.05,-138.95 170.98,-131.07"/>
<polygon fill="black" stroke="black" points="173.01,-133.99 177.64,-124.46 168.08,-129.02 173.01,-133.99"/>
</a>
</g>
</g>
<!-- MATH0051 -->
<g id="node17" class="node">
<title>MATH0051</title>
<g id="a_node17"><a xlink:href="https://www.ucl.ac.uk/mathematical-physical-sciences/sites/mathematical_physical_sciences/files/math0051.pdf" xlink:title="Year 2 or 3, term 2">
<polygon fill="white" stroke="#8ee5ee" stroke-width="5" points="97,-42.5 0,-42.5 0,0 97,0 97,-42.5"/>
<text xml:space="preserve" text-anchor="middle" x="48.5" y="-25.2" font-family="Times,serif" font-size="14.00">MATH0051</text>
<text xml:space="preserve" text-anchor="middle" x="48.5" y="-7.95" font-family="Times,serif" font-size="14.00">Analysis 4</text>
</a>
</g>
</g>
<!-- MATH0004&#45;&gt;MATH0051 -->
<g id="edge13" class="edge">
<title>MATH0004&#45;&gt;MATH0051</title>
<g id="a_edge13"><a xlink:title="required prerequisite">
<path fill="none" stroke="black" d="M102.59,-154.64C94.1,-144.91 84.91,-133.02 78.5,-121 67.62,-100.61 60.09,-75.71 55.29,-56.01"/>
<polygon fill="black" stroke="black" points="58.71,-55.23 53.06,-46.27 51.88,-56.8 58.71,-55.23"/>
</a>
</g>
</g>
<!-- MATH0009&#45;&gt;MATH0015 -->
<g id="edge11" class="edge">
<title>MATH0009&#45;&gt;MATH0015</title>
<g id="a_edge11"><a xlink:title="required prerequisite">
<path fill="none" stroke="black" d="M480.5,-154.71C480.5,-148.39 480.5,-141.37 480.5,-134.54"/>
<polygon fill="black" stroke="black" points="484,-134.91 480.5,-124.91 477,-134.91 484,-134.91"/>
</a>
</g>
</g>
<!-- MATH0007 -->
<g id="node11" class="node">
<title>MATH0007</title>
<g id="a_node11"><a xlink:href="https://www.ucl.ac.uk/mathematical-physical-sciences/sites/mathematical_physical_sciences/files/math0007.pdf" xlink:title="Year 1, term 2">
<polygon fill="white" stroke="#cd950c" stroke-width="5" points="2103.5,-199.5 1835.5,-199.5 1835.5,-157 2103.5,-157 2103.5,-199.5"/>
<text xml:space="preserve" text-anchor="middle" x="1969.5" y="-182.2" font-family="Times,serif" font-size="14.00">MATH0007</text>
<text xml:space="preserve" text-anchor="middle" x="1969.5" y="-164.95" font-family="Times,serif" font-size="14.00">Algebra for Joint Honours Students</text>
</a>
</g>
</g>
<!-- MATH0056 -->
<g id="node21" class="node">
<title>MATH0056</title>
<g id="a_node21"><a xlink:href="https://www.ucl.ac.uk/mathematical-physical-sciences/sites/mathematical_physical_sciences/files/math0056.pdf" xlink:title="Year 2 or 3, term 2">
<polygon fill="white" stroke="#8ee5ee" stroke-width="5" points="309.75,-42.5 115.25,-42.5 115.25,0 309.75,0 309.75,-42.5"/>
<text xml:space="preserve" text-anchor="middle" x="212.5" y="-25.2" font-family="Times,serif" font-size="14.00">MATH0056</text>
<text xml:space="preserve" text-anchor="middle" x="212.5" y="-7.95" font-family="Times,serif" font-size="14.00">Mathematical Methods 4</text>
</a>
</g>
</g>
<!-- MATH0013&#45;&gt;MATH0056 -->
<g id="edge17" class="edge">
<title>MATH0013&#45;&gt;MATH0056</title>
<g id="a_edge17"><a xlink:title="required prerequisite">
<path fill="none" stroke="black" d="M204.74,-76.21C205.65,-69.89 206.66,-62.87 207.64,-56.04"/>
<polygon fill="black" stroke="black" points="211.07,-56.79 209.03,-46.39 204.14,-55.79 211.07,-56.79"/>
</a>
</g>
</g>
<!-- MATH0055 -->
<g id="node18" class="node">
<title>MATH0055</title>
<g id="a_node18"><a xlink:href="https://www.ucl.ac.uk/mathematical-physical-sciences/sites/mathematical_physical_sciences/files/math0055_3.pdf" xlink:title="Year 2 or 3, term 2">
<polygon fill="white" stroke="#8ee5ee" stroke-width="5" points="751.12,-42.5 327.88,-42.5 327.88,0 751.12,0 751.12,-42.5"/>
<text xml:space="preserve" text-anchor="middle" x="539.5" y="-25.2" font-family="Times,serif" font-size="14.00">MATH0055</text>
<text xml:space="preserve" text-anchor="middle" x="539.5" y="-7.95" font-family="Times,serif" font-size="14.00">Mathematics of Electromagnetism and Special Relativity</text>
</a>
</g>
</g>
<!-- MATH0016&#45;&gt;MATH0055 -->
<g id="edge14" class="edge">
<title>MATH0016&#45;&gt;MATH0055</title>
<g id="a_edge14"><a xlink:title="required prerequisite">
<path fill="none" stroke="black" d="M625.93,-76C613.16,-68.07 598.68,-59.05 585.26,-50.71"/>
<polygon fill="black" stroke="black" points="587.34,-47.88 577,-45.58 583.65,-53.83 587.34,-47.88"/>
</a>
</g>
</g>
<!-- MATH0016&#45;&gt;MATH0056 -->
<g id="edge18" class="edge">
<title>MATH0016&#45;&gt;MATH0056</title>
<g id="a_edge18"><a xlink:title="required prerequisite">
<path fill="none" stroke="black" d="M562.85,-79.77C560.38,-79.34 557.92,-78.91 555.5,-78.5 454.06,-61.2 425.44,-60.53 323.2,-43.28"/>
<polygon fill="black" stroke="black" points="324,-39.87 313.56,-41.64 322.83,-46.77 324,-39.87"/>
</a>
</g>
</g>
</g>
</svg>
