<?xml version="1.0" encoding="UTF-8" standalone="no"?>
<!DOCTYPE svg PUBLIC "-//W3C//DTD SVG 1.1//EN"
 "http://www.w3.org/Graphics/SVG/1.1/DTD/svg11.dtd">
<!-- Generated by graphviz version 12.1.1 (0)
 -->
<!-- Pages: 1 -->
<svg width="2655pt" height="443pt"
 viewBox="0.00 0.00 2655.00 443.00" xmlns="http://www.w3.org/2000/svg" xmlns:xlink="http://www.w3.org/1999/xlink">
<g id="graph0" class="graph" transform="scale(1 1) rotate(0) translate(4 439)">
<polygon fill="white" stroke="none" points="-4,4 -4,-439 2651,-439 2651,4 -4,4"/>
<!-- MATH0008 -->
<g id="node1" class="node">
<title>MATH0008</title>
<g id="a_node1"><a xlink:href="https://www.ucl.ac.uk/maths/sites/maths/files/math0008.pdf" xlink:title="MATH0008&#10;Applied Mathematics">
<polygon fill="white" stroke="orange" stroke-width="5" points="215,-435 47.5,-435 47.5,-392.5 215,-392.5 215,-435"/>
<text text-anchor="middle" x="131.25" y="-417.7" font-family="Times,serif" font-size="14.00">MATH0008</text>
<text text-anchor="middle" x="131.25" y="-400.45" font-family="Times,serif" font-size="14.00">Applied Mathematics</text>
</a>
</g>
</g>
<!-- MATH0082 -->
<g id="node25" class="node">
<title>MATH0082</title>
<g id="a_node25"><a xlink:href="https://www.ucl.ac.uk/maths/sites/maths/files/math0082.pdf" xlink:title="MATH0082&#10;Evolutionary Games and Population Genetics">
<polygon fill="white" stroke="midnightblue" stroke-width="5" points="338.5,-42.5 0,-42.5 0,0 338.5,0 338.5,-42.5"/>
<text text-anchor="middle" x="169.25" y="-25.2" font-family="Times,serif" font-size="14.00">MATH0082</text>
<text text-anchor="middle" x="169.25" y="-7.95" font-family="Times,serif" font-size="14.00">Evolutionary Games and Population Genetics</text>
</a>
</g>
</g>
<!-- MATH0008&#45;&gt;MATH0082 -->
<g id="edge41" class="edge">
<title>MATH0008&#45;&gt;MATH0082</title>
<path fill="none" stroke="black" d="M131.25,-390.16C131.25,-359.98 131.25,-304.84 131.25,-257.75 131.25,-257.75 131.25,-257.75 131.25,-177.25 131.25,-134.31 145.17,-86.56 156.17,-55.56"/>
<polygon fill="black" stroke="black" points="159.38,-56.95 159.53,-46.35 152.81,-54.54 159.38,-56.95"/>
</g>
<!-- MATH0005 -->
<g id="node2" class="node">
<title>MATH0005</title>
<g id="a_node2"><a xlink:href="https://www.ucl.ac.uk/maths/sites/maths/files/math0005.pdf" xlink:title="MATH0005&#10;Algebra 1">
<polygon fill="white" stroke="orange" stroke-width="5" points="1979.75,-435 1882.75,-435 1882.75,-392.5 1979.75,-392.5 1979.75,-435"/>
<text text-anchor="middle" x="1931.25" y="-417.7" font-family="Times,serif" font-size="14.00">MATH0005</text>
<text text-anchor="middle" x="1931.25" y="-400.45" font-family="Times,serif" font-size="14.00">Algebra 1</text>
</a>
</g>
</g>
<!-- MATH0006 -->
<g id="node5" class="node">
<title>MATH0006</title>
<g id="a_node5"><a xlink:href="https://www.ucl.ac.uk/maths/sites/maths/files/math0006.pdf" xlink:title="MATH0006&#10;Algebra 2">
<polygon fill="white" stroke="orange" stroke-width="5" points="1941.75,-356.5 1844.75,-356.5 1844.75,-314 1941.75,-314 1941.75,-356.5"/>
<text text-anchor="middle" x="1893.25" y="-339.2" font-family="Times,serif" font-size="14.00">MATH0006</text>
<text text-anchor="middle" x="1893.25" y="-321.95" font-family="Times,serif" font-size="14.00">Algebra 2</text>
</a>
</g>
</g>
<!-- MATH0005&#45;&gt;MATH0006 -->
<g id="edge1" class="edge">
<title>MATH0005&#45;&gt;MATH0006</title>
<path fill="none" stroke="black" d="M1920.05,-390.21C1916.76,-383.58 1913.09,-376.18 1909.54,-369.04"/>
<polygon fill="black" stroke="black" points="1912.75,-367.65 1905.17,-360.25 1906.48,-370.76 1912.75,-367.65"/>
</g>
<!-- MATH0114 -->
<g id="node19" class="node">
<title>MATH0114</title>
<g id="a_node19"><a xlink:href="https://www.ucl.ac.uk/maths/sites/maths/files/math0114_0.pdf" xlink:title="MATH0114&#10;Mathematics for Machine Learning and Artificial Intelligence">
<polygon fill="white" stroke="#ff4040" stroke-width="5" points="2175.5,-121 1723,-121 1723,-78.5 2175.5,-78.5 2175.5,-121"/>
<text text-anchor="middle" x="1949.25" y="-103.7" font-family="Times,serif" font-size="14.00">MATH0114</text>
<text text-anchor="middle" x="1949.25" y="-86.45" font-family="Times,serif" font-size="14.00">Mathematics for Machine Learning and Artificial Intelligence</text>
</a>
</g>
</g>
<!-- MATH0005&#45;&gt;MATH0114 -->
<g id="edge21" class="edge">
<title>MATH0005&#45;&gt;MATH0114</title>
<path fill="none" stroke="black" d="M1941.24,-390.24C1945.2,-380.14 1949.28,-367.94 1951.25,-356.5 1964.81,-277.88 1958.35,-183.63 1953.29,-134.42"/>
<polygon fill="black" stroke="black" points="1956.8,-134.27 1952.24,-124.71 1949.84,-135.03 1956.8,-134.27"/>
</g>
<!-- MATH0003 -->
<g id="node3" class="node">
<title>MATH0003</title>
<g id="a_node3"><a xlink:href="https://www.ucl.ac.uk/maths/sites/maths/files/math0003.pdf" xlink:title="MATH0003&#10;Analysis 1">
<polygon fill="white" stroke="orange" stroke-width="5" points="1399.75,-435 1302.75,-435 1302.75,-392.5 1399.75,-392.5 1399.75,-435"/>
<text text-anchor="middle" x="1351.25" y="-417.7" font-family="Times,serif" font-size="14.00">MATH0003</text>
<text text-anchor="middle" x="1351.25" y="-400.45" font-family="Times,serif" font-size="14.00">Analysis 1</text>
</a>
</g>
</g>
<!-- MATH0004 -->
<g id="node7" class="node">
<title>MATH0004</title>
<g id="a_node7"><a xlink:href="https://www.ucl.ac.uk/maths/sites/maths/files/math0004.pdf" xlink:title="MATH0004&#10;Analysis 2">
<polygon fill="white" stroke="orange" stroke-width="5" points="1545.75,-356.5 1448.75,-356.5 1448.75,-314 1545.75,-314 1545.75,-356.5"/>
<text text-anchor="middle" x="1497.25" y="-339.2" font-family="Times,serif" font-size="14.00">MATH0004</text>
<text text-anchor="middle" x="1497.25" y="-321.95" font-family="Times,serif" font-size="14.00">Analysis 2</text>
</a>
</g>
</g>
<!-- MATH0003&#45;&gt;MATH0004 -->
<g id="edge3" class="edge">
<title>MATH0003&#45;&gt;MATH0004</title>
<path fill="none" stroke="black" d="M1394.66,-390C1410.18,-381.87 1427.85,-372.61 1444.1,-364.1"/>
<polygon fill="black" stroke="black" points="1445.43,-367.35 1452.67,-359.61 1442.18,-361.15 1445.43,-367.35"/>
</g>
<!-- MATH0013 -->
<g id="node8" class="node">
<title>MATH0013</title>
<g id="a_node8"><a xlink:href="https://www.ucl.ac.uk/maths/sites/maths/files/math0013.pdf" xlink:title="MATH0013&#10;Analysis 3 &#45; Complex Analysis">
<polygon fill="white" stroke="#00cd00" stroke-width="5" points="1142.38,-278 914.12,-278 914.12,-235.5 1142.38,-235.5 1142.38,-278"/>
<text text-anchor="middle" x="1028.25" y="-260.7" font-family="Times,serif" font-size="14.00">MATH0013</text>
<text text-anchor="middle" x="1028.25" y="-243.45" font-family="Times,serif" font-size="14.00">Analysis 3 &#45; Complex Analysis</text>
</a>
</g>
</g>
<!-- MATH0003&#45;&gt;MATH0013 -->
<g id="edge4" class="edge">
<title>MATH0003&#45;&gt;MATH0013</title>
<path fill="none" stroke="black" d="M1303.94,-390.05C1245.92,-362.21 1147.67,-315.06 1085.47,-285.21"/>
<polygon fill="black" stroke="black" points="1087.32,-282.21 1076.79,-281.04 1084.29,-288.53 1087.32,-282.21"/>
</g>
<!-- MATH0003&#45;&gt;MATH0114 -->
<g id="edge19" class="edge">
<title>MATH0003&#45;&gt;MATH0114</title>
<path fill="none" stroke="black" d="M1401.96,-401.53C1443.75,-391.63 1504.22,-375.79 1555.25,-356.5 1629.72,-328.36 1648.47,-319.75 1716.25,-278 1790.75,-232.12 1870.41,-167.8 1914.61,-130.58"/>
<polygon fill="black" stroke="black" points="1916.69,-133.4 1922.07,-124.27 1912.17,-128.05 1916.69,-133.4"/>
</g>
<!-- MATH0003&#45;&gt;MATH0082 -->
<g id="edge43" class="edge">
<title>MATH0003&#45;&gt;MATH0082</title>
<path fill="none" stroke="black" d="M1300.47,-411.95C1170.76,-409.32 830.16,-398.49 726.25,-356.5 543.67,-282.73 556.92,-167.47 381.25,-78.5 356.28,-65.86 328.18,-55.83 300.8,-47.97"/>
<polygon fill="black" stroke="black" points="301.97,-44.67 291.4,-45.36 300.1,-51.41 301.97,-44.67"/>
</g>
<!-- MATH0010 -->
<g id="node4" class="node">
<title>MATH0010</title>
<g id="a_node4"><a xlink:href="https://www.ucl.ac.uk/maths/sites/maths/files/math0010.pdf" xlink:title="MATH0010&#10;Mathematical Methods 1">
<polygon fill="white" stroke="orange" stroke-width="5" points="639.5,-435 445,-435 445,-392.5 639.5,-392.5 639.5,-435"/>
<text text-anchor="middle" x="542.25" y="-417.7" font-family="Times,serif" font-size="14.00">MATH0010</text>
<text text-anchor="middle" x="542.25" y="-400.45" font-family="Times,serif" font-size="14.00">Mathematical Methods 1</text>
</a>
</g>
</g>
<!-- MATH0011 -->
<g id="node6" class="node">
<title>MATH0011</title>
<g id="a_node6"><a xlink:href="https://www.ucl.ac.uk/maths/sites/maths/files/math0011_syllabus.pdf" xlink:title="MATH0011&#10;Mathematical Methods 2">
<polygon fill="white" stroke="orange" stroke-width="5" points="929.5,-356.5 735,-356.5 735,-314 929.5,-314 929.5,-356.5"/>
<text text-anchor="middle" x="832.25" y="-339.2" font-family="Times,serif" font-size="14.00">MATH0011</text>
<text text-anchor="middle" x="832.25" y="-321.95" font-family="Times,serif" font-size="14.00">Mathematical Methods 2</text>
</a>
</g>
</g>
<!-- MATH0010&#45;&gt;MATH0011 -->
<g id="edge2" class="edge">
<title>MATH0010&#45;&gt;MATH0011</title>
<path fill="none" stroke="black" d="M628.47,-390C662,-381.16 700.56,-370.99 735.06,-361.89"/>
<polygon fill="black" stroke="black" points="735.87,-365.29 744.64,-359.36 734.08,-358.53 735.87,-365.29"/>
</g>
<!-- MATH0058 -->
<g id="node12" class="node">
<title>MATH0058</title>
<g id="a_node12"><a xlink:href="https://www.ucl.ac.uk/maths/sites/maths/files/math0058.pdf" xlink:title="MATH0058&#10;Computational Methods">
<polygon fill="white" stroke="cadetblue" stroke-width="5" points="1598.12,-199.5 1410.38,-199.5 1410.38,-157 1598.12,-157 1598.12,-199.5"/>
<text text-anchor="middle" x="1504.25" y="-182.2" font-family="Times,serif" font-size="14.00">MATH0058</text>
<text text-anchor="middle" x="1504.25" y="-164.95" font-family="Times,serif" font-size="14.00">Computational Methods</text>
</a>
</g>
</g>
<!-- MATH0010&#45;&gt;MATH0058 -->
<g id="edge10" class="edge">
<title>MATH0010&#45;&gt;MATH0058</title>
<path fill="none" stroke="black" d="M641.71,-403.81C835.51,-385.28 1256.19,-339.23 1387.25,-278 1422.06,-261.74 1454.86,-232.36 1476.82,-209.86"/>
<polygon fill="black" stroke="black" points="1479.27,-212.36 1483.64,-202.71 1474.21,-207.53 1479.27,-212.36"/>
</g>
<!-- MATH0030 -->
<g id="node15" class="node">
<title>MATH0030</title>
<g id="a_node15"><a xlink:href="https://www.ucl.ac.uk/maths/sites/maths/files/math0030.pdf" xlink:title="MATH0030&#10;Mathematical Ecology">
<polygon fill="white" stroke="#ff4040" stroke-width="5" points="372.75,-121 197.75,-121 197.75,-78.5 372.75,-78.5 372.75,-121"/>
<text text-anchor="middle" x="285.25" y="-103.7" font-family="Times,serif" font-size="14.00">MATH0030</text>
<text text-anchor="middle" x="285.25" y="-86.45" font-family="Times,serif" font-size="14.00">Mathematical Ecology</text>
</a>
</g>
</g>
<!-- MATH0010&#45;&gt;MATH0030 -->
<g id="edge16" class="edge">
<title>MATH0010&#45;&gt;MATH0030</title>
<path fill="none" stroke="black" d="M477.03,-390.08C458.8,-381.56 439.97,-370.46 425.25,-356.5 357.34,-292.08 314.49,-187.27 295.93,-134.04"/>
<polygon fill="black" stroke="black" points="299.26,-132.97 292.72,-124.63 292.63,-135.22 299.26,-132.97"/>
</g>
<!-- MATH0102 -->
<g id="node21" class="node">
<title>MATH0102</title>
<g id="a_node21"><a xlink:href="https://www.ucl.ac.uk/maths/sites/maths/files/math0102.pdf" xlink:title="MATH0102&#10;Applied Stochastic Methods">
<polygon fill="white" stroke="deeppink" stroke-width="5" points="1007,-42.5 791.5,-42.5 791.5,0 1007,0 1007,-42.5"/>
<text text-anchor="middle" x="899.25" y="-25.2" font-family="Times,serif" font-size="14.00">MATH0102</text>
<text text-anchor="middle" x="899.25" y="-7.95" font-family="Times,serif" font-size="14.00">Applied Stochastic Methods</text>
</a>
</g>
</g>
<!-- MATH0010&#45;&gt;MATH0102 -->
<g id="edge28" class="edge">
<title>MATH0010&#45;&gt;MATH0102</title>
<path fill="none" stroke="black" d="M499.28,-390.26C485.97,-381.37 472.41,-370.02 463.25,-356.5 437.93,-319.1 439.25,-302.92 439.25,-257.75 439.25,-257.75 439.25,-257.75 439.25,-177.25 439.25,-132.56 425.66,-109.09 458.25,-78.5 503.15,-36.36 663.4,-24.9 777.77,-22.24"/>
<polygon fill="black" stroke="black" points="777.59,-25.75 787.52,-22.04 777.45,-18.75 777.59,-25.75"/>
</g>
<!-- MATH0065 -->
<g id="node22" class="node">
<title>MATH0065</title>
<g id="a_node22"><a xlink:href="https://www.ucl.ac.uk/maths/sites/maths/files/math0065.pdf" xlink:title="MATH0065&#10;Advanced Modelling Techniques">
<polygon fill="white" stroke="midnightblue" stroke-width="5" points="863,-121 617.5,-121 617.5,-78.5 863,-78.5 863,-121"/>
<text text-anchor="middle" x="740.25" y="-103.7" font-family="Times,serif" font-size="14.00">MATH0065</text>
<text text-anchor="middle" x="740.25" y="-86.45" font-family="Times,serif" font-size="14.00">Advanced Modelling Techniques</text>
</a>
</g>
</g>
<!-- MATH0010&#45;&gt;MATH0065 -->
<g id="edge34" class="edge">
<title>MATH0010&#45;&gt;MATH0065</title>
<path fill="none" stroke="black" d="M556.65,-390.06C591.37,-335.35 679.78,-196.04 719.9,-132.82"/>
<polygon fill="black" stroke="black" points="722.69,-134.95 725.09,-124.63 716.78,-131.2 722.69,-134.95"/>
</g>
<!-- MATH0010&#45;&gt;MATH0082 -->
<g id="edge42" class="edge">
<title>MATH0010&#45;&gt;MATH0082</title>
<path fill="none" stroke="black" d="M442.78,-391.86C332.29,-365.72 169.25,-317.09 169.25,-257.75 169.25,-257.75 169.25,-257.75 169.25,-177.25 169.25,-135.49 169.25,-87.41 169.25,-56.01"/>
<polygon fill="black" stroke="black" points="172.75,-56.35 169.25,-46.35 165.75,-56.35 172.75,-56.35"/>
</g>
<!-- MATH0014 -->
<g id="node9" class="node">
<title>MATH0014</title>
<g id="a_node9"><a xlink:href="https://www.ucl.ac.uk/maths/sites/maths/files/math0014.pdf" xlink:title="MATH0014&#10;Algebra 3: Further Linear Algebra">
<polygon fill="white" stroke="#00cd00" stroke-width="5" points="2258.12,-278 1998.38,-278 1998.38,-235.5 2258.12,-235.5 2258.12,-278"/>
<text text-anchor="middle" x="2128.25" y="-260.7" font-family="Times,serif" font-size="14.00">MATH0014</text>
<text text-anchor="middle" x="2128.25" y="-243.45" font-family="Times,serif" font-size="14.00">Algebra 3: Further Linear Algebra</text>
</a>
</g>
</g>
<!-- MATH0006&#45;&gt;MATH0014 -->
<g id="edge6" class="edge">
<title>MATH0006&#45;&gt;MATH0014</title>
<path fill="none" stroke="black" d="M1944.24,-317.65C1974.58,-307.77 2013.74,-295.03 2048.13,-283.83"/>
<polygon fill="black" stroke="black" points="2048.77,-287.3 2057.2,-280.88 2046.61,-280.65 2048.77,-287.3"/>
</g>
<!-- MATH0006&#45;&gt;MATH0058 -->
<g id="edge11" class="edge">
<title>MATH0006&#45;&gt;MATH0058</title>
<path fill="none" stroke="black" d="M1842.4,-313.99C1773.06,-286.36 1648.7,-236.81 1571.66,-206.11"/>
<polygon fill="black" stroke="black" points="1573.11,-202.92 1562.52,-202.47 1570.52,-209.42 1573.11,-202.92"/>
</g>
<!-- MATH0033 -->
<g id="node14" class="node">
<title>MATH0033</title>
<g id="a_node14"><a xlink:href="https://www.ucl.ac.uk/maths/sites/maths/files/math0033.pdf" xlink:title="MATH0033&#10;Numerical Methods">
<polygon fill="white" stroke="#ff4040" stroke-width="5" points="1704.75,-121 1547.75,-121 1547.75,-78.5 1704.75,-78.5 1704.75,-121"/>
<text text-anchor="middle" x="1626.25" y="-103.7" font-family="Times,serif" font-size="14.00">MATH0033</text>
<text text-anchor="middle" x="1626.25" y="-86.45" font-family="Times,serif" font-size="14.00">Numerical Methods</text>
</a>
</g>
</g>
<!-- MATH0006&#45;&gt;MATH0033 -->
<g id="edge13" class="edge">
<title>MATH0006&#45;&gt;MATH0033</title>
<path fill="none" stroke="black" d="M1867.65,-311.86C1819.43,-269.69 1715.11,-178.47 1660.76,-130.93"/>
<polygon fill="black" stroke="black" points="1663.14,-128.36 1653.31,-124.41 1658.53,-133.63 1663.14,-128.36"/>
</g>
<!-- MATH0006&#45;&gt;MATH0114 -->
<g id="edge22" class="edge">
<title>MATH0006&#45;&gt;MATH0114</title>
<path fill="none" stroke="black" d="M1898.62,-311.86C1908.48,-270.73 1929.54,-182.95 1941.15,-134.54"/>
<polygon fill="black" stroke="black" points="1944.53,-135.43 1943.46,-124.89 1937.73,-133.79 1944.53,-135.43"/>
</g>
<!-- MATH0016 -->
<g id="node10" class="node">
<title>MATH0016</title>
<g id="a_node10"><a xlink:href="https://www.ucl.ac.uk/maths/sites/maths/files/math0016.pdf" xlink:title="MATH0016&#10;Mathematical Methods 3">
<polygon fill="white" stroke="cadetblue" stroke-width="5" points="1354.5,-278 1160,-278 1160,-235.5 1354.5,-235.5 1354.5,-278"/>
<text text-anchor="middle" x="1257.25" y="-260.7" font-family="Times,serif" font-size="14.00">MATH0016</text>
<text text-anchor="middle" x="1257.25" y="-243.45" font-family="Times,serif" font-size="14.00">Mathematical Methods 3</text>
</a>
</g>
</g>
<!-- MATH0011&#45;&gt;MATH0016 -->
<g id="edge7" class="edge">
<title>MATH0011&#45;&gt;MATH0016</title>
<path fill="none" stroke="black" d="M931.82,-317.07C991.82,-306.63 1070.08,-292.85 1146.42,-278.88"/>
<polygon fill="black" stroke="black" points="1146.98,-282.34 1156.18,-277.09 1145.72,-275.45 1146.98,-282.34"/>
</g>
<!-- MATH0057 -->
<g id="node13" class="node">
<title>MATH0057</title>
<g id="a_node13"><a xlink:href="https://www.ucl.ac.uk/maths/sites/maths/files/math0057.pdf" xlink:title="MATH0057&#10;Probability and Statistics">
<polygon fill="white" stroke="cadetblue" stroke-width="5" points="1035,-199.5 837.5,-199.5 837.5,-157 1035,-157 1035,-199.5"/>
<text text-anchor="middle" x="936.25" y="-182.2" font-family="Times,serif" font-size="14.00">MATH0057</text>
<text text-anchor="middle" x="936.25" y="-164.95" font-family="Times,serif" font-size="14.00">Probability and Statistics</text>
</a>
</g>
</g>
<!-- MATH0011&#45;&gt;MATH0057 -->
<g id="edge12" class="edge">
<title>MATH0011&#45;&gt;MATH0057</title>
<path fill="none" stroke="black" d="M847.37,-311.71C865.16,-285.19 894.82,-240.99 914.94,-211.01"/>
<polygon fill="black" stroke="black" points="917.6,-213.33 920.27,-203.07 911.79,-209.43 917.6,-213.33"/>
</g>
<!-- MATH0011&#45;&gt;MATH0033 -->
<g id="edge14" class="edge">
<title>MATH0011&#45;&gt;MATH0033</title>
<path fill="none" stroke="black" d="M931.82,-329.55C1076.35,-321.85 1330.63,-304.7 1363.25,-278 1406.87,-242.29 1360.23,-195.66 1401.25,-157 1403.86,-154.54 1473.46,-137.35 1534.56,-122.61"/>
<polygon fill="black" stroke="black" points="1535.08,-126.08 1543.98,-120.34 1533.44,-119.28 1535.08,-126.08"/>
</g>
<!-- MATH0026 -->
<g id="node16" class="node">
<title>MATH0026</title>
<g id="a_node16"><a xlink:href="https://www.ucl.ac.uk/maths/sites/maths/files/math0026.pdf" xlink:title="MATH0026&#10;Biomathematics">
<polygon fill="white" stroke="#ff4040" stroke-width="5" points="599,-121 467.5,-121 467.5,-78.5 599,-78.5 599,-121"/>
<text text-anchor="middle" x="533.25" y="-103.7" font-family="Times,serif" font-size="14.00">MATH0026</text>
<text text-anchor="middle" x="533.25" y="-86.45" font-family="Times,serif" font-size="14.00">Biomathematics</text>
</a>
</g>
</g>
<!-- MATH0011&#45;&gt;MATH0026 -->
<g id="edge17" class="edge">
<title>MATH0011&#45;&gt;MATH0026</title>
<path fill="none" stroke="black" d="M790.54,-311.73C773.57,-302.02 754.04,-290.11 737.25,-278 672.34,-231.17 603.35,-168.04 564.54,-131.13"/>
<polygon fill="black" stroke="black" points="567.01,-128.65 557.36,-124.27 562.17,-133.71 567.01,-128.65"/>
</g>
<!-- MATH0011&#45;&gt;MATH0114 -->
<g id="edge23" class="edge">
<title>MATH0011&#45;&gt;MATH0114</title>
<path fill="none" stroke="black" d="M931.77,-330.75C1043.64,-325.3 1230.17,-311.64 1387.25,-278 1553.95,-242.3 1588.33,-207.2 1751.25,-157 1785,-146.6 1822.2,-135.85 1855.16,-126.56"/>
<polygon fill="black" stroke="black" points="1856.02,-129.96 1864.7,-123.88 1854.13,-123.22 1856.02,-129.96"/>
</g>
<!-- MATH0011&#45;&gt;MATH0102 -->
<g id="edge29" class="edge">
<title>MATH0011&#45;&gt;MATH0102</title>
<path fill="none" stroke="black" d="M825.58,-311.65C816.54,-276.61 804.13,-207.9 828.25,-157 839.07,-134.17 858.49,-142.19 872.25,-121 884.95,-101.44 891.73,-75.98 895.31,-55.81"/>
<polygon fill="black" stroke="black" points="898.74,-56.55 896.84,-46.13 891.83,-55.46 898.74,-56.55"/>
</g>
<!-- MATH0011&#45;&gt;MATH0065 -->
<g id="edge35" class="edge">
<title>MATH0011&#45;&gt;MATH0065</title>
<path fill="none" stroke="black" d="M789.94,-311.77C777.36,-302.94 764.9,-291.63 757.25,-278 732.2,-233.36 732.44,-172.32 735.74,-134.76"/>
<polygon fill="black" stroke="black" points="739.21,-135.25 736.73,-124.95 732.24,-134.54 739.21,-135.25"/>
</g>
<!-- MATH0004&#45;&gt;MATH0013 -->
<g id="edge5" class="edge">
<title>MATH0004&#45;&gt;MATH0013</title>
<path fill="none" stroke="black" stroke-dasharray="5,2" d="M1446.53,-326.04C1381.33,-315.47 1264.3,-296.48 1155.92,-278.76"/>
<polygon fill="black" stroke="black" points="1156.71,-275.35 1146.28,-277.19 1155.58,-282.25 1156.71,-275.35"/>
</g>
<!-- MATH0004&#45;&gt;MATH0114 -->
<g id="edge20" class="edge">
<title>MATH0004&#45;&gt;MATH0114</title>
<path fill="none" stroke="black" d="M1547.89,-325.21C1585.72,-316.91 1637.68,-302.17 1678.25,-278 1744.4,-238.59 1737.39,-198.51 1802.25,-157 1820.48,-145.33 1841.5,-135.5 1861.83,-127.49"/>
<polygon fill="black" stroke="black" points="1862.88,-130.84 1870.97,-124 1860.38,-124.3 1862.88,-130.84"/>
</g>
<!-- MATH0056 -->
<g id="node11" class="node">
<title>MATH0056</title>
<g id="a_node11"><a xlink:href="https://www.ucl.ac.uk/maths/sites/maths/files/math0056.pdf" xlink:title="MATH0056&#10;Mathematical Methods 4">
<polygon fill="white" stroke="cadetblue" stroke-width="5" points="1247.5,-199.5 1053,-199.5 1053,-157 1247.5,-157 1247.5,-199.5"/>
<text text-anchor="middle" x="1150.25" y="-182.2" font-family="Times,serif" font-size="14.00">MATH0056</text>
<text text-anchor="middle" x="1150.25" y="-164.95" font-family="Times,serif" font-size="14.00">Mathematical Methods 4</text>
</a>
</g>
</g>
<!-- MATH0013&#45;&gt;MATH0056 -->
<g id="edge8" class="edge">
<title>MATH0013&#45;&gt;MATH0056</title>
<path fill="none" stroke="black" d="M1064.52,-233C1077.18,-225.07 1091.56,-216.05 1104.86,-207.71"/>
<polygon fill="black" stroke="black" points="1106.43,-210.86 1113.04,-202.58 1102.71,-204.93 1106.43,-210.86"/>
</g>
<!-- MATH0013&#45;&gt;MATH0065 -->
<g id="edge36" class="edge">
<title>MATH0013&#45;&gt;MATH0065</title>
<path fill="none" stroke="black" d="M911.69,-234.92C883.05,-226.65 853.41,-215.22 828.25,-199.5 800.94,-182.43 777.14,-154.43 761.2,-132.59"/>
<polygon fill="black" stroke="black" points="764.17,-130.73 755.53,-124.59 758.46,-134.78 764.17,-130.73"/>
</g>
<!-- MATH0028 -->
<g id="node18" class="node">
<title>MATH0028</title>
<g id="a_node18"><a xlink:href="https://www.ucl.ac.uk/maths/sites/maths/files/math0028.pdf" xlink:title="MATH0028&#10;Combinatorial Optimisation">
<polygon fill="white" stroke="#ff4040" stroke-width="5" points="2407.25,-121 2193.25,-121 2193.25,-78.5 2407.25,-78.5 2407.25,-121"/>
<text text-anchor="middle" x="2300.25" y="-103.7" font-family="Times,serif" font-size="14.00">MATH0028</text>
<text text-anchor="middle" x="2300.25" y="-86.45" font-family="Times,serif" font-size="14.00">Combinatorial Optimisation</text>
</a>
</g>
</g>
<!-- MATH0014&#45;&gt;MATH0028 -->
<g id="edge18" class="edge">
<title>MATH0014&#45;&gt;MATH0028</title>
<path fill="none" stroke="black" d="M2153.26,-233.21C2183.2,-206.24 2233.44,-160.95 2266.72,-130.97"/>
<polygon fill="black" stroke="black" points="2269,-133.62 2274.09,-124.33 2264.31,-128.42 2269,-133.62"/>
</g>
<!-- MATH0014&#45;&gt;MATH0114 -->
<g id="edge24" class="edge">
<title>MATH0014&#45;&gt;MATH0114</title>
<path fill="none" stroke="black" d="M2102.22,-233.21C2070.94,-206.12 2018.33,-160.57 1983.7,-130.58"/>
<polygon fill="black" stroke="black" points="1986.3,-128.21 1976.45,-124.31 1981.72,-133.5 1986.3,-128.21"/>
</g>
<!-- MATH0016&#45;&gt;MATH0056 -->
<g id="edge9" class="edge">
<title>MATH0016&#45;&gt;MATH0056</title>
<path fill="none" stroke="black" d="M1225.44,-233C1214.66,-225.3 1202.46,-216.58 1191.08,-208.44"/>
<polygon fill="black" stroke="black" points="1193.16,-205.62 1182.99,-202.66 1189.09,-211.32 1193.16,-205.62"/>
</g>
<!-- MATH0031 -->
<g id="node20" class="node">
<title>MATH0031</title>
<g id="a_node20"><a xlink:href="https://www.ucl.ac.uk/maths/sites/maths/files/math0031.pdf" xlink:title="MATH0031&#10;Financial Mathematics">
<polygon fill="white" stroke="#ff4040" stroke-width="5" points="1173.62,-121 994.88,-121 994.88,-78.5 1173.62,-78.5 1173.62,-121"/>
<text text-anchor="middle" x="1084.25" y="-103.7" font-family="Times,serif" font-size="14.00">MATH0031</text>
<text text-anchor="middle" x="1084.25" y="-86.45" font-family="Times,serif" font-size="14.00">Financial Mathematics</text>
</a>
</g>
</g>
<!-- MATH0016&#45;&gt;MATH0031 -->
<g id="edge26" class="edge">
<title>MATH0016&#45;&gt;MATH0031</title>
<path fill="none" stroke="black" d="M1263.96,-233.02C1268.89,-211.34 1272.26,-178.85 1256.25,-157 1246.86,-144.19 1218.08,-132.73 1186.67,-123.55"/>
<polygon fill="black" stroke="black" points="1187.98,-120.28 1177.4,-120.93 1186.08,-127.02 1187.98,-120.28"/>
</g>
<!-- MATH0088 -->
<g id="node24" class="node">
<title>MATH0088</title>
<g id="a_node24"><a xlink:href="https://www.ucl.ac.uk/maths/sites/maths/files/math0088.pdf" xlink:title="MATH0088&#10;Quantitative and Computational Finance">
<polygon fill="white" stroke="midnightblue" stroke-width="5" points="1346.38,-42.5 1040.12,-42.5 1040.12,0 1346.38,0 1346.38,-42.5"/>
<text text-anchor="middle" x="1193.25" y="-25.2" font-family="Times,serif" font-size="14.00">MATH0088</text>
<text text-anchor="middle" x="1193.25" y="-7.95" font-family="Times,serif" font-size="14.00">Quantitative and Computational Finance</text>
</a>
</g>
</g>
<!-- MATH0016&#45;&gt;MATH0088 -->
<g id="edge39" class="edge">
<title>MATH0016&#45;&gt;MATH0088</title>
<path fill="none" stroke="black" d="M1269.66,-233.26C1279.39,-212.35 1289.3,-180.9 1276.25,-157 1262.07,-131.03 1237.76,-144.85 1220.25,-121 1206.36,-102.08 1199.62,-76.39 1196.34,-55.96"/>
<polygon fill="black" stroke="black" points="1199.82,-55.56 1194.99,-46.13 1192.88,-56.51 1199.82,-55.56"/>
</g>
<!-- MATH0056&#45;&gt;MATH0102 -->
<g id="edge30" class="edge">
<title>MATH0056&#45;&gt;MATH0102</title>
<path fill="none" stroke="black" stroke-dasharray="5,2" d="M1056.95,-154.53C1032.74,-146.2 1007.52,-135.22 986.25,-121 959.78,-103.3 936.34,-75.6 920.49,-54.04"/>
<polygon fill="black" stroke="black" points="923.51,-52.24 914.84,-46.15 917.81,-56.32 923.51,-52.24"/>
</g>
<!-- MATH0086 -->
<g id="node23" class="node">
<title>MATH0086</title>
<g id="a_node23"><a xlink:href="https://www.ucl.ac.uk/maths/sites/maths/files/math0086.pdf" xlink:title="MATH0086&#10;Computational and Simulation Methods">
<polygon fill="white" stroke="midnightblue" stroke-width="5" points="1529.38,-121 1229.12,-121 1229.12,-78.5 1529.38,-78.5 1529.38,-121"/>
<text text-anchor="middle" x="1379.25" y="-103.7" font-family="Times,serif" font-size="14.00">MATH0086</text>
<text text-anchor="middle" x="1379.25" y="-86.45" font-family="Times,serif" font-size="14.00">Computational and Simulation Methods</text>
</a>
</g>
</g>
<!-- MATH0056&#45;&gt;MATH0086 -->
<g id="edge37" class="edge">
<title>MATH0056&#45;&gt;MATH0086</title>
<path fill="none" stroke="black" d="M1218.34,-154.5C1244.18,-145.87 1273.81,-135.97 1300.55,-127.04"/>
<polygon fill="black" stroke="black" points="1301.61,-130.38 1309.99,-123.89 1299.4,-123.74 1301.61,-130.38"/>
</g>
<!-- MATH0058&#45;&gt;MATH0033 -->
<g id="edge15" class="edge">
<title>MATH0058&#45;&gt;MATH0033</title>
<path fill="none" stroke="black" d="M1540.52,-154.5C1553.18,-146.57 1567.56,-137.55 1580.86,-129.21"/>
<polygon fill="black" stroke="black" points="1582.43,-132.36 1589.04,-124.08 1578.71,-126.43 1582.43,-132.36"/>
</g>
<!-- MATH0058&#45;&gt;MATH0086 -->
<g id="edge38" class="edge">
<title>MATH0058&#45;&gt;MATH0086</title>
<path fill="none" stroke="black" stroke-dasharray="5,2" d="M1467.08,-154.5C1454.11,-146.57 1439.39,-137.55 1425.75,-129.21"/>
<polygon fill="black" stroke="black" points="1427.7,-126.3 1417.35,-124.07 1424.05,-132.27 1427.7,-126.3"/>
</g>
<!-- MATH0057&#45;&gt;MATH0114 -->
<g id="edge25" class="edge">
<title>MATH0057&#45;&gt;MATH0114</title>
<path fill="none" stroke="black" stroke-dasharray="5,2" d="M1037.37,-157.87C1039.68,-157.56 1041.98,-157.27 1044.25,-157 1336.57,-121.9 1414.79,-141.3 1709.25,-121.33"/>
<polygon fill="black" stroke="black" points="1709.47,-124.83 1719.21,-120.65 1708.99,-117.84 1709.47,-124.83"/>
</g>
<!-- MATH0057&#45;&gt;MATH0031 -->
<g id="edge27" class="edge">
<title>MATH0057&#45;&gt;MATH0031</title>
<path fill="none" stroke="black" d="M980.25,-154.5C995.99,-146.37 1013.9,-137.11 1030.38,-128.6"/>
<polygon fill="black" stroke="black" points="1031.79,-131.8 1039.07,-124.1 1028.58,-125.59 1031.79,-131.8"/>
</g>
<!-- MATH0057&#45;&gt;MATH0102 -->
<g id="edge33" class="edge">
<title>MATH0057&#45;&gt;MATH0102</title>
<path fill="none" stroke="black" stroke-dasharray="5,2" d="M930.87,-154.71C924.68,-128.77 914.44,-85.9 907.3,-55.98"/>
<polygon fill="black" stroke="black" points="910.71,-55.2 904.99,-46.29 903.91,-56.83 910.71,-55.2"/>
</g>
<!-- MATH0032 -->
<g id="node17" class="node">
<title>MATH0032</title>
<g id="a_node17"><a xlink:href="https://www.ucl.ac.uk/maths/sites/maths/files/math0032.pdf" xlink:title="MATH0032&#10;Introduction to Mathematica">
<polygon fill="white" stroke="#ff4040" stroke-width="5" points="2647,-121 2425.5,-121 2425.5,-78.5 2647,-78.5 2647,-121"/>
<text text-anchor="middle" x="2536.25" y="-103.7" font-family="Times,serif" font-size="14.00">MATH0032</text>
<text text-anchor="middle" x="2536.25" y="-86.45" font-family="Times,serif" font-size="14.00">Introduction to Mathematica</text>
</a>
</g>
</g>
<!-- MATH0031&#45;&gt;MATH0102 -->
<g id="edge31" class="edge">
<title>MATH0031&#45;&gt;MATH0102</title>
<path fill="none" stroke="black" stroke-dasharray="5,2" d="M1029.24,-76C1008.93,-67.6 985.7,-58 964.56,-49.26"/>
<polygon fill="black" stroke="black" points="966.02,-46.07 955.44,-45.49 963.35,-52.54 966.02,-46.07"/>
</g>
<!-- MATH0031&#45;&gt;MATH0088 -->
<g id="edge40" class="edge">
<title>MATH0031&#45;&gt;MATH0088</title>
<path fill="none" stroke="black" stroke-dasharray="5,2" d="M1116.66,-76C1127.75,-68.22 1140.31,-59.4 1152.01,-51.2"/>
<polygon fill="black" stroke="black" points="1153.74,-54.25 1159.92,-45.65 1149.72,-48.53 1153.74,-54.25"/>
</g>
<!-- MATH0065&#45;&gt;MATH0102 -->
<g id="edge32" class="edge">
<title>MATH0065&#45;&gt;MATH0102</title>
<path fill="none" stroke="black" stroke-dasharray="5,2" d="M787.52,-76C804.59,-67.79 824.04,-58.44 841.87,-49.86"/>
<polygon fill="black" stroke="black" points="843.3,-53.05 850.79,-45.56 840.26,-46.75 843.3,-53.05"/>
</g>
</g>
</svg>
