<?xml version="1.0" encoding="UTF-8" standalone="no"?>
<!DOCTYPE svg PUBLIC "-//W3C//DTD SVG 1.1//EN"
 "http://www.w3.org/Graphics/SVG/1.1/DTD/svg11.dtd">
<!-- Generated by graphviz version 2.43.0 (0)
 -->
<!-- Title: %3 Pages: 1 -->
<svg width="2613pt" height="416pt"
 viewBox="0.00 0.00 2613.00 416.00" xmlns="http://www.w3.org/2000/svg" xmlns:xlink="http://www.w3.org/1999/xlink">
<g id="graph0" class="graph" transform="scale(1 1) rotate(0) translate(4 412)">
<title>%3</title>
<polygon fill="white" stroke="transparent" points="-4,4 -4,-412 2609,-412 2609,4 -4,4"/>
<!-- MATH0008 -->
<g id="node1" class="node">
<title>MATH0008</title>
<g id="a_node1"><a xlink:href="https://www.ucl.ac.uk/maths/sites/maths/files/math0008.pdf" xlink:title="Year 1, term 1">
<polygon fill="white" stroke="#ffb90f" stroke-width="5" points="168,-408 0,-408 0,-370 168,-370 168,-408"/>
<text text-anchor="middle" x="84" y="-392.8" font-family="Times,serif" font-size="14.00">MATH0008</text>
<text text-anchor="middle" x="84" y="-377.8" font-family="Times,serif" font-size="14.00">Applied Mathematics</text>
</a>
</g>
</g>
<!-- MATH0082 -->
<g id="node25" class="node">
<title>MATH0082</title>
<g id="a_node25"><a xlink:href="https://www.ucl.ac.uk/maths/sites/maths/files/math0082.pdf" xlink:title="Year 4, term 2">
<polygon fill="white" stroke="#104e8b" stroke-width="5" points="485.5,-38 146.5,-38 146.5,0 485.5,0 485.5,-38"/>
<text text-anchor="middle" x="316" y="-22.8" font-family="Times,serif" font-size="14.00">MATH0082</text>
<text text-anchor="middle" x="316" y="-7.8" font-family="Times,serif" font-size="14.00">Evolutionary Games and Population Genetics</text>
</a>
</g>
</g>
<!-- MATH0008&#45;&gt;MATH0082 -->
<g id="edge41" class="edge">
<title>MATH0008&#45;&gt;MATH0082</title>
<path fill="none" stroke="black" d="M84,-369.56C84,-341.87 84,-287.88 84,-242 84,-242 84,-242 84,-166 84,-124.25 74.14,-104.17 103,-74 116.28,-60.12 152.08,-48.8 190.62,-40.18"/>
<polygon fill="black" stroke="black" points="191.43,-43.58 200.47,-38.04 189.95,-36.74 191.43,-43.58"/>
</g>
<!-- MATH0010 -->
<g id="node2" class="node">
<title>MATH0010</title>
<g id="a_node2"><a xlink:href="https://www.ucl.ac.uk/maths/sites/maths/files/math0010.pdf" xlink:title="Year 1, term 1">
<polygon fill="white" stroke="#ffb90f" stroke-width="5" points="508.5,-408 313.5,-408 313.5,-370 508.5,-370 508.5,-408"/>
<text text-anchor="middle" x="411" y="-392.8" font-family="Times,serif" font-size="14.00">MATH0010</text>
<text text-anchor="middle" x="411" y="-377.8" font-family="Times,serif" font-size="14.00">Mathematical Methods 1</text>
</a>
</g>
</g>
<!-- MATH0011 -->
<g id="node7" class="node">
<title>MATH0011</title>
<g id="a_node7"><a xlink:href="https://www.ucl.ac.uk/maths/sites/maths/files/math0011_syllabus.pdf" xlink:title="Year 1, term 2">
<polygon fill="white" stroke="#cd950c" stroke-width="5" points="967.5,-334 772.5,-334 772.5,-296 967.5,-296 967.5,-334"/>
<text text-anchor="middle" x="870" y="-318.8" font-family="Times,serif" font-size="14.00">MATH0011</text>
<text text-anchor="middle" x="870" y="-303.8" font-family="Times,serif" font-size="14.00">Mathematical Methods 2</text>
</a>
</g>
</g>
<!-- MATH0010&#45;&gt;MATH0011 -->
<g id="edge3" class="edge">
<title>MATH0010&#45;&gt;MATH0011</title>
<path fill="none" stroke="black" d="M508.62,-372.69C582.94,-361.03 685.17,-344.99 761.95,-332.95"/>
<polygon fill="black" stroke="black" points="762.79,-336.36 772.13,-331.35 761.71,-329.44 762.79,-336.36"/>
</g>
<!-- MATH0058 -->
<g id="node11" class="node">
<title>MATH0058</title>
<g id="a_node11"><a xlink:href="https://www.ucl.ac.uk/maths/sites/maths/files/math0058.pdf" xlink:title="Year 2 or 3, term 2">
<polygon fill="white" stroke="cadetblue" stroke-width="5" points="1692,-186 1504,-186 1504,-148 1692,-148 1692,-186"/>
<text text-anchor="middle" x="1598" y="-170.8" font-family="Times,serif" font-size="14.00">MATH0058</text>
<text text-anchor="middle" x="1598" y="-155.8" font-family="Times,serif" font-size="14.00">Computational Methods</text>
</a>
</g>
</g>
<!-- MATH0010&#45;&gt;MATH0058 -->
<g id="edge8" class="edge">
<title>MATH0010&#45;&gt;MATH0058</title>
<path fill="none" stroke="black" d="M508.82,-382.7C736.49,-369.31 1295.66,-330.12 1469,-260 1507.95,-244.24 1546.34,-214.54 1570.98,-193.14"/>
<polygon fill="black" stroke="black" points="1573.61,-195.48 1578.78,-186.23 1568.97,-190.24 1573.61,-195.48"/>
</g>
<!-- MATH0030 -->
<g id="node14" class="node">
<title>MATH0030</title>
<g id="a_node14"><a xlink:href="https://www.ucl.ac.uk/maths/sites/maths/files/math0030.pdf" xlink:title="Year 3, term 1">
<polygon fill="white" stroke="#ff4040" stroke-width="5" points="288,-112 112,-112 112,-74 288,-74 288,-112"/>
<text text-anchor="middle" x="200" y="-96.8" font-family="Times,serif" font-size="14.00">MATH0030</text>
<text text-anchor="middle" x="200" y="-81.8" font-family="Times,serif" font-size="14.00">Mathematical Ecology</text>
</a>
</g>
</g>
<!-- MATH0010&#45;&gt;MATH0030 -->
<g id="edge13" class="edge">
<title>MATH0010&#45;&gt;MATH0030</title>
<path fill="none" stroke="black" d="M356.17,-369.9C337.09,-361.42 316.78,-349.67 302,-334 243.24,-271.72 215.63,-170.48 205.22,-121.83"/>
<polygon fill="black" stroke="black" points="208.64,-121.1 203.2,-112.01 201.78,-122.51 208.64,-121.1"/>
</g>
<!-- MATH0102 -->
<g id="node21" class="node">
<title>MATH0102</title>
<g id="a_node21"><a xlink:href="https://www.ucl.ac.uk/maths/sites/maths/files/math0102.pdf" xlink:title="Year 3 or 4, term 2">
<polygon fill="white" stroke="#cd1076" stroke-width="5" points="971,-38 755,-38 755,0 971,0 971,-38"/>
<text text-anchor="middle" x="863" y="-22.8" font-family="Times,serif" font-size="14.00">MATH0102</text>
<text text-anchor="middle" x="863" y="-7.8" font-family="Times,serif" font-size="14.00">Applied Stochastic Methods</text>
</a>
</g>
</g>
<!-- MATH0010&#45;&gt;MATH0102 -->
<g id="edge28" class="edge">
<title>MATH0010&#45;&gt;MATH0102</title>
<path fill="none" stroke="black" d="M407.06,-369.66C401.5,-342.09 392,-288.27 392,-242 392,-242 392,-242 392,-166 392,-124.25 380.25,-102.25 411,-74 435.22,-51.75 619.12,-35.6 744.75,-27.03"/>
<polygon fill="black" stroke="black" points="745.09,-30.51 754.83,-26.35 744.61,-23.53 745.09,-30.51"/>
</g>
<!-- MATH0065 -->
<g id="node22" class="node">
<title>MATH0065</title>
<g id="a_node22"><a xlink:href="https://www.ucl.ac.uk/maths/sites/maths/files/math0065.pdf" xlink:title="Year 4, term 1">
<polygon fill="white" stroke="#1c86ee" stroke-width="5" points="816,-112 570,-112 570,-74 816,-74 816,-112"/>
<text text-anchor="middle" x="693" y="-96.8" font-family="Times,serif" font-size="14.00">MATH0065</text>
<text text-anchor="middle" x="693" y="-81.8" font-family="Times,serif" font-size="14.00">Advanced Modelling Techniques</text>
</a>
</g>
</g>
<!-- MATH0010&#45;&gt;MATH0065 -->
<g id="edge34" class="edge">
<title>MATH0010&#45;&gt;MATH0065</title>
<path fill="none" stroke="black" d="M428.64,-369.61C477.22,-318.96 613.05,-177.35 668.73,-119.31"/>
<polygon fill="black" stroke="black" points="671.33,-121.65 675.73,-112.01 666.28,-116.8 671.33,-121.65"/>
</g>
<!-- MATH0010&#45;&gt;MATH0082 -->
<g id="edge42" class="edge">
<title>MATH0010&#45;&gt;MATH0082</title>
<path fill="none" stroke="black" d="M388.97,-369.73C360.9,-344.27 316,-295.22 316,-242 316,-242 316,-242 316,-166 316,-125.32 316,-78.26 316,-48.81"/>
<polygon fill="black" stroke="black" points="319.5,-48.44 316,-38.44 312.5,-48.44 319.5,-48.44"/>
</g>
<!-- MATH0003 -->
<g id="node3" class="node">
<title>MATH0003</title>
<g id="a_node3"><a xlink:href="https://www.ucl.ac.uk/maths/sites/maths/files/math0003.pdf" xlink:title="Year 1, term 1">
<polygon fill="white" stroke="#ffb90f" stroke-width="5" points="1639,-408 1541,-408 1541,-370 1639,-370 1639,-408"/>
<text text-anchor="middle" x="1590" y="-392.8" font-family="Times,serif" font-size="14.00">MATH0003</text>
<text text-anchor="middle" x="1590" y="-377.8" font-family="Times,serif" font-size="14.00">Analysis 1</text>
</a>
</g>
</g>
<!-- MATH0004 -->
<g id="node5" class="node">
<title>MATH0004</title>
<g id="a_node5"><a xlink:href="https://www.ucl.ac.uk/maths/sites/maths/files/math0004.pdf" xlink:title="Year 1, term 2">
<polygon fill="white" stroke="#cd950c" stroke-width="5" points="1678,-334 1580,-334 1580,-296 1678,-296 1678,-334"/>
<text text-anchor="middle" x="1629" y="-318.8" font-family="Times,serif" font-size="14.00">MATH0004</text>
<text text-anchor="middle" x="1629" y="-303.8" font-family="Times,serif" font-size="14.00">Analysis 2</text>
</a>
</g>
</g>
<!-- MATH0003&#45;&gt;MATH0004 -->
<g id="edge1" class="edge">
<title>MATH0003&#45;&gt;MATH0004</title>
<path fill="none" stroke="black" d="M1599.84,-369.83C1604.2,-361.79 1609.41,-352.17 1614.22,-343.29"/>
<polygon fill="black" stroke="black" points="1617.34,-344.87 1619.03,-334.41 1611.19,-341.54 1617.34,-344.87"/>
</g>
<!-- MATH0013 -->
<g id="node10" class="node">
<title>MATH0013</title>
<g id="a_node10"><a xlink:href="https://www.ucl.ac.uk/maths/sites/maths/files/math0013.pdf" xlink:title="Year 2, term 1">
<polygon fill="white" stroke="#00ff00" stroke-width="5" points="1197.5,-260 968.5,-260 968.5,-222 1197.5,-222 1197.5,-260"/>
<text text-anchor="middle" x="1083" y="-244.8" font-family="Times,serif" font-size="14.00">MATH0013</text>
<text text-anchor="middle" x="1083" y="-229.8" font-family="Times,serif" font-size="14.00">Analysis 3 &#45; Complex Analysis</text>
</a>
</g>
</g>
<!-- MATH0003&#45;&gt;MATH0013 -->
<g id="edge6" class="edge">
<title>MATH0003&#45;&gt;MATH0013</title>
<path fill="none" stroke="black" d="M1540.93,-373.87C1451.25,-348.04 1260.51,-293.12 1155.71,-262.94"/>
<polygon fill="black" stroke="black" points="1156.42,-259.5 1145.84,-260.1 1154.48,-266.23 1156.42,-259.5"/>
</g>
<!-- MATH0114 -->
<g id="node20" class="node">
<title>MATH0114</title>
<g id="a_node20"><a xlink:href="https://www.ucl.ac.uk/maths/sites/maths/files/math0114_0.pdf" xlink:title="Year 3, term 2">
<polygon fill="white" stroke="#cd3333" stroke-width="5" points="2131.5,-112 1678.5,-112 1678.5,-74 2131.5,-74 2131.5,-112"/>
<text text-anchor="middle" x="1905" y="-96.8" font-family="Times,serif" font-size="14.00">MATH0114</text>
<text text-anchor="middle" x="1905" y="-81.8" font-family="Times,serif" font-size="14.00">Mathematics for Machine Learning and Artificial Intelligence</text>
</a>
</g>
</g>
<!-- MATH0003&#45;&gt;MATH0114 -->
<g id="edge21" class="edge">
<title>MATH0003&#45;&gt;MATH0114</title>
<path fill="none" stroke="black" d="M1629.11,-369.92C1647.55,-360.5 1669.33,-348.02 1687,-334 1770.86,-267.47 1850.42,-167.35 1885.8,-120.25"/>
<polygon fill="black" stroke="black" points="1888.71,-122.21 1891.88,-112.1 1883.1,-118.02 1888.71,-122.21"/>
</g>
<!-- MATH0003&#45;&gt;MATH0082 -->
<g id="edge43" class="edge">
<title>MATH0003&#45;&gt;MATH0082</title>
<path fill="none" stroke="black" d="M1540.79,-387.94C1385.85,-387.25 909.77,-381.23 764,-334 579.06,-274.08 403.47,-109.25 340.5,-45.57"/>
<polygon fill="black" stroke="black" points="342.89,-43.01 333.38,-38.32 337.89,-47.91 342.89,-43.01"/>
</g>
<!-- MATH0005 -->
<g id="node4" class="node">
<title>MATH0005</title>
<g id="a_node4"><a xlink:href="https://www.ucl.ac.uk/maths/sites/maths/files/math0005.pdf" xlink:title="Year 1, term 1">
<polygon fill="white" stroke="#ffb90f" stroke-width="5" points="1960,-408 1862,-408 1862,-370 1960,-370 1960,-408"/>
<text text-anchor="middle" x="1911" y="-392.8" font-family="Times,serif" font-size="14.00">MATH0005</text>
<text text-anchor="middle" x="1911" y="-377.8" font-family="Times,serif" font-size="14.00">Algebra 1</text>
</a>
</g>
</g>
<!-- MATH0006 -->
<g id="node6" class="node">
<title>MATH0006</title>
<g id="a_node6"><a xlink:href="https://www.ucl.ac.uk/maths/sites/maths/files/math0006.pdf" xlink:title="Year 1, term 2">
<polygon fill="white" stroke="#cd950c" stroke-width="5" points="1922,-334 1824,-334 1824,-296 1922,-296 1922,-334"/>
<text text-anchor="middle" x="1873" y="-318.8" font-family="Times,serif" font-size="14.00">MATH0006</text>
<text text-anchor="middle" x="1873" y="-303.8" font-family="Times,serif" font-size="14.00">Algebra 2</text>
</a>
</g>
</g>
<!-- MATH0005&#45;&gt;MATH0006 -->
<g id="edge2" class="edge">
<title>MATH0005&#45;&gt;MATH0006</title>
<path fill="none" stroke="black" d="M1901.41,-369.83C1897.17,-361.79 1892.09,-352.17 1887.4,-343.29"/>
<polygon fill="black" stroke="black" points="1890.48,-341.62 1882.72,-334.41 1884.29,-344.89 1890.48,-341.62"/>
</g>
<!-- MATH0005&#45;&gt;MATH0114 -->
<g id="edge23" class="edge">
<title>MATH0005&#45;&gt;MATH0114</title>
<path fill="none" stroke="black" d="M1919.52,-369.96C1923.9,-359.67 1928.78,-346.4 1931,-334 1944.62,-258 1925.17,-167.09 1913.2,-122.09"/>
<polygon fill="black" stroke="black" points="1916.5,-120.91 1910.48,-112.19 1909.75,-122.76 1916.5,-120.91"/>
</g>
<!-- MATH0004&#45;&gt;MATH0013 -->
<g id="edge7" class="edge">
<title>MATH0004&#45;&gt;MATH0013</title>
<path fill="none" stroke="black" stroke-dasharray="5,2" d="M1579.68,-299.01C1575.08,-297.88 1570.47,-296.86 1566,-296 1411.73,-266.47 1367.95,-278.98 1208.02,-260.08"/>
<polygon fill="black" stroke="black" points="1208.17,-256.57 1197.82,-258.85 1207.33,-263.52 1208.17,-256.57"/>
</g>
<!-- MATH0004&#45;&gt;MATH0114 -->
<g id="edge22" class="edge">
<title>MATH0004&#45;&gt;MATH0114</title>
<path fill="none" stroke="black" d="M1641.8,-295.74C1665.89,-262.49 1721.07,-191.49 1782,-148 1800.03,-135.13 1821.6,-124.38 1841.62,-115.95"/>
<polygon fill="black" stroke="black" points="1843.06,-119.14 1850.99,-112.12 1840.41,-112.66 1843.06,-119.14"/>
</g>
<!-- MATH0014 -->
<g id="node9" class="node">
<title>MATH0014</title>
<g id="a_node9"><a xlink:href="https://www.ucl.ac.uk/maths/sites/maths/files/math0014.pdf" xlink:title="Year 2, term 1">
<polygon fill="white" stroke="#00ff00" stroke-width="5" points="2238,-260 1978,-260 1978,-222 2238,-222 2238,-260"/>
<text text-anchor="middle" x="2108" y="-244.8" font-family="Times,serif" font-size="14.00">MATH0014</text>
<text text-anchor="middle" x="2108" y="-229.8" font-family="Times,serif" font-size="14.00">Algebra 3: Further Linear Algebra</text>
</a>
</g>
</g>
<!-- MATH0006&#45;&gt;MATH0014 -->
<g id="edge5" class="edge">
<title>MATH0006&#45;&gt;MATH0014</title>
<path fill="none" stroke="black" d="M1922.26,-298.91C1956.24,-288.5 2001.86,-274.52 2039.39,-263.02"/>
<polygon fill="black" stroke="black" points="2040.71,-266.28 2049.24,-260 2038.66,-259.59 2040.71,-266.28"/>
</g>
<!-- MATH0006&#45;&gt;MATH0058 -->
<g id="edge9" class="edge">
<title>MATH0006&#45;&gt;MATH0058</title>
<path fill="none" stroke="black" d="M1823.89,-299.87C1794.36,-290.45 1756.52,-276.75 1725,-260 1689.14,-240.95 1651.96,-212.87 1627.17,-192.75"/>
<polygon fill="black" stroke="black" points="1629.21,-189.89 1619.25,-186.25 1624.76,-195.3 1629.21,-189.89"/>
</g>
<!-- MATH0033 -->
<g id="node15" class="node">
<title>MATH0033</title>
<g id="a_node15"><a xlink:href="https://www.ucl.ac.uk/maths/sites/maths/files/math0033.pdf" xlink:title="Year 3, term 1">
<polygon fill="white" stroke="#ff4040" stroke-width="5" points="1661,-112 1503,-112 1503,-74 1661,-74 1661,-112"/>
<text text-anchor="middle" x="1582" y="-96.8" font-family="Times,serif" font-size="14.00">MATH0033</text>
<text text-anchor="middle" x="1582" y="-81.8" font-family="Times,serif" font-size="14.00">Numerical Methods</text>
</a>
</g>
</g>
<!-- MATH0006&#45;&gt;MATH0033 -->
<g id="edge14" class="edge">
<title>MATH0006&#45;&gt;MATH0033</title>
<path fill="none" stroke="black" d="M1858.05,-295.95C1830.04,-263.03 1766.56,-192.55 1701,-148 1682.61,-135.51 1660.87,-124.67 1641.03,-116.04"/>
<polygon fill="black" stroke="black" points="1642.34,-112.8 1631.77,-112.12 1639.61,-119.24 1642.34,-112.8"/>
</g>
<!-- MATH0006&#45;&gt;MATH0114 -->
<g id="edge24" class="edge">
<title>MATH0006&#45;&gt;MATH0114</title>
<path fill="none" stroke="black" d="M1875.62,-296C1881.17,-257.8 1894.18,-168.41 1900.87,-122.43"/>
<polygon fill="black" stroke="black" points="1904.37,-122.65 1902.35,-112.25 1897.44,-121.64 1904.37,-122.65"/>
</g>
<!-- MATH0016 -->
<g id="node8" class="node">
<title>MATH0016</title>
<g id="a_node8"><a xlink:href="https://www.ucl.ac.uk/maths/sites/maths/files/math0016.pdf" xlink:title="Year 2, term 1">
<polygon fill="white" stroke="#00ff00" stroke-width="5" points="1410.5,-260 1215.5,-260 1215.5,-222 1410.5,-222 1410.5,-260"/>
<text text-anchor="middle" x="1313" y="-244.8" font-family="Times,serif" font-size="14.00">MATH0016</text>
<text text-anchor="middle" x="1313" y="-229.8" font-family="Times,serif" font-size="14.00">Mathematical Methods 3</text>
</a>
</g>
</g>
<!-- MATH0011&#45;&gt;MATH0016 -->
<g id="edge4" class="edge">
<title>MATH0011&#45;&gt;MATH0016</title>
<path fill="none" stroke="black" d="M967.74,-298.59C1032.53,-288.31 1119.71,-274.37 1205.49,-260.24"/>
<polygon fill="black" stroke="black" points="1206.1,-263.69 1215.39,-258.61 1204.96,-256.78 1206.1,-263.69"/>
</g>
<!-- MATH0057 -->
<g id="node12" class="node">
<title>MATH0057</title>
<g id="a_node12"><a xlink:href="https://www.ucl.ac.uk/maths/sites/maths/files/math0057.pdf" xlink:title="Year 2 or 3, term 2">
<polygon fill="white" stroke="cadetblue" stroke-width="5" points="1108,-186 910,-186 910,-148 1108,-148 1108,-186"/>
<text text-anchor="middle" x="1009" y="-170.8" font-family="Times,serif" font-size="14.00">MATH0057</text>
<text text-anchor="middle" x="1009" y="-155.8" font-family="Times,serif" font-size="14.00">Probability and Statistics</text>
</a>
</g>
</g>
<!-- MATH0011&#45;&gt;MATH0057 -->
<g id="edge10" class="edge">
<title>MATH0011&#45;&gt;MATH0057</title>
<path fill="none" stroke="black" d="M887.32,-295.8C911.77,-270.12 956.53,-223.11 984.41,-193.82"/>
<polygon fill="black" stroke="black" points="987.1,-196.08 991.46,-186.43 982.03,-191.25 987.1,-196.08"/>
</g>
<!-- MATH0011&#45;&gt;MATH0033 -->
<g id="edge15" class="edge">
<title>MATH0011&#45;&gt;MATH0033</title>
<path fill="none" stroke="black" d="M967.74,-309.97C1116.18,-303.02 1385,-286.88 1420,-260 1462.16,-227.62 1425.63,-186.78 1462,-148 1474.72,-134.43 1491.49,-124.03 1508.45,-116.16"/>
<polygon fill="black" stroke="black" points="1510.1,-119.25 1517.86,-112.04 1507.3,-112.84 1510.1,-119.25"/>
</g>
<!-- MATH0026 -->
<g id="node16" class="node">
<title>MATH0026</title>
<g id="a_node16"><a xlink:href="https://www.ucl.ac.uk/maths/sites/maths/files/math0026.pdf" xlink:title="Year 3, term 1">
<polygon fill="white" stroke="#ff4040" stroke-width="5" points="552,-112 420,-112 420,-74 552,-74 552,-112"/>
<text text-anchor="middle" x="486" y="-96.8" font-family="Times,serif" font-size="14.00">MATH0026</text>
<text text-anchor="middle" x="486" y="-81.8" font-family="Times,serif" font-size="14.00">Biomathematics</text>
</a>
</g>
</g>
<!-- MATH0011&#45;&gt;MATH0026 -->
<g id="edge17" class="edge">
<title>MATH0011&#45;&gt;MATH0026</title>
<path fill="none" stroke="black" d="M838.58,-296C769.3,-256.3 603.48,-161.31 526.52,-117.22"/>
<polygon fill="black" stroke="black" points="528.01,-114.03 517.59,-112.1 524.53,-120.11 528.01,-114.03"/>
</g>
<!-- MATH0011&#45;&gt;MATH0114 -->
<g id="edge25" class="edge">
<title>MATH0011&#45;&gt;MATH0114</title>
<path fill="none" stroke="black" d="M967.71,-310.11C1121.41,-303.2 1406.16,-286.94 1444,-260 1488.56,-228.28 1451.04,-180.54 1495,-148 1512.07,-135.37 1600.94,-122.87 1691.59,-113.09"/>
<polygon fill="black" stroke="black" points="1692.22,-116.55 1701.79,-112.01 1691.47,-109.59 1692.22,-116.55"/>
</g>
<!-- MATH0011&#45;&gt;MATH0102 -->
<g id="edge29" class="edge">
<title>MATH0011&#45;&gt;MATH0102</title>
<path fill="none" stroke="black" d="M869.56,-295.61C868.38,-245.79 865.09,-107.95 863.67,-48.21"/>
<polygon fill="black" stroke="black" points="867.17,-47.92 863.43,-38.01 860.17,-48.09 867.17,-47.92"/>
</g>
<!-- MATH0011&#45;&gt;MATH0065 -->
<g id="edge35" class="edge">
<title>MATH0011&#45;&gt;MATH0065</title>
<path fill="none" stroke="black" d="M855.52,-296C824.27,-257.16 750.43,-165.38 714.03,-120.13"/>
<polygon fill="black" stroke="black" points="716.68,-117.85 707.68,-112.25 711.23,-122.24 716.68,-117.85"/>
</g>
<!-- MATH0056 -->
<g id="node13" class="node">
<title>MATH0056</title>
<g id="a_node13"><a xlink:href="https://www.ucl.ac.uk/maths/sites/maths/files/math0056.pdf" xlink:title="Year 2 or 3, term 2">
<polygon fill="white" stroke="cadetblue" stroke-width="5" points="1321.5,-186 1126.5,-186 1126.5,-148 1321.5,-148 1321.5,-186"/>
<text text-anchor="middle" x="1224" y="-170.8" font-family="Times,serif" font-size="14.00">MATH0056</text>
<text text-anchor="middle" x="1224" y="-155.8" font-family="Times,serif" font-size="14.00">Mathematical Methods 4</text>
</a>
</g>
</g>
<!-- MATH0016&#45;&gt;MATH0056 -->
<g id="edge12" class="edge">
<title>MATH0016&#45;&gt;MATH0056</title>
<path fill="none" stroke="black" d="M1290.54,-221.83C1279.58,-212.96 1266.23,-202.16 1254.37,-192.57"/>
<polygon fill="black" stroke="black" points="1256.43,-189.73 1246.45,-186.16 1252.02,-195.17 1256.43,-189.73"/>
</g>
<!-- MATH0031 -->
<g id="node18" class="node">
<title>MATH0031</title>
<g id="a_node18"><a xlink:href="https://www.ucl.ac.uk/maths/sites/maths/files/math0031.pdf" xlink:title="Year 3, term 2">
<polygon fill="white" stroke="#cd3333" stroke-width="5" points="1127.5,-112 948.5,-112 948.5,-74 1127.5,-74 1127.5,-112"/>
<text text-anchor="middle" x="1038" y="-96.8" font-family="Times,serif" font-size="14.00">MATH0031</text>
<text text-anchor="middle" x="1038" y="-81.8" font-family="Times,serif" font-size="14.00">Financial Mathematics</text>
</a>
</g>
</g>
<!-- MATH0016&#45;&gt;MATH0031 -->
<g id="edge18" class="edge">
<title>MATH0016&#45;&gt;MATH0031</title>
<path fill="none" stroke="black" d="M1324.32,-221.95C1335.43,-201.67 1348.39,-168.89 1331,-148 1330.6,-147.52 1222.45,-127.67 1137.68,-112.18"/>
<polygon fill="black" stroke="black" points="1138.2,-108.72 1127.73,-110.36 1136.94,-115.6 1138.2,-108.72"/>
</g>
<!-- MATH0088 -->
<g id="node24" class="node">
<title>MATH0088</title>
<g id="a_node24"><a xlink:href="https://www.ucl.ac.uk/maths/sites/maths/files/math0088.pdf" xlink:title="Year 4, term 2">
<polygon fill="white" stroke="#104e8b" stroke-width="5" points="1471.5,-38 1164.5,-38 1164.5,0 1471.5,0 1471.5,-38"/>
<text text-anchor="middle" x="1318" y="-22.8" font-family="Times,serif" font-size="14.00">MATH0088</text>
<text text-anchor="middle" x="1318" y="-7.8" font-family="Times,serif" font-size="14.00">Quantitative and Computational Finance</text>
</a>
</g>
</g>
<!-- MATH0016&#45;&gt;MATH0088 -->
<g id="edge39" class="edge">
<title>MATH0016&#45;&gt;MATH0088</title>
<path fill="none" stroke="black" d="M1335.02,-221.99C1373.5,-190.29 1449.52,-126.49 1456,-112 1462.89,-96.58 1465.52,-87.95 1456,-74 1446.69,-60.36 1433.38,-50.17 1418.65,-42.55"/>
<polygon fill="black" stroke="black" points="1419.86,-39.25 1409.32,-38.13 1416.86,-45.57 1419.86,-39.25"/>
</g>
<!-- MATH0028 -->
<g id="node19" class="node">
<title>MATH0028</title>
<g id="a_node19"><a xlink:href="https://www.ucl.ac.uk/maths/sites/maths/files/math0028.pdf" xlink:title="Year 3, term 2">
<polygon fill="white" stroke="#cd3333" stroke-width="5" points="2364.5,-112 2149.5,-112 2149.5,-74 2364.5,-74 2364.5,-112"/>
<text text-anchor="middle" x="2257" y="-96.8" font-family="Times,serif" font-size="14.00">MATH0028</text>
<text text-anchor="middle" x="2257" y="-81.8" font-family="Times,serif" font-size="14.00">Combinatorial Optimisation</text>
</a>
</g>
</g>
<!-- MATH0014&#45;&gt;MATH0028 -->
<g id="edge20" class="edge">
<title>MATH0014&#45;&gt;MATH0028</title>
<path fill="none" stroke="black" d="M2126.57,-221.8C2152.89,-196.01 2201.16,-148.71 2231.03,-119.45"/>
<polygon fill="black" stroke="black" points="2233.5,-121.92 2238.2,-112.43 2228.6,-116.92 2233.5,-121.92"/>
</g>
<!-- MATH0014&#45;&gt;MATH0114 -->
<g id="edge26" class="edge">
<title>MATH0014&#45;&gt;MATH0114</title>
<path fill="none" stroke="black" d="M2082.7,-221.8C2046.28,-195.61 1979.03,-147.24 1938.52,-118.11"/>
<polygon fill="black" stroke="black" points="1940.46,-115.19 1930.3,-112.2 1936.37,-120.88 1940.46,-115.19"/>
</g>
<!-- MATH0013&#45;&gt;MATH0056 -->
<g id="edge11" class="edge">
<title>MATH0013&#45;&gt;MATH0056</title>
<path fill="none" stroke="black" d="M1118.58,-221.83C1137.03,-212.41 1159.75,-200.81 1179.37,-190.79"/>
<polygon fill="black" stroke="black" points="1181.12,-193.83 1188.43,-186.16 1177.93,-187.59 1181.12,-193.83"/>
</g>
<!-- MATH0013&#45;&gt;MATH0065 -->
<g id="edge36" class="edge">
<title>MATH0013&#45;&gt;MATH0065</title>
<path fill="none" stroke="black" d="M1014.48,-221.91C980.08,-212.26 937.96,-199.6 901,-186 844.15,-165.09 780.75,-136.21 739.06,-116.41"/>
<polygon fill="black" stroke="black" points="740.52,-113.23 729.98,-112.09 737.5,-119.55 740.52,-113.23"/>
</g>
<!-- MATH0058&#45;&gt;MATH0033 -->
<g id="edge16" class="edge">
<title>MATH0058&#45;&gt;MATH0033</title>
<path fill="none" stroke="black" d="M1593.96,-147.83C1592.25,-140.13 1590.22,-130.97 1588.31,-122.42"/>
<polygon fill="black" stroke="black" points="1591.68,-121.42 1586.09,-112.41 1584.84,-122.93 1591.68,-121.42"/>
</g>
<!-- MATH0086 -->
<g id="node23" class="node">
<title>MATH0086</title>
<g id="a_node23"><a xlink:href="https://www.ucl.ac.uk/maths/sites/maths/files/math0086.pdf" xlink:title="Year 4, term 1">
<polygon fill="white" stroke="#1c86ee" stroke-width="5" points="1446.5,-112 1145.5,-112 1145.5,-74 1446.5,-74 1446.5,-112"/>
<text text-anchor="middle" x="1296" y="-96.8" font-family="Times,serif" font-size="14.00">MATH0086</text>
<text text-anchor="middle" x="1296" y="-81.8" font-family="Times,serif" font-size="14.00">Computational and Simulation Methods</text>
</a>
</g>
</g>
<!-- MATH0058&#45;&gt;MATH0086 -->
<g id="edge38" class="edge">
<title>MATH0058&#45;&gt;MATH0086</title>
<path fill="none" stroke="black" stroke-dasharray="5,2" d="M1522.18,-147.92C1479.38,-137.72 1425.76,-124.94 1381.47,-114.38"/>
<polygon fill="black" stroke="black" points="1382.13,-110.94 1371.59,-112.02 1380.5,-117.74 1382.13,-110.94"/>
</g>
<!-- MATH0057&#45;&gt;MATH0031 -->
<g id="edge19" class="edge">
<title>MATH0057&#45;&gt;MATH0031</title>
<path fill="none" stroke="black" d="M1016.32,-147.83C1019.49,-139.96 1023.27,-130.57 1026.78,-121.85"/>
<polygon fill="black" stroke="black" points="1030.09,-123 1030.58,-112.41 1023.6,-120.38 1030.09,-123"/>
</g>
<!-- MATH0057&#45;&gt;MATH0114 -->
<g id="edge27" class="edge">
<title>MATH0057&#45;&gt;MATH0114</title>
<path fill="none" stroke="black" stroke-dasharray="5,2" d="M1108.15,-149.2C1111.47,-148.77 1114.76,-148.37 1118,-148 1358.91,-120.32 1423.02,-129.14 1668.02,-112.13"/>
<polygon fill="black" stroke="black" points="1668.59,-115.6 1678.32,-111.41 1668.1,-108.62 1668.59,-115.6"/>
</g>
<!-- MATH0057&#45;&gt;MATH0102 -->
<g id="edge33" class="edge">
<title>MATH0057&#45;&gt;MATH0102</title>
<path fill="none" stroke="black" stroke-dasharray="5,2" d="M959.32,-147.92C940.79,-139.28 920.71,-127.4 906,-112 888.78,-93.98 877.47,-67.81 870.79,-47.98"/>
<polygon fill="black" stroke="black" points="874.07,-46.75 867.71,-38.27 867.4,-48.86 874.07,-46.75"/>
</g>
<!-- MATH0056&#45;&gt;MATH0102 -->
<g id="edge30" class="edge">
<title>MATH0056&#45;&gt;MATH0102</title>
<path fill="none" stroke="black" stroke-dasharray="5,2" d="M1126.32,-149.03C1047.45,-135.08 948.25,-116.84 940,-112 936.3,-109.83 905.4,-72.26 883.89,-45.82"/>
<polygon fill="black" stroke="black" points="886.58,-43.57 877.56,-38.02 881.14,-47.99 886.58,-43.57"/>
</g>
<!-- MATH0056&#45;&gt;MATH0086 -->
<g id="edge37" class="edge">
<title>MATH0056&#45;&gt;MATH0086</title>
<path fill="none" stroke="black" d="M1242.17,-147.83C1250.72,-139.28 1261.06,-128.94 1270.38,-119.62"/>
<polygon fill="black" stroke="black" points="1272.99,-121.96 1277.59,-112.41 1268.04,-117.01 1272.99,-121.96"/>
</g>
<!-- MATH0032 -->
<g id="node17" class="node">
<title>MATH0032</title>
<g id="a_node17"><a xlink:href="https://www.ucl.ac.uk/maths/sites/maths/files/math0032.pdf" xlink:title="Year 3, term 1">
<polygon fill="white" stroke="#ff4040" stroke-width="5" points="2605,-112 2383,-112 2383,-74 2605,-74 2605,-112"/>
<text text-anchor="middle" x="2494" y="-96.8" font-family="Times,serif" font-size="14.00">MATH0032</text>
<text text-anchor="middle" x="2494" y="-81.8" font-family="Times,serif" font-size="14.00">Introduction to Mathematica</text>
</a>
</g>
</g>
<!-- MATH0031&#45;&gt;MATH0102 -->
<g id="edge31" class="edge">
<title>MATH0031&#45;&gt;MATH0102</title>
<path fill="none" stroke="black" stroke-dasharray="5,2" d="M993.84,-73.83C970.23,-64.12 940.98,-52.08 916.13,-41.86"/>
<polygon fill="black" stroke="black" points="917.42,-38.61 906.84,-38.04 914.76,-45.08 917.42,-38.61"/>
</g>
<!-- MATH0031&#45;&gt;MATH0088 -->
<g id="edge40" class="edge">
<title>MATH0031&#45;&gt;MATH0088</title>
<path fill="none" stroke="black" stroke-dasharray="5,2" d="M1108.29,-73.92C1147.65,-63.8 1196.88,-51.14 1237.75,-40.64"/>
<polygon fill="black" stroke="black" points="1238.86,-43.96 1247.68,-38.08 1237.12,-37.18 1238.86,-43.96"/>
</g>
<!-- MATH0065&#45;&gt;MATH0102 -->
<g id="edge32" class="edge">
<title>MATH0065&#45;&gt;MATH0102</title>
<path fill="none" stroke="black" stroke-dasharray="5,2" d="M735.9,-73.83C758.74,-64.16 787,-52.19 811.07,-41.99"/>
<polygon fill="black" stroke="black" points="812.57,-45.16 820.41,-38.04 809.84,-38.72 812.57,-45.16"/>
</g>
</g>
</svg>
