<?xml version="1.0" encoding="UTF-8" standalone="no"?>
<!DOCTYPE svg PUBLIC "-//W3C//DTD SVG 1.1//EN"
 "http://www.w3.org/Graphics/SVG/1.1/DTD/svg11.dtd">
<!-- Generated by graphviz version 13.1.2 (0)
 -->
<!-- Pages: 1 -->
<svg width="2453pt" height="443pt"
 viewBox="0.00 0.00 2453.00 443.00" xmlns="http://www.w3.org/2000/svg" xmlns:xlink="http://www.w3.org/1999/xlink">
<g id="graph0" class="graph" transform="scale(1 1) rotate(0) translate(4 439)">
<polygon fill="white" stroke="none" points="-4,4 -4,-439 2448.75,-439 2448.75,4 -4,4"/>
<!-- MATH0010 -->
<g id="node1" class="node">
<title>MATH0010</title>
<g id="a_node1"><a xlink:href="https://www.ucl.ac.uk/mathematical-physical-sciences/sites/mathematical_physical_sciences/files/math0010.pdf" xlink:title="Year 1, term 1">
<polygon fill="white" stroke="#ffb90f" stroke-width="5" points="677.75,-435 483.25,-435 483.25,-392.5 677.75,-392.5 677.75,-435"/>
<text xml:space="preserve" text-anchor="middle" x="580.5" y="-417.7" font-family="Times,serif" font-size="14.00">MATH0010</text>
<text xml:space="preserve" text-anchor="middle" x="580.5" y="-400.45" font-family="Times,serif" font-size="14.00">Mathematical Methods 1</text>
</a>
</g>
</g>
<!-- MATH0011 -->
<g id="node5" class="node">
<title>MATH0011</title>
<g id="a_node5"><a xlink:href="https://www.ucl.ac.uk/mathematical-physical-sciences/sites/mathematical_physical_sciences/files/math0011_2.pdf" xlink:title="Year 1, term 2">
<polygon fill="white" stroke="#cd950c" stroke-width="5" points="739.75,-356.5 545.25,-356.5 545.25,-314 739.75,-314 739.75,-356.5"/>
<text xml:space="preserve" text-anchor="middle" x="642.5" y="-339.2" font-family="Times,serif" font-size="14.00">MATH0011</text>
<text xml:space="preserve" text-anchor="middle" x="642.5" y="-321.95" font-family="Times,serif" font-size="14.00">Mathematical Methods 2</text>
</a>
</g>
</g>
<!-- MATH0010&#45;&gt;MATH0011 -->
<g id="edge1" class="edge">
<title>MATH0010&#45;&gt;MATH0011</title>
<g id="a_edge1"><a xlink:title="required prerequisite">
<path fill="none" stroke="black" d="M598.77,-390.21C604.52,-383.12 610.98,-375.15 617.13,-367.56"/>
<polygon fill="black" stroke="black" points="619.62,-370.04 623.2,-360.07 614.18,-365.63 619.62,-370.04"/>
</a>
</g>
</g>
<!-- MATH0058 -->
<g id="node13" class="node">
<title>MATH0058</title>
<g id="a_node13"><a xlink:href="https://www.ucl.ac.uk/mathematical-physical-sciences/sites/mathematical_physical_sciences/files/math0058.pdf" xlink:title="Year 2 or 3, term 2">
<polygon fill="white" stroke="#8ee5ee" stroke-width="5" points="1677.38,-199.5 1489.62,-199.5 1489.62,-157 1677.38,-157 1677.38,-199.5"/>
<text xml:space="preserve" text-anchor="middle" x="1583.5" y="-182.2" font-family="Times,serif" font-size="14.00">MATH0058</text>
<text xml:space="preserve" text-anchor="middle" x="1583.5" y="-164.95" font-family="Times,serif" font-size="14.00">Computational Methods</text>
</a>
</g>
</g>
<!-- MATH0010&#45;&gt;MATH0058 -->
<g id="edge11" class="edge">
<title>MATH0010&#45;&gt;MATH0058</title>
<g id="a_edge11"><a xlink:title="required prerequisite">
<path fill="none" stroke="black" d="M680.04,-408.85C807.92,-402.75 1036.43,-388.21 1229.5,-356.5 1374.85,-332.63 1443.55,-378.22 1551.5,-278 1569.44,-261.34 1577.35,-234.56 1580.83,-213.08"/>
<polygon fill="black" stroke="black" points="1584.28,-213.67 1582.13,-203.3 1577.34,-212.75 1584.28,-213.67"/>
</a>
</g>
</g>
<!-- MATH0030 -->
<g id="node15" class="node">
<title>MATH0030</title>
<g id="a_node15"><a xlink:href="https://www.ucl.ac.uk/mathematical-physical-sciences/sites/mathematical_physical_sciences/files/math0030.pdf" xlink:title="Year 3, term 1">
<polygon fill="white" stroke="#ff4040" stroke-width="5" points="175,-121 0,-121 0,-78.5 175,-78.5 175,-121"/>
<text xml:space="preserve" text-anchor="middle" x="87.5" y="-103.7" font-family="Times,serif" font-size="14.00">MATH0030</text>
<text xml:space="preserve" text-anchor="middle" x="87.5" y="-86.45" font-family="Times,serif" font-size="14.00">Mathematical Ecology</text>
</a>
</g>
</g>
<!-- MATH0010&#45;&gt;MATH0030 -->
<g id="edge16" class="edge">
<title>MATH0010&#45;&gt;MATH0030</title>
<g id="a_edge16"><a xlink:title="required prerequisite">
<path fill="none" stroke="black" d="M481.04,-409.59C380.37,-404.47 233.48,-391.13 189.5,-356.5 119.35,-301.26 97.27,-190.47 90.45,-134.6"/>
<polygon fill="black" stroke="black" points="93.94,-134.29 89.35,-124.74 86.98,-135.07 93.94,-134.29"/>
</a>
</g>
</g>
<!-- MATH0102 -->
<g id="node21" class="node">
<title>MATH0102</title>
<g id="a_node21"><a xlink:href="https://www.ucl.ac.uk/mathematical-physical-sciences/sites/mathematical_physical_sciences/files/math0102.pdf" xlink:title="Year 3 or 4, term 2">
<polygon fill="white" stroke="#cd1076" stroke-width="5" points="781.25,-42.5 565.75,-42.5 565.75,0 781.25,0 781.25,-42.5"/>
<text xml:space="preserve" text-anchor="middle" x="673.5" y="-25.2" font-family="Times,serif" font-size="14.00">MATH0102</text>
<text xml:space="preserve" text-anchor="middle" x="673.5" y="-7.95" font-family="Times,serif" font-size="14.00">Applied Stochastic Methods</text>
</a>
</g>
</g>
<!-- MATH0010&#45;&gt;MATH0102 -->
<g id="edge30" class="edge">
<title>MATH0010&#45;&gt;MATH0102</title>
<g id="a_edge30"><a xlink:title="required prerequisite">
<path fill="none" stroke="black" d="M480.95,-392.28C369.26,-366.37 203.5,-317.81 203.5,-257.75 203.5,-257.75 203.5,-257.75 203.5,-177.25 203.5,-132.56 189.87,-109.04 222.5,-78.5 246.26,-56.25 426.79,-39.31 552.1,-30.08"/>
<polygon fill="black" stroke="black" points="552.06,-33.6 561.78,-29.38 551.56,-26.62 552.06,-33.6"/>
</a>
</g>
</g>
<!-- MATH0065 -->
<g id="node22" class="node">
<title>MATH0065</title>
<g id="a_node22"><a xlink:href="https://www.ucl.ac.uk/mathematical-physical-sciences/sites/mathematical_physical_sciences/files/math0065.pdf" xlink:title="Year 4, term 1">
<polygon fill="white" stroke="#1c86ee" stroke-width="5" points="703.25,-121 457.75,-121 457.75,-78.5 703.25,-78.5 703.25,-121"/>
<text xml:space="preserve" text-anchor="middle" x="580.5" y="-103.7" font-family="Times,serif" font-size="14.00">MATH0065</text>
<text xml:space="preserve" text-anchor="middle" x="580.5" y="-86.45" font-family="Times,serif" font-size="14.00">Advanced Modelling Techniques</text>
</a>
</g>
</g>
<!-- MATH0010&#45;&gt;MATH0065 -->
<g id="edge38" class="edge">
<title>MATH0010&#45;&gt;MATH0065</title>
<g id="a_edge38"><a xlink:title="required prerequisite">
<path fill="none" stroke="black" d="M557.29,-390.24C549.06,-380.7 540.78,-368.93 536.5,-356.5 509.89,-279.28 543.03,-183.17 564.64,-133.65"/>
<polygon fill="black" stroke="black" points="567.79,-135.18 568.7,-124.63 561.41,-132.31 567.79,-135.18"/>
</a>
</g>
</g>
<!-- MATH0082 -->
<g id="node25" class="node">
<title>MATH0082</title>
<g id="a_node25"><a xlink:href="https://www.ucl.ac.uk/mathematical-physical-sciences/sites/mathematical_physical_sciences/files/math0082.pdf" xlink:title="Year 4, term 2">
<polygon fill="white" stroke="#1874cd" stroke-width="5" points="2444.75,-42.5 2106.25,-42.5 2106.25,0 2444.75,0 2444.75,-42.5"/>
<text xml:space="preserve" text-anchor="middle" x="2275.5" y="-25.2" font-family="Times,serif" font-size="14.00">MATH0082</text>
<text xml:space="preserve" text-anchor="middle" x="2275.5" y="-7.95" font-family="Times,serif" font-size="14.00">Evolutionary Games and Population Genetics</text>
</a>
</g>
</g>
<!-- MATH0010&#45;&gt;MATH0082 -->
<g id="edge44" class="edge">
<title>MATH0010&#45;&gt;MATH0082</title>
<g id="a_edge44"><a xlink:title="required prerequisite">
<path fill="none" stroke="black" d="M648.83,-390.11C679.36,-379.94 715.77,-367.72 748.5,-356.5 948.09,-288.12 1003.69,-285.16 1196.5,-199.5 1263.11,-169.9 1283.08,-165.9 1340.5,-121 1360.69,-105.21 1356.37,-89.55 1379.5,-78.5 1441.95,-48.68 1849.07,-33.16 2092.51,-26.45"/>
<polygon fill="black" stroke="black" points="2092.56,-29.95 2102.47,-26.18 2092.37,-22.96 2092.56,-29.95"/>
</a>
</g>
</g>
<!-- MATH0008 -->
<g id="node2" class="node">
<title>MATH0008</title>
<g id="a_node2"><a xlink:href="https://www.ucl.ac.uk/mathematical-physical-sciences/sites/mathematical_physical_sciences/files/math0008.pdf" xlink:title="Year 1, term 1">
<polygon fill="white" stroke="#ffb90f" stroke-width="5" points="2397.25,-435 2229.75,-435 2229.75,-392.5 2397.25,-392.5 2397.25,-435"/>
<text xml:space="preserve" text-anchor="middle" x="2313.5" y="-417.7" font-family="Times,serif" font-size="14.00">MATH0008</text>
<text xml:space="preserve" text-anchor="middle" x="2313.5" y="-400.45" font-family="Times,serif" font-size="14.00">Applied Mathematics</text>
</a>
</g>
</g>
<!-- MATH0008&#45;&gt;MATH0082 -->
<g id="edge43" class="edge">
<title>MATH0008&#45;&gt;MATH0082</title>
<g id="a_edge43"><a xlink:title="required prerequisite">
<path fill="none" stroke="black" d="M2313.5,-390.16C2313.5,-359.98 2313.5,-304.84 2313.5,-257.75 2313.5,-257.75 2313.5,-257.75 2313.5,-177.25 2313.5,-134.31 2299.58,-86.56 2288.58,-55.56"/>
<polygon fill="black" stroke="black" points="2291.94,-54.54 2285.22,-46.35 2285.37,-56.95 2291.94,-54.54"/>
</a>
</g>
</g>
<!-- MATH0003 -->
<g id="node3" class="node">
<title>MATH0003</title>
<g id="a_node3"><a xlink:href="https://www.ucl.ac.uk/mathematical-physical-sciences/sites/mathematical_physical_sciences/files/math0003.pdf" xlink:title="Year 1, term 1">
<polygon fill="white" stroke="#ffb90f" stroke-width="5" points="1773,-435 1676,-435 1676,-392.5 1773,-392.5 1773,-435"/>
<text xml:space="preserve" text-anchor="middle" x="1724.5" y="-417.7" font-family="Times,serif" font-size="14.00">MATH0003</text>
<text xml:space="preserve" text-anchor="middle" x="1724.5" y="-400.45" font-family="Times,serif" font-size="14.00">Analysis 1</text>
</a>
</g>
</g>
<!-- MATH0004 -->
<g id="node6" class="node">
<title>MATH0004</title>
<g id="a_node6"><a xlink:href="https://www.ucl.ac.uk/mathematical-physical-sciences/sites/mathematical_physical_sciences/files/math0004.pdf" xlink:title="Year 1, term 2">
<polygon fill="white" stroke="#cd950c" stroke-width="5" points="1716,-356.5 1619,-356.5 1619,-314 1716,-314 1716,-356.5"/>
<text xml:space="preserve" text-anchor="middle" x="1667.5" y="-339.2" font-family="Times,serif" font-size="14.00">MATH0004</text>
<text xml:space="preserve" text-anchor="middle" x="1667.5" y="-321.95" font-family="Times,serif" font-size="14.00">Analysis 2</text>
</a>
</g>
</g>
<!-- MATH0003&#45;&gt;MATH0004 -->
<g id="edge2" class="edge">
<title>MATH0003&#45;&gt;MATH0004</title>
<g id="a_edge2"><a xlink:title="required prerequisite">
<path fill="none" stroke="black" d="M1707.71,-390.21C1702.53,-383.27 1696.74,-375.49 1691.19,-368.05"/>
<polygon fill="black" stroke="black" points="1694.06,-366.03 1685.27,-360.11 1688.44,-370.22 1694.06,-366.03"/>
</a>
</g>
</g>
<!-- MATH0013 -->
<g id="node8" class="node">
<title>MATH0013</title>
<g id="a_node8"><a xlink:href="https://www.ucl.ac.uk/mathematical-physical-sciences/sites/mathematical_physical_sciences/files/math0013.pdf" xlink:title="Year 2, term 1">
<polygon fill="white" stroke="#00ff00" stroke-width="5" points="1509.62,-278 1281.38,-278 1281.38,-235.5 1509.62,-235.5 1509.62,-278"/>
<text xml:space="preserve" text-anchor="middle" x="1395.5" y="-260.7" font-family="Times,serif" font-size="14.00">MATH0013</text>
<text xml:space="preserve" text-anchor="middle" x="1395.5" y="-243.45" font-family="Times,serif" font-size="14.00">Analysis 3 &#45; Complex Analysis</text>
</a>
</g>
</g>
<!-- MATH0003&#45;&gt;MATH0013 -->
<g id="edge4" class="edge">
<title>MATH0003&#45;&gt;MATH0013</title>
<g id="a_edge4"><a xlink:title="required prerequisite">
<path fill="none" stroke="black" d="M1676.31,-390.05C1617.22,-362.21 1517.14,-315.06 1453.78,-285.21"/>
<polygon fill="black" stroke="black" points="1455.46,-282.13 1444.92,-281.03 1452.48,-288.46 1455.46,-282.13"/>
</a>
</g>
</g>
<!-- MATH0114 -->
<g id="node17" class="node">
<title>MATH0114</title>
<g id="a_node17"><a xlink:href="https://www.ucl.ac.uk/mathematical-physical-sciences/sites/mathematical_physical_sciences/files/math0114_0.pdf" xlink:title="Year 3, term 2">
<polygon fill="white" stroke="#cd3333" stroke-width="5" points="2015.75,-121 1563.25,-121 1563.25,-78.5 2015.75,-78.5 2015.75,-121"/>
<text xml:space="preserve" text-anchor="middle" x="1789.5" y="-103.7" font-family="Times,serif" font-size="14.00">MATH0114</text>
<text xml:space="preserve" text-anchor="middle" x="1789.5" y="-86.45" font-family="Times,serif" font-size="14.00">Mathematics for Machine Learning and Artificial Intelligence</text>
</a>
</g>
</g>
<!-- MATH0003&#45;&gt;MATH0114 -->
<g id="edge18" class="edge">
<title>MATH0003&#45;&gt;MATH0114</title>
<g id="a_edge18"><a xlink:title="required prerequisite">
<path fill="none" stroke="black" d="M1729.23,-390.06C1740.53,-335.8 1769.17,-198.33 1782.49,-134.4"/>
<polygon fill="black" stroke="black" points="1785.87,-135.34 1784.48,-124.84 1779.02,-133.91 1785.87,-135.34"/>
</a>
</g>
</g>
<!-- MATH0003&#45;&gt;MATH0082 -->
<g id="edge45" class="edge">
<title>MATH0003&#45;&gt;MATH0082</title>
<g id="a_edge45"><a xlink:title="required prerequisite">
<path fill="none" stroke="black" d="M1775.26,-404.55C1854.13,-389.88 2008.28,-353.36 2116.5,-278 2193.22,-224.57 2215.07,-204.81 2256.5,-121 2266.48,-100.82 2271.23,-75.91 2273.48,-56.16"/>
<polygon fill="black" stroke="black" points="2276.94,-56.7 2274.42,-46.41 2269.97,-56.03 2276.94,-56.7"/>
</a>
</g>
</g>
<!-- MATH0005 -->
<g id="node4" class="node">
<title>MATH0005</title>
<g id="a_node4"><a xlink:href="https://www.ucl.ac.uk/mathematical-physical-sciences/sites/mathematical_physical_sciences/files/math0005.pdf" xlink:title="Year 1, term 1">
<polygon fill="white" stroke="#ffb90f" stroke-width="5" points="2065,-435 1968,-435 1968,-392.5 2065,-392.5 2065,-435"/>
<text xml:space="preserve" text-anchor="middle" x="2016.5" y="-417.7" font-family="Times,serif" font-size="14.00">MATH0005</text>
<text xml:space="preserve" text-anchor="middle" x="2016.5" y="-400.45" font-family="Times,serif" font-size="14.00">Algebra 1</text>
</a>
</g>
</g>
<!-- MATH0006 -->
<g id="node7" class="node">
<title>MATH0006</title>
<g id="a_node7"><a xlink:href="https://www.ucl.ac.uk/mathematical-physical-sciences/sites/mathematical_physical_sciences/files/math0006.pdf" xlink:title="Year 1, term 2">
<polygon fill="white" stroke="#cd950c" stroke-width="5" points="1907,-356.5 1810,-356.5 1810,-314 1907,-314 1907,-356.5"/>
<text xml:space="preserve" text-anchor="middle" x="1858.5" y="-339.2" font-family="Times,serif" font-size="14.00">MATH0006</text>
<text xml:space="preserve" text-anchor="middle" x="1858.5" y="-321.95" font-family="Times,serif" font-size="14.00">Algebra 2</text>
</a>
</g>
</g>
<!-- MATH0005&#45;&gt;MATH0006 -->
<g id="edge3" class="edge">
<title>MATH0005&#45;&gt;MATH0006</title>
<g id="a_edge3"><a xlink:title="required prerequisite">
<path fill="none" stroke="black" d="M1969.52,-390C1952.57,-381.79 1933.24,-372.44 1915.52,-363.86"/>
<polygon fill="black" stroke="black" points="1917.18,-360.78 1906.66,-359.57 1914.13,-367.08 1917.18,-360.78"/>
</a>
</g>
</g>
<!-- MATH0005&#45;&gt;MATH0114 -->
<g id="edge20" class="edge">
<title>MATH0005&#45;&gt;MATH0114</title>
<g id="a_edge20"><a xlink:title="required prerequisite">
<path fill="none" stroke="black" d="M2045.7,-390.28C2086.64,-355.98 2152.27,-288.93 2116.5,-235.5 2078.32,-178.47 2011.13,-145.55 1947.55,-126.56"/>
<polygon fill="black" stroke="black" points="1948.59,-123.22 1938.01,-123.82 1946.66,-129.94 1948.59,-123.22"/>
</a>
</g>
</g>
<!-- MATH0016 -->
<g id="node9" class="node">
<title>MATH0016</title>
<g id="a_node9"><a xlink:href="https://www.ucl.ac.uk/mathematical-physical-sciences/sites/mathematical_physical_sciences/files/math0016.pdf" xlink:title="Year 2, term 1">
<polygon fill="white" stroke="#00ff00" stroke-width="5" points="955.75,-278 761.25,-278 761.25,-235.5 955.75,-235.5 955.75,-278"/>
<text xml:space="preserve" text-anchor="middle" x="858.5" y="-260.7" font-family="Times,serif" font-size="14.00">MATH0016</text>
<text xml:space="preserve" text-anchor="middle" x="858.5" y="-243.45" font-family="Times,serif" font-size="14.00">Mathematical Methods 3</text>
</a>
</g>
</g>
<!-- MATH0011&#45;&gt;MATH0016 -->
<g id="edge6" class="edge">
<title>MATH0011&#45;&gt;MATH0016</title>
<g id="a_edge6"><a xlink:title="required prerequisite">
<path fill="none" stroke="black" d="M706.72,-311.5C730.99,-302.91 758.8,-293.06 783.94,-284.16"/>
<polygon fill="black" stroke="black" points="784.84,-287.55 793.1,-280.91 782.5,-280.95 784.84,-287.55"/>
</a>
</g>
</g>
<!-- MATH0057 -->
<g id="node12" class="node">
<title>MATH0057</title>
<g id="a_node12"><a xlink:href="https://www.ucl.ac.uk/mathematical-physical-sciences/sites/mathematical_physical_sciences/files/math0057.pdf" xlink:title="Year 2 or 3, term 2">
<polygon fill="white" stroke="#8ee5ee" stroke-width="5" points="830.25,-199.5 632.75,-199.5 632.75,-157 830.25,-157 830.25,-199.5"/>
<text xml:space="preserve" text-anchor="middle" x="731.5" y="-182.2" font-family="Times,serif" font-size="14.00">MATH0057</text>
<text xml:space="preserve" text-anchor="middle" x="731.5" y="-164.95" font-family="Times,serif" font-size="14.00">Probability and Statistics</text>
</a>
</g>
</g>
<!-- MATH0011&#45;&gt;MATH0057 -->
<g id="edge10" class="edge">
<title>MATH0011&#45;&gt;MATH0057</title>
<g id="a_edge10"><a xlink:title="required prerequisite">
<path fill="none" stroke="black" d="M655.44,-311.71C670.54,-285.42 695.61,-241.76 712.81,-211.79"/>
<polygon fill="black" stroke="black" points="715.85,-213.54 717.79,-203.13 709.77,-210.06 715.85,-213.54"/>
</a>
</g>
</g>
<!-- MATH0033 -->
<g id="node14" class="node">
<title>MATH0033</title>
<g id="a_node14"><a xlink:href="https://www.ucl.ac.uk/mathematical-physical-sciences/sites/mathematical_physical_sciences/files/math0033.pdf" xlink:title="Year 3, term 1">
<polygon fill="white" stroke="#ff4040" stroke-width="5" points="1545,-121 1388,-121 1388,-78.5 1545,-78.5 1545,-121"/>
<text xml:space="preserve" text-anchor="middle" x="1466.5" y="-103.7" font-family="Times,serif" font-size="14.00">MATH0033</text>
<text xml:space="preserve" text-anchor="middle" x="1466.5" y="-86.45" font-family="Times,serif" font-size="14.00">Numerical Methods</text>
</a>
</g>
</g>
<!-- MATH0011&#45;&gt;MATH0033 -->
<g id="edge14" class="edge">
<title>MATH0011&#45;&gt;MATH0033</title>
<g id="a_edge14"><a xlink:title="required prerequisite">
<path fill="none" stroke="black" d="M741.98,-320.9C806.04,-311.32 890.81,-296.78 964.5,-278 1069.98,-251.11 1093.82,-235.64 1196.5,-199.5 1264.14,-175.69 1340.9,-147.5 1395.24,-127.35"/>
<polygon fill="black" stroke="black" points="1396.22,-130.72 1404.38,-123.96 1393.79,-124.16 1396.22,-130.72"/>
</a>
</g>
</g>
<!-- MATH0026 -->
<g id="node16" class="node">
<title>MATH0026</title>
<g id="a_node16"><a xlink:href="https://www.ucl.ac.uk/mathematical-physical-sciences/sites/mathematical_physical_sciences/files/math0026.pdf" xlink:title="Year 3, term 1">
<polygon fill="white" stroke="#ff4040" stroke-width="5" points="363.25,-121 231.75,-121 231.75,-78.5 363.25,-78.5 363.25,-121"/>
<text xml:space="preserve" text-anchor="middle" x="297.5" y="-103.7" font-family="Times,serif" font-size="14.00">MATH0026</text>
<text xml:space="preserve" text-anchor="middle" x="297.5" y="-86.45" font-family="Times,serif" font-size="14.00">Biomathematics</text>
</a>
</g>
</g>
<!-- MATH0011&#45;&gt;MATH0026 -->
<g id="edge17" class="edge">
<title>MATH0011&#45;&gt;MATH0026</title>
<g id="a_edge17"><a xlink:title="required prerequisite">
<path fill="none" stroke="black" d="M542.82,-314.83C512.76,-306.33 480.57,-294.43 453.5,-278 392.92,-241.24 343.03,-173.31 317.01,-133.07"/>
<polygon fill="black" stroke="black" points="320.04,-131.31 311.73,-124.74 314.13,-135.06 320.04,-131.31"/>
</a>
</g>
</g>
<!-- MATH0011&#45;&gt;MATH0114 -->
<g id="edge22" class="edge">
<title>MATH0011&#45;&gt;MATH0114</title>
<g id="a_edge22"><a xlink:title="required prerequisite">
<path fill="none" stroke="black" d="M741.97,-331.47C965.91,-324.72 1492.27,-305.96 1518.5,-278 1531.42,-264.22 1525.96,-252.85 1518.5,-235.5 1509.31,-214.13 1489.69,-220.87 1480.5,-199.5 1473.04,-182.15 1468.4,-171.5 1480.5,-157 1491.96,-143.27 1517.82,-132.88 1549.97,-125.03"/>
<polygon fill="black" stroke="black" points="1550.66,-128.46 1559.62,-122.8 1549.09,-121.64 1550.66,-128.46"/>
</a>
</g>
</g>
<!-- MATH0011&#45;&gt;MATH0102 -->
<g id="edge31" class="edge">
<title>MATH0011&#45;&gt;MATH0102</title>
<g id="a_edge31"><a xlink:title="required prerequisite">
<path fill="none" stroke="black" d="M602.17,-311.51C527.68,-266.65 381.96,-163.72 448.5,-78.5 462.26,-60.87 506.45,-47.95 552.07,-38.97"/>
<polygon fill="black" stroke="black" points="552.7,-42.41 561.88,-37.11 551.4,-35.53 552.7,-42.41"/>
</a>
</g>
</g>
<!-- MATH0011&#45;&gt;MATH0065 -->
<g id="edge39" class="edge">
<title>MATH0011&#45;&gt;MATH0065</title>
<g id="a_edge39"><a xlink:title="required prerequisite">
<path fill="none" stroke="black" d="M631.25,-311.53C618.79,-285.25 599.19,-240.35 589.5,-199.5 584.47,-178.28 582.21,-153.87 581.22,-134.63"/>
<polygon fill="black" stroke="black" points="584.73,-134.75 580.81,-124.91 577.73,-135.05 584.73,-134.75"/>
</a>
</g>
</g>
<!-- MATH0004&#45;&gt;MATH0013 -->
<g id="edge5" class="edge">
<title>MATH0004&#45;&gt;MATH0013</title>
<g id="a_edge5"><a xlink:title="recommended prerequisite">
<path fill="none" stroke="black" stroke-dasharray="5,2" d="M1616.66,-319.95C1580.3,-309.72 1530.35,-295.68 1487.12,-283.52"/>
<polygon fill="black" stroke="black" points="1488.32,-280.22 1477.75,-280.88 1486.43,-286.96 1488.32,-280.22"/>
</a>
</g>
</g>
<!-- MATH0004&#45;&gt;MATH0114 -->
<g id="edge19" class="edge">
<title>MATH0004&#45;&gt;MATH0114</title>
<g id="a_edge19"><a xlink:title="required prerequisite">
<path fill="none" stroke="black" d="M1679.2,-311.86C1700.87,-270.39 1747.33,-181.46 1772.48,-133.32"/>
<polygon fill="black" stroke="black" points="1775.43,-135.24 1776.96,-124.76 1769.22,-132 1775.43,-135.24"/>
</a>
</g>
</g>
<!-- MATH0014 -->
<g id="node10" class="node">
<title>MATH0014</title>
<g id="a_node10"><a xlink:href="https://www.ucl.ac.uk/mathematical-physical-sciences/sites/mathematical_physical_sciences/files/math0014.pdf" xlink:title="Year 2, term 1">
<polygon fill="white" stroke="#00ff00" stroke-width="5" points="2107.38,-278 1847.62,-278 1847.62,-235.5 2107.38,-235.5 2107.38,-278"/>
<text xml:space="preserve" text-anchor="middle" x="1977.5" y="-260.7" font-family="Times,serif" font-size="14.00">MATH0014</text>
<text xml:space="preserve" text-anchor="middle" x="1977.5" y="-243.45" font-family="Times,serif" font-size="14.00">Algebra 3: Further Linear Algebra</text>
</a>
</g>
</g>
<!-- MATH0006&#45;&gt;MATH0014 -->
<g id="edge7" class="edge">
<title>MATH0006&#45;&gt;MATH0014</title>
<g id="a_edge7"><a xlink:title="required prerequisite">
<path fill="none" stroke="black" d="M1893.88,-311.5C1906.11,-303.64 1919.98,-294.73 1932.85,-286.45"/>
<polygon fill="black" stroke="black" points="1934.67,-289.45 1941.19,-281.09 1930.88,-283.56 1934.67,-289.45"/>
</a>
</g>
</g>
<!-- MATH0006&#45;&gt;MATH0058 -->
<g id="edge12" class="edge">
<title>MATH0006&#45;&gt;MATH0058</title>
<g id="a_edge12"><a xlink:title="required prerequisite">
<path fill="none" stroke="black" d="M1807.55,-314.57C1783.4,-304.6 1754.44,-291.72 1729.5,-278 1691.8,-257.26 1651.47,-229.51 1622.77,-208.71"/>
<polygon fill="black" stroke="black" points="1624.87,-205.91 1614.73,-202.84 1620.74,-211.56 1624.87,-205.91"/>
</a>
</g>
</g>
<!-- MATH0006&#45;&gt;MATH0033 -->
<g id="edge13" class="edge">
<title>MATH0006&#45;&gt;MATH0033</title>
<g id="a_edge13"><a xlink:title="required prerequisite">
<path fill="none" stroke="black" d="M1843.09,-311.63C1815.99,-273.66 1756.06,-197.32 1686.5,-157 1680.56,-153.56 1615.97,-137.21 1558.3,-123.02"/>
<polygon fill="black" stroke="black" points="1559.27,-119.66 1548.73,-120.67 1557.6,-126.45 1559.27,-119.66"/>
</a>
</g>
</g>
<!-- MATH0006&#45;&gt;MATH0114 -->
<g id="edge21" class="edge">
<title>MATH0006&#45;&gt;MATH0114</title>
<g id="a_edge21"><a xlink:title="required prerequisite">
<path fill="none" stroke="black" d="M1850.05,-311.66C1846.33,-301.44 1842.02,-289.17 1838.5,-278 1822.81,-228.27 1807.19,-169.85 1797.95,-134.07"/>
<polygon fill="black" stroke="black" points="1801.43,-133.57 1795.55,-124.75 1794.65,-135.31 1801.43,-133.57"/>
</a>
</g>
</g>
<!-- MATH0056 -->
<g id="node11" class="node">
<title>MATH0056</title>
<g id="a_node11"><a xlink:href="https://www.ucl.ac.uk/mathematical-physical-sciences/sites/mathematical_physical_sciences/files/math0056.pdf" xlink:title="Year 2 or 3, term 2">
<polygon fill="white" stroke="#8ee5ee" stroke-width="5" points="1187.75,-199.5 993.25,-199.5 993.25,-157 1187.75,-157 1187.75,-199.5"/>
<text xml:space="preserve" text-anchor="middle" x="1090.5" y="-182.2" font-family="Times,serif" font-size="14.00">MATH0056</text>
<text xml:space="preserve" text-anchor="middle" x="1090.5" y="-164.95" font-family="Times,serif" font-size="14.00">Mathematical Methods 4</text>
</a>
</g>
</g>
<!-- MATH0013&#45;&gt;MATH0056 -->
<g id="edge8" class="edge">
<title>MATH0013&#45;&gt;MATH0056</title>
<g id="a_edge8"><a xlink:title="required prerequisite">
<path fill="none" stroke="black" d="M1304.82,-233C1269.41,-224.12 1228.65,-213.9 1192.25,-204.77"/>
<polygon fill="black" stroke="black" points="1193.12,-201.38 1182.57,-202.34 1191.41,-208.17 1193.12,-201.38"/>
</a>
</g>
</g>
<!-- MATH0013&#45;&gt;MATH0065 -->
<g id="edge40" class="edge">
<title>MATH0013&#45;&gt;MATH0065</title>
<g id="a_edge40"><a xlink:title="required prerequisite">
<path fill="none" stroke="black" d="M1278.99,-250.42C1069.81,-240.41 649.78,-218.12 623.5,-199.5 602.32,-184.49 591.47,-156.73 585.97,-134.45"/>
<polygon fill="black" stroke="black" points="589.43,-133.9 583.88,-124.88 582.59,-135.4 589.43,-133.9"/>
</a>
</g>
</g>
<!-- MATH0016&#45;&gt;MATH0056 -->
<g id="edge9" class="edge">
<title>MATH0016&#45;&gt;MATH0056</title>
<g id="a_edge9"><a xlink:title="required prerequisite">
<path fill="none" stroke="black" d="M927.48,-233C953.77,-224.33 983.95,-214.38 1011.13,-205.42"/>
<polygon fill="black" stroke="black" points="1011.95,-208.84 1020.35,-202.38 1009.76,-202.19 1011.95,-208.84"/>
</a>
</g>
</g>
<!-- MATH0031 -->
<g id="node19" class="node">
<title>MATH0031</title>
<g id="a_node19"><a xlink:href="https://www.ucl.ac.uk/mathematical-physical-sciences/sites/mathematical_physical_sciences/files/math0031.pdf" xlink:title="Year 3, term 2">
<polygon fill="white" stroke="#cd3333" stroke-width="5" points="937.88,-121 759.12,-121 759.12,-78.5 937.88,-78.5 937.88,-121"/>
<text xml:space="preserve" text-anchor="middle" x="848.5" y="-103.7" font-family="Times,serif" font-size="14.00">MATH0031</text>
<text xml:space="preserve" text-anchor="middle" x="848.5" y="-86.45" font-family="Times,serif" font-size="14.00">Financial Mathematics</text>
</a>
</g>
</g>
<!-- MATH0016&#45;&gt;MATH0031 -->
<g id="edge26" class="edge">
<title>MATH0016&#45;&gt;MATH0031</title>
<g id="a_edge26"><a xlink:title="required prerequisite">
<path fill="none" stroke="black" d="M857.05,-233.21C855.37,-207.27 852.61,-164.4 850.68,-134.48"/>
<polygon fill="black" stroke="black" points="854.19,-134.58 850.05,-124.83 847.2,-135.03 854.19,-134.58"/>
</a>
</g>
</g>
<!-- MATH0117 -->
<g id="node20" class="node">
<title>MATH0117</title>
<g id="a_node20"><a xlink:href="https://www.ucl.ac.uk/mathematical-physical-sciences/sites/mathematical_physical_sciences/files/math0117.pdf" xlink:title="Year 3 or 4, term 2">
<polygon fill="white" stroke="#cd1076" stroke-width="5" points="371.88,-42.5 145.12,-42.5 145.12,0 371.88,0 371.88,-42.5"/>
<text xml:space="preserve" text-anchor="middle" x="258.5" y="-25.2" font-family="Times,serif" font-size="14.00">MATH0117</text>
<text xml:space="preserve" text-anchor="middle" x="258.5" y="-7.95" font-family="Times,serif" font-size="14.00">Spatial Mathematical Biology</text>
</a>
</g>
</g>
<!-- MATH0016&#45;&gt;MATH0117 -->
<g id="edge29" class="edge">
<title>MATH0016&#45;&gt;MATH0117</title>
<g id="a_edge29"><a xlink:title="required prerequisite">
<path fill="none" stroke="black" d="M759.06,-242.32C707.43,-233.52 643.92,-219.8 589.5,-199.5 486.04,-160.9 470.23,-129.9 372.5,-78.5 354.29,-68.92 334.23,-58.86 316.07,-49.94"/>
<polygon fill="black" stroke="black" points="317.8,-46.89 307.28,-45.64 314.72,-53.18 317.8,-46.89"/>
</a>
</g>
</g>
<!-- MATH0088 -->
<g id="node24" class="node">
<title>MATH0088</title>
<g id="a_node24"><a xlink:href="https://www.ucl.ac.uk/mathematical-physical-sciences/sites/mathematical_physical_sciences/files/math0088.pdf" xlink:title="Year 4, term 2">
<polygon fill="white" stroke="#1874cd" stroke-width="5" points="1109.62,-42.5 803.38,-42.5 803.38,0 1109.62,0 1109.62,-42.5"/>
<text xml:space="preserve" text-anchor="middle" x="956.5" y="-25.2" font-family="Times,serif" font-size="14.00">MATH0088</text>
<text xml:space="preserve" text-anchor="middle" x="956.5" y="-7.95" font-family="Times,serif" font-size="14.00">Quantitative and Computational Finance</text>
</a>
</g>
</g>
<!-- MATH0016&#45;&gt;MATH0088 -->
<g id="edge41" class="edge">
<title>MATH0016&#45;&gt;MATH0088</title>
<g id="a_edge41"><a xlink:title="required prerequisite">
<path fill="none" stroke="black" d="M878.13,-233.25C899.02,-207.88 931.14,-164.47 946.5,-121 953.82,-100.28 956.33,-75.7 957.01,-56.24"/>
<polygon fill="black" stroke="black" points="960.5,-56.45 957.19,-46.39 953.5,-56.32 960.5,-56.45"/>
</a>
</g>
</g>
<!-- MATH0014&#45;&gt;MATH0114 -->
<g id="edge23" class="edge">
<title>MATH0014&#45;&gt;MATH0114</title>
<g id="a_edge23"><a xlink:title="required prerequisite">
<path fill="none" stroke="black" d="M1950.16,-233.21C1917.3,-206.12 1862.05,-160.57 1825.68,-130.58"/>
<polygon fill="black" stroke="black" points="1827.98,-127.94 1818.04,-124.28 1823.53,-133.34 1827.98,-127.94"/>
</a>
</g>
</g>
<!-- MATH0028 -->
<g id="node18" class="node">
<title>MATH0028</title>
<g id="a_node18"><a xlink:href="https://www.ucl.ac.uk/mathematical-physical-sciences/sites/mathematical_physical_sciences/files/math0028.pdf" xlink:title="Year 3, term 2">
<polygon fill="white" stroke="#cd3333" stroke-width="5" points="2247.5,-121 2033.5,-121 2033.5,-78.5 2247.5,-78.5 2247.5,-121"/>
<text xml:space="preserve" text-anchor="middle" x="2140.5" y="-103.7" font-family="Times,serif" font-size="14.00">MATH0028</text>
<text xml:space="preserve" text-anchor="middle" x="2140.5" y="-86.45" font-family="Times,serif" font-size="14.00">Combinatorial Optimisation</text>
</a>
</g>
</g>
<!-- MATH0014&#45;&gt;MATH0028 -->
<g id="edge25" class="edge">
<title>MATH0014&#45;&gt;MATH0028</title>
<g id="a_edge25"><a xlink:title="required prerequisite">
<path fill="none" stroke="black" d="M2001.2,-233.21C2029.57,-206.24 2077.19,-160.95 2108.73,-130.97"/>
<polygon fill="black" stroke="black" points="2110.84,-133.79 2115.67,-124.36 2106.01,-128.71 2110.84,-133.79"/>
</a>
</g>
</g>
<!-- MATH0056&#45;&gt;MATH0102 -->
<g id="edge32" class="edge">
<title>MATH0056&#45;&gt;MATH0102</title>
<g id="a_edge32"><a xlink:title="recommended prerequisite">
<path fill="none" stroke="black" stroke-dasharray="5,2" d="M1064.54,-154.65C1037.07,-131.95 991.55,-97.66 946.5,-78.5 931.89,-72.29 860.56,-57.67 794.47,-44.89"/>
<polygon fill="black" stroke="black" points="795.46,-41.52 784.98,-43.06 794.14,-48.39 795.46,-41.52"/>
</a>
</g>
</g>
<!-- MATH0086 -->
<g id="node23" class="node">
<title>MATH0086</title>
<g id="a_node23"><a xlink:href="https://www.ucl.ac.uk/mathematical-physical-sciences/sites/mathematical_physical_sciences/files/math0086.pdf" xlink:title="Year 4, term 1">
<polygon fill="white" stroke="#1c86ee" stroke-width="5" points="1331.62,-121 1031.38,-121 1031.38,-78.5 1331.62,-78.5 1331.62,-121"/>
<text xml:space="preserve" text-anchor="middle" x="1181.5" y="-103.7" font-family="Times,serif" font-size="14.00">MATH0086</text>
<text xml:space="preserve" text-anchor="middle" x="1181.5" y="-86.45" font-family="Times,serif" font-size="14.00">Computational and Simulation Methods</text>
</a>
</g>
</g>
<!-- MATH0056&#45;&gt;MATH0086 -->
<g id="edge36" class="edge">
<title>MATH0056&#45;&gt;MATH0086</title>
<g id="a_edge36"><a xlink:title="required prerequisite">
<path fill="none" stroke="black" d="M1117.31,-154.71C1126.3,-147.15 1136.47,-138.6 1146.02,-130.58"/>
<polygon fill="black" stroke="black" points="1148.01,-133.48 1153.41,-124.37 1143.5,-128.12 1148.01,-133.48"/>
</a>
</g>
</g>
<!-- MATH0057&#45;&gt;MATH0114 -->
<g id="edge24" class="edge">
<title>MATH0057&#45;&gt;MATH0114</title>
<g id="a_edge24"><a xlink:title="recommended prerequisite">
<path fill="none" stroke="black" stroke-dasharray="5,2" d="M832.73,-168.76C878.99,-164.98 934.51,-160.58 984.5,-157 1233.98,-139.14 1299.46,-139.87 1549.68,-121.35"/>
<polygon fill="black" stroke="black" points="1549.74,-124.86 1559.45,-120.63 1549.22,-117.88 1549.74,-124.86"/>
</a>
</g>
</g>
<!-- MATH0057&#45;&gt;MATH0031 -->
<g id="edge27" class="edge">
<title>MATH0057&#45;&gt;MATH0031</title>
<g id="a_edge27"><a xlink:title="required prerequisite">
<path fill="none" stroke="black" d="M766.29,-154.5C778.31,-146.64 791.94,-137.73 804.6,-129.45"/>
<polygon fill="black" stroke="black" points="806.33,-132.51 812.78,-124.1 802.5,-126.65 806.33,-132.51"/>
</a>
</g>
</g>
<!-- MATH0057&#45;&gt;MATH0102 -->
<g id="edge35" class="edge">
<title>MATH0057&#45;&gt;MATH0102</title>
<g id="a_edge35"><a xlink:title="recommended prerequisite">
<path fill="none" stroke="black" stroke-dasharray="5,2" d="M729.82,-154.52C727.68,-133.98 722.92,-103.28 712.5,-78.5 708.97,-70.11 704.06,-61.7 698.91,-54.03"/>
<polygon fill="black" stroke="black" points="701.86,-52.15 693.22,-46.02 696.15,-56.2 701.86,-52.15"/>
</a>
</g>
</g>
<!-- MATH0058&#45;&gt;MATH0033 -->
<g id="edge15" class="edge">
<title>MATH0058&#45;&gt;MATH0033</title>
<g id="a_edge15"><a xlink:title="required prerequisite">
<path fill="none" stroke="black" d="M1548.71,-154.5C1536.69,-146.64 1523.06,-137.73 1510.4,-129.45"/>
<polygon fill="black" stroke="black" points="1512.5,-126.65 1502.22,-124.1 1508.67,-132.51 1512.5,-126.65"/>
</a>
</g>
</g>
<!-- MATH0058&#45;&gt;MATH0086 -->
<g id="edge37" class="edge">
<title>MATH0058&#45;&gt;MATH0086</title>
<g id="a_edge37"><a xlink:title="recommended prerequisite">
<path fill="none" stroke="black" stroke-dasharray="5,2" d="M1487.21,-158.93C1434.73,-148.94 1369.04,-136.44 1312.01,-125.59"/>
<polygon fill="black" stroke="black" points="1312.69,-122.15 1302.21,-123.72 1311.38,-129.03 1312.69,-122.15"/>
</a>
</g>
</g>
<!-- MATH0030&#45;&gt;MATH0117 -->
<g id="edge28" class="edge">
<title>MATH0030&#45;&gt;MATH0117</title>
<g id="a_edge28"><a xlink:title="required prerequisite">
<path fill="none" stroke="black" d="M138.34,-76C156.95,-67.68 178.2,-58.17 197.6,-49.5"/>
<polygon fill="black" stroke="black" points="198.77,-52.8 206.47,-45.53 195.91,-46.41 198.77,-52.8"/>
</a>
</g>
</g>
<!-- MATH0031&#45;&gt;MATH0102 -->
<g id="edge33" class="edge">
<title>MATH0031&#45;&gt;MATH0102</title>
<g id="a_edge33"><a xlink:title="recommended prerequisite">
<path fill="none" stroke="black" stroke-dasharray="5,2" d="M796.47,-76C777.42,-67.68 755.68,-58.17 735.83,-49.5"/>
<polygon fill="black" stroke="black" points="737.28,-46.31 726.72,-45.51 734.48,-52.73 737.28,-46.31"/>
</a>
</g>
</g>
<!-- MATH0031&#45;&gt;MATH0088 -->
<g id="edge42" class="edge">
<title>MATH0031&#45;&gt;MATH0088</title>
<g id="a_edge42"><a xlink:title="recommended prerequisite">
<path fill="none" stroke="black" stroke-dasharray="5,2" d="M880.61,-76C891.6,-68.22 904.05,-59.4 915.63,-51.2"/>
<polygon fill="black" stroke="black" points="917.33,-54.29 923.46,-45.65 913.28,-48.57 917.33,-54.29"/>
</a>
</g>
</g>
<!-- MATH0065&#45;&gt;MATH0102 -->
<g id="edge34" class="edge">
<title>MATH0065&#45;&gt;MATH0102</title>
<g id="a_edge34"><a xlink:title="recommended prerequisite">
<path fill="none" stroke="black" stroke-dasharray="5,2" d="M608.15,-76C617.33,-68.45 627.7,-59.93 637.42,-51.93"/>
<polygon fill="black" stroke="black" points="639.45,-54.79 644.95,-45.74 635,-49.39 639.45,-54.79"/>
</a>
</g>
</g>
</g>
</svg>
