<?xml version="1.0" encoding="UTF-8" standalone="no"?>
<!DOCTYPE svg PUBLIC "-//W3C//DTD SVG 1.1//EN"
 "http://www.w3.org/Graphics/SVG/1.1/DTD/svg11.dtd">
<!-- Generated by graphviz version 2.43.0 (0)
 -->
<!-- Title: %3 Pages: 1 -->
<svg width="2459pt" height="416pt"
 viewBox="0.00 0.00 2459.00 416.00" xmlns="http://www.w3.org/2000/svg" xmlns:xlink="http://www.w3.org/1999/xlink">
<g id="graph0" class="graph" transform="scale(1 1) rotate(0) translate(4 412)">
<title>%3</title>
<polygon fill="white" stroke="transparent" points="-4,4 -4,-412 2455,-412 2455,4 -4,4"/>
<!-- MATH0008 -->
<g id="node1" class="node">
<title>MATH0008</title>
<g id="a_node1"><a xlink:href="https://www.ucl.ac.uk/maths/sites/maths/files/math0008.pdf" xlink:title="Year 1, term 1">
<polygon fill="white" stroke="#ffb90f" stroke-width="5" points="215.5,-408 47.5,-408 47.5,-370 215.5,-370 215.5,-408"/>
<text text-anchor="middle" x="131.5" y="-392.8" font-family="Times,serif" font-size="14.00">MATH0008</text>
<text text-anchor="middle" x="131.5" y="-377.8" font-family="Times,serif" font-size="14.00">Applied Mathematics</text>
</a>
</g>
</g>
<!-- MATH0082 -->
<g id="node25" class="node">
<title>MATH0082</title>
<g id="a_node25"><a xlink:href="https://www.ucl.ac.uk/maths/sites/maths/files/math0082.pdf" xlink:title="Year 4, term 2">
<polygon fill="white" stroke="#1874cd" stroke-width="5" points="339,-38 0,-38 0,0 339,0 339,-38"/>
<text text-anchor="middle" x="169.5" y="-22.8" font-family="Times,serif" font-size="14.00">MATH0082</text>
<text text-anchor="middle" x="169.5" y="-7.8" font-family="Times,serif" font-size="14.00">Evolutionary Games and Population Genetics</text>
</a>
</g>
</g>
<!-- MATH0008&#45;&gt;MATH0082 -->
<g id="edge43" class="edge">
<title>MATH0008&#45;&gt;MATH0082</title>
<path fill="none" stroke="black" d="M131.5,-369.56C131.5,-341.87 131.5,-287.88 131.5,-242 131.5,-242 131.5,-242 131.5,-166 131.5,-123.59 146.7,-76.43 157.87,-47.48"/>
<polygon fill="black" stroke="black" points="161.18,-48.63 161.63,-38.04 154.68,-46.04 161.18,-48.63"/>
</g>
<!-- MATH0003 -->
<g id="node2" class="node">
<title>MATH0003</title>
<g id="a_node2"><a xlink:href="https://www.ucl.ac.uk/maths/sites/maths/files/math0003.pdf" xlink:title="Year 1, term 1">
<polygon fill="white" stroke="#ffb90f" stroke-width="5" points="1602.5,-408 1504.5,-408 1504.5,-370 1602.5,-370 1602.5,-408"/>
<text text-anchor="middle" x="1553.5" y="-392.8" font-family="Times,serif" font-size="14.00">MATH0003</text>
<text text-anchor="middle" x="1553.5" y="-377.8" font-family="Times,serif" font-size="14.00">Analysis 1</text>
</a>
</g>
</g>
<!-- MATH0004 -->
<g id="node7" class="node">
<title>MATH0004</title>
<g id="a_node7"><a xlink:href="https://www.ucl.ac.uk/maths/sites/maths/files/math0004.pdf" xlink:title="Year 1, term 2">
<polygon fill="white" stroke="#cd950c" stroke-width="5" points="1696.5,-334 1598.5,-334 1598.5,-296 1696.5,-296 1696.5,-334"/>
<text text-anchor="middle" x="1647.5" y="-318.8" font-family="Times,serif" font-size="14.00">MATH0004</text>
<text text-anchor="middle" x="1647.5" y="-303.8" font-family="Times,serif" font-size="14.00">Analysis 2</text>
</a>
</g>
</g>
<!-- MATH0003&#45;&gt;MATH0004 -->
<g id="edge3" class="edge">
<title>MATH0003&#45;&gt;MATH0004</title>
<path fill="none" stroke="black" d="M1577.22,-369.83C1588.91,-360.88 1603.17,-349.96 1615.78,-340.3"/>
<polygon fill="black" stroke="black" points="1617.98,-343.02 1623.79,-334.16 1613.72,-337.47 1617.98,-343.02"/>
</g>
<!-- MATH0013 -->
<g id="node10" class="node">
<title>MATH0013</title>
<g id="a_node10"><a xlink:href="https://www.ucl.ac.uk/maths/sites/maths/files/math0013.pdf" xlink:title="Year 2, term 1">
<polygon fill="white" stroke="#00ff00" stroke-width="5" points="1504,-260 1275,-260 1275,-222 1504,-222 1504,-260"/>
<text text-anchor="middle" x="1389.5" y="-244.8" font-family="Times,serif" font-size="14.00">MATH0013</text>
<text text-anchor="middle" x="1389.5" y="-229.8" font-family="Times,serif" font-size="14.00">Analysis 3 &#45; Complex Analysis</text>
</a>
</g>
</g>
<!-- MATH0003&#45;&gt;MATH0013 -->
<g id="edge6" class="edge">
<title>MATH0003&#45;&gt;MATH0013</title>
<path fill="none" stroke="black" d="M1533.06,-369.8C1504.01,-343.94 1450.67,-296.45 1417.82,-267.21"/>
<polygon fill="black" stroke="black" points="1419.73,-264.23 1409.94,-260.2 1415.08,-269.46 1419.73,-264.23"/>
</g>
<!-- MATH0114 -->
<g id="node18" class="node">
<title>MATH0114</title>
<g id="a_node18"><a xlink:href="https://www.ucl.ac.uk/maths/sites/maths/files/math0114_0.pdf" xlink:title="Year 3, term 2">
<polygon fill="white" stroke="#cd3333" stroke-width="5" points="2218,-112 1765,-112 1765,-74 2218,-74 2218,-112"/>
<text text-anchor="middle" x="1991.5" y="-96.8" font-family="Times,serif" font-size="14.00">MATH0114</text>
<text text-anchor="middle" x="1991.5" y="-81.8" font-family="Times,serif" font-size="14.00">Mathematics for Machine Learning and Artificial Intelligence</text>
</a>
</g>
</g>
<!-- MATH0003&#45;&gt;MATH0114 -->
<g id="edge20" class="edge">
<title>MATH0003&#45;&gt;MATH0114</title>
<path fill="none" stroke="black" d="M1602.66,-375.39C1633.41,-366.35 1673.17,-352.5 1705.5,-334 1813.68,-272.09 1920.71,-167.77 1967.28,-119.69"/>
<polygon fill="black" stroke="black" points="1970.08,-121.83 1974.49,-112.2 1965.03,-116.98 1970.08,-121.83"/>
</g>
<!-- MATH0003&#45;&gt;MATH0082 -->
<g id="edge45" class="edge">
<title>MATH0003&#45;&gt;MATH0082</title>
<path fill="none" stroke="black" d="M1504.34,-387.65C1341.84,-386.09 823.15,-377.73 662.5,-334 452.68,-276.89 386.56,-259.19 226.5,-112 206.77,-93.86 191.33,-67.37 181.52,-47.46"/>
<polygon fill="black" stroke="black" points="184.62,-45.82 177.17,-38.29 178.29,-48.82 184.62,-45.82"/>
</g>
<!-- MATH0010 -->
<g id="node3" class="node">
<title>MATH0010</title>
<g id="a_node3"><a xlink:href="https://www.ucl.ac.uk/maths/sites/maths/files/math0010.pdf" xlink:title="Year 1, term 1">
<polygon fill="white" stroke="#ffb90f" stroke-width="5" points="584,-408 389,-408 389,-370 584,-370 584,-408"/>
<text text-anchor="middle" x="486.5" y="-392.8" font-family="Times,serif" font-size="14.00">MATH0010</text>
<text text-anchor="middle" x="486.5" y="-377.8" font-family="Times,serif" font-size="14.00">Mathematical Methods 1</text>
</a>
</g>
</g>
<!-- MATH0011 -->
<g id="node6" class="node">
<title>MATH0011</title>
<g id="a_node6"><a xlink:href="https://www.ucl.ac.uk/maths/sites/maths/files/math0011_2.pdf" xlink:title="Year 1, term 2">
<polygon fill="white" stroke="#cd950c" stroke-width="5" points="867,-334 672,-334 672,-296 867,-296 867,-334"/>
<text text-anchor="middle" x="769.5" y="-318.8" font-family="Times,serif" font-size="14.00">MATH0011</text>
<text text-anchor="middle" x="769.5" y="-303.8" font-family="Times,serif" font-size="14.00">Mathematical Methods 2</text>
</a>
</g>
</g>
<!-- MATH0010&#45;&gt;MATH0011 -->
<g id="edge2" class="edge">
<title>MATH0010&#45;&gt;MATH0011</title>
<path fill="none" stroke="black" d="M557.55,-369.92C597.41,-359.78 647.29,-347.09 688.65,-336.57"/>
<polygon fill="black" stroke="black" points="689.59,-339.94 698.42,-334.08 687.87,-333.16 689.59,-339.94"/>
</g>
<!-- MATH0058 -->
<g id="node12" class="node">
<title>MATH0058</title>
<g id="a_node12"><a xlink:href="https://www.ucl.ac.uk/maths/sites/maths/files/math0058.pdf" xlink:title="Year 2 or 3, term 2">
<polygon fill="white" stroke="#8ee5ee" stroke-width="5" points="1748.5,-186 1560.5,-186 1560.5,-148 1748.5,-148 1748.5,-186"/>
<text text-anchor="middle" x="1654.5" y="-170.8" font-family="Times,serif" font-size="14.00">MATH0058</text>
<text text-anchor="middle" x="1654.5" y="-155.8" font-family="Times,serif" font-size="14.00">Computational Methods</text>
</a>
</g>
</g>
<!-- MATH0010&#45;&gt;MATH0058 -->
<g id="edge9" class="edge">
<title>MATH0010&#45;&gt;MATH0058</title>
<path fill="none" stroke="black" d="M584.36,-383.39C812.79,-371.48 1374.8,-335.21 1546.5,-260 1580.86,-244.95 1612.56,-215.25 1632.61,-193.65"/>
<polygon fill="black" stroke="black" points="1635.32,-195.86 1639.45,-186.1 1630.14,-191.16 1635.32,-195.86"/>
</g>
<!-- MATH0030 -->
<g id="node15" class="node">
<title>MATH0030</title>
<g id="a_node15"><a xlink:href="https://www.ucl.ac.uk/maths/sites/maths/files/math0030.pdf" xlink:title="Year 3, term 1">
<polygon fill="white" stroke="#ff4040" stroke-width="5" points="411.5,-112 235.5,-112 235.5,-74 411.5,-74 411.5,-112"/>
<text text-anchor="middle" x="323.5" y="-96.8" font-family="Times,serif" font-size="14.00">MATH0030</text>
<text text-anchor="middle" x="323.5" y="-81.8" font-family="Times,serif" font-size="14.00">Mathematical Ecology</text>
</a>
</g>
</g>
<!-- MATH0010&#45;&gt;MATH0030 -->
<g id="edge14" class="edge">
<title>MATH0010&#45;&gt;MATH0030</title>
<path fill="none" stroke="black" d="M461.24,-369.89C449.21,-360.29 435.33,-347.66 425.5,-334 376.07,-265.34 344.45,-169.04 330.98,-122.03"/>
<polygon fill="black" stroke="black" points="334.31,-120.93 328.24,-112.25 327.57,-122.82 334.31,-120.93"/>
</g>
<!-- MATH0102 -->
<g id="node21" class="node">
<title>MATH0102</title>
<g id="a_node21"><a xlink:href="https://www.ucl.ac.uk/maths/sites/maths/files/math0102.pdf" xlink:title="Year 3 or 4, term 2">
<polygon fill="white" stroke="#cd1076" stroke-width="5" points="951.5,-38 735.5,-38 735.5,0 951.5,0 951.5,-38"/>
<text text-anchor="middle" x="843.5" y="-22.8" font-family="Times,serif" font-size="14.00">MATH0102</text>
<text text-anchor="middle" x="843.5" y="-7.8" font-family="Times,serif" font-size="14.00">Applied Stochastic Methods</text>
</a>
</g>
</g>
<!-- MATH0010&#45;&gt;MATH0102 -->
<g id="edge30" class="edge">
<title>MATH0010&#45;&gt;MATH0102</title>
<path fill="none" stroke="black" d="M476.53,-369.71C462.74,-342.64 439.5,-289.93 439.5,-242 439.5,-242 439.5,-242 439.5,-166 439.5,-124.25 428.04,-102.56 458.5,-74 468.33,-64.78 615.84,-46.04 725.35,-33.25"/>
<polygon fill="black" stroke="black" points="725.96,-36.7 735.49,-32.07 725.15,-29.75 725.96,-36.7"/>
</g>
<!-- MATH0065 -->
<g id="node22" class="node">
<title>MATH0065</title>
<g id="a_node22"><a xlink:href="https://www.ucl.ac.uk/maths/sites/maths/files/math0065.pdf" xlink:title="Year 4, term 1">
<polygon fill="white" stroke="#1c86ee" stroke-width="5" points="939.5,-112 693.5,-112 693.5,-74 939.5,-74 939.5,-112"/>
<text text-anchor="middle" x="816.5" y="-96.8" font-family="Times,serif" font-size="14.00">MATH0065</text>
<text text-anchor="middle" x="816.5" y="-81.8" font-family="Times,serif" font-size="14.00">Advanced Modelling Techniques</text>
</a>
</g>
</g>
<!-- MATH0010&#45;&gt;MATH0065 -->
<g id="edge38" class="edge">
<title>MATH0010&#45;&gt;MATH0065</title>
<path fill="none" stroke="black" d="M507.14,-369.61C564.11,-318.86 723.59,-176.77 788.49,-118.95"/>
<polygon fill="black" stroke="black" points="791.15,-121.27 796.29,-112.01 786.49,-116.05 791.15,-121.27"/>
</g>
<!-- MATH0010&#45;&gt;MATH0082 -->
<g id="edge44" class="edge">
<title>MATH0010&#45;&gt;MATH0082</title>
<path fill="none" stroke="black" d="M388.8,-383.01C295.66,-372.35 169.5,-339.85 169.5,-242 169.5,-242 169.5,-242 169.5,-166 169.5,-125.32 169.5,-78.26 169.5,-48.81"/>
<polygon fill="black" stroke="black" points="173,-48.44 169.5,-38.44 166,-48.44 173,-48.44"/>
</g>
<!-- MATH0005 -->
<g id="node4" class="node">
<title>MATH0005</title>
<g id="a_node4"><a xlink:href="https://www.ucl.ac.uk/maths/sites/maths/files/math0005.pdf" xlink:title="Year 1, term 1">
<polygon fill="white" stroke="#ffb90f" stroke-width="5" points="2016.5,-408 1918.5,-408 1918.5,-370 2016.5,-370 2016.5,-408"/>
<text text-anchor="middle" x="1967.5" y="-392.8" font-family="Times,serif" font-size="14.00">MATH0005</text>
<text text-anchor="middle" x="1967.5" y="-377.8" font-family="Times,serif" font-size="14.00">Algebra 1</text>
</a>
</g>
</g>
<!-- MATH0006 -->
<g id="node5" class="node">
<title>MATH0006</title>
<g id="a_node5"><a xlink:href="https://www.ucl.ac.uk/maths/sites/maths/files/math0006.pdf" xlink:title="Year 1, term 2">
<polygon fill="white" stroke="#cd950c" stroke-width="5" points="1978.5,-334 1880.5,-334 1880.5,-296 1978.5,-296 1978.5,-334"/>
<text text-anchor="middle" x="1929.5" y="-318.8" font-family="Times,serif" font-size="14.00">MATH0006</text>
<text text-anchor="middle" x="1929.5" y="-303.8" font-family="Times,serif" font-size="14.00">Algebra 2</text>
</a>
</g>
</g>
<!-- MATH0005&#45;&gt;MATH0006 -->
<g id="edge1" class="edge">
<title>MATH0005&#45;&gt;MATH0006</title>
<path fill="none" stroke="black" d="M1957.91,-369.83C1953.67,-361.79 1948.59,-352.17 1943.9,-343.29"/>
<polygon fill="black" stroke="black" points="1946.98,-341.62 1939.22,-334.41 1940.79,-344.89 1946.98,-341.62"/>
</g>
<!-- MATH0005&#45;&gt;MATH0114 -->
<g id="edge22" class="edge">
<title>MATH0005&#45;&gt;MATH0114</title>
<path fill="none" stroke="black" d="M1975.94,-369.94C1980.29,-359.65 1985.17,-346.38 1987.5,-334 2001.64,-258.71 1997.54,-167.78 1994.1,-122.51"/>
<polygon fill="black" stroke="black" points="1997.56,-121.96 1993.27,-112.27 1990.59,-122.52 1997.56,-121.96"/>
</g>
<!-- MATH0014 -->
<g id="node9" class="node">
<title>MATH0014</title>
<g id="a_node9"><a xlink:href="https://www.ucl.ac.uk/maths/sites/maths/files/math0014.pdf" xlink:title="Year 2, term 1">
<polygon fill="white" stroke="#00ff00" stroke-width="5" points="2294.5,-260 2034.5,-260 2034.5,-222 2294.5,-222 2294.5,-260"/>
<text text-anchor="middle" x="2164.5" y="-244.8" font-family="Times,serif" font-size="14.00">MATH0014</text>
<text text-anchor="middle" x="2164.5" y="-229.8" font-family="Times,serif" font-size="14.00">Algebra 3: Further Linear Algebra</text>
</a>
</g>
</g>
<!-- MATH0006&#45;&gt;MATH0014 -->
<g id="edge5" class="edge">
<title>MATH0006&#45;&gt;MATH0014</title>
<path fill="none" stroke="black" d="M1978.76,-298.91C2012.74,-288.5 2058.36,-274.52 2095.89,-263.02"/>
<polygon fill="black" stroke="black" points="2097.21,-266.28 2105.74,-260 2095.16,-259.59 2097.21,-266.28"/>
</g>
<!-- MATH0006&#45;&gt;MATH0058 -->
<g id="edge10" class="edge">
<title>MATH0006&#45;&gt;MATH0058</title>
<path fill="none" stroke="black" d="M1880.39,-299.87C1850.86,-290.45 1813.02,-276.75 1781.5,-260 1745.64,-240.95 1708.46,-212.87 1683.67,-192.75"/>
<polygon fill="black" stroke="black" points="1685.71,-189.89 1675.75,-186.25 1681.26,-195.3 1685.71,-189.89"/>
</g>
<!-- MATH0033 -->
<g id="node16" class="node">
<title>MATH0033</title>
<g id="a_node16"><a xlink:href="https://www.ucl.ac.uk/maths/sites/maths/files/math0033.pdf" xlink:title="Year 3, term 1">
<polygon fill="white" stroke="#ff4040" stroke-width="5" points="1747.5,-112 1589.5,-112 1589.5,-74 1747.5,-74 1747.5,-112"/>
<text text-anchor="middle" x="1668.5" y="-96.8" font-family="Times,serif" font-size="14.00">MATH0033</text>
<text text-anchor="middle" x="1668.5" y="-81.8" font-family="Times,serif" font-size="14.00">Numerical Methods</text>
</a>
</g>
</g>
<!-- MATH0006&#45;&gt;MATH0033 -->
<g id="edge15" class="edge">
<title>MATH0006&#45;&gt;MATH0033</title>
<path fill="none" stroke="black" d="M1913.32,-295.93C1884.11,-263.9 1819.8,-196 1757.5,-148 1743.02,-136.84 1726.09,-126.07 1710.9,-117.12"/>
<polygon fill="black" stroke="black" points="1712.6,-114.06 1702.19,-112.08 1709.09,-120.12 1712.6,-114.06"/>
</g>
<!-- MATH0006&#45;&gt;MATH0114 -->
<g id="edge23" class="edge">
<title>MATH0006&#45;&gt;MATH0114</title>
<path fill="none" stroke="black" d="M1934.57,-296C1945.36,-257.72 1970.64,-168.03 1983.57,-122.14"/>
<polygon fill="black" stroke="black" points="1987.01,-122.83 1986.36,-112.25 1980.27,-120.93 1987.01,-122.83"/>
</g>
<!-- MATH0016 -->
<g id="node8" class="node">
<title>MATH0016</title>
<g id="a_node8"><a xlink:href="https://www.ucl.ac.uk/maths/sites/maths/files/math0016.pdf" xlink:title="Year 2, term 1">
<polygon fill="white" stroke="#00ff00" stroke-width="5" points="1192,-260 997,-260 997,-222 1192,-222 1192,-260"/>
<text text-anchor="middle" x="1094.5" y="-244.8" font-family="Times,serif" font-size="14.00">MATH0016</text>
<text text-anchor="middle" x="1094.5" y="-229.8" font-family="Times,serif" font-size="14.00">Mathematical Methods 3</text>
</a>
</g>
</g>
<!-- MATH0011&#45;&gt;MATH0016 -->
<g id="edge4" class="edge">
<title>MATH0011&#45;&gt;MATH0016</title>
<path fill="none" stroke="black" d="M851.09,-295.92C897.35,-285.68 955.35,-272.83 1003.12,-262.24"/>
<polygon fill="black" stroke="black" points="1004.15,-265.6 1013.16,-260.02 1002.64,-258.77 1004.15,-265.6"/>
</g>
<!-- MATH0057 -->
<g id="node11" class="node">
<title>MATH0057</title>
<g id="a_node11"><a xlink:href="https://www.ucl.ac.uk/maths/sites/maths/files/math0057.pdf" xlink:title="Year 2 or 3, term 2">
<polygon fill="white" stroke="#8ee5ee" stroke-width="5" points="1066.5,-186 868.5,-186 868.5,-148 1066.5,-148 1066.5,-186"/>
<text text-anchor="middle" x="967.5" y="-170.8" font-family="Times,serif" font-size="14.00">MATH0057</text>
<text text-anchor="middle" x="967.5" y="-155.8" font-family="Times,serif" font-size="14.00">Probability and Statistics</text>
</a>
</g>
</g>
<!-- MATH0011&#45;&gt;MATH0057 -->
<g id="edge8" class="edge">
<title>MATH0011&#45;&gt;MATH0057</title>
<path fill="none" stroke="black" d="M794.18,-295.8C829.55,-269.72 894.75,-221.65 934.31,-192.47"/>
<polygon fill="black" stroke="black" points="936.85,-194.95 942.82,-186.2 932.7,-189.31 936.85,-194.95"/>
</g>
<!-- MATH0026 -->
<g id="node14" class="node">
<title>MATH0026</title>
<g id="a_node14"><a xlink:href="https://www.ucl.ac.uk/maths/sites/maths/files/math0026.pdf" xlink:title="Year 3, term 1">
<polygon fill="white" stroke="#ff4040" stroke-width="5" points="599.5,-112 467.5,-112 467.5,-74 599.5,-74 599.5,-112"/>
<text text-anchor="middle" x="533.5" y="-96.8" font-family="Times,serif" font-size="14.00">MATH0026</text>
<text text-anchor="middle" x="533.5" y="-81.8" font-family="Times,serif" font-size="14.00">Biomathematics</text>
</a>
</g>
</g>
<!-- MATH0011&#45;&gt;MATH0026 -->
<g id="edge13" class="edge">
<title>MATH0011&#45;&gt;MATH0026</title>
<path fill="none" stroke="black" d="M678.84,-295.87C655.55,-287.86 631.91,-276.39 613.5,-260 571.64,-222.73 549.6,-158.72 539.87,-122.03"/>
<polygon fill="black" stroke="black" points="543.18,-120.85 537.34,-112.01 536.39,-122.57 543.18,-120.85"/>
</g>
<!-- MATH0011&#45;&gt;MATH0033 -->
<g id="edge16" class="edge">
<title>MATH0011&#45;&gt;MATH0033</title>
<path fill="none" stroke="black" d="M867.22,-312.94C956.45,-309.39 1090.9,-297.48 1201.5,-260 1233.19,-249.26 1235.64,-234.93 1266.5,-222 1322.98,-198.34 1340.94,-203.92 1399.5,-186 1472.3,-163.73 1555.02,-134.9 1609.29,-115.49"/>
<polygon fill="black" stroke="black" points="1610.51,-118.77 1618.74,-112.11 1608.15,-112.18 1610.51,-118.77"/>
</g>
<!-- MATH0011&#45;&gt;MATH0114 -->
<g id="edge24" class="edge">
<title>MATH0011&#45;&gt;MATH0114</title>
<path fill="none" stroke="black" d="M867.31,-309.76C1063.45,-300.86 1488.33,-279.45 1513.5,-260 1555.09,-227.85 1510.72,-181.17 1551.5,-148 1568.73,-133.99 1659.85,-121.63 1754.75,-112.29"/>
<polygon fill="black" stroke="black" points="1755.22,-115.76 1764.83,-111.31 1754.54,-108.79 1755.22,-115.76"/>
</g>
<!-- MATH0011&#45;&gt;MATH0102 -->
<g id="edge31" class="edge">
<title>MATH0011&#45;&gt;MATH0102</title>
<path fill="none" stroke="black" d="M752.53,-295.84C715.07,-253.52 632.63,-146.4 684.5,-74 695.03,-59.3 709.79,-48.56 726.11,-40.71"/>
<polygon fill="black" stroke="black" points="727.59,-43.89 735.32,-36.65 724.76,-37.48 727.59,-43.89"/>
</g>
<!-- MATH0011&#45;&gt;MATH0065 -->
<g id="edge39" class="edge">
<title>MATH0011&#45;&gt;MATH0065</title>
<path fill="none" stroke="black" d="M773.35,-296C781.52,-257.72 800.68,-168.03 810.49,-122.14"/>
<polygon fill="black" stroke="black" points="813.93,-122.76 812.6,-112.25 807.09,-121.3 813.93,-122.76"/>
</g>
<!-- MATH0004&#45;&gt;MATH0013 -->
<g id="edge7" class="edge">
<title>MATH0004&#45;&gt;MATH0013</title>
<path fill="none" stroke="black" stroke-dasharray="5,2" d="M1598.36,-300.29C1560.39,-289.69 1507.18,-274.84 1463.98,-262.78"/>
<polygon fill="black" stroke="black" points="1464.65,-259.34 1454.07,-260.02 1462.76,-266.08 1464.65,-259.34"/>
</g>
<!-- MATH0004&#45;&gt;MATH0114 -->
<g id="edge21" class="edge">
<title>MATH0004&#45;&gt;MATH0114</title>
<path fill="none" stroke="black" d="M1663.92,-295.76C1694.99,-262.23 1765.8,-190.34 1838.5,-148 1861.6,-134.55 1888.6,-123.65 1913.43,-115.26"/>
<polygon fill="black" stroke="black" points="1914.79,-118.49 1923.19,-112.05 1912.6,-111.84 1914.79,-118.49"/>
</g>
<!-- MATH0056 -->
<g id="node13" class="node">
<title>MATH0056</title>
<g id="a_node13"><a xlink:href="https://www.ucl.ac.uk/maths/sites/maths/files/math0056.pdf" xlink:title="Year 2 or 3, term 2">
<polygon fill="white" stroke="#8ee5ee" stroke-width="5" points="1390,-186 1195,-186 1195,-148 1390,-148 1390,-186"/>
<text text-anchor="middle" x="1292.5" y="-170.8" font-family="Times,serif" font-size="14.00">MATH0056</text>
<text text-anchor="middle" x="1292.5" y="-155.8" font-family="Times,serif" font-size="14.00">Mathematical Methods 4</text>
</a>
</g>
</g>
<!-- MATH0016&#45;&gt;MATH0056 -->
<g id="edge12" class="edge">
<title>MATH0016&#45;&gt;MATH0056</title>
<path fill="none" stroke="black" d="M1144.21,-221.92C1171.28,-212.08 1204.94,-199.84 1233.35,-189.51"/>
<polygon fill="black" stroke="black" points="1234.57,-192.79 1242.77,-186.08 1232.18,-186.21 1234.57,-192.79"/>
</g>
<!-- MATH0031 -->
<g id="node17" class="node">
<title>MATH0031</title>
<g id="a_node17"><a xlink:href="https://www.ucl.ac.uk/maths/sites/maths/files/math0031.pdf" xlink:title="Year 3, term 2">
<polygon fill="white" stroke="#cd3333" stroke-width="5" points="1175,-112 996,-112 996,-74 1175,-74 1175,-112"/>
<text text-anchor="middle" x="1085.5" y="-96.8" font-family="Times,serif" font-size="14.00">MATH0031</text>
<text text-anchor="middle" x="1085.5" y="-81.8" font-family="Times,serif" font-size="14.00">Financial Mathematics</text>
</a>
</g>
</g>
<!-- MATH0016&#45;&gt;MATH0031 -->
<g id="edge18" class="edge">
<title>MATH0016&#45;&gt;MATH0031</title>
<path fill="none" stroke="black" d="M1093.38,-221.8C1091.84,-196.89 1089.07,-151.89 1087.26,-122.49"/>
<polygon fill="black" stroke="black" points="1090.74,-122.19 1086.64,-112.43 1083.76,-122.62 1090.74,-122.19"/>
</g>
<!-- MATH0117 -->
<g id="node20" class="node">
<title>MATH0117</title>
<g id="a_node20"><a xlink:href="https://www.ucl.ac.uk/maths/sites/maths/files/math0117.pdf" xlink:title="Year 3 or 4, term 2">
<polygon fill="white" stroke="#cd1076" stroke-width="5" points="664,-38 437,-38 437,0 664,0 664,-38"/>
<text text-anchor="middle" x="550.5" y="-22.8" font-family="Times,serif" font-size="14.00">MATH0117</text>
<text text-anchor="middle" x="550.5" y="-7.8" font-family="Times,serif" font-size="14.00">Spatial Mathematical Biology</text>
</a>
</g>
</g>
<!-- MATH0016&#45;&gt;MATH0117 -->
<g id="edge29" class="edge">
<title>MATH0016&#45;&gt;MATH0117</title>
<path fill="none" stroke="black" d="M996.74,-226.75C945.7,-218.19 882.75,-205.04 828.5,-186 760.6,-162.17 746.28,-148.88 684.5,-112 648.86,-90.73 609.94,-63.53 583.28,-44.24"/>
<polygon fill="black" stroke="black" points="585.21,-41.32 575.07,-38.27 581.1,-46.98 585.21,-41.32"/>
</g>
<!-- MATH0088 -->
<g id="node24" class="node">
<title>MATH0088</title>
<g id="a_node24"><a xlink:href="https://www.ucl.ac.uk/maths/sites/maths/files/math0088.pdf" xlink:title="Year 4, term 2">
<polygon fill="white" stroke="#1874cd" stroke-width="5" points="1330,-38 1023,-38 1023,0 1330,0 1330,-38"/>
<text text-anchor="middle" x="1176.5" y="-22.8" font-family="Times,serif" font-size="14.00">MATH0088</text>
<text text-anchor="middle" x="1176.5" y="-7.8" font-family="Times,serif" font-size="14.00">Quantitative and Computational Finance</text>
</a>
</g>
</g>
<!-- MATH0016&#45;&gt;MATH0088 -->
<g id="edge41" class="edge">
<title>MATH0016&#45;&gt;MATH0088</title>
<path fill="none" stroke="black" d="M1113.04,-221.68C1135.04,-198.52 1170.49,-156.29 1184.5,-112 1191.08,-91.2 1188.41,-66.53 1184.46,-47.97"/>
<polygon fill="black" stroke="black" points="1187.83,-47.01 1182.11,-38.09 1181.02,-48.62 1187.83,-47.01"/>
</g>
<!-- MATH0014&#45;&gt;MATH0114 -->
<g id="edge25" class="edge">
<title>MATH0014&#45;&gt;MATH0114</title>
<path fill="none" stroke="black" d="M2142.94,-221.8C2112.16,-195.83 2055.55,-148.05 2020.94,-118.84"/>
<polygon fill="black" stroke="black" points="2022.96,-115.97 2013.06,-112.2 2018.45,-121.32 2022.96,-115.97"/>
</g>
<!-- MATH0028 -->
<g id="node19" class="node">
<title>MATH0028</title>
<g id="a_node19"><a xlink:href="https://www.ucl.ac.uk/maths/sites/maths/files/math0028.pdf" xlink:title="Year 3, term 2">
<polygon fill="white" stroke="#cd3333" stroke-width="5" points="2451,-112 2236,-112 2236,-74 2451,-74 2451,-112"/>
<text text-anchor="middle" x="2343.5" y="-96.8" font-family="Times,serif" font-size="14.00">MATH0028</text>
<text text-anchor="middle" x="2343.5" y="-81.8" font-family="Times,serif" font-size="14.00">Combinatorial Optimisation</text>
</a>
</g>
</g>
<!-- MATH0014&#45;&gt;MATH0028 -->
<g id="edge27" class="edge">
<title>MATH0014&#45;&gt;MATH0028</title>
<path fill="none" stroke="black" d="M2186.81,-221.8C2218.65,-195.83 2277.23,-148.05 2313.04,-118.84"/>
<polygon fill="black" stroke="black" points="2315.66,-121.23 2321.19,-112.2 2311.23,-115.8 2315.66,-121.23"/>
</g>
<!-- MATH0013&#45;&gt;MATH0056 -->
<g id="edge11" class="edge">
<title>MATH0013&#45;&gt;MATH0056</title>
<path fill="none" stroke="black" d="M1365.02,-221.83C1352.96,-212.88 1338.25,-201.96 1325.23,-192.3"/>
<polygon fill="black" stroke="black" points="1327.09,-189.31 1316.97,-186.16 1322.91,-194.93 1327.09,-189.31"/>
</g>
<!-- MATH0013&#45;&gt;MATH0065 -->
<g id="edge40" class="edge">
<title>MATH0013&#45;&gt;MATH0065</title>
<path fill="none" stroke="black" d="M1274.99,-229.03C1120.44,-214.13 863.71,-188.99 859.5,-186 838.5,-171.09 827.46,-143.23 821.86,-122.06"/>
<polygon fill="black" stroke="black" points="825.25,-121.21 819.52,-112.3 818.45,-122.84 825.25,-121.21"/>
</g>
<!-- MATH0057&#45;&gt;MATH0031 -->
<g id="edge19" class="edge">
<title>MATH0057&#45;&gt;MATH0031</title>
<path fill="none" stroke="black" d="M997.28,-147.83C1012.37,-138.62 1030.88,-127.33 1047.03,-117.47"/>
<polygon fill="black" stroke="black" points="1049.02,-120.36 1055.73,-112.16 1045.37,-114.38 1049.02,-120.36"/>
</g>
<!-- MATH0057&#45;&gt;MATH0114 -->
<g id="edge26" class="edge">
<title>MATH0057&#45;&gt;MATH0114</title>
<path fill="none" stroke="black" stroke-dasharray="5,2" d="M1066.68,-157.45C1104.2,-154.32 1147.31,-150.85 1186.5,-148 1436.33,-129.85 1501.57,-129.69 1754.58,-112.13"/>
<polygon fill="black" stroke="black" points="1755.08,-115.6 1764.82,-111.42 1754.6,-108.62 1755.08,-115.6"/>
</g>
<!-- MATH0057&#45;&gt;MATH0102 -->
<g id="edge35" class="edge">
<title>MATH0057&#45;&gt;MATH0102</title>
<path fill="none" stroke="black" stroke-dasharray="5,2" d="M968.18,-147.88C968.01,-127.84 964.88,-95.56 948.5,-74 938.44,-60.75 924.2,-50.48 909.45,-42.62"/>
<polygon fill="black" stroke="black" points="910.74,-39.36 900.23,-38.04 907.63,-45.63 910.74,-39.36"/>
</g>
<!-- MATH0058&#45;&gt;MATH0033 -->
<g id="edge17" class="edge">
<title>MATH0058&#45;&gt;MATH0033</title>
<path fill="none" stroke="black" d="M1658.03,-147.83C1659.53,-140.13 1661.31,-130.97 1662.97,-122.42"/>
<polygon fill="black" stroke="black" points="1666.45,-122.9 1664.92,-112.41 1659.58,-121.56 1666.45,-122.9"/>
</g>
<!-- MATH0086 -->
<g id="node23" class="node">
<title>MATH0086</title>
<g id="a_node23"><a xlink:href="https://www.ucl.ac.uk/maths/sites/maths/files/math0086.pdf" xlink:title="Year 4, term 1">
<polygon fill="white" stroke="#1c86ee" stroke-width="5" points="1571,-112 1270,-112 1270,-74 1571,-74 1571,-112"/>
<text text-anchor="middle" x="1420.5" y="-96.8" font-family="Times,serif" font-size="14.00">MATH0086</text>
<text text-anchor="middle" x="1420.5" y="-81.8" font-family="Times,serif" font-size="14.00">Computational and Simulation Methods</text>
</a>
</g>
</g>
<!-- MATH0058&#45;&gt;MATH0086 -->
<g id="edge37" class="edge">
<title>MATH0058&#45;&gt;MATH0086</title>
<path fill="none" stroke="black" stroke-dasharray="5,2" d="M1595.75,-147.92C1563.35,-137.95 1522.94,-125.52 1489.09,-115.1"/>
<polygon fill="black" stroke="black" points="1489.86,-111.68 1479.27,-112.08 1487.8,-118.37 1489.86,-111.68"/>
</g>
<!-- MATH0056&#45;&gt;MATH0102 -->
<g id="edge32" class="edge">
<title>MATH0056&#45;&gt;MATH0102</title>
<path fill="none" stroke="black" stroke-dasharray="5,2" d="M1277,-147.75C1257.68,-126.33 1222.54,-91.51 1184.5,-74 1145.62,-56.11 1044.02,-41.38 961.77,-31.84"/>
<polygon fill="black" stroke="black" points="961.91,-28.34 951.58,-30.68 961.12,-35.29 961.91,-28.34"/>
</g>
<!-- MATH0056&#45;&gt;MATH0086 -->
<g id="edge36" class="edge">
<title>MATH0056&#45;&gt;MATH0086</title>
<path fill="none" stroke="black" d="M1324.8,-147.83C1341.32,-138.54 1361.62,-127.12 1379.26,-117.2"/>
<polygon fill="black" stroke="black" points="1381.21,-120.12 1388.21,-112.16 1377.78,-114.01 1381.21,-120.12"/>
</g>
<!-- MATH0030&#45;&gt;MATH0117 -->
<g id="edge28" class="edge">
<title>MATH0030&#45;&gt;MATH0117</title>
<path fill="none" stroke="black" d="M380.49,-73.92C411.79,-64 450.79,-51.63 483.54,-41.24"/>
<polygon fill="black" stroke="black" points="485.01,-44.44 493.49,-38.08 482.9,-37.77 485.01,-44.44"/>
</g>
<!-- MATH0031&#45;&gt;MATH0102 -->
<g id="edge33" class="edge">
<title>MATH0031&#45;&gt;MATH0102</title>
<path fill="none" stroke="black" stroke-dasharray="5,2" d="M1024.75,-73.92C991.09,-63.91 949.08,-51.41 913.98,-40.97"/>
<polygon fill="black" stroke="black" points="914.86,-37.58 904.28,-38.08 912.87,-44.29 914.86,-37.58"/>
</g>
<!-- MATH0031&#45;&gt;MATH0088 -->
<g id="edge42" class="edge">
<title>MATH0031&#45;&gt;MATH0088</title>
<path fill="none" stroke="black" stroke-dasharray="5,2" d="M1108.46,-73.83C1119.67,-64.96 1133.32,-54.16 1145.44,-44.57"/>
<polygon fill="black" stroke="black" points="1147.87,-47.11 1153.54,-38.16 1143.53,-41.62 1147.87,-47.11"/>
</g>
<!-- MATH0065&#45;&gt;MATH0102 -->
<g id="edge34" class="edge">
<title>MATH0065&#45;&gt;MATH0102</title>
<path fill="none" stroke="black" stroke-dasharray="5,2" d="M823.31,-73.83C826.26,-65.96 829.79,-56.57 833.06,-47.85"/>
<polygon fill="black" stroke="black" points="836.36,-49.01 836.6,-38.41 829.81,-46.55 836.36,-49.01"/>
</g>
</g>
</svg>
