<?xml version="1.0" encoding="UTF-8" standalone="no"?>
<!DOCTYPE svg PUBLIC "-//W3C//DTD SVG 1.1//EN"
 "http://www.w3.org/Graphics/SVG/1.1/DTD/svg11.dtd">
<!-- Generated by graphviz version 14.0.5 (0)
 -->
<!-- Pages: 1 -->
<svg width="2031pt" height="434pt"
 viewBox="0.00 0.00 2031.00 434.00" xmlns="http://www.w3.org/2000/svg" xmlns:xlink="http://www.w3.org/1999/xlink">
<g id="graph0" class="graph" transform="scale(1 1) rotate(0) translate(4 430)">
<polygon fill="white" stroke="none" points="-4,4 -4,-430 2026.75,-430 2026.75,4 -4,4"/>
<!-- MATH0010 -->
<g id="node1" class="node">
<title>MATH0010</title>
<g id="a_node1"><a xlink:href="https://www.ucl.ac.uk/mathematical-physical-sciences/sites/mathematical_physical_sciences/files/math0010.pdf" xlink:title="Year 1, term 1">
<polygon fill="white" stroke="#ffb90f" stroke-width="5" points="475.25,-426 321.25,-426 321.25,-385 475.25,-385 475.25,-426"/>
<text xml:space="preserve" text-anchor="middle" x="398.25" y="-408.7" font-family="Times,serif" font-size="14.00">MATH0010</text>
<text xml:space="preserve" text-anchor="middle" x="398.25" y="-392.2" font-family="Times,serif" font-size="14.00">Mathematical Methods 1</text>
</a>
</g>
</g>
<!-- MATH0011 -->
<g id="node6" class="node">
<title>MATH0011</title>
<g id="a_node6"><a xlink:href="https://www.ucl.ac.uk/mathematical-physical-sciences/sites/mathematical_physical_sciences/files/math0011_3.pdf" xlink:title="Year 1, term 2">
<polygon fill="white" stroke="#cd950c" stroke-width="5" points="602.25,-349 448.25,-349 448.25,-308 602.25,-308 602.25,-349"/>
<text xml:space="preserve" text-anchor="middle" x="525.25" y="-331.7" font-family="Times,serif" font-size="14.00">MATH0011</text>
<text xml:space="preserve" text-anchor="middle" x="525.25" y="-315.2" font-family="Times,serif" font-size="14.00">Mathematical Methods 2</text>
</a>
</g>
</g>
<!-- MATH0010&#45;&gt;MATH0011 -->
<g id="edge2" class="edge">
<title>MATH0010&#45;&gt;MATH0011</title>
<g id="a_edge2"><a xlink:title="required prerequisite">
<path fill="none" stroke="black" d="M435.33,-382.61C448.89,-374.6 464.41,-365.43 478.69,-356.99"/>
<polygon fill="black" stroke="black" points="480.21,-360.16 487.05,-352.06 476.65,-354.13 480.21,-360.16"/>
</a>
</g>
</g>
<!-- MATH0058 -->
<g id="node11" class="node">
<title>MATH0058</title>
<g id="a_node11"><a xlink:href="https://www.ucl.ac.uk/mathematical-physical-sciences/sites/mathematical_physical_sciences/files/math0058.pdf" xlink:title="Year 2 or 3, term 2">
<polygon fill="white" stroke="#8ee5ee" stroke-width="5" points="1393.62,-195 1244.88,-195 1244.88,-154 1393.62,-154 1393.62,-195"/>
<text xml:space="preserve" text-anchor="middle" x="1319.25" y="-177.7" font-family="Times,serif" font-size="14.00">MATH0058</text>
<text xml:space="preserve" text-anchor="middle" x="1319.25" y="-161.2" font-family="Times,serif" font-size="14.00">Computational Methods</text>
</a>
</g>
</g>
<!-- MATH0010&#45;&gt;MATH0058 -->
<g id="edge8" class="edge">
<title>MATH0010&#45;&gt;MATH0058</title>
<g id="a_edge8"><a xlink:title="required prerequisite">
<path fill="none" stroke="black" d="M477.36,-401.85C594.88,-396.91 822.15,-383.45 1012.25,-349 1139.25,-325.99 1200.78,-363.06 1292.25,-272 1308.92,-255.4 1315.51,-229.42 1318.02,-208.59"/>
<polygon fill="black" stroke="black" points="1321.49,-209.13 1318.92,-198.85 1314.52,-208.49 1321.49,-209.13"/>
</a>
</g>
</g>
<!-- MATH0030 -->
<g id="node14" class="node">
<title>MATH0030</title>
<g id="a_node14"><a xlink:href="https://www.ucl.ac.uk/mathematical-physical-sciences/sites/mathematical_physical_sciences/files/math0030.pdf" xlink:title="Year 3, term 1">
<polygon fill="white" stroke="#ff4040" stroke-width="5" points="140.5,-118 0,-118 0,-77 140.5,-77 140.5,-118"/>
<text xml:space="preserve" text-anchor="middle" x="70.25" y="-100.7" font-family="Times,serif" font-size="14.00">MATH0030</text>
<text xml:space="preserve" text-anchor="middle" x="70.25" y="-84.2" font-family="Times,serif" font-size="14.00">Mathematical Ecology</text>
</a>
</g>
</g>
<!-- MATH0010&#45;&gt;MATH0030 -->
<g id="edge13" class="edge">
<title>MATH0010&#45;&gt;MATH0030</title>
<g id="a_edge13"><a xlink:title="required prerequisite">
<path fill="none" stroke="black" d="M318.89,-394.94C257.23,-386 178.29,-370.75 154.25,-349 91.01,-291.78 75.32,-185.53 71.47,-131.66"/>
<polygon fill="black" stroke="black" points="74.98,-131.66 70.88,-121.89 67.99,-132.09 74.98,-131.66"/>
</a>
</g>
</g>
<!-- MATH0102 -->
<g id="node20" class="node">
<title>MATH0102</title>
<g id="a_node20"><a xlink:href="https://www.ucl.ac.uk/mathematical-physical-sciences/sites/mathematical_physical_sciences/files/math0102.pdf" xlink:title="Year 3 or 4, term 2">
<polygon fill="white" stroke="#cd1076" stroke-width="5" points="655.5,-41 485,-41 485,0 655.5,0 655.5,-41"/>
<text xml:space="preserve" text-anchor="middle" x="570.25" y="-23.7" font-family="Times,serif" font-size="14.00">MATH0102</text>
<text xml:space="preserve" text-anchor="middle" x="570.25" y="-7.2" font-family="Times,serif" font-size="14.00">Applied Stochastic Methods</text>
</a>
</g>
</g>
<!-- MATH0010&#45;&gt;MATH0102 -->
<g id="edge28" class="edge">
<title>MATH0010&#45;&gt;MATH0102</title>
<g id="a_edge28"><a xlink:title="required prerequisite">
<path fill="none" stroke="black" d="M318.77,-386.74C252.29,-366.63 168.25,-326.57 168.25,-252.5 168.25,-252.5 168.25,-252.5 168.25,-173.5 168.25,-129.79 155.57,-107.12 187.25,-77 207.6,-57.65 364.67,-39.91 471.24,-29.92"/>
<polygon fill="black" stroke="black" points="471.54,-33.41 481.17,-29 470.89,-26.44 471.54,-33.41"/>
</a>
</g>
</g>
<!-- MATH0065 -->
<g id="node21" class="node">
<title>MATH0065</title>
<g id="a_node21"><a xlink:href="https://www.ucl.ac.uk/mathematical-physical-sciences/sites/mathematical_physical_sciences/files/math0065.pdf" xlink:title="Year 4, term 1">
<polygon fill="white" stroke="#1c86ee" stroke-width="5" points="592.25,-118 396.25,-118 396.25,-77 592.25,-77 592.25,-118"/>
<text xml:space="preserve" text-anchor="middle" x="494.25" y="-100.7" font-family="Times,serif" font-size="14.00">MATH0065</text>
<text xml:space="preserve" text-anchor="middle" x="494.25" y="-84.2" font-family="Times,serif" font-size="14.00">Advanced Modelling Techniques</text>
</a>
</g>
</g>
<!-- MATH0010&#45;&gt;MATH0065 -->
<g id="edge36" class="edge">
<title>MATH0010&#45;&gt;MATH0065</title>
<g id="a_edge36"><a xlink:title="required prerequisite">
<path fill="none" stroke="black" d="M405,-382.98C421.55,-330.22 464.24,-194.14 483.97,-131.26"/>
<polygon fill="black" stroke="black" points="487.27,-132.44 486.93,-121.85 480.59,-130.34 487.27,-132.44"/>
</a>
</g>
</g>
<!-- MATH0082 -->
<g id="node24" class="node">
<title>MATH0082</title>
<g id="a_node24"><a xlink:href="https://www.ucl.ac.uk/mathematical-physical-sciences/sites/mathematical_physical_sciences/files/math0082.pdf" xlink:title="Year 4, term 2">
<polygon fill="white" stroke="#1874cd" stroke-width="5" points="2022.75,-41 1757.75,-41 1757.75,0 2022.75,0 2022.75,-41"/>
<text xml:space="preserve" text-anchor="middle" x="1890.25" y="-23.7" font-family="Times,serif" font-size="14.00">MATH0082</text>
<text xml:space="preserve" text-anchor="middle" x="1890.25" y="-7.2" font-family="Times,serif" font-size="14.00">Evolutionary Games and Population Genetics</text>
</a>
</g>
</g>
<!-- MATH0010&#45;&gt;MATH0082 -->
<g id="edge42" class="edge">
<title>MATH0010&#45;&gt;MATH0082</title>
<g id="a_edge42"><a xlink:title="required prerequisite">
<path fill="none" stroke="black" d="M477.5,-386.07C517.85,-376.13 567.49,-363.03 611.25,-349 702.34,-319.78 723.48,-307.67 812.25,-272 957.59,-213.6 1006.72,-215.57 1129.25,-118 1148.69,-102.52 1144.88,-87.81 1167.25,-77 1217.71,-52.63 1547.69,-35.31 1743.99,-27.03"/>
<polygon fill="black" stroke="black" points="1743.91,-30.53 1753.75,-26.62 1743.61,-23.54 1743.91,-30.53"/>
</a>
</g>
</g>
<!-- MATH0003 -->
<g id="node2" class="node">
<title>MATH0003</title>
<g id="a_node2"><a xlink:href="https://www.ucl.ac.uk/mathematical-physical-sciences/sites/mathematical_physical_sciences/files/2025-09/math0003.pdf" xlink:title="Year 1, term 1">
<polygon fill="white" stroke="#ffb90f" stroke-width="5" points="1481.25,-426 1399.25,-426 1399.25,-385 1481.25,-385 1481.25,-426"/>
<text xml:space="preserve" text-anchor="middle" x="1440.25" y="-408.7" font-family="Times,serif" font-size="14.00">MATH0003</text>
<text xml:space="preserve" text-anchor="middle" x="1440.25" y="-392.2" font-family="Times,serif" font-size="14.00">Analysis 1</text>
</a>
</g>
</g>
<!-- MATH0004 -->
<g id="node7" class="node">
<title>MATH0004</title>
<g id="a_node7"><a xlink:href="https://www.ucl.ac.uk/mathematical-physical-sciences/sites/mathematical_physical_sciences/files/math0004.pdf" xlink:title="Year 1, term 2">
<polygon fill="white" stroke="#cd950c" stroke-width="5" points="1426.25,-349 1344.25,-349 1344.25,-308 1426.25,-308 1426.25,-349"/>
<text xml:space="preserve" text-anchor="middle" x="1385.25" y="-331.7" font-family="Times,serif" font-size="14.00">MATH0004</text>
<text xml:space="preserve" text-anchor="middle" x="1385.25" y="-315.2" font-family="Times,serif" font-size="14.00">Analysis 2</text>
</a>
</g>
</g>
<!-- MATH0003&#45;&gt;MATH0004 -->
<g id="edge3" class="edge">
<title>MATH0003&#45;&gt;MATH0004</title>
<g id="a_edge3"><a xlink:title="required prerequisite">
<path fill="none" stroke="black" d="M1424.34,-382.81C1419.26,-375.87 1413.52,-368.05 1408.05,-360.58"/>
<polygon fill="black" stroke="black" points="1410.94,-358.62 1402.21,-352.62 1405.3,-362.76 1410.94,-358.62"/>
</a>
</g>
</g>
<!-- MATH0013 -->
<g id="node10" class="node">
<title>MATH0013</title>
<g id="a_node10"><a xlink:href="https://www.ucl.ac.uk/mathematical-physical-sciences/sites/mathematical_physical_sciences/files/2025-09/math0013_0.pdf" xlink:title="Year 2, term 1">
<polygon fill="white" stroke="#00ff00" stroke-width="5" points="1250.38,-272 1064.12,-272 1064.12,-231 1250.38,-231 1250.38,-272"/>
<text xml:space="preserve" text-anchor="middle" x="1157.25" y="-254.7" font-family="Times,serif" font-size="14.00">MATH0013</text>
<text xml:space="preserve" text-anchor="middle" x="1157.25" y="-238.2" font-family="Times,serif" font-size="14.00">Analysis 3 &#45; Complex Analysis</text>
</a>
</g>
</g>
<!-- MATH0003&#45;&gt;MATH0013 -->
<g id="edge6" class="edge">
<title>MATH0003&#45;&gt;MATH0013</title>
<g id="a_edge6"><a xlink:title="required prerequisite">
<path fill="none" stroke="black" d="M1398.55,-382.59C1379.26,-372.42 1356.06,-360.14 1335.25,-349 1291.91,-325.8 1242.8,-299.15 1207.16,-279.74"/>
<polygon fill="black" stroke="black" points="1209.27,-276.9 1198.81,-275.19 1205.92,-283.05 1209.27,-276.9"/>
</a>
</g>
</g>
<!-- MATH0114 -->
<g id="node18" class="node">
<title>MATH0114</title>
<g id="a_node18"><a xlink:href="https://www.ucl.ac.uk/mathematical-physical-sciences/sites/mathematical_physical_sciences/files/math0114_1.pdf" xlink:title="Year 3, term 2">
<polygon fill="white" stroke="#cd3333" stroke-width="5" points="1674.38,-118 1320.12,-118 1320.12,-77 1674.38,-77 1674.38,-118"/>
<text xml:space="preserve" text-anchor="middle" x="1497.25" y="-100.7" font-family="Times,serif" font-size="14.00">MATH0114</text>
<text xml:space="preserve" text-anchor="middle" x="1497.25" y="-84.2" font-family="Times,serif" font-size="14.00">Mathematics for Machine Learning and Artificial Intelligence</text>
</a>
</g>
</g>
<!-- MATH0003&#45;&gt;MATH0114 -->
<g id="edge19" class="edge">
<title>MATH0003&#45;&gt;MATH0114</title>
<g id="a_edge19"><a xlink:title="required prerequisite">
<path fill="none" stroke="black" d="M1444.26,-382.98C1454.07,-330.33 1479.33,-194.71 1491.08,-131.65"/>
<polygon fill="black" stroke="black" points="1494.5,-132.36 1492.89,-121.89 1487.62,-131.08 1494.5,-132.36"/>
</a>
</g>
</g>
<!-- MATH0003&#45;&gt;MATH0082 -->
<g id="edge43" class="edge">
<title>MATH0003&#45;&gt;MATH0082</title>
<g id="a_edge43"><a xlink:title="required prerequisite">
<path fill="none" stroke="black" d="M1483.53,-397.3C1552.54,-383.84 1688.45,-348.95 1774.25,-272 1834.47,-217.99 1841.38,-193.17 1871.25,-118 1879.31,-97.73 1884.05,-73.66 1886.79,-54.63"/>
<polygon fill="black" stroke="black" points="1890.26,-55.09 1888.08,-44.73 1883.32,-54.19 1890.26,-55.09"/>
</a>
</g>
</g>
<!-- MATH0005 -->
<g id="node3" class="node">
<title>MATH0005</title>
<g id="a_node3"><a xlink:href="https://www.ucl.ac.uk/mathematical-physical-sciences/sites/mathematical_physical_sciences/files/2025-09/math0005 syllabus.pdf" xlink:title="Year 1, term 1">
<polygon fill="white" stroke="#ffb90f" stroke-width="5" points="1736.25,-426 1654.25,-426 1654.25,-385 1736.25,-385 1736.25,-426"/>
<text xml:space="preserve" text-anchor="middle" x="1695.25" y="-408.7" font-family="Times,serif" font-size="14.00">MATH0005</text>
<text xml:space="preserve" text-anchor="middle" x="1695.25" y="-392.2" font-family="Times,serif" font-size="14.00">Algebra 1</text>
</a>
</g>
</g>
<!-- MATH0006 -->
<g id="node5" class="node">
<title>MATH0006</title>
<g id="a_node5"><a xlink:href="https://www.ucl.ac.uk/mathematical-physical-sciences/sites/mathematical_physical_sciences/files/math0006.pdf" xlink:title="Year 1, term 2">
<polygon fill="white" stroke="#cd950c" stroke-width="5" points="1607.25,-349 1525.25,-349 1525.25,-308 1607.25,-308 1607.25,-349"/>
<text xml:space="preserve" text-anchor="middle" x="1566.25" y="-331.7" font-family="Times,serif" font-size="14.00">MATH0006</text>
<text xml:space="preserve" text-anchor="middle" x="1566.25" y="-315.2" font-family="Times,serif" font-size="14.00">Algebra 2</text>
</a>
</g>
</g>
<!-- MATH0005&#45;&gt;MATH0006 -->
<g id="edge1" class="edge">
<title>MATH0005&#45;&gt;MATH0006</title>
<g id="a_edge1"><a xlink:title="required prerequisite">
<path fill="none" stroke="black" d="M1657.59,-382.61C1643.81,-374.6 1628.05,-365.43 1613.54,-356.99"/>
<polygon fill="black" stroke="black" points="1615.45,-354.05 1605.04,-352.05 1611.93,-360.11 1615.45,-354.05"/>
</a>
</g>
</g>
<!-- MATH0005&#45;&gt;MATH0114 -->
<g id="edge21" class="edge">
<title>MATH0005&#45;&gt;MATH0114</title>
<g id="a_edge21"><a xlink:title="required prerequisite">
<path fill="none" stroke="black" d="M1718.74,-382.72C1752.3,-348.88 1806.54,-282.24 1774.25,-231 1739.4,-175.7 1674.39,-142.98 1616.1,-123.89"/>
<polygon fill="black" stroke="black" points="1617.34,-120.61 1606.75,-120.94 1615.23,-127.28 1617.34,-120.61"/>
</a>
</g>
</g>
<!-- MATH0008 -->
<g id="node4" class="node">
<title>MATH0008</title>
<g id="a_node4"><a xlink:href="https://www.ucl.ac.uk/mathematical-physical-sciences/sites/mathematical_physical_sciences/files/math0008.pdf" xlink:title="Year 1, term 1">
<polygon fill="white" stroke="#ffb90f" stroke-width="5" points="1995.5,-426 1861,-426 1861,-385 1995.5,-385 1995.5,-426"/>
<text xml:space="preserve" text-anchor="middle" x="1928.25" y="-408.7" font-family="Times,serif" font-size="14.00">MATH0008</text>
<text xml:space="preserve" text-anchor="middle" x="1928.25" y="-392.2" font-family="Times,serif" font-size="14.00">Applied Mathematics</text>
</a>
</g>
</g>
<!-- MATH0008&#45;&gt;MATH0082 -->
<g id="edge41" class="edge">
<title>MATH0008&#45;&gt;MATH0082</title>
<g id="a_edge41"><a xlink:title="required prerequisite">
<path fill="none" stroke="black" d="M1928.25,-382.6C1928.25,-353.06 1928.25,-298.81 1928.25,-252.5 1928.25,-252.5 1928.25,-252.5 1928.25,-173.5 1928.25,-131.23 1914.24,-84.26 1903.24,-53.88"/>
<polygon fill="black" stroke="black" points="1906.66,-53.04 1899.88,-44.89 1900.1,-55.49 1906.66,-53.04"/>
</a>
</g>
</g>
<!-- MATH0014 -->
<g id="node8" class="node">
<title>MATH0014</title>
<g id="a_node8"><a xlink:href="https://www.ucl.ac.uk/mathematical-physical-sciences/sites/mathematical_physical_sciences/files/2025-09/math0014_0.pdf" xlink:title="Year 2, term 1">
<polygon fill="white" stroke="#00ff00" stroke-width="5" points="1765.62,-272 1562.88,-272 1562.88,-231 1765.62,-231 1765.62,-272"/>
<text xml:space="preserve" text-anchor="middle" x="1664.25" y="-254.7" font-family="Times,serif" font-size="14.00">MATH0014</text>
<text xml:space="preserve" text-anchor="middle" x="1664.25" y="-238.2" font-family="Times,serif" font-size="14.00">Algebra 3: Further Linear Algebra</text>
</a>
</g>
</g>
<!-- MATH0006&#45;&gt;MATH0014 -->
<g id="edge4" class="edge">
<title>MATH0006&#45;&gt;MATH0014</title>
<g id="a_edge4"><a xlink:title="required prerequisite">
<path fill="none" stroke="black" d="M1594.86,-305.61C1604.82,-297.98 1616.15,-289.31 1626.73,-281.22"/>
<polygon fill="black" stroke="black" points="1628.76,-284.07 1634.57,-275.21 1624.5,-278.51 1628.76,-284.07"/>
</a>
</g>
</g>
<!-- MATH0006&#45;&gt;MATH0058 -->
<g id="edge9" class="edge">
<title>MATH0006&#45;&gt;MATH0058</title>
<g id="a_edge9"><a xlink:title="required prerequisite">
<path fill="none" stroke="black" d="M1522.78,-310.36C1499.19,-300.37 1469.9,-286.84 1445.25,-272 1412.03,-252.01 1377.26,-224.83 1352.68,-204.42"/>
<polygon fill="black" stroke="black" points="1355.18,-201.95 1345.27,-198.2 1350.68,-207.31 1355.18,-201.95"/>
</a>
</g>
</g>
<!-- MATH0033 -->
<g id="node15" class="node">
<title>MATH0033</title>
<g id="a_node15"><a xlink:href="https://www.ucl.ac.uk/mathematical-physical-sciences/sites/mathematical_physical_sciences/files/math0033.pdf" xlink:title="Year 3, term 1">
<polygon fill="white" stroke="#ff4040" stroke-width="5" points="1302,-118 1176.5,-118 1176.5,-77 1302,-77 1302,-118"/>
<text xml:space="preserve" text-anchor="middle" x="1239.25" y="-100.7" font-family="Times,serif" font-size="14.00">MATH0033</text>
<text xml:space="preserve" text-anchor="middle" x="1239.25" y="-84.2" font-family="Times,serif" font-size="14.00">Numerical Methods</text>
</a>
</g>
</g>
<!-- MATH0006&#45;&gt;MATH0033 -->
<g id="edge14" class="edge">
<title>MATH0006&#45;&gt;MATH0033</title>
<g id="a_edge14"><a xlink:title="required prerequisite">
<path fill="none" stroke="black" d="M1551.14,-305.61C1524.91,-269.15 1467.47,-195.88 1402.25,-154 1387.09,-144.27 1350.07,-131.39 1315.14,-120.5"/>
<polygon fill="black" stroke="black" points="1316.43,-117.23 1305.84,-117.63 1314.36,-123.92 1316.43,-117.23"/>
</a>
</g>
</g>
<!-- MATH0006&#45;&gt;MATH0114 -->
<g id="edge22" class="edge">
<title>MATH0006&#45;&gt;MATH0114</title>
<g id="a_edge22"><a xlink:title="required prerequisite">
<path fill="none" stroke="black" d="M1559.63,-305.54C1547.45,-265.11 1521.41,-178.67 1507.12,-131.27"/>
<polygon fill="black" stroke="black" points="1510.52,-130.41 1504.28,-121.84 1503.82,-132.42 1510.52,-130.41"/>
</a>
</g>
</g>
<!-- MATH0016 -->
<g id="node9" class="node">
<title>MATH0016</title>
<g id="a_node9"><a xlink:href="https://www.ucl.ac.uk/mathematical-physical-sciences/sites/mathematical_physical_sciences/files/2025-09/math0016_0.pdf" xlink:title="Year 2, term 1">
<polygon fill="white" stroke="#00ff00" stroke-width="5" points="803.25,-272 649.25,-272 649.25,-231 803.25,-231 803.25,-272"/>
<text xml:space="preserve" text-anchor="middle" x="726.25" y="-254.7" font-family="Times,serif" font-size="14.00">MATH0016</text>
<text xml:space="preserve" text-anchor="middle" x="726.25" y="-238.2" font-family="Times,serif" font-size="14.00">Mathematical Methods 3</text>
</a>
</g>
</g>
<!-- MATH0011&#45;&gt;MATH0016 -->
<g id="edge5" class="edge">
<title>MATH0011&#45;&gt;MATH0016</title>
<g id="a_edge5"><a xlink:title="required prerequisite">
<path fill="none" stroke="black" d="M584.2,-305.5C606.9,-297.03 633.04,-287.28 656.65,-278.47"/>
<polygon fill="black" stroke="black" points="657.74,-281.8 665.88,-275.02 655.29,-275.24 657.74,-281.8"/>
</a>
</g>
</g>
<!-- MATH0057 -->
<g id="node13" class="node">
<title>MATH0057</title>
<g id="a_node13"><a xlink:href="https://www.ucl.ac.uk/mathematical-physical-sciences/sites/mathematical_physical_sciences/files/math0057.pdf" xlink:title="Year 2 or 3, term 2">
<polygon fill="white" stroke="#8ee5ee" stroke-width="5" points="698.12,-195 546.38,-195 546.38,-154 698.12,-154 698.12,-195"/>
<text xml:space="preserve" text-anchor="middle" x="622.25" y="-177.7" font-family="Times,serif" font-size="14.00">MATH0057</text>
<text xml:space="preserve" text-anchor="middle" x="622.25" y="-161.2" font-family="Times,serif" font-size="14.00">Probability and Statistics</text>
</a>
</g>
</g>
<!-- MATH0011&#45;&gt;MATH0057 -->
<g id="edge12" class="edge">
<title>MATH0011&#45;&gt;MATH0057</title>
<g id="a_edge12"><a xlink:title="required prerequisite">
<path fill="none" stroke="black" d="M539.15,-305.72C555.71,-279.76 583.52,-236.19 602.36,-206.67"/>
<polygon fill="black" stroke="black" points="605.13,-208.83 607.56,-198.51 599.23,-205.06 605.13,-208.83"/>
</a>
</g>
</g>
<!-- MATH0011&#45;&gt;MATH0033 -->
<g id="edge15" class="edge">
<title>MATH0011&#45;&gt;MATH0033</title>
<g id="a_edge15"><a xlink:title="required prerequisite">
<path fill="none" stroke="black" d="M604.51,-316.43C662.7,-307.28 743.29,-292.47 812.25,-272 949.35,-231.31 1103.14,-162.87 1183.5,-125.26"/>
<polygon fill="black" stroke="black" points="1184.94,-128.45 1192.5,-121.03 1181.96,-122.12 1184.94,-128.45"/>
</a>
</g>
</g>
<!-- MATH0026 -->
<g id="node16" class="node">
<title>MATH0026</title>
<g id="a_node16"><a xlink:href="https://www.ucl.ac.uk/mathematical-physical-sciences/sites/mathematical_physical_sciences/files/math0026.pdf" xlink:title="Year 3, term 1">
<polygon fill="white" stroke="#ff4040" stroke-width="5" points="301.88,-118 196.62,-118 196.62,-77 301.88,-77 301.88,-118"/>
<text xml:space="preserve" text-anchor="middle" x="249.25" y="-100.7" font-family="Times,serif" font-size="14.00">MATH0026</text>
<text xml:space="preserve" text-anchor="middle" x="249.25" y="-84.2" font-family="Times,serif" font-size="14.00">Biomathematics</text>
</a>
</g>
</g>
<!-- MATH0011&#45;&gt;MATH0026 -->
<g id="edge17" class="edge">
<title>MATH0011&#45;&gt;MATH0026</title>
<g id="a_edge17"><a xlink:title="required prerequisite">
<path fill="none" stroke="black" d="M456.53,-305.6C434.37,-296.92 410.36,-285.69 390.25,-272 335.02,-234.41 290.32,-168.94 266.96,-130.07"/>
<polygon fill="black" stroke="black" points="270.07,-128.46 261.98,-121.63 264.04,-132.02 270.07,-128.46"/>
</a>
</g>
</g>
<!-- MATH0011&#45;&gt;MATH0114 -->
<g id="edge23" class="edge">
<title>MATH0011&#45;&gt;MATH0114</title>
<g id="a_edge23"><a xlink:title="required prerequisite">
<path fill="none" stroke="black" d="M604.45,-324.38C789.69,-316.69 1237.23,-295.75 1259.25,-272 1295.58,-232.82 1202.63,-195.53 1236.25,-154 1247.2,-140.48 1274.2,-130.11 1306.88,-122.22"/>
<polygon fill="black" stroke="black" points="1307.24,-125.72 1316.2,-120.08 1305.67,-118.9 1307.24,-125.72"/>
</a>
</g>
</g>
<!-- MATH0011&#45;&gt;MATH0102 -->
<g id="edge29" class="edge">
<title>MATH0011&#45;&gt;MATH0102</title>
<g id="a_edge29"><a xlink:title="required prerequisite">
<path fill="none" stroke="black" d="M496.51,-305.55C440.97,-260.48 329.28,-155.17 387.25,-77 407.15,-50.17 439.68,-35.85 471.84,-28.36"/>
<polygon fill="black" stroke="black" points="472.16,-31.87 481.23,-26.39 470.72,-25.02 472.16,-31.87"/>
</a>
</g>
</g>
<!-- MATH0011&#45;&gt;MATH0065 -->
<g id="edge37" class="edge">
<title>MATH0011&#45;&gt;MATH0065</title>
<g id="a_edge37"><a xlink:title="required prerequisite">
<path fill="none" stroke="black" d="M521.11,-305.53C516.28,-279.31 508.31,-234.08 503.25,-195 500.54,-174.06 498.32,-150.45 496.77,-131.83"/>
<polygon fill="black" stroke="black" points="500.26,-131.59 495.96,-121.9 493.28,-132.15 500.26,-131.59"/>
</a>
</g>
</g>
<!-- MATH0004&#45;&gt;MATH0013 -->
<g id="edge7" class="edge">
<title>MATH0004&#45;&gt;MATH0013</title>
<g id="a_edge7"><a xlink:title="recommended prerequisite">
<path fill="none" stroke="black" stroke-dasharray="5,2" d="M1341.83,-313.22C1311.62,-303.28 1270.51,-289.76 1234.75,-277.99"/>
<polygon fill="black" stroke="black" points="1235.88,-274.68 1225.28,-274.88 1233.69,-281.33 1235.88,-274.68"/>
</a>
</g>
</g>
<!-- MATH0004&#45;&gt;MATH0114 -->
<g id="edge20" class="edge">
<title>MATH0004&#45;&gt;MATH0114</title>
<g id="a_edge20"><a xlink:title="required prerequisite">
<path fill="none" stroke="black" d="M1395.99,-305.54C1415.85,-264.93 1458.4,-177.94 1481.51,-130.67"/>
<polygon fill="black" stroke="black" points="1484.63,-132.27 1485.88,-121.75 1478.34,-129.2 1484.63,-132.27"/>
</a>
</g>
</g>
<!-- MATH0028 -->
<g id="node17" class="node">
<title>MATH0028</title>
<g id="a_node17"><a xlink:href="https://www.ucl.ac.uk/mathematical-physical-sciences/sites/mathematical_physical_sciences/files/math0028.pdf" xlink:title="Year 3, term 2">
<polygon fill="white" stroke="#cd3333" stroke-width="5" points="1862.12,-118 1692.38,-118 1692.38,-77 1862.12,-77 1862.12,-118"/>
<text xml:space="preserve" text-anchor="middle" x="1777.25" y="-100.7" font-family="Times,serif" font-size="14.00">MATH0028</text>
<text xml:space="preserve" text-anchor="middle" x="1777.25" y="-84.2" font-family="Times,serif" font-size="14.00">Combinatorial Optimisation</text>
</a>
</g>
</g>
<!-- MATH0014&#45;&gt;MATH0028 -->
<g id="edge18" class="edge">
<title>MATH0014&#45;&gt;MATH0028</title>
<g id="a_edge18"><a xlink:title="required prerequisite">
<path fill="none" stroke="black" d="M1680.44,-228.72C1699.82,-202.65 1732.41,-158.81 1754.37,-129.28"/>
<polygon fill="black" stroke="black" points="1757.03,-131.57 1760.19,-121.45 1751.41,-127.39 1757.03,-131.57"/>
</a>
</g>
</g>
<!-- MATH0014&#45;&gt;MATH0114 -->
<g id="edge24" class="edge">
<title>MATH0014&#45;&gt;MATH0114</title>
<g id="a_edge24"><a xlink:title="required prerequisite">
<path fill="none" stroke="black" d="M1640.32,-228.72C1611.26,-202.27 1562.12,-157.54 1529.67,-128.01"/>
<polygon fill="black" stroke="black" points="1532.27,-125.65 1522.52,-121.5 1527.56,-130.82 1532.27,-125.65"/>
</a>
</g>
</g>
<!-- MATH0056 -->
<g id="node12" class="node">
<title>MATH0056</title>
<g id="a_node12"><a xlink:href="https://www.ucl.ac.uk/mathematical-physical-sciences/sites/mathematical_physical_sciences/files/math0056.pdf" xlink:title="Year 2 or 3, term 2">
<polygon fill="white" stroke="#8ee5ee" stroke-width="5" points="986.25,-195 832.25,-195 832.25,-154 986.25,-154 986.25,-195"/>
<text xml:space="preserve" text-anchor="middle" x="909.25" y="-177.7" font-family="Times,serif" font-size="14.00">MATH0056</text>
<text xml:space="preserve" text-anchor="middle" x="909.25" y="-161.2" font-family="Times,serif" font-size="14.00">Mathematical Methods 4</text>
</a>
</g>
</g>
<!-- MATH0016&#45;&gt;MATH0056 -->
<g id="edge11" class="edge">
<title>MATH0016&#45;&gt;MATH0056</title>
<g id="a_edge11"><a xlink:title="required prerequisite">
<path fill="none" stroke="black" d="M779.67,-228.61C800.16,-220.21 823.75,-210.54 845.13,-201.78"/>
<polygon fill="black" stroke="black" points="846.43,-205.03 854.36,-198 843.78,-198.55 846.43,-205.03"/>
</a>
</g>
</g>
<!-- MATH0031 -->
<g id="node19" class="node">
<title>MATH0031</title>
<g id="a_node19"><a xlink:href="https://www.ucl.ac.uk/mathematical-physical-sciences/sites/mathematical_physical_sciences/files/math0031.pdf" xlink:title="Year 3, term 2">
<polygon fill="white" stroke="#cd3333" stroke-width="5" points="789.88,-118 648.62,-118 648.62,-77 789.88,-77 789.88,-118"/>
<text xml:space="preserve" text-anchor="middle" x="719.25" y="-100.7" font-family="Times,serif" font-size="14.00">MATH0031</text>
<text xml:space="preserve" text-anchor="middle" x="719.25" y="-84.2" font-family="Times,serif" font-size="14.00">Financial Mathematics</text>
</a>
</g>
</g>
<!-- MATH0016&#45;&gt;MATH0031 -->
<g id="edge26" class="edge">
<title>MATH0016&#45;&gt;MATH0031</title>
<g id="a_edge26"><a xlink:title="required prerequisite">
<path fill="none" stroke="black" d="M725.25,-228.72C724.08,-203.33 722.13,-161.07 720.77,-131.61"/>
<polygon fill="black" stroke="black" points="724.28,-131.58 720.32,-121.75 717.28,-131.9 724.28,-131.58"/>
</a>
</g>
</g>
<!-- MATH0117 -->
<g id="node22" class="node">
<title>MATH0117</title>
<g id="a_node22"><a xlink:href="https://www.ucl.ac.uk/mathematical-physical-sciences/sites/mathematical_physical_sciences/files/math0117.pdf" xlink:title="Year 3 or 4, term 2">
<polygon fill="white" stroke="#cd1076" stroke-width="5" points="309.38,-41 129.12,-41 129.12,0 309.38,0 309.38,-41"/>
<text xml:space="preserve" text-anchor="middle" x="219.25" y="-23.7" font-family="Times,serif" font-size="14.00">MATH0117</text>
<text xml:space="preserve" text-anchor="middle" x="219.25" y="-7.2" font-family="Times,serif" font-size="14.00">Spatial Mathematical Biology</text>
</a>
</g>
</g>
<!-- MATH0016&#45;&gt;MATH0117 -->
<g id="edge35" class="edge">
<title>MATH0016&#45;&gt;MATH0117</title>
<g id="a_edge35"><a xlink:title="required prerequisite">
<path fill="none" stroke="black" d="M646.95,-236.94C603.48,-227.99 549.23,-214.31 503.25,-195 410.9,-156.23 396.8,-129.09 311.25,-77 296.36,-67.94 280.09,-58.09 265.42,-49.25"/>
<polygon fill="black" stroke="black" points="267.23,-46.25 256.86,-44.09 263.61,-52.25 267.23,-46.25"/>
</a>
</g>
</g>
<!-- MATH0088 -->
<g id="node25" class="node">
<title>MATH0088</title>
<g id="a_node25"><a xlink:href="https://www.ucl.ac.uk/mathematical-physical-sciences/sites/mathematical_physical_sciences/files/math0088.pdf" xlink:title="Year 4, term 2">
<polygon fill="white" stroke="#1874cd" stroke-width="5" points="919.88,-41 682.62,-41 682.62,0 919.88,0 919.88,-41"/>
<text xml:space="preserve" text-anchor="middle" x="801.25" y="-23.7" font-family="Times,serif" font-size="14.00">MATH0088</text>
<text xml:space="preserve" text-anchor="middle" x="801.25" y="-7.2" font-family="Times,serif" font-size="14.00">Quantitative and Computational Finance</text>
</a>
</g>
</g>
<!-- MATH0016&#45;&gt;MATH0088 -->
<g id="edge44" class="edge">
<title>MATH0016&#45;&gt;MATH0088</title>
<g id="a_edge44"><a xlink:title="required prerequisite">
<path fill="none" stroke="black" d="M742.46,-228.95C760.28,-203.84 787.88,-160.36 799.25,-118 804.76,-97.46 805.3,-73.56 804.44,-54.69"/>
<polygon fill="black" stroke="black" points="807.95,-54.65 803.83,-44.89 800.96,-55.09 807.95,-54.65"/>
</a>
</g>
</g>
<!-- MATH0013&#45;&gt;MATH0056 -->
<g id="edge10" class="edge">
<title>MATH0013&#45;&gt;MATH0056</title>
<g id="a_edge10"><a xlink:title="required prerequisite">
<path fill="none" stroke="black" d="M1084.52,-228.5C1055.75,-219.8 1022.51,-209.75 992.77,-200.76"/>
<polygon fill="black" stroke="black" points="994.01,-197.48 983.43,-197.93 991.99,-204.18 994.01,-197.48"/>
</a>
</g>
</g>
<!-- MATH0013&#45;&gt;MATH0065 -->
<g id="edge38" class="edge">
<title>MATH0013&#45;&gt;MATH0065</title>
<g id="a_edge38"><a xlink:title="required prerequisite">
<path fill="none" stroke="black" d="M1061.7,-244.48C893.04,-233.51 558.24,-210 537.25,-195 516.5,-180.18 505.61,-153 499.99,-131.25"/>
<polygon fill="black" stroke="black" points="503.43,-130.59 497.78,-121.63 496.6,-132.16 503.43,-130.59"/>
</a>
</g>
</g>
<!-- MATH0058&#45;&gt;MATH0033 -->
<g id="edge16" class="edge">
<title>MATH0058&#45;&gt;MATH0033</title>
<g id="a_edge16"><a xlink:title="required prerequisite">
<path fill="none" stroke="black" d="M1296.11,-151.81C1288.22,-144.41 1279.26,-136.01 1270.82,-128.1"/>
<polygon fill="black" stroke="black" points="1273.41,-125.73 1263.72,-121.44 1268.62,-130.83 1273.41,-125.73"/>
</a>
</g>
</g>
<!-- MATH0086 -->
<g id="node23" class="node">
<title>MATH0086</title>
<g id="a_node23"><a xlink:href="https://www.ucl.ac.uk/mathematical-physical-sciences/sites/mathematical_physical_sciences/files/math0086.pdf" xlink:title="Year 4, term 1">
<polygon fill="white" stroke="#1c86ee" stroke-width="5" points="1120.12,-118 884.38,-118 884.38,-77 1120.12,-77 1120.12,-118"/>
<text xml:space="preserve" text-anchor="middle" x="1002.25" y="-100.7" font-family="Times,serif" font-size="14.00">MATH0086</text>
<text xml:space="preserve" text-anchor="middle" x="1002.25" y="-84.2" font-family="Times,serif" font-size="14.00">Computational and Simulation Methods</text>
</a>
</g>
</g>
<!-- MATH0058&#45;&gt;MATH0086 -->
<g id="edge40" class="edge">
<title>MATH0058&#45;&gt;MATH0086</title>
<g id="a_edge40"><a xlink:title="recommended prerequisite">
<path fill="none" stroke="black" stroke-dasharray="5,2" d="M1242.51,-155.34C1201.63,-145.67 1150.76,-133.64 1106.37,-123.13"/>
<polygon fill="black" stroke="black" points="1107.24,-119.74 1096.7,-120.85 1105.63,-126.56 1107.24,-119.74"/>
</a>
</g>
</g>
<!-- MATH0056&#45;&gt;MATH0102 -->
<g id="edge30" class="edge">
<title>MATH0056&#45;&gt;MATH0102</title>
<g id="a_edge30"><a xlink:title="recommended prerequisite">
<path fill="none" stroke="black" stroke-dasharray="5,2" d="M890.42,-151.69C870.12,-129.57 835.77,-95.97 799.25,-77 776.25,-65.06 719.92,-51.34 668.89,-40.53"/>
<polygon fill="black" stroke="black" points="669.74,-37.13 659.24,-38.51 668.31,-43.99 669.74,-37.13"/>
</a>
</g>
</g>
<!-- MATH0056&#45;&gt;MATH0086 -->
<g id="edge39" class="edge">
<title>MATH0056&#45;&gt;MATH0086</title>
<g id="a_edge39"><a xlink:title="required prerequisite">
<path fill="none" stroke="black" d="M936.15,-151.81C945.51,-144.25 956.18,-135.66 966.16,-127.6"/>
<polygon fill="black" stroke="black" points="968.32,-130.36 973.91,-121.35 963.93,-124.91 968.32,-130.36"/>
</a>
</g>
</g>
<!-- MATH0057&#45;&gt;MATH0114 -->
<g id="edge25" class="edge">
<title>MATH0057&#45;&gt;MATH0114</title>
<g id="a_edge25"><a xlink:title="recommended prerequisite">
<path fill="none" stroke="black" stroke-dasharray="5,2" d="M700.48,-165.49C737.66,-161.79 782.73,-157.46 823.25,-154 1036.24,-135.81 1092.72,-137.28 1306.77,-118.39"/>
<polygon fill="black" stroke="black" points="1306.93,-121.89 1316.58,-117.52 1306.31,-114.92 1306.93,-121.89"/>
</a>
</g>
</g>
<!-- MATH0057&#45;&gt;MATH0031 -->
<g id="edge27" class="edge">
<title>MATH0057&#45;&gt;MATH0031</title>
<g id="a_edge27"><a xlink:title="required prerequisite">
<path fill="none" stroke="black" d="M650.57,-151.61C660.43,-143.98 671.64,-135.31 682.11,-127.22"/>
<polygon fill="black" stroke="black" points="684.1,-130.1 689.87,-121.22 679.82,-124.57 684.1,-130.1"/>
</a>
</g>
</g>
<!-- MATH0057&#45;&gt;MATH0102 -->
<g id="edge33" class="edge">
<title>MATH0057&#45;&gt;MATH0102</title>
<g id="a_edge33"><a xlink:title="recommended prerequisite">
<path fill="none" stroke="black" stroke-dasharray="5,2" d="M619.36,-151.51C616.3,-131.6 610.6,-101.69 601.25,-77 598.24,-69.05 594.24,-60.86 590.11,-53.3"/>
<polygon fill="black" stroke="black" points="593.24,-51.71 585.24,-44.77 587.16,-55.19 593.24,-51.71"/>
</a>
</g>
</g>
<!-- MATH0030&#45;&gt;MATH0117 -->
<g id="edge34" class="edge">
<title>MATH0030&#45;&gt;MATH0117</title>
<g id="a_edge34"><a xlink:title="required prerequisite">
<path fill="none" stroke="black" d="M113.75,-74.61C130.05,-66.4 148.76,-56.98 165.85,-48.38"/>
<polygon fill="black" stroke="black" points="166.99,-51.72 174.35,-44.1 163.84,-45.47 166.99,-51.72"/>
</a>
</g>
</g>
<!-- MATH0031&#45;&gt;MATH0102 -->
<g id="edge31" class="edge">
<title>MATH0031&#45;&gt;MATH0102</title>
<g id="a_edge31"><a xlink:title="recommended prerequisite">
<path fill="none" stroke="black" stroke-dasharray="5,2" d="M675.75,-74.61C659.45,-66.4 640.74,-56.98 623.65,-48.38"/>
<polygon fill="black" stroke="black" points="625.66,-45.47 615.15,-44.1 622.51,-51.72 625.66,-45.47"/>
</a>
</g>
</g>
<!-- MATH0031&#45;&gt;MATH0088 -->
<g id="edge45" class="edge">
<title>MATH0031&#45;&gt;MATH0088</title>
<g id="a_edge45"><a xlink:title="recommended prerequisite">
<path fill="none" stroke="black" stroke-dasharray="5,2" d="M742.97,-74.81C751.06,-67.41 760.24,-59.01 768.89,-51.1"/>
<polygon fill="black" stroke="black" points="771.17,-53.76 776.18,-44.43 766.44,-48.59 771.17,-53.76"/>
</a>
</g>
</g>
<!-- MATH0065&#45;&gt;MATH0102 -->
<g id="edge32" class="edge">
<title>MATH0065&#45;&gt;MATH0102</title>
<g id="a_edge32"><a xlink:title="recommended prerequisite">
<path fill="none" stroke="black" stroke-dasharray="5,2" d="M516.23,-74.81C523.65,-67.49 532.07,-59.18 540.01,-51.34"/>
<polygon fill="black" stroke="black" points="542.32,-53.98 546.98,-44.47 537.4,-49 542.32,-53.98"/>
</a>
</g>
</g>
</g>
</svg>
