<?xml version="1.0" encoding="UTF-8" standalone="no"?>
<!DOCTYPE svg PUBLIC "-//W3C//DTD SVG 1.1//EN"
 "http://www.w3.org/Graphics/SVG/1.1/DTD/svg11.dtd">
<!-- Generated by graphviz version 13.1.2 (0)
 -->
<!-- Pages: 1 -->
<svg width="2452pt" height="443pt"
 viewBox="0.00 0.00 2452.00 443.00" xmlns="http://www.w3.org/2000/svg" xmlns:xlink="http://www.w3.org/1999/xlink">
<g id="graph0" class="graph" transform="scale(1 1) rotate(0) translate(4 439)">
<polygon fill="white" stroke="none" points="-4,4 -4,-439 2448.25,-439 2448.25,4 -4,4"/>
<!-- MATH0003 -->
<g id="node1" class="node">
<title>MATH0003</title>
<g id="a_node1"><a xlink:href="https://www.ucl.ac.uk/mathematical-physical-sciences/sites/mathematical_physical_sciences/files/math0003.pdf" xlink:title="Year 1, term 1">
<polygon fill="white" stroke="#ffb90f" stroke-width="5" points="456.75,-435 359.75,-435 359.75,-392.5 456.75,-392.5 456.75,-435"/>
<text xml:space="preserve" text-anchor="middle" x="408.25" y="-417.7" font-family="Times,serif" font-size="14.00">MATH0003</text>
<text xml:space="preserve" text-anchor="middle" x="408.25" y="-400.45" font-family="Times,serif" font-size="14.00">Analysis 1</text>
</a>
</g>
</g>
<!-- MATH0004 -->
<g id="node7" class="node">
<title>MATH0004</title>
<g id="a_node7"><a xlink:href="https://www.ucl.ac.uk/mathematical-physical-sciences/sites/mathematical_physical_sciences/files/math0004.pdf" xlink:title="Year 1, term 2">
<polygon fill="white" stroke="#cd950c" stroke-width="5" points="494.75,-356.5 397.75,-356.5 397.75,-314 494.75,-314 494.75,-356.5"/>
<text xml:space="preserve" text-anchor="middle" x="446.25" y="-339.2" font-family="Times,serif" font-size="14.00">MATH0004</text>
<text xml:space="preserve" text-anchor="middle" x="446.25" y="-321.95" font-family="Times,serif" font-size="14.00">Analysis 2</text>
</a>
</g>
</g>
<!-- MATH0003&#45;&gt;MATH0004 -->
<g id="edge3" class="edge">
<title>MATH0003&#45;&gt;MATH0004</title>
<g id="a_edge3"><a xlink:title="required prerequisite">
<path fill="none" stroke="black" d="M419.45,-390.21C422.74,-383.58 426.41,-376.18 429.96,-369.04"/>
<polygon fill="black" stroke="black" points="433.02,-370.76 434.33,-360.25 426.75,-367.65 433.02,-370.76"/>
</a>
</g>
</g>
<!-- MATH0013 -->
<g id="node8" class="node">
<title>MATH0013</title>
<g id="a_node8"><a xlink:href="https://www.ucl.ac.uk/mathematical-physical-sciences/sites/mathematical_physical_sciences/files/math0013.pdf" xlink:title="Year 2, term 1">
<polygon fill="white" stroke="#00ff00" stroke-width="5" points="489.38,-278 261.12,-278 261.12,-235.5 489.38,-235.5 489.38,-278"/>
<text xml:space="preserve" text-anchor="middle" x="375.25" y="-260.7" font-family="Times,serif" font-size="14.00">MATH0013</text>
<text xml:space="preserve" text-anchor="middle" x="375.25" y="-243.45" font-family="Times,serif" font-size="14.00">Analysis 3 &#45; Complex Analysis</text>
</a>
</g>
</g>
<!-- MATH0003&#45;&gt;MATH0013 -->
<g id="edge4" class="edge">
<title>MATH0003&#45;&gt;MATH0013</title>
<g id="a_edge4"><a xlink:title="required prerequisite">
<path fill="none" stroke="black" d="M399.51,-390.04C395.89,-379.9 391.92,-367.73 389.25,-356.5 384.18,-335.15 380.7,-310.75 378.47,-291.54"/>
<polygon fill="black" stroke="black" points="381.98,-291.39 377.42,-281.83 375.02,-292.15 381.98,-291.39"/>
</a>
</g>
</g>
<!-- MATH0114 -->
<g id="node19" class="node">
<title>MATH0114</title>
<g id="a_node19"><a xlink:href="https://www.ucl.ac.uk/mathematical-physical-sciences/sites/mathematical_physical_sciences/files/math0114_0.pdf" xlink:title="Year 3, term 2">
<polygon fill="white" stroke="#cd3333" stroke-width="5" points="1805.5,-121 1353,-121 1353,-78.5 1805.5,-78.5 1805.5,-121"/>
<text xml:space="preserve" text-anchor="middle" x="1579.25" y="-103.7" font-family="Times,serif" font-size="14.00">MATH0114</text>
<text xml:space="preserve" text-anchor="middle" x="1579.25" y="-86.45" font-family="Times,serif" font-size="14.00">Mathematics for Machine Learning and Artificial Intelligence</text>
</a>
</g>
</g>
<!-- MATH0003&#45;&gt;MATH0114 -->
<g id="edge21" class="edge">
<title>MATH0003&#45;&gt;MATH0114</title>
<g id="a_edge21"><a xlink:title="required prerequisite">
<path fill="none" stroke="black" d="M459.03,-412.35C648.58,-410.51 1308.06,-400.95 1390.25,-356.5 1482.18,-306.78 1541.5,-190.75 1566.17,-133.66"/>
<polygon fill="black" stroke="black" points="1569.25,-135.36 1569.92,-124.79 1562.8,-132.64 1569.25,-135.36"/>
</a>
</g>
</g>
<!-- MATH0082 -->
<g id="node25" class="node">
<title>MATH0082</title>
<g id="a_node25"><a xlink:href="https://www.ucl.ac.uk/mathematical-physical-sciences/sites/mathematical_physical_sciences/files/math0082.pdf" xlink:title="Year 4, term 2">
<polygon fill="white" stroke="#1874cd" stroke-width="5" points="338.5,-42.5 0,-42.5 0,0 338.5,0 338.5,-42.5"/>
<text xml:space="preserve" text-anchor="middle" x="169.25" y="-25.2" font-family="Times,serif" font-size="14.00">MATH0082</text>
<text xml:space="preserve" text-anchor="middle" x="169.25" y="-7.95" font-family="Times,serif" font-size="14.00">Evolutionary Games and Population Genetics</text>
</a>
</g>
</g>
<!-- MATH0003&#45;&gt;MATH0082 -->
<g id="edge45" class="edge">
<title>MATH0003&#45;&gt;MATH0082</title>
<g id="a_edge45"><a xlink:title="required prerequisite">
<path fill="none" stroke="black" d="M357.3,-405.53C301.21,-396.57 215.93,-379.58 193.25,-356.5 161.59,-324.28 169.25,-302.92 169.25,-257.75 169.25,-257.75 169.25,-257.75 169.25,-177.25 169.25,-135.49 169.25,-87.41 169.25,-56.01"/>
<polygon fill="black" stroke="black" points="172.75,-56.35 169.25,-46.35 165.75,-56.35 172.75,-56.35"/>
</a>
</g>
</g>
<!-- MATH0010 -->
<g id="node2" class="node">
<title>MATH0010</title>
<g id="a_node2"><a xlink:href="https://www.ucl.ac.uk/mathematical-physical-sciences/sites/mathematical_physical_sciences/files/math0010.pdf" xlink:title="Year 1, term 1">
<polygon fill="white" stroke="#ffb90f" stroke-width="5" points="1706.5,-435 1512,-435 1512,-392.5 1706.5,-392.5 1706.5,-435"/>
<text xml:space="preserve" text-anchor="middle" x="1609.25" y="-417.7" font-family="Times,serif" font-size="14.00">MATH0010</text>
<text xml:space="preserve" text-anchor="middle" x="1609.25" y="-400.45" font-family="Times,serif" font-size="14.00">Mathematical Methods 1</text>
</a>
</g>
</g>
<!-- MATH0011 -->
<g id="node5" class="node">
<title>MATH0011</title>
<g id="a_node5"><a xlink:href="https://www.ucl.ac.uk/mathematical-physical-sciences/sites/mathematical_physical_sciences/files/math0011_2.pdf" xlink:title="Year 1, term 2">
<polygon fill="white" stroke="#cd950c" stroke-width="5" points="1381.5,-356.5 1187,-356.5 1187,-314 1381.5,-314 1381.5,-356.5"/>
<text xml:space="preserve" text-anchor="middle" x="1284.25" y="-339.2" font-family="Times,serif" font-size="14.00">MATH0011</text>
<text xml:space="preserve" text-anchor="middle" x="1284.25" y="-321.95" font-family="Times,serif" font-size="14.00">Mathematical Methods 2</text>
</a>
</g>
</g>
<!-- MATH0010&#45;&gt;MATH0011 -->
<g id="edge1" class="edge">
<title>MATH0010&#45;&gt;MATH0011</title>
<g id="a_edge1"><a xlink:title="required prerequisite">
<path fill="none" stroke="black" d="M1512.62,-390C1474.65,-381.07 1430.9,-370.77 1391.92,-361.59"/>
<polygon fill="black" stroke="black" points="1392.8,-358.2 1382.26,-359.32 1391.19,-365.02 1392.8,-358.2"/>
</a>
</g>
</g>
<!-- MATH0058 -->
<g id="node12" class="node">
<title>MATH0058</title>
<g id="a_node12"><a xlink:href="https://www.ucl.ac.uk/mathematical-physical-sciences/sites/mathematical_physical_sciences/files/math0058.pdf" xlink:title="Year 2 or 3, term 2">
<polygon fill="white" stroke="#8ee5ee" stroke-width="5" points="2067.12,-199.5 1879.38,-199.5 1879.38,-157 2067.12,-157 2067.12,-199.5"/>
<text xml:space="preserve" text-anchor="middle" x="1973.25" y="-182.2" font-family="Times,serif" font-size="14.00">MATH0058</text>
<text xml:space="preserve" text-anchor="middle" x="1973.25" y="-164.95" font-family="Times,serif" font-size="14.00">Computational Methods</text>
</a>
</g>
</g>
<!-- MATH0010&#45;&gt;MATH0058 -->
<g id="edge10" class="edge">
<title>MATH0010&#45;&gt;MATH0058</title>
<g id="a_edge10"><a xlink:title="required prerequisite">
<path fill="none" stroke="black" d="M1708.79,-409.2C1759.56,-403.1 1819.97,-388.82 1865.25,-356.5 1915.65,-320.52 1947.05,-252.98 1962.25,-212.46"/>
<polygon fill="black" stroke="black" points="1965.48,-213.81 1965.59,-203.22 1958.9,-211.43 1965.48,-213.81"/>
</a>
</g>
</g>
<!-- MATH0030 -->
<g id="node16" class="node">
<title>MATH0030</title>
<g id="a_node16"><a xlink:href="https://www.ucl.ac.uk/mathematical-physical-sciences/sites/mathematical_physical_sciences/files/math0030.pdf" xlink:title="Year 3, term 1">
<polygon fill="white" stroke="#ff4040" stroke-width="5" points="2036.75,-121 1861.75,-121 1861.75,-78.5 2036.75,-78.5 2036.75,-121"/>
<text xml:space="preserve" text-anchor="middle" x="1949.25" y="-103.7" font-family="Times,serif" font-size="14.00">MATH0030</text>
<text xml:space="preserve" text-anchor="middle" x="1949.25" y="-86.45" font-family="Times,serif" font-size="14.00">Mathematical Ecology</text>
</a>
</g>
</g>
<!-- MATH0010&#45;&gt;MATH0030 -->
<g id="edge17" class="edge">
<title>MATH0010&#45;&gt;MATH0030</title>
<g id="a_edge17"><a xlink:title="required prerequisite">
<path fill="none" stroke="black" d="M1708.79,-397.48C1757.95,-387.94 1810.33,-374.12 1827.25,-356.5 1890.08,-291.09 1820.38,-232.76 1870.25,-157 1877.05,-146.66 1886.46,-137.63 1896.42,-129.99"/>
<polygon fill="black" stroke="black" points="1898.33,-132.93 1904.43,-124.26 1894.26,-127.23 1898.33,-132.93"/>
</a>
</g>
</g>
<!-- MATH0102 -->
<g id="node20" class="node">
<title>MATH0102</title>
<g id="a_node20"><a xlink:href="https://www.ucl.ac.uk/mathematical-physical-sciences/sites/mathematical_physical_sciences/files/math0102.pdf" xlink:title="Year 3 or 4, term 2">
<polygon fill="white" stroke="#cd1076" stroke-width="5" points="1297,-42.5 1081.5,-42.5 1081.5,0 1297,0 1297,-42.5"/>
<text xml:space="preserve" text-anchor="middle" x="1189.25" y="-25.2" font-family="Times,serif" font-size="14.00">MATH0102</text>
<text xml:space="preserve" text-anchor="middle" x="1189.25" y="-7.95" font-family="Times,serif" font-size="14.00">Applied Stochastic Methods</text>
</a>
</g>
</g>
<!-- MATH0010&#45;&gt;MATH0102 -->
<g id="edge28" class="edge">
<title>MATH0010&#45;&gt;MATH0102</title>
<g id="a_edge28"><a xlink:title="required prerequisite">
<path fill="none" stroke="black" d="M1642.2,-390.09C1721.22,-333.14 1908.17,-181.25 1814.25,-78.5 1797.51,-60.18 1487.84,-39.44 1310.81,-29"/>
<polygon fill="black" stroke="black" points="1311.05,-25.51 1300.86,-28.42 1310.64,-32.5 1311.05,-25.51"/>
</a>
</g>
</g>
<!-- MATH0065 -->
<g id="node21" class="node">
<title>MATH0065</title>
<g id="a_node21"><a xlink:href="https://www.ucl.ac.uk/mathematical-physical-sciences/sites/mathematical_physical_sciences/files/math0065.pdf" xlink:title="Year 4, term 1">
<polygon fill="white" stroke="#1c86ee" stroke-width="5" points="481,-121 235.5,-121 235.5,-78.5 481,-78.5 481,-121"/>
<text xml:space="preserve" text-anchor="middle" x="358.25" y="-103.7" font-family="Times,serif" font-size="14.00">MATH0065</text>
<text xml:space="preserve" text-anchor="middle" x="358.25" y="-86.45" font-family="Times,serif" font-size="14.00">Advanced Modelling Techniques</text>
</a>
</g>
</g>
<!-- MATH0010&#45;&gt;MATH0065 -->
<g id="edge38" class="edge">
<title>MATH0010&#45;&gt;MATH0065</title>
<g id="a_edge38"><a xlink:title="required prerequisite">
<path fill="none" stroke="black" d="M1509.78,-404.97C1292.77,-387.07 783.35,-339.7 622.25,-278 530.96,-243.03 439.64,-171.63 392.02,-130.93"/>
<polygon fill="black" stroke="black" points="394.37,-128.33 384.51,-124.45 389.79,-133.63 394.37,-128.33"/>
</a>
</g>
</g>
<!-- MATH0010&#45;&gt;MATH0082 -->
<g id="edge44" class="edge">
<title>MATH0010&#45;&gt;MATH0082</title>
<g id="a_edge44"><a xlink:title="required prerequisite">
<path fill="none" stroke="black" d="M1509.83,-410.72C1238.03,-404.82 495.72,-386.15 389.25,-356.5 300.6,-331.81 207.25,-349.78 207.25,-257.75 207.25,-257.75 207.25,-257.75 207.25,-177.25 207.25,-134.31 193.33,-86.56 182.33,-55.56"/>
<polygon fill="black" stroke="black" points="185.69,-54.54 178.97,-46.35 179.12,-56.95 185.69,-54.54"/>
</a>
</g>
</g>
<!-- MATH0005 -->
<g id="node3" class="node">
<title>MATH0005</title>
<g id="a_node3"><a xlink:href="https://www.ucl.ac.uk/mathematical-physical-sciences/sites/mathematical_physical_sciences/files/math0005.pdf" xlink:title="Year 1, term 1">
<polygon fill="white" stroke="#ffb90f" stroke-width="5" points="2059.75,-435 1962.75,-435 1962.75,-392.5 2059.75,-392.5 2059.75,-435"/>
<text xml:space="preserve" text-anchor="middle" x="2011.25" y="-417.7" font-family="Times,serif" font-size="14.00">MATH0005</text>
<text xml:space="preserve" text-anchor="middle" x="2011.25" y="-400.45" font-family="Times,serif" font-size="14.00">Algebra 1</text>
</a>
</g>
</g>
<!-- MATH0006 -->
<g id="node6" class="node">
<title>MATH0006</title>
<g id="a_node6"><a xlink:href="https://www.ucl.ac.uk/mathematical-physical-sciences/sites/mathematical_physical_sciences/files/math0006.pdf" xlink:title="Year 1, term 2">
<polygon fill="white" stroke="#cd950c" stroke-width="5" points="2143.75,-356.5 2046.75,-356.5 2046.75,-314 2143.75,-314 2143.75,-356.5"/>
<text xml:space="preserve" text-anchor="middle" x="2095.25" y="-339.2" font-family="Times,serif" font-size="14.00">MATH0006</text>
<text xml:space="preserve" text-anchor="middle" x="2095.25" y="-321.95" font-family="Times,serif" font-size="14.00">Algebra 2</text>
</a>
</g>
</g>
<!-- MATH0005&#45;&gt;MATH0006 -->
<g id="edge2" class="edge">
<title>MATH0005&#45;&gt;MATH0006</title>
<g id="a_edge2"><a xlink:title="required prerequisite">
<path fill="none" stroke="black" d="M2036,-390.21C2044.13,-382.81 2053.3,-374.45 2061.96,-366.57"/>
<polygon fill="black" stroke="black" points="2064.23,-369.23 2069.27,-359.91 2059.52,-364.06 2064.23,-369.23"/>
</a>
</g>
</g>
<!-- MATH0005&#45;&gt;MATH0114 -->
<g id="edge23" class="edge">
<title>MATH0005&#45;&gt;MATH0114</title>
<g id="a_edge23"><a xlink:title="required prerequisite">
<path fill="none" stroke="black" d="M1979.83,-390.06C1902.92,-334.51 1705.21,-191.72 1619.68,-129.95"/>
<polygon fill="black" stroke="black" points="1621.93,-127.26 1611.78,-124.24 1617.83,-132.93 1621.93,-127.26"/>
</a>
</g>
</g>
<!-- MATH0008 -->
<g id="node4" class="node">
<title>MATH0008</title>
<g id="a_node4"><a xlink:href="https://www.ucl.ac.uk/mathematical-physical-sciences/sites/mathematical_physical_sciences/files/math0008.pdf" xlink:title="Year 1, term 1">
<polygon fill="white" stroke="#ffb90f" stroke-width="5" points="215,-435 47.5,-435 47.5,-392.5 215,-392.5 215,-435"/>
<text xml:space="preserve" text-anchor="middle" x="131.25" y="-417.7" font-family="Times,serif" font-size="14.00">MATH0008</text>
<text xml:space="preserve" text-anchor="middle" x="131.25" y="-400.45" font-family="Times,serif" font-size="14.00">Applied Mathematics</text>
</a>
</g>
</g>
<!-- MATH0008&#45;&gt;MATH0082 -->
<g id="edge43" class="edge">
<title>MATH0008&#45;&gt;MATH0082</title>
<g id="a_edge43"><a xlink:title="required prerequisite">
<path fill="none" stroke="black" d="M131.25,-390.16C131.25,-359.98 131.25,-304.84 131.25,-257.75 131.25,-257.75 131.25,-257.75 131.25,-177.25 131.25,-134.31 145.17,-86.56 156.17,-55.56"/>
<polygon fill="black" stroke="black" points="159.38,-56.95 159.53,-46.35 152.81,-54.54 159.38,-56.95"/>
</a>
</g>
</g>
<!-- MATH0016 -->
<g id="node10" class="node">
<title>MATH0016</title>
<g id="a_node10"><a xlink:href="https://www.ucl.ac.uk/mathematical-physical-sciences/sites/mathematical_physical_sciences/files/math0016.pdf" xlink:title="Year 2, term 1">
<polygon fill="white" stroke="#00ff00" stroke-width="5" points="990.5,-278 796,-278 796,-235.5 990.5,-235.5 990.5,-278"/>
<text xml:space="preserve" text-anchor="middle" x="893.25" y="-260.7" font-family="Times,serif" font-size="14.00">MATH0016</text>
<text xml:space="preserve" text-anchor="middle" x="893.25" y="-243.45" font-family="Times,serif" font-size="14.00">Mathematical Methods 3</text>
</a>
</g>
</g>
<!-- MATH0011&#45;&gt;MATH0016 -->
<g id="edge7" class="edge">
<title>MATH0011&#45;&gt;MATH0016</title>
<g id="a_edge7"><a xlink:title="required prerequisite">
<path fill="none" stroke="black" d="M1184.57,-314.75C1129.42,-303.96 1060.76,-290.52 1003.94,-279.41"/>
<polygon fill="black" stroke="black" points="1004.72,-275.99 994.23,-277.51 1003.37,-282.86 1004.72,-275.99"/>
</a>
</g>
</g>
<!-- MATH0057 -->
<g id="node13" class="node">
<title>MATH0057</title>
<g id="a_node13"><a xlink:href="https://www.ucl.ac.uk/mathematical-physical-sciences/sites/mathematical_physical_sciences/files/math0057.pdf" xlink:title="Year 2 or 3, term 2">
<polygon fill="white" stroke="#8ee5ee" stroke-width="5" points="1297,-199.5 1099.5,-199.5 1099.5,-157 1297,-157 1297,-199.5"/>
<text xml:space="preserve" text-anchor="middle" x="1198.25" y="-182.2" font-family="Times,serif" font-size="14.00">MATH0057</text>
<text xml:space="preserve" text-anchor="middle" x="1198.25" y="-164.95" font-family="Times,serif" font-size="14.00">Probability and Statistics</text>
</a>
</g>
</g>
<!-- MATH0011&#45;&gt;MATH0057 -->
<g id="edge12" class="edge">
<title>MATH0011&#45;&gt;MATH0057</title>
<g id="a_edge12"><a xlink:title="required prerequisite">
<path fill="none" stroke="black" d="M1271.74,-311.71C1257.16,-285.42 1232.93,-241.76 1216.31,-211.79"/>
<polygon fill="black" stroke="black" points="1219.42,-210.19 1211.5,-203.14 1213.3,-213.58 1219.42,-210.19"/>
</a>
</g>
</g>
<!-- MATH0033 -->
<g id="node14" class="node">
<title>MATH0033</title>
<g id="a_node14"><a xlink:href="https://www.ucl.ac.uk/mathematical-physical-sciences/sites/mathematical_physical_sciences/files/math0033.pdf" xlink:title="Year 3, term 1">
<polygon fill="white" stroke="#ff4040" stroke-width="5" points="2211.75,-121 2054.75,-121 2054.75,-78.5 2211.75,-78.5 2211.75,-121"/>
<text xml:space="preserve" text-anchor="middle" x="2133.25" y="-103.7" font-family="Times,serif" font-size="14.00">MATH0033</text>
<text xml:space="preserve" text-anchor="middle" x="2133.25" y="-86.45" font-family="Times,serif" font-size="14.00">Numerical Methods</text>
</a>
</g>
</g>
<!-- MATH0011&#45;&gt;MATH0033 -->
<g id="edge14" class="edge">
<title>MATH0011&#45;&gt;MATH0033</title>
<g id="a_edge14"><a xlink:title="required prerequisite">
<path fill="none" stroke="black" d="M1351.8,-311.6C1460.27,-275.74 1680.39,-205.02 1870.25,-157 1944.18,-138.3 1966.29,-138.04 2041.68,-121.96"/>
<polygon fill="black" stroke="black" points="2042.17,-125.43 2051.21,-119.9 2040.7,-118.59 2042.17,-125.43"/>
</a>
</g>
</g>
<!-- MATH0026 -->
<g id="node15" class="node">
<title>MATH0026</title>
<g id="a_node15"><a xlink:href="https://www.ucl.ac.uk/mathematical-physical-sciences/sites/mathematical_physical_sciences/files/math0026.pdf" xlink:title="Year 3, term 1">
<polygon fill="white" stroke="#ff4040" stroke-width="5" points="631,-121 499.5,-121 499.5,-78.5 631,-78.5 631,-121"/>
<text xml:space="preserve" text-anchor="middle" x="565.25" y="-103.7" font-family="Times,serif" font-size="14.00">MATH0026</text>
<text xml:space="preserve" text-anchor="middle" x="565.25" y="-86.45" font-family="Times,serif" font-size="14.00">Biomathematics</text>
</a>
</g>
</g>
<!-- MATH0011&#45;&gt;MATH0026 -->
<g id="edge16" class="edge">
<title>MATH0011&#45;&gt;MATH0026</title>
<g id="a_edge16"><a xlink:title="required prerequisite">
<path fill="none" stroke="black" d="M1184.75,-334.32C1082.68,-331.79 920.44,-320.5 787.25,-278 718.55,-256.08 700.52,-245.82 645.25,-199.5 622.18,-180.17 600.99,-153.41 586.21,-132.62"/>
<polygon fill="black" stroke="black" points="589.14,-130.7 580.56,-124.48 583.4,-134.69 589.14,-130.7"/>
</a>
</g>
</g>
<!-- MATH0011&#45;&gt;MATH0114 -->
<g id="edge25" class="edge">
<title>MATH0011&#45;&gt;MATH0114</title>
<g id="a_edge25"><a xlink:title="required prerequisite">
<path fill="none" stroke="black" d="M1330.36,-311.58C1347.87,-302.14 1367.59,-290.48 1384.25,-278 1445.89,-231.84 1450.44,-207.87 1508.25,-157 1518.39,-148.08 1529.71,-138.82 1540.28,-130.45"/>
<polygon fill="black" stroke="black" points="1542.43,-133.21 1548.14,-124.28 1538.11,-127.7 1542.43,-133.21"/>
</a>
</g>
</g>
<!-- MATH0011&#45;&gt;MATH0102 -->
<g id="edge29" class="edge">
<title>MATH0011&#45;&gt;MATH0102</title>
<g id="a_edge29"><a xlink:title="required prerequisite">
<path fill="none" stroke="black" d="M1292.59,-311.58C1308.79,-263.18 1338.53,-148.43 1285.25,-78.5 1276.89,-67.53 1265.72,-58.3 1253.97,-50.7"/>
<polygon fill="black" stroke="black" points="1256.12,-47.91 1245.75,-45.73 1252.5,-53.9 1256.12,-47.91"/>
</a>
</g>
</g>
<!-- MATH0011&#45;&gt;MATH0065 -->
<g id="edge39" class="edge">
<title>MATH0011&#45;&gt;MATH0065</title>
<g id="a_edge39"><a xlink:title="required prerequisite">
<path fill="none" stroke="black" d="M1184.71,-331.74C1039.08,-326.9 775.73,-313.43 688.25,-278 608.54,-245.72 613.13,-197.47 537.25,-157 514.59,-144.91 488.91,-134.94 464.23,-126.92"/>
<polygon fill="black" stroke="black" points="465.38,-123.61 454.79,-123.94 463.27,-130.29 465.38,-123.61"/>
</a>
</g>
</g>
<!-- MATH0014 -->
<g id="node9" class="node">
<title>MATH0014</title>
<g id="a_node9"><a xlink:href="https://www.ucl.ac.uk/mathematical-physical-sciences/sites/mathematical_physical_sciences/files/math0014.pdf" xlink:title="Year 2, term 1">
<polygon fill="white" stroke="#00ff00" stroke-width="5" points="2421.12,-278 2161.38,-278 2161.38,-235.5 2421.12,-235.5 2421.12,-278"/>
<text xml:space="preserve" text-anchor="middle" x="2291.25" y="-260.7" font-family="Times,serif" font-size="14.00">MATH0014</text>
<text xml:space="preserve" text-anchor="middle" x="2291.25" y="-243.45" font-family="Times,serif" font-size="14.00">Algebra 3: Further Linear Algebra</text>
</a>
</g>
</g>
<!-- MATH0006&#45;&gt;MATH0014 -->
<g id="edge6" class="edge">
<title>MATH0006&#45;&gt;MATH0014</title>
<g id="a_edge6"><a xlink:title="required prerequisite">
<path fill="none" stroke="black" d="M2146.24,-314.35C2169.56,-305.25 2197.54,-294.33 2222.67,-284.52"/>
<polygon fill="black" stroke="black" points="2223.79,-287.84 2231.84,-280.94 2221.25,-281.32 2223.79,-287.84"/>
</a>
</g>
</g>
<!-- MATH0006&#45;&gt;MATH0058 -->
<g id="edge11" class="edge">
<title>MATH0006&#45;&gt;MATH0058</title>
<g id="a_edge11"><a xlink:title="required prerequisite">
<path fill="none" stroke="black" d="M2077.51,-311.71C2056.55,-285.08 2021.54,-240.61 1997.94,-210.62"/>
<polygon fill="black" stroke="black" points="2000.88,-208.7 1991.95,-203 1995.38,-213.03 2000.88,-208.7"/>
</a>
</g>
</g>
<!-- MATH0006&#45;&gt;MATH0033 -->
<g id="edge13" class="edge">
<title>MATH0006&#45;&gt;MATH0033</title>
<g id="a_edge13"><a xlink:title="required prerequisite">
<path fill="none" stroke="black" d="M2101.47,-311.66C2104.13,-301.44 2107.11,-289.17 2109.25,-278 2118.75,-228.4 2125.87,-170.29 2129.79,-134.5"/>
<polygon fill="black" stroke="black" points="2133.25,-135.08 2130.84,-124.77 2126.29,-134.34 2133.25,-135.08"/>
</a>
</g>
</g>
<!-- MATH0006&#45;&gt;MATH0114 -->
<g id="edge24" class="edge">
<title>MATH0006&#45;&gt;MATH0114</title>
<g id="a_edge24"><a xlink:title="required prerequisite">
<path fill="none" stroke="black" d="M2100.75,-311.51C2108.38,-273.7 2117.05,-198.04 2076.25,-157 2066.43,-147.12 1941.49,-133 1819.35,-121.39"/>
<polygon fill="black" stroke="black" points="1819.72,-117.9 1809.43,-120.45 1819.06,-124.87 1819.72,-117.9"/>
</a>
</g>
</g>
<!-- MATH0004&#45;&gt;MATH0013 -->
<g id="edge5" class="edge">
<title>MATH0004&#45;&gt;MATH0013</title>
<g id="a_edge5"><a xlink:title="recommended prerequisite">
<path fill="none" stroke="black" stroke-dasharray="5,2" d="M425.33,-311.71C418.6,-304.46 411.03,-296.3 403.85,-288.56"/>
<polygon fill="black" stroke="black" points="406.66,-286.45 397.29,-281.5 401.53,-291.21 406.66,-286.45"/>
</a>
</g>
</g>
<!-- MATH0004&#45;&gt;MATH0114 -->
<g id="edge22" class="edge">
<title>MATH0004&#45;&gt;MATH0114</title>
<g id="a_edge22"><a xlink:title="required prerequisite">
<path fill="none" stroke="black" d="M496.92,-331.63C594.68,-326.01 815.87,-310.58 999.25,-278 1137.91,-253.36 1171.65,-240.95 1306.25,-199.5 1376.81,-177.77 1456.01,-148.58 1510.85,-127.58"/>
<polygon fill="black" stroke="black" points="1511.99,-130.89 1520.07,-124.03 1509.48,-124.35 1511.99,-130.89"/>
</a>
</g>
</g>
<!-- MATH0056 -->
<g id="node11" class="node">
<title>MATH0056</title>
<g id="a_node11"><a xlink:href="https://www.ucl.ac.uk/mathematical-physical-sciences/sites/mathematical_physical_sciences/files/math0056.pdf" xlink:title="Year 2 or 3, term 2">
<polygon fill="white" stroke="#8ee5ee" stroke-width="5" points="865.5,-199.5 671,-199.5 671,-157 865.5,-157 865.5,-199.5"/>
<text xml:space="preserve" text-anchor="middle" x="768.25" y="-182.2" font-family="Times,serif" font-size="14.00">MATH0056</text>
<text xml:space="preserve" text-anchor="middle" x="768.25" y="-164.95" font-family="Times,serif" font-size="14.00">Mathematical Methods 4</text>
</a>
</g>
</g>
<!-- MATH0013&#45;&gt;MATH0056 -->
<g id="edge8" class="edge">
<title>MATH0013&#45;&gt;MATH0056</title>
<g id="a_edge8"><a xlink:title="required prerequisite">
<path fill="none" stroke="black" d="M491.83,-233.06C544.22,-222.86 605.75,-210.88 657.44,-200.82"/>
<polygon fill="black" stroke="black" points="658.02,-204.27 667.17,-198.93 656.68,-197.4 658.02,-204.27"/>
</a>
</g>
</g>
<!-- MATH0013&#45;&gt;MATH0065 -->
<g id="edge40" class="edge">
<title>MATH0013&#45;&gt;MATH0065</title>
<g id="a_edge40"><a xlink:title="required prerequisite">
<path fill="none" stroke="black" d="M372.78,-233.21C369.93,-207.27 365.23,-164.4 361.95,-134.48"/>
<polygon fill="black" stroke="black" points="365.46,-134.38 360.89,-124.82 358.5,-135.14 365.46,-134.38"/>
</a>
</g>
</g>
<!-- MATH0028 -->
<g id="node17" class="node">
<title>MATH0028</title>
<g id="a_node17"><a xlink:href="https://www.ucl.ac.uk/mathematical-physical-sciences/sites/mathematical_physical_sciences/files/math0028.pdf" xlink:title="Year 3, term 2">
<polygon fill="white" stroke="#cd3333" stroke-width="5" points="2444.25,-121 2230.25,-121 2230.25,-78.5 2444.25,-78.5 2444.25,-121"/>
<text xml:space="preserve" text-anchor="middle" x="2337.25" y="-103.7" font-family="Times,serif" font-size="14.00">MATH0028</text>
<text xml:space="preserve" text-anchor="middle" x="2337.25" y="-86.45" font-family="Times,serif" font-size="14.00">Combinatorial Optimisation</text>
</a>
</g>
</g>
<!-- MATH0014&#45;&gt;MATH0028 -->
<g id="edge18" class="edge">
<title>MATH0014&#45;&gt;MATH0028</title>
<g id="a_edge18"><a xlink:title="required prerequisite">
<path fill="none" stroke="black" d="M2297.94,-233.21C2305.67,-207.15 2318.47,-164.02 2327.36,-134.08"/>
<polygon fill="black" stroke="black" points="2330.63,-135.35 2330.12,-124.77 2323.92,-133.36 2330.63,-135.35"/>
</a>
</g>
</g>
<!-- MATH0014&#45;&gt;MATH0114 -->
<g id="edge26" class="edge">
<title>MATH0014&#45;&gt;MATH0114</title>
<g id="a_edge26"><a xlink:title="required prerequisite">
<path fill="none" stroke="black" d="M2258.8,-233.01C2223.69,-209.67 2165.2,-174.4 2109.25,-157 2080.68,-148.12 1945.68,-133.85 1819.09,-121.91"/>
<polygon fill="black" stroke="black" points="1819.44,-118.43 1809.16,-120.98 1818.79,-125.4 1819.44,-118.43"/>
</a>
</g>
</g>
<!-- MATH0016&#45;&gt;MATH0056 -->
<g id="edge9" class="edge">
<title>MATH0016&#45;&gt;MATH0056</title>
<g id="a_edge9"><a xlink:title="required prerequisite">
<path fill="none" stroke="black" d="M856.08,-233C843.11,-225.07 828.39,-216.05 814.75,-207.71"/>
<polygon fill="black" stroke="black" points="816.7,-204.8 806.35,-202.57 813.05,-210.77 816.7,-204.8"/>
</a>
</g>
</g>
<!-- MATH0031 -->
<g id="node18" class="node">
<title>MATH0031</title>
<g id="a_node18"><a xlink:href="https://www.ucl.ac.uk/mathematical-physical-sciences/sites/mathematical_physical_sciences/files/math0031.pdf" xlink:title="Year 3, term 2">
<polygon fill="white" stroke="#cd3333" stroke-width="5" points="903.62,-121 724.88,-121 724.88,-78.5 903.62,-78.5 903.62,-121"/>
<text xml:space="preserve" text-anchor="middle" x="814.25" y="-103.7" font-family="Times,serif" font-size="14.00">MATH0031</text>
<text xml:space="preserve" text-anchor="middle" x="814.25" y="-86.45" font-family="Times,serif" font-size="14.00">Financial Mathematics</text>
</a>
</g>
</g>
<!-- MATH0016&#45;&gt;MATH0031 -->
<g id="edge19" class="edge">
<title>MATH0016&#45;&gt;MATH0031</title>
<g id="a_edge19"><a xlink:title="required prerequisite">
<path fill="none" stroke="black" d="M892.84,-233.24C891.58,-212.3 887.4,-180.85 874.25,-157 868.98,-147.43 861.5,-138.56 853.6,-130.82"/>
<polygon fill="black" stroke="black" points="856.47,-128.71 846.74,-124.51 851.73,-133.86 856.47,-128.71"/>
</a>
</g>
</g>
<!-- MATH0117 -->
<g id="node22" class="node">
<title>MATH0117</title>
<g id="a_node22"><a xlink:href="https://www.ucl.ac.uk/mathematical-physical-sciences/sites/mathematical_physical_sciences/files/math0117.pdf" xlink:title="Year 3 or 4, term 2">
<polygon fill="white" stroke="#cd1076" stroke-width="5" points="1840.62,-42.5 1613.88,-42.5 1613.88,0 1840.62,0 1840.62,-42.5"/>
<text xml:space="preserve" text-anchor="middle" x="1727.25" y="-25.2" font-family="Times,serif" font-size="14.00">MATH0117</text>
<text xml:space="preserve" text-anchor="middle" x="1727.25" y="-7.95" font-family="Times,serif" font-size="14.00">Spatial Mathematical Biology</text>
</a>
</g>
</g>
<!-- MATH0016&#45;&gt;MATH0117 -->
<g id="edge35" class="edge">
<title>MATH0016&#45;&gt;MATH0117</title>
<g id="a_edge35"><a xlink:title="required prerequisite">
<path fill="none" stroke="black" d="M893.06,-233.13C894.08,-194.45 902.34,-116.14 950.25,-78.5 975.36,-58.77 1386.35,-37.54 1600.17,-27.76"/>
<polygon fill="black" stroke="black" points="1600.11,-31.26 1609.94,-27.31 1599.79,-24.27 1600.11,-31.26"/>
</a>
</g>
</g>
<!-- MATH0088 -->
<g id="node24" class="node">
<title>MATH0088</title>
<g id="a_node24"><a xlink:href="https://www.ucl.ac.uk/mathematical-physical-sciences/sites/mathematical_physical_sciences/files/math0088.pdf" xlink:title="Year 4, term 2">
<polygon fill="white" stroke="#1874cd" stroke-width="5" points="889.38,-42.5 583.12,-42.5 583.12,0 889.38,0 889.38,-42.5"/>
<text xml:space="preserve" text-anchor="middle" x="736.25" y="-25.2" font-family="Times,serif" font-size="14.00">MATH0088</text>
<text xml:space="preserve" text-anchor="middle" x="736.25" y="-7.95" font-family="Times,serif" font-size="14.00">Quantitative and Computational Finance</text>
</a>
</g>
</g>
<!-- MATH0016&#45;&gt;MATH0088 -->
<g id="edge41" class="edge">
<title>MATH0016&#45;&gt;MATH0088</title>
<g id="a_edge41"><a xlink:title="required prerequisite">
<path fill="none" stroke="black" d="M793.76,-243.82C739.05,-234.99 678.95,-220.76 662.25,-199.5 627.01,-154.65 671.91,-90.59 705.58,-53.03"/>
<polygon fill="black" stroke="black" points="707.76,-55.82 711.96,-46.09 702.61,-51.08 707.76,-55.82"/>
</a>
</g>
</g>
<!-- MATH0056&#45;&gt;MATH0102 -->
<g id="edge30" class="edge">
<title>MATH0056&#45;&gt;MATH0102</title>
<g id="a_edge30"><a xlink:title="recommended prerequisite">
<path fill="none" stroke="black" stroke-dasharray="5,2" d="M741.87,-154.57C720.18,-133.23 696.05,-101.24 716.25,-78.5 727.88,-65.4 931.44,-44.99 1067.69,-32.69"/>
<polygon fill="black" stroke="black" points="1067.86,-36.19 1077.5,-31.81 1067.23,-29.22 1067.86,-36.19"/>
</a>
</g>
</g>
<!-- MATH0086 -->
<g id="node23" class="node">
<title>MATH0086</title>
<g id="a_node23"><a xlink:href="https://www.ucl.ac.uk/mathematical-physical-sciences/sites/mathematical_physical_sciences/files/math0086.pdf" xlink:title="Year 4, term 1">
<polygon fill="white" stroke="#1c86ee" stroke-width="5" points="1259.38,-121 959.12,-121 959.12,-78.5 1259.38,-78.5 1259.38,-121"/>
<text xml:space="preserve" text-anchor="middle" x="1109.25" y="-103.7" font-family="Times,serif" font-size="14.00">MATH0086</text>
<text xml:space="preserve" text-anchor="middle" x="1109.25" y="-86.45" font-family="Times,serif" font-size="14.00">Computational and Simulation Methods</text>
</a>
</g>
</g>
<!-- MATH0056&#45;&gt;MATH0086 -->
<g id="edge36" class="edge">
<title>MATH0056&#45;&gt;MATH0086</title>
<g id="a_edge36"><a xlink:title="required prerequisite">
<path fill="none" stroke="black" d="M867.8,-154.92C908.31,-145.83 955.33,-135.28 997.05,-125.92"/>
<polygon fill="black" stroke="black" points="997.63,-129.38 1006.62,-123.77 996.1,-122.55 997.63,-129.38"/>
</a>
</g>
</g>
<!-- MATH0058&#45;&gt;MATH0033 -->
<g id="edge15" class="edge">
<title>MATH0058&#45;&gt;MATH0033</title>
<g id="a_edge15"><a xlink:title="required prerequisite">
<path fill="none" stroke="black" d="M2020.82,-154.5C2037.99,-146.29 2057.57,-136.94 2075.51,-128.36"/>
<polygon fill="black" stroke="black" points="2076.98,-131.53 2084.5,-124.06 2073.96,-125.22 2076.98,-131.53"/>
</a>
</g>
</g>
<!-- MATH0058&#45;&gt;MATH0086 -->
<g id="edge37" class="edge">
<title>MATH0058&#45;&gt;MATH0086</title>
<g id="a_edge37"><a xlink:title="recommended prerequisite">
<path fill="none" stroke="black" stroke-dasharray="5,2" d="M1877.07,-168.73C1730.98,-155.8 1451.33,-131.04 1272.87,-115.24"/>
<polygon fill="black" stroke="black" points="1273.31,-111.76 1263.04,-114.37 1272.69,-118.74 1273.31,-111.76"/>
</a>
</g>
</g>
<!-- MATH0057&#45;&gt;MATH0031 -->
<g id="edge20" class="edge">
<title>MATH0057&#45;&gt;MATH0031</title>
<g id="a_edge20"><a xlink:title="required prerequisite">
<path fill="none" stroke="black" d="M1097.11,-157.1C1041.49,-146.02 972.64,-132.3 916.8,-121.18"/>
<polygon fill="black" stroke="black" points="917.79,-117.81 907.3,-119.29 916.42,-124.67 917.79,-117.81"/>
</a>
</g>
</g>
<!-- MATH0057&#45;&gt;MATH0114 -->
<g id="edge27" class="edge">
<title>MATH0057&#45;&gt;MATH0114</title>
<g id="a_edge27"><a xlink:title="recommended prerequisite">
<path fill="none" stroke="black" stroke-dasharray="5,2" d="M1299.35,-156.95C1347.21,-147.34 1404.79,-135.78 1455.26,-125.65"/>
<polygon fill="black" stroke="black" points="1455.65,-129.14 1464.76,-123.74 1454.27,-122.27 1455.65,-129.14"/>
</a>
</g>
</g>
<!-- MATH0057&#45;&gt;MATH0102 -->
<g id="edge33" class="edge">
<title>MATH0057&#45;&gt;MATH0102</title>
<g id="a_edge33"><a xlink:title="recommended prerequisite">
<path fill="none" stroke="black" stroke-dasharray="5,2" d="M1238.52,-154.61C1250.32,-145.78 1261.78,-134.5 1268.25,-121 1276.41,-103.97 1276.91,-95.29 1268.25,-78.5 1262.87,-68.07 1254.56,-59.14 1245.32,-51.68"/>
<polygon fill="black" stroke="black" points="1247.58,-49 1237.45,-45.88 1243.42,-54.63 1247.58,-49"/>
</a>
</g>
</g>
<!-- MATH0030&#45;&gt;MATH0117 -->
<g id="edge34" class="edge">
<title>MATH0030&#45;&gt;MATH0117</title>
<g id="a_edge34"><a xlink:title="required prerequisite">
<path fill="none" stroke="black" d="M1883.24,-76C1858.3,-67.41 1829.72,-57.56 1803.89,-48.66"/>
<polygon fill="black" stroke="black" points="1805.03,-45.35 1794.43,-45.4 1802.75,-51.97 1805.03,-45.35"/>
</a>
</g>
</g>
<!-- MATH0031&#45;&gt;MATH0102 -->
<g id="edge31" class="edge">
<title>MATH0031&#45;&gt;MATH0102</title>
<g id="a_edge31"><a xlink:title="recommended prerequisite">
<path fill="none" stroke="black" stroke-dasharray="5,2" d="M905.99,-80.04C954.77,-70.08 1015.38,-57.72 1068,-46.98"/>
<polygon fill="black" stroke="black" points="1068.52,-50.45 1077.62,-45.02 1067.12,-43.59 1068.52,-50.45"/>
</a>
</g>
</g>
<!-- MATH0031&#45;&gt;MATH0088 -->
<g id="edge42" class="edge">
<title>MATH0031&#45;&gt;MATH0088</title>
<g id="a_edge42"><a xlink:title="recommended prerequisite">
<path fill="none" stroke="black" stroke-dasharray="5,2" d="M791.27,-76.21C783.8,-68.88 775.38,-60.63 767.41,-52.81"/>
<polygon fill="black" stroke="black" points="770.01,-50.46 760.42,-45.95 765.11,-55.45 770.01,-50.46"/>
</a>
</g>
</g>
<!-- MATH0065&#45;&gt;MATH0102 -->
<g id="edge32" class="edge">
<title>MATH0065&#45;&gt;MATH0102</title>
<g id="a_edge32"><a xlink:title="recommended prerequisite">
<path fill="none" stroke="black" stroke-dasharray="5,2" d="M483.28,-79.34C485.62,-79.05 487.95,-78.77 490.25,-78.5 598.69,-65.84 898.26,-43.31 1067.93,-30.95"/>
<polygon fill="black" stroke="black" points="1067.94,-34.46 1077.66,-30.25 1067.43,-27.48 1067.94,-34.46"/>
</a>
</g>
</g>
</g>
</svg>
