<?xml version="1.0" encoding="UTF-8" standalone="no"?>
<!DOCTYPE svg PUBLIC "-//W3C//DTD SVG 1.1//EN"
 "http://www.w3.org/Graphics/SVG/1.1/DTD/svg11.dtd">
<!-- Generated by graphviz version 2.43.0 (0)
 -->
<!-- Title: %3 Pages: 1 -->
<svg width="2402pt" height="416pt"
 viewBox="0.00 0.00 2402.00 416.00" xmlns="http://www.w3.org/2000/svg" xmlns:xlink="http://www.w3.org/1999/xlink">
<g id="graph0" class="graph" transform="scale(1 1) rotate(0) translate(4 412)">
<title>%3</title>
<polygon fill="white" stroke="transparent" points="-4,4 -4,-412 2398,-412 2398,4 -4,4"/>
<!-- MATH0003 -->
<g id="node1" class="node">
<title>MATH0003</title>
<g id="a_node1"><a xlink:href="https://www.ucl.ac.uk/maths/sites/maths/files/math0003.pdf" xlink:title="Year 1, term 1">
<polygon fill="white" stroke="#ffb90f" stroke-width="5" points="1656,-408 1558,-408 1558,-370 1656,-370 1656,-408"/>
<text text-anchor="middle" x="1607" y="-392.8" font-family="Times,serif" font-size="14.00">MATH0003</text>
<text text-anchor="middle" x="1607" y="-377.8" font-family="Times,serif" font-size="14.00">Analysis 1</text>
</a>
</g>
</g>
<!-- MATH0004 -->
<g id="node7" class="node">
<title>MATH0004</title>
<g id="a_node7"><a xlink:href="https://www.ucl.ac.uk/maths/sites/maths/files/math0004.pdf" xlink:title="Year 1, term 2">
<polygon fill="white" stroke="#cd950c" stroke-width="5" points="1694,-334 1596,-334 1596,-296 1694,-296 1694,-334"/>
<text text-anchor="middle" x="1645" y="-318.8" font-family="Times,serif" font-size="14.00">MATH0004</text>
<text text-anchor="middle" x="1645" y="-303.8" font-family="Times,serif" font-size="14.00">Analysis 2</text>
</a>
</g>
</g>
<!-- MATH0003&#45;&gt;MATH0004 -->
<g id="edge3" class="edge">
<title>MATH0003&#45;&gt;MATH0004</title>
<g id="a_edge3"><a xlink:title="required prerequisite">
<path fill="none" stroke="black" d="M1616.59,-369.83C1620.83,-361.79 1625.91,-352.17 1630.6,-343.29"/>
<polygon fill="black" stroke="black" points="1633.71,-344.89 1635.28,-334.41 1627.52,-341.62 1633.71,-344.89"/>
</a>
</g>
</g>
<!-- MATH0013 -->
<g id="node9" class="node">
<title>MATH0013</title>
<g id="a_node9"><a xlink:href="https://www.ucl.ac.uk/maths/sites/maths/files/math0013.pdf" xlink:title="Year 2, term 1">
<polygon fill="white" stroke="#00ff00" stroke-width="5" points="968.5,-260 739.5,-260 739.5,-222 968.5,-222 968.5,-260"/>
<text text-anchor="middle" x="854" y="-244.8" font-family="Times,serif" font-size="14.00">MATH0013</text>
<text text-anchor="middle" x="854" y="-229.8" font-family="Times,serif" font-size="14.00">Analysis 3 &#45; Complex Analysis</text>
</a>
</g>
</g>
<!-- MATH0003&#45;&gt;MATH0013 -->
<g id="edge5" class="edge">
<title>MATH0003&#45;&gt;MATH0013</title>
<g id="a_edge5"><a xlink:title="required prerequisite">
<path fill="none" stroke="black" d="M1557.88,-378.48C1436.74,-354.99 1121.61,-293.89 957.2,-262.01"/>
<polygon fill="black" stroke="black" points="957.56,-258.51 947.08,-260.05 956.23,-265.39 957.56,-258.51"/>
</a>
</g>
</g>
<!-- MATH0114 -->
<g id="node17" class="node">
<title>MATH0114</title>
<g id="a_node17"><a xlink:href="https://www.ucl.ac.uk/maths/sites/maths/files/math0114_0.pdf" xlink:title="Year 3, term 2">
<polygon fill="white" stroke="#cd3333" stroke-width="5" points="2048.5,-112 1595.5,-112 1595.5,-74 2048.5,-74 2048.5,-112"/>
<text text-anchor="middle" x="1822" y="-96.8" font-family="Times,serif" font-size="14.00">MATH0114</text>
<text text-anchor="middle" x="1822" y="-81.8" font-family="Times,serif" font-size="14.00">Mathematics for Machine Learning and Artificial Intelligence</text>
</a>
</g>
</g>
<!-- MATH0003&#45;&gt;MATH0114 -->
<g id="edge18" class="edge">
<title>MATH0003&#45;&gt;MATH0114</title>
<g id="a_edge18"><a xlink:title="required prerequisite">
<path fill="none" stroke="black" d="M1651.41,-369.99C1669.12,-361.15 1688.65,-349.12 1703,-334 1763.4,-270.36 1799.41,-170.18 1814.17,-121.88"/>
<polygon fill="black" stroke="black" points="1817.57,-122.7 1817.08,-112.11 1810.87,-120.7 1817.57,-122.7"/>
</a>
</g>
</g>
<!-- MATH0082 -->
<g id="node24" class="node">
<title>MATH0082</title>
<g id="a_node24"><a xlink:href="https://www.ucl.ac.uk/maths/sites/maths/files/math0082.pdf" xlink:title="Year 4, term 2">
<polygon fill="white" stroke="#1874cd" stroke-width="5" points="1737.5,-38 1398.5,-38 1398.5,0 1737.5,0 1737.5,-38"/>
<text text-anchor="middle" x="1568" y="-22.8" font-family="Times,serif" font-size="14.00">MATH0082</text>
<text text-anchor="middle" x="1568" y="-7.8" font-family="Times,serif" font-size="14.00">Evolutionary Games and Population Genetics</text>
</a>
</g>
</g>
<!-- MATH0003&#45;&gt;MATH0082 -->
<g id="edge43" class="edge">
<title>MATH0003&#45;&gt;MATH0082</title>
<g id="a_edge43"><a xlink:title="required prerequisite">
<path fill="none" stroke="black" d="M1598.92,-369.98C1587.5,-342.81 1568,-289.49 1568,-242 1568,-242 1568,-242 1568,-166 1568,-125.32 1568,-78.26 1568,-48.81"/>
<polygon fill="black" stroke="black" points="1571.5,-48.44 1568,-38.44 1564.5,-48.44 1571.5,-48.44"/>
</a>
</g>
</g>
<!-- MATH0008 -->
<g id="node2" class="node">
<title>MATH0008</title>
<g id="a_node2"><a xlink:href="https://www.ucl.ac.uk/maths/sites/maths/files/math0008.pdf" xlink:title="Year 1, term 1">
<polygon fill="white" stroke="#ffb90f" stroke-width="5" points="2394,-408 2226,-408 2226,-370 2394,-370 2394,-408"/>
<text text-anchor="middle" x="2310" y="-392.8" font-family="Times,serif" font-size="14.00">MATH0008</text>
<text text-anchor="middle" x="2310" y="-377.8" font-family="Times,serif" font-size="14.00">Applied Mathematics</text>
</a>
</g>
</g>
<!-- MATH0008&#45;&gt;MATH0082 -->
<g id="edge41" class="edge">
<title>MATH0008&#45;&gt;MATH0082</title>
<g id="a_edge41"><a xlink:title="required prerequisite">
<path fill="none" stroke="black" d="M2310,-369.56C2310,-341.87 2310,-287.88 2310,-242 2310,-242 2310,-242 2310,-166 2310,-124.25 2322.37,-101.56 2291,-74 2251.04,-38.9 1948.68,-26.61 1747.83,-22.31"/>
<polygon fill="black" stroke="black" points="1747.82,-18.81 1737.75,-22.1 1747.67,-25.81 1747.82,-18.81"/>
</a>
</g>
</g>
<!-- MATH0010 -->
<g id="node3" class="node">
<title>MATH0010</title>
<g id="a_node3"><a xlink:href="https://www.ucl.ac.uk/maths/sites/maths/files/math0010.pdf" xlink:title="Year 1, term 1">
<polygon fill="white" stroke="#ffb90f" stroke-width="5" points="1244.5,-408 1049.5,-408 1049.5,-370 1244.5,-370 1244.5,-408"/>
<text text-anchor="middle" x="1147" y="-392.8" font-family="Times,serif" font-size="14.00">MATH0010</text>
<text text-anchor="middle" x="1147" y="-377.8" font-family="Times,serif" font-size="14.00">Mathematical Methods 1</text>
</a>
</g>
</g>
<!-- MATH0011 -->
<g id="node5" class="node">
<title>MATH0011</title>
<g id="a_node5"><a xlink:href="https://www.ucl.ac.uk/maths/sites/maths/files/math0011_2.pdf" xlink:title="Year 1, term 2">
<polygon fill="white" stroke="#cd950c" stroke-width="5" points="943.5,-334 748.5,-334 748.5,-296 943.5,-296 943.5,-334"/>
<text text-anchor="middle" x="846" y="-318.8" font-family="Times,serif" font-size="14.00">MATH0011</text>
<text text-anchor="middle" x="846" y="-303.8" font-family="Times,serif" font-size="14.00">Mathematical Methods 2</text>
</a>
</g>
</g>
<!-- MATH0010&#45;&gt;MATH0011 -->
<g id="edge1" class="edge">
<title>MATH0010&#45;&gt;MATH0011</title>
<g id="a_edge1"><a xlink:title="required prerequisite">
<path fill="none" stroke="black" d="M1071.43,-369.92C1028.77,-359.72 975.33,-346.94 931.18,-336.38"/>
<polygon fill="black" stroke="black" points="931.88,-332.94 921.34,-334.02 930.25,-339.75 931.88,-332.94"/>
</a>
</g>
</g>
<!-- MATH0058 -->
<g id="node11" class="node">
<title>MATH0058</title>
<g id="a_node11"><a xlink:href="https://www.ucl.ac.uk/maths/sites/maths/files/math0058.pdf" xlink:title="Year 2 or 3, term 2">
<polygon fill="white" stroke="#8ee5ee" stroke-width="5" points="1502,-186 1314,-186 1314,-148 1502,-148 1502,-186"/>
<text text-anchor="middle" x="1408" y="-170.8" font-family="Times,serif" font-size="14.00">MATH0058</text>
<text text-anchor="middle" x="1408" y="-155.8" font-family="Times,serif" font-size="14.00">Computational Methods</text>
</a>
</g>
</g>
<!-- MATH0010&#45;&gt;MATH0058 -->
<g id="edge8" class="edge">
<title>MATH0010&#45;&gt;MATH0058</title>
<g id="a_edge8"><a xlink:title="required prerequisite">
<path fill="none" stroke="black" d="M1229.06,-369.9C1253.59,-361.75 1279.41,-350.2 1300,-334 1347.55,-296.59 1380.75,-232.18 1396.87,-195.57"/>
<polygon fill="black" stroke="black" points="1400.24,-196.59 1400.96,-186.02 1393.81,-193.83 1400.24,-196.59"/>
</a>
</g>
</g>
<!-- MATH0030 -->
<g id="node15" class="node">
<title>MATH0030</title>
<g id="a_node15"><a xlink:href="https://www.ucl.ac.uk/maths/sites/maths/files/math0030.pdf" xlink:title="Year 3, term 1">
<polygon fill="white" stroke="#ff4040" stroke-width="5" points="1326,-112 1150,-112 1150,-74 1326,-74 1326,-112"/>
<text text-anchor="middle" x="1238" y="-96.8" font-family="Times,serif" font-size="14.00">MATH0030</text>
<text text-anchor="middle" x="1238" y="-81.8" font-family="Times,serif" font-size="14.00">Mathematical Ecology</text>
</a>
</g>
</g>
<!-- MATH0010&#45;&gt;MATH0030 -->
<g id="edge16" class="edge">
<title>MATH0010&#45;&gt;MATH0030</title>
<g id="a_edge16"><a xlink:title="required prerequisite">
<path fill="none" stroke="black" d="M1153.58,-369.88C1162.48,-345.17 1178.64,-299.47 1191,-260 1206.1,-211.77 1221.72,-155 1230.61,-121.9"/>
<polygon fill="black" stroke="black" points="1234.04,-122.59 1233.25,-112.03 1227.28,-120.78 1234.04,-122.59"/>
</a>
</g>
</g>
<!-- MATH0102 -->
<g id="node21" class="node">
<title>MATH0102</title>
<g id="a_node21"><a xlink:href="https://www.ucl.ac.uk/maths/sites/maths/files/math0102.pdf" xlink:title="Year 3 or 4, term 2">
<polygon fill="white" stroke="#cd1076" stroke-width="5" points="366,-38 150,-38 150,0 366,0 366,-38"/>
<text text-anchor="middle" x="258" y="-22.8" font-family="Times,serif" font-size="14.00">MATH0102</text>
<text text-anchor="middle" x="258" y="-7.8" font-family="Times,serif" font-size="14.00">Applied Stochastic Methods</text>
</a>
</g>
</g>
<!-- MATH0010&#45;&gt;MATH0102 -->
<g id="edge30" class="edge">
<title>MATH0010&#45;&gt;MATH0102</title>
<g id="a_edge30"><a xlink:title="required prerequisite">
<path fill="none" stroke="black" d="M1049.21,-385.76C771.83,-378.12 0,-347.39 0,-242 0,-242 0,-242 0,-166 0,-120.48 9.67,-102.7 45,-74 71.89,-52.17 106.49,-39.03 139.96,-31.16"/>
<polygon fill="black" stroke="black" points="140.82,-34.56 149.83,-28.98 139.31,-27.72 140.82,-34.56"/>
</a>
</g>
</g>
<!-- MATH0065 -->
<g id="node22" class="node">
<title>MATH0065</title>
<g id="a_node22"><a xlink:href="https://www.ucl.ac.uk/maths/sites/maths/files/math0065.pdf" xlink:title="Year 4, term 1">
<polygon fill="white" stroke="#1c86ee" stroke-width="5" points="312,-112 66,-112 66,-74 312,-74 312,-112"/>
<text text-anchor="middle" x="189" y="-96.8" font-family="Times,serif" font-size="14.00">MATH0065</text>
<text text-anchor="middle" x="189" y="-81.8" font-family="Times,serif" font-size="14.00">Advanced Modelling Techniques</text>
</a>
</g>
</g>
<!-- MATH0010&#45;&gt;MATH0065 -->
<g id="edge38" class="edge">
<title>MATH0010&#45;&gt;MATH0065</title>
<g id="a_edge38"><a xlink:title="required prerequisite">
<path fill="none" stroke="black" d="M1049.11,-378.79C966.08,-370.09 844.06,-355.2 739,-334 616.61,-309.31 585.77,-301.47 468,-260 390.27,-232.63 368,-229.48 298,-186 266.9,-166.68 235.37,-138.99 214.27,-119.05"/>
<polygon fill="black" stroke="black" points="216.64,-116.46 207,-112.08 211.8,-121.52 216.64,-116.46"/>
</a>
</g>
</g>
<!-- MATH0010&#45;&gt;MATH0082 -->
<g id="edge42" class="edge">
<title>MATH0010&#45;&gt;MATH0082</title>
<g id="a_edge42"><a xlink:title="required prerequisite">
<path fill="none" stroke="black" d="M1160.62,-369.69C1168.23,-359.32 1177.8,-346.05 1186,-334 1241.2,-252.86 1245.13,-225.76 1305,-148 1311.81,-139.15 1363.47,-79.83 1373,-74 1396.82,-59.43 1424.65,-48.7 1451.7,-40.84"/>
<polygon fill="black" stroke="black" points="1452.93,-44.13 1461.62,-38.07 1451.05,-37.38 1452.93,-44.13"/>
</a>
</g>
</g>
<!-- MATH0005 -->
<g id="node4" class="node">
<title>MATH0005</title>
<g id="a_node4"><a xlink:href="https://www.ucl.ac.uk/maths/sites/maths/files/math0005.pdf" xlink:title="Year 1, term 1">
<polygon fill="white" stroke="#ffb90f" stroke-width="5" points="2024,-408 1926,-408 1926,-370 2024,-370 2024,-408"/>
<text text-anchor="middle" x="1975" y="-392.8" font-family="Times,serif" font-size="14.00">MATH0005</text>
<text text-anchor="middle" x="1975" y="-377.8" font-family="Times,serif" font-size="14.00">Algebra 1</text>
</a>
</g>
</g>
<!-- MATH0006 -->
<g id="node6" class="node">
<title>MATH0006</title>
<g id="a_node6"><a xlink:href="https://www.ucl.ac.uk/maths/sites/maths/files/math0006.pdf" xlink:title="Year 1, term 2">
<polygon fill="white" stroke="#cd950c" stroke-width="5" points="1885,-334 1787,-334 1787,-296 1885,-296 1885,-334"/>
<text text-anchor="middle" x="1836" y="-318.8" font-family="Times,serif" font-size="14.00">MATH0006</text>
<text text-anchor="middle" x="1836" y="-303.8" font-family="Times,serif" font-size="14.00">Algebra 2</text>
</a>
</g>
</g>
<!-- MATH0005&#45;&gt;MATH0006 -->
<g id="edge2" class="edge">
<title>MATH0005&#45;&gt;MATH0006</title>
<g id="a_edge2"><a xlink:title="required prerequisite">
<path fill="none" stroke="black" d="M1939.92,-369.83C1921.73,-360.41 1899.33,-348.81 1879.99,-338.79"/>
<polygon fill="black" stroke="black" points="1881.55,-335.65 1871.06,-334.16 1878.33,-341.87 1881.55,-335.65"/>
</a>
</g>
</g>
<!-- MATH0005&#45;&gt;MATH0114 -->
<g id="edge20" class="edge">
<title>MATH0005&#45;&gt;MATH0114</title>
<g id="a_edge20"><a xlink:title="required prerequisite">
<path fill="none" stroke="black" d="M2008.37,-369.97C2058.59,-340.41 2144.01,-279.19 2107,-222 2069.59,-164.19 1999.19,-132.23 1937.72,-114.71"/>
<polygon fill="black" stroke="black" points="1938.51,-111.3 1927.94,-112.02 1936.65,-118.05 1938.51,-111.3"/>
</a>
</g>
</g>
<!-- MATH0016 -->
<g id="node10" class="node">
<title>MATH0016</title>
<g id="a_node10"><a xlink:href="https://www.ucl.ac.uk/maths/sites/maths/files/math0016.pdf" xlink:title="Year 2, term 1">
<polygon fill="white" stroke="#00ff00" stroke-width="5" points="1181.5,-260 986.5,-260 986.5,-222 1181.5,-222 1181.5,-260"/>
<text text-anchor="middle" x="1084" y="-244.8" font-family="Times,serif" font-size="14.00">MATH0016</text>
<text text-anchor="middle" x="1084" y="-229.8" font-family="Times,serif" font-size="14.00">Mathematical Methods 3</text>
</a>
</g>
</g>
<!-- MATH0011&#45;&gt;MATH0016 -->
<g id="edge7" class="edge">
<title>MATH0011&#45;&gt;MATH0016</title>
<g id="a_edge7"><a xlink:title="required prerequisite">
<path fill="none" stroke="black" d="M905.75,-295.92C938.71,-285.95 979.81,-273.52 1014.24,-263.1"/>
<polygon fill="black" stroke="black" points="1015.67,-266.33 1024.23,-260.08 1013.64,-259.63 1015.67,-266.33"/>
</a>
</g>
</g>
<!-- MATH0057 -->
<g id="node13" class="node">
<title>MATH0057</title>
<g id="a_node13"><a xlink:href="https://www.ucl.ac.uk/maths/sites/maths/files/math0057.pdf" xlink:title="Year 2 or 3, term 2">
<polygon fill="white" stroke="#8ee5ee" stroke-width="5" points="713,-186 515,-186 515,-148 713,-148 713,-186"/>
<text text-anchor="middle" x="614" y="-170.8" font-family="Times,serif" font-size="14.00">MATH0057</text>
<text text-anchor="middle" x="614" y="-155.8" font-family="Times,serif" font-size="14.00">Probability and Statistics</text>
</a>
</g>
</g>
<!-- MATH0011&#45;&gt;MATH0057 -->
<g id="edge12" class="edge">
<title>MATH0011&#45;&gt;MATH0057</title>
<g id="a_edge12"><a xlink:title="required prerequisite">
<path fill="none" stroke="black" d="M800.94,-295.97C778.92,-286.43 752.4,-273.83 730,-260 697.72,-240.07 664.1,-212.54 641.42,-192.8"/>
<polygon fill="black" stroke="black" points="643.69,-190.14 633.87,-186.16 639.07,-195.4 643.69,-190.14"/>
</a>
</g>
</g>
<!-- MATH0033 -->
<g id="node14" class="node">
<title>MATH0033</title>
<g id="a_node14"><a xlink:href="https://www.ucl.ac.uk/maths/sites/maths/files/math0033.pdf" xlink:title="Year 3, term 1">
<polygon fill="white" stroke="#ff4040" stroke-width="5" points="1540,-112 1382,-112 1382,-74 1540,-74 1540,-112"/>
<text text-anchor="middle" x="1461" y="-96.8" font-family="Times,serif" font-size="14.00">MATH0033</text>
<text text-anchor="middle" x="1461" y="-81.8" font-family="Times,serif" font-size="14.00">Numerical Methods</text>
</a>
</g>
</g>
<!-- MATH0011&#45;&gt;MATH0033 -->
<g id="edge14" class="edge">
<title>MATH0011&#45;&gt;MATH0033</title>
<g id="a_edge14"><a xlink:title="required prerequisite">
<path fill="none" stroke="black" d="M943.88,-305.4C1030.26,-296.6 1148.82,-281.21 1191,-260 1254.46,-228.09 1244.63,-185.42 1305,-148 1327.26,-134.2 1353.5,-123.38 1378.05,-115.16"/>
<polygon fill="black" stroke="black" points="1379.29,-118.43 1387.72,-112.02 1377.13,-111.77 1379.29,-118.43"/>
</a>
</g>
</g>
<!-- MATH0026 -->
<g id="node16" class="node">
<title>MATH0026</title>
<g id="a_node16"><a xlink:href="https://www.ucl.ac.uk/maths/sites/maths/files/math0026.pdf" xlink:title="Year 3, term 1">
<polygon fill="white" stroke="#ff4040" stroke-width="5" points="462,-112 330,-112 330,-74 462,-74 462,-112"/>
<text text-anchor="middle" x="396" y="-96.8" font-family="Times,serif" font-size="14.00">MATH0026</text>
<text text-anchor="middle" x="396" y="-81.8" font-family="Times,serif" font-size="14.00">Biomathematics</text>
</a>
</g>
</g>
<!-- MATH0011&#45;&gt;MATH0026 -->
<g id="edge17" class="edge">
<title>MATH0011&#45;&gt;MATH0026</title>
<g id="a_edge17"><a xlink:title="required prerequisite">
<path fill="none" stroke="black" d="M774.59,-295.96C703.11,-275.93 591.73,-239.24 506,-186 474.73,-166.58 442.89,-138.91 421.57,-118.99"/>
<polygon fill="black" stroke="black" points="423.88,-116.36 414.21,-112.03 419.07,-121.45 423.88,-116.36"/>
</a>
</g>
</g>
<!-- MATH0011&#45;&gt;MATH0114 -->
<g id="edge22" class="edge">
<title>MATH0011&#45;&gt;MATH0114</title>
<g id="a_edge22"><a xlink:title="required prerequisite">
<path fill="none" stroke="black" d="M943.87,-303.32C1021.36,-294.1 1132.12,-279.25 1228,-260 1355.46,-234.41 1385.76,-220.89 1511,-186 1594.67,-162.69 1690.42,-134.07 1753.31,-115"/>
<polygon fill="black" stroke="black" points="1754.57,-118.28 1763.12,-112.03 1752.53,-111.58 1754.57,-118.28"/>
</a>
</g>
</g>
<!-- MATH0011&#45;&gt;MATH0102 -->
<g id="edge31" class="edge">
<title>MATH0011&#45;&gt;MATH0102</title>
<g id="a_edge31"><a xlink:title="required prerequisite">
<path fill="none" stroke="black" d="M748.31,-304.47C555.24,-283.33 136.52,-225.16 57,-112 28.15,-70.95 81.18,-47.84 139.98,-35.04"/>
<polygon fill="black" stroke="black" points="140.76,-38.46 149.84,-33 139.34,-31.6 140.76,-38.46"/>
</a>
</g>
</g>
<!-- MATH0011&#45;&gt;MATH0065 -->
<g id="edge39" class="edge">
<title>MATH0011&#45;&gt;MATH0065</title>
<g id="a_edge39"><a xlink:title="required prerequisite">
<path fill="none" stroke="black" d="M748.32,-300.1C695.19,-291.22 628.72,-277.98 571,-260 443.97,-220.44 302.22,-152 232.52,-116.62"/>
<polygon fill="black" stroke="black" points="234.07,-113.49 223.58,-112.07 230.9,-119.72 234.07,-113.49"/>
</a>
</g>
</g>
<!-- MATH0014 -->
<g id="node8" class="node">
<title>MATH0014</title>
<g id="a_node8"><a xlink:href="https://www.ucl.ac.uk/maths/sites/maths/files/math0014.pdf" xlink:title="Year 2, term 1">
<polygon fill="white" stroke="#00ff00" stroke-width="5" points="2098,-260 1838,-260 1838,-222 2098,-222 2098,-260"/>
<text text-anchor="middle" x="1968" y="-244.8" font-family="Times,serif" font-size="14.00">MATH0014</text>
<text text-anchor="middle" x="1968" y="-229.8" font-family="Times,serif" font-size="14.00">Algebra 3: Further Linear Algebra</text>
</a>
</g>
</g>
<!-- MATH0006&#45;&gt;MATH0014 -->
<g id="edge4" class="edge">
<title>MATH0006&#45;&gt;MATH0014</title>
<g id="a_edge4"><a xlink:title="required prerequisite">
<path fill="none" stroke="black" d="M1869.31,-295.83C1886.43,-286.49 1907.47,-275.02 1925.72,-265.06"/>
<polygon fill="black" stroke="black" points="1927.6,-268.02 1934.7,-260.16 1924.25,-261.88 1927.6,-268.02"/>
</a>
</g>
</g>
<!-- MATH0006&#45;&gt;MATH0058 -->
<g id="edge9" class="edge">
<title>MATH0006&#45;&gt;MATH0058</title>
<g id="a_edge9"><a xlink:title="required prerequisite">
<path fill="none" stroke="black" d="M1786.9,-297.25C1708.78,-270.6 1556.27,-218.58 1470.47,-189.31"/>
<polygon fill="black" stroke="black" points="1471.45,-185.95 1460.86,-186.03 1469.19,-192.57 1471.45,-185.95"/>
</a>
</g>
</g>
<!-- MATH0006&#45;&gt;MATH0033 -->
<g id="edge13" class="edge">
<title>MATH0006&#45;&gt;MATH0033</title>
<g id="a_edge13"><a xlink:title="required prerequisite">
<path fill="none" stroke="black" d="M1805.31,-296C1737.66,-256.3 1575.73,-161.31 1500.57,-117.22"/>
<polygon fill="black" stroke="black" points="1502.24,-114.14 1491.85,-112.1 1498.7,-120.18 1502.24,-114.14"/>
</a>
</g>
</g>
<!-- MATH0006&#45;&gt;MATH0114 -->
<g id="edge21" class="edge">
<title>MATH0006&#45;&gt;MATH0114</title>
<g id="a_edge21"><a xlink:title="required prerequisite">
<path fill="none" stroke="black" d="M1833.21,-295.55C1831.73,-285.13 1830.02,-271.87 1829,-260 1824.88,-211.97 1823.16,-155.91 1822.46,-122.77"/>
<polygon fill="black" stroke="black" points="1825.95,-122.39 1822.26,-112.46 1818.95,-122.52 1825.95,-122.39"/>
</a>
</g>
</g>
<!-- MATH0004&#45;&gt;MATH0013 -->
<g id="edge6" class="edge">
<title>MATH0004&#45;&gt;MATH0013</title>
<g id="a_edge6"><a xlink:title="recommended prerequisite">
<path fill="none" stroke="black" stroke-dasharray="5,2" d="M1595.94,-311.1C1486.99,-304.42 1216.4,-286.56 979.02,-260.07"/>
<polygon fill="black" stroke="black" points="979.14,-256.57 968.82,-258.93 978.36,-263.52 979.14,-256.57"/>
</a>
</g>
</g>
<!-- MATH0004&#45;&gt;MATH0114 -->
<g id="edge19" class="edge">
<title>MATH0004&#45;&gt;MATH0114</title>
<g id="a_edge19"><a xlink:title="required prerequisite">
<path fill="none" stroke="black" d="M1652.82,-295.91C1667.43,-263.54 1701.39,-194.74 1745,-148 1755.59,-136.65 1768.93,-126.28 1781.52,-117.73"/>
<polygon fill="black" stroke="black" points="1783.64,-120.53 1790.07,-112.12 1779.79,-114.68 1783.64,-120.53"/>
</a>
</g>
</g>
<!-- MATH0014&#45;&gt;MATH0114 -->
<g id="edge23" class="edge">
<title>MATH0014&#45;&gt;MATH0114</title>
<g id="a_edge23"><a xlink:title="required prerequisite">
<path fill="none" stroke="black" d="M1949.8,-221.8C1924.12,-196.12 1877.11,-149.11 1847.82,-119.82"/>
<polygon fill="black" stroke="black" points="1849.97,-117.02 1840.43,-112.43 1845.02,-121.97 1849.97,-117.02"/>
</a>
</g>
</g>
<!-- MATH0028 -->
<g id="node19" class="node">
<title>MATH0028</title>
<g id="a_node19"><a xlink:href="https://www.ucl.ac.uk/maths/sites/maths/files/math0028.pdf" xlink:title="Year 3, term 2">
<polygon fill="white" stroke="#cd3333" stroke-width="5" points="2281.5,-112 2066.5,-112 2066.5,-74 2281.5,-74 2281.5,-112"/>
<text text-anchor="middle" x="2174" y="-96.8" font-family="Times,serif" font-size="14.00">MATH0028</text>
<text text-anchor="middle" x="2174" y="-81.8" font-family="Times,serif" font-size="14.00">Combinatorial Optimisation</text>
</a>
</g>
</g>
<!-- MATH0014&#45;&gt;MATH0028 -->
<g id="edge27" class="edge">
<title>MATH0014&#45;&gt;MATH0028</title>
<g id="a_edge27"><a xlink:title="required prerequisite">
<path fill="none" stroke="black" d="M1993.67,-221.8C2030.63,-195.61 2098.88,-147.24 2139.99,-118.11"/>
<polygon fill="black" stroke="black" points="2142.19,-120.83 2148.33,-112.2 2138.14,-115.12 2142.19,-120.83"/>
</a>
</g>
</g>
<!-- MATH0056 -->
<g id="node12" class="node">
<title>MATH0056</title>
<g id="a_node12"><a xlink:href="https://www.ucl.ac.uk/maths/sites/maths/files/math0056.pdf" xlink:title="Year 2 or 3, term 2">
<polygon fill="white" stroke="#8ee5ee" stroke-width="5" points="980.5,-186 785.5,-186 785.5,-148 980.5,-148 980.5,-186"/>
<text text-anchor="middle" x="883" y="-170.8" font-family="Times,serif" font-size="14.00">MATH0056</text>
<text text-anchor="middle" x="883" y="-155.8" font-family="Times,serif" font-size="14.00">Mathematical Methods 4</text>
</a>
</g>
</g>
<!-- MATH0013&#45;&gt;MATH0056 -->
<g id="edge10" class="edge">
<title>MATH0013&#45;&gt;MATH0056</title>
<g id="a_edge10"><a xlink:title="required prerequisite">
<path fill="none" stroke="black" d="M861.32,-221.83C864.49,-213.96 868.27,-204.57 871.78,-195.85"/>
<polygon fill="black" stroke="black" points="875.09,-197 875.58,-186.41 868.6,-194.38 875.09,-197"/>
</a>
</g>
</g>
<!-- MATH0013&#45;&gt;MATH0065 -->
<g id="edge40" class="edge">
<title>MATH0013&#45;&gt;MATH0065</title>
<g id="a_edge40"><a xlink:title="required prerequisite">
<path fill="none" stroke="black" d="M739.29,-225.98C671.1,-216.7 583.15,-203.11 506,-186 417.18,-166.31 316.61,-135.66 253.02,-115.21"/>
<polygon fill="black" stroke="black" points="253.73,-111.77 243.14,-112.02 251.58,-118.43 253.73,-111.77"/>
</a>
</g>
</g>
<!-- MATH0016&#45;&gt;MATH0056 -->
<g id="edge11" class="edge">
<title>MATH0016&#45;&gt;MATH0056</title>
<g id="a_edge11"><a xlink:title="required prerequisite">
<path fill="none" stroke="black" d="M1033.54,-221.92C1006.06,-212.08 971.88,-199.84 943.04,-189.51"/>
<polygon fill="black" stroke="black" points="944.08,-186.16 933.48,-186.08 941.72,-192.75 944.08,-186.16"/>
</a>
</g>
</g>
<!-- MATH0031 -->
<g id="node18" class="node">
<title>MATH0031</title>
<g id="a_node18"><a xlink:href="https://www.ucl.ac.uk/maths/sites/maths/files/math0031.pdf" xlink:title="Year 3, term 2">
<polygon fill="white" stroke="#cd3333" stroke-width="5" points="697.5,-112 518.5,-112 518.5,-74 697.5,-74 697.5,-112"/>
<text text-anchor="middle" x="608" y="-96.8" font-family="Times,serif" font-size="14.00">MATH0031</text>
<text text-anchor="middle" x="608" y="-81.8" font-family="Times,serif" font-size="14.00">Financial Mathematics</text>
</a>
</g>
</g>
<!-- MATH0016&#45;&gt;MATH0031 -->
<g id="edge25" class="edge">
<title>MATH0016&#45;&gt;MATH0031</title>
<g id="a_edge25"><a xlink:title="required prerequisite">
<path fill="none" stroke="black" d="M986.16,-223.36C897.85,-208.27 780.97,-188.06 776,-186 748.89,-174.75 747.35,-162.78 722,-148 702.24,-136.48 679.62,-125.37 659.77,-116.25"/>
<polygon fill="black" stroke="black" points="661.12,-113.02 650.57,-112.08 658.23,-119.4 661.12,-113.02"/>
</a>
</g>
</g>
<!-- MATH0117 -->
<g id="node20" class="node">
<title>MATH0117</title>
<g id="a_node20"><a xlink:href="https://www.ucl.ac.uk/maths/sites/maths/files/math0117.pdf" xlink:title="Year 3 or 4, term 2">
<polygon fill="white" stroke="#cd1076" stroke-width="5" points="1293.5,-38 1066.5,-38 1066.5,0 1293.5,0 1293.5,-38"/>
<text text-anchor="middle" x="1180" y="-22.8" font-family="Times,serif" font-size="14.00">MATH0117</text>
<text text-anchor="middle" x="1180" y="-7.8" font-family="Times,serif" font-size="14.00">Spatial Mathematical Biology</text>
</a>
</g>
</g>
<!-- MATH0016&#45;&gt;MATH0117 -->
<g id="edge29" class="edge">
<title>MATH0016&#45;&gt;MATH0117</title>
<g id="a_edge29"><a xlink:title="required prerequisite">
<path fill="none" stroke="black" d="M1088.35,-221.85C1096.26,-190.55 1114.64,-124.86 1141,-74 1145.95,-64.45 1152.45,-54.71 1158.72,-46.18"/>
<polygon fill="black" stroke="black" points="1161.59,-48.19 1164.85,-38.11 1156.01,-43.96 1161.59,-48.19"/>
</a>
</g>
</g>
<!-- MATH0088 -->
<g id="node25" class="node">
<title>MATH0088</title>
<g id="a_node25"><a xlink:href="https://www.ucl.ac.uk/maths/sites/maths/files/math0088.pdf" xlink:title="Year 4, term 2">
<polygon fill="white" stroke="#1874cd" stroke-width="5" points="875.5,-38 568.5,-38 568.5,0 875.5,0 875.5,-38"/>
<text text-anchor="middle" x="722" y="-22.8" font-family="Times,serif" font-size="14.00">MATH0088</text>
<text text-anchor="middle" x="722" y="-7.8" font-family="Times,serif" font-size="14.00">Quantitative and Computational Finance</text>
</a>
</g>
</g>
<!-- MATH0016&#45;&gt;MATH0088 -->
<g id="edge44" class="edge">
<title>MATH0016&#45;&gt;MATH0088</title>
<g id="a_edge44"><a xlink:title="required prerequisite">
<path fill="none" stroke="black" d="M1088.21,-221.87C1094.91,-187.86 1103.64,-114.31 1065,-74 1039.7,-47.61 961.36,-34.1 885.93,-27.2"/>
<polygon fill="black" stroke="black" points="886.06,-23.69 875.79,-26.31 885.45,-30.67 886.06,-23.69"/>
</a>
</g>
</g>
<!-- MATH0058&#45;&gt;MATH0033 -->
<g id="edge15" class="edge">
<title>MATH0058&#45;&gt;MATH0033</title>
<g id="a_edge15"><a xlink:title="required prerequisite">
<path fill="none" stroke="black" d="M1421.37,-147.83C1427.42,-139.62 1434.68,-129.76 1441.32,-120.73"/>
<polygon fill="black" stroke="black" points="1444.34,-122.54 1447.45,-112.41 1438.7,-118.39 1444.34,-122.54"/>
</a>
</g>
</g>
<!-- MATH0086 -->
<g id="node23" class="node">
<title>MATH0086</title>
<g id="a_node23"><a xlink:href="https://www.ucl.ac.uk/maths/sites/maths/files/math0086.pdf" xlink:title="Year 4, term 1">
<polygon fill="white" stroke="#1c86ee" stroke-width="5" points="1055.5,-112 754.5,-112 754.5,-74 1055.5,-74 1055.5,-112"/>
<text text-anchor="middle" x="905" y="-96.8" font-family="Times,serif" font-size="14.00">MATH0086</text>
<text text-anchor="middle" x="905" y="-81.8" font-family="Times,serif" font-size="14.00">Computational and Simulation Methods</text>
</a>
</g>
</g>
<!-- MATH0058&#45;&gt;MATH0086 -->
<g id="edge37" class="edge">
<title>MATH0058&#45;&gt;MATH0086</title>
<g id="a_edge37"><a xlink:title="recommended prerequisite">
<path fill="none" stroke="black" stroke-dasharray="5,2" d="M1313.98,-152.54C1237.12,-141.54 1127.43,-125.84 1040.99,-113.47"/>
<polygon fill="black" stroke="black" points="1041.23,-109.96 1030.84,-112.01 1040.24,-116.89 1041.23,-109.96"/>
</a>
</g>
</g>
<!-- MATH0056&#45;&gt;MATH0102 -->
<g id="edge32" class="edge">
<title>MATH0056&#45;&gt;MATH0102</title>
<g id="a_edge32"><a xlink:title="recommended prerequisite">
<path fill="none" stroke="black" stroke-dasharray="5,2" d="M821.72,-147.94C796.82,-139.13 768.46,-127.13 745,-112 724.66,-98.89 727.83,-84.44 706,-74 649.53,-46.99 489,-32.66 376.32,-25.7"/>
<polygon fill="black" stroke="black" points="376.44,-22.2 366.25,-25.09 376.02,-29.19 376.44,-22.2"/>
</a>
</g>
</g>
<!-- MATH0056&#45;&gt;MATH0086 -->
<g id="edge36" class="edge">
<title>MATH0056&#45;&gt;MATH0086</title>
<g id="a_edge36"><a xlink:title="required prerequisite">
<path fill="none" stroke="black" d="M888.55,-147.83C890.93,-140.05 893.76,-130.77 896.4,-122.13"/>
<polygon fill="black" stroke="black" points="899.8,-123 899.37,-112.41 893.1,-120.95 899.8,-123"/>
</a>
</g>
</g>
<!-- MATH0057&#45;&gt;MATH0114 -->
<g id="edge24" class="edge">
<title>MATH0057&#45;&gt;MATH0114</title>
<g id="a_edge24"><a xlink:title="recommended prerequisite">
<path fill="none" stroke="black" stroke-dasharray="5,2" d="M713.29,-153.95C733.99,-151.72 755.69,-149.6 776,-148 1118.87,-121 1205.61,-131.31 1549,-112 1560.76,-111.34 1572.81,-110.64 1584.97,-109.91"/>
<polygon fill="black" stroke="black" points="1585.45,-113.38 1595.22,-109.29 1585.02,-106.4 1585.45,-113.38"/>
</a>
</g>
</g>
<!-- MATH0057&#45;&gt;MATH0031 -->
<g id="edge26" class="edge">
<title>MATH0057&#45;&gt;MATH0031</title>
<g id="a_edge26"><a xlink:title="required prerequisite">
<path fill="none" stroke="black" d="M612.49,-147.83C611.84,-140.13 611.08,-130.97 610.37,-122.42"/>
<polygon fill="black" stroke="black" points="613.85,-122.09 609.53,-112.41 606.88,-122.67 613.85,-122.09"/>
</a>
</g>
</g>
<!-- MATH0057&#45;&gt;MATH0102 -->
<g id="edge35" class="edge">
<title>MATH0057&#45;&gt;MATH0102</title>
<g id="a_edge35"><a xlink:title="recommended prerequisite">
<path fill="none" stroke="black" stroke-dasharray="5,2" d="M571.63,-147.91C551.77,-138.52 528.29,-126.07 509,-112 489.7,-97.92 491.76,-85.8 471,-74 442.07,-57.56 408.13,-46.05 375.94,-38.02"/>
<polygon fill="black" stroke="black" points="376.56,-34.57 366.02,-35.64 374.93,-41.38 376.56,-34.57"/>
</a>
</g>
</g>
<!-- MATH0030&#45;&gt;MATH0117 -->
<g id="edge28" class="edge">
<title>MATH0030&#45;&gt;MATH0117</title>
<g id="a_edge28"><a xlink:title="required prerequisite">
<path fill="none" stroke="black" d="M1223.36,-73.83C1216.68,-65.54 1208.64,-55.56 1201.31,-46.45"/>
<polygon fill="black" stroke="black" points="1203.83,-44.01 1194.83,-38.41 1198.38,-48.4 1203.83,-44.01"/>
</a>
</g>
</g>
<!-- MATH0031&#45;&gt;MATH0102 -->
<g id="edge33" class="edge">
<title>MATH0031&#45;&gt;MATH0102</title>
<g id="a_edge33"><a xlink:title="recommended prerequisite">
<path fill="none" stroke="black" stroke-dasharray="5,2" d="M520.13,-73.92C470.01,-63.61 407.07,-50.67 355.44,-40.04"/>
<polygon fill="black" stroke="black" points="356.1,-36.61 345.6,-38.02 354.69,-43.46 356.1,-36.61"/>
</a>
</g>
</g>
<!-- MATH0031&#45;&gt;MATH0088 -->
<g id="edge45" class="edge">
<title>MATH0031&#45;&gt;MATH0088</title>
<g id="a_edge45"><a xlink:title="recommended prerequisite">
<path fill="none" stroke="black" stroke-dasharray="5,2" d="M636.77,-73.83C651.21,-64.71 668.9,-53.54 684.4,-43.74"/>
<polygon fill="black" stroke="black" points="686.66,-46.46 693.24,-38.16 682.92,-40.54 686.66,-46.46"/>
</a>
</g>
</g>
<!-- MATH0065&#45;&gt;MATH0102 -->
<g id="edge34" class="edge">
<title>MATH0065&#45;&gt;MATH0102</title>
<g id="a_edge34"><a xlink:title="recommended prerequisite">
<path fill="none" stroke="black" stroke-dasharray="5,2" d="M206.41,-73.83C214.52,-65.37 224.32,-55.15 233.18,-45.9"/>
<polygon fill="black" stroke="black" points="235.96,-48.05 240.35,-38.41 230.91,-43.21 235.96,-48.05"/>
</a>
</g>
</g>
</g>
</svg>
