<?xml version="1.0" encoding="UTF-8" standalone="no"?>
<!DOCTYPE svg PUBLIC "-//W3C//DTD SVG 1.1//EN"
 "http://www.w3.org/Graphics/SVG/1.1/DTD/svg11.dtd">
<!-- Generated by graphviz version 12.2.1 (0)
 -->
<!-- Pages: 1 -->
<svg width="2404pt" height="443pt"
 viewBox="0.00 0.00 2404.25 443.00" xmlns="http://www.w3.org/2000/svg" xmlns:xlink="http://www.w3.org/1999/xlink">
<g id="graph0" class="graph" transform="scale(1 1) rotate(0) translate(4 439)">
<polygon fill="white" stroke="none" points="-4,4 -4,-439 2400.25,-439 2400.25,4 -4,4"/>
<!-- MATH0008 -->
<g id="node1" class="node">
<title>MATH0008</title>
<g id="a_node1"><a xlink:href="https://www.ucl.ac.uk/maths/sites/maths/files/math0008.pdf" xlink:title="Year 1, term 1">
<polygon fill="white" stroke="#ffb90f" stroke-width="5" points="2396.25,-435 2228.75,-435 2228.75,-392.5 2396.25,-392.5 2396.25,-435"/>
<text text-anchor="middle" x="2312.5" y="-417.7" font-family="Times,serif" font-size="14.00">MATH0008</text>
<text text-anchor="middle" x="2312.5" y="-400.45" font-family="Times,serif" font-size="14.00">Applied Mathematics</text>
</a>
</g>
</g>
<!-- MATH0082 -->
<g id="node24" class="node">
<title>MATH0082</title>
<g id="a_node24"><a xlink:href="https://www.ucl.ac.uk/maths/sites/maths/files/math0082.pdf" xlink:title="Year 4, term 2">
<polygon fill="white" stroke="#1874cd" stroke-width="5" points="1741.75,-42.5 1403.25,-42.5 1403.25,0 1741.75,0 1741.75,-42.5"/>
<text text-anchor="middle" x="1572.5" y="-25.2" font-family="Times,serif" font-size="14.00">MATH0082</text>
<text text-anchor="middle" x="1572.5" y="-7.95" font-family="Times,serif" font-size="14.00">Evolutionary Games and Population Genetics</text>
</a>
</g>
</g>
<!-- MATH0008&#45;&gt;MATH0082 -->
<g id="edge41" class="edge">
<title>MATH0008&#45;&gt;MATH0082</title>
<path fill="none" stroke="black" d="M2312.5,-390.16C2312.5,-359.98 2312.5,-304.84 2312.5,-257.75 2312.5,-257.75 2312.5,-257.75 2312.5,-177.25 2312.5,-132.56 2326.83,-108.28 2293.5,-78.5 2254.16,-43.35 1955.7,-30.11 1755.32,-25.16"/>
<polygon fill="black" stroke="black" points="1755.66,-21.67 1745.57,-24.92 1755.49,-28.66 1755.66,-21.67"/>
</g>
<!-- MATH0010 -->
<g id="node2" class="node">
<title>MATH0010</title>
<g id="a_node2"><a xlink:href="https://www.ucl.ac.uk/maths/sites/maths/files/math0010.pdf" xlink:title="Year 1, term 1">
<polygon fill="white" stroke="#ffb90f" stroke-width="5" points="860.75,-435 666.25,-435 666.25,-392.5 860.75,-392.5 860.75,-435"/>
<text text-anchor="middle" x="763.5" y="-417.7" font-family="Times,serif" font-size="14.00">MATH0010</text>
<text text-anchor="middle" x="763.5" y="-400.45" font-family="Times,serif" font-size="14.00">Mathematical Methods 1</text>
</a>
</g>
</g>
<!-- MATH0011 -->
<g id="node6" class="node">
<title>MATH0011</title>
<g id="a_node6"><a xlink:href="https://www.ucl.ac.uk/maths/sites/maths/files/math0011_2.pdf" xlink:title="Year 1, term 2">
<polygon fill="white" stroke="#cd950c" stroke-width="5" points="922.75,-356.5 728.25,-356.5 728.25,-314 922.75,-314 922.75,-356.5"/>
<text text-anchor="middle" x="825.5" y="-339.2" font-family="Times,serif" font-size="14.00">MATH0011</text>
<text text-anchor="middle" x="825.5" y="-321.95" font-family="Times,serif" font-size="14.00">Mathematical Methods 2</text>
</a>
</g>
</g>
<!-- MATH0010&#45;&gt;MATH0011 -->
<g id="edge2" class="edge">
<title>MATH0010&#45;&gt;MATH0011</title>
<path fill="none" stroke="black" d="M781.77,-390.21C787.52,-383.12 793.98,-375.15 800.13,-367.56"/>
<polygon fill="black" stroke="black" points="802.62,-370.04 806.2,-360.07 797.18,-365.63 802.62,-370.04"/>
</g>
<!-- MATH0058 -->
<g id="node13" class="node">
<title>MATH0058</title>
<g id="a_node13"><a xlink:href="https://www.ucl.ac.uk/maths/sites/maths/files/math0058.pdf" xlink:title="Year 2 or 3, term 2">
<polygon fill="white" stroke="#8ee5ee" stroke-width="5" points="1482.38,-199.5 1294.62,-199.5 1294.62,-157 1482.38,-157 1482.38,-199.5"/>
<text text-anchor="middle" x="1388.5" y="-182.2" font-family="Times,serif" font-size="14.00">MATH0058</text>
<text text-anchor="middle" x="1388.5" y="-164.95" font-family="Times,serif" font-size="14.00">Computational Methods</text>
</a>
</g>
</g>
<!-- MATH0010&#45;&gt;MATH0058 -->
<g id="edge11" class="edge">
<title>MATH0010&#45;&gt;MATH0058</title>
<path fill="none" stroke="black" d="M833.64,-390.08C863.86,-380.1 899.53,-368.04 931.5,-356.5 1071.48,-305.95 1233.49,-241.74 1322.1,-206.13"/>
<polygon fill="black" stroke="black" points="1323.16,-209.48 1331.13,-202.5 1320.55,-202.98 1323.16,-209.48"/>
</g>
<!-- MATH0030 -->
<g id="node14" class="node">
<title>MATH0030</title>
<g id="a_node14"><a xlink:href="https://www.ucl.ac.uk/maths/sites/maths/files/math0030.pdf" xlink:title="Year 3, term 1">
<polygon fill="white" stroke="#ff4040" stroke-width="5" points="175,-121 0,-121 0,-78.5 175,-78.5 175,-121"/>
<text text-anchor="middle" x="87.5" y="-103.7" font-family="Times,serif" font-size="14.00">MATH0030</text>
<text text-anchor="middle" x="87.5" y="-86.45" font-family="Times,serif" font-size="14.00">Mathematical Ecology</text>
</a>
</g>
</g>
<!-- MATH0010&#45;&gt;MATH0030 -->
<g id="edge13" class="edge">
<title>MATH0010&#45;&gt;MATH0030</title>
<path fill="none" stroke="black" d="M663.8,-390.25C575.72,-368.25 445.2,-330.42 339.5,-278 255.94,-236.56 169.29,-169.34 122.54,-130.68"/>
<polygon fill="black" stroke="black" points="124.82,-128.02 114.89,-124.31 120.34,-133.4 124.82,-128.02"/>
</g>
<!-- MATH0102 -->
<g id="node21" class="node">
<title>MATH0102</title>
<g id="a_node21"><a xlink:href="https://www.ucl.ac.uk/maths/sites/maths/files/math0102.pdf" xlink:title="Year 3 or 4, term 2">
<polygon fill="white" stroke="#cd1076" stroke-width="5" points="908.25,-42.5 692.75,-42.5 692.75,0 908.25,0 908.25,-42.5"/>
<text text-anchor="middle" x="800.5" y="-25.2" font-family="Times,serif" font-size="14.00">MATH0102</text>
<text text-anchor="middle" x="800.5" y="-7.95" font-family="Times,serif" font-size="14.00">Applied Stochastic Methods</text>
</a>
</g>
</g>
<!-- MATH0010&#45;&gt;MATH0102 -->
<g id="edge30" class="edge">
<title>MATH0010&#45;&gt;MATH0102</title>
<path fill="none" stroke="black" d="M722.55,-390.05C681.55,-363.97 624.5,-317.03 624.5,-257.75 624.5,-257.75 624.5,-257.75 624.5,-177.25 624.5,-128.64 636.57,-112.3 671.5,-78.5 683.6,-66.79 698.53,-57.31 713.89,-49.71"/>
<polygon fill="black" stroke="black" points="715.07,-53.02 722.66,-45.62 712.11,-46.68 715.07,-53.02"/>
</g>
<!-- MATH0065 -->
<g id="node22" class="node">
<title>MATH0065</title>
<g id="a_node22"><a xlink:href="https://www.ucl.ac.uk/maths/sites/maths/files/math0065.pdf" xlink:title="Year 4, term 1">
<polygon fill="white" stroke="#1c86ee" stroke-width="5" points="936.25,-121 690.75,-121 690.75,-78.5 936.25,-78.5 936.25,-121"/>
<text text-anchor="middle" x="813.5" y="-103.7" font-family="Times,serif" font-size="14.00">MATH0065</text>
<text text-anchor="middle" x="813.5" y="-86.45" font-family="Times,serif" font-size="14.00">Advanced Modelling Techniques</text>
</a>
</g>
</g>
<!-- MATH0010&#45;&gt;MATH0065 -->
<g id="edge38" class="edge">
<title>MATH0010&#45;&gt;MATH0065</title>
<path fill="none" stroke="black" d="M740.29,-390.24C732.06,-380.7 723.78,-368.93 719.5,-356.5 713.35,-338.64 717.72,-332.8 719.5,-314 726.2,-243.28 714.25,-218.68 749.5,-157 755,-147.37 762.77,-138.56 771,-130.91"/>
<polygon fill="black" stroke="black" points="773.28,-133.57 778.54,-124.37 768.69,-128.28 773.28,-133.57"/>
</g>
<!-- MATH0010&#45;&gt;MATH0082 -->
<g id="edge42" class="edge">
<title>MATH0010&#45;&gt;MATH0082</title>
<path fill="none" stroke="black" d="M862.99,-407.84C1043.86,-396.86 1416.43,-364.16 1508.5,-278 1540.68,-247.88 1560.66,-118.34 1568.59,-56.01"/>
<polygon fill="black" stroke="black" points="1572.03,-56.7 1569.78,-46.34 1565.08,-55.84 1572.03,-56.7"/>
</g>
<!-- MATH0005 -->
<g id="node3" class="node">
<title>MATH0005</title>
<g id="a_node3"><a xlink:href="https://www.ucl.ac.uk/maths/sites/maths/files/math0005.pdf" xlink:title="Year 1, term 1">
<polygon fill="white" stroke="#ffb90f" stroke-width="5" points="2052,-435 1955,-435 1955,-392.5 2052,-392.5 2052,-435"/>
<text text-anchor="middle" x="2003.5" y="-417.7" font-family="Times,serif" font-size="14.00">MATH0005</text>
<text text-anchor="middle" x="2003.5" y="-400.45" font-family="Times,serif" font-size="14.00">Algebra 1</text>
</a>
</g>
</g>
<!-- MATH0006 -->
<g id="node5" class="node">
<title>MATH0006</title>
<g id="a_node5"><a xlink:href="https://www.ucl.ac.uk/maths/sites/maths/files/math0006.pdf" xlink:title="Year 1, term 2">
<polygon fill="white" stroke="#cd950c" stroke-width="5" points="1914,-356.5 1817,-356.5 1817,-314 1914,-314 1914,-356.5"/>
<text text-anchor="middle" x="1865.5" y="-339.2" font-family="Times,serif" font-size="14.00">MATH0006</text>
<text text-anchor="middle" x="1865.5" y="-321.95" font-family="Times,serif" font-size="14.00">Algebra 2</text>
</a>
</g>
</g>
<!-- MATH0005&#45;&gt;MATH0006 -->
<g id="edge1" class="edge">
<title>MATH0005&#45;&gt;MATH0006</title>
<path fill="none" stroke="black" d="M1962.47,-390C1947.87,-381.91 1931.26,-372.7 1915.96,-364.22"/>
<polygon fill="black" stroke="black" points="1917.9,-361.3 1907.46,-359.51 1914.51,-367.42 1917.9,-361.3"/>
</g>
<!-- MATH0114 -->
<g id="node17" class="node">
<title>MATH0114</title>
<g id="a_node17"><a xlink:href="https://www.ucl.ac.uk/maths/sites/maths/files/math0114_0.pdf" xlink:title="Year 3, term 2">
<polygon fill="white" stroke="#cd3333" stroke-width="5" points="2052.75,-121 1600.25,-121 1600.25,-78.5 2052.75,-78.5 2052.75,-121"/>
<text text-anchor="middle" x="1826.5" y="-103.7" font-family="Times,serif" font-size="14.00">MATH0114</text>
<text text-anchor="middle" x="1826.5" y="-86.45" font-family="Times,serif" font-size="14.00">Mathematics for Machine Learning and Artificial Intelligence</text>
</a>
</g>
</g>
<!-- MATH0005&#45;&gt;MATH0114 -->
<g id="edge20" class="edge">
<title>MATH0005&#45;&gt;MATH0114</title>
<path fill="none" stroke="black" d="M2038.53,-390.03C2085.69,-356.51 2159.73,-291.73 2123.5,-235.5 2087.12,-179.04 2020.68,-145.97 1959.85,-126.74"/>
<polygon fill="black" stroke="black" points="1961,-123.43 1950.41,-123.86 1958.96,-130.12 1961,-123.43"/>
</g>
<!-- MATH0003 -->
<g id="node4" class="node">
<title>MATH0003</title>
<g id="a_node4"><a xlink:href="https://www.ucl.ac.uk/maths/sites/maths/files/math0003.pdf" xlink:title="Year 1, term 1">
<polygon fill="white" stroke="#ffb90f" stroke-width="5" points="1690,-435 1593,-435 1593,-392.5 1690,-392.5 1690,-435"/>
<text text-anchor="middle" x="1641.5" y="-417.7" font-family="Times,serif" font-size="14.00">MATH0003</text>
<text text-anchor="middle" x="1641.5" y="-400.45" font-family="Times,serif" font-size="14.00">Analysis 1</text>
</a>
</g>
</g>
<!-- MATH0004 -->
<g id="node7" class="node">
<title>MATH0004</title>
<g id="a_node7"><a xlink:href="https://www.ucl.ac.uk/maths/sites/maths/files/math0004.pdf" xlink:title="Year 1, term 2">
<polygon fill="white" stroke="#cd950c" stroke-width="5" points="1729,-356.5 1632,-356.5 1632,-314 1729,-314 1729,-356.5"/>
<text text-anchor="middle" x="1680.5" y="-339.2" font-family="Times,serif" font-size="14.00">MATH0004</text>
<text text-anchor="middle" x="1680.5" y="-321.95" font-family="Times,serif" font-size="14.00">Analysis 2</text>
</a>
</g>
</g>
<!-- MATH0003&#45;&gt;MATH0004 -->
<g id="edge3" class="edge">
<title>MATH0003&#45;&gt;MATH0004</title>
<path fill="none" stroke="black" d="M1652.99,-390.21C1656.37,-383.58 1660.14,-376.18 1663.78,-369.04"/>
<polygon fill="black" stroke="black" points="1666.85,-370.74 1668.27,-360.24 1660.61,-367.56 1666.85,-370.74"/>
</g>
<!-- MATH0013 -->
<g id="node10" class="node">
<title>MATH0013</title>
<g id="a_node10"><a xlink:href="https://www.ucl.ac.uk/maths/sites/maths/files/math0013.pdf" xlink:title="Year 2, term 1">
<polygon fill="white" stroke="#00ff00" stroke-width="5" points="1499.62,-278 1271.38,-278 1271.38,-235.5 1499.62,-235.5 1499.62,-278"/>
<text text-anchor="middle" x="1385.5" y="-260.7" font-family="Times,serif" font-size="14.00">MATH0013</text>
<text text-anchor="middle" x="1385.5" y="-243.45" font-family="Times,serif" font-size="14.00">Analysis 3 &#45; Complex Analysis</text>
</a>
</g>
</g>
<!-- MATH0003&#45;&gt;MATH0013 -->
<g id="edge6" class="edge">
<title>MATH0003&#45;&gt;MATH0013</title>
<path fill="none" stroke="black" d="M1604,-390.05C1558.53,-362.51 1481.85,-316.09 1432.48,-286.19"/>
<polygon fill="black" stroke="black" points="1434.34,-283.23 1423.98,-281.05 1430.72,-289.22 1434.34,-283.23"/>
</g>
<!-- MATH0003&#45;&gt;MATH0114 -->
<g id="edge18" class="edge">
<title>MATH0003&#45;&gt;MATH0114</title>
<path fill="none" stroke="black" d="M1692.39,-392.02C1708.98,-383.17 1726.26,-371.38 1738.5,-356.5 1793.16,-290.05 1814.65,-187.71 1822.46,-134.89"/>
<polygon fill="black" stroke="black" points="1825.93,-135.38 1823.84,-124.99 1818.99,-134.41 1825.93,-135.38"/>
</g>
<!-- MATH0003&#45;&gt;MATH0082 -->
<g id="edge43" class="edge">
<title>MATH0003&#45;&gt;MATH0082</title>
<path fill="none" stroke="black" d="M1633.4,-390.26C1629.97,-380.06 1626.15,-367.78 1623.5,-356.5 1598.03,-248.01 1582.29,-116.61 1575.86,-55.94"/>
<polygon fill="black" stroke="black" points="1579.37,-55.87 1574.85,-46.29 1572.4,-56.59 1579.37,-55.87"/>
</g>
<!-- MATH0014 -->
<g id="node8" class="node">
<title>MATH0014</title>
<g id="a_node8"><a xlink:href="https://www.ucl.ac.uk/maths/sites/maths/files/math0014.pdf" xlink:title="Year 2, term 1">
<polygon fill="white" stroke="#00ff00" stroke-width="5" points="2114.38,-278 1854.62,-278 1854.62,-235.5 2114.38,-235.5 2114.38,-278"/>
<text text-anchor="middle" x="1984.5" y="-260.7" font-family="Times,serif" font-size="14.00">MATH0014</text>
<text text-anchor="middle" x="1984.5" y="-243.45" font-family="Times,serif" font-size="14.00">Algebra 3: Further Linear Algebra</text>
</a>
</g>
</g>
<!-- MATH0006&#45;&gt;MATH0014 -->
<g id="edge4" class="edge">
<title>MATH0006&#45;&gt;MATH0014</title>
<path fill="none" stroke="black" d="M1900.88,-311.5C1913.11,-303.64 1926.98,-294.73 1939.85,-286.45"/>
<polygon fill="black" stroke="black" points="1941.67,-289.45 1948.19,-281.09 1937.88,-283.56 1941.67,-289.45"/>
</g>
<!-- MATH0006&#45;&gt;MATH0058 -->
<g id="edge12" class="edge">
<title>MATH0006&#45;&gt;MATH0058</title>
<path fill="none" stroke="black" d="M1814.9,-317.81C1732.28,-290.96 1567.73,-237.49 1468.96,-205.39"/>
<polygon fill="black" stroke="black" points="1470.17,-202.11 1459.57,-202.35 1468,-208.76 1470.17,-202.11"/>
</g>
<!-- MATH0033 -->
<g id="node16" class="node">
<title>MATH0033</title>
<g id="a_node16"><a xlink:href="https://www.ucl.ac.uk/maths/sites/maths/files/math0033.pdf" xlink:title="Year 3, term 1">
<polygon fill="white" stroke="#ff4040" stroke-width="5" points="1506,-121 1349,-121 1349,-78.5 1506,-78.5 1506,-121"/>
<text text-anchor="middle" x="1427.5" y="-103.7" font-family="Times,serif" font-size="14.00">MATH0033</text>
<text text-anchor="middle" x="1427.5" y="-86.45" font-family="Times,serif" font-size="14.00">Numerical Methods</text>
</a>
</g>
</g>
<!-- MATH0006&#45;&gt;MATH0033 -->
<g id="edge15" class="edge">
<title>MATH0006&#45;&gt;MATH0033</title>
<path fill="none" stroke="black" d="M1823.1,-311.65C1742.56,-268.71 1567.66,-175.47 1479.92,-128.7"/>
<polygon fill="black" stroke="black" points="1481.73,-125.69 1471.25,-124.08 1478.43,-131.87 1481.73,-125.69"/>
</g>
<!-- MATH0006&#45;&gt;MATH0114 -->
<g id="edge21" class="edge">
<title>MATH0006&#45;&gt;MATH0114</title>
<path fill="none" stroke="black" d="M1856.08,-311.62C1852.23,-301.5 1848.08,-289.32 1845.5,-278 1834.31,-228.93 1829.67,-170.68 1827.77,-134.71"/>
<polygon fill="black" stroke="black" points="1831.28,-134.75 1827.3,-124.93 1824.29,-135.08 1831.28,-134.75"/>
</g>
<!-- MATH0016 -->
<g id="node9" class="node">
<title>MATH0016</title>
<g id="a_node9"><a xlink:href="https://www.ucl.ac.uk/maths/sites/maths/files/math0016.pdf" xlink:title="Year 2, term 1">
<polygon fill="white" stroke="#00ff00" stroke-width="5" points="596.75,-278 402.25,-278 402.25,-235.5 596.75,-235.5 596.75,-278"/>
<text text-anchor="middle" x="499.5" y="-260.7" font-family="Times,serif" font-size="14.00">MATH0016</text>
<text text-anchor="middle" x="499.5" y="-243.45" font-family="Times,serif" font-size="14.00">Mathematical Methods 3</text>
</a>
</g>
</g>
<!-- MATH0011&#45;&gt;MATH0016 -->
<g id="edge5" class="edge">
<title>MATH0011&#45;&gt;MATH0016</title>
<path fill="none" stroke="black" d="M728.57,-311.5C690.48,-302.57 646.6,-292.27 607.5,-283.09"/>
<polygon fill="black" stroke="black" points="608.34,-279.7 597.81,-280.82 606.75,-286.51 608.34,-279.7"/>
</g>
<!-- MATH0057 -->
<g id="node11" class="node">
<title>MATH0057</title>
<g id="a_node11"><a xlink:href="https://www.ucl.ac.uk/maths/sites/maths/files/math0057.pdf" xlink:title="Year 2 or 3, term 2">
<polygon fill="white" stroke="#8ee5ee" stroke-width="5" points="964.25,-199.5 766.75,-199.5 766.75,-157 964.25,-157 964.25,-199.5"/>
<text text-anchor="middle" x="865.5" y="-182.2" font-family="Times,serif" font-size="14.00">MATH0057</text>
<text text-anchor="middle" x="865.5" y="-164.95" font-family="Times,serif" font-size="14.00">Probability and Statistics</text>
</a>
</g>
</g>
<!-- MATH0011&#45;&gt;MATH0057 -->
<g id="edge8" class="edge">
<title>MATH0011&#45;&gt;MATH0057</title>
<path fill="none" stroke="black" d="M831.32,-311.71C838.04,-285.65 849.17,-242.52 856.9,-212.58"/>
<polygon fill="black" stroke="black" points="860.19,-213.84 859.3,-203.28 853.41,-212.09 860.19,-213.84"/>
</g>
<!-- MATH0026 -->
<g id="node15" class="node">
<title>MATH0026</title>
<g id="a_node15"><a xlink:href="https://www.ucl.ac.uk/maths/sites/maths/files/math0026.pdf" xlink:title="Year 3, term 1">
<polygon fill="white" stroke="#ff4040" stroke-width="5" points="324.25,-121 192.75,-121 192.75,-78.5 324.25,-78.5 324.25,-121"/>
<text text-anchor="middle" x="258.5" y="-103.7" font-family="Times,serif" font-size="14.00">MATH0026</text>
<text text-anchor="middle" x="258.5" y="-86.45" font-family="Times,serif" font-size="14.00">Biomathematics</text>
</a>
</g>
</g>
<!-- MATH0011&#45;&gt;MATH0026 -->
<g id="edge14" class="edge">
<title>MATH0011&#45;&gt;MATH0026</title>
<path fill="none" stroke="black" d="M725.97,-330.11C616.35,-324.02 448.32,-309.73 393.5,-278 335.42,-244.38 294.06,-174.92 273.43,-133.64"/>
<polygon fill="black" stroke="black" points="276.58,-132.12 269.06,-124.65 270.29,-135.18 276.58,-132.12"/>
</g>
<!-- MATH0011&#45;&gt;MATH0033 -->
<g id="edge16" class="edge">
<title>MATH0011&#45;&gt;MATH0033</title>
<path fill="none" stroke="black" d="M914.84,-311.6C997.39,-288.93 1122.2,-250.15 1223.5,-199.5 1253.38,-184.56 1256.01,-172.69 1285.5,-157 1306.12,-146.03 1329.36,-135.95 1350.98,-127.44"/>
<polygon fill="black" stroke="black" points="1351.97,-130.81 1360.03,-123.94 1349.44,-124.28 1351.97,-130.81"/>
</g>
<!-- MATH0011&#45;&gt;MATH0114 -->
<g id="edge22" class="edge">
<title>MATH0011&#45;&gt;MATH0114</title>
<path fill="none" stroke="black" d="M925.06,-331.23C1087.53,-325.43 1402.21,-310.34 1508.5,-278 1564.78,-260.88 1707.34,-174.94 1780.96,-129.32"/>
<polygon fill="black" stroke="black" points="1782.51,-132.47 1789.16,-124.22 1778.81,-126.53 1782.51,-132.47"/>
</g>
<!-- MATH0011&#45;&gt;MATH0102 -->
<g id="edge31" class="edge">
<title>MATH0011&#45;&gt;MATH0102</title>
<path fill="none" stroke="black" d="M797.64,-311.58C786.81,-301.94 774.8,-290.12 765.5,-278 717.33,-215.21 700.74,-197.76 681.5,-121 676.91,-102.68 671.39,-94.46 681.5,-78.5 688.71,-67.11 698.92,-57.99 710.36,-50.69"/>
<polygon fill="black" stroke="black" points="712.01,-53.77 718.91,-45.73 708.5,-47.72 712.01,-53.77"/>
</g>
<!-- MATH0011&#45;&gt;MATH0065 -->
<g id="edge39" class="edge">
<title>MATH0011&#45;&gt;MATH0065</title>
<path fill="none" stroke="black" d="M809.93,-311.69C793.17,-285.91 767.57,-241.82 757.5,-199.5 753.13,-181.12 750.29,-174.46 757.5,-157 761.4,-147.55 767.74,-138.86 774.78,-131.27"/>
<polygon fill="black" stroke="black" points="776.91,-134.09 781.54,-124.56 771.98,-129.12 776.91,-134.09"/>
</g>
<!-- MATH0004&#45;&gt;MATH0013 -->
<g id="edge7" class="edge">
<title>MATH0004&#45;&gt;MATH0013</title>
<path fill="none" stroke="black" stroke-dasharray="5,2" d="M1629.79,-321.1C1589.81,-310.73 1532.86,-295.96 1484,-283.29"/>
<polygon fill="black" stroke="black" points="1485.09,-279.96 1474.53,-280.84 1483.33,-286.74 1485.09,-279.96"/>
</g>
<!-- MATH0004&#45;&gt;MATH0114 -->
<g id="edge19" class="edge">
<title>MATH0004&#45;&gt;MATH0114</title>
<path fill="none" stroke="black" d="M1690.2,-311.63C1705.61,-276.86 1737.73,-208.85 1774.5,-157 1780.66,-148.32 1788.05,-139.56 1795.3,-131.63"/>
<polygon fill="black" stroke="black" points="1797.71,-134.18 1802.01,-124.5 1792.61,-129.38 1797.71,-134.18"/>
</g>
<!-- MATH0014&#45;&gt;MATH0114 -->
<g id="edge23" class="edge">
<title>MATH0014&#45;&gt;MATH0114</title>
<path fill="none" stroke="black" d="M1961.53,-233.21C1934.14,-206.35 1888.26,-161.34 1857.69,-131.35"/>
<polygon fill="black" stroke="black" points="1860.17,-128.88 1850.58,-124.38 1855.27,-133.88 1860.17,-128.88"/>
</g>
<!-- MATH0028 -->
<g id="node18" class="node">
<title>MATH0028</title>
<g id="a_node18"><a xlink:href="https://www.ucl.ac.uk/maths/sites/maths/files/math0028.pdf" xlink:title="Year 3, term 2">
<polygon fill="white" stroke="#cd3333" stroke-width="5" points="2284.5,-121 2070.5,-121 2070.5,-78.5 2284.5,-78.5 2284.5,-121"/>
<text text-anchor="middle" x="2177.5" y="-103.7" font-family="Times,serif" font-size="14.00">MATH0028</text>
<text text-anchor="middle" x="2177.5" y="-86.45" font-family="Times,serif" font-size="14.00">Combinatorial Optimisation</text>
</a>
</g>
</g>
<!-- MATH0014&#45;&gt;MATH0028 -->
<g id="edge25" class="edge">
<title>MATH0014&#45;&gt;MATH0028</title>
<path fill="none" stroke="black" d="M2012.56,-233.21C2046.44,-206.01 2103.5,-160.18 2140.83,-130.2"/>
<polygon fill="black" stroke="black" points="2142.62,-133.25 2148.22,-124.26 2138.23,-127.8 2142.62,-133.25"/>
</g>
<!-- MATH0056 -->
<g id="node12" class="node">
<title>MATH0056</title>
<g id="a_node12"><a xlink:href="https://www.ucl.ac.uk/maths/sites/maths/files/math0056.pdf" xlink:title="Year 2 or 3, term 2">
<polygon fill="white" stroke="#8ee5ee" stroke-width="5" points="1214.75,-199.5 1020.25,-199.5 1020.25,-157 1214.75,-157 1214.75,-199.5"/>
<text text-anchor="middle" x="1117.5" y="-182.2" font-family="Times,serif" font-size="14.00">MATH0056</text>
<text text-anchor="middle" x="1117.5" y="-164.95" font-family="Times,serif" font-size="14.00">Mathematical Methods 4</text>
</a>
</g>
</g>
<!-- MATH0016&#45;&gt;MATH0056 -->
<g id="edge10" class="edge">
<title>MATH0016&#45;&gt;MATH0056</title>
<path fill="none" stroke="black" d="M598.99,-244.58C694.95,-233.65 844.27,-216.25 973.5,-199.5 984.3,-198.1 995.54,-196.6 1006.78,-195.07"/>
<polygon fill="black" stroke="black" points="1007.07,-198.56 1016.5,-193.73 1006.11,-191.62 1007.07,-198.56"/>
</g>
<!-- MATH0031 -->
<g id="node19" class="node">
<title>MATH0031</title>
<g id="a_node19"><a xlink:href="https://www.ucl.ac.uk/maths/sites/maths/files/math0031.pdf" xlink:title="Year 3, term 2">
<polygon fill="white" stroke="#cd3333" stroke-width="5" points="596.88,-121 418.12,-121 418.12,-78.5 596.88,-78.5 596.88,-121"/>
<text text-anchor="middle" x="507.5" y="-103.7" font-family="Times,serif" font-size="14.00">MATH0031</text>
<text text-anchor="middle" x="507.5" y="-86.45" font-family="Times,serif" font-size="14.00">Financial Mathematics</text>
</a>
</g>
</g>
<!-- MATH0016&#45;&gt;MATH0031 -->
<g id="edge26" class="edge">
<title>MATH0016&#45;&gt;MATH0031</title>
<path fill="none" stroke="black" d="M500.66,-233.21C502,-207.27 504.22,-164.4 505.76,-134.48"/>
<polygon fill="black" stroke="black" points="509.24,-134.99 506.26,-124.83 502.25,-134.63 509.24,-134.99"/>
</g>
<!-- MATH0117 -->
<g id="node20" class="node">
<title>MATH0117</title>
<g id="a_node20"><a xlink:href="https://www.ucl.ac.uk/maths/sites/maths/files/math0117.pdf" xlink:title="Year 3 or 4, term 2">
<polygon fill="white" stroke="#cd1076" stroke-width="5" points="234.88,-42.5 8.12,-42.5 8.12,0 234.88,0 234.88,-42.5"/>
<text text-anchor="middle" x="121.5" y="-25.2" font-family="Times,serif" font-size="14.00">MATH0117</text>
<text text-anchor="middle" x="121.5" y="-7.95" font-family="Times,serif" font-size="14.00">Spatial Mathematical Biology</text>
</a>
</g>
</g>
<!-- MATH0016&#45;&gt;MATH0117 -->
<g id="edge29" class="edge">
<title>MATH0016&#45;&gt;MATH0117</title>
<path fill="none" stroke="black" d="M463.07,-233.04C449.27,-223.56 433.92,-211.87 421.5,-199.5 374.39,-152.57 388.36,-116.08 333.5,-78.5 308.18,-61.15 277.79,-49.15 248.03,-40.85"/>
<polygon fill="black" stroke="black" points="249.13,-37.52 238.57,-38.35 247.34,-44.29 249.13,-37.52"/>
</g>
<!-- MATH0088 -->
<g id="node25" class="node">
<title>MATH0088</title>
<g id="a_node25"><a xlink:href="https://www.ucl.ac.uk/maths/sites/maths/files/math0088.pdf" xlink:title="Year 4, term 2">
<polygon fill="white" stroke="#1874cd" stroke-width="5" points="626.62,-42.5 320.38,-42.5 320.38,0 626.62,0 626.62,-42.5"/>
<text text-anchor="middle" x="473.5" y="-25.2" font-family="Times,serif" font-size="14.00">MATH0088</text>
<text text-anchor="middle" x="473.5" y="-7.95" font-family="Times,serif" font-size="14.00">Quantitative and Computational Finance</text>
</a>
</g>
</g>
<!-- MATH0016&#45;&gt;MATH0088 -->
<g id="edge44" class="edge">
<title>MATH0016&#45;&gt;MATH0088</title>
<path fill="none" stroke="black" d="M478.17,-233.16C456.06,-208.04 422.89,-165.15 409.5,-121 404.02,-102.92 401.71,-95.71 409.5,-78.5 413.98,-68.59 421.17,-59.74 429.13,-52.15"/>
<polygon fill="black" stroke="black" points="430.94,-55.22 436.15,-45.99 426.32,-49.96 430.94,-55.22"/>
</g>
<!-- MATH0013&#45;&gt;MATH0056 -->
<g id="edge9" class="edge">
<title>MATH0013&#45;&gt;MATH0056</title>
<path fill="none" stroke="black" d="M1305.82,-233C1275.04,-224.22 1239.66,-214.12 1207.93,-205.06"/>
<polygon fill="black" stroke="black" points="1208.91,-201.7 1198.33,-202.32 1206.99,-208.43 1208.91,-201.7"/>
</g>
<!-- MATH0013&#45;&gt;MATH0065 -->
<g id="edge40" class="edge">
<title>MATH0013&#45;&gt;MATH0065</title>
<path fill="none" stroke="black" d="M1268.99,-246.89C1176.19,-238.24 1054.9,-222.94 1011.5,-199.5 989.21,-187.46 994.56,-171.09 973.5,-157 955.47,-144.94 934.57,-135.16 913.95,-127.35"/>
<polygon fill="black" stroke="black" points="915.22,-124.09 904.63,-123.96 912.83,-130.67 915.22,-124.09"/>
</g>
<!-- MATH0057&#45;&gt;MATH0114 -->
<g id="edge24" class="edge">
<title>MATH0057&#45;&gt;MATH0114</title>
<path fill="none" stroke="black" stroke-dasharray="5,2" d="M966.71,-162.29C981.71,-160.34 996.99,-158.51 1011.5,-157 1067.42,-151.2 1366.71,-131.01 1586.45,-116.47"/>
<polygon fill="black" stroke="black" points="1586.58,-119.97 1596.33,-115.82 1586.12,-112.99 1586.58,-119.97"/>
</g>
<!-- MATH0057&#45;&gt;MATH0031 -->
<g id="edge27" class="edge">
<title>MATH0057&#45;&gt;MATH0031</title>
<path fill="none" stroke="black" d="M764.35,-155.63C716.2,-145.35 658.72,-133.06 610.35,-122.73"/>
<polygon fill="black" stroke="black" points="611.22,-119.33 600.71,-120.67 609.75,-126.18 611.22,-119.33"/>
</g>
<!-- MATH0057&#45;&gt;MATH0102 -->
<g id="edge35" class="edge">
<title>MATH0057&#45;&gt;MATH0102</title>
<path fill="none" stroke="black" stroke-dasharray="5,2" d="M913.07,-154.64C925.94,-146.03 938.3,-134.86 945.5,-121 954.21,-104.24 956.17,-94.09 945.5,-78.5 937.56,-66.9 926.84,-57.69 914.82,-50.38"/>
<polygon fill="black" stroke="black" points="916.69,-47.41 906.24,-45.64 913.31,-53.54 916.69,-47.41"/>
</g>
<!-- MATH0056&#45;&gt;MATH0102 -->
<g id="edge32" class="edge">
<title>MATH0056&#45;&gt;MATH0102</title>
<path fill="none" stroke="black" stroke-dasharray="5,2" d="M1076.77,-154.61C1059.48,-144.69 1039.26,-132.67 1021.5,-121 994.79,-103.45 991.81,-93.32 963.5,-78.5 941.31,-66.88 916.2,-56.85 892.47,-48.6"/>
<polygon fill="black" stroke="black" points="893.7,-45.33 883.11,-45.43 891.45,-51.95 893.7,-45.33"/>
</g>
<!-- MATH0086 -->
<g id="node23" class="node">
<title>MATH0086</title>
<g id="a_node23"><a xlink:href="https://www.ucl.ac.uk/maths/sites/maths/files/math0086.pdf" xlink:title="Year 4, term 1">
<polygon fill="white" stroke="#1c86ee" stroke-width="5" points="1330.62,-121 1030.38,-121 1030.38,-78.5 1330.62,-78.5 1330.62,-121"/>
<text text-anchor="middle" x="1180.5" y="-103.7" font-family="Times,serif" font-size="14.00">MATH0086</text>
<text text-anchor="middle" x="1180.5" y="-86.45" font-family="Times,serif" font-size="14.00">Computational and Simulation Methods</text>
</a>
</g>
</g>
<!-- MATH0056&#45;&gt;MATH0086 -->
<g id="edge36" class="edge">
<title>MATH0056&#45;&gt;MATH0086</title>
<path fill="none" stroke="black" d="M1136.06,-154.71C1141.9,-147.62 1148.47,-139.65 1154.72,-132.06"/>
<polygon fill="black" stroke="black" points="1157.24,-134.5 1160.89,-124.56 1151.83,-130.05 1157.24,-134.5"/>
</g>
<!-- MATH0058&#45;&gt;MATH0033 -->
<g id="edge17" class="edge">
<title>MATH0058&#45;&gt;MATH0033</title>
<path fill="none" stroke="black" d="M1399.99,-154.71C1403.37,-148.08 1407.14,-140.68 1410.78,-133.54"/>
<polygon fill="black" stroke="black" points="1413.85,-135.24 1415.27,-124.74 1407.61,-132.06 1413.85,-135.24"/>
</g>
<!-- MATH0058&#45;&gt;MATH0086 -->
<g id="edge37" class="edge">
<title>MATH0058&#45;&gt;MATH0086</title>
<path fill="none" stroke="black" stroke-dasharray="5,2" d="M1326.66,-154.5C1303.39,-145.95 1276.74,-136.15 1252.63,-127.28"/>
<polygon fill="black" stroke="black" points="1254.12,-124.1 1243.53,-123.93 1251.7,-130.67 1254.12,-124.1"/>
</g>
<!-- MATH0030&#45;&gt;MATH0117 -->
<g id="edge28" class="edge">
<title>MATH0030&#45;&gt;MATH0117</title>
<path fill="none" stroke="black" d="M97.52,-76.21C100.47,-69.58 103.75,-62.18 106.92,-55.04"/>
<polygon fill="black" stroke="black" points="109.96,-56.83 110.82,-46.28 103.56,-53.99 109.96,-56.83"/>
</g>
<!-- MATH0031&#45;&gt;MATH0102 -->
<g id="edge33" class="edge">
<title>MATH0031&#45;&gt;MATH0102</title>
<path fill="none" stroke="black" stroke-dasharray="5,2" d="M594.62,-76C628.63,-67.12 667.79,-56.9 702.76,-47.77"/>
<polygon fill="black" stroke="black" points="703.21,-51.27 712,-45.36 701.44,-44.5 703.21,-51.27"/>
</g>
<!-- MATH0031&#45;&gt;MATH0088 -->
<g id="edge45" class="edge">
<title>MATH0031&#45;&gt;MATH0088</title>
<path fill="none" stroke="black" stroke-dasharray="5,2" d="M497.48,-76.21C494.53,-69.58 491.25,-62.18 488.08,-55.04"/>
<polygon fill="black" stroke="black" points="491.44,-53.99 484.18,-46.28 485.04,-56.83 491.44,-53.99"/>
</g>
<!-- MATH0065&#45;&gt;MATH0102 -->
<g id="edge34" class="edge">
<title>MATH0065&#45;&gt;MATH0102</title>
<path fill="none" stroke="black" stroke-dasharray="5,2" d="M809.67,-76.21C808.6,-69.89 807.4,-62.87 806.24,-56.04"/>
<polygon fill="black" stroke="black" points="809.73,-55.66 804.6,-46.38 802.83,-56.83 809.73,-55.66"/>
</g>
</g>
</svg>
