<?xml version="1.0" encoding="UTF-8" standalone="no"?>
<!DOCTYPE svg PUBLIC "-//W3C//DTD SVG 1.1//EN"
 "http://www.w3.org/Graphics/SVG/1.1/DTD/svg11.dtd">
<!-- Generated by graphviz version 14.1.1 (0)
 -->
<!-- Pages: 1 -->
<svg width="2453pt" height="443pt"
 viewBox="0.00 0.00 2453.00 443.00" xmlns="http://www.w3.org/2000/svg" xmlns:xlink="http://www.w3.org/1999/xlink">
<g id="graph0" class="graph" transform="scale(1 1) rotate(0) translate(4 439)">
<polygon fill="white" stroke="none" points="-4,4 -4,-439 2449.25,-439 2449.25,4 -4,4"/>
<!-- MATH0005 -->
<g id="node1" class="node">
<title>MATH0005</title>
<g id="a_node1"><a xlink:href="https://www.ucl.ac.uk/mathematical-physical-sciences/sites/mathematical_physical_sciences/files/2025-09/math0005 syllabus.pdf" xlink:title="Year 1, term 1">
<polygon fill="white" stroke="#ffb90f" stroke-width="5" points="516.5,-435 419.5,-435 419.5,-392.5 516.5,-392.5 516.5,-435"/>
<text xml:space="preserve" text-anchor="middle" x="468" y="-417.7" font-family="Times,serif" font-size="14.00">MATH0005</text>
<text xml:space="preserve" text-anchor="middle" x="468" y="-400.45" font-family="Times,serif" font-size="14.00">Algebra 1</text>
</a>
</g>
</g>
<!-- MATH0006 -->
<g id="node5" class="node">
<title>MATH0006</title>
<g id="a_node5"><a xlink:href="https://www.ucl.ac.uk/mathematical-physical-sciences/sites/mathematical_physical_sciences/files/math0006.pdf" xlink:title="Year 1, term 2">
<polygon fill="white" stroke="#cd950c" stroke-width="5" points="554.5,-356.5 457.5,-356.5 457.5,-314 554.5,-314 554.5,-356.5"/>
<text xml:space="preserve" text-anchor="middle" x="506" y="-339.2" font-family="Times,serif" font-size="14.00">MATH0006</text>
<text xml:space="preserve" text-anchor="middle" x="506" y="-321.95" font-family="Times,serif" font-size="14.00">Algebra 2</text>
</a>
</g>
</g>
<!-- MATH0005&#45;&gt;MATH0006 -->
<g id="edge1" class="edge">
<title>MATH0005&#45;&gt;MATH0006</title>
<g id="a_edge1"><a xlink:title="required prerequisite">
<path fill="none" stroke="black" d="M479.2,-390.21C482.49,-383.58 486.16,-376.18 489.71,-369.04"/>
<polygon fill="black" stroke="black" points="492.77,-370.76 494.08,-360.25 486.5,-367.65 492.77,-370.76"/>
</a>
</g>
</g>
<!-- MATH0114 -->
<g id="node17" class="node">
<title>MATH0114</title>
<g id="a_node17"><a xlink:href="https://www.ucl.ac.uk/mathematical-physical-sciences/sites/mathematical_physical_sciences/files/math0114_1.pdf" xlink:title="Year 3, term 2">
<polygon fill="white" stroke="#cd3333" stroke-width="5" points="684.25,-121 231.75,-121 231.75,-78.5 684.25,-78.5 684.25,-121"/>
<text xml:space="preserve" text-anchor="middle" x="458" y="-103.7" font-family="Times,serif" font-size="14.00">MATH0114</text>
<text xml:space="preserve" text-anchor="middle" x="458" y="-86.45" font-family="Times,serif" font-size="14.00">Mathematics for Machine Learning and Artificial Intelligence</text>
</a>
</g>
</g>
<!-- MATH0005&#45;&gt;MATH0114 -->
<g id="edge20" class="edge">
<title>MATH0005&#45;&gt;MATH0114</title>
<g id="a_edge20"><a xlink:title="required prerequisite">
<path fill="none" stroke="black" d="M458.5,-390.19C454.74,-380.08 450.87,-367.89 449,-356.5 436.06,-277.73 445.72,-183.54 452.63,-134.38"/>
<polygon fill="black" stroke="black" points="456.06,-135.07 454.05,-124.67 449.14,-134.06 456.06,-135.07"/>
</a>
</g>
</g>
<!-- MATH0010 -->
<g id="node2" class="node">
<title>MATH0010</title>
<g id="a_node2"><a xlink:href="https://www.ucl.ac.uk/mathematical-physical-sciences/sites/mathematical_physical_sciences/files/math0010.pdf" xlink:title="Year 1, term 1">
<polygon fill="white" stroke="#ffb90f" stroke-width="5" points="2098.25,-435 1903.75,-435 1903.75,-392.5 2098.25,-392.5 2098.25,-435"/>
<text xml:space="preserve" text-anchor="middle" x="2001" y="-417.7" font-family="Times,serif" font-size="14.00">MATH0010</text>
<text xml:space="preserve" text-anchor="middle" x="2001" y="-400.45" font-family="Times,serif" font-size="14.00">Mathematical Methods 1</text>
</a>
</g>
</g>
<!-- MATH0011 -->
<g id="node6" class="node">
<title>MATH0011</title>
<g id="a_node6"><a xlink:href="https://www.ucl.ac.uk/mathematical-physical-sciences/sites/mathematical_physical_sciences/files/math0011.pdf" xlink:title="Year 1, term 2">
<polygon fill="white" stroke="#cd950c" stroke-width="5" points="1599.25,-356.5 1404.75,-356.5 1404.75,-314 1599.25,-314 1599.25,-356.5"/>
<text xml:space="preserve" text-anchor="middle" x="1502" y="-339.2" font-family="Times,serif" font-size="14.00">MATH0011</text>
<text xml:space="preserve" text-anchor="middle" x="1502" y="-321.95" font-family="Times,serif" font-size="14.00">Mathematical Methods 2</text>
</a>
</g>
</g>
<!-- MATH0010&#45;&gt;MATH0011 -->
<g id="edge2" class="edge">
<title>MATH0010&#45;&gt;MATH0011</title>
<g id="a_edge2"><a xlink:title="required prerequisite">
<path fill="none" stroke="black" d="M1901.52,-397.5C1818.17,-384.72 1699.29,-366.5 1612.9,-353.25"/>
<polygon fill="black" stroke="black" points="1613.64,-349.82 1603.22,-351.77 1612.58,-356.74 1613.64,-349.82"/>
</a>
</g>
</g>
<!-- MATH0058 -->
<g id="node11" class="node">
<title>MATH0058</title>
<g id="a_node11"><a xlink:href="https://www.ucl.ac.uk/mathematical-physical-sciences/sites/mathematical_physical_sciences/files/math0058.pdf" xlink:title="Year 2 or 3, term 2">
<polygon fill="white" stroke="#8ee5ee" stroke-width="5" points="874.88,-199.5 687.12,-199.5 687.12,-157 874.88,-157 874.88,-199.5"/>
<text xml:space="preserve" text-anchor="middle" x="781" y="-182.2" font-family="Times,serif" font-size="14.00">MATH0058</text>
<text xml:space="preserve" text-anchor="middle" x="781" y="-164.95" font-family="Times,serif" font-size="14.00">Computational Methods</text>
</a>
</g>
</g>
<!-- MATH0010&#45;&gt;MATH0058 -->
<g id="edge8" class="edge">
<title>MATH0010&#45;&gt;MATH0058</title>
<g id="a_edge8"><a xlink:title="required prerequisite">
<path fill="none" stroke="black" d="M1901.65,-408.28C1665.31,-396.43 1076.09,-359.39 898,-278 863.06,-262.03 830.28,-232.62 808.35,-210.03"/>
<polygon fill="black" stroke="black" points="810.96,-207.69 801.54,-202.85 805.89,-212.51 810.96,-207.69"/>
</a>
</g>
</g>
<!-- MATH0030 -->
<g id="node15" class="node">
<title>MATH0030</title>
<g id="a_node15"><a xlink:href="https://www.ucl.ac.uk/mathematical-physical-sciences/sites/mathematical_physical_sciences/files/math0030.pdf" xlink:title="Year 3, term 1">
<polygon fill="white" stroke="#ff4040" stroke-width="5" points="2247.5,-121 2072.5,-121 2072.5,-78.5 2247.5,-78.5 2247.5,-121"/>
<text xml:space="preserve" text-anchor="middle" x="2160" y="-103.7" font-family="Times,serif" font-size="14.00">MATH0030</text>
<text xml:space="preserve" text-anchor="middle" x="2160" y="-86.45" font-family="Times,serif" font-size="14.00">Mathematical Ecology</text>
</a>
</g>
</g>
<!-- MATH0010&#45;&gt;MATH0030 -->
<g id="edge14" class="edge">
<title>MATH0010&#45;&gt;MATH0030</title>
<g id="a_edge14"><a xlink:title="required prerequisite">
<path fill="none" stroke="black" d="M2028.38,-390.09C2038.68,-380.54 2049.85,-368.78 2058,-356.5 2106.05,-284.07 2137.3,-185.5 2151.38,-134.47"/>
<polygon fill="black" stroke="black" points="2154.73,-135.47 2153.96,-124.91 2147.97,-133.65 2154.73,-135.47"/>
</a>
</g>
</g>
<!-- MATH0102 -->
<g id="node21" class="node">
<title>MATH0102</title>
<g id="a_node21"><a xlink:href="https://www.ucl.ac.uk/mathematical-physical-sciences/sites/mathematical_physical_sciences/files/math0102.pdf" xlink:title="Year 3 or 4, term 2">
<polygon fill="white" stroke="#cd1076" stroke-width="5" points="1627.75,-42.5 1412.25,-42.5 1412.25,0 1627.75,0 1627.75,-42.5"/>
<text xml:space="preserve" text-anchor="middle" x="1520" y="-25.2" font-family="Times,serif" font-size="14.00">MATH0102</text>
<text xml:space="preserve" text-anchor="middle" x="1520" y="-7.95" font-family="Times,serif" font-size="14.00">Applied Stochastic Methods</text>
</a>
</g>
</g>
<!-- MATH0010&#45;&gt;MATH0102 -->
<g id="edge30" class="edge">
<title>MATH0010&#45;&gt;MATH0102</title>
<g id="a_edge30"><a xlink:title="required prerequisite">
<path fill="none" stroke="black" d="M2011.41,-390.19C2024.14,-360.48 2044,-306.34 2044,-257.75 2044,-257.75 2044,-257.75 2044,-177.25 2044,-126.57 2029.29,-106.42 1987,-78.5 1958.65,-59.78 1769.85,-41.63 1641.16,-31.22"/>
<polygon fill="black" stroke="black" points="1641.82,-27.76 1631.57,-30.45 1641.26,-34.74 1641.82,-27.76"/>
</a>
</g>
</g>
<!-- MATH0065 -->
<g id="node22" class="node">
<title>MATH0065</title>
<g id="a_node22"><a xlink:href="https://www.ucl.ac.uk/mathematical-physical-sciences/sites/mathematical_physical_sciences/files/math0065.pdf" xlink:title="Year 4, term 1">
<polygon fill="white" stroke="#1c86ee" stroke-width="5" points="1789.75,-121 1544.25,-121 1544.25,-78.5 1789.75,-78.5 1789.75,-121"/>
<text xml:space="preserve" text-anchor="middle" x="1667" y="-103.7" font-family="Times,serif" font-size="14.00">MATH0065</text>
<text xml:space="preserve" text-anchor="middle" x="1667" y="-86.45" font-family="Times,serif" font-size="14.00">Advanced Modelling Techniques</text>
</a>
</g>
</g>
<!-- MATH0010&#45;&gt;MATH0065 -->
<g id="edge36" class="edge">
<title>MATH0010&#45;&gt;MATH0065</title>
<g id="a_edge36"><a xlink:title="required prerequisite">
<path fill="none" stroke="black" d="M1976.71,-390.06C1917.54,-334.79 1765.93,-193.17 1699.27,-130.9"/>
<polygon fill="black" stroke="black" points="1702,-128.66 1692.3,-124.39 1697.22,-133.77 1702,-128.66"/>
</a>
</g>
</g>
<!-- MATH0082 -->
<g id="node25" class="node">
<title>MATH0082</title>
<g id="a_node25"><a xlink:href="https://www.ucl.ac.uk/mathematical-physical-sciences/sites/mathematical_physical_sciences/files/math0082.pdf" xlink:title="Year 4, term 2">
<polygon fill="white" stroke="#1874cd" stroke-width="5" points="2445.25,-42.5 2106.75,-42.5 2106.75,0 2445.25,0 2445.25,-42.5"/>
<text xml:space="preserve" text-anchor="middle" x="2276" y="-25.2" font-family="Times,serif" font-size="14.00">MATH0082</text>
<text xml:space="preserve" text-anchor="middle" x="2276" y="-7.95" font-family="Times,serif" font-size="14.00">Evolutionary Games and Population Genetics</text>
</a>
</g>
</g>
<!-- MATH0010&#45;&gt;MATH0082 -->
<g id="edge44" class="edge">
<title>MATH0010&#45;&gt;MATH0082</title>
<g id="a_edge44"><a xlink:title="required prerequisite">
<path fill="none" stroke="black" d="M2100.67,-397.95C2179.37,-379.95 2276,-340.92 2276,-257.75 2276,-257.75 2276,-257.75 2276,-177.25 2276,-135.49 2276,-87.41 2276,-56.01"/>
<polygon fill="black" stroke="black" points="2279.5,-56.35 2276,-46.35 2272.5,-56.35 2279.5,-56.35"/>
</a>
</g>
</g>
<!-- MATH0003 -->
<g id="node3" class="node">
<title>MATH0003</title>
<g id="a_node3"><a xlink:href="https://www.ucl.ac.uk/mathematical-physical-sciences/sites/mathematical_physical_sciences/files/2025-09/math0003.pdf" xlink:title="Year 1, term 1">
<polygon fill="white" stroke="#ffb90f" stroke-width="5" points="929.5,-435 832.5,-435 832.5,-392.5 929.5,-392.5 929.5,-435"/>
<text xml:space="preserve" text-anchor="middle" x="881" y="-417.7" font-family="Times,serif" font-size="14.00">MATH0003</text>
<text xml:space="preserve" text-anchor="middle" x="881" y="-400.45" font-family="Times,serif" font-size="14.00">Analysis 1</text>
</a>
</g>
</g>
<!-- MATH0004 -->
<g id="node7" class="node">
<title>MATH0004</title>
<g id="a_node7"><a xlink:href="https://www.ucl.ac.uk/mathematical-physical-sciences/sites/mathematical_physical_sciences/files/math0004.pdf" xlink:title="Year 1, term 2">
<polygon fill="white" stroke="#cd950c" stroke-width="5" points="836.5,-356.5 739.5,-356.5 739.5,-314 836.5,-314 836.5,-356.5"/>
<text xml:space="preserve" text-anchor="middle" x="788" y="-339.2" font-family="Times,serif" font-size="14.00">MATH0004</text>
<text xml:space="preserve" text-anchor="middle" x="788" y="-321.95" font-family="Times,serif" font-size="14.00">Analysis 2</text>
</a>
</g>
</g>
<!-- MATH0003&#45;&gt;MATH0004 -->
<g id="edge3" class="edge">
<title>MATH0003&#45;&gt;MATH0004</title>
<g id="a_edge3"><a xlink:title="required prerequisite">
<path fill="none" stroke="black" d="M853.35,-390C844.17,-382.45 833.8,-373.93 824.08,-365.93"/>
<polygon fill="black" stroke="black" points="826.5,-363.39 816.55,-359.74 822.05,-368.79 826.5,-363.39"/>
</a>
</g>
</g>
<!-- MATH0013 -->
<g id="node10" class="node">
<title>MATH0013</title>
<g id="a_node10"><a xlink:href="https://www.ucl.ac.uk/mathematical-physical-sciences/sites/mathematical_physical_sciences/files/2025-09/math0013_0.pdf" xlink:title="Year 2, term 1">
<polygon fill="white" stroke="#00ff00" stroke-width="5" points="1159.12,-278 930.88,-278 930.88,-235.5 1159.12,-235.5 1159.12,-278"/>
<text xml:space="preserve" text-anchor="middle" x="1045" y="-260.7" font-family="Times,serif" font-size="14.00">MATH0013</text>
<text xml:space="preserve" text-anchor="middle" x="1045" y="-243.45" font-family="Times,serif" font-size="14.00">Analysis 3 &#45; Complex Analysis</text>
</a>
</g>
</g>
<!-- MATH0003&#45;&gt;MATH0013 -->
<g id="edge6" class="edge">
<title>MATH0003&#45;&gt;MATH0013</title>
<g id="a_edge6"><a xlink:title="required prerequisite">
<path fill="none" stroke="black" d="M904.85,-390.21C933.39,-363.24 981.3,-317.95 1013.03,-287.97"/>
<polygon fill="black" stroke="black" points="1015.16,-290.77 1020.02,-281.36 1010.35,-285.68 1015.16,-290.77"/>
</a>
</g>
</g>
<!-- MATH0003&#45;&gt;MATH0114 -->
<g id="edge18" class="edge">
<title>MATH0003&#45;&gt;MATH0114</title>
<g id="a_edge18"><a xlink:title="required prerequisite">
<path fill="none" stroke="black" d="M830.08,-399.15C799.92,-389.78 761.71,-375.58 731,-356.5 627.48,-292.2 529.04,-184.76 483.85,-131.96"/>
<polygon fill="black" stroke="black" points="486.68,-129.88 477.54,-124.52 481.34,-134.41 486.68,-129.88"/>
</a>
</g>
</g>
<!-- MATH0003&#45;&gt;MATH0082 -->
<g id="edge45" class="edge">
<title>MATH0003&#45;&gt;MATH0082</title>
<g id="a_edge45"><a xlink:title="required prerequisite">
<path fill="none" stroke="black" d="M931.89,-411.18C1151.39,-403.74 2006,-367.73 2006,-257.75 2006,-257.75 2006,-257.75 2006,-177.25 2006,-126.35 2023.47,-109.29 2064,-78.5 2080.39,-66.05 2099.3,-56.36 2118.95,-48.8"/>
<polygon fill="black" stroke="black" points="2119.97,-52.15 2128.18,-45.45 2117.58,-45.57 2119.97,-52.15"/>
</a>
</g>
</g>
<!-- MATH0008 -->
<g id="node4" class="node">
<title>MATH0008</title>
<g id="a_node4"><a xlink:href="https://www.ucl.ac.uk/mathematical-physical-sciences/sites/mathematical_physical_sciences/files/math0008.pdf" xlink:title="Year 1, term 1">
<polygon fill="white" stroke="#ffb90f" stroke-width="5" points="2397.75,-435 2230.25,-435 2230.25,-392.5 2397.75,-392.5 2397.75,-435"/>
<text xml:space="preserve" text-anchor="middle" x="2314" y="-417.7" font-family="Times,serif" font-size="14.00">MATH0008</text>
<text xml:space="preserve" text-anchor="middle" x="2314" y="-400.45" font-family="Times,serif" font-size="14.00">Applied Mathematics</text>
</a>
</g>
</g>
<!-- MATH0008&#45;&gt;MATH0082 -->
<g id="edge43" class="edge">
<title>MATH0008&#45;&gt;MATH0082</title>
<g id="a_edge43"><a xlink:title="required prerequisite">
<path fill="none" stroke="black" d="M2314,-390.16C2314,-359.98 2314,-304.84 2314,-257.75 2314,-257.75 2314,-257.75 2314,-177.25 2314,-134.31 2300.08,-86.56 2289.08,-55.56"/>
<polygon fill="black" stroke="black" points="2292.44,-54.54 2285.72,-46.35 2285.87,-56.95 2292.44,-54.54"/>
</a>
</g>
</g>
<!-- MATH0014 -->
<g id="node8" class="node">
<title>MATH0014</title>
<g id="a_node8"><a xlink:href="https://www.ucl.ac.uk/mathematical-physical-sciences/sites/mathematical_physical_sciences/files/2025-09/math0014_0.pdf" xlink:title="Year 2, term 1">
<polygon fill="white" stroke="#00ff00" stroke-width="5" points="400.88,-278 141.12,-278 141.12,-235.5 400.88,-235.5 400.88,-278"/>
<text xml:space="preserve" text-anchor="middle" x="271" y="-260.7" font-family="Times,serif" font-size="14.00">MATH0014</text>
<text xml:space="preserve" text-anchor="middle" x="271" y="-243.45" font-family="Times,serif" font-size="14.00">Algebra 3: Further Linear Algebra</text>
</a>
</g>
</g>
<!-- MATH0006&#45;&gt;MATH0014 -->
<g id="edge4" class="edge">
<title>MATH0006&#45;&gt;MATH0014</title>
<g id="a_edge4"><a xlink:title="required prerequisite">
<path fill="none" stroke="black" d="M455.01,-317.65C424.67,-307.77 385.51,-295.03 351.12,-283.83"/>
<polygon fill="black" stroke="black" points="352.64,-280.65 342.05,-280.88 350.48,-287.3 352.64,-280.65"/>
</a>
</g>
</g>
<!-- MATH0006&#45;&gt;MATH0058 -->
<g id="edge9" class="edge">
<title>MATH0006&#45;&gt;MATH0058</title>
<g id="a_edge9"><a xlink:title="required prerequisite">
<path fill="none" stroke="black" d="M556.95,-314.57C581.1,-304.6 610.06,-291.72 635,-278 672.7,-257.26 713.03,-229.51 741.73,-208.71"/>
<polygon fill="black" stroke="black" points="743.76,-211.56 749.77,-202.84 739.63,-205.91 743.76,-211.56"/>
</a>
</g>
</g>
<!-- MATH0033 -->
<g id="node16" class="node">
<title>MATH0033</title>
<g id="a_node16"><a xlink:href="https://www.ucl.ac.uk/mathematical-physical-sciences/sites/mathematical_physical_sciences/files/math0033.pdf" xlink:title="Year 3, term 1">
<polygon fill="white" stroke="#ff4040" stroke-width="5" points="859.5,-121 702.5,-121 702.5,-78.5 859.5,-78.5 859.5,-121"/>
<text xml:space="preserve" text-anchor="middle" x="781" y="-103.7" font-family="Times,serif" font-size="14.00">MATH0033</text>
<text xml:space="preserve" text-anchor="middle" x="781" y="-86.45" font-family="Times,serif" font-size="14.00">Numerical Methods</text>
</a>
</g>
</g>
<!-- MATH0006&#45;&gt;MATH0033 -->
<g id="edge15" class="edge">
<title>MATH0006&#45;&gt;MATH0033</title>
<g id="a_edge15"><a xlink:title="required prerequisite">
<path fill="none" stroke="black" d="M524.02,-311.7C553.48,-275.82 615.03,-204.89 678,-157 691.7,-146.58 707.58,-136.91 722.71,-128.63"/>
<polygon fill="black" stroke="black" points="724,-131.91 731.17,-124.11 720.7,-125.73 724,-131.91"/>
</a>
</g>
</g>
<!-- MATH0006&#45;&gt;MATH0114 -->
<g id="edge21" class="edge">
<title>MATH0006&#45;&gt;MATH0114</title>
<g id="a_edge21"><a xlink:title="required prerequisite">
<path fill="none" stroke="black" d="M501.4,-311.86C492.94,-270.73 474.9,-182.95 464.95,-134.54"/>
<polygon fill="black" stroke="black" points="468.41,-133.99 462.96,-124.9 461.55,-135.4 468.41,-133.99"/>
</a>
</g>
</g>
<!-- MATH0016 -->
<g id="node9" class="node">
<title>MATH0016</title>
<g id="a_node9"><a xlink:href="https://www.ucl.ac.uk/mathematical-physical-sciences/sites/mathematical_physical_sciences/files/2025-09/math0016_0.pdf" xlink:title="Year 2, term 1">
<polygon fill="white" stroke="#00ff00" stroke-width="5" points="1409.25,-278 1214.75,-278 1214.75,-235.5 1409.25,-235.5 1409.25,-278"/>
<text xml:space="preserve" text-anchor="middle" x="1312" y="-260.7" font-family="Times,serif" font-size="14.00">MATH0016</text>
<text xml:space="preserve" text-anchor="middle" x="1312" y="-243.45" font-family="Times,serif" font-size="14.00">Mathematical Methods 3</text>
</a>
</g>
</g>
<!-- MATH0011&#45;&gt;MATH0016 -->
<g id="edge5" class="edge">
<title>MATH0011&#45;&gt;MATH0016</title>
<g id="a_edge5"><a xlink:title="required prerequisite">
<path fill="none" stroke="black" d="M1445.51,-311.5C1424.54,-303.06 1400.57,-293.41 1378.78,-284.64"/>
<polygon fill="black" stroke="black" points="1380.26,-281.46 1369.68,-280.97 1377.65,-287.95 1380.26,-281.46"/>
</a>
</g>
</g>
<!-- MATH0057 -->
<g id="node12" class="node">
<title>MATH0057</title>
<g id="a_node12"><a xlink:href="https://www.ucl.ac.uk/mathematical-physical-sciences/sites/mathematical_physical_sciences/files/math0057.pdf" xlink:title="Year 2 or 3, term 2">
<polygon fill="white" stroke="#8ee5ee" stroke-width="5" points="1507.75,-199.5 1310.25,-199.5 1310.25,-157 1507.75,-157 1507.75,-199.5"/>
<text xml:space="preserve" text-anchor="middle" x="1409" y="-182.2" font-family="Times,serif" font-size="14.00">MATH0057</text>
<text xml:space="preserve" text-anchor="middle" x="1409" y="-164.95" font-family="Times,serif" font-size="14.00">Probability and Statistics</text>
</a>
</g>
</g>
<!-- MATH0011&#45;&gt;MATH0057 -->
<g id="edge10" class="edge">
<title>MATH0011&#45;&gt;MATH0057</title>
<g id="a_edge10"><a xlink:title="required prerequisite">
<path fill="none" stroke="black" d="M1488.48,-311.71C1472.64,-285.31 1446.27,-241.37 1428.29,-211.4"/>
<polygon fill="black" stroke="black" points="1431.46,-209.89 1423.32,-203.11 1425.46,-213.49 1431.46,-209.89"/>
</a>
</g>
</g>
<!-- MATH0026 -->
<g id="node14" class="node">
<title>MATH0026</title>
<g id="a_node14"><a xlink:href="https://www.ucl.ac.uk/mathematical-physical-sciences/sites/mathematical_physical_sciences/files/math0026.pdf" xlink:title="Year 3, term 1">
<polygon fill="white" stroke="#ff4040" stroke-width="5" points="1977.75,-121 1846.25,-121 1846.25,-78.5 1977.75,-78.5 1977.75,-121"/>
<text xml:space="preserve" text-anchor="middle" x="1912" y="-103.7" font-family="Times,serif" font-size="14.00">MATH0026</text>
<text xml:space="preserve" text-anchor="middle" x="1912" y="-86.45" font-family="Times,serif" font-size="14.00">Biomathematics</text>
</a>
</g>
</g>
<!-- MATH0011&#45;&gt;MATH0026 -->
<g id="edge13" class="edge">
<title>MATH0011&#45;&gt;MATH0026</title>
<g id="a_edge13"><a xlink:title="required prerequisite">
<path fill="none" stroke="black" d="M1589.74,-311.59C1660,-290.49 1758.6,-254.01 1832,-199.5 1856.47,-181.33 1877.82,-154.02 1892.3,-132.72"/>
<polygon fill="black" stroke="black" points="1895.22,-134.65 1897.81,-124.38 1889.38,-130.79 1895.22,-134.65"/>
</a>
</g>
</g>
<!-- MATH0011&#45;&gt;MATH0033 -->
<g id="edge16" class="edge">
<title>MATH0011&#45;&gt;MATH0033</title>
<g id="a_edge16"><a xlink:title="required prerequisite">
<path fill="none" stroke="black" d="M1402.56,-331.3C1342.34,-325.77 1265.88,-311.85 1206,-278 1183.94,-265.53 1189.8,-248.41 1168,-235.5 1107.15,-199.46 1080.08,-221.91 1013,-199.5 968.74,-184.71 959.9,-175.36 917,-157 894.29,-147.28 869.33,-136.88 847.07,-127.69"/>
<polygon fill="black" stroke="black" points="848.69,-124.58 838.11,-124.01 846.03,-131.05 848.69,-124.58"/>
</a>
</g>
</g>
<!-- MATH0011&#45;&gt;MATH0114 -->
<g id="edge22" class="edge">
<title>MATH0011&#45;&gt;MATH0114</title>
<g id="a_edge22"><a xlink:title="required prerequisite">
<path fill="none" stroke="black" d="M1402.56,-330.53C1246.6,-323.81 958.43,-307.56 922,-278 878.23,-242.49 927.15,-193.27 884,-157 868.15,-143.68 785.95,-131.34 697.93,-121.63"/>
<polygon fill="black" stroke="black" points="698.43,-118.16 688.11,-120.56 697.67,-125.12 698.43,-118.16"/>
</a>
</g>
</g>
<!-- MATH0011&#45;&gt;MATH0102 -->
<g id="edge31" class="edge">
<title>MATH0011&#45;&gt;MATH0102</title>
<g id="a_edge31"><a xlink:title="required prerequisite">
<path fill="none" stroke="black" d="M1505.14,-311.89C1508.74,-285.21 1514.46,-239.2 1517,-199.5 1520.19,-149.69 1520.54,-91.86 1520.37,-56.16"/>
<polygon fill="black" stroke="black" points="1523.87,-56.43 1520.31,-46.45 1516.87,-56.48 1523.87,-56.43"/>
</a>
</g>
</g>
<!-- MATH0011&#45;&gt;MATH0065 -->
<g id="edge37" class="edge">
<title>MATH0011&#45;&gt;MATH0065</title>
<g id="a_edge37"><a xlink:title="required prerequisite">
<path fill="none" stroke="black" d="M1522.51,-311.52C1531.27,-301.48 1541.43,-289.39 1550,-278 1586.77,-229.12 1625.02,-169.15 1647.39,-133"/>
<polygon fill="black" stroke="black" points="1650.2,-135.1 1652.47,-124.75 1644.24,-131.43 1650.2,-135.1"/>
</a>
</g>
</g>
<!-- MATH0004&#45;&gt;MATH0013 -->
<g id="edge7" class="edge">
<title>MATH0004&#45;&gt;MATH0013</title>
<g id="a_edge7"><a xlink:title="recommended prerequisite">
<path fill="none" stroke="black" stroke-dasharray="5,2" d="M838.77,-319.14C872.74,-309.03 918.3,-295.46 957.97,-283.66"/>
<polygon fill="black" stroke="black" points="958.95,-287.02 967.53,-280.81 956.95,-280.31 958.95,-287.02"/>
</a>
</g>
</g>
<!-- MATH0004&#45;&gt;MATH0114 -->
<g id="edge19" class="edge">
<title>MATH0004&#45;&gt;MATH0114</title>
<g id="a_edge19"><a xlink:title="required prerequisite">
<path fill="none" stroke="black" d="M768.63,-311.57C736.29,-274.86 667.82,-202.02 597,-157 579.12,-145.63 558.57,-135.81 538.84,-127.7"/>
<polygon fill="black" stroke="black" points="540.29,-124.51 529.71,-124.05 537.7,-131.01 540.29,-124.51"/>
</a>
</g>
</g>
<!-- MATH0014&#45;&gt;MATH0114 -->
<g id="edge23" class="edge">
<title>MATH0014&#45;&gt;MATH0114</title>
<g id="a_edge23"><a xlink:title="required prerequisite">
<path fill="none" stroke="black" d="M298.19,-233.21C330.88,-206.12 385.83,-160.57 422.01,-130.58"/>
<polygon fill="black" stroke="black" points="424.14,-133.36 429.61,-124.28 419.68,-127.97 424.14,-133.36"/>
</a>
</g>
</g>
<!-- MATH0028 -->
<g id="node19" class="node">
<title>MATH0028</title>
<g id="a_node19"><a xlink:href="https://www.ucl.ac.uk/mathematical-physical-sciences/sites/mathematical_physical_sciences/files/math0028.pdf" xlink:title="Year 3, term 2">
<polygon fill="white" stroke="#cd3333" stroke-width="5" points="214,-121 0,-121 0,-78.5 214,-78.5 214,-121"/>
<text xml:space="preserve" text-anchor="middle" x="107" y="-103.7" font-family="Times,serif" font-size="14.00">MATH0028</text>
<text xml:space="preserve" text-anchor="middle" x="107" y="-86.45" font-family="Times,serif" font-size="14.00">Combinatorial Optimisation</text>
</a>
</g>
</g>
<!-- MATH0014&#45;&gt;MATH0028 -->
<g id="edge27" class="edge">
<title>MATH0014&#45;&gt;MATH0028</title>
<g id="a_edge27"><a xlink:title="required prerequisite">
<path fill="none" stroke="black" d="M247.15,-233.21C218.61,-206.24 170.7,-160.95 138.97,-130.97"/>
<polygon fill="black" stroke="black" points="141.65,-128.68 131.98,-124.36 136.84,-133.77 141.65,-128.68"/>
</a>
</g>
</g>
<!-- MATH0056 -->
<g id="node13" class="node">
<title>MATH0056</title>
<g id="a_node13"><a xlink:href="https://www.ucl.ac.uk/mathematical-physical-sciences/sites/mathematical_physical_sciences/files/math0056.pdf" xlink:title="Year 2 or 3, term 2">
<polygon fill="white" stroke="#8ee5ee" stroke-width="5" points="1216.25,-199.5 1021.75,-199.5 1021.75,-157 1216.25,-157 1216.25,-199.5"/>
<text xml:space="preserve" text-anchor="middle" x="1119" y="-182.2" font-family="Times,serif" font-size="14.00">MATH0056</text>
<text xml:space="preserve" text-anchor="middle" x="1119" y="-164.95" font-family="Times,serif" font-size="14.00">Mathematical Methods 4</text>
</a>
</g>
</g>
<!-- MATH0016&#45;&gt;MATH0056 -->
<g id="edge12" class="edge">
<title>MATH0016&#45;&gt;MATH0056</title>
<g id="a_edge12"><a xlink:title="required prerequisite">
<path fill="none" stroke="black" d="M1254.62,-233C1233.32,-224.56 1208.97,-214.91 1186.83,-206.14"/>
<polygon fill="black" stroke="black" points="1188.16,-202.9 1177.57,-202.47 1185.58,-209.4 1188.16,-202.9"/>
</a>
</g>
</g>
<!-- MATH0031 -->
<g id="node18" class="node">
<title>MATH0031</title>
<g id="a_node18"><a xlink:href="https://www.ucl.ac.uk/mathematical-physical-sciences/sites/mathematical_physical_sciences/files/math0031.pdf" xlink:title="Year 3, term 2">
<polygon fill="white" stroke="#cd3333" stroke-width="5" points="1450.38,-121 1271.62,-121 1271.62,-78.5 1450.38,-78.5 1450.38,-121"/>
<text xml:space="preserve" text-anchor="middle" x="1361" y="-103.7" font-family="Times,serif" font-size="14.00">MATH0031</text>
<text xml:space="preserve" text-anchor="middle" x="1361" y="-86.45" font-family="Times,serif" font-size="14.00">Financial Mathematics</text>
</a>
</g>
</g>
<!-- MATH0016&#45;&gt;MATH0031 -->
<g id="edge25" class="edge">
<title>MATH0016&#45;&gt;MATH0031</title>
<g id="a_edge25"><a xlink:title="required prerequisite">
<path fill="none" stroke="black" d="M1303.25,-233.22C1296.65,-212.56 1290.37,-181.53 1301,-157 1305.17,-147.38 1311.88,-138.65 1319.34,-131.09"/>
<polygon fill="black" stroke="black" points="1321.6,-133.77 1326.53,-124.39 1316.83,-128.65 1321.6,-133.77"/>
</a>
</g>
</g>
<!-- MATH0117 -->
<g id="node20" class="node">
<title>MATH0117</title>
<g id="a_node20"><a xlink:href="https://www.ucl.ac.uk/mathematical-physical-sciences/sites/mathematical_physical_sciences/files/math0117.pdf" xlink:title="Year 3 or 4, term 2">
<polygon fill="white" stroke="#cd1076" stroke-width="5" points="2009.38,-42.5 1782.62,-42.5 1782.62,0 2009.38,0 2009.38,-42.5"/>
<text xml:space="preserve" text-anchor="middle" x="1896" y="-25.2" font-family="Times,serif" font-size="14.00">MATH0117</text>
<text xml:space="preserve" text-anchor="middle" x="1896" y="-7.95" font-family="Times,serif" font-size="14.00">Spatial Mathematical Biology</text>
</a>
</g>
</g>
<!-- MATH0016&#45;&gt;MATH0117 -->
<g id="edge29" class="edge">
<title>MATH0016&#45;&gt;MATH0117</title>
<g id="a_edge29"><a xlink:title="required prerequisite">
<path fill="none" stroke="black" d="M1411.42,-246.55C1515.5,-232.96 1680.03,-199.93 1799,-121 1820.11,-106.99 1819.37,-96.7 1837,-78.5 1845.36,-69.87 1854.66,-60.78 1863.36,-52.48"/>
<polygon fill="black" stroke="black" points="1865.51,-55.27 1870.37,-45.85 1860.7,-50.18 1865.51,-55.27"/>
</a>
</g>
</g>
<!-- MATH0088 -->
<g id="node24" class="node">
<title>MATH0088</title>
<g id="a_node24"><a xlink:href="https://www.ucl.ac.uk/mathematical-physical-sciences/sites/mathematical_physical_sciences/files/math0088.pdf" xlink:title="Year 4, term 2">
<polygon fill="white" stroke="#1874cd" stroke-width="5" points="1394.12,-42.5 1087.88,-42.5 1087.88,0 1394.12,0 1394.12,-42.5"/>
<text xml:space="preserve" text-anchor="middle" x="1241" y="-25.2" font-family="Times,serif" font-size="14.00">MATH0088</text>
<text xml:space="preserve" text-anchor="middle" x="1241" y="-7.95" font-family="Times,serif" font-size="14.00">Quantitative and Computational Finance</text>
</a>
</g>
</g>
<!-- MATH0016&#45;&gt;MATH0088 -->
<g id="edge41" class="edge">
<title>MATH0016&#45;&gt;MATH0088</title>
<g id="a_edge41"><a xlink:title="required prerequisite">
<path fill="none" stroke="black" d="M1303.44,-233.06C1299.6,-222.82 1295.04,-210.57 1291,-199.5 1278.3,-164.7 1273.27,-156.59 1263,-121 1256.83,-99.62 1251.38,-75.21 1247.45,-56.01"/>
<polygon fill="black" stroke="black" points="1250.89,-55.41 1245.5,-46.29 1244.03,-56.78 1250.89,-55.41"/>
</a>
</g>
</g>
<!-- MATH0013&#45;&gt;MATH0056 -->
<g id="edge11" class="edge">
<title>MATH0013&#45;&gt;MATH0056</title>
<g id="a_edge11"><a xlink:title="required prerequisite">
<path fill="none" stroke="black" d="M1066.8,-233.21C1073.82,-225.96 1081.71,-217.8 1089.2,-210.06"/>
<polygon fill="black" stroke="black" points="1091.61,-212.6 1096.05,-202.98 1086.58,-207.73 1091.61,-212.6"/>
</a>
</g>
</g>
<!-- MATH0013&#45;&gt;MATH0065 -->
<g id="edge38" class="edge">
<title>MATH0013&#45;&gt;MATH0065</title>
<g id="a_edge38"><a xlink:title="required prerequisite">
<path fill="none" stroke="black" d="M1161.5,-240.96C1176.47,-239.1 1191.6,-237.24 1206,-235.5 1344.14,-218.82 1386.23,-247.05 1517,-199.5 1560.23,-183.78 1603.45,-153.38 1632.32,-130.45"/>
<polygon fill="black" stroke="black" points="1634.41,-133.25 1639.99,-124.24 1630.01,-127.81 1634.41,-133.25"/>
</a>
</g>
</g>
<!-- MATH0058&#45;&gt;MATH0033 -->
<g id="edge17" class="edge">
<title>MATH0058&#45;&gt;MATH0033</title>
<g id="a_edge17"><a xlink:title="required prerequisite">
<path fill="none" stroke="black" d="M781,-154.71C781,-148.39 781,-141.37 781,-134.54"/>
<polygon fill="black" stroke="black" points="784.5,-134.91 781,-124.91 777.5,-134.91 784.5,-134.91"/>
</a>
</g>
</g>
<!-- MATH0086 -->
<g id="node23" class="node">
<title>MATH0086</title>
<g id="a_node23"><a xlink:href="https://www.ucl.ac.uk/mathematical-physical-sciences/sites/mathematical_physical_sciences/files/math0086.pdf" xlink:title="Year 4, term 1">
<polygon fill="white" stroke="#1c86ee" stroke-width="5" points="1178.12,-121 877.88,-121 877.88,-78.5 1178.12,-78.5 1178.12,-121"/>
<text xml:space="preserve" text-anchor="middle" x="1028" y="-103.7" font-family="Times,serif" font-size="14.00">MATH0086</text>
<text xml:space="preserve" text-anchor="middle" x="1028" y="-86.45" font-family="Times,serif" font-size="14.00">Computational and Simulation Methods</text>
</a>
</g>
</g>
<!-- MATH0058&#45;&gt;MATH0086 -->
<g id="edge40" class="edge">
<title>MATH0058&#45;&gt;MATH0086</title>
<g id="a_edge40"><a xlink:title="recommended prerequisite">
<path fill="none" stroke="black" stroke-dasharray="5,2" d="M854.44,-154.5C882.56,-145.8 914.85,-135.8 943.89,-126.8"/>
<polygon fill="black" stroke="black" points="944.88,-130.16 953.4,-123.86 942.81,-123.47 944.88,-130.16"/>
</a>
</g>
</g>
<!-- MATH0057&#45;&gt;MATH0114 -->
<g id="edge24" class="edge">
<title>MATH0057&#45;&gt;MATH0114</title>
<g id="a_edge24"><a xlink:title="recommended prerequisite">
<path fill="none" stroke="black" stroke-dasharray="5,2" d="M1307.85,-165.35C1280.94,-162.39 1251.89,-159.39 1225,-157 993.07,-136.38 931.75,-139.02 697.85,-121.29"/>
<polygon fill="black" stroke="black" points="698.33,-117.81 688.09,-120.54 697.79,-124.79 698.33,-117.81"/>
</a>
</g>
</g>
<!-- MATH0057&#45;&gt;MATH0031 -->
<g id="edge26" class="edge">
<title>MATH0057&#45;&gt;MATH0031</title>
<g id="a_edge26"><a xlink:title="required prerequisite">
<path fill="none" stroke="black" d="M1394.86,-154.71C1390.6,-147.92 1385.84,-140.34 1381.27,-133.05"/>
<polygon fill="black" stroke="black" points="1384.29,-131.28 1376.01,-124.67 1378.36,-135 1384.29,-131.28"/>
</a>
</g>
</g>
<!-- MATH0057&#45;&gt;MATH0102 -->
<g id="edge35" class="edge">
<title>MATH0057&#45;&gt;MATH0102</title>
<g id="a_edge35"><a xlink:title="recommended prerequisite">
<path fill="none" stroke="black" stroke-dasharray="5,2" d="M1430.62,-154.75C1439.79,-144.75 1450.34,-132.63 1459,-121 1474.78,-99.8 1490.4,-74.41 1501.88,-54.68"/>
<polygon fill="black" stroke="black" points="1504.79,-56.66 1506.74,-46.25 1498.72,-53.17 1504.79,-56.66"/>
</a>
</g>
</g>
<!-- MATH0056&#45;&gt;MATH0102 -->
<g id="edge32" class="edge">
<title>MATH0056&#45;&gt;MATH0102</title>
<g id="a_edge32"><a xlink:title="recommended prerequisite">
<path fill="none" stroke="black" stroke-dasharray="5,2" d="M1145.27,-154.55C1172.8,-131.94 1218.21,-97.88 1263,-78.5 1287.85,-67.75 1344.83,-54.89 1398.83,-44.18"/>
<polygon fill="black" stroke="black" points="1399.31,-47.65 1408.45,-42.29 1397.96,-40.78 1399.31,-47.65"/>
</a>
</g>
</g>
<!-- MATH0056&#45;&gt;MATH0086 -->
<g id="edge39" class="edge">
<title>MATH0056&#45;&gt;MATH0086</title>
<g id="a_edge39"><a xlink:title="required prerequisite">
<path fill="none" stroke="black" d="M1092.19,-154.71C1083.2,-147.15 1073.03,-138.6 1063.48,-130.58"/>
<polygon fill="black" stroke="black" points="1066,-128.12 1056.09,-124.37 1061.49,-133.48 1066,-128.12"/>
</a>
</g>
</g>
<!-- MATH0030&#45;&gt;MATH0117 -->
<g id="edge28" class="edge">
<title>MATH0030&#45;&gt;MATH0117</title>
<g id="a_edge28"><a xlink:title="required prerequisite">
<path fill="none" stroke="black" d="M2081.51,-76C2051.19,-67.22 2016.33,-57.12 1985.08,-48.06"/>
<polygon fill="black" stroke="black" points="1986.22,-44.75 1975.65,-45.33 1984.28,-51.47 1986.22,-44.75"/>
</a>
</g>
</g>
<!-- MATH0031&#45;&gt;MATH0102 -->
<g id="edge33" class="edge">
<title>MATH0031&#45;&gt;MATH0102</title>
<g id="a_edge33"><a xlink:title="recommended prerequisite">
<path fill="none" stroke="black" stroke-dasharray="5,2" d="M1408.27,-76C1425.34,-67.79 1444.79,-58.44 1462.62,-49.86"/>
<polygon fill="black" stroke="black" points="1464.05,-53.05 1471.54,-45.56 1461.01,-46.75 1464.05,-53.05"/>
</a>
</g>
</g>
<!-- MATH0031&#45;&gt;MATH0088 -->
<g id="edge42" class="edge">
<title>MATH0031&#45;&gt;MATH0088</title>
<g id="a_edge42"><a xlink:title="recommended prerequisite">
<path fill="none" stroke="black" stroke-dasharray="5,2" d="M1325.32,-76C1312.99,-68.14 1299.01,-59.23 1286.02,-50.95"/>
<polygon fill="black" stroke="black" points="1287.92,-48.01 1277.61,-45.59 1284.16,-53.92 1287.92,-48.01"/>
</a>
</g>
</g>
<!-- MATH0065&#45;&gt;MATH0102 -->
<g id="edge34" class="edge">
<title>MATH0065&#45;&gt;MATH0102</title>
<g id="a_edge34"><a xlink:title="recommended prerequisite">
<path fill="none" stroke="black" stroke-dasharray="5,2" d="M1623.29,-76C1607.66,-67.87 1589.87,-58.61 1573.51,-50.1"/>
<polygon fill="black" stroke="black" points="1575.37,-47.12 1564.88,-45.61 1572.14,-53.33 1575.37,-47.12"/>
</a>
</g>
</g>
</g>
</svg>
